<svg width="32" height="32" viewBox="0 0 32 32" fill="none" xmlns="http://www.w3.org/2000/svg">
<path d="M20.2 20.8H11.8V9.59995H20.2V20.8ZM17.6 23.2H14.4V22.4H17.6V23.2ZM19.2 7.19995H12.8C12.1635 7.19995 11.553 7.45281 11.1029 7.90289C10.6529 8.35298 10.4 8.96343 10.4 9.59995V22.4C10.4 23.0365 10.6529 23.6469 11.1029 24.097C11.553 24.5471 12.1635 24.7999 12.8 24.7999H19.2C19.8365 24.7999 20.447 24.5471 20.8971 24.097C21.3471 23.6469 21.6 23.0365 21.6 22.4V9.59995C21.6 8.96343 21.3471 8.35298 20.8971 7.90289C20.447 7.45281 19.8365 7.19995 19.2 7.19995Z" fill="#253C5E"/>
</svg>
