<svg width="135" height="121" viewBox="0 0 135 121" fill="none" xmlns="http://www.w3.org/2000/svg">
<path d="M70.0814 120.526C103.323 120.526 130.271 93.5783 130.271 60.3366C130.271 27.0948 103.323 0.146973 70.0814 0.146973C36.8396 0.146973 9.89185 27.0948 9.89185 60.3366C9.89185 93.5783 36.8396 120.526 70.0814 120.526Z" fill="#E0E8FB"/>
<path d="M10.346 62.3916C14.8741 62.3916 18.5449 58.7208 18.5449 54.1926C18.5449 49.6645 14.8741 45.9937 10.346 45.9937C5.81778 45.9937 2.14697 49.6645 2.14697 54.1926C2.14697 58.7208 5.81778 62.3916 10.346 62.3916Z" fill="white"/>
<path d="M10.346 63.5871C5.15894 63.5871 0.927979 59.3801 0.927979 54.193C0.927979 49.0059 5.15894 44.7749 10.346 44.7749C15.5332 44.7749 19.7402 49.0059 19.7402 54.193C19.7402 59.3801 15.5332 63.5871 10.346 63.5871ZM10.346 47.1653C6.47364 47.1653 3.31835 50.3206 3.31835 54.193C3.31835 58.0654 6.47364 61.1968 10.346 61.1968C14.2184 61.1968 17.3498 58.0415 17.3498 54.193C17.3737 50.3206 14.2184 47.1653 10.346 47.1653Z" fill="#C0D4F9"/>
<path d="M14.2901 85.8419C17.3133 85.8419 19.7641 83.3912 19.7641 80.368C19.7641 77.3448 17.3133 74.894 14.2901 74.894C11.2669 74.894 8.81616 77.3448 8.81616 80.368C8.81616 83.3912 11.2669 85.8419 14.2901 85.8419Z" fill="white"/>
<path d="M14.2902 87.037C10.6091 87.037 7.62109 84.049 7.62109 80.3679C7.62109 76.6867 10.6091 73.6987 14.2902 73.6987C17.9714 73.6987 20.9594 76.6867 20.9594 80.3679C20.9594 84.049 17.9714 87.037 14.2902 87.037ZM14.2902 76.0891C11.9238 76.0891 10.0115 78.0014 10.0115 80.3679C10.0115 82.7343 11.9238 84.6466 14.2902 84.6466C16.6567 84.6466 18.569 82.7343 18.569 80.3679C18.569 78.0014 16.6567 76.0891 14.2902 76.0891Z" fill="#C0D4F9"/>
<path d="M126.136 89.3324C129.832 89.3324 132.829 86.3358 132.829 82.6393C132.829 78.9429 129.832 75.9463 126.136 75.9463C122.439 75.9463 119.443 78.9429 119.443 82.6393C119.443 86.3358 122.439 89.3324 126.136 89.3324Z" fill="white"/>
<path d="M126.136 90.5514C121.785 90.5514 118.248 87.0136 118.248 82.6631C118.248 78.3127 121.785 74.7749 126.136 74.7749C130.486 74.7749 134.024 78.3127 134.024 82.6631C134.024 87.0136 130.486 90.5514 126.136 90.5514ZM126.136 77.1414C123.1 77.1414 120.638 79.6034 120.638 82.6392C120.638 85.675 123.1 88.1371 126.136 88.1371C129.172 88.1371 131.634 85.675 131.634 82.6392C131.658 79.6034 129.172 77.1414 126.136 77.1414Z" fill="#C0D4F9"/>
<path d="M90.0887 40.329C79.0452 29.2855 61.0935 29.2855 50.05 40.329C39.0065 51.3725 39.0065 69.3243 50.05 80.3678C61.0935 91.4113 79.0452 91.4113 90.0887 80.3678C101.132 69.3243 101.132 51.3725 90.0887 40.329Z" fill="white"/>
<path d="M70.0814 91.0288C61.8824 91.0288 54.1615 87.8496 48.3768 82.041C36.4011 70.0652 36.4011 50.6076 48.3768 38.6318C54.1615 32.8471 61.8824 29.644 70.0814 29.644C78.2804 29.644 86.0013 32.8232 91.786 38.6318C97.5707 44.4165 100.774 52.1375 100.774 60.3364C100.774 68.5354 97.5946 76.2563 91.786 82.041C86.0013 87.8496 78.2804 91.0288 70.0814 91.0288ZM70.0814 34.4487C63.1493 34.4487 56.6475 37.1498 51.7473 42.0262C41.636 52.1375 41.636 68.5593 51.7473 78.6706C56.6236 83.547 63.1493 86.2481 70.0814 86.2481C77.0135 86.2481 83.5153 83.547 88.4156 78.6706C93.2919 73.7942 95.9931 67.2685 95.9931 60.3364C95.9931 53.4044 93.2919 46.9025 88.4156 42.0023C83.5153 37.1259 77.0135 34.4487 70.0814 34.4487Z" fill="#C0D4F9"/>
<path d="M88.3931 38.6325L48.3684 78.6572L51.7489 82.0377L91.7736 42.013L88.3931 38.6325Z" fill="#C0D4F9"/>
</svg>
