<svg id="Layer_1" data-name="Layer 1" xmlns="http://www.w3.org/2000/svg" viewBox="0 0 60.66 60.66"><defs><style>.cls-1{fill:#e0e8fb;}.cls-2,.cls-3{fill:#fff;}.cls-2{stroke:#c0d4f9;stroke-miterlimit:10;}.cls-4{fill:#c0d4f9;}</style></defs><circle class="cls-1" cx="31.6" cy="30.33" r="25.18"/><circle class="cls-2" cx="6.42" cy="28.11" r="3.43"/><circle class="cls-2" cx="8.99" cy="41.35" r="2.29"/><circle class="cls-2" cx="54.86" cy="40.01" r="2.8"/><circle class="cls-3" cx="40.13" cy="36.4" r="8.84"/><path class="cls-3" d="M32,40.61H17.54l.31-10.72,4.66-3.73,2.24-.45v-.86l-1.42-1.48-1.12-2.92.56-4.36s2.72-1.9,3.13-2.1a17.22,17.22,0,0,1,4.52.77c.14.15,1.55,3.48,1.55,3.48l-.28,3.9-2.31,3.39L33,26.91l2.76,1.83L32,32.81l-.64,4.4Z"/><path class="cls-4" d="M38.76,42.31l-5.22-5.23,3.15-3.15L38.76,36l4.81-4.81,3.16,3.15Zm-3-5.23,3,3,5.78-5.79-1-1-4.81,4.82-2.07-2.06Z"/><path class="cls-4" d="M40.13,46.11a9.72,9.72,0,1,1,9.72-9.71A9.73,9.73,0,0,1,40.13,46.11Zm0-17.88A8.17,8.17,0,1,0,48.3,36.4,8.17,8.17,0,0,0,40.13,28.23Z"/><path class="cls-4" d="M27.06,26.16a5.54,5.54,0,0,1-4-1.61,5.78,5.78,0,0,1-1.58-4.11V18.65a5.81,5.81,0,0,1,1.58-4.12,5.81,5.81,0,0,1,8,0,5.84,5.84,0,0,1,1.57,4.12v1.79a5.82,5.82,0,0,1-1.57,4.11A5.54,5.54,0,0,1,27.06,26.16Zm0-11.69a3.9,3.9,0,0,0-4,4.18v1.79a3.9,3.9,0,0,0,4,4.18,3.9,3.9,0,0,0,4.05-4.18V18.65A3.9,3.9,0,0,0,27.06,14.47Z"/><path class="cls-4" d="M35,29.2c-1.81-2.09-5.72-3-7.92-3a13.58,13.58,0,0,0-5.87,1.48l-.72-1.36a15.12,15.12,0,0,1,6.59-1.66c2.32,0,6.84,1,9.09,3.57Z"/><path class="cls-4" d="M32.24,41.38H16.66v-9.8c0-4.92,6.78-7,10.4-7a15.19,15.19,0,0,1,6.6,1.66l-.73,1.36a13.58,13.58,0,0,0-5.87-1.48c-3.17,0-8.85,1.81-8.85,5.42v8.26h14Z"/></svg>