<svg id="Layer_1" data-name="Layer 1" xmlns="http://www.w3.org/2000/svg" viewBox="0 0 60.66 60.66"><defs><style>.cls-1{fill:#e0e8fb;}.cls-2,.cls-3{fill:#fff;}.cls-2{stroke:#c0d4f9;stroke-miterlimit:10;}.cls-4{fill:#c0d4f9;}</style></defs><circle class="cls-1" cx="31.6" cy="30.33" r="25.18"/><circle class="cls-2" cx="6.42" cy="28.11" r="3.43"/><circle class="cls-2" cx="9.86" cy="43.08" r="2.29"/><circle class="cls-2" cx="54.86" cy="40.01" r="2.8"/><path class="cls-3" d="M45,34.25l.83,4.48.71,1.74L44,40.78H17l5.22-20.57L35.36,20,34,18a9.27,9.27,0,0,1,1.07-1.43c.2-.08,3.46-1,3.46-1l3,.64,1.82,1.68s-.9,1.53-1,1.78-1,.86-1,.86l.14,4.32.6,2.2,2.72,1.51.65,2.39Z"/><path class="cls-4" d="M38.71,21.37V20.08a6.42,6.42,0,0,0,2.34-.42l.48,1.2A7.73,7.73,0,0,1,38.71,21.37Z"/><path class="cls-4" d="M38.71,36.87c-4.05,0-7.11-1.56-7.11-3.62V29.61A3,3,0,0,1,33.88,27a2.08,2.08,0,0,0,1.6-1.9V20.68a3,3,0,0,1-1.94-2.54c0-1.81,2.27-3.23,5.17-3.23s5.17,1.42,5.17,3.23a3,3,0,0,1-1.94,2.54v4.43A2.07,2.07,0,0,0,43.53,27a3,3,0,0,1,2.28,2.6v3.64C45.81,35.31,42.76,36.87,38.71,36.87Zm0-20.67c-2.29,0-3.88,1-3.88,1.94,0,.56.59,1.14,1.53,1.52l.41.16v5.29a3.33,3.33,0,0,1-2.44,3.12c-.87.32-1.43.86-1.43,1.38v3.64c0,1.1,2.48,2.33,5.81,2.33s5.81-1.23,5.81-2.33V29.61c0-.52-.56-1.06-1.43-1.38a3.33,3.33,0,0,1-2.44-3.12V19.82l.4-.16c1-.38,1.53-1,1.53-1.52C42.58,17.22,41,16.2,38.71,16.2Z"/><path class="cls-4" d="M38.71,33.64a11.42,11.42,0,0,1-4.7-.93l.55-1.17a10.1,10.1,0,0,0,4.15.81c3.42,0,5.81-1.36,5.81-2.58h1.29C45.81,31.94,42.69,33.64,38.71,33.64Z"/><polygon class="cls-4" points="47.3 41.39 15.9 41.39 21.86 19.43 35.12 19.66 36.07 20.73 22.85 20.73 17.59 40.1 45.62 40.1 44.11 34.65 45.36 34.31 47.3 41.39"/><rect class="cls-4" x="24.5" y="22.66" width="9.04" height="1.29"/><rect class="cls-4" x="23.85" y="25.25" width="9.04" height="1.29"/></svg>