<svg width="135" height="121" viewBox="0 0 135 121" fill="none" xmlns="http://www.w3.org/2000/svg">
<path d="M70.5355 120.69C103.777 120.69 130.725 93.7419 130.725 60.5001C130.725 27.2583 103.777 0.310547 70.5355 0.310547C37.2937 0.310547 10.3459 27.2583 10.3459 60.5001C10.3459 93.7419 37.2937 120.69 70.5355 120.69Z" fill="#E0E8FB"/>
<path d="M10.346 63.3921C14.8741 63.3921 18.5449 59.7213 18.5449 55.1931C18.5449 50.6649 14.8741 46.9941 10.346 46.9941C5.81778 46.9941 2.14697 50.6649 2.14697 55.1931C2.14697 59.7213 5.81778 63.3921 10.346 63.3921Z" fill="white"/>
<path d="M10.346 64.5876C5.15894 64.5876 0.927979 60.3806 0.927979 55.1935C0.927979 50.0063 5.15894 45.7754 10.346 45.7754C15.5332 45.7754 19.7402 50.0063 19.7402 55.1935C19.7402 60.3806 15.5332 64.5876 10.346 64.5876ZM10.346 48.1658C6.47364 48.1658 3.31835 51.3211 3.31835 55.1935C3.31835 59.0659 6.47364 62.1972 10.346 62.1972C14.2185 62.1972 17.3498 59.042 17.3498 55.1935C17.3737 51.3211 14.2185 48.1658 10.346 48.1658Z" fill="#C0D4F9"/>
<path d="M14.2904 86.8424C17.3135 86.8424 19.7643 84.3917 19.7643 81.3685C19.7643 78.3453 17.3135 75.8945 14.2904 75.8945C11.2672 75.8945 8.81641 78.3453 8.81641 81.3685C8.81641 84.3917 11.2672 86.8424 14.2904 86.8424Z" fill="white"/>
<path d="M14.2902 88.0375C10.6091 88.0375 7.62109 85.0495 7.62109 81.3684C7.62109 77.6872 10.6091 74.6992 14.2902 74.6992C17.9714 74.6992 20.9594 77.6872 20.9594 81.3684C20.9594 85.0495 17.9714 88.0375 14.2902 88.0375ZM14.2902 77.0896C11.9238 77.0896 10.0115 79.0019 10.0115 81.3684C10.0115 83.7348 11.9238 85.6471 14.2902 85.6471C16.6567 85.6471 18.569 83.7348 18.569 81.3684C18.569 79.0019 16.6567 77.0896 14.2902 77.0896Z" fill="#C0D4F9"/>
<path d="M126.136 90.3319C129.832 90.3319 132.829 87.3353 132.829 83.6388C132.829 79.9424 129.832 76.9458 126.136 76.9458C122.439 76.9458 119.443 79.9424 119.443 83.6388C119.443 87.3353 122.439 90.3319 126.136 90.3319Z" fill="white"/>
<path d="M126.136 91.5509C121.785 91.5509 118.248 88.0131 118.248 83.6626C118.248 79.3122 121.785 75.7744 126.136 75.7744C130.486 75.7744 134.024 79.3122 134.024 83.6626C134.024 88.0131 130.486 91.5509 126.136 91.5509ZM126.136 78.1409C123.1 78.1409 120.638 80.603 120.638 83.6387C120.638 86.6745 123.1 89.1366 126.136 89.1366C129.172 89.1366 131.634 86.6745 131.634 83.6387C131.658 80.603 129.172 78.1409 126.136 78.1409Z" fill="#C0D4F9"/>
<path d="M63.4841 82.7066L56.1218 83.591L52.2255 77.2804L45.2217 74.89L44.4329 67.5277L39.1501 62.3167L41.66 55.3368L39.1501 48.3569L44.4329 43.1459L45.2217 35.7835L52.2255 33.3932L56.1218 27.0826L63.4841 27.967L69.723 23.9751L75.9619 27.967L83.3242 27.0826L87.2205 33.3932L94.2482 35.7835L95.0371 43.1459L100.32 48.3569L97.8099 55.3368L100.32 62.3167L95.0371 67.5277L94.2482 74.89L87.2205 77.2804L83.3242 83.591L75.9619 82.7066L69.723 86.6985L63.4841 82.7066ZM69.7469 40.6838C61.6675 40.6838 55.0939 47.2573 55.0939 55.3368C55.0939 63.4162 61.6675 69.9898 69.7469 69.9898C77.8264 69.9898 84.3999 63.4162 84.3999 55.3368C84.3999 47.2573 77.8264 40.6838 69.7469 40.6838Z" fill="#C0D4F9"/>
<path d="M81.4118 79.551L84.7345 74.1488L90.7582 72.0931L91.4275 65.7825L95.9453 61.3364L93.794 55.3605L95.9453 49.3846L91.4275 44.9385L90.7582 38.6279L84.7345 36.5722L81.4118 31.1699L75.1013 31.9348L69.7468 28.5166L64.3924 31.9348L58.0818 31.1699L54.7592 36.5722L48.7354 38.6279L48.0661 44.8906L43.5483 49.3367L45.6997 55.3127L43.5483 61.2886L48.0661 65.7347L48.7354 72.0453L54.7592 74.101L58.0818 79.5032L64.3924 78.7383L69.7468 82.1566L75.1013 78.7383L81.4118 79.551ZM51.3171 55.3366C51.3171 45.1775 59.5877 36.9068 69.7468 36.9068C79.9059 36.9068 88.1766 45.1775 88.1766 55.3366C88.1766 65.4957 79.9059 73.7663 69.7468 73.7663C59.5877 73.7663 51.3171 65.4957 51.3171 55.3366Z" fill="white"/>
<path d="M69.7469 73.2648C59.8507 73.2648 51.8191 65.2092 51.8191 55.337C51.8191 45.4408 59.8746 37.4092 69.7469 37.4092C79.6191 37.4092 87.6747 45.4647 87.6747 55.337C87.6747 65.2331 79.6191 73.2648 69.7469 73.2648Z" fill="#C0D4F9"/>
<path d="M69.747 41.186C61.9304 41.186 55.5959 47.5444 55.5959 55.337C55.5959 63.1536 61.9543 69.488 69.747 69.488C77.5396 69.488 83.898 63.1297 83.898 55.337C83.898 47.5205 77.5396 41.186 69.747 41.186Z" fill="white"/>
<path d="M56.3848 90.8102L41.8274 91.599L48.1619 72.4282L54.4008 74.5557L57.819 80.0774L64.273 79.3125L72.7349 84.7147L67.6673 99.8219L56.3848 90.8102Z" fill="#C0D4F9"/>
<path d="M63.3647 83.2323L55.8589 84.1406L51.8909 77.7105L50.5523 77.2563L47.158 87.5589L57.6278 86.9852L65.8029 93.5348L68.2171 86.3398L63.3647 83.2323Z" fill="white"/>
<path d="M66.7351 84.7147L75.2209 79.3125L81.651 80.0774L85.0693 74.5557L91.3081 72.4282L97.6426 91.599L83.0853 90.8102L71.8027 99.8219L66.7351 84.7147Z" fill="#C0D4F9"/>
<path d="M87.5792 77.6871L83.6111 84.1172L76.1054 83.2088L71.2529 86.2924L73.6672 93.4874L81.8423 86.9378L92.3121 87.5115L88.9178 77.209L87.5792 77.6871Z" fill="white"/>
</svg>
