<?xml version="1.0" encoding="utf-8"?>
<!-- Generator: Adobe Illustrator 24.3.0, SVG Export Plug-In . SVG Version: 6.00 Build 0)  -->
<svg version="1.1" id="Layer_1" xmlns="http://www.w3.org/2000/svg" xmlns:xlink="http://www.w3.org/1999/xlink" x="0px" y="0px"
	 viewBox="0 0 60.7 60.7" style="enable-background:new 0 0 60.7 60.7;" xml:space="preserve">
<style type="text/css">
	.st0{fill:#E0E8FB;}
	.st1{fill:#FFFFFF;stroke:#C0D4F9;stroke-miterlimit:10;}
	.st2{fill:#FFFFFF;}
	.st3{fill:#C0D4F9;}
</style>
<g>
	<circle class="st0" cx="31.6" cy="30.3" r="25.2"/>
	<circle class="st1" cx="6.4" cy="28.1" r="3.4"/>
	<circle class="st1" cx="9" cy="41.3" r="2.3"/>
	<circle class="st1" cx="54.9" cy="40" r="2.8"/>
	<rect x="19.8" y="17.6" class="st2" width="23.7" height="27.6"/>
	<circle class="st2" cx="31.7" cy="16.7" r="2.5"/>
	<path class="st3" d="M42.5,46H20.9c-1.1,0-2-0.9-2-2V19c0-1.1,0.9-2,2-2h4.7v1.3h-4.7c-0.4,0-0.7,0.3-0.7,0.7c0,0,0,0,0,0v24.9
		c0,0.4,0.3,0.7,0.7,0.7c0,0,0,0,0,0h21.6c0.4,0,0.7-0.3,0.7-0.7V19c0-0.4-0.3-0.7-0.7-0.7c0,0,0,0,0,0h-4.7V17h4.7c1.1,0,2,0.9,2,2
		v24.9C44.5,45,43.6,46,42.5,46C42.5,46,42.5,46,42.5,46z"/>
	<polygon class="st3" points="41.8,43.3 21.6,43.3 21.6,19.7 24.6,19.7 24.6,21 22.9,21 22.9,41.9 40.4,41.9 40.4,21 38.8,21 
		38.8,19.7 41.8,19.7 	"/>
	<path class="st3" d="M39.1,21.7H24.3V19c0-1.5,1.2-2.7,2.7-2.7c0,0,0,0,0.1,0h1.4c0.4-1.8,2.1-3,4-2.6c1.3,0.3,2.4,1.3,2.6,2.6h1.4
		c1.5,0,2.7,1.2,2.7,2.7l0,0L39.1,21.7z M25.6,20.3h12.1V19c0-0.7-0.6-1.3-1.3-1.4c0,0,0,0,0,0h-2.7V17c0-1.1-0.9-2-2-2
		c-1.1,0-2,0.9-2,2v0.7H27c-0.7,0-1.4,0.5-1.4,1.3c0,0,0,0,0,0V20.3z"/>
	<rect x="31" y="16.3" class="st3" width="1.3" height="1.4"/>
	<polygon class="st3" points="27,28.7 25.1,26.9 26.1,25.9 27,26.8 29.2,24.6 30.1,25.5 	"/>
	<polygon class="st3" points="27,33.4 25.1,31.6 26.1,30.6 27,31.5 29.2,29.3 30.1,30.3 	"/>
	<polygon class="st3" points="27,38.1 25.1,36.3 26.1,35.4 27,36.2 29.2,34 30.1,35 	"/>
	<rect x="31.7" y="25.7" class="st3" width="6.1" height="1.4"/>
	<rect x="31.7" y="30.5" class="st3" width="6.1" height="1.4"/>
	<rect x="31.7" y="35.2" class="st3" width="6.1" height="1.3"/>
</g>
</svg>
