<?xml version="1.0" encoding="utf-8"?>
<!-- Generator: Adobe Illustrator 24.3.0, SVG Export Plug-In . SVG Version: 6.00 Build 0)  -->
<svg version="1.1" id="Layer_1" xmlns="http://www.w3.org/2000/svg" xmlns:xlink="http://www.w3.org/1999/xlink" x="0px" y="0px"
	 viewBox="0 0 60.7 60.7" style="enable-background:new 0 0 60.7 60.7;" xml:space="preserve">
<style type="text/css">
	.st0{fill:#E0E8FB;}
	.st1{fill:#FFFFFF;stroke:#C0D4F9;stroke-miterlimit:10;}
	.st2{fill:#FFFFFF;}
	.st3{fill:#C0D4F9;}
</style>
<g>
	<circle class="st0" cx="31.6" cy="30.3" r="25.2"/>
	<circle class="st1" cx="6.4" cy="28.1" r="3.4"/>
	<circle class="st1" cx="9" cy="41.4" r="2.3"/>
	<circle class="st1" cx="54.9" cy="40" r="2.8"/>
	<circle class="st2" cx="28.9" cy="23.9" r="10"/>
	<path class="st2" d="M41.7,47.3h-9.6v-1l-2.6-3.2l-2.2-4.5l0.7-1.5l2,1.1l2.1,1.6l0.4-11.8c0,0,2.2-0.2,2.3-0.2
		c0.1,0,0.6,5.3,0.6,5.3l7.6,2.7c0,0,1.3,3.2,1.3,3.3c0,0.1-1.4,7.3-1.4,7.3L41.7,47.3z"/>
	<g>
		<g>
			<path class="st3" d="M27.5,29.6c-0.2,0-0.4-0.1-0.5-0.2l-4.3-4.3c-0.3-0.3-0.3-0.7,0-1l2.1-2.1c0.3-0.3,0.7-0.3,1,0l1.6,1.6
				l4.5-4.5c0.3-0.3,0.7-0.3,1,0l2.1,2.1c0.3,0.3,0.3,0.7,0,1L28,29.4C27.9,29.5,27.7,29.6,27.5,29.6z M24.2,24.6l3.3,3.3l6.1-6.1
				l-1.1-1.1L28,25.1c-0.3,0.3-0.7,0.3-1,0l-1.6-1.6L24.2,24.6z"/>
		</g>
		<g>
			<path class="st3" d="M43.1,47.3h-1.4c0-0.6,0.3-1.2,0.7-1.8c0.4-0.6,0.7-1.2,0.7-1.8v-7.1c0-0.4-0.4-0.7-0.7-0.7h-2.1v-0.7
				c0-0.4-0.4-0.7-0.7-0.7h-1.8l-0.2-0.3c-0.1-0.2-0.6-0.4-0.8-0.4h-1.4v-1.4h1.4c0.5,0,1.3,0.3,1.7,0.7h1.1c0.8,0,1.7,0.6,2,1.4
				h0.8c1,0,2.1,0.9,2.1,2.1v7.1c0,1-0.5,1.8-0.9,2.5C43.4,46.7,43.1,47.1,43.1,47.3z"/>
		</g>
		<g>
			<rect x="37.4" y="33.9" class="st3" width="1.4" height="3.5"/>
		</g>
		<g>
			<rect x="40.3" y="35.3" class="st3" width="1.4" height="2.8"/>
		</g>
		<g>
			<path class="st3" d="M33.2,47.3h-1.4l0-0.1c0-0.2,0-0.4-0.5-0.9c-1.1-1-1.8-2.3-2.4-3.5c-0.6-1-1.1-2.1-2-3
				c-0.4-0.5-0.6-1.2-0.5-1.8c0.1-0.6,0.5-1.2,1.1-1.4c0.8-0.4,1.8-0.3,2.5,0.2c0.5,0.4,1.2,1,1.7,1.6l0-9.5c0-0.6,0.2-1.1,0.6-1.5
				c0.4-0.4,0.9-0.6,1.5-0.6c0,0,0,0,0,0c0.6,0,1.1,0.2,1.5,0.6c0.4,0.4,0.6,0.9,0.6,1.5v8.5h-1.4v-8.5c0-0.2-0.1-0.4-0.2-0.5
				c-0.1-0.1-0.3-0.2-0.5-0.2c0,0,0,0,0,0c-0.2,0-0.4,0.1-0.5,0.2c-0.1,0.1-0.2,0.3-0.2,0.5l0,10.8c0,0.4-0.2,0.7-0.6,0.9
				c-0.4,0.1-0.8,0-1-0.3l0,0c-0.5-0.5-1.6-1.8-2.3-2.3c-0.3-0.2-0.8-0.2-1.1-0.1c-0.2,0.1-0.3,0.3-0.3,0.4c0,0.2,0,0.4,0.2,0.6
				c0.9,1,1.5,2.2,2.1,3.3c0.6,1.2,1.3,2.3,2.2,3.1l0,0C33.1,46.3,33.2,46.7,33.2,47.3L33.2,47.3z"/>
		</g>
	</g>
	<g>
		<path class="st3" d="M28.9,13.2c-5.9,0-10.7,4.8-10.7,10.7S23,34.6,28.9,34.6c1.2,0,2.3-0.2,3.4-0.6c0-0.4-0.1-0.8-0.1-1.2
			c0-0.1,0-0.2,0-0.3c-1,0.4-2.1,0.6-3.3,0.6c-5.1,0-9.3-4.2-9.3-9.3s4.2-9.3,9.3-9.3s9.3,4.2,9.3,9.3c0,2.6-1.1,5-2.8,6.7
			c0,0.7-0.1,1.3-0.1,2c2.7-1.9,4.4-5.1,4.4-8.6C39.6,18,34.8,13.2,28.9,13.2z"/>
	</g>
</g>
</svg>
