<svg id="Layer_1" data-name="Layer 1" xmlns="http://www.w3.org/2000/svg" viewBox="0 0 60.66 60.66"><defs><style>.cls-1{fill:#e0e8fb;}.cls-2,.cls-3{fill:#fff;}.cls-2{stroke:#c0d4f9;stroke-miterlimit:10;}.cls-4{fill:#c0d4f9;}</style></defs><circle class="cls-1" cx="31.6" cy="30.33" r="25.18"/><circle class="cls-2" cx="6.42" cy="28.11" r="3.43"/><circle class="cls-2" cx="8.99" cy="41.35" r="2.29"/><circle class="cls-2" cx="54.86" cy="40.01" r="2.8"/><rect class="cls-3" x="19.76" y="17.64" width="23.69" height="27.56"/><circle class="cls-3" cx="31.67" cy="16.67" r="2.53"/><path class="cls-4" d="M42.46,46H20.89a2,2,0,0,1-2-2V19a2,2,0,0,1,2-2h4.69v1.35H20.89a.67.67,0,0,0-.68.68V43.93a.67.67,0,0,0,.68.67H42.46a.67.67,0,0,0,.67-.67V19a.67.67,0,0,0-.67-.68h-4.7V17h4.7a2,2,0,0,1,2,2V43.93A2,2,0,0,1,42.46,46Z"/><polygon class="cls-4" points="41.78 43.25 21.56 43.25 21.56 19.66 24.58 19.66 24.58 21.01 22.91 21.01 22.91 41.91 40.44 41.91 40.44 21.01 38.76 21.01 38.76 19.66 41.78 19.66 41.78 43.25"/><path class="cls-4" d="M39.09,21.68H24.26V19A2.7,2.7,0,0,1,27,16.29h1.42a3.37,3.37,0,0,1,6.61,0h1.41a2.7,2.7,0,0,1,2.7,2.7ZM25.61,20.33H37.74V19a1.34,1.34,0,0,0-1.35-1.35H33.7V17a2,2,0,0,0-4.05,0v.68H27A1.34,1.34,0,0,0,25.61,19Z"/><rect class="cls-4" x="31" y="16.29" width="1.35" height="1.35"/><polygon class="cls-4" points="26.95 28.7 25.13 26.88 26.08 25.92 26.95 26.8 29.17 24.58 30.13 25.53 26.95 28.7"/><polygon class="cls-4" points="26.95 33.42 25.13 31.6 26.08 30.64 26.95 31.52 29.17 29.3 30.13 30.25 26.95 33.42"/><polygon class="cls-4" points="26.95 38.14 25.13 36.31 26.08 35.36 26.95 36.23 29.17 34.01 30.13 34.97 26.95 38.14"/><rect class="cls-4" x="31.67" y="25.73" width="6.07" height="1.35"/><rect class="cls-4" x="31.67" y="30.45" width="6.07" height="1.35"/><rect class="cls-4" x="31.67" y="35.16" width="6.07" height="1.35"/></svg>