<svg id="Layer_1" data-name="Layer 1" xmlns="http://www.w3.org/2000/svg" viewBox="0 0 60.66 60.66"><defs><style>.cls-1{fill:#e0e8fb;}.cls-2,.cls-3{fill:#fff;}.cls-2{stroke:#c0d4f9;stroke-miterlimit:10;}.cls-4{fill:#c0d4f9;}</style></defs><circle class="cls-1" cx="31.6" cy="30.33" r="25.18"/><circle class="cls-2" cx="6.42" cy="28.11" r="3.43"/><circle class="cls-2" cx="8.99" cy="41.35" r="2.29"/><circle class="cls-2" cx="54.86" cy="40.01" r="2.8"/><rect class="cls-3" x="17.12" y="19.76" width="28.62" height="21.92"/><path class="cls-4" d="M33.8,38a2.89,2.89,0,0,1-1.7-.73,1.76,1.76,0,0,0-1-.49,1.76,1.76,0,0,0-1,.49,2.89,2.89,0,0,1-1.7.73,3.37,3.37,0,0,1-1.81-.74,2.3,2.3,0,0,0-1.12-.54,7.29,7.29,0,0,0-1.6.53c-1.41.57-2.73,1.1-3.41.33s-.16-1.86.36-3a5.35,5.35,0,0,0,.49-1.34,1.76,1.76,0,0,0-.48-.91,2.72,2.72,0,0,1-.72-1.65,2.72,2.72,0,0,1,.72-1.65,1.78,1.78,0,0,0,.48-.92,5.18,5.18,0,0,0-.49-1.33c-.52-1.13-1.06-2.31-.33-3s2-.21,3.38.36a7.16,7.16,0,0,0,1.6.52,2.27,2.27,0,0,0,1.12-.53,3.37,3.37,0,0,1,1.81-.74,2.89,2.89,0,0,1,1.7.73,1.83,1.83,0,0,0,1,.49,1.83,1.83,0,0,0,1-.49,2.89,2.89,0,0,1,1.7-.73,3.37,3.37,0,0,1,1.81.74,2.27,2.27,0,0,0,1.12.53,7.16,7.16,0,0,0,1.6-.52c1.4-.57,2.73-1.1,3.41-.33s.16,1.86-.36,3a5.18,5.18,0,0,0-.49,1.33,1.78,1.78,0,0,0,.48.92,2.72,2.72,0,0,1,.72,1.65,2.72,2.72,0,0,1-.72,1.65,1.76,1.76,0,0,0-.48.91,5.35,5.35,0,0,0,.49,1.34c.52,1.13,1,2.31.33,3s-2,.21-3.38-.36a7.29,7.29,0,0,0-1.6-.53,2.3,2.3,0,0,0-1.12.54A3.37,3.37,0,0,1,33.8,38Zm-2.67-2.44a2.86,2.86,0,0,1,1.7.73,1.83,1.83,0,0,0,1,.49,2.36,2.36,0,0,0,1.12-.53,3.29,3.29,0,0,1,1.81-.74,6.51,6.51,0,0,1,2.06.61,7.42,7.42,0,0,0,2,.63,4.76,4.76,0,0,0-.56-1.66,5.08,5.08,0,0,1-.6-1.84,2.72,2.72,0,0,1,.72-1.64,1.82,1.82,0,0,0,.48-.92,1.78,1.78,0,0,0-.48-.92,2.72,2.72,0,0,1-.72-1.65,5.1,5.1,0,0,1,.6-1.83,5.1,5.1,0,0,0,.57-1.66,7,7,0,0,0-2.05.63,6.51,6.51,0,0,1-2.06.61,3.29,3.29,0,0,1-1.81-.74,2.36,2.36,0,0,0-1.12-.53,1.83,1.83,0,0,0-1,.49,2.86,2.86,0,0,1-1.7.73,2.83,2.83,0,0,1-1.7-.73,1.83,1.83,0,0,0-1-.49,2.43,2.43,0,0,0-1.13.53,3.23,3.23,0,0,1-1.8.74,6.51,6.51,0,0,1-2.06-.61,7.08,7.08,0,0,0-2-.63A4.82,4.82,0,0,0,22,26.32a5.1,5.1,0,0,1,.6,1.83,2.78,2.78,0,0,1-.72,1.65,1.78,1.78,0,0,0-.48.92,1.82,1.82,0,0,0,.48.92,2.78,2.78,0,0,1,.72,1.64,5.08,5.08,0,0,1-.6,1.84,4.9,4.9,0,0,0-.57,1.65,6.64,6.64,0,0,0,2-.62,6.51,6.51,0,0,1,2.06-.61,3.23,3.23,0,0,1,1.8.74,2.43,2.43,0,0,0,1.13.53,1.83,1.83,0,0,0,1-.49A2.83,2.83,0,0,1,31.13,35.59Z"/><polygon class="cls-4" points="45.74 22.8 44.53 22.8 44.53 20.98 40.7 20.98 40.7 19.76 45.74 19.76 45.74 22.8"/><polygon class="cls-4" points="18.34 22.8 17.12 22.8 17.12 19.76 22.17 19.76 22.17 20.98 18.34 20.98 18.34 22.8"/><rect class="cls-4" x="21.39" y="19.76" width="20.09" height="1.22"/><polygon class="cls-4" points="45.74 41.68 42.7 41.68 42.7 40.46 44.53 40.46 44.53 36.63 45.74 36.63 45.74 41.68"/><polygon class="cls-4" points="20.17 41.68 17.12 41.68 17.12 36.63 18.34 36.63 18.34 40.46 20.17 40.46 20.17 41.68"/><rect class="cls-4" x="19.39" y="40.46" width="24.09" height="1.22"/><rect class="cls-4" x="26.87" y="28.89" width="8.53" height="1.22"/><rect class="cls-4" x="28.69" y="31.33" width="4.87" height="1.22"/><rect class="cls-4" x="17.12" y="22.02" width="1.22" height="15.4"/><rect class="cls-4" x="44.53" y="22.02" width="1.22" height="15.4"/></svg>