<svg id="Layer_1" data-name="Layer 1" xmlns="http://www.w3.org/2000/svg" viewBox="0 0 60.66 60.66"><defs><style>.cls-1{fill:#e0e8fb;}.cls-2,.cls-3{fill:#fff;}.cls-2{stroke:#c0d4f9;stroke-miterlimit:10;}.cls-4{fill:#c0d4f9;}</style></defs><circle class="cls-1" cx="31.6" cy="30.33" r="25.18"/><circle class="cls-2" cx="6.42" cy="28.11" r="3.43"/><circle class="cls-2" cx="8.99" cy="41.35" r="2.29"/><circle class="cls-2" cx="54.86" cy="40.01" r="2.8"/><rect class="cls-3" x="18.15" y="19.76" width="27.08" height="20.25"/><polyline class="cls-3" points="28 38.03 28 38.26 28 44.45 26.01 42.82 24.2 44.45 24.2 37.21 25.8 37.78 28 36.76"/><rect class="cls-4" x="30.98" y="34.53" width="0.62" height="1.24"/><path class="cls-4" d="M34.33,37a3.51,3.51,0,0,1-1.83-.71,2.48,2.48,0,0,0-1.16-.51V34.56a3.44,3.44,0,0,1,1.83.7,2.42,2.42,0,0,0,1.16.51,2.42,2.42,0,0,0,1.16-.51,3.44,3.44,0,0,1,1.83-.7,6.82,6.82,0,0,1,2.08.59,7.55,7.55,0,0,0,2.12.59,6,6,0,0,0-.58-1.67,5.29,5.29,0,0,1-.62-1.89,2.82,2.82,0,0,1,.74-1.69,1.83,1.83,0,0,0,.49-.93,1.86,1.86,0,0,0-.49-.94,2.77,2.77,0,0,1-.74-1.68,5.15,5.15,0,0,1,.62-1.87,5.64,5.64,0,0,0,.58-1.69,7.16,7.16,0,0,0-2.1.63,6.62,6.62,0,0,1-2.1.63,3.34,3.34,0,0,1-1.84-.75,2.49,2.49,0,0,0-1.15-.55,2.12,2.12,0,0,0-1.07.54,3.07,3.07,0,0,1-1.8.76,3,3,0,0,1-1.79-.76,2.11,2.11,0,0,0-1.08-.54,2.42,2.42,0,0,0-1.14.55,3.37,3.37,0,0,1-1.84.75,5.74,5.74,0,0,1-2-.64c-.53-.24-1.64-.74-1.9-.61-.11.25.36,1.23.58,1.7a4.86,4.86,0,0,1,.64,1.85,3.06,3.06,0,0,1-.75,1.74,2.18,2.18,0,0,0-.51,1c0,.24.17.45.46.76l-.92.84a2.33,2.33,0,0,1-.78-1.6A3,3,0,0,1,21.16,28a2.19,2.19,0,0,0,.52-1,5.07,5.07,0,0,0-.52-1.32c-.54-1.13-1.15-2.41-.29-3.15s2-.16,3.24.39a5.9,5.9,0,0,0,1.5.54,2.39,2.39,0,0,0,1.14-.54,3.34,3.34,0,0,1,1.84-.76,3.08,3.08,0,0,1,1.8.77,2.18,2.18,0,0,0,1.07.53,2.14,2.14,0,0,0,1.07-.53,3.11,3.11,0,0,1,1.8-.77,3.28,3.28,0,0,1,1.84.76,2.42,2.42,0,0,0,1.15.54A7.05,7.05,0,0,0,39,22.86c1.44-.58,2.79-1.12,3.48-.33s.17,1.89-.36,3a5.26,5.26,0,0,0-.51,1.36,1.86,1.86,0,0,0,.49.94,2.77,2.77,0,0,1,.74,1.68,2.77,2.77,0,0,1-.74,1.68,1.86,1.86,0,0,0-.49.94,5.74,5.74,0,0,0,.51,1.38c.53,1.18,1.08,2.39.31,3.09s-2,.19-3.41-.34a7.35,7.35,0,0,0-1.65-.51,2.48,2.48,0,0,0-1.16.51A3.48,3.48,0,0,1,34.33,37Z"/><polygon class="cls-4" points="28.5 45.98 26.01 43.49 23.52 45.98 23.52 37.02 24.77 37.02 24.77 42.98 26.01 41.73 27.25 42.98 27.25 37.02 28.5 37.02 28.5 45.98"/><path class="cls-4" d="M26,38.26a3.73,3.73,0,1,1,0-7.46h0a3.73,3.73,0,0,1,0,7.46Zm0-6.21a2.49,2.49,0,1,0,2.49,2.48A2.47,2.47,0,0,0,26,32.05Z"/><rect class="cls-4" x="27.25" y="26.45" width="8.7" height="1.24"/><rect class="cls-4" x="29.12" y="28.94" width="4.97" height="1.24"/><polygon class="cls-4" points="45.9 40.13 27.74 40.13 27.74 38.88 44.66 38.88 44.66 20.24 18.55 20.24 18.55 38.88 24.28 38.88 24.28 40.13 17.31 40.13 17.31 18.99 45.9 18.99 45.9 40.13"/></svg>