<svg width="145" height="145" viewBox="0 0 145 145" fill="none" xmlns="http://www.w3.org/2000/svg">
<g clip-path="url(#clip0_864_1041)">
<path d="M72.5001 132.69C105.742 132.69 132.69 105.742 132.69 72.5C132.69 39.2582 105.742 12.3104 72.5001 12.3104C39.2583 12.3104 12.3105 39.2582 12.3105 72.5C12.3105 105.742 39.2583 132.69 72.5001 132.69Z" fill="#E0E8FB"/>
<path d="M98.6746 104.292L46.2777 105.033L43.9829 101.997L44.4371 71.0897L54.8113 61.815L54.3571 40.3973L90.9537 39.9431L90.8581 63.56L99.5113 70.2769L101.161 72.9064V100.945L98.6746 104.292Z" fill="white"/>
<path d="M60.182 85.6259L47.4546 98.3533L49.4491 100.348L62.1765 87.6203L60.182 85.6259Z" fill="#C0D4F9"/>
<path d="M92.2921 79.5516H89.4475V41.4012H55.5282V79.5516H52.7075V38.5567H92.2921V79.5516Z" fill="#C0D4F9"/>
<path d="M72.4999 106.419H48.4528C45.3453 106.419 42.7876 103.886 42.7876 100.754V72.5C42.7876 69.9901 44.5326 68.532 45.7995 67.4563L46.1102 67.1934C47.3532 66.1177 52.9945 61.6955 53.2335 61.5043L54.9785 63.7273C54.9307 63.7751 49.146 68.3168 47.9508 69.3447L47.6162 69.6315C46.3732 70.6833 45.6082 71.4004 45.6082 72.5239V100.802C45.6082 102.356 46.8751 103.623 48.4289 103.623H72.4521V106.419H72.4999Z" fill="#C0D4F9"/>
<path d="M84.8001 85.6365L82.8057 87.631L95.5331 100.358L97.5276 98.364L84.8001 85.6365Z" fill="#C0D4F9"/>
<path d="M96.5232 106.419H72.5V103.599H96.5232C98.077 103.599 99.3439 102.332 99.3439 100.778V72.5C99.3439 71.3765 98.579 70.6594 97.336 69.6076L97.0252 69.3208C95.83 68.2929 90.0692 63.7512 89.9975 63.7034L91.7425 61.4804C91.9815 61.6716 97.6228 66.0938 98.8658 67.1695L99.1766 67.4324C100.443 68.5081 102.188 69.9662 102.188 72.4761V100.754C102.188 103.886 99.6546 106.419 96.5232 106.419Z" fill="#C0D4F9"/>
<path d="M75.3205 92.2923H69.6553C67.0976 92.2923 64.755 91.7425 61.6714 89.137L47.4487 74.9143L49.4566 72.9064L63.5837 87.0335C65.9502 89.0414 67.5518 89.4477 69.6553 89.4477H75.3205C77.424 89.4477 79.0256 89.0414 81.4637 86.9618L95.5191 72.9064L97.527 74.9143L83.3999 89.0414C80.2207 91.7425 77.9021 92.2923 75.3205 92.2923Z" fill="#C0D4F9"/>
<path d="M68.2689 75.3206H61.1934V78.1413H68.2689V75.3206Z" fill="#C0D4F9"/>
<path d="M85.2167 48.4529H59.7593V51.2735H85.2167V48.4529Z" fill="#C0D4F9"/>
<path d="M85.2167 54.118H59.7593V56.9387H85.2167V54.118Z" fill="#C0D4F9"/>
<path d="M71.0657 59.7593H59.7593V62.5799H71.0657V59.7593Z" fill="#C0D4F9"/>
<path d="M79.5515 82.9698L77.5436 80.9619H73.8863V77.3046L71.8784 75.2967L73.8863 73.2888V69.6315H77.5436L79.5515 67.6236L81.5594 69.6315H85.2167V73.2888L87.2246 75.2967L85.2167 77.3046V80.9619H81.5594L79.5515 82.9698ZM76.7309 78.1413H78.7388L79.5754 78.9779L80.412 78.1413H82.42V76.1334L83.2566 75.2967L82.42 74.4601V72.4522H80.412L79.5754 71.6155L78.7388 72.4522H76.7309V74.4601L75.8942 75.2967L76.7309 76.1334V78.1413Z" fill="#C0D4F9"/>
<path d="M13.9841 86.6988C18.5123 86.6988 22.1831 83.028 22.1831 78.4998C22.1831 73.9717 18.5123 70.3009 13.9841 70.3009C9.45596 70.3009 5.78516 73.9717 5.78516 78.4998C5.78516 83.028 9.45596 86.6988 13.9841 86.6988Z" fill="white"/>
<path d="M13.984 87.894C8.79688 87.894 4.56592 83.663 4.56592 78.4759C4.56592 73.2888 8.79688 69.0579 13.984 69.0579C19.1711 69.0579 23.3782 73.2888 23.3782 78.4759C23.3782 83.663 19.1711 87.894 13.984 87.894ZM13.984 71.4721C10.1116 71.4721 6.95629 74.6274 6.95629 78.4998C6.95629 82.3722 10.1116 85.5275 13.984 85.5275C17.8564 85.5275 20.9878 82.3722 20.9878 78.4998C20.9878 74.6274 17.8564 71.4721 13.984 71.4721Z" fill="#C0D4F9"/>
<path d="M23.5452 111.893C26.5684 111.893 29.0192 109.443 29.0192 106.419C29.0192 103.396 26.5684 100.945 23.5452 100.945C20.5221 100.945 18.0713 103.396 18.0713 106.419C18.0713 109.443 20.5221 111.893 23.5452 111.893Z" fill="white"/>
<path d="M23.5451 113.112C19.8639 113.112 16.876 110.124 16.876 106.443C16.876 102.762 19.8639 99.7742 23.5451 99.7742C27.2263 99.7742 30.2143 102.762 30.2143 106.443C30.2143 110.101 27.2263 113.112 23.5451 113.112ZM23.5451 102.141C21.1786 102.141 19.2664 104.053 19.2664 106.419C19.2664 108.786 21.1786 110.698 23.5451 110.698C25.9116 110.698 27.8239 108.786 27.8239 106.419C27.8239 104.053 25.9116 102.141 23.5451 102.141Z" fill="#C0D4F9"/>
<path d="M130.156 93.3918C133.852 93.3918 136.849 90.3952 136.849 86.6988C136.849 83.0023 133.852 80.0057 130.156 80.0057C126.459 80.0057 123.463 83.0023 123.463 86.6988C123.463 90.3952 126.459 93.3918 130.156 93.3918Z" fill="white"/>
<path d="M130.156 94.6109C125.805 94.6109 122.268 91.0732 122.268 86.7227C122.268 82.3722 125.805 78.8345 130.156 78.8345C134.506 78.8345 138.044 82.3722 138.044 86.7227C138.068 91.0732 134.506 94.6109 130.156 94.6109ZM130.156 81.2009C127.12 81.2009 124.658 83.663 124.658 86.6988C124.658 89.7346 127.12 92.1967 130.156 92.1967C133.192 92.1967 135.654 89.7346 135.654 86.6988C135.678 83.663 133.192 81.2009 130.156 81.2009Z" fill="#C0D4F9"/>
</g>
<defs>
<clipPath id="clip0_864_1041">
<rect width="145" height="145" fill="white"/>
</clipPath>
</defs>
</svg>
