<svg id="Layer_1" data-name="Layer 1" xmlns="http://www.w3.org/2000/svg" viewBox="0 0 60.66 60.66"><defs><style>.cls-1{fill:#e0e8fb;}.cls-2,.cls-3{fill:#fff;}.cls-2{stroke:#c0d4f9;stroke-miterlimit:10;}.cls-4{fill:#c0d4f9;}</style></defs><circle class="cls-1" cx="31.6" cy="30.33" r="25.18"/><circle class="cls-2" cx="6.42" cy="28.11" r="3.43"/><circle class="cls-2" cx="8.99" cy="41.35" r="2.29"/><circle class="cls-2" cx="54.86" cy="40.01" r="2.8"/><polygon class="cls-3" points="37.99 47.99 36.07 46.94 34.04 48.4 33.95 43.41 20.63 43.41 20.36 15.52 42.57 15.81 42.38 43.41 38.55 43.41 37.99 47.99"/><rect class="cls-4" x="24.05" y="22.57" width="14.85" height="1.43"/><rect class="cls-4" x="24.05" y="25.43" width="14.85" height="1.43"/><rect class="cls-4" x="24.05" y="28.28" width="9.19" height="1.43"/><rect class="cls-4" x="26.17" y="36.86" width="3.53" height="1.43"/><rect class="cls-4" x="24.05" y="36.86" width="1.41" height="1.43"/><polygon class="cls-4" points="38.9 49.62 36.07 47.72 33.24 49.62 33.24 39.72 34.66 39.72 34.66 46.95 36.07 46 37.48 46.95 37.48 39.72 38.9 39.72 38.9 49.62"/><path class="cls-4" d="M36.07,41.14a4.29,4.29,0,1,1,4.24-4.28A4.26,4.26,0,0,1,36.07,41.14Zm0-7.14a2.86,2.86,0,1,0,2.83,2.86A2.85,2.85,0,0,0,36.07,34Z"/><polygon class="cls-4" points="21.22 16.14 19.81 16.14 19.81 44 33.95 44 33.95 42.57 21.22 42.57 21.22 16.14"/><polygon class="cls-4" points="41.73 16.14 41.73 42.57 38.19 42.57 38.19 44 43.14 44 43.14 16.14 41.73 16.14"/><rect class="cls-4" x="19.81" y="14.83" width="23.33" height="1.39"/></svg>