<svg width="145" height="145" viewBox="0 0 145 145" fill="none" xmlns="http://www.w3.org/2000/svg">
<path d="M75.5358 132.69C108.778 132.69 135.725 105.742 135.725 72.5C135.725 39.2582 108.778 12.3104 75.5358 12.3104C42.294 12.3104 15.3462 39.2582 15.3462 72.5C15.3462 105.742 42.294 132.69 75.5358 132.69Z" fill="#E0E8FB"/>
<path d="M15.346 75.3924C19.8741 75.3924 23.5449 71.7216 23.5449 67.1934C23.5449 62.6652 19.8741 58.9944 15.346 58.9944C10.8178 58.9944 7.14697 62.6652 7.14697 67.1934C7.14697 71.7216 10.8178 75.3924 15.346 75.3924Z" fill="white"/>
<path d="M15.3463 76.4919C13.4825 76.4919 11.6607 75.939 10.1114 74.903C8.56208 73.8671 7.35496 72.3948 6.64284 70.6725C5.93072 68.9501 5.74561 67.0553 6.11095 65.2277C6.47629 63.4001 7.37565 61.722 8.69518 60.4058C10.0147 59.0896 11.6951 58.1946 13.5236 57.8339C15.3521 57.4732 17.2465 57.6631 18.967 58.3796C20.6875 59.0961 22.1567 60.3069 23.1887 61.8589C24.2207 63.4108 24.7691 65.234 24.7643 67.0978C24.7643 68.3334 24.5206 69.557 24.047 70.6983C23.5734 71.8396 22.8793 72.8763 22.0044 73.7489C21.1295 74.6216 20.0911 75.313 18.9486 75.7837C17.8061 76.2544 16.5819 76.4951 15.3463 76.4919ZM15.3463 60.0701C13.9563 60.0701 12.5976 60.4822 11.4419 61.2545C10.2862 62.0267 9.38543 63.1242 8.85352 64.4084C8.32161 65.6925 8.18244 67.1056 8.4536 68.4688C8.72477 69.832 9.39409 71.0843 10.3769 72.0671C11.3598 73.0499 12.612 73.7193 13.9752 73.9904C15.3385 74.2616 16.7515 74.1224 18.0356 73.5905C19.3198 73.0586 20.4174 72.1578 21.1896 71.0021C21.9618 69.8464 22.374 68.4877 22.374 67.0978C22.3488 65.2505 21.5973 63.4875 20.2821 62.1901C18.9669 60.8928 17.1937 60.1655 15.3463 60.1657V60.0701Z" fill="#C0D4F9"/>
<path d="M19.2904 98.8419C22.3135 98.8419 24.7643 96.3911 24.7643 93.368C24.7643 90.3448 22.3135 87.894 19.2904 87.894C16.2672 87.894 13.8164 90.3448 13.8164 93.368C13.8164 96.3911 16.2672 98.8419 19.2904 98.8419Z" fill="white"/>
<path d="M19.2902 100.037C17.9712 100.037 16.6818 99.646 15.5851 98.9131C14.4883 98.1803 13.6335 97.1388 13.1288 95.9201C12.624 94.7015 12.4919 93.3606 12.7492 92.0669C13.0066 90.7732 13.6417 89.5849 14.5744 88.6522C15.5071 87.7195 16.6955 87.0843 17.9892 86.827C19.2828 86.5696 20.6238 86.7017 21.8424 87.2065C23.061 87.7113 24.1026 88.5661 24.8354 89.6628C25.5682 90.7595 25.9594 92.0489 25.9594 93.368C25.9594 95.1367 25.2567 96.8331 24.006 98.0838C22.7553 99.3345 21.059 100.037 19.2902 100.037ZM19.2902 89.0892C18.444 89.0892 17.6167 89.3401 16.9131 89.8103C16.2094 90.2805 15.661 90.9487 15.3372 91.7306C15.0133 92.5124 14.9286 93.3727 15.0937 94.2027C15.2588 95.0327 15.6663 95.7951 16.2647 96.3935C16.8631 96.9919 17.6255 97.3994 18.4555 97.5645C19.2855 97.7296 20.1458 97.6449 20.9276 97.321C21.7095 96.9972 22.3777 96.4488 22.8479 95.7451C23.3181 95.0415 23.569 94.2142 23.569 93.368C23.569 92.2332 23.1182 91.1448 22.3158 90.3424C21.5134 89.54 20.425 89.0892 19.2902 89.0892Z" fill="#C0D4F9"/>
<path d="M131.136 102.332C134.832 102.332 137.829 99.3353 137.829 95.6388C137.829 91.9423 134.832 88.9458 131.136 88.9458C127.439 88.9458 124.443 91.9423 124.443 95.6388C124.443 99.3353 127.439 102.332 131.136 102.332Z" fill="white"/>
<path d="M131.136 103.551C129.572 103.551 128.043 103.088 126.742 102.219C125.442 101.351 124.428 100.117 123.828 98.6721C123.229 97.2278 123.071 95.6381 123.374 94.104C123.677 92.5699 124.428 91.16 125.533 90.0525C126.637 88.945 128.044 88.1896 129.578 87.8816C131.111 87.5736 132.701 87.7269 134.147 88.3221C135.593 88.9173 136.831 89.9277 137.703 91.2257C138.575 92.5237 139.043 94.0511 139.048 95.6149C139.051 96.656 138.849 97.6874 138.452 98.6501C138.056 99.6128 137.474 100.488 136.739 101.225C136.004 101.962 135.131 102.547 134.169 102.946C133.208 103.346 132.177 103.551 131.136 103.551ZM131.136 90.141C130.042 90.141 128.972 90.4661 128.063 91.075C127.154 91.6838 126.446 92.5491 126.03 93.5608C125.613 94.5726 125.507 95.6853 125.724 96.7577C125.941 97.8301 126.471 98.8138 127.248 99.5841C128.026 100.354 129.014 100.877 130.088 101.084C131.162 101.292 132.274 101.176 133.282 100.75C134.29 100.325 135.149 99.6099 135.75 98.6955C136.351 97.7812 136.667 96.709 136.657 95.6149C136.654 94.8929 136.509 94.1786 136.23 93.5128C135.951 92.8469 135.543 92.2426 135.03 91.7343C134.518 91.226 133.91 90.8237 133.242 90.5503C132.573 90.2769 131.858 90.1378 131.136 90.141Z" fill="#C0D4F9"/>
<path d="M100.109 37.8874L57.0826 38.0308C57.0826 38.0308 56.4372 52.9468 56.4372 53.0663V73.8147L48.7641 80.5316L47.9992 92.7704L48.4295 104.435L45.0112 104.722V108.834H71.5683L71.3053 104.053L67.409 103.742L69.2257 101.352L73.0981 96.3798L74.1021 93.6309L82.564 93.344L83.8548 98.1248L91.5757 97.8618L92.484 93.0811L96.954 92.9377H100.014C100.014 92.9377 99.9659 38.246 100.109 37.8874Z" fill="white"/>
<path d="M101.424 35.8556H55.7437V71.7112L50.198 76.2529C49.0582 77.0594 48.1376 78.1377 47.5199 79.3899C46.9021 80.6421 46.6066 82.0287 46.6602 83.424V102.929H43.5767V109.001H46.6124V105.989H70.9703V109.025H74.1017V102.953H70.9703V102.141C72.2525 101.128 73.3176 99.8673 74.102 98.434C74.8864 97.0007 75.3741 95.4241 75.5359 93.7982H81.6314V105.176L87.7269 99.0809L93.7984 105.176V93.7982H101.424V35.8556ZM68.5322 100.204L67.9346 100.659V103.049H49.6721V83.4479C49.6721 81.0575 50.198 80.3643 52.0625 78.6672L55.672 75.7748V85.3363L52.6362 88.2287L54.7397 90.4278C55.1461 90.0453 64.6358 81.0097 67.4087 78.2369C67.6716 77.974 67.8868 77.8305 68.317 78.2369C68.967 78.9809 69.3428 79.9249 69.3819 80.912C69.421 81.8991 69.1212 82.8699 68.5322 83.663C66.9784 85.2168 65.4247 86.5554 65.4247 86.5554L64.8749 87.0096V90.8342C64.9035 92.2457 64.4431 93.6238 63.5718 94.7347C62.7005 95.8456 61.4719 96.6211 60.0941 96.9296V99.9654C61.7628 99.7236 63.3326 99.0268 64.6313 97.9516C65.93 96.8763 66.9075 95.4641 67.4565 93.8699H72.5002C72.5002 97.1686 68.58 100.181 68.5322 100.204ZM87.6551 84.667C86.4475 84.6717 85.2658 84.3176 84.2597 83.6497C83.2537 82.9817 82.4687 82.03 82.0044 80.9152C81.5401 79.8005 81.4174 78.5729 81.6518 77.3883C81.8862 76.2037 82.4672 75.1154 83.3211 74.2615C84.175 73.4076 85.2633 72.8265 86.448 72.5921C87.6326 72.3577 88.8602 72.4804 89.9749 72.9447C91.0897 73.409 92.0414 74.194 92.7094 75.2C93.3773 76.2061 93.7314 77.3879 93.7267 78.5955C93.7206 80.1915 93.0888 81.7215 91.9669 82.8568C90.8451 83.992 89.3227 84.642 87.7269 84.667H87.6551ZM87.6551 94.7066L84.5955 97.7423V87.1769C86.5612 87.9097 88.7252 87.9097 90.6909 87.1769V97.7423L87.6551 94.7066ZM98.364 90.8342H93.7984V85.3841C95.1779 84.1517 96.1505 82.5295 96.5876 80.7321C97.0246 78.9347 96.9055 77.047 96.246 75.3188C95.5865 73.5906 94.4176 72.1035 92.8942 71.0543C91.3708 70.0051 89.5647 69.4433 87.7149 69.4433C85.8651 69.4433 84.059 70.0051 82.5356 71.0543C81.0122 72.1035 79.8433 73.5906 79.1838 75.3188C78.5243 77.047 78.4052 78.9347 78.8422 80.7321C79.2793 82.5295 80.252 84.1517 81.6314 85.3841V90.8342H67.9346V88.4438C68.5561 87.894 69.6556 86.9139 70.7552 85.7905C71.8741 84.3858 72.4449 82.6226 72.3613 80.8287C72.2778 79.0348 71.5457 77.3323 70.301 76.0378C69.9631 75.7034 69.5613 75.4406 69.1195 75.2651C68.6777 75.0895 68.2051 75.0048 67.7299 75.0159C67.2547 75.0271 66.7865 75.1339 66.3535 75.33C65.9205 75.5261 65.5314 75.8075 65.2095 76.1573C63.9665 77.4003 61.2654 80.0058 58.6838 82.4918V39.0109H98.364V90.8342Z" fill="#C0D4F9"/>
<path d="M90.7622 48.1421H66.4043V51.1779H90.7622V48.1421Z" fill="#C0D4F9"/>
<path d="M90.7622 55.7435H66.4043V58.7793H90.7622V55.7435Z" fill="#C0D4F9"/>
<path d="M81.631 63.3688H66.4043V66.4045H81.631V63.3688Z" fill="#C0D4F9"/>
</svg>
