<svg id="Layer_1" data-name="Layer 1" xmlns="http://www.w3.org/2000/svg" viewBox="0 0 60.66 60.66"><defs><style>.cls-1{fill:#e0e8fb;}.cls-2,.cls-3{fill:#fff;}.cls-2{stroke:#c0d4f9;stroke-miterlimit:10;}.cls-4{fill:#c0d4f9;}</style></defs><circle class="cls-1" cx="31.6" cy="30.33" r="25.18"/><circle class="cls-2" cx="6.42" cy="28.11" r="3.43"/><circle class="cls-2" cx="9.86" cy="43.08" r="2.29"/><circle class="cls-2" cx="54.86" cy="40.01" r="2.8"/><rect class="cls-3" x="18.06" y="19.66" width="28.09" height="21.68"/><path class="cls-4" d="M46.67,41.86H17.54V19H46.67Zm-28.09-1H45.63V20H18.58Z"/><path class="cls-4" d="M41,38.74a2.61,2.61,0,0,1-1.76-.69.5.5,0,0,0-.65,0,2.57,2.57,0,0,1-1.75.69,1.79,1.79,0,0,1-1-.34,2.39,2.39,0,0,1-1-1.75,2.63,2.63,0,0,1,.75-2.08L37,32.78a2.64,2.64,0,0,1,3.72,0l0,0,1.5,1.83a2.61,2.61,0,0,1,.71,2,2.33,2.33,0,0,1-1,1.75A1.76,1.76,0,0,1,41,38.74Zm-2.08-1.85a1.46,1.46,0,0,1,1,.4A1.6,1.6,0,0,0,41,37.7a.73.73,0,0,0,.4-.16,1.3,1.3,0,0,0,.57-1,1.6,1.6,0,0,0-.45-1.25L40,33.45a1.61,1.61,0,0,0-2.19,0l-1.46,1.8a1.62,1.62,0,0,0-.48,1.29,1.32,1.32,0,0,0,.56,1,.79.79,0,0,0,.41.16,1.57,1.57,0,0,0,1.05-.41A1.5,1.5,0,0,1,38.87,36.89Z"/><path class="cls-4" d="M34.45,34.57A1.59,1.59,0,1,1,35.75,33,1.43,1.43,0,0,1,34.45,34.57Zm0-2.08c-.09,0-.26.2-.26.52s.17.52.26.52.26-.19.26-.52S34.54,32.49,34.45,32.49Z"/><path class="cls-4" d="M43.29,34.57A1.59,1.59,0,1,1,44.59,33,1.43,1.43,0,0,1,43.29,34.57Zm0-2.08c-.09,0-.26.2-.26.52s.17.52.26.52.26-.19.26-.52S43.38,32.49,43.29,32.49Z"/><path class="cls-4" d="M37.05,31.45a1.59,1.59,0,1,1,1.3-1.56A1.43,1.43,0,0,1,37.05,31.45Zm0-2.08c-.09,0-.26.2-.26.52s.17.52.26.52.26-.19.26-.52S37.14,29.37,37.05,29.37Z"/><path class="cls-4" d="M40.69,31.45A1.59,1.59,0,1,1,42,29.89,1.43,1.43,0,0,1,40.69,31.45Zm0-2.08c-.09,0-.26.2-.26.52s.17.52.26.52.26-.19.26-.52S40.78,29.37,40.69,29.37Z"/><path class="cls-4" d="M18.06,23.13v-1a2.6,2.6,0,0,0,2.6-2.6h1A3.64,3.64,0,0,1,18.06,23.13Z"/><path class="cls-4" d="M46.15,23.13a3.64,3.64,0,0,1-3.64-3.64h1a2.61,2.61,0,0,0,2.6,2.6Z"/><path class="cls-4" d="M21.7,41.34h-1a2.59,2.59,0,0,0-2.6-2.6v-1A3.64,3.64,0,0,1,21.7,41.34Z"/><path class="cls-4" d="M43.55,41.34h-1a3.64,3.64,0,0,1,3.64-3.64v1A2.6,2.6,0,0,0,43.55,41.34Z"/><rect class="cls-4" x="21.18" y="24.17" width="15.6" height="1.04"/><rect class="cls-4" x="21.18" y="27.29" width="13.52" height="1.04"/><rect class="cls-4" x="21.18" y="29.37" width="10.4" height="1.04"/><rect class="cls-4" x="21.18" y="31.45" width="10.4" height="1.04"/><rect class="cls-4" x="21.18" y="33.53" width="10.4" height="1.04"/><rect class="cls-4" x="21.18" y="35.62" width="10.4" height="1.04"/></svg>