<svg id="Layer_1" data-name="Layer 1" xmlns="http://www.w3.org/2000/svg" viewBox="0 0 60.66 60.66"><defs><style>.cls-1{fill:#e0e8fb;}.cls-2,.cls-3{fill:#fff;}.cls-2{stroke:#c0d4f9;stroke-miterlimit:10;}.cls-4{fill:#c0d4f9;}</style></defs><circle class="cls-1" cx="31.6" cy="30.33" r="25.18"/><circle class="cls-2" cx="6.42" cy="28.11" r="3.43"/><circle class="cls-2" cx="8.07" cy="39.06" r="2.29"/><circle class="cls-2" cx="54.86" cy="40.01" r="2.8"/><path class="cls-3" d="M42.19,15l-20.65.06s-.26,5.58-.26,5.64V31.54l-3.43,2.81-.62,5.38.21,5.59-1.64.14v2H28.55l-.13-2.23-1.87-.15.87-1.16,1.86-2.38.48-1.37,11-.36,1.47-.05S42.12,15.11,42.19,15Z"/><path class="cls-4" d="M27.87,45.32H26.46V43.7l.28-.21s1.83-1.4,1.83-3V39H30v1.54a5.65,5.65,0,0,1-2.11,3.85Z"/><path class="cls-4" d="M16.61,45.46V36.31A3.87,3.87,0,0,1,18.25,33L21.1,30.7,22,31.8l-2.81,2.25A2.49,2.49,0,0,0,18,36.31v9.15Z"/><polygon class="cls-4" points="29.27 47.43 27.87 47.43 27.87 46.02 16.61 46.02 16.61 47.43 15.2 47.43 15.2 44.62 29.27 44.62 29.27 47.43"/><path class="cls-4" d="M22.84,43.35V41.94a2.81,2.81,0,0,0,2.21-2.81V37.45l.18-.2s.9-1,1.66-1.76a1.59,1.59,0,0,0-.12-2.15c-.41-.37-.65-.13-.73-.05l-5.63,5.63-1-1,5.63-5.63a1.84,1.84,0,0,1,2.66,0A3,3,0,0,1,28,36.39l-.06.06c-.53.54-1.15,1.21-1.45,1.54v1.14A4.21,4.21,0,0,1,22.84,43.35Z"/><path class="cls-4" d="M41.8,15h-.27V39H25.76v1.4H42.94V14.83Z"/><path class="cls-4" d="M20.83,14.9v22h1.41v-22A5.13,5.13,0,0,1,20.83,14.9Z"/><rect class="cls-4" x="25.76" y="19.99" width="11.26" height="1.41"/><rect class="cls-4" x="25.76" y="23.51" width="11.26" height="1.41"/><rect class="cls-4" x="25.76" y="27.02" width="7.04" height="1.41"/><path class="cls-4" d="M35.61,37.87l-1-1H32.79V35.06l-1-1,1-1V31.25h1.82l1-1,1,1h1.82v1.82l1,1-1,1v1.82H36.6Zm-1.41-2.4h1l.41.41.41-.41h1v-1l.42-.41L37,33.65v-1H36l-.41-.41-.41.41h-1v1l-.41.41.41.41Z"/><rect class="cls-4" x="20.83" y="14.35" width="22.11" height="1.41"/></svg>