<svg id="Layer_1" data-name="Layer 1" xmlns="http://www.w3.org/2000/svg" viewBox="0 0 60.66 60.66"><defs><style>.cls-1{fill:#e0e8fb;}.cls-2,.cls-3{fill:#fff;}.cls-2{stroke:#c0d4f9;stroke-miterlimit:10;}.cls-4{fill:#c0d4f9;}</style></defs><circle class="cls-1" cx="31.6" cy="30.33" r="25.18"/><circle class="cls-2" cx="6.42" cy="28.11" r="3.43"/><circle class="cls-2" cx="9.86" cy="43.08" r="2.29"/><circle class="cls-2" cx="54.86" cy="40.01" r="2.8"/><rect class="cls-3" x="20.03" y="16.8" width="22.09" height="27.77"/><path class="cls-4" d="M43.18,45.62H20V16.16H43.18Zm-22.1-1h21V17.21h-21Z"/><path class="cls-4" d="M37.39,43.51a2.62,2.62,0,0,1-1.78-.69.48.48,0,0,0-.65,0,2.62,2.62,0,0,1-1.78.69,1.75,1.75,0,0,1-1-.34,2.41,2.41,0,0,1-1-1.76,2.71,2.71,0,0,1,.76-2.11l1.48-1.81a2.66,2.66,0,0,1,3.76,0l0,0,1.51,1.85a2.62,2.62,0,0,1,.73,2.07,2.41,2.41,0,0,1-1,1.76A1.75,1.75,0,0,1,37.39,43.51Zm-2.1-1.86a1.5,1.5,0,0,1,1,.4,1.62,1.62,0,0,0,1.07.41.71.71,0,0,0,.41-.16,1.3,1.3,0,0,0,.57-1,1.6,1.6,0,0,0-.46-1.26l-1.53-1.88a1.61,1.61,0,0,0-2.21,0L32.69,40a1.66,1.66,0,0,0-.49,1.3,1.3,1.3,0,0,0,.57,1,.71.71,0,0,0,.41.16,1.6,1.6,0,0,0,1.07-.41A1.51,1.51,0,0,1,35.29,41.65Z"/><path class="cls-4" d="M30.81,39.31a1.61,1.61,0,1,1,1.32-1.58A1.46,1.46,0,0,1,30.81,39.31Zm0-2.11c-.09,0-.26.2-.26.53s.17.52.26.52.27-.2.27-.52S30.91,37.2,30.81,37.2Z"/><path class="cls-4" d="M39.76,39.31a1.61,1.61,0,1,1,1.31-1.58A1.46,1.46,0,0,1,39.76,39.31Zm0-2.11c-.1,0-.27.2-.27.53s.17.52.27.52.26-.2.26-.52S39.85,37.2,39.76,37.2Z"/><path class="cls-4" d="M33.44,36.15a1.61,1.61,0,1,1,1.32-1.58A1.45,1.45,0,0,1,33.44,36.15Zm0-2.1c-.09,0-.26.19-.26.52s.17.53.26.53.27-.2.27-.53S33.54,34.05,33.44,34.05Z"/><path class="cls-4" d="M37.13,36.15a1.61,1.61,0,1,1,1.31-1.58A1.45,1.45,0,0,1,37.13,36.15Zm0-2.1c-.1,0-.27.19-.27.52s.17.53.27.53.26-.2.26-.53S37.22,34.05,37.13,34.05Z"/><rect class="cls-4" x="24.77" y="35.1" width="1.05" height="2.1"/><rect class="cls-4" x="24.24" y="35.62" width="2.1" height="1.05"/><path class="cls-4" d="M25.29,39.31a3.16,3.16,0,1,1,3.16-3.16A3.17,3.17,0,0,1,25.29,39.31Zm0-5.26a2.1,2.1,0,1,0,2.11,2.1A2.1,2.1,0,0,0,25.29,34.05Z"/><rect class="cls-4" x="28.97" y="20.37" width="10.52" height="1.05"/><rect class="cls-4" x="28.97" y="24.58" width="10.52" height="1.05"/><rect class="cls-4" x="28.97" y="28.78" width="10.52" height="1.05"/><path class="cls-4" d="M25.29,30.89H22.13V27.73h3.16Zm-2.1-1.05h1V28.78h-1Z"/><polygon class="cls-4" points="23.75 22.73 22.29 21.27 23.03 20.52 23.68 21.17 25.94 18.45 26.75 19.13 23.75 22.73"/><polygon class="cls-4" points="23.75 25.88 22.29 24.42 23.03 23.68 23.68 24.32 25.94 21.61 26.75 22.28 23.75 25.88"/></svg>