<svg id="Layer_1" data-name="Layer 1" xmlns="http://www.w3.org/2000/svg" viewBox="0 0 60.66 60.66"><defs><style>.cls-1{fill:#e0e8fb;}.cls-2,.cls-3{fill:#fff;}.cls-2,.cls-5{stroke:#c0d4f9;stroke-miterlimit:10;}.cls-4{fill:#c0d4f9;}.cls-5{fill:none;stroke-width:1.4px;}</style></defs><circle class="cls-1" cx="31.6" cy="30.33" r="25.18"/><circle class="cls-2" cx="6.42" cy="28.11" r="3.43"/><circle class="cls-2" cx="8.99" cy="41.35" r="2.29"/><circle class="cls-2" cx="54.86" cy="40.01" r="2.8"/><path class="cls-3" d="M35,46.37l-4.19-1.65h-11l-1.23-1.31.31-23,5.61-5.54H40.13l1.23,1.47v9.56l1.81,1L42.78,29l1.89,1.57,2.07-.46L48,33.37s-1.65.72-1.69,1-.11,3.1-.11,3.1l1.8.77-1.38,3.42-1.92-.46L42.74,43l.31,2.08-3.27,1.61L38.71,44.8l-2.62-.23Z"/><path class="cls-4" d="M39.49,47.39l-1-2.07a9.64,9.64,0,0,1-2.08,0l-1,2.08-4.59-1.9.73-2.2A10.21,10.21,0,0,1,30,41.82l-2.2.73L25.9,38l2.07-1a9.64,9.64,0,0,1,0-2.08l-2.08-1,1.9-4.59,2.2.73a9.73,9.73,0,0,1,1.47-1.47l-.73-2.2,4.59-1.9,1,2.07a10.33,10.33,0,0,1,2.08,0l1-2.07,4.59,1.9-.73,2.2a9.73,9.73,0,0,1,1.47,1.47l2.2-.73,1.9,4.59-2.07,1a10.33,10.33,0,0,1,0,2.08l2.07,1L47,42.55l-2.2-.74a9.8,9.8,0,0,1-1.47,1.48l.73,2.2Zm-7-2.69,2.18.9.92-1.82.5.08a8.19,8.19,0,0,0,2.66,0l.51-.09.91,1.82,2.18-.9-.64-1.93.42-.3A8.14,8.14,0,0,0,44,40.59l.3-.42,1.94.64.9-2.18-1.82-.91.09-.51a8.48,8.48,0,0,0,0-2.66L45.31,34l1.82-.91L46.23,31l-1.93.64-.3-.42a8.14,8.14,0,0,0-1.88-1.87L41.7,29l.64-1.94-2.18-.9L39.25,28l-.51-.09a8.48,8.48,0,0,0-2.66,0l-.51.09-.91-1.82-2.18.9L33.12,29l-.42.3a8.14,8.14,0,0,0-1.87,1.88l-.3.42L28.59,31l-.9,2.18,1.82.91-.08.51a8.19,8.19,0,0,0,0,2.66l.09.51-1.82.91.9,2.18,1.93-.64.3.42a8.14,8.14,0,0,0,1.88,1.87l.42.3Z"/><polygon class="cls-4" points="41.04 36.44 36.85 36.44 36.85 32.25 38.24 32.25 38.24 35.05 41.04 35.05 41.04 36.44"/><path class="cls-4" d="M37.55,42a6.3,6.3,0,1,1,6.29-6.3A6.31,6.31,0,0,1,37.55,42Zm0-11.19a4.9,4.9,0,1,0,4.89,4.89A4.91,4.91,0,0,0,37.55,30.85Z"/><path class="cls-4" d="M31.86,45.53H20.07A2.1,2.1,0,0,1,18,43.43V20.08l6-6H39.64a2.1,2.1,0,0,1,2.1,2.1v9.68h-1.4V16.18a.7.7,0,0,0-.7-.7H24.56l-5.19,5.18V43.43a.7.7,0,0,0,.7.7H31.86Z"/><polygon class="cls-4" points="25.66 21.77 20.77 21.77 20.77 20.37 24.27 20.37 24.27 16.87 25.66 16.87 25.66 21.77"/><line class="cls-5" x1="27.35" y1="21.08" x2="38.1" y2="21.08"/><line class="cls-5" x1="27.35" y1="18.37" x2="38.1" y2="18.37"/></svg>