<svg id="Layer_1" data-name="Layer 1" xmlns="http://www.w3.org/2000/svg" viewBox="0 0 60.66 60.66"><defs><style>.cls-1{fill:#e0e8fb;}.cls-2,.cls-3{fill:#fff;}.cls-2{stroke:#c0d4f9;stroke-miterlimit:10;}.cls-4{fill:#c0d4f9;}</style></defs><circle class="cls-1" cx="31.6" cy="30.33" r="25.18"/><circle class="cls-2" cx="6.42" cy="28.11" r="3.43"/><circle class="cls-2" cx="9.86" cy="43.08" r="2.29"/><circle class="cls-2" cx="54.86" cy="40.01" r="2.8"/><rect class="cls-3" x="18.77" y="15.63" width="23.44" height="30.41"/><polygon class="cls-3" points="39.73 34.08 46.49 27.19 48.6 28.21 48.88 30.11 41.42 37.87 38.78 35.28 39.73 34.08"/><path class="cls-4" d="M26.45,41.51l-4.64-4.64,2.76-2.76L26.45,36l4.38-4.38,2.76,2.76Zm-2.87-4.64,2.87,2.87,5.37-5.37-1-1-4.38,4.38-1.88-1.88Z"/><polygon class="cls-4" points="42.84 46.88 17.94 46.88 17.94 14.85 42.84 14.85 42.84 31.49 41.58 31.49 41.58 16.1 19.19 16.1 19.19 45.63 41.58 45.63 41.58 36.63 42.84 36.63 42.84 46.88"/><rect class="cls-4" x="22.94" y="22.48" width="14.26" height="1.25"/><rect class="cls-4" x="22.94" y="24.99" width="14.26" height="1.25"/><rect class="cls-4" x="22.94" y="27.49" width="9.88" height="1.25"/><path class="cls-4" d="M31.89,44.41l.22-1a12.9,12.9,0,0,1,3.44-6.2l10-10A2.06,2.06,0,0,1,47,26.65a2.1,2.1,0,0,1,1.49.62l.53.52a2.11,2.11,0,0,1,0,3l-10,10a12.84,12.84,0,0,1-6.2,3.43ZM47,27.9a.86.86,0,0,0-.61.25l-10,10a11.5,11.5,0,0,0-2.8,4.55,11.64,11.64,0,0,0,4.55-2.81l10-10a.85.85,0,0,0,.26-.61.83.83,0,0,0-.26-.61l-.52-.53A.86.86,0,0,0,47,27.9Z"/><path class="cls-4" d="M44.82,38.14l-.88-.88,3.15-3.16a.82.82,0,0,0,.25-.61.84.84,0,0,0-.25-.61l-3.15-3.15.88-.89L48,32a2.11,2.11,0,0,1,0,3Z"/><rect class="cls-4" x="39.23" y="34.58" width="1.25" height="3.72" transform="translate(-14.09 38.86) rotate(-45)"/></svg>