<?xml version="1.0" encoding="utf-8"?>
<!-- Generator: Adobe Illustrator 24.3.0, SVG Export Plug-In . SVG Version: 6.00 Build 0)  -->
<svg version="1.1" id="Layer_1" xmlns="http://www.w3.org/2000/svg" xmlns:xlink="http://www.w3.org/1999/xlink" x="0px" y="0px"
	 viewBox="0 0 60.66 60.66" style="enable-background:new 0 0 60.66 60.66;" xml:space="preserve">
<style type="text/css">
	.st0{fill:#E0E8FB;}
	.st1{fill:#FFFFFF;}
	.st2{fill:#C0D4F9;}
</style>
<g id="Layer_1_1_">
	<g>
		<circle class="st0" cx="31.6" cy="30.33" r="25.18"/>
	</g>
	<g>
		<circle class="st1" cx="6.42" cy="28.11" r="3.43"/>
		<path class="st2" d="M6.42,32.04c-2.17,0-3.93-1.77-3.93-3.94s1.76-3.93,3.93-3.93s3.94,1.77,3.94,3.93
			C10.36,30.28,8.59,32.04,6.42,32.04z M6.42,25.17c-1.62,0-2.93,1.32-2.93,2.93s1.32,2.94,2.93,2.94c1.62,0,2.94-1.32,2.94-2.94
			S8.04,25.17,6.42,25.17z"/>
	</g>
	<g>
		<circle class="st1" cx="8.99" cy="41.35" r="2.29"/>
		<path class="st2" d="M8.99,44.14c-1.54,0-2.79-1.25-2.79-2.79s1.25-2.79,2.79-2.79s2.79,1.25,2.79,2.79S10.53,44.14,8.99,44.14z
			 M8.99,39.56c-0.99,0-1.79,0.8-1.79,1.79s0.8,1.79,1.79,1.79s1.79-0.8,1.79-1.79S9.98,39.56,8.99,39.56z"/>
	</g>
	<g>
		<circle class="st1" cx="54.86" cy="40.01" r="2.8"/>
		<path class="st2" d="M54.86,43.32c-1.82,0-3.3-1.48-3.3-3.3s1.48-3.3,3.3-3.3s3.3,1.48,3.3,3.3S56.68,43.32,54.86,43.32z
			 M54.86,37.71c-1.27,0-2.3,1.03-2.3,2.3s1.03,2.3,2.3,2.3s2.3-1.03,2.3-2.3C57.17,38.74,56.13,37.71,54.86,37.71z"/>
	</g>
	<g>
		<g>
			<rect x="18.15" y="19.43" class="st1" width="27.05" height="22.47"/>
			<path class="st2" d="M45.85,42.55H17.5V18.78h28.35V42.55z M18.8,41.25h25.75V20.08H18.8V41.25z"/>
		</g>
		<g>
			<rect x="22.67" y="23.99" class="st2" width="2.05" height="13.65"/>
		</g>
		<g>
			<rect x="28.77" y="23.99" class="st2" width="2.72" height="13.65"/>
		</g>
		<g>
			<rect x="36.71" y="23.99" class="st2" width="2.72" height="13.65"/>
		</g>
		<g>
			<rect x="25.61" y="23.99" class="st2" width="1.03" height="13.65"/>
		</g>
		<g>
			<rect x="34.05" y="23.99" class="st2" width="1.03" height="13.65"/>
		</g>
	</g>
</g>
<g id="Layer_2_1_">
</g>
</svg>
