<svg width="32" height="40" viewBox="0 0 32 40" fill="none" xmlns="http://www.w3.org/2000/svg">
<path fill-rule="evenodd" clip-rule="evenodd" d="M27.7455 0H4.25444C2.031 0 0.222168 2.29297 0.222168 5.11141V34.8887C0.222168 37.707 2.031 40 4.25444 40H27.7455C29.9689 40 31.7777 37.707 31.7777 34.8886V5.11141C31.7777 2.29297 29.9689 0 27.7455 0ZM29.919 34.8887C29.919 36.408 28.9439 37.6439 27.7454 37.6439H4.25441C3.05586 37.6439 2.08078 36.4079 2.08078 34.8887V30.5913L8.19806 23.9935C8.42129 23.7527 8.74695 23.7505 8.97228 23.9877L12.8042 28.0211C13.1737 28.4099 13.716 28.378 14.0556 27.9472L23.1604 16.3883C23.3249 16.1793 23.5168 16.159 23.617 16.1655C23.7168 16.172 23.9063 16.2171 24.0532 16.4464L29.9191 25.6019V34.8887H29.919ZM25.4959 14.9609L29.919 21.8644V5.1114C29.919 3.5921 28.944 2.35609 27.7454 2.35609H4.25441C3.05586 2.35609 2.08078 3.5921 2.08078 5.1114V27.4978L6.99358 22.1992C7.90635 21.2148 9.23785 21.2047 10.1598 22.1751L13.3394 25.5219L21.8451 14.7234C22.3367 14.0992 23.0177 13.7678 23.7122 13.8123C24.4071 13.8576 25.0573 14.2762 25.4959 14.9609Z" fill="#9DAFBD"/>
<path fill-rule="evenodd" clip-rule="evenodd" d="M5.71021 10.6348C5.71021 7.49986 7.72226 4.94922 10.1955 4.94922C12.6688 4.94922 14.6808 7.49978 14.6808 10.6348C14.6808 13.7699 12.6687 16.3205 10.1955 16.3205C7.72232 16.3205 5.71021 13.7699 5.71021 10.6348ZM7.57048 10.6348C7.57048 12.4696 8.74806 13.9624 10.1956 13.9624C11.6431 13.9624 12.8206 12.4696 12.8206 10.6348C12.8206 8.80005 11.6431 7.30728 10.1956 7.30728C8.74806 7.30728 7.57048 8.79997 7.57048 10.6348Z" fill="#9DAFBD"/>
</svg>
