<svg width="80" height="88" viewBox="0 0 80 88" fill="none" xmlns="http://www.w3.org/2000/svg">
<g clip-path="url(#clip0_936_211)">
<path d="M65.9433 25.2121H34.1427L25.9479 17H5.85277C2.62051 17 0 19.626 0 22.8651V73.5516C0 73.5531 0.00152178 73.5531 0.00152178 73.5546C0.0243485 76.1075 1.87027 78 4.61404 78H65.9433C69.1756 78 71.7961 75.374 71.7961 72.1349V31.0773C71.7961 27.8382 69.1756 25.2121 65.9433 25.2121Z" fill="#C0D4F9"/>
<path d="M75.3846 33.4229H71.7962H15.294C12.0618 33.4229 8.81125 36.0489 8.03514 39.288L0.166015 72.135C0.109709 72.3713 0.0686212 72.6047 0.0412291 72.8349C-0.310302 75.7431 1.61779 78.0001 4.61418 78.0001H5.85139H64.7047H65.9419C68.7222 78.0001 71.0475 76.0558 71.644 73.451H71.6471L79.8312 39.2895C80.6073 36.0489 78.6168 33.4229 75.3846 33.4229Z" fill="#E0E8FB"/>
</g>
<defs>
<clipPath id="clip0_936_211">
<rect width="80" height="61" fill="white" transform="translate(0 17)"/>
</clipPath>
</defs>
</svg>
