<svg width="80" height="61" viewBox="0 0 80 61" fill="none" xmlns="http://www.w3.org/2000/svg">
<g clip-path="url(#clip0_739_232)">
<path d="M65.9433 8.21212H34.1427L25.9479 0H5.85277C2.62051 0 0 2.62605 0 5.86515V56.5516C0 56.5531 0.00152178 56.5531 0.00152178 56.5546C0.0243485 59.1075 1.87027 61 4.61404 61H65.9433C69.1756 61 71.7961 58.374 71.7961 55.1349V14.0773C71.7961 10.8382 69.1756 8.21212 65.9433 8.21212Z" fill="#C0D4F9"/>
<path d="M75.3846 16.4229H71.7962H15.294C12.0618 16.4229 8.81125 19.0489 8.03514 22.288L0.166015 55.135C0.109709 55.3713 0.0686212 55.6047 0.0412291 55.8349C-0.310302 58.7431 1.61779 61.0001 4.61418 61.0001H5.85139H64.7047H65.9419C68.7222 61.0001 71.0475 59.0558 71.644 56.451H71.6471L79.8312 22.2895C80.6073 19.0489 78.6168 16.4229 75.3846 16.4229Z" fill="#E0E8FB"/>
</g>
<defs>
<clipPath id="clip0_739_232">
<rect width="80" height="61" fill="white"/>
</clipPath>
</defs>
</svg>
