<?xml version="1.0" encoding="utf-8"?>
<!-- Generator: Adobe Illustrator 24.3.0, SVG Export Plug-In . SVG Version: 6.00 Build 0)  -->
<svg version="1.1" id="Layer_1" xmlns="http://www.w3.org/2000/svg" xmlns:xlink="http://www.w3.org/1999/xlink" x="0px" y="0px"
	 viewBox="0 0 60.7 60.7" style="enable-background:new 0 0 60.7 60.7;" xml:space="preserve">
<style type="text/css">
	.st0{fill:#E0E8FB;}
	.st1{fill:#FFFFFF;stroke:#C0D4F9;stroke-miterlimit:10;}
	.st2{fill:#FFFFFF;}
	.st3{fill:#C0D4F9;}
</style>
<circle class="st0" cx="31.6" cy="30.3" r="25.2"/>
<circle class="st1" cx="6.4" cy="28.1" r="3.4"/>
<circle class="st1" cx="9.9" cy="43.1" r="2.3"/>
<circle class="st1" cx="54.9" cy="40" r="2.8"/>
<circle class="st2" cx="37.7" cy="36.1" r="7.4"/>
<polygon class="st2" points="30.1,33.1 16.8,33.1 16.8,22.6 14.2,24.9 14.4,21.6 25.3,11.1 36.3,21.8 36.2,24.8 33.8,22.7 
	33.8,28.6 31.1,30.8 "/>
<rect x="44.7" y="40.8" transform="matrix(0.7071 -0.7071 0.7071 0.7071 -17.6689 44.9208)" class="st3" width="1.4" height="5.9"/>
<path class="st3" d="M37.7,44.5c-4.6,0-8.4-3.8-8.4-8.4s3.8-8.4,8.4-8.4s8.4,3.8,8.4,8.4C46.1,40.7,42.4,44.5,37.7,44.5z M37.7,29.1
	c-3.9,0-7,3.1-7,7s3.1,7,7,7s7-3.1,7-7l0,0C44.7,32.2,41.6,29.1,37.7,29.1z"/>
<path class="st3" d="M34.8,29v-6.8c0-0.3-0.2-0.5-0.5-0.5l0,0c-0.3,0-0.5,0.2-0.5,0.5v7.2C34,29.2,34.4,29.1,34.8,29z"/>
<path class="st3" d="M30.8,33c0.1-0.1,0.2-0.3,0.3-0.4H17V22.2c0-0.3-0.2-0.5-0.5-0.5s-0.6,0.2-0.6,0.5v10.9c0,0.3,0.2,0.5,0.6,0.5
	h14C30.6,33.4,30.7,33.2,30.8,33z"/>
<path class="st3" d="M36.7,25.2c-0.1,0-0.3-0.1-0.4-0.2l-11-10.6L14.2,25c-0.2,0.2-0.6,0.2-0.8,0c-0.1-0.1-0.2-0.2-0.2-0.4v-3.4
	c0-0.2,0.1-0.3,0.2-0.4l11.4-11c0.2-0.2,0.6-0.2,0.8,0l11.4,11c0.1,0.1,0.2,0.2,0.2,0.4v3.4c0,0.2-0.1,0.4-0.3,0.5
	C36.9,25.2,36.8,25.2,36.7,25.2z M14.4,21.5v1.9L25,13.2c0.2-0.2,0.5-0.2,0.8,0l10.4,10.1v-1.9L25.3,11L14.4,21.5z"/>
<path class="st3" d="M25.3,32c-3.8,0-6.9-3.1-6.9-6.9c0-3.8,3.1-6.9,6.9-6.9c3.8,0,6.9,3.1,6.9,6.9C32.2,28.9,29.1,32,25.3,32z
	 M25.3,19.3c-3.2,0-5.8,2.6-5.8,5.8s2.6,5.8,5.8,5.8s5.8-2.6,5.8-5.8c0,0,0,0,0,0C31.1,21.9,28.5,19.3,25.3,19.3
	C25.3,19.3,25.3,19.3,25.3,19.3L25.3,19.3z"/>
<path class="st3" d="M26.8,29.1c-0.5,0-1-0.2-1.3-0.5c-0.1-0.1-0.2-0.1-0.3,0c-0.5,0.6-1.4,0.7-2.1,0.3c-0.4-0.3-0.7-0.8-0.8-1.3
	c-0.1-0.6,0.1-1.1,0.6-1.6l1-1.3c0.8-0.7,2-0.7,2.8,0l0,0l1.1,1.3c0.4,0.4,0.6,1,0.5,1.5c0,0.5-0.3,1-0.8,1.3
	C27.3,29,27,29.1,26.8,29.1z"/>
<g>
	<path class="st3" d="M22.2,25.5c-0.7,0.1-1.4-0.4-1.5-1.1s0.4-1.4,1.1-1.5s1.4,0.4,1.5,1.1c0,0.1,0,0.1,0,0.2
		C23.4,24.9,22.9,25.4,22.2,25.5C22.2,25.5,22.2,25.5,22.2,25.5z"/>
	<path class="st3" d="M28.8,25.5c-0.7,0.1-1.4-0.4-1.5-1.1c-0.1-0.7,0.4-1.4,1.1-1.5c0.7-0.1,1.4,0.4,1.5,1.1c0,0.1,0,0.1,0,0.2
		C29.9,24.9,29.5,25.4,28.8,25.5C28.8,25.5,28.8,25.5,28.8,25.5z"/>
	<path class="st3" d="M24.1,23.2c-0.7,0.1-1.4-0.4-1.5-1.1c-0.1-0.7,0.4-1.4,1.1-1.5c0.7-0.1,1.4,0.4,1.5,1.1c0,0.1,0,0.1,0,0.2
		C25.3,22.5,24.8,23.1,24.1,23.2C24.1,23.2,24.1,23.2,24.1,23.2z"/>
	<path class="st3" d="M26.8,23.2c-0.7,0.1-1.4-0.4-1.5-1.1c-0.1-0.7,0.4-1.4,1.1-1.5c0.7-0.1,1.4,0.4,1.5,1.1c0,0.1,0,0.1,0,0.2
		C28,22.5,27.5,23.1,26.8,23.2C26.9,23.2,26.9,23.2,26.8,23.2z"/>
</g>
</svg>
