<svg id="Layer_1" data-name="Layer 1" xmlns="http://www.w3.org/2000/svg" viewBox="0 0 60.66 60.66"><defs><style>.cls-1{fill:#e0e8fb;}.cls-2,.cls-3{fill:#fff;}.cls-2,.cls-5{stroke:#c0d4f9;stroke-miterlimit:10;}.cls-4{fill:#c0d4f9;}.cls-5{fill:none;stroke-width:1.3px;}</style></defs><circle class="cls-1" cx="31.6" cy="30.33" r="25.18"/><circle class="cls-2" cx="6.42" cy="28.11" r="3.43"/><circle class="cls-2" cx="9.86" cy="43.08" r="2.29"/><circle class="cls-2" cx="54.86" cy="40.01" r="2.8"/><path class="cls-3" d="M44.34,39l-.16,3.16-23.76-.31-3.89.07-.29-22.33,2.16-.16.18-2.09,1.7-1.7,2.25-.16s1.4.87,1.32,1,1.24-.14,1.24-.14L35.81,16H46.73V38.55Z"/><rect class="cls-4" x="28.91" y="23.53" width="1.38" height="8.28"/><rect class="cls-4" x="39.95" y="23.53" width="1.38" height="8.28"/><rect class="cls-4" x="32.36" y="23.53" width="1.38" height="8.28"/><rect class="cls-4" x="34.43" y="23.53" width="1.38" height="8.28"/><rect class="cls-4" x="37.88" y="23.53" width="1.38" height="8.28"/><rect class="cls-5" x="18.6" y="16.04" width="28.1" height="22.56"/><polyline class="cls-5" points="18.58 19.59 16.24 19.59 16.24 42.16 44.34 42.16 44.34 38.61"/><line class="cls-5" x1="21.99" y1="38.61" x2="21.99" y2="16.04"/></svg>