<svg width="147" height="147" viewBox="0 0 147 147" fill="none" xmlns="http://www.w3.org/2000/svg">
<path d="M76.5273 134.407C110.232 134.407 137.555 107.083 137.555 73.3786C137.555 39.6738 110.232 12.3506 76.5273 12.3506C42.8224 12.3506 15.4993 39.6738 15.4993 73.3786C15.4993 107.083 42.8224 134.407 76.5273 134.407Z" fill="#E0E8FB"/>
<path d="M15.4993 76.2853C20.0468 76.2853 23.7333 72.5988 23.7333 68.0513C23.7333 63.5038 20.0468 59.8174 15.4993 59.8174C10.9518 59.8174 7.26538 63.5038 7.26538 68.0513C7.26538 72.5988 10.9518 76.2853 15.4993 76.2853Z" fill="white"/>
<path d="M15.4993 77.4961C10.1714 77.4961 6.05444 73.1369 6.05444 68.0513C6.05444 62.9656 10.4136 58.6064 15.4993 58.6064C20.5849 58.6064 24.9441 62.9656 24.9441 68.0513C24.9441 73.1369 20.8271 77.4961 15.4993 77.4961ZM15.4993 61.0282C11.6245 61.0282 8.47619 64.1765 8.47619 68.0513C8.47619 71.926 11.6245 75.0743 15.4993 75.0743C19.374 75.0743 22.5223 71.926 22.5223 68.0513C22.5223 64.1765 19.374 61.0282 15.4993 61.0282Z" fill="#C0D4F9"/>
<path d="M19.6162 100.26C22.6924 100.26 25.1862 97.7664 25.1862 94.6901C25.1862 91.6139 22.6924 89.1201 19.6162 89.1201C16.5399 89.1201 14.0461 91.6139 14.0461 94.6901C14.0461 97.7664 16.5399 100.26 19.6162 100.26Z" fill="white"/>
<path d="M19.6161 101.229C15.9835 101.229 12.8352 98.0805 12.8352 94.4479C12.8352 90.8153 15.9835 87.667 19.6161 87.667C23.2487 87.667 26.397 90.8153 26.397 94.4479C26.397 98.0805 23.2487 101.229 19.6161 101.229ZM19.6161 90.3309C17.1943 90.3309 15.257 92.2683 15.257 94.6901C15.257 97.1118 17.1943 99.0492 19.6161 99.0492C22.0378 99.0492 23.9752 97.1118 23.9752 94.6901C23.9752 92.2683 22.0378 90.3309 19.6161 90.3309Z" fill="#C0D4F9"/>
<path d="M132.954 103.651C136.699 103.651 139.735 100.615 139.735 96.8698C139.735 93.1248 136.699 90.0889 132.954 90.0889C129.209 90.0889 126.173 93.1248 126.173 96.8698C126.173 100.615 129.209 103.651 132.954 103.651Z" fill="white"/>
<path d="M132.954 104.861C128.595 104.861 124.962 101.229 124.962 96.8697C124.962 92.5105 128.595 88.8779 132.954 88.8779C137.313 88.8779 140.946 92.5105 140.946 96.8697C140.946 101.229 137.313 104.861 132.954 104.861ZM132.954 91.2997C129.806 91.2997 127.384 93.7214 127.384 96.8697C127.384 100.018 129.806 102.44 132.954 102.44C136.102 102.44 138.524 100.018 138.524 96.8697C138.524 93.7214 135.86 91.2997 132.954 91.2997Z" fill="#C0D4F9"/>
<path d="M79.4333 107.526H47.2241L46.4976 39.959L100.26 40.4433L100.018 107.526H90.5733H79.4333Z" fill="white"/>
<path d="M91.2999 54.4893H55.458V57.8797H91.2999V54.4893Z" fill="#C0D4F9"/>
<path d="M91.2999 61.7549H55.458V65.1453H91.2999V61.7549Z" fill="#C0D4F9"/>
<path d="M91.2999 69.2617H55.458V72.6522H91.2999V69.2617Z" fill="#C0D4F9"/>
<path d="M91.2999 76.5273H55.458V79.9178H91.2999V76.5273Z" fill="#C0D4F9"/>
<path d="M69.0198 91.542H60.5437V94.9324H69.0198V91.542Z" fill="#C0D4F9"/>
<path d="M58.8485 91.542H55.458V94.9324H58.8485V91.542Z" fill="#C0D4F9"/>
<path d="M45.2866 38.2637V41.4119V41.6541V108.979H77.738H79.6754H101.713V41.6541V41.4119V38.2637H45.2866ZM98.3229 105.346H79.4332H77.4958H48.4349V41.6541H98.0807V105.346H98.3229Z" fill="#C0D4F9"/>
</svg>
