<svg id="Layer_1" data-name="Layer 1" xmlns="http://www.w3.org/2000/svg" viewBox="0 0 60.66 60.66"><defs><style>.cls-1{fill:#e0e8fb;}.cls-2,.cls-3{fill:#fff;}.cls-2{stroke:#c0d4f9;stroke-miterlimit:10;}.cls-4{fill:#c0d4f9;}</style></defs><circle class="cls-1" cx="31.6" cy="30.33" r="25.18"/><circle class="cls-2" cx="6.42" cy="28.11" r="3.43"/><circle class="cls-2" cx="8.07" cy="39.06" r="2.29"/><circle class="cls-2" cx="54.86" cy="40.01" r="2.8"/><rect class="cls-3" x="15.33" y="17.42" width="32.15" height="24.84"/><path class="cls-4" d="M47.47,42.83H15.35a.6.6,0,0,1-.6-.6v-25a.59.59,0,0,1,.6-.59H47.47a.59.59,0,0,1,.59.59v25A.6.6,0,0,1,47.47,42.83ZM15.94,41.64H46.87V17.84H15.94Z"/><path class="cls-4" d="M41.52,39.26a3,3,0,0,1-2-.78.56.56,0,0,0-.74,0,2.94,2.94,0,0,1-2,.79,2,2,0,0,1-1.14-.39,2.68,2.68,0,0,1-1.15-2,3,3,0,0,1,.85-2.38L37,32.44a3,3,0,0,1,4.25,0l0,0L43,34.54a3,3,0,0,1,.82,2.34,2.72,2.72,0,0,1-1.16,2A2,2,0,0,1,41.52,39.26Zm-2.38-2.11a1.74,1.74,0,0,1,1.17.45,1.8,1.8,0,0,0,1.21.47.84.84,0,0,0,.46-.18,1.48,1.48,0,0,0,.64-1.12,1.79,1.79,0,0,0-.51-1.43l-1.73-2.12a1.78,1.78,0,0,0-2.5,0l-1.67,2a1.83,1.83,0,0,0-.56,1.48,1.48,1.48,0,0,0,.64,1.12.84.84,0,0,0,.47.18A1.77,1.77,0,0,0,38,37.6,1.74,1.74,0,0,1,39.14,37.15Z"/><path class="cls-4" d="M34.08,34.5a1.81,1.81,0,1,1,1.49-1.79A1.64,1.64,0,0,1,34.08,34.5Zm0-2.38c-.1,0-.3.23-.3.59s.2.6.3.6.3-.23.3-.6S34.19,32.12,34.08,32.12Z"/><path class="cls-4" d="M44.19,34.5a1.81,1.81,0,1,1,1.49-1.79A1.64,1.64,0,0,1,44.19,34.5Zm0-2.38c-.1,0-.29.23-.29.59s.19.6.29.6.3-.23.3-.6S44.3,32.12,44.19,32.12Z"/><path class="cls-4" d="M37.06,30.93a1.63,1.63,0,0,1-1.49-1.78,1.51,1.51,0,1,1,3,0A1.63,1.63,0,0,1,37.06,30.93Zm0-2.38c-.11,0-.3.23-.3.6s.19.59.3.59.29-.23.29-.59S37.16,28.55,37.06,28.55Z"/><path class="cls-4" d="M41.22,30.93a1.64,1.64,0,0,1-1.49-1.78,1.52,1.52,0,1,1,3,0A1.64,1.64,0,0,1,41.22,30.93Zm0-2.38c-.1,0-.3.23-.3.6s.2.59.3.59.3-.23.3-.59S41.32,28.55,41.22,28.55Z"/><path class="cls-4" d="M15.35,21.41a.59.59,0,0,1-.6-.59.6.6,0,0,1,.6-.6,3,3,0,0,0,3-3,.6.6,0,0,1,1.19,0A4.16,4.16,0,0,1,15.35,21.41Z"/><path class="cls-4" d="M47.47,21.41a4.17,4.17,0,0,1-4.17-4.16.59.59,0,0,1,.6-.59.58.58,0,0,1,.59.59,3,3,0,0,0,3,3,.6.6,0,0,1,.59.6A.59.59,0,0,1,47.47,21.41Z"/><path class="cls-4" d="M18.91,42.83a.6.6,0,0,1-.59-.6,3,3,0,0,0-3-3,.6.6,0,0,1-.6-.6.59.59,0,0,1,.6-.59,4.17,4.17,0,0,1,4.16,4.16A.6.6,0,0,1,18.91,42.83Z"/><path class="cls-4" d="M43.9,42.83a.6.6,0,0,1-.6-.6,4.17,4.17,0,0,1,4.17-4.16.59.59,0,0,1,.59.59.6.6,0,0,1-.59.6,3,3,0,0,0-3,3A.59.59,0,0,1,43.9,42.83Z"/><path class="cls-4" d="M36.76,23.79H18.91a.59.59,0,0,1-.59-.59.6.6,0,0,1,.59-.6H36.76a.59.59,0,0,1,.59.6A.58.58,0,0,1,36.76,23.79Z"/><path class="cls-4" d="M34.38,27.36H18.91a.59.59,0,0,1-.59-.59.6.6,0,0,1,.59-.6H34.38a.59.59,0,0,1,.59.6A.58.58,0,0,1,34.38,27.36Z"/><path class="cls-4" d="M30.81,29.74H18.91a.6.6,0,0,1,0-1.19h11.9a.6.6,0,1,1,0,1.19Z"/><path class="cls-4" d="M30.81,32.12H18.91a.6.6,0,0,1,0-1.19h11.9a.6.6,0,1,1,0,1.19Z"/><path class="cls-4" d="M30.81,34.5H18.91a.6.6,0,0,1,0-1.19h11.9a.6.6,0,1,1,0,1.19Z"/><path class="cls-4" d="M30.81,36.88H18.91a.6.6,0,0,1,0-1.19h11.9a.6.6,0,1,1,0,1.19Z"/></svg>