<svg id="Layer_1" data-name="Layer 1" xmlns="http://www.w3.org/2000/svg" viewBox="0 0 60.66 60.66"><defs><style>.cls-1{fill:#e0e8fb;}.cls-2,.cls-3{fill:#fff;}.cls-2{stroke:#c0d4f9;stroke-miterlimit:10;}.cls-4{fill:#c0d4f9;}</style></defs><circle class="cls-1" cx="31.6" cy="30.33" r="25.18"/><circle class="cls-2" cx="6.42" cy="28.11" r="3.43"/><circle class="cls-2" cx="8.99" cy="41.35" r="2.29"/><circle class="cls-2" cx="54.86" cy="40.01" r="2.8"/><path class="cls-3" d="M28.2,45.27H23.53l-.5-1V43l1.3-.66-.47-5.25-.47-2.93L22.29,32l-1.73-7-.74-1.68-3.54-.79-2-2,.23-1.65,3.6-1.13L21,15l2.93-.54,2,1.47,1.87,3.9,2.07,2.91,3.24,1.63,3.17.24H39l2.78,1.13,1.57-1.3,2.3-2.8.7-1.87.7-.4a7.72,7.72,0,0,1,.3,1.83c-.1.3-1.27,2.94-1.37,3.27S43.62,28,43.62,28l1,2.64,1,4,1.6,3,.22,1.6L47,44l-1,1.3H40.45l-.56-1,.4-1.35,1.13-.71L41.66,40,40.05,39l-1.77-2-1.83-4L34,33.41,29.6,35.29l-.7,2.05.67,2.43.3,3.36-.23,1.71Z"/><path class="cls-4" d="M47.27,36.6l-1.33-2.4a6.49,6.49,0,0,1-.8-2.57,9.5,9.5,0,0,0-1-3.68c2.65-3.19,3.82-5.92,3.48-8.13a5,5,0,0,0-2.55-3.5l-.15-.09a.53.53,0,0,0-.75,0,.54.54,0,0,0,.05.75,3.52,3.52,0,0,1,1.4,2.92c-.18,2.73-3.81,5.2-3.86,5.23l-.08.06L41.22,25A7.73,7.73,0,0,0,37.8,24h-.09a12.47,12.47,0,0,1-4-.08,7,7,0,0,1-5.57-4.33c-1.54-3.87-2.18-4.43-2.75-4.93l0,0A4.19,4.19,0,0,0,22.51,14a4.57,4.57,0,0,0-3.23,1.78,7.65,7.65,0,0,1-4.91,2.45.54.54,0,0,0-.48.39,3.83,3.83,0,0,0,.66,3.12c.9,1.15,2.52,1.75,4.82,1.78l.82,1.65a23.16,23.16,0,0,1,1.37,6.21,7,7,0,0,0,1.32,3.34l1,7.45-.33.11a1.76,1.76,0,0,0,.56,3.43H26a.48.48,0,0,0,.24-.06,1.76,1.76,0,0,0,.46.06h1.94a1.78,1.78,0,0,0,1.76-1.61,13.1,13.1,0,0,0-1.12-6.78,4.89,4.89,0,0,0,.75-1.76,18.7,18.7,0,0,1,6.12-2.13c1.4,4.66,3.83,6.33,4.74,6.8v1.92l-.38.13a1.76,1.76,0,0,0,.56,3.43h4.53a1.77,1.77,0,0,0,1.76-1.63l.37-5.21A4.08,4.08,0,0,0,47.27,36.6ZM46.6,20.48c0,1.76-1,3.95-3.07,6.52a7.13,7.13,0,0,0-1-1.1C43.34,25.32,46.13,23.14,46.6,20.48ZM21.14,24.7l-1-1.95a.55.55,0,0,0-.48-.29c-2.13,0-3.57-.44-4.3-1.37a2.61,2.61,0,0,1-.52-1.85,8.44,8.44,0,0,0,5.24-2.8,3.51,3.51,0,0,1,2.49-1.39,3.37,3.37,0,0,1,2,.4l0,0c.4.34.87.76,1.94,3.24a.45.45,0,0,0,0,.2v3a1.59,1.59,0,1,1-3.18,0V20.34a.53.53,0,0,0-1.05,0v1.59a2.65,2.65,0,1,0,5.29,0V21a7.37,7.37,0,0,0,1,1.43c-.14.68-1.19,4.39-7,3.72A9.38,9.38,0,0,0,21.14,24.7ZM25,44a1.63,1.63,0,0,0,.15.7h-1a.7.7,0,0,1-.23-1.36l.75-.25a.53.53,0,0,0,.36-.57l-.84-6.26A5.88,5.88,0,0,1,25,37.78l1.47,4.42-.25.08A1.75,1.75,0,0,0,25,44Zm17.2.7H41.11a.7.7,0,0,1-.23-1.36l.75-.25a.53.53,0,0,0,.36-.5V39.89a.54.54,0,0,0-.35-.5s-2.78-1-4.35-6a1.83,1.83,0,0,1,1.39,1.05c1.82,4,3.91,4.8,4.94,4.9v2.79l-.39.13A1.75,1.75,0,0,0,42,44,1.63,1.63,0,0,0,42.18,44.65Zm4.54-5.86L46.34,44a.69.69,0,0,1-.7.65H43.79a.7.7,0,0,1-.7-.7.69.69,0,0,1,.48-.66l.74-.25a.53.53,0,0,0,.36-.5V38.83a.53.53,0,0,0-.19-.41.6.6,0,0,0-.34-.11H44s-2.28.35-4.39-4.29a2.87,2.87,0,0,0-2.47-1.7c-1.2-.06-3.36.25-6.91,2a13.74,13.74,0,0,0,0-1.83.53.53,0,0,0-.56-.49.53.53,0,0,0-.5.56c.21,3.29-.87,4.32-.87,4.32a.55.55,0,0,0-.12.67A11.89,11.89,0,0,1,29.38,44a.7.7,0,0,1-.7.64H26.74A.7.7,0,0,1,26,44a.69.69,0,0,1,.48-.66l.74-.25a.53.53,0,0,0,.34-.67L26,37.45a7,7,0,0,0-1.67-2.7,5.83,5.83,0,0,1-1.67-3.48,39.83,39.83,0,0,0-.66-4c.37,0,.73,0,1.07,0,4.49,0,6-2.72,6.5-4.07a9,9,0,0,0,4,1.73,13.39,13.39,0,0,0,4.32.09,6.85,6.85,0,0,1,2.87.82c2,1.09,3.13,3.05,3.38,5.83a7.72,7.72,0,0,0,.92,3l1.33,2.39A3,3,0,0,1,46.72,38.79Z"/><circle class="cls-4" cx="21.28" cy="17.7" r="0.53"/></svg>