<svg width="134" height="121" viewBox="0 0 134 121" fill="none" xmlns="http://www.w3.org/2000/svg">
<path d="M69.6098 120.383C102.853 120.383 129.801 93.4342 129.801 60.1914C129.801 26.9486 102.853 0 69.6098 0C36.367 0 9.41837 26.9486 9.41837 60.1914C9.41837 93.4342 36.367 120.383 69.6098 120.383Z" fill="#E0E8FB"/>
<path d="M9.41838 63.0839C13.9467 63.0839 17.6176 59.413 17.6176 54.8847C17.6176 50.3564 13.9467 46.6855 9.41838 46.6855C4.89007 46.6855 1.21915 50.3564 1.21915 54.8847C1.21915 59.413 4.89007 63.0839 9.41838 63.0839Z" fill="white"/>
<path d="M9.41835 64.2791C4.23109 64.2791 0 60.048 0 54.8607C0 49.6735 4.23109 45.4424 9.41835 45.4424C14.6056 45.4424 18.8128 49.6735 18.8128 54.8607C18.8128 60.048 14.6056 64.2791 9.41835 64.2791ZM9.41835 47.8567C5.54583 47.8567 2.39045 51.0121 2.39045 54.8846C2.39045 58.7572 5.54583 61.9125 9.41835 61.9125C13.2909 61.9125 16.4224 58.7572 16.4224 54.8846C16.4224 51.0121 13.2909 47.8567 9.41835 47.8567Z" fill="#C0D4F9"/>
<path d="M17.6415 96.1437C20.6648 96.1437 23.1156 93.6929 23.1156 90.6696C23.1156 87.6463 20.6648 85.1955 17.6415 85.1955C14.6182 85.1955 12.1674 87.6463 12.1674 90.6696C12.1674 93.6929 14.6182 96.1437 17.6415 96.1437Z" fill="white"/>
<path d="M17.6415 97.339C13.9603 97.339 10.9722 94.3509 10.9722 90.6696C10.9722 86.9884 13.9603 84.0003 17.6415 84.0003C21.3228 84.0003 24.3109 86.9884 24.3109 90.6696C24.3109 94.3509 21.3228 97.339 17.6415 97.339ZM17.6415 86.3668C15.275 86.3668 13.3626 88.2792 13.3626 90.6457C13.3626 93.0123 15.275 94.9246 17.6415 94.9246C20.0081 94.9246 21.9204 93.0123 21.9204 90.6457C21.9204 88.2792 20.0081 86.3668 17.6415 86.3668Z" fill="#C0D4F9"/>
<path d="M125.212 90.0242C128.908 90.0242 131.905 87.0275 131.905 83.3309C131.905 79.6344 128.908 76.6377 125.212 76.6377C121.515 76.6377 118.518 79.6344 118.518 83.3309C118.518 87.0275 121.515 90.0242 125.212 90.0242Z" fill="white"/>
<path d="M125.212 91.2433C120.861 91.2433 117.323 87.7054 117.323 83.3548C117.323 79.0042 120.861 75.4664 125.212 75.4664C129.562 75.4664 133.1 79.0042 133.1 83.3548C133.1 87.7054 129.562 91.2433 125.212 91.2433ZM125.212 77.8329C122.176 77.8329 119.714 80.2951 119.714 83.3309C119.714 86.3668 122.176 88.829 125.212 88.829C128.247 88.829 130.71 86.3668 130.71 83.3309C130.71 80.2951 128.247 77.8329 125.212 77.8329Z" fill="#C0D4F9"/>
<path d="M69.5859 83.4743C86.2073 83.4743 99.6816 70 99.6816 53.3786C99.6816 36.7572 86.2073 23.2829 69.5859 23.2829C52.9645 23.2829 39.4902 36.7572 39.4902 53.3786C39.4902 70 52.9645 83.4743 69.5859 83.4743Z" fill="white"/>
<path d="M69.5859 85.2671C51.9922 85.2671 37.6974 70.9723 37.6974 53.3786C37.6974 35.7849 51.9922 21.4901 69.5859 21.4901C87.1796 21.4901 101.474 35.7849 101.474 53.3786C101.474 70.9723 87.1796 85.2671 69.5859 85.2671ZM69.5859 25.0757C53.9763 25.0757 41.283 37.769 41.283 53.3786C41.283 68.9882 53.9763 81.6815 69.5859 81.6815C85.1955 81.6815 97.8888 68.9643 97.8888 53.3786C97.8888 37.7929 85.1955 25.0757 69.5859 25.0757Z" fill="#C0D4F9"/>
<path d="M78.5501 68.271C78.0959 68.271 77.6895 68.1515 77.4027 68.0081C75.4425 67.0519 75.4425 64.1356 75.4425 62.0081C75.4425 61.6734 75.4425 61.3866 75.4425 61.1953C75.3708 60.024 75.3708 60.024 74.5581 59.7611C74.0561 59.5937 73.5302 59.4981 72.9804 59.3786C71.2114 59.02 68.9883 58.5658 67.6258 56.5818C66.8369 55.4343 66.6457 53.9523 67.0999 52.1833L67.3389 51.2989C67.8648 49.3626 67.9126 49.0758 66.9086 48.2869C66.5023 47.9523 66.0242 47.6893 65.5461 47.4025C64.2313 46.6136 62.7493 45.7052 61.9126 44.0319C60.1437 40.518 62.8927 36.4064 65.0441 34.6375C67.5541 32.5817 70.566 34.1116 72.5501 35.1156C72.8848 35.2829 73.2194 35.4502 73.5063 35.5937C75.6816 36.5737 77.8091 37.4343 79.9605 37.4582C80.7971 37.4343 81.1557 37.1953 81.9923 35.8566C82.4465 35.1395 82.9485 34.3506 83.7374 33.6096C86.4625 31.0757 90.4784 32.0558 93.1557 32.7012L93.4426 32.7729L92.6059 36.263L92.3191 36.1913C90.2872 35.6893 87.5143 35.0199 86.2234 36.2391C85.7692 36.6694 85.4346 37.2192 85.0521 37.7929C84.1677 39.1793 82.9963 41.0439 80.0322 41.0439C80.0083 41.0439 79.9844 41.0439 79.9605 41.0439C77.1158 41.02 74.5103 39.9443 72.072 38.8686C71.7134 38.7251 71.3549 38.51 70.9485 38.3188C69.3469 37.506 67.9843 36.8845 67.3389 37.4104C65.9525 38.5578 64.4226 41.02 65.1397 42.4064C65.5222 43.1475 66.4545 43.7212 67.4345 44.3188C68.0321 44.6773 68.6298 45.0359 69.1318 45.4423C72.0481 47.7371 71.3549 50.2232 70.8051 52.2072L70.566 53.0439C70.3987 53.7132 70.3987 54.2869 70.566 54.526C71.068 55.267 72.0959 55.53 73.6975 55.8407C74.3668 55.9841 75.0361 56.1276 75.6338 56.3188C78.5262 57.2511 78.8848 59.1156 79.0043 60.9324C79.0282 61.1953 79.0282 61.5539 79.0282 61.9842C79.0282 62.4623 79.0282 63.4423 79.0999 64.1834C82.0402 62.0559 87.4187 59.1873 90.7414 59.7611C92.1039 60.0001 92.8211 60.6933 93.1796 61.267C93.7294 62.0798 96.1199 62.2471 97.578 62.0559L98.0561 65.6176C97.4585 65.6894 92.2235 66.3109 90.1916 63.2511C89.331 62.8447 84.5979 64.4941 80.821 67.3627C79.9366 68.0559 79.1716 68.271 78.5501 68.271Z" fill="#C0D4F9"/>
<path d="M82.5421 92.7493C92.2721 92.7493 100.16 84.8616 100.16 75.1317C100.16 65.4018 92.2721 57.5141 82.5421 57.5141C72.8122 57.5141 64.9246 65.4018 64.9246 75.1317C64.9246 84.8616 72.8122 92.7493 82.5421 92.7493Z" fill="white"/>
<path d="M97.0601 87.3421L94.6937 89.7085L104.734 99.7488L107.1 97.3824L97.0601 87.3421Z" fill="#C0D4F9"/>
<path d="M82.542 95.2114C71.4504 95.2114 62.4384 86.1995 62.4384 75.1078C62.4384 64.0161 71.4504 55.0042 82.542 55.0042C93.6337 55.0042 102.646 64.0161 102.646 75.1078C102.646 86.1995 93.6098 95.2114 82.542 95.2114ZM82.542 58.3747C73.291 58.3747 65.785 65.8807 65.785 75.1317C65.785 84.3827 73.291 91.8887 82.542 91.8887C91.7931 91.8887 99.2991 84.3827 99.2991 75.1317C99.2991 65.8807 91.7691 58.3747 82.542 58.3747Z" fill="#C0D4F9"/>
<path d="M52.0879 79.0759L50.8209 75.7293C52.805 74.9643 53.809 73.6974 52.9723 69.4185C52.2313 65.5699 54.55 62.534 56.2472 60.287C57.2273 59.0201 56.4624 55.9364 55.1715 54.287C54.0958 52.9244 52.7572 52.4224 50.8209 51.8009C48.9325 51.2033 47.8807 49.7451 47.044 48.5738L46.6616 48.0479C45.5141 46.518 43.7691 45.6097 40.8767 44.9881L41.6177 41.4742C44.1516 42.024 47.3548 43.0041 49.5301 45.8726L49.9604 46.4463C50.6058 47.3308 51.1556 48.1196 51.9205 48.3587C54.2393 49.0997 56.2951 49.8885 57.9923 52.016C59.9285 54.4543 61.3867 59.4025 59.1158 62.4145C57.3229 64.7571 56.1038 66.5739 56.5102 68.6775C56.9405 70.9245 58.064 76.805 52.0879 79.0759Z" fill="#C0D4F9"/>
</svg>
