<svg version="1.1" xmlns="http://www.w3.org/2000/svg" xmlns:xlink="http://www.w3.org/1999/xlink" x="0px" y="0px"
	 viewBox="0 0 60.66 60.66" style="enable-background:new 0 0 60.66 60.66;" xml:space="preserve">
<style type="text/css">
	.st0{fill:#E0E8FB;}
	.st1{fill:#FFFFFF;}
	.st2{fill:#C0D4F9;}
	.st3{fill:#DCE5F7;}
	.st4{fill:none;stroke:#C0D4F9;strokeWidth:2;strokeMiterlimit:10;}
	.st5{fill:none;stroke:#DCE5F7;strokeWidth:2;strokeMiterlimit:10;}
	.st6{fill:none;stroke:#E0E8FB;strokeWidth:2;strokeMiterlimit:10;}
	.st7{fill:#FFFFFF;stroke:#C0D4F9;strokeMiterlimit:10;}
	.st8{fill:none;stroke:#C0D4F9;strokeWidth:1.4;strokeMiterlimit:10;}
	.st9{fill:none;stroke:#C0D4F9;strokeWidth:1.3;strokeMiterlimit:10;}
	.st10{fill:#FFFFFF;stroke:#C0D4F9;strokeWidth:1.5;strokeMiterlimit:10;}
	.st11{fill:none;}
	.st12{fill:#E9EDE9;}
	.st13{fill:#FFD6D9;}
	.st14{fill:#D4DAED;}
	.st15{fill:#D8FDE4;}
	.st16{fill:none;stroke:#C0D4F9;strokeWidth:3;strokeLinecap:round;strokeLinejoin:round;strokeMiterlimit:10;}
	.st17{opacity:0.1;fill:#C0D4F9;}
</style>
<g id="Layer_1">
	<circle class="st0" cx="31.6" cy="30.33" r="25.18"/>
	<g>
		<circle class="st1" cx="6.42" cy="28.11" r="3.43"/>
		<path class="st2" d="M6.42,32.04c-2.17,0-3.94-1.76-3.94-3.93s1.77-3.94,3.94-3.94c2.17,0,3.93,1.77,3.93,3.94
			S8.59,32.04,6.42,32.04z M6.42,25.17c-1.62,0-2.94,1.32-2.94,2.94c0,1.62,1.32,2.93,2.94,2.93s2.93-1.32,2.93-2.93
			C9.36,26.49,8.04,25.17,6.42,25.17z"/>
	</g>
	<g>
		<circle class="st1" cx="8.99" cy="41.35" r="2.29"/>
		<path class="st2" d="M8.99,44.14c-1.54,0-2.79-1.25-2.79-2.79s1.25-2.79,2.79-2.79c1.54,0,2.79,1.25,2.79,2.79
			S10.53,44.14,8.99,44.14z M8.99,39.56c-0.99,0-1.79,0.8-1.79,1.79s0.8,1.79,1.79,1.79s1.79-0.8,1.79-1.79S9.98,39.56,8.99,39.56z"
			/>
	</g>
	<g>
		<circle class="st1" cx="54.86" cy="40.01" r="2.8"/>
		<path class="st2" d="M54.86,43.32c-1.82,0-3.3-1.48-3.3-3.3s1.48-3.3,3.3-3.3s3.3,1.48,3.3,3.3S56.68,43.32,54.86,43.32z
			 M54.86,37.71c-1.27,0-2.3,1.03-2.3,2.3c0,1.27,1.03,2.3,2.3,2.3s2.3-1.03,2.3-2.3C57.17,38.74,56.13,37.71,54.86,37.71z"/>
	</g>
	<path class="st1" d="M41.08,42.81h-17.1v-1.96l1.23-1.29l1.37-5.28l-0.91-1.19l-1.38-2.76l-0.31-4.38l0.92-3.57l-4.31-1.52
		l-0.79-3.24l0.62-1.19h3.69l1.54-1.19l4.82,1.19l2.46,2.48l0.51,3.47l-0.36,1.43l3.71,3.7l3.69,4.53l0.92,4.05v2.31
		c0,0,1.58-1.3,1.69-1.19c0.12,0.11,1.62-0.2,1.62-0.2l0.85,1c0,0-1,2.08-1.27,2.19C44.01,40.32,41.08,42.81,41.08,42.81z"/>
	<g>
		<g>
			<path class="st2" d="M41.36,42.81H28.6c-0.33,0-0.6-0.27-0.6-0.6v-1.16c0-0.97,0.79-1.76,1.76-1.76h2.37
				c-0.75-1.24-1.79-3.37-1.18-4.85c0.57-1.38,1.98-2.82,5.5-1.82l-0.33,1.15c-3.23-0.92-3.85,0.62-4.06,1.12
				c-0.45,1.1,0.79,3.43,1.67,4.64c0.13,0.18,0.15,0.42,0.05,0.63c-0.1,0.2-0.31,0.33-0.54,0.33h-3.48c-0.31,0-0.56,0.25-0.56,0.56
				v0.56h11.94c0.58-0.48,2.51-2.07,3.3-2.75c0.64-0.55,0.27-1.08,0.19-1.18c-0.11-0.14-0.38-0.36-0.6-0.2
				c-1,0.73-2.31,1.73-2.31,1.73c-0.18,0.14-0.42,0.16-0.63,0.06c-0.2-0.1-0.33-0.31-0.33-0.54v-0.58c0-5.05-1.15-6.17-2.37-7.35
				l-1.59-1.58l-3.4-3.4l0.85-0.85l4.98,4.97c1.29,1.25,2.63,2.55,2.73,7.59c0.42-0.32,0.93-0.7,1.37-1.02
				c0.7-0.52,1.65-0.34,2.25,0.42c0.58,0.73,0.72,1.93-0.34,2.84c-0.95,0.81-3.49,2.91-3.49,2.91
				C41.64,42.76,41.5,42.81,41.36,42.81z"/>
		</g>
		<g>
			<path class="st2" d="M26.86,42.81h-2.9c-0.33,0-0.6-0.27-0.6-0.6v-1.16c0-0.81,0.55-1.49,1.29-1.7l1.52-5.07
				c-2.37-2.19-2.82-3.76-2.82-5.99c0-1.65,0.7-4.3,1.03-5.44c-1.49-0.58-3.17-1.19-4.11-1.53c-0.19-0.07-0.33-0.23-0.38-0.43
				c-0.38-1.62-0.6-2.51-0.6-3.04c0-1.07,0.69-1.76,1.76-1.76h2.64c0.12-0.12,0.28-0.29,0.43-0.42c0.55-0.5,1.23-0.74,2.14-0.74
				c1.13,0,3.87,0.48,4.99,1.27c1.73,1.23,2.57,3.29,2.57,6.29c0,0.87-0.38,1.69-1.06,2.25c-0.67,0.56-1.56,0.78-2.42,0.62
				c-1.38-0.26-2.37-1.51-2.36-2.97c0.02-2.4,0.62-3.6,0.65-3.65l1.07,0.55c0,0.01-0.5,1.03-0.52,3.11
				c-0.01,0.87,0.59,1.63,1.38,1.78c0.53,0.1,1.03-0.03,1.44-0.36c0.4-0.33,0.62-0.81,0.62-1.32c0-2.59-0.68-4.32-2.07-5.31
				c-0.8-0.57-3.21-1.05-4.29-1.05c-0.77,0-1.12,0.23-1.34,0.42c-0.25,0.23-0.54,0.54-0.54,0.54c-0.11,0.12-0.27,0.19-0.44,0.19
				h-2.9c-0.35,0-0.56,0.09-0.56,0.56c0,0.36,0.2,1.23,0.49,2.45c1.11,0.4,2.88,1.05,4.35,1.64c0.3,0.12,0.45,0.45,0.35,0.75
				c-0.22,0.7-1.13,3.9-1.13,5.61c0,1.79,0.19,3.12,2.7,5.35c0.17,0.16,0.24,0.4,0.18,0.62l-1.74,5.8
				c-0.08,0.25-0.31,0.43-0.58,0.43c-0.31,0-0.56,0.25-0.56,0.56v0.56h2.3V42.81z"/>
		</g>
	</g>
</g>
<g id="Layer_2">
</g>
</svg>
