<?xml version="1.0" encoding="utf-8"?>
<!-- Generator: Adobe Illustrator 24.3.0, SVG Export Plug-In . SVG Version: 6.00 Build 0)  -->
<svg version="1.1" id="Layer_1" xmlns="http://www.w3.org/2000/svg" xmlns:xlink="http://www.w3.org/1999/xlink" x="0px" y="0px"
	 viewBox="0 0 60.66 60.66" style="enable-background:new 0 0 60.66 60.66;" xml:space="preserve">
<style type="text/css">
	.st0{fill:#E0E8FB;}
	.st1{fill:#FFFFFF;stroke:#C0D4F9;stroke-miterlimit:10;}
	.st2{fill:#FFFFFF;}
	.st3{fill:#C0D4F9;}
</style>
<g id="Layer_1_1_">
	<circle class="st0" cx="31.6" cy="30.33" r="25.18"/>
	<circle class="st1" cx="6.42" cy="28.11" r="3.43"/>
	<circle class="st1" cx="8.99" cy="41.35" r="2.29"/>
	<circle class="st1" cx="54.86" cy="40.01" r="2.8"/>
	<rect x="20.04" y="16.7" class="st2" width="20.99" height="25.7"/>
	<circle class="st2" cx="36.77" cy="37.52" r="7.31"/>
	<g>
		<g>
			<path class="st3" d="M31.19,43.08H19.87c-0.37,0-0.67-0.3-0.67-0.67V16.42c0-0.37,0.3-0.67,0.67-0.67h21.32
				c0.37,0,0.67,0.3,0.67,0.67v15.33h-1.33V17.09h-20v24.66h10.66V43.08z"/>
		</g>
		<g>
			<path class="st3" d="M29.39,23.04h-7.33v-4.66h7.33V23.04z M23.39,21.7h4.66v-2h-4.66V21.7z"/>
		</g>
		<g>
			<rect x="31.65" y="21.7" class="st3" width="6.82" height="1.33"/>
		</g>
		<g>
			<rect x="31.65" y="19.43" class="st3" width="6.82" height="1.33"/>
		</g>
		<g>
			
				<rect x="43.42" y="42.03" transform="matrix(0.7071 -0.7071 0.7071 0.7071 -18.8039 44.3129)" class="st3" width="1.33" height="5.65"/>
		</g>
		<g>
			<path class="st3" d="M36.77,45.53c-4.42,0-8.01-3.59-8.01-8s3.59-8,8.01-8s8.01,3.59,8.01,8S41.19,45.53,36.77,45.53z
				 M36.77,30.85c-3.68,0-6.67,2.99-6.67,6.67s2.99,6.67,6.67,6.67s6.67-2.99,6.67-6.67C43.45,33.85,40.45,30.85,36.77,30.85z"/>
		</g>
		<g>
			<rect x="22.06" y="24.61" class="st3" width="16.41" height="1.33"/>
		</g>
		<g>
			<rect x="22.06" y="26.61" class="st3" width="16.41" height="1.33"/>
		</g>
		<g>
			<rect x="22.06" y="29.27" class="st3" width="6.25" height="1.33"/>
		</g>
		<g>
			<rect x="22.06" y="31.27" class="st3" width="6.25" height="1.33"/>
		</g>
	</g>
</g>
<g id="Layer_2_1_">
</g>
</svg>
