<?xml version="1.0" encoding="utf-8"?>
<!-- Generator: Adobe Illustrator 24.3.0, SVG Export Plug-In . SVG Version: 6.00 Build 0)  -->
<svg version="1.1" xmlns="http://www.w3.org/2000/svg" xmlns:xlink="http://www.w3.org/1999/xlink" x="0px" y="0px"
	 viewBox="0 0 60.66 60.66" style="enable-background:new 0 0 60.66 60.66;" xml:space="preserve">
<style type="text/css">
	.st0{fill:#C0D4F9;}
	.st1{fill:#DCE5F7;}
	.st2{fill:#E0E8FB;}
	.st3{fill:none;stroke:#C0D4F9;stroke-width:2;stroke-miterlimit:10;}
	.st4{fill:none;stroke:#DCE5F7;stroke-width:2;stroke-miterlimit:10;}
	.st5{fill:none;stroke:#E0E8FB;stroke-width:2;stroke-miterlimit:10;}
	.st6{fill:#FFFFFF;stroke:#C0D4F9;stroke-miterlimit:10;}
	.st7{fill:#FFFFFF;}
	.st8{fill:none;stroke:#C0D4F9;stroke-width:1.4;stroke-miterlimit:10;}
	.st9{fill:none;stroke:#C0D4F9;stroke-width:1.3;stroke-miterlimit:10;}
</style>
<g id="Layer_1">
	<circle class="st2" cx="31.6" cy="30.33" r="25.18"/>
	<circle class="st6" cx="6.42" cy="28.11" r="3.43"/>
	<circle class="st6" cx="8.99" cy="41.35" r="2.29"/>
	<circle class="st6" cx="54.86" cy="40.01" r="2.8"/>
	<circle class="st7" cx="38.67" cy="33.93" r="7.7"/>
	<path class="st7" d="M31.44,38.19H17.82l0.29-10.13l4.41-3.52l2.11-0.43V23.3l-1.34-1.39l-1.07-2.76l0.53-4.12
		c0,0,2.57-1.79,2.95-1.99s4.13,0.58,4.27,0.73c0.14,0.15,1.46,3.29,1.46,3.29l-0.26,3.68l-2.18,3.2l3.39,1.31l2.6,1.72l-3.55,3.85
		l-0.6,4.16L31.44,38.19z"/>
	<g>
		<g>
			<path class="st0" d="M26.81,24.55c-1.48,0-2.83-0.54-3.79-1.52c-0.96-0.98-1.49-2.36-1.49-3.89v-1.69c0-1.53,0.53-2.91,1.49-3.89
				c0.96-0.98,2.31-1.52,3.79-1.52c1.48,0,2.83,0.54,3.79,1.52c0.96,0.98,1.49,2.36,1.49,3.89v1.69c0,1.53-0.53,2.91-1.49,3.89
				C29.65,24.01,28.3,24.55,26.81,24.55z M26.81,13.5c-2.28,0-3.82,1.59-3.82,3.95v1.69c0,2.36,1.53,3.95,3.82,3.95
				s3.82-1.59,3.82-3.95v-1.69C30.63,15.09,29.1,13.5,26.81,13.5z"/>
		</g>
		<g>
			<path class="st0" d="M34.31,27.42c-1.71-1.98-5.4-2.87-7.48-2.87c-1.34,0-3.59,0.37-5.54,1.4l-0.68-1.29
				c2.19-1.16,4.72-1.57,6.23-1.57c2.19,0,6.46,0.92,8.59,3.38L34.31,27.42z"/>
		</g>
		<g>
			<path class="st0" d="M31.71,38.92H16.99l0-9.26c0-4.65,6.4-6.58,9.83-6.58c1.51,0,4.04,0.41,6.23,1.57l-0.68,1.29
				c-1.95-1.03-4.2-1.4-5.54-1.4c-3,0-8.37,1.71-8.37,5.12l0,7.8h13.26V38.92z"/>
		</g>
	</g>
	<g>
		<g>
			
				<rect x="45.66" y="38.99" transform="matrix(0.7071 -0.7071 0.7071 0.7071 -16.1248 45.0972)" class="st0" width="1.43" height="6.05"/>
		</g>
		<g>
			<path class="st0" d="M38.55,42.73c-4.72,0-8.56-3.84-8.56-8.56c0-4.72,3.84-8.56,8.56-8.56s8.56,3.84,8.56,8.56
				C47.11,38.89,43.27,42.73,38.55,42.73z M38.55,27.03c-3.94,0-7.14,3.2-7.14,7.14s3.2,7.14,7.14,7.14s7.14-3.2,7.14-7.14
				S42.48,27.03,38.55,27.03z"/>
		</g>
	</g>
</g>
<g id="Layer_2">
</g>
</svg>
