<svg id="Layer_1" data-name="Layer 1" xmlns="http://www.w3.org/2000/svg" viewBox="0 0 60.66 60.66"><defs><style>.cls-1{fill:#e0e8fb;}.cls-2,.cls-3{fill:#fff;}.cls-2{stroke:#c0d4f9;stroke-miterlimit:10;}.cls-4{fill:#c0d4f9;}</style></defs><circle class="cls-1" cx="31.6" cy="30.33" r="25.18"/><circle class="cls-2" cx="6.42" cy="28.11" r="3.43"/><circle class="cls-2" cx="9.86" cy="43.08" r="2.29"/><circle class="cls-2" cx="54.86" cy="40.01" r="2.8"/><rect class="cls-3" x="17.45" y="18.3" width="27.13" height="22.05"/><circle class="cls-3" cx="39.96" cy="36.28" r="7.54"/><path class="cls-4" d="M33.35,41h-16a.71.71,0,0,1-.7-.7V17.92a.71.71,0,0,1,.7-.7h27.3a.71.71,0,0,1,.7.7V30.09H44V18.62H18.05v21h15.3Z"/><path class="cls-4" d="M34.85,22.12h-7.7v-4.9h7.7Zm-6.3-1.4h4.9v-2.1h-4.9Z"/><rect class="cls-4" x="19.45" y="36.82" width="1.4" height="1.4"/><rect class="cls-4" x="22.25" y="36.82" width="1.4" height="1.4"/><rect class="cls-4" x="46.75" y="40.85" width="1.4" height="5.94" transform="translate(-17.09 46.38) rotate(-45)"/><path class="cls-4" d="M39.76,44.51a8.41,8.41,0,1,1,8.41-8.4A8.41,8.41,0,0,1,39.76,44.51Zm0-15.41a7,7,0,1,0,7,7A7,7,0,0,0,39.76,29.1Z"/><rect class="cls-4" x="35.55" y="33.32" width="1.4" height="5.6"/><rect class="cls-4" x="37.65" y="33.32" width="1.4" height="5.6"/><rect class="cls-4" x="40.45" y="33.32" width="1.4" height="5.6"/><rect class="cls-4" x="42.55" y="33.32" width="1.4" height="5.6"/></svg>