<svg width="104" height="145" viewBox="0 0 104 145" fill="none" xmlns="http://www.w3.org/2000/svg">
<path d="M17.4608 102.57C18.9137 113.343 20.3284 124.078 21.7813 134.851C20.5196 134.32 18.9137 134.661 17.9579 135.648C17.002 136.634 16.7726 138.227 17.3843 139.479C21.7048 139.327 25.9488 139.365 30.0781 139.365C31.9134 125.444 34.8957 110.953 38.9868 97.4873L17.4608 102.57Z" fill="#705D4D"/>
<path d="M21.1687 87.549C21.1305 86.2214 21.054 84.78 20.2893 83.6799C19.5246 82.5799 17.8041 82.0109 16.81 82.8833C16.4659 86.449 16.0835 89.9767 15.7394 93.5424C15.5482 95.3253 15.3953 97.146 15.7012 98.891C16.4276 102.608 19.257 105.491 22.0098 108.109C21.704 101.281 21.4363 94.4149 21.1687 87.549Z" fill="#705D4D"/>
<path d="M81.6558 139.783C82.497 132.12 83.6058 125.482 84.4469 117.819C84.1028 115.543 80.2029 109.891 79.2853 106.326C77.9471 101.281 77.1441 95.8184 75.8059 90.8113C68.3885 95.0598 60.5122 99.7255 53.0947 103.974C56.077 112.054 63.3415 120.702 71.7913 122.637C72.556 127.682 73.2825 130.451 74.0472 135.496C71.5619 135.117 69.0002 137.279 68.962 139.783C73.206 139.934 77.3353 140.162 81.6558 139.783Z" fill="#5B4637"/>
<path d="M42.925 94.8699C45.372 87.0557 47.819 79.1657 48.8513 71.0481C40.6692 78.5967 29.8489 83.3004 18.7227 84.097C18.7609 86.7523 19.105 100.105 20.902 102.684C22.3932 104.808 33.5576 111.295 37.1516 113.343C39.0633 107.16 40.9751 101.015 42.925 94.8699Z" fill="#F2E3D7"/>
<path d="M95.2669 95.8941C94.8846 91.6456 94.2728 86.8661 90.8699 84.2487C88.7288 82.5797 85.9377 82.1245 83.2613 81.6313C71.3704 79.4312 59.8236 75.2586 49.2709 69.417C44.9887 77.9519 40.7447 86.5247 36.4624 95.0596C35.583 96.8424 34.6654 98.6632 34.2448 100.598C33.3272 104.77 34.6272 109.057 35.9271 113.116C38.8712 113.495 41.8917 113.685 44.874 113.609C53.8591 113.381 62.7294 111.067 71.0645 107.767C79.3996 104.429 87.3524 100.143 95.2669 95.8941Z" fill="#705D4D"/>
<path d="M100.963 143.993C101.881 135.799 103.066 128.668 103.946 120.475C103.563 118.047 99.3958 111.978 98.4017 108.146C96.9871 102.76 96.1077 96.8804 94.693 91.4939C86.7403 96.0458 78.2905 101.053 70.376 105.605C73.5877 114.254 81.3492 121.119 90.4108 123.244C91.2137 128.63 92.0166 134.017 92.8195 139.441C90.1431 139.024 87.3902 141.376 87.3902 144.031C91.8637 144.145 96.3371 144.372 100.963 143.993Z" fill="#705D4D"/>
<path d="M34.6279 106.326C36.119 117.402 37.5719 128.478 39.0631 139.517C37.7631 138.986 36.119 139.327 35.1632 140.351C34.2073 141.375 33.9397 143.007 34.5896 144.296C39.0248 144.145 43.3835 144.182 47.6658 144.182C49.5775 129.844 52.6362 114.936 56.842 101.091L34.6279 106.326Z" fill="#705D4D"/>
<path d="M25.4505 26.553C22.0859 18.3215 18.7595 10.0901 15.3949 1.89664C15.0508 1.02419 14.4773 0 13.5214 0C12.7567 0 12.2214 0.68279 11.8009 1.32765C7.9392 7.24516 5.53043 14.111 4.80398 21.1286C4.45987 24.3149 4.53634 27.653 6.10395 30.46C7.67156 33.2671 11.1127 35.2016 14.1714 34.1395L25.4505 26.553Z" fill="#705D4D"/>
<path d="M8.55164 32.4706C4.7282 22.4943 6.25757 10.6593 12.528 1.97266C14.8985 10.3179 17.2691 18.6631 19.6014 27.0083C15.9309 28.8291 12.2221 30.6498 8.55164 32.4706Z" fill="#FCBEBE"/>
<path d="M14.5547 79.9244C14.6694 81.7831 14.7841 83.6798 14.8988 85.5385C21.9339 85.9937 29.0838 84.7798 35.5836 81.9728C42.0452 79.1658 47.8186 74.8035 52.292 69.3791C51.0303 67.7101 49.7303 66.041 48.4686 64.4099C46.4422 65.1306 44.4157 65.8514 42.3893 66.5721C33.4807 69.7205 24.5721 72.8689 16.0076 76.8139L14.5547 79.9244Z" fill="#E54E4E"/>
<path d="M3.00767 36.6051C2.89297 40.1328 3.54295 43.2054 2.77826 46.809C2.54886 47.909 0.637137 48.8194 0.522434 49.9574C0.369496 51.323 2.51062 56.0646 3.35178 57.1646C8.62812 64.0684 16.4279 64.3339 25.0307 63.0821C30.1158 62.3614 34.8187 60.0475 39.8656 58.9475C40.5538 58.7957 36.4245 67.7858 37.1127 67.8237C38.6039 67.8996 42.4655 69.6445 43.5361 70.7066C43.5361 70.7066 48.1625 67.4065 49.3095 65.2822C49.3095 65.2822 47.2066 62.3614 47.5507 62.8925C47.0919 54.2059 48.3154 47.1883 48.0478 38.2362C47.9713 35.5429 46.9007 32.9256 45.7537 30.4979C44.5684 28.0702 42.8479 25.8321 40.5156 24.4286C37.9157 22.8734 34.8187 22.4182 31.7982 22.3044C24.1513 22.0009 19.3337 23.3286 13.0633 26.1735C9.77515 27.615 3.08414 34.2912 3.00767 36.6051Z" fill="#705D4D"/>
<path d="M18.7211 45.7469C17.0005 45.0641 15.0888 45.7469 13.3682 46.3918C11.4948 47.1125 9.65951 47.8332 7.78602 48.5539C6.90663 48.8953 5.98901 49.2747 5.37726 49.9954C4.80374 50.7161 4.61257 51.6644 4.45963 52.5748C4.26846 53.6369 4.07729 54.737 3.84788 55.7991C3.65671 56.8233 3.38907 57.9233 3.46554 58.9475C3.54201 59.5924 3.77141 60.1993 4.23023 60.6166C4.72727 61.0338 5.45373 61.1856 5.98901 60.8821C5.6449 61.0718 8.28307 63.3098 8.47424 63.5753C9.69774 65.0926 11.6859 65.8134 13.5212 66.3824C17.3829 67.5583 21.6651 67.1031 25.2591 65.3202C28.8532 63.5374 31.7972 60.5407 33.7089 57.013C34.1295 56.2543 34.4736 55.3818 34.1677 54.5853C33.9383 53.9783 33.3648 53.599 32.7913 53.3714C32.1796 53.1438 31.5296 53.1059 30.9178 53.03C27.4385 52.5369 25.1444 52.499 23.2709 49.7678C22.5445 48.5919 19.9828 46.24 18.7211 45.7469Z" fill="#F2E3D7"/>
<path d="M31.1488 22.1528C28.2047 24.884 20.749 31.4464 20.6343 32.0912C20.1373 35.4672 21.2843 44.9504 22.1637 50.4128C18.4932 49.7679 14.8609 49.123 11.1904 48.4403C12.6816 43.6607 14.5933 32.3947 15.2433 31.5602C18.8755 26.6289 27.7459 22.1528 31.1488 22.1528Z" fill="#F2E3D7"/>
<path d="M13.6749 80.228C18.913 80.9487 24.4952 80.228 29.5039 78.0658C32.5244 76.7761 35.4685 75.3347 38.3361 73.7794C39.7507 73.0208 41.1272 72.1862 42.5036 71.3517C42.7713 71.2 45.8682 69.1896 45.6771 68.8482C43.7653 65.0928 41.8154 61.2995 39.9037 57.5442C35.545 58.758 31.148 59.5546 26.7511 60.6926C25.5276 60.9961 12.6426 63.9928 12.6426 64.3721C13.0249 69.6447 13.3308 74.9174 13.6749 80.228Z" fill="#F2E3D7"/>
<path d="M29.3124 42.1436C28.8153 42.5229 28.6242 43.1677 28.5095 43.7747C28.3183 44.723 28.2801 45.7472 28.7389 46.5817C29.1977 47.4162 30.2682 47.9852 31.1476 47.6059C31.9123 47.2645 32.2947 46.392 32.4476 45.5954C32.5623 44.9126 32.6005 44.2299 32.4094 43.585C32.2182 42.9401 31.7976 42.3332 31.1859 42.0298C30.6123 41.6884 29.8477 41.7263 29.3124 42.1436Z" fill="#4C3727"/>
<path d="M7.13727 42.1053C6.75493 42.4088 6.56376 42.9398 6.48729 43.4329C6.33435 44.2295 6.29612 45.0641 6.67846 45.7468C7.06081 46.4296 7.9402 46.9228 8.66665 46.6193C9.31663 46.3538 9.62251 45.633 9.73721 44.9503C9.85192 44.3813 9.85192 43.8123 9.69898 43.2812C9.54604 42.7502 9.20193 42.257 8.70488 41.9915C8.24607 41.726 7.55785 41.726 7.13727 42.1053Z" fill="#4C3727"/>
<path d="M31.6456 55.192C29.6574 56.4059 27.7839 57.7715 25.7575 58.9474C24.2281 59.8198 22.584 60.5785 20.94 61.2613C19.6782 61.7923 17.9577 62.3993 16.5812 61.7544C15.893 61.4509 15.2813 60.9957 14.7078 60.5406C13.7137 59.7819 12.6813 58.7577 11.4196 58.3784C11.649 56.9369 11.9549 55.4955 12.0696 54.054C12.2225 54.054 12.4137 54.054 12.5666 54.0161C14.1725 53.8264 15.6636 52.8402 16.4283 51.3987C16.6195 51.0194 16.7724 50.6022 16.6195 50.2228C16.3901 49.6538 15.6254 49.578 14.9754 49.578C13.2931 49.578 11.5725 49.54 9.89022 49.54C9.0873 49.54 8.13144 49.6159 7.7491 50.2987C7.36676 50.9436 7.7491 51.7781 8.20791 52.3471C8.93437 53.1816 9.92846 53.7126 10.9608 53.9402C10.8461 55.3817 10.8461 56.8231 10.8461 58.2646C9.04907 58.1129 6.6403 60.0854 5.1874 60.844C5.03446 60.9199 5.1874 61.1095 5.3021 61.1095C6.6403 60.844 7.97851 60.6164 9.27847 60.313C11.7255 59.744 12.9872 60.9199 14.8607 62.2475C16.0077 63.082 17.4989 63.0062 18.7606 62.5889C20.137 62.1717 21.5135 61.8303 22.8899 61.3371C25.8722 60.1992 28.6633 58.6439 31.3779 56.9749C31.7221 56.7852 32.0279 56.5576 32.372 56.33C33.1367 55.8369 32.372 54.7748 31.6456 55.192Z" fill="#4C3727"/>
<path d="M14.7065 45.4817C13.5213 45.8231 12.2595 46.2403 11.2272 46.8852C10.8449 47.1128 11.189 47.7577 11.5713 47.568C12.6801 47.0369 13.7507 46.43 14.8977 45.9748C15.1653 45.8231 15.0124 45.3679 14.7065 45.4817Z" fill="#E0C8B8"/>
<path d="M31.1477 60.1614C28.0507 62.3235 24.7625 64.0305 21.3597 65.6237C21.2067 65.6996 21.2832 65.9651 21.4744 65.8892C25.1066 64.7512 28.4713 62.9305 31.5683 60.7304C31.9124 60.5028 31.53 59.9338 31.1477 60.1614Z" fill="#E0C8B8"/>
<path d="M34.8955 25.1495C41.3954 17.3733 48.8511 10.3937 57.0332 4.36237C61.2008 1.21395 60.9714 22.7218 57.645 31.3705C56.2685 34.9362 54.2039 38.3881 51.0304 40.5882C47.857 42.7883 43.4218 43.4332 40.0954 41.4986L34.8955 25.1495Z" fill="#705D4D"/>
<path d="M56.8795 6.71407C57.7207 6.78993 58.0648 7.81412 58.1795 8.64864C58.9824 14.2627 58.8295 20.0285 57.6825 25.6046C57.0325 28.8289 56.0002 32.0152 54.2031 34.7843C52.4061 37.5534 49.7297 39.8294 46.518 40.7018C45.9445 35.2016 43.7652 29.8531 40.3623 25.4529C45.3328 19.5353 50.3415 13.5799 55.3119 7.66239C55.7325 7.16926 56.2678 6.6382 56.8795 6.71407Z" fill="#FCBEBE"/>
<path d="M88.7676 84.4763C89.1499 82.39 90.8705 80.6071 92.9351 80.1899C94.1204 79.9623 95.4586 80.152 96.2616 81.0244C97.2557 82.0865 97.1792 83.8314 96.4527 85.1212C95.7263 86.4109 94.5028 87.2833 93.2793 88.1558C92.744 88.5351 92.2087 88.9144 91.5969 89.0282C90.9852 89.18 90.2205 88.9903 89.8764 88.4592L88.7676 84.4763Z" fill="#705D4D"/>
<path d="M55.007 102.381C55.007 102.115 54.6629 102.153 54.5865 102.343C53.5541 105.529 52.9806 109.36 52.9424 112.699C52.9424 113.192 53.6688 113.192 53.7835 112.736C54.6629 109.55 55.16 105.719 55.007 102.381Z" fill="#5B4637"/>
<path d="M70.8743 106.439C70.1096 104.846 69.2302 103.253 68.4273 101.698C68.2744 101.394 67.7773 101.66 67.892 101.963C68.5802 103.556 69.2302 105.188 69.9567 106.781C70.1861 107.312 71.1419 107.008 70.8743 106.439Z" fill="#5B4637"/>
<path d="M37.9158 140.162C36.2717 140.314 35.5835 142.476 36.5776 143.69C36.8834 144.069 37.4952 143.69 37.2276 143.234C36.5776 142.096 37.0364 141.186 38.0687 140.541C38.2599 140.465 38.1452 140.124 37.9158 140.162Z" fill="#5B4637"/>
<path d="M40.5154 141.793C40.1713 142.324 39.9801 142.969 40.2095 143.576C40.3625 144.031 40.9742 143.765 40.8977 143.348C40.8213 142.931 40.783 142.514 40.9742 142.096C41.0889 141.831 40.7066 141.527 40.5154 141.793Z" fill="#5B4637"/>
<path d="M19.9077 135.951C18.646 136.065 17.996 137.696 18.5313 138.758C18.7607 139.213 19.4489 138.986 19.296 138.493C19.143 138.037 19.1048 137.658 19.2195 137.203C19.3342 136.786 19.7165 136.444 20.0224 136.141C20.0607 136.065 19.9842 135.951 19.9077 135.951Z" fill="#5B4637"/>
<path d="M22.3928 137.089C22.6222 136.823 22.2781 136.444 21.9722 136.634C21.1693 137.203 20.9016 138.379 21.6281 139.137C21.9339 139.479 22.5839 139.023 22.3928 138.644C22.0869 138.075 21.9339 137.62 22.3928 137.089Z" fill="#5B4637"/>
<path d="M91.7497 140.806C90.5263 141.148 89.9528 142.476 90.2969 143.651C90.4498 144.107 91.138 143.841 90.9851 143.424C90.6792 142.476 91.0615 141.641 91.8644 141.072C92.0174 140.996 91.9027 140.769 91.7497 140.806Z" fill="#5B4637"/>
<path d="M94.9234 142.058C94.3116 142.779 94.0822 143.841 94.5411 144.676C94.7705 145.055 95.3822 144.752 95.2293 144.334C94.9999 143.651 94.8852 143.045 95.344 142.4C95.5352 142.134 95.1528 141.755 94.9234 142.058Z" fill="#5B4637"/>
</svg>
