<svg width="382" height="109" viewBox="0 0 382 109" fill="none" xmlns="http://www.w3.org/2000/svg">
<path d="M250.228 36.2304C247.148 57.2704 276.278 56.0004 276.278 56.0004L279.708 53.9404C272.028 52.0804 259.678 47.0904 264.398 35.5404C268.898 24.5204 276.258 19.2304 285.618 15.5904C274.738 14.5304 252.208 22.6704 250.228 36.2304Z" fill="#FFE5D0"/>
<path d="M264.398 35.5399C264.708 34.7899 265.028 34.0799 265.358 33.3799C260.798 31.8299 257.348 29.3399 255.828 26.3799C252.858 29.1999 250.768 32.5099 250.228 36.2199C247.148 57.2599 276.278 55.9899 276.278 55.9899L279.708 53.9299C272.028 52.0799 259.678 47.0999 264.398 35.5399Z" fill="#FCA15E"/>
<path d="M353.806 32.02C355.776 27.03 356.226 4.54 348.846 0C346.046 1.84 339.716 20.19 344.806 25.59C347.866 29.89 353.806 32.02 353.806 32.02Z" fill="#FCA15E"/>
<path d="M354.139 28.2997C355.209 24.5497 354.479 7.29973 349.399 3.46973C347.629 4.74973 344.299 18.5597 347.909 22.9397C350.119 26.3897 354.139 28.2997 354.139 28.2997Z" fill="#EA733D"/>
<path d="M347.547 91.8401C349.817 87.9601 350.087 71.2101 345.427 71.5601C340.767 71.9101 337.947 86.5501 336.887 90.6101C336.237 93.1001 338.717 102.25 340.337 107.19H349.127C349.097 101.71 345.277 95.7101 347.547 91.8401Z" fill="#BC663B"/>
<path d="M289.91 90.8304C290.84 88.2904 305.72 66.6904 304.33 59.0604C302.94 51.4304 294.38 53.9704 285.82 56.2804C277.26 58.5904 280.17 86.7704 279.88 88.8204C279.34 92.6804 280.19 100 283.89 107.17H293.61C293.61 107.18 288.98 93.3704 289.91 90.8304Z" fill="#BC663B"/>
<path d="M266.156 79.7303C270.806 81.8903 319.676 101.17 334.786 95.7703C349.896 90.3703 358.226 69.2403 358.846 66.7803C359.466 64.3103 325.846 41.4902 325.846 41.4902C325.846 41.4902 322.446 45.2003 320.136 46.5803C306.256 54.9103 264.616 42.7202 261.686 61.6902C259.486 75.8902 261.836 77.7203 266.156 79.7303Z" fill="#FCA15E"/>
<path d="M286.649 83.7504L281.759 63.2305L273.469 78.4504L286.649 83.7504Z" fill="#E58341"/>
<path d="M353.486 61.4102C350.466 68.3602 342.766 82.4002 330.846 86.6602C315.736 92.0602 266.866 72.7801 262.216 70.6201C261.736 70.4001 261.286 70.1801 260.856 69.9401C260.736 76.7701 262.876 78.2002 266.156 79.7302C270.806 81.8902 319.676 101.17 334.786 95.7701C349.896 90.3701 358.226 69.2402 358.846 66.7802C359.006 66.1202 356.806 64.0802 353.486 61.4102Z" fill="#E58341"/>
<path d="M320.14 46.5697C307.65 54.0597 272.71 44.9597 263.68 56.8597C269.48 62.6097 285.55 67.3697 301.88 68.5197C323.08 70.0197 334.26 56.8197 336.68 48.9797C330.7 44.7597 325.85 41.4697 325.85 41.4697C325.85 41.4697 322.44 45.1797 320.14 46.5697Z" fill="#FCA15E"/>
<path d="M350.158 82.4399C350.118 82.3899 349.478 81.7099 348.708 80.7699C349.328 80.7999 349.948 80.8099 350.568 80.7999C350.578 80.8099 350.598 80.8099 350.608 80.8199L353.768 69.3199L357.998 70.4799C360.438 60.1999 362.888 44.5299 357.318 37.7699C349.598 28.3899 348.828 24.2499 331.558 30.8299C329.638 31.5599 325.098 38.6499 322.428 46.0499C320.808 48.0799 318.378 52.0999 318.348 58.1299C318.348 58.1299 318.968 56.8799 319.848 55.4699C319.408 57.9099 319.328 61.0499 320.388 64.6899C320.388 64.6899 320.568 63.6399 320.908 62.3199C321.428 64.2499 322.308 66.3799 323.798 68.5799C323.798 68.5799 323.598 67.2299 323.518 65.5999C324.138 67.6199 325.188 69.8699 326.958 72.1499C326.958 72.1499 326.568 70.3299 326.418 68.3599C326.688 68.6799 326.968 68.9999 327.248 69.3199C328.078 71.4299 329.448 73.7999 331.708 76.0999C331.708 76.0999 331.198 74.5999 330.828 72.8499C331.198 73.1699 331.568 73.4899 331.958 73.7999C332.888 75.4199 334.168 77.1099 335.958 78.7399C335.958 78.7399 335.478 77.5399 335.038 76.0299C335.398 76.2599 335.768 76.4899 336.138 76.7099C337.408 78.3499 339.148 80.0499 341.548 81.5299C341.548 81.5299 340.728 80.2399 339.968 78.6699C340.338 78.8299 340.718 78.9799 341.098 79.1299C342.408 80.2599 344.008 81.3599 345.988 82.2699C345.988 82.2699 345.248 81.3699 344.428 80.1599C345.048 80.3099 345.668 80.4299 346.288 80.5299C347.398 81.2199 348.688 81.8799 350.158 82.4399Z" fill="#E58341"/>
<path d="M270.78 90.5202C271.71 87.9702 285.35 66.6902 283.97 59.0602C282.58 51.4302 275.33 51.0403 266.77 53.3503C258.21 55.6603 261.99 81.2703 259.91 86.3503C258.6 89.5603 261.07 100 264.77 107.17H274.49C274.49 107.18 269.86 93.0702 270.78 90.5202Z" fill="#FCA15E"/>
<path d="M328.397 92.46C330.757 88.74 331.427 72.59 326.747 73.01C318.697 73.73 318.917 87.39 317.767 91.28C317.057 93.66 319.317 102.44 320.827 107.18H329.617C329.717 101.94 326.027 96.18 328.397 92.46Z" fill="#FCA15E"/>
<path d="M332.467 28.6801C329.227 29.9101 318.477 49.3301 321.977 57.6801C326.477 68.4101 340.947 81.7701 356.217 78.0401C356.217 78.0401 366.857 46.1201 358.227 35.6301C350.507 26.2401 349.737 22.1001 332.467 28.6801Z" fill="#FFDBC0"/>
<path d="M358.228 35.6204C353.208 29.5304 351.118 25.6505 345.538 25.4805C349.388 30.3705 351.818 37.4904 351.818 45.4204C351.818 59.9704 343.648 71.7904 333.488 72.1104C339.848 77.0204 347.908 80.0605 356.218 78.0305C356.218 78.0305 366.868 46.1104 358.228 35.6204Z" fill="#FFDBC0"/>
<path d="M356.73 60.8299C356.73 60.8299 358.13 52.0499 363.67 51.6898C374.31 50.9998 377.51 49.1799 378.59 45.7899C380.75 38.9999 379.36 37.3098 379.36 37.3098C379.36 37.3098 364.75 34.5299 363.67 31.4499C362.59 28.3699 359.85 23.2399 357.15 21.2699C354.28 19.1799 334.79 20.3499 332.78 24.5099C331.36 27.4699 326.31 41.1399 327.69 48.7199C328 50.4199 347.82 60.2099 356.73 60.8299Z" fill="#FCA15E"/>
<path d="M349.717 40.8702C349.167 36.0802 348.767 32.1003 364.147 32.1603C363.917 31.9303 363.747 31.7003 363.667 31.4603C362.667 28.5903 360.217 23.9502 357.707 21.7402C357.427 22.6202 353.997 23.3602 352.947 23.3102C339.657 22.6302 335.757 49.9802 327.637 48.3602C327.657 48.4902 327.677 48.6102 327.697 48.7402C328.007 50.4402 347.817 60.2203 356.727 60.8503C356.727 60.8503 358.127 52.0703 363.667 51.7103C364.197 51.6803 376.357 49.9902 377.177 45.3002C370.167 51.0602 350.237 45.4402 349.717 40.8702Z" fill="#FCA15E"/>
<path d="M352.497 33.0497C353.007 35.3897 372.717 45.8298 376.287 41.4398C376.287 41.4398 380.697 38.7298 379.267 37.2898C378.417 37.1298 370.767 35.5998 366.477 33.6198C353.327 30.9598 359.097 24.6598 351.377 20.2698C347.257 20.1698 341.878 20.6498 337.938 21.6898C340.578 21.7898 346.898 22.1598 349.688 23.5998C353.247 25.4398 351.987 30.7097 352.497 33.0497Z" fill="#FFDBC0"/>
<path d="M353.929 22.2305C352.419 22.6605 350.679 23.0005 348.789 23.2205C349.119 23.3405 349.419 23.4605 349.689 23.6005C353.259 25.4405 351.999 30.7004 352.509 33.0504C352.559 33.3004 352.839 33.6404 353.289 34.0504C355.449 33.0704 358.129 32.3304 361.139 31.9204C356.009 29.3404 357.049 25.5205 353.929 22.2305Z" fill="#FFDBC0"/>
<path d="M379.357 37.3102C379.357 37.3102 378.827 37.2103 377.967 37.0303C377.977 37.2503 377.797 39.5003 377.817 39.7103C378.937 52.6203 364.527 46.2003 356.447 47.5303C348.207 48.8803 346.257 52.4203 327.707 48.7703C328.247 50.5503 348.477 61.3903 357.327 62.0103C357.327 62.0103 358.127 52.0603 363.667 51.7003C374.307 51.0103 377.507 49.1902 378.587 45.8002C380.747 39.0102 379.357 37.3102 379.357 37.3102Z" fill="#FFDBC0"/>
<path d="M332.889 36.3002C329.339 32.2902 323.479 12.5503 326.569 4.53027C329.189 4.68027 342.149 12.7003 338.599 26.2803C337.209 31.3703 332.889 36.3002 332.889 36.3002Z" fill="#FCA15E"/>
<path d="M333.168 31.9395C330.608 29.0495 326.378 14.8095 328.608 9.01953C330.498 9.12953 339.838 14.9195 337.288 24.6995C336.288 28.3795 333.168 31.9395 333.168 31.9395Z" fill="#EA733D"/>
<path d="M349.379 31.8703C349.179 30.3903 348.299 29.2903 347.419 29.4103C346.529 29.5303 345.969 30.8203 346.169 32.3003C346.369 33.7803 346.909 33.3103 347.799 33.1903C348.679 33.0803 349.579 33.3503 349.379 31.8703Z" fill="#472610"/>
<path d="M361.329 30.4798C361.249 29.1598 360.459 28.1398 359.559 28.1998C358.669 28.2598 358.009 29.3698 358.089 30.6798C358.169 31.9998 359.019 31.7198 359.909 31.6598C360.819 31.5998 361.419 31.7898 361.329 30.4798Z" fill="#472610"/>
<path d="M321.906 107.18H332.686C332.686 107.18 334.036 101.83 329.716 102.84C325.396 103.84 321.906 107.18 321.906 107.18Z" fill="#FCA15E"/>
<path d="M265.906 107.18H276.686C276.686 107.18 277.296 102.3 273.116 103.22C268.946 104.14 265.906 107.18 265.906 107.18Z" fill="#FCA15E"/>
<path d="M340.629 107.18H351.409C351.409 107.18 352.019 102.3 347.839 103.22C343.669 104.14 340.629 107.18 340.629 107.18Z" fill="#BC663B"/>
<path d="M284.258 107.18H295.038C295.038 107.18 295.648 102.3 291.468 103.22C287.298 104.14 284.258 107.18 284.258 107.18Z" fill="#BC663B"/>
<path d="M270.778 90.5198C271.278 89.1398 275.498 82.2998 279.048 75.0898C275.208 79.1998 270.428 81.2098 266.008 80.0098C263.928 79.4398 262.138 78.2098 260.698 76.4998C260.638 80.9398 260.578 84.7198 259.898 86.3598C258.588 89.5698 261.058 100.01 264.758 107.18H274.478C274.488 107.18 269.858 93.0698 270.778 90.5198Z" fill="#FCA15E"/>
<path d="M274.958 107.18C274.958 107.18 270.108 93.1297 271.038 90.5797C271.218 90.0697 271.668 88.7497 272.648 86.9997C271.258 85.4697 269.788 84.6897 268.368 84.9097C264.288 85.5397 262.228 94.1696 263.778 104.18C263.858 104.67 263.938 105.14 264.028 105.62C264.278 106.15 264.528 106.67 264.778 107.17H274.958V107.18Z" fill="#FCA15E"/>
<path d="M330.548 107.18C330.648 101.94 326.028 96.19 328.388 92.46C329.358 90.93 330.038 87.31 330.188 83.6C329.268 82.73 328.268 82.25 327.218 82.25C322.898 82.25 319.398 90.31 319.398 100.26C319.398 101.02 319.418 101.76 319.458 102.5C319.918 104.22 320.388 105.85 320.808 107.17H330.548V107.18Z" fill="#FCA15E"/>
<path d="M321.507 52.0801C321.507 52.0801 319.607 58.94 324.697 66.42C324.697 66.42 323.677 59.5601 325.377 58.1301L321.507 52.0801Z" fill="#FFDBC0"/>
<path d="M322.686 47.9102C322.686 47.9102 318.756 53.8502 321.296 62.5302C321.296 62.5302 322.446 55.6902 324.506 54.8502L322.686 47.9102Z" fill="#FFDBC0"/>
<path d="M324.778 42.3604C324.778 42.3604 319.318 46.9304 319.258 55.9804C319.258 55.9804 322.318 49.7504 324.528 49.5404L324.778 42.3604Z" fill="#FFDBC0"/>
<path d="M323.789 55.8701C323.789 55.8701 322.319 62.8402 327.879 69.9802C327.879 69.9802 326.429 63.1902 328.039 61.6602L323.789 55.8701Z" fill="#FFDBC0"/>
<path d="M326.917 60.3896C326.917 60.3896 326.267 67.4796 332.627 73.9296C332.627 73.9296 330.397 67.3597 331.817 65.6497L326.917 60.3896Z" fill="#FFDBC0"/>
<path d="M330.427 63.3604C330.427 63.3604 330.167 70.4804 336.867 76.5704C336.867 76.5704 334.277 70.1304 335.597 68.3504L330.427 63.3604Z" fill="#FFDBC0"/>
<path d="M339.599 73.0098H335.969C337.279 75.0798 339.299 77.4097 342.449 79.3597C342.449 79.3597 340.019 75.5298 339.599 73.0098Z" fill="#FFDBC0"/>
<path d="M343.287 74.1396L339.688 74.5797C341.237 76.4797 343.527 78.5397 346.897 80.0897C346.897 80.0997 344.017 76.5896 343.287 74.1396Z" fill="#FFDBC0"/>
<path d="M347.068 74.6299L343.508 75.3299C345.188 77.1099 347.628 78.9999 351.098 80.2999C351.088 80.2999 347.968 77.0199 347.068 74.6299Z" fill="#FFDBC0"/>
<path d="M350.197 74.5195L346.707 75.5195C348.537 77.1495 351.117 78.8395 354.677 79.8395C354.677 79.8395 351.297 76.8295 350.197 74.5195Z" fill="#FFDBC0"/>
<path d="M353.396 74.0498L349.906 75.0498C351.736 76.6898 354.316 78.3698 357.876 79.3698C357.876 79.3698 354.486 76.3598 353.396 74.0498Z" fill="#FFDBC0"/>
<path d="M377.828 41.32C376.758 48.86 367.968 47.97 365.028 47.38L364.828 47.48C366.148 47.9 377.798 50.28 378.538 41L377.828 41.32Z" fill="#FCA15E"/>
<path d="M378.939 41.7598L377.799 43.0098C377.799 43.0098 376.949 46.2497 377.869 46.9197L378.249 46.3498C378.249 46.3598 377.769 44.0098 378.939 41.7598Z" fill="#FCA15E"/>
<path d="M378.74 43.18C377.56 43.65 370.41 37.47 372.73 36.09C375.04 34.7 380.13 34.55 380.9 36.4C381.67 38.24 380.28 42.56 378.74 43.18Z" fill="#874C1F"/>
<path d="M377.378 41.8897C376.828 41.7997 373.028 39.0996 374.248 38.6296C375.468 38.1596 377.648 38.2197 378.058 38.7697C378.468 39.2997 378.188 42.0197 377.378 41.8897Z" fill="#472610"/>
<path d="M348.78 31.0799C348.61 30.6599 348.28 30.3999 348.05 30.4999C347.82 30.5999 347.76 31.0099 347.93 31.4299C348.1 31.8499 348.43 32.1099 348.66 32.0099C348.9 31.9099 348.95 31.4899 348.78 31.0799Z" fill="#FFDBC0"/>
<path d="M360.608 29.3905C360.438 28.9705 360.108 28.7105 359.878 28.8105C359.648 28.9105 359.588 29.3205 359.758 29.7405C359.928 30.1605 360.258 30.4205 360.488 30.3205C360.728 30.2305 360.778 29.8105 360.608 29.3905Z" fill="#FFDBC0"/>
<ellipse cx="143" cy="107" rx="6" ry="2" fill="#253C5E"/>
<ellipse cx="162" cy="105" rx="6" ry="2" fill="#253C5E"/>
<ellipse cx="199" cy="107" rx="6" ry="2" fill="#253C5E"/>
<ellipse cx="218" cy="105" rx="6" ry="2" fill="#253C5E"/>
<ellipse cx="6" cy="107" rx="6" ry="2" fill="#253C5E"/>
<ellipse cx="25" cy="105" rx="6" ry="2" fill="#253C5E"/>
<ellipse cx="62" cy="107" rx="6" ry="2" fill="#253C5E"/>
<ellipse cx="81" cy="105" rx="6" ry="2" fill="#253C5E"/>
</svg>
