<svg width="133" height="133" viewBox="0 0 133 133" fill="none" xmlns="http://www.w3.org/2000/svg">
<g clip-path="url(#clip0)">
<path d="M63.0552 1.2244L0 52.453V62H66.5H133V52.453L69.9448 1.2244C67.9354 -0.408135 65.0647 -0.408135 63.0552 1.2244Z" fill="#9FB8FF"/>
<path d="M122.398 114.627H11.4733C8.45063 114.627 6 112.176 6 109.154V5.47326C6 2.45063 8.45037 0 11.4733 0H122.398C125.42 0 127.871 2.45063 127.871 5.47326V109.154C127.871 112.177 125.421 114.627 122.398 114.627Z" fill="url(#paint0_linear)"/>
<path d="M127.435 106.104V108.235C127.435 111.763 124.572 114.627 121.044 114.627H11.9562C8.42785 114.627 5.56445 111.763 5.56445 108.235V106.104H127.435Z" fill="url(#paint1_linear)"/>
<path d="M133 53V127.859C133 130.881 130.366 133.322 127.344 133.322H5.47326C2.45193 133.322 0 130.87 0 127.849V53L67.1388 105.956L133 53Z" fill="url(#paint2_linear)"/>
<path d="M132.171 130.263L70.6656 80.6724C68.6607 79.0558 65.7997 79.0558 63.7948 80.6724L1.35156 131.019C2.35582 132.229 3.86999 133 5.56496 133H127.436C129.461 133 131.225 131.898 132.171 130.263Z" fill="url(#paint3_linear)"/>
<path d="M7.27085 110.86V7.1794C7.27085 4.15677 9.72148 1.70614 12.7441 1.70614H123.669C124.743 1.70614 125.742 2.0202 126.587 2.5548C125.617 1.0214 123.911 0 121.962 0H11.0377C8.01508 0 5.56445 2.45063 5.56445 5.47326V109.154C5.56445 111.103 6.58585 112.809 8.11951 113.779C7.58491 112.933 7.27085 111.934 7.27085 110.86Z" fill="url(#paint4_linear)"/>
<path d="M35.924 50V47.556H39.616V36.688H36.574V34.816C37.406 34.66 38.1167 34.478 38.706 34.27C39.3127 34.0447 39.876 33.776 40.396 33.464H42.632V47.556H45.882V50H35.924ZM92.0375 50.312C91.2228 50.312 90.4688 50.1993 89.7755 49.974C89.0995 49.7487 88.5101 49.4367 88.0075 49.038C87.5221 48.6393 87.1321 48.1627 86.8375 47.608C86.5601 47.0533 86.4215 46.438 86.4215 45.762C86.4215 45.242 86.4995 44.774 86.6555 44.358C86.8288 43.9247 87.0541 43.5347 87.3315 43.188C87.6088 42.8413 87.9208 42.5293 88.2675 42.252C88.6315 41.9747 89.0128 41.732 89.4115 41.524V41.42C88.7701 40.9693 88.2241 40.432 87.7735 39.808C87.3401 39.184 87.1235 38.43 87.1235 37.546C87.1235 36.87 87.2448 36.2633 87.4875 35.726C87.7475 35.1887 88.0941 34.7293 88.5275 34.348C88.9781 33.9667 89.5068 33.672 90.1135 33.464C90.7375 33.256 91.4048 33.152 92.1155 33.152C92.8608 33.152 93.5281 33.2647 94.1175 33.49C94.7241 33.698 95.2355 34.0013 95.6515 34.4C96.0848 34.7813 96.4141 35.2493 96.6395 35.804C96.8648 36.3413 96.9775 36.948 96.9775 37.624C96.9775 38.04 96.9081 38.4387 96.7695 38.82C96.6481 39.184 96.4835 39.5307 96.2755 39.86C96.0675 40.172 95.8248 40.4667 95.5475 40.744C95.2875 41.004 95.0275 41.2293 94.7675 41.42V41.524C95.1488 41.732 95.5128 41.9747 95.8595 42.252C96.2061 42.512 96.5095 42.8153 96.7695 43.162C97.0295 43.5087 97.2375 43.8987 97.3935 44.332C97.5495 44.7653 97.6275 45.2593 97.6275 45.814C97.6275 46.4553 97.4888 47.0533 97.2115 47.608C96.9515 48.1453 96.5788 48.622 96.0935 49.038C95.6081 49.4367 95.0188 49.7487 94.3255 49.974C93.6321 50.1993 92.8695 50.312 92.0375 50.312ZM93.1295 40.666C93.5801 40.2153 93.9181 39.756 94.1435 39.288C94.3861 38.82 94.5075 38.326 94.5075 37.806C94.5075 37.078 94.2908 36.48 93.8575 36.012C93.4415 35.5267 92.8435 35.284 92.0635 35.284C91.4221 35.284 90.8848 35.4833 90.4515 35.882C90.0181 36.2633 89.8015 36.818 89.8015 37.546C89.8015 37.962 89.8881 38.326 90.0615 38.638C90.2348 38.95 90.4688 39.2273 90.7635 39.47C91.0755 39.6953 91.4308 39.912 91.8295 40.12C92.2281 40.3107 92.6615 40.4927 93.1295 40.666ZM92.0895 48.18C92.8868 48.18 93.5368 47.9633 94.0395 47.53C94.5595 47.0967 94.8195 46.49 94.8195 45.71C94.8195 45.2593 94.7155 44.878 94.5075 44.566C94.2995 44.2367 94.0135 43.9507 93.6495 43.708C93.3028 43.448 92.8868 43.214 92.4015 43.006C91.9161 42.798 91.3961 42.5813 90.8415 42.356C90.3215 42.7373 89.8881 43.188 89.5415 43.708C89.2121 44.228 89.0475 44.8087 89.0475 45.45C89.0475 46.282 89.3421 46.9493 89.9315 47.452C90.5208 47.9373 91.2401 48.18 92.0895 48.18Z" fill="#3366FF"/>
<path d="M56.718 45.016L55.392 44.054L56.9 41.506L54.248 40.336L54.742 38.776L57.576 39.426L57.862 36.488H59.5L59.786 39.426L62.646 38.776L63.14 40.336L60.462 41.506L61.97 44.054L60.644 45.016L58.694 42.754L56.718 45.016ZM73.1184 45.016L71.7924 44.054L73.3004 41.506L70.6484 40.336L71.1424 38.776L73.9764 39.426L74.2624 36.488H75.9004L76.1864 39.426L79.0464 38.776L79.5404 40.336L76.8624 41.506L78.3704 44.054L77.0444 45.016L75.0944 42.754L73.1184 45.016Z" fill="#3366FF"/>
</g>
<defs>
<linearGradient id="paint0_linear" x1="6" y1="0" x2="67" y2="80.5" gradientUnits="userSpaceOnUse">
<stop stop-color="white"/>
<stop offset="1" stop-color="#E8EFEE"/>
</linearGradient>
<linearGradient id="paint1_linear" x1="128.5" y1="105.127" x2="-0.261952" y2="115.493" gradientUnits="userSpaceOnUse">
<stop stop-color="#C2CECE" stop-opacity="0"/>
<stop offset="0.179" stop-color="#AFBCBC" stop-opacity="0.179"/>
<stop offset="1" stop-color="#5B6A6A"/>
</linearGradient>
<linearGradient id="paint2_linear" x1="66" y1="63.5" x2="66.4109" y2="127.841" gradientUnits="userSpaceOnUse">
<stop stop-color="#E5ECFF"/>
<stop offset="1" stop-color="#9EB7FF"/>
</linearGradient>
<linearGradient id="paint3_linear" x1="67" y1="78.9998" x2="66.7635" y2="132.952" gradientUnits="userSpaceOnUse">
<stop stop-color="#EBF0FF"/>
<stop offset="1" stop-color="#9EB7FF"/>
</linearGradient>
<linearGradient id="paint4_linear" x1="35.5635" y1="26.3732" x2="-57.8443" y2="-67.0318" gradientUnits="userSpaceOnUse">
<stop stop-color="#C2CECE" stop-opacity="0"/>
<stop offset="0.179" stop-color="#AFBCBC" stop-opacity="0.179"/>
<stop offset="1" stop-color="#5B6A6A"/>
</linearGradient>
<clipPath id="clip0">
<rect width="133" height="133" fill="white"/>
</clipPath>
</defs>
</svg>
