<svg width="40" height="40" viewBox="0 0 40 40" fill="none" xmlns="http://www.w3.org/2000/svg">
<path d="M20 23C20.81 23 21.5 22.7 22.11 22.11C22.7 21.5 23 20.81 23 20C23 19.19 22.7 18.5 22.11 17.89C21.5 17.3 20.81 17 20 17C19.19 17 18.5 17.3 17.89 17.89C17.3 18.5 17 19.19 17 20C17 20.81 17.3 21.5 17.89 22.11C18.5 22.7 19.19 23 20 23ZM20 10C22.75 10 25.1 11 27.05 12.95C29 14.9 30 17.25 30 20V21.45C30 22.45 29.65 23.3 29 24C28.3 24.67 27.5 25 26.5 25C25.3 25 24.31 24.5 23.56 23.5C22.56 24.5 21.38 25 20 25C18.63 25 17.45 24.5 16.46 23.54C15.5 22.55 15 21.38 15 20C15 18.63 15.5 17.45 16.46 16.46C17.45 15.5 18.63 15 20 15C21.38 15 22.55 15.5 23.54 16.46C24.5 17.45 25 18.63 25 20V21.45C25 21.86 25.16 22.22 25.46 22.53C25.76 22.84 26.11 23 26.5 23C26.92 23 27.27 22.84 27.57 22.53C27.87 22.22 28 21.86 28 21.45V20C28 17.81 27.23 15.93 25.65 14.35C24.07 12.77 22.19 12 20 12C17.81 12 15.93 12.77 14.35 14.35C12.77 15.93 12 17.81 12 20C12 22.19 12.77 24.07 14.35 25.65C15.93 27.23 17.81 28 20 28H25V30H20C17.25 30 14.9 29 12.95 27.05C11 25.1 10 22.75 10 20C10 17.25 11 14.9 12.95 12.95C14.9 11 17.25 10 20 10Z" fill="#253C5E"/>
</svg>
