<svg width="40" height="40" viewBox="0 0 40 40" fill="none" xmlns="http://www.w3.org/2000/svg">
<path d="M22 10C21.7348 10 21.4804 10.1054 21.2929 10.2929C21.1054 10.4804 21 10.7348 21 11V14H17C15.89 14 15 14.89 15 16V28C15 29.11 15.89 30 17 30H22C23.11 30 24 29.11 24 28V16C24 15.26 23.6 14.62 23 14.28V11C23 10.7348 22.8946 10.4804 22.7071 10.2929C22.5196 10.1054 22.2652 10 22 10ZM17 16H22V21H17V16ZM17 23H18V24H17V23ZM19 23H20V24H19V23ZM21 23H22V24H21V23ZM17 25H18V26H17V25ZM19 25H20V26H19V25ZM21 25H22V26H21V25ZM17 27H18V28H17V27ZM19 27H20V28H19V27ZM21 27H22V28H21V27Z" fill="#253C5E"/>
</svg>
