<svg width="15" height="19" viewBox="0 0 15 19" fill="none" xmlns="http://www.w3.org/2000/svg">
<path d="M14.73 2.3475L12.96 0.36C12.765 0.1275 12.4725 0 12.165 0H1.065C0.48 0 0 0.48 0 1.065V17.1C0 17.685 0.48 18.165 1.065 18.165H15V3.0525C15 2.79 14.9025 2.5425 14.73 2.3475ZM3.33 4.0575H6.7875C7.08 4.0575 7.32 4.2975 7.32 4.59C7.32 4.8825 7.08 5.1225 6.7875 5.1225H3.33C3.0375 5.1225 2.7975 4.8825 2.7975 4.59C2.7975 4.2975 3.0375 4.0575 3.33 4.0575ZM11.28 14.61H3.33C3.0375 14.61 2.7975 14.37 2.7975 14.0775C2.7975 13.785 3.0375 13.545 3.33 13.545H11.28C11.5725 13.545 11.8125 13.785 11.8125 14.0775C11.8125 14.37 11.5725 14.61 11.28 14.61ZM11.28 12.3975H3.33C3.0375 12.3975 2.7975 12.1575 2.7975 11.865C2.7975 11.5725 3.0375 11.3325 3.33 11.3325H11.28C11.5725 11.3325 11.8125 11.5725 11.8125 11.865C11.8125 12.1575 11.5725 12.3975 11.28 12.3975ZM11.28 10.1775H3.33C3.0375 10.1775 2.7975 9.9375 2.7975 9.645C2.7975 9.3525 3.0375 9.1125 3.33 9.1125H11.28C11.5725 9.1125 11.8125 9.3525 11.8125 9.645C11.8125 9.945 11.5725 10.1775 11.28 10.1775Z" fill="#72839C"/>
</svg>
