<svg width="20" height="20" viewBox="0 0 20 20" fill="none" xmlns="http://www.w3.org/2000/svg">
<path d="M15.7632 16.7292H6.1955C5.15704 16.7292 4.31242 15.8846 4.31242 14.8461V2.88307C4.29858 1.84461 5.14319 1 6.1955 1H15.7632C16.8016 1 17.6463 1.84461 17.6463 2.88307V14.8461C17.6463 15.8846 16.8016 16.7292 15.7632 16.7292ZM6.1955 2.38461C5.91858 2.38461 5.69704 2.60615 5.69704 2.88307V14.8461C5.69704 15.1231 5.91858 15.3446 6.1955 15.3446H15.7632C16.0401 15.3446 16.2616 15.1231 16.2616 14.8461V2.88307C16.2616 2.60615 16.0401 2.38461 15.7632 2.38461H6.1955Z" fill="#8F989D"/>
<path d="M13.4508 19H3.88307C2.84461 19 2 18.1554 2 17.117V5.15389C2 4.11543 2.84461 3.27081 3.88307 3.27081H4.54769C4.93538 3.27081 5.24 3.57543 5.24 3.96312C5.24 4.35081 4.93538 4.65543 4.54769 4.65543H3.88307C3.60615 4.65543 3.38461 4.87697 3.38461 5.15389V17.117C3.38461 17.3939 3.60615 17.6154 3.88307 17.6154H13.4508C13.7277 17.6154 13.9492 17.3939 13.9492 17.117V16.3139C13.9492 15.9262 14.2538 15.6216 14.6415 15.6216C15.0292 15.6216 15.3338 15.9262 15.3338 16.3139V17.117C15.3477 18.1554 14.5031 19 13.4508 19Z" fill="#8F989D"/>
<path d="M14.3092 5.12613H7.55229C7.1646 5.12613 6.85999 4.82151 6.85999 4.43382C6.85999 4.04613 7.1646 3.74152 7.55229 3.74152H14.3092C14.6969 3.74152 15.0015 4.04613 15.0015 4.43382C15.0015 4.82151 14.6831 5.12613 14.3092 5.12613Z" fill="#8F989D"/>
<path d="M14.3092 7.86771H7.55229C7.1646 7.86771 6.85999 7.56309 6.85999 7.1754C6.85999 6.78771 7.1646 6.48309 7.55229 6.48309H14.3092C14.6969 6.48309 15.0015 6.78771 15.0015 7.1754C15.0015 7.56309 14.6831 7.86771 14.3092 7.86771Z" fill="#8F989D"/>
<path d="M14.3092 10.6092H7.55229C7.1646 10.6092 6.85999 10.3046 6.85999 9.91692C6.85999 9.52922 7.1646 9.22461 7.55229 9.22461H14.3092C14.6969 9.22461 15.0015 9.52922 15.0015 9.91692C15.0015 10.3046 14.6831 10.6092 14.3092 10.6092Z" fill="#8F989D"/>
</svg>
