<svg width="20" height="20" viewBox="0 0 20 20" fill="none" xmlns="http://www.w3.org/2000/svg">
<path d="M15.125 19H3.875C2.825 19 2 17.95 2 16.6V3.4C2 2.05 2.825 1 3.875 1H15.125C16.175 1 17 2.05 17 3.4V16.6C17 17.95 16.175 19 15.125 19ZM3.875 2.5C3.785 2.5 3.5 2.815 3.5 3.4V16.6C3.5 17.185 3.785 17.5 3.875 17.5H15.125C15.215 17.5 15.5 17.185 15.5 16.6V3.4C15.5 2.815 15.215 2.5 15.125 2.5H3.875Z" fill="#8F989D"/>
<path d="M9.50001 14.725C7.23501 14.725 5.39001 12.88 5.39001 10.615C5.39001 10.195 5.72001 9.86499 6.14001 9.86499C6.56001 9.86499 6.89001 10.195 6.89001 10.615C6.89001 12.055 8.06001 13.225 9.50001 13.225C10.94 13.225 12.11 12.055 12.11 10.615C12.11 10.195 12.44 9.86499 12.86 9.86499C13.28 9.86499 13.61 10.195 13.61 10.615C13.61 12.88 11.765 14.725 9.50001 14.725Z" fill="#8F989D"/>
<path d="M16.25 11.365H12.86C12.44 11.365 12.11 11.035 12.11 10.615C12.11 10.195 12.44 9.86499 12.86 9.86499H16.25C16.67 9.86499 17 10.195 17 10.615C17 11.035 16.67 11.365 16.25 11.365Z" fill="#8F989D"/>
<path d="M6.14 11.365H2.75C2.33 11.365 2 11.035 2 10.615C2 10.195 2.33 9.86499 2.75 9.86499H6.14C6.56 9.86499 6.89 10.195 6.89 10.615C6.89 11.035 6.56 11.365 6.14 11.365Z" fill="#8F989D"/>
</svg>
