<svg width="20" height="20" viewBox="0 0 20 20" fill="none" xmlns="http://www.w3.org/2000/svg">
<path d="M16.8093 17.0245H3.17439C1.98093 17.0245 1 16.1417 1 15.0627V3.96185C1 2.85014 1.6376 2 2.47139 2H8.9455C9.77929 2 10.4005 2.83379 10.4169 3.9455H16.8256C18.0191 3.9455 19 4.82834 19 5.90736V15.0627C18.9837 16.1417 18.0027 17.0245 16.8093 17.0245ZM2.68392 3.63488C2.66757 3.70027 2.63488 3.81471 2.63488 3.96185V15.0627C2.63488 15.1935 2.84741 15.3896 3.17439 15.3896H16.7929C17.1199 15.3896 17.3324 15.1935 17.3324 15.0627V5.90736C17.3324 5.77657 17.1199 5.58038 16.7929 5.58038H8.76567V3.96185C8.76567 3.81471 8.73297 3.70027 8.71662 3.63488H2.68392Z" fill="#8F989D"/>
</svg>
