<svg width="20" height="20" viewBox="0 0 20 20" fill="none" xmlns="http://www.w3.org/2000/svg">
<path d="M16.8183 18.7507H3.17563C1.98149 18.7507 1 17.7365 1 16.4933V4.94443C1 4.4864 1.35988 4.12653 1.81791 4.12653C2.27593 4.12653 2.63581 4.4864 2.63581 4.94443V16.4933C2.63581 16.8368 2.88119 17.1149 3.17563 17.1149H16.802C17.1128 17.1149 17.3581 16.8368 17.3581 16.4933V4.94443C17.3581 4.4864 17.718 4.12653 18.176 4.12653C18.6341 4.12653 18.9939 4.4864 18.9939 4.94443V16.4933C18.9939 17.7365 18.0125 18.7507 16.8183 18.7507Z" fill="#8F989D"/>
<path d="M9.88239 13.009C9.53887 13.009 9.17899 12.9435 8.85183 12.8127L1.62153 9.94999C1.21258 9.78641 0.999925 9.31202 1.16351 8.90307C1.32709 8.47776 1.80147 8.28146 2.22678 8.44504L9.45708 11.3077C9.73517 11.4222 10.0296 11.4222 10.3077 11.3077L17.767 8.44504C18.1923 8.28146 18.6667 8.49412 18.8303 8.91943C18.9939 9.34474 18.7812 9.81912 18.3559 9.9827L10.8966 12.829C10.5694 12.9599 10.2259 13.009 9.88239 13.009Z" fill="#8F989D"/>
<path d="M1.81791 5.68052C1.49074 5.68052 1.17994 5.48422 1.06543 5.15706C0.885492 4.74811 1.09815 4.27372 1.52346 4.11014L8.8519 1.19839C9.50623 0.936662 10.2423 0.936662 10.8967 1.18203L18.4705 4.09378C18.8958 4.25736 19.1085 4.73175 18.9449 5.15706C18.7813 5.58237 18.3069 5.77867 17.8816 5.63145L10.3078 2.7197C10.0297 2.60519 9.73524 2.62155 9.45715 2.7197L2.11235 5.63145C2.0142 5.66416 1.91605 5.68052 1.81791 5.68052Z" fill="#8F989D"/>
</svg>
