<svg width="20" height="20" viewBox="0 0 20 20" fill="none" xmlns="http://www.w3.org/2000/svg">
<path d="M11 9H9V15H11V9Z" fill="#72839C"/>
<path d="M9.99998 0C4.47501 0 0 4.47502 0 10C0 15.525 4.47501 20 9.99998 20C15.5249 20 20 15.525 20 10C20 4.47498 15.525 0 9.99998 0ZM9.99998 18C5.58998 18 1.99997 14.41 1.99997 10C1.99997 5.58999 5.58998 2.00002 9.99998 2.00002C14.41 2.00002 18 5.58999 18 10C18 14.41 14.41 18 9.99998 18Z" fill="#72839C"/>
<path d="M11 4.99997H9V7.00002H11V4.99997Z" fill="#72839C"/>
</svg>
