<svg width="20" height="20" viewBox="0 0 20 20" fill="none" xmlns="http://www.w3.org/2000/svg">
<path d="M9.99993 14.7399C10.4556 14.7399 10.8249 14.3705 10.8249 13.9149C10.8249 13.4593 10.4556 13.0899 9.99993 13.0899C9.54429 13.0899 9.17493 13.4593 9.17493 13.9149C9.17493 14.3705 9.54429 14.7399 9.99993 14.7399Z" fill="#8F989D"/>
<path d="M10 11.8899C9.58 11.8899 9.25 11.5599 9.25 11.1399V5.25995C9.25 4.83995 9.58 4.50995 10 4.50995C10.42 4.50995 10.75 4.83995 10.75 5.25995V11.1399C10.75 11.5449 10.42 11.8899 10 11.8899Z" fill="#8F989D"/>
<path d="M10 19C9.07 19 8.44 18.265 7.915 17.68C7.645 17.38 7.345 17.02 7.135 16.945C6.895 16.84 6.415 16.87 5.995 16.9C5.185 16.945 4.27 17.005 3.64 16.375C3.01 15.745 3.07 14.815 3.115 14.005C3.145 13.585 3.175 13.105 3.07 12.865C2.98 12.655 2.635 12.355 2.32 12.085C1.735 11.56 1 10.93 1 10C1 9.07 1.735 8.44 2.32 7.915C2.62 7.645 2.98 7.345 3.055 7.135C3.16 6.895 3.13 6.415 3.1 5.995C3.07 5.185 3.01 4.27 3.64 3.64C4.27 3.01 5.185 3.07 5.995 3.115C6.415 3.145 6.895 3.175 7.135 3.07C7.345 2.98 7.66 2.635 7.915 2.335C8.44 1.735 9.07 1 10 1C10.93 1 11.56 1.735 12.085 2.32C12.355 2.62 12.655 2.98 12.865 3.055C13.105 3.16 13.585 3.13 14.005 3.1C14.815 3.055 15.73 2.995 16.36 3.625C16.99 4.255 16.93 5.17 16.885 5.98C16.855 6.4 16.825 6.88 16.93 7.12C17.02 7.33 17.365 7.645 17.665 7.9C18.265 8.44 19 9.07 19 10C19 10.93 18.265 11.56 17.68 12.085C17.38 12.355 17.02 12.655 16.945 12.865C16.84 13.105 16.87 13.585 16.9 14.005C16.945 14.815 17.005 15.73 16.375 16.36C15.745 16.99 14.83 16.93 14.02 16.885C13.6 16.855 13.12 16.825 12.88 16.93C12.67 17.02 12.355 17.365 12.1 17.665C11.56 18.265 10.93 19 10 19ZM6.595 15.355C6.985 15.355 7.36 15.4 7.705 15.535C8.245 15.76 8.65 16.225 9.04 16.675C9.34 17.035 9.76 17.5 10 17.5C10.24 17.5 10.66 17.035 10.96 16.69C11.35 16.24 11.755 15.775 12.295 15.55C12.85 15.325 13.495 15.355 14.095 15.4C14.515 15.43 15.145 15.46 15.295 15.31C15.445 15.16 15.4 14.53 15.385 14.11C15.355 13.495 15.31 12.85 15.55 12.295C15.775 11.755 16.24 11.35 16.69 10.96C17.035 10.66 17.5 10.24 17.5 10C17.5 9.76 17.035 9.34 16.69 9.04C16.24 8.65 15.775 8.245 15.55 7.705C15.325 7.15 15.355 6.52 15.4 5.905C15.43 5.485 15.46 4.855 15.31 4.705C15.16 4.555 14.53 4.6 14.11 4.615C13.495 4.645 12.85 4.69 12.295 4.45C11.755 4.225 11.35 3.76 10.96 3.31C10.66 2.965 10.24 2.5 10 2.5C9.76 2.5 9.34 2.965 9.04 3.31C8.65 3.76 8.245 4.225 7.705 4.45C7.15 4.675 6.52 4.645 5.905 4.6C5.485 4.57 4.855 4.54 4.705 4.69C4.555 4.84 4.6 5.47 4.615 5.89C4.66 6.505 4.69 7.135 4.465 7.69C4.225 8.245 3.76 8.65 3.31 9.04C2.965 9.34 2.5 9.76 2.5 10C2.5 10.24 2.965 10.66 3.31 10.96C3.76 11.35 4.225 11.755 4.45 12.295C4.675 12.85 4.645 13.48 4.6 14.095C4.57 14.515 4.54 15.145 4.69 15.295C4.84 15.445 5.47 15.4 5.89 15.385C6.13 15.37 6.355 15.355 6.595 15.355Z" fill="#8F989D"/>
</svg>
