<svg width="16" height="18" viewBox="0 0 16 18" fill="none" xmlns="http://www.w3.org/2000/svg">
<path d="M9.77778 16C9.77778 16.4715 9.59048 16.9237 9.25708 17.2571C8.92368 17.5905 8.4715 17.7778 8 17.7778C7.5285 17.7778 7.07632 17.5905 6.74292 17.2571C6.40952 16.9237 6.22222 16.4715 6.22222 16H9.77778ZM8 0C8.23575 0 8.46184 0.0936505 8.62854 0.26035C8.79524 0.427049 8.88889 0.653141 8.88889 0.888889V1.84889C11.4133 2.27556 13.3333 4.47111 13.3333 7.11111V12.4444L16 15.1111H0L2.66667 12.4444V7.11111C2.66667 4.47111 4.58667 2.27556 7.11111 1.84889V0.888889C7.11111 0.653141 7.20476 0.427049 7.37146 0.26035C7.53816 0.0936505 7.76425 0 8 0Z" fill="#72839C"/>
</svg>
