<svg width="100" height="100" viewBox="0 0 100 100" fill="none" xmlns="http://www.w3.org/2000/svg">
<path d="M50 0C22.3843 0 0 22.3843 0 50C0 77.6157 22.3843 100 50 100C77.6157 100 100 77.6157 100 50C100 22.3843 77.6119 0 50 0Z" fill="#B9CDFF"/>
<path d="M32.9851 30.8582H67.0112C67.8396 30.8582 68.5075 30.2612 68.5075 29.5261C68.5075 28.791 67.8358 28.1903 67.0112 28.1903H32.9851C32.1567 28.1903 31.4888 28.7873 31.4888 29.5261C31.4888 30.2612 32.1605 30.8582 32.9851 30.8582Z" fill="white"/>
<path d="M32.9851 37.0485H67.0112C67.8396 37.0485 68.5075 36.4515 68.5075 35.7164C68.5075 34.9813 67.8358 34.3806 67.0112 34.3806H32.9851C32.1567 34.3806 31.4888 34.9776 31.4888 35.7164C31.4888 36.4515 32.1605 37.0485 32.9851 37.0485Z" fill="white"/>
<path d="M32.9851 43.2425H67.0112C67.8396 43.2425 68.5075 42.6455 68.5075 41.9104C68.5075 41.1754 67.8358 40.5746 67.0112 40.5746H32.9851C32.1567 40.5746 31.4888 41.1716 31.4888 41.9104C31.4888 42.6455 32.1605 43.2425 32.9851 43.2425Z" fill="white"/>
<path d="M32.9851 49.4328H67.0112C67.8396 49.4328 68.5075 48.8358 68.5075 48.1007C68.5075 47.3619 67.8358 46.7649 67.0112 46.7649H32.9851C32.1567 46.7649 31.4888 47.3619 31.4888 48.1007C31.4888 48.8358 32.1605 49.4328 32.9851 49.4328Z" fill="white"/>
<path d="M32.9851 55.9142H52.7538C53.5821 55.9142 54.25 55.3172 54.25 54.5821C54.25 53.8433 53.5784 53.2463 52.7538 53.2463H32.9851C32.1567 53.2463 31.4888 53.8433 31.4888 54.5821C31.4888 55.3172 32.1605 55.9142 32.9851 55.9142Z" fill="white"/>
<path d="M76.6754 22.8769C76.6754 20.4216 74.6866 18.4328 72.2276 18.4328H27.7687C25.3135 18.4328 23.3209 20.4216 23.3209 22.8769V77.1194C23.3209 79.5746 25.3097 81.5634 27.7687 81.5634H72.2314C74.6866 81.5634 76.6791 79.5746 76.6791 77.1194V68.9179H73.6828V77.1231C73.6828 77.9254 73.0299 78.5746 72.2314 78.5746H27.7687C26.9702 78.5746 26.3172 77.9254 26.3172 77.1231V22.8769C26.3172 22.0746 26.9664 21.4254 27.7687 21.4254H72.2314C73.0336 21.4254 73.6828 22.0746 73.6828 22.8769V60.1306H76.6791V22.8769H76.6754Z" fill="white"/>
<path d="M75.9963 63.2798H68.9179V53.2388H60.5411V63.2798H53.4627L64.7314 74.5L75.9963 63.2798Z" fill="white"/>
</svg>
