<svg width="18" height="22" viewBox="0 0 18 22" fill="none" xmlns="http://www.w3.org/2000/svg">
<path d="M17.1157 4.71763L12.5324 0.134277C12.4464 0.0483398 12.3301 0 12.2083 0H2.5833C1.57221 0 0.75 0.822207 0.75 1.83335V20.1667C0.75 21.1778 1.57221 22 2.58335 22H15.4167C16.4278 22 17.25 21.1778 17.25 20.1667V5.04165C17.25 4.91992 17.2017 4.80356 17.1157 4.71763ZM12.6667 1.56479L15.6852 4.58335H13.5833C13.078 4.58335 12.6667 4.17201 12.6667 3.6667V1.56479ZM16.3333 20.1667C16.3333 20.672 15.922 21.0833 15.4167 21.0833H2.58335C2.07804 21.0833 1.6667 20.672 1.6667 20.1667V1.83335C1.6667 1.32804 2.07804 0.916695 2.58335 0.916695H11.75V3.6667C11.75 4.67779 12.5722 5.5 13.5833 5.5H16.3333V20.1667Z" fill="#3366FF"/>
<path d="M11.3369 13.455C10.9125 13.121 10.5093 12.7778 10.2407 12.5092C9.8916 12.1601 9.58051 11.8217 9.31019 11.4995C9.73184 10.1965 9.9167 9.5247 9.9167 9.1666C9.9167 7.64525 9.36704 7.33325 8.5417 7.33325C7.91461 7.33325 7.1667 7.65908 7.1667 9.21047C7.1667 9.8944 7.54134 10.7247 8.28388 11.6897C8.10217 12.2442 7.88866 12.8839 7.64876 13.6049C7.53326 13.9509 7.40797 14.2714 7.27545 14.5677C7.1676 14.6156 7.06284 14.6644 6.96169 14.7149C6.59736 14.8971 6.25138 15.0609 5.93044 15.2131C4.4668 15.906 3.5 16.3643 3.5 17.2693C3.5 17.9264 4.21393 18.3332 4.875 18.3332C5.7272 18.3332 7.01403 17.195 7.95397 15.2775C8.9297 14.8926 10.1427 14.6075 11.1001 14.4289C11.8673 15.0188 12.7146 15.5832 13.125 15.5832C14.2614 15.5832 14.5 14.9262 14.5 14.3752C14.5 13.2915 13.2619 13.2915 12.6667 13.2915C12.4818 13.2916 11.9859 13.3462 11.3369 13.455ZM4.875 17.4166C4.61315 17.4166 4.4359 17.293 4.41665 17.2693C4.41665 16.9444 5.38568 16.4852 6.32296 16.0412C6.38247 16.013 6.44293 15.9847 6.50425 15.9556C5.81584 16.9538 5.13505 17.4166 4.875 17.4166ZM8.08335 9.21047C8.08335 8.24995 8.38146 8.24995 8.5417 8.24995C8.86577 8.24995 9.00004 8.24995 9.00004 9.1666C9.00004 9.35996 8.87114 9.84335 8.63524 10.598C8.27533 10.0439 8.08335 9.569 8.08335 9.21047ZM8.4347 14.1367C8.46336 14.057 8.49112 13.9764 8.51798 13.895C8.68805 13.3847 8.84114 12.9264 8.97766 12.5137C9.16788 12.7232 9.37288 12.9376 9.59267 13.1573C9.67861 13.2433 9.89164 13.4366 10.1755 13.6787C9.6105 13.8018 9.00941 13.9545 8.4347 14.1367ZM13.5833 14.3752C13.5833 14.5811 13.5833 14.6666 13.1581 14.6693C13.0333 14.6424 12.7446 14.4724 12.3883 14.2298C12.5176 14.2155 12.6129 14.2083 12.6667 14.2083C13.3439 14.2083 13.5359 14.2745 13.5833 14.3752Z" fill="#3366FF"/>
</svg>
