<svg width="18" height="15" viewBox="0 0 18 15" fill="none" xmlns="http://www.w3.org/2000/svg">
<path d="M11.9029 8.5526C11.9029 10.1549 10.5919 11.4659 8.9896 11.4659C7.38728 11.4659 6.0763 10.1549 6.0763 8.5526C6.0763 6.95029 7.38728 5.63931 8.9896 5.63931C10.5919 5.63931 11.9029 6.95029 11.9029 8.5526ZM18 4.43237V12.6728C18 13.7757 17.1052 14.6705 16.0023 14.6705H1.99769C0.894798 14.6705 0 13.7757 0 12.6728V4.43237C0 3.32948 0.894798 2.43468 1.99769 2.43468H4.45318V1.74798C4.45318 0.790751 5.24393 0 6.20116 0H11.8405C12.7977 0 13.5884 0.769942 13.5884 1.74798V2.43468H16.0231C17.126 2.43468 18 3.32948 18 4.43237ZM13.4012 8.5526C13.4012 6.13873 11.4243 4.16185 9.0104 4.16185C6.59653 4.16185 4.61965 6.13873 4.61965 8.5526C4.61965 10.9665 6.59653 12.9434 9.0104 12.9434C11.4243 12.9434 13.4012 10.9665 13.4012 8.5526Z" fill="#B9B9B9"/>
</svg>
