<svg width="17" height="19" viewBox="0 0 17 19" fill="none" xmlns="http://www.w3.org/2000/svg">
<path d="M13.2222 7.55556H3.77778V5.66667H13.2222V7.55556ZM13.2222 11.3333H3.77778V9.44444H13.2222V11.3333ZM10.3889 15.1111H3.77778V13.2222H10.3889V15.1111ZM8.5 1.88889C8.75048 1.88889 8.9907 1.98839 9.16782 2.16551C9.34494 2.34263 9.44444 2.58285 9.44444 2.83333C9.44444 3.08382 9.34494 3.32404 9.16782 3.50116C8.9907 3.67827 8.75048 3.77778 8.5 3.77778C8.24952 3.77778 8.00929 3.67827 7.83218 3.50116C7.65506 3.32404 7.55556 3.08382 7.55556 2.83333C7.55556 2.58285 7.65506 2.34263 7.83218 2.16551C8.00929 1.98839 8.24952 1.88889 8.5 1.88889ZM15.1111 1.88889H11.1633C10.7667 0.793333 9.72778 0 8.5 0C7.27222 0 6.23333 0.793333 5.83667 1.88889H1.88889C1.38792 1.88889 0.907478 2.0879 0.553243 2.44213C0.199007 2.79637 0 3.27681 0 3.77778V17C0 17.501 0.199007 17.9814 0.553243 18.3356C0.907478 18.6899 1.38792 18.8889 1.88889 18.8889H15.1111C15.6121 18.8889 16.0925 18.6899 16.4468 18.3356C16.801 17.9814 17 17.501 17 17V3.77778C17 3.27681 16.801 2.79637 16.4468 2.44213C16.0925 2.0879 15.6121 1.88889 15.1111 1.88889Z" fill="#72839C"/>
</svg>
