<svg width="18" height="17" viewBox="0 0 18 17" fill="none" xmlns="http://www.w3.org/2000/svg">
<path d="M18 7.36364C18 6.45545 17.2636 5.72727 16.3636 5.72727H11.1927L11.9782 1.98818C11.9945 1.90636 12.0027 1.81636 12.0027 1.72636C12.0027 1.39091 11.8636 1.08 11.6427 0.859091L10.7755 0L5.39182 5.38364C5.08909 5.68636 4.90909 6.09545 4.90909 6.54545V14.7273C4.90909 15.1613 5.08149 15.5775 5.38837 15.8844C5.69525 16.1912 6.11146 16.3636 6.54545 16.3636H13.9091C14.5882 16.3636 15.1691 15.9545 15.4145 15.3655L17.8855 9.59727C17.9591 9.40909 18 9.21273 18 9V7.36364ZM0 16.3636H3.27273V6.54545H0V16.3636Z" fill="#B9B9B9"/>
</svg>
