<svg width="18" height="18" viewBox="0 0 18 18" fill="none" xmlns="http://www.w3.org/2000/svg">
<path d="M3.85714 5.05714L2.03143 3.24L3.24 2.03143L5.05714 3.85714L3.85714 5.05714ZM9.85714 0V2.57143H8.14286V0H9.85714ZM15.9686 3.24L14.1429 5.05714L12.9429 3.85714L14.76 2.03143L15.9686 3.24ZM2.57143 8.14286V9.85714H0V8.14286H2.57143ZM15.4286 8.14286H18V9.85714H15.4286V8.14286ZM3.85714 16.2857H14.1429C14.5975 16.2857 15.0335 16.4663 15.355 16.7878C15.6765 17.1093 15.8571 17.5453 15.8571 18H2.14286C2.14286 17.5453 2.32347 17.1093 2.64496 16.7878C2.96645 16.4663 3.40249 16.2857 3.85714 16.2857ZM9 3.42857C10.364 3.42857 11.6721 3.97041 12.6365 4.93488C13.601 5.89935 14.1429 7.20746 14.1429 8.57143V15.4286H3.85714V8.57143C3.85714 7.20746 4.39898 5.89935 5.36345 4.93488C6.32792 3.97041 7.63603 3.42857 9 3.42857Z" fill="#72839C"/>
</svg>
