<svg width="20" height="20" viewBox="0 0 20 20" fill="none" xmlns="http://www.w3.org/2000/svg">
<path d="M14.9951 18.92H5.00513C4.58513 18.92 4.25513 18.59 4.25513 18.17C4.25513 17.75 4.58513 17.42 5.00513 17.42H15.0101C15.4301 17.42 15.7601 17.75 15.7601 18.17C15.7601 18.59 15.4151 18.92 14.9951 18.92Z" fill="#8F989D"/>
<path d="M15.7451 16.325H4.25513V11C4.25513 7.835 6.83513 5.255 10.0001 5.255C13.1651 5.255 15.7451 7.835 15.7451 11V16.325ZM5.75513 14.825H14.2601V11C14.2601 8.66 12.3551 6.755 10.0151 6.755C7.66013 6.755 5.75513 8.66 5.75513 11V14.825Z" fill="#8F989D"/>
<path d="M9.96997 4.73C9.54997 4.73 9.21997 4.4 9.21997 3.98V2.75C9.21997 2.33 9.54997 2 9.96997 2C10.39 2 10.72 2.33 10.72 2.75V3.98C10.72 4.4 10.39 4.73 9.96997 4.73Z" fill="#8F989D"/>
<path d="M5.51502 6.22997C5.32002 6.22997 5.12502 6.15497 4.99002 6.00497L4.12002 5.13497C3.82002 4.83497 3.82002 4.36997 4.12002 4.06997C4.42002 3.76997 4.88502 3.76997 5.18502 4.06997L6.05502 4.93997C6.35502 5.23997 6.35502 5.70497 6.05502 6.00497C5.90502 6.15497 5.71002 6.22997 5.51502 6.22997Z" fill="#8F989D"/>
<path d="M2.98 10.07H1.75C1.33 10.07 1 9.74001 1 9.32001C1 8.90001 1.33 8.57001 1.75 8.57001H2.98C3.4 8.57001 3.73 8.90001 3.73 9.32001C3.73 9.74001 3.4 10.07 2.98 10.07Z" fill="#8F989D"/>
<path d="M14.485 6.22997C14.29 6.22997 14.095 6.15497 13.96 6.00497C13.66 5.70497 13.66 5.23997 13.96 4.93997L14.83 4.06997C15.13 3.76997 15.595 3.76997 15.895 4.06997C16.195 4.36997 16.195 4.83497 15.895 5.13497L15.01 6.00497C14.86 6.15497 14.665 6.22997 14.485 6.22997Z" fill="#8F989D"/>
<path d="M18.25 10.07H17.02C16.6 10.07 16.27 9.74001 16.27 9.32001C16.27 8.90001 16.6 8.57001 17.02 8.57001H18.25C18.67 8.57001 19 8.90001 19 9.32001C19 9.74001 18.67 10.07 18.25 10.07Z" fill="#8F989D"/>
</svg>
