<svg width="20" height="20" viewBox="0 0 20 20" fill="none" xmlns="http://www.w3.org/2000/svg">
<path d="M3 6.76447V8.35113C7.76 8.35113 11.6333 12.2245 11.6333 16.9845H13.22C13.2356 11.3534 8.64667 6.76447 3 6.76447Z" fill="#8F989D"/>
<path d="M3 3V4.58667C9.84444 4.58667 15.4133 10.1556 15.4133 17H17C17 9.28444 10.7156 3 3 3Z" fill="#8F989D"/>
<path d="M3 14.3089V15.8956C3.60667 15.8956 4.10444 16.3933 4.10444 17H5.69111C5.69111 15.5222 4.47778 14.3089 3 14.3089Z" fill="#8F989D"/>
<path d="M3 10.5444V12.1311C5.69111 12.1311 7.86889 14.3089 7.86889 17H9.45556C9.45556 13.4378 6.56222 10.5444 3 10.5444Z" fill="#8F989D"/>
</svg>
