<?xml version="1.0" encoding="utf-8"?>
<!-- Generator: Adobe Illustrator 24.3.0, SVG Export Plug-In . SVG Version: 6.00 Build 0)  -->
<svg version="1.1" id="Layer_1" xmlns="http://www.w3.org/2000/svg" xmlns:xlink="http://www.w3.org/1999/xlink" x="0px" y="0px"
	 viewBox="0 0 31.18 31.18" style="enable-background:new 0 0 31.18 31.18;" xml:space="preserve">
<style type="text/css">
	.st0{opacity:0.36;fill:#8F989D;}
	.st1{fill:none;stroke:#8F989D;strokeWidth:1.5;strokeLinecap:round;strokeMiterlimit:10;}
	.st2{fill:#8F989D;}
	.st3{fill:#72839C;}
</style>
<path class="st3" d="M7.85,20.32c0.8,0,1.57,0.32,2.13,0.88c0.57,0.57,0.88,1.33,0.88,2.13c0,1.63-1.35,3.01-3.01,3.01
	c-1.63,0-3.01-1.38-3.01-3.01c0-0.8,0.32-1.57,0.88-2.13C6.28,20.64,7.05,20.32,7.85,20.32z M4.84,4.84c5.71,0,11.18,2.27,15.21,6.3
	c4.03,4.03,6.3,9.51,6.3,15.21h-3.91c0-2.31-0.46-4.6-1.34-6.73c-0.88-2.14-2.18-4.08-3.81-5.71s-3.57-2.93-5.71-3.81
	C9.43,9.2,7.15,8.75,4.84,8.75V4.84z M4.84,12.66c3.63,0,7.11,1.44,9.68,4.01c2.57,2.57,4.01,6.05,4.01,9.68h-3.91
	c0-2.59-1.03-5.08-2.86-6.91c-1.83-1.83-4.32-2.86-6.91-2.86V12.66z"/>
</svg>
