<svg width="18" height="13" viewBox="0 0 18 13" fill="none" xmlns="http://www.w3.org/2000/svg">
<path d="M17.6229 1.9728C17.4146 1.20169 16.8068 0.593809 16.0356 0.385553C14.6285 0 8.99437 0 8.99437 0C8.99437 0 3.36304 0 1.9531 0.371482C1.19606 0.579737 0.574109 1.20169 0.365854 1.9728C0 3.37992 0 6.30113 0 6.30113C0 6.30113 0 9.2364 0.371482 10.6295C0.579737 11.4006 1.18762 12.0084 1.95872 12.2167C3.38274 12.6023 9 12.6023 9 12.6023C9 12.6023 14.6313 12.6023 16.0413 12.2308C16.8124 12.0225 17.4203 11.4146 17.6285 10.6435C18 9.2364 18 6.3152 18 6.3152C18 6.3152 18.0084 3.37992 17.6229 1.9728ZM7.20169 8.99719V3.60225L11.8874 6.30113L7.20169 8.99719Z" fill="#B9B9B9"/>
</svg>
