<svg width="74" height="74" viewBox="0 0 74 74" fill="none" xmlns="http://www.w3.org/2000/svg">
<circle cx="36.5067" cy="36.5067" r="36.5067" fill="white"/>
<path d="M36.185 60.7448C35.8889 60.9813 35.7459 60.8168 35.6898 60.6419C35.6591 60.5597 35.6489 60.4723 35.6438 60.39C35.6132 60.0352 35.5774 59.6907 35.5672 59.3359C35.5621 59.1251 35.5927 58.9092 35.6183 58.6984C35.6642 58.3847 35.7153 58.0762 35.7663 57.7625C35.8327 57.3821 35.9042 57.0016 35.9604 56.6159C36.0625 55.9218 36.1493 55.2225 36.2463 54.5335C36.2718 54.3433 36.282 54.1427 36.4301 54.0039C36.665 54.0296 36.8386 54.2044 36.859 54.4461C36.8743 54.5952 36.859 54.7495 36.8283 54.8986C36.7722 55.1505 36.7722 55.3922 36.8692 55.639C36.8998 55.711 36.9151 55.7881 36.9458 55.8601C37.15 56.3743 37.0275 56.8319 36.7211 57.2587C36.5782 57.454 36.4454 57.6546 36.3995 57.9065C36.3944 57.9014 36.2463 60.6934 36.185 60.7448Z" fill="#4C6BB0"/>
<path d="M36.1391 51.3706C36.1902 51.2472 36.2259 51.1187 36.2923 51.0004C36.4965 50.6405 36.5425 50.2446 36.5629 49.8435C36.5731 49.6636 36.4863 49.5247 36.3178 49.4579C36.2565 49.4322 36.2004 49.4116 36.1391 49.391C35.7613 49.2779 35.6898 49.0723 35.9042 48.7329C36.1646 48.3267 36.4199 47.9256 36.6803 47.5246C36.762 47.4012 37.0479 47.2726 37.0479 47.3343C37.053 47.5914 37.1654 47.7611 37.3951 47.8742C37.6198 47.9873 37.6606 48.0953 37.6249 48.3473C37.6147 48.409 37.6045 48.4758 37.5841 48.5375C37.4309 49.0825 37.293 49.6276 37.1143 50.1623C37.0173 50.4605 36.8743 50.7433 36.7161 51.021C36.6344 51.1598 36.4863 51.2678 36.3587 51.3706C36.3178 51.4066 36.2361 51.3963 36.1748 51.4118C36.1646 51.3963 36.1544 51.3809 36.1391 51.3706Z" fill="#4C6BB0"/>
<path d="M38.447 53.0634C38.4112 53.1816 38.3806 53.3153 38.2427 53.341C38.0998 53.3667 37.9925 53.2639 37.9415 53.1456C37.8598 52.94 37.7883 52.7291 37.7526 52.5183C37.7168 52.2921 37.7321 52.0607 37.7219 51.8345C37.7219 51.783 37.7219 51.7316 37.7321 51.6854C37.7526 51.5465 37.7934 51.418 37.9466 51.3717C38.0538 51.3357 38.2223 51.418 38.304 51.562C38.3602 51.6545 38.4163 51.7676 38.4265 51.8756C38.4674 52.251 38.4521 53.0479 38.447 53.0634Z" fill="#4C6BB0"/>
<path d="M47.2087 21.7704C47.2649 21.8475 47.3211 21.9092 47.3619 21.9863C47.4436 22.1354 47.5202 22.2897 47.5917 22.4491C47.7091 22.7164 47.8674 22.9633 48.0716 23.1792C48.2503 23.3695 48.3627 23.5854 48.3167 23.8631C48.2759 24.1253 48.1788 23.9299 47.9185 23.8939C47.6223 23.8476 47.0862 23.3489 46.8156 23.4671C46.4122 23.6471 46.1314 23.7088 45.7127 23.8528C45.1868 24.0379 44.809 24.4184 44.2576 24.3412C43.6806 24.259 43.4968 24.9634 43.3334 25.529C43.313 25.5958 43.2977 25.6678 43.2721 25.7347C43.1292 26.1614 42.7003 26.254 42.3837 25.9301C42.1948 25.7398 42.1284 25.4724 42.2816 25.2411C42.5216 24.8811 42.6084 24.4852 42.6492 24.0687C42.6697 23.8579 42.7922 23.7345 42.9862 23.6677C43.2875 23.5648 43.3538 23.4466 43.2466 23.1484C43.1598 22.9067 43.0322 22.6805 42.9403 22.4388C42.8637 22.2485 42.7871 22.0532 42.7513 21.8526C42.736 21.7601 42.7922 21.6212 42.8586 21.5544C42.9505 21.4567 43.073 21.5287 43.17 21.5955C43.3743 21.7498 43.5887 21.8989 43.7776 22.0737C44.2371 22.4902 44.4567 22.4851 44.8958 22.0429C45.1 21.8321 45.3145 21.6264 45.5493 21.4567C45.6974 21.3487 45.8914 21.287 46.0752 21.2459C46.2795 21.2099 46.448 21.3025 46.545 21.503C46.5909 21.6007 46.6522 21.6881 46.7135 21.7755C46.8615 21.9709 46.9381 21.976 47.127 21.8166C47.1373 21.8064 47.1628 21.7961 47.2087 21.7704Z" fill="#4C6BB0"/>
<path d="M25.4629 30.9266C25.4476 31.014 25.4425 31.1014 25.4118 31.1837C25.2433 31.6053 25.0034 31.9807 24.6868 32.2892C24.2681 32.7005 24.0741 33.189 24.0026 33.7546C23.9873 33.878 23.9516 33.9963 23.9362 34.1145C23.9005 34.4693 23.7014 34.6853 23.3746 34.8035C23.2623 34.8447 23.1499 34.8961 23.0427 34.9526C22.8181 35.0606 22.6496 35.2252 22.527 35.4463C22.236 35.9964 21.8275 36.4386 21.3476 36.8243C21.2506 36.9014 21.1485 36.9939 20.98 36.9168C20.9136 36.6906 20.9749 36.4849 21.1025 36.2946C21.2965 35.9964 21.5161 35.7085 21.705 35.4051C22.1237 34.711 22.7313 34.2019 23.3031 33.6518C23.7728 33.1993 24.1864 32.6954 24.4009 32.0578C24.5489 31.6208 24.8604 31.2865 25.2076 30.9935C25.2638 30.9472 25.3454 30.9266 25.4169 30.8906C25.4322 30.9009 25.4476 30.9163 25.4629 30.9266Z" fill="#4C6BB0"/>
<path d="M36.5837 24.5726C36.4305 24.5469 36.3028 24.5366 36.1803 24.5006C35.9301 24.4338 35.8025 24.2435 35.8331 23.9865C35.8637 23.7499 35.9556 23.5443 36.165 23.4157C36.3284 23.3129 36.4713 23.3334 36.5275 23.5083C36.6194 23.7756 36.793 23.9402 37.0228 24.0687C37.0687 24.0893 37.1044 24.1304 37.1351 24.1664C37.2729 24.3361 37.2117 24.5366 36.9972 24.5726C36.8594 24.5932 36.7113 24.5726 36.5837 24.5726Z" fill="#4C6BB0"/>
<path d="M40.0913 27.1331C40.1679 26.876 40.3211 26.768 40.4794 26.6703C40.8317 26.4647 41.2095 26.3258 41.6231 26.3001C41.6741 26.295 41.7303 26.2847 41.7711 26.3053C41.8528 26.3464 41.96 26.4081 41.9856 26.4801C42.0111 26.5521 41.9652 26.6806 41.9141 26.7475C41.8528 26.8194 41.7558 26.8709 41.6639 26.8914C41.2554 26.9943 40.847 27.092 40.4385 27.1742C40.3313 27.1948 40.219 27.1537 40.0913 27.1331Z" fill="#4C6BB0"/>
<path d="M32.044 27.1797C32.3554 27.2208 32.4474 27.4059 32.284 27.6219C32.2125 27.7144 32.1155 27.8173 32.0083 27.8533C31.7479 27.9407 31.4772 28.0229 31.2066 28.0538C30.936 28.0898 30.8237 27.8893 30.9667 27.6527C31.0279 27.5448 31.1249 27.4471 31.2271 27.3802C31.4824 27.2054 31.7887 27.1951 32.044 27.1797Z" fill="#4C6BB0"/>
<path d="M30.7014 23.77C30.7014 23.77 31.0078 23.5951 31.0078 23.7494C31.0027 23.8985 31.0129 23.9396 31.1252 24.1505C31.2427 24.3561 31.2529 24.5104 31.2018 24.5875C31.1508 24.6646 31.0435 24.6544 30.9414 24.5875C30.8393 24.5207 30.7474 24.5104 30.6759 24.3767C30.6095 24.243 30.5483 24.1556 30.5483 24.0476C30.5432 23.9345 30.5891 23.8831 30.7014 23.77ZM16.8136 40.1723C16.594 40.2545 16.4409 40.3934 16.3388 40.6042C16.2775 40.7224 16.2213 40.8561 16.0477 40.8664C16.0222 40.8458 16.0018 40.8356 15.9916 40.8201C15.8129 40.4499 16.0273 39.8072 16.3898 39.6221C16.5124 39.5604 16.6298 39.4987 16.7574 39.4473C16.9668 39.3753 17.1097 39.4884 17.1097 39.7044C17.1148 39.9614 17.0434 40.0848 16.8136 40.1723ZM57.7572 26.0581C55.9396 23.734 54.8724 22.6079 54.6937 22.2223C54.5865 21.9961 53.5092 21.1014 53.2692 21.0037C53.0394 20.906 52.7076 20.5358 52.5033 20.397C52.1357 20.1347 51.7732 19.8674 51.4413 19.5691C51.1248 19.2812 50.8133 18.9778 50.6142 18.5871C50.3589 18.078 49.9862 17.677 49.593 17.2759C49.1999 16.8851 48.6995 16.7566 48.2144 16.592C48.1481 16.5715 48.0715 16.5715 48 16.5818C47.7345 16.628 47.4639 16.6589 47.2086 16.7412C46.7848 16.88 46.3559 16.9725 45.9066 16.9571C45.2888 16.9365 44.6914 16.844 44.1859 16.4686C43.5988 16.0367 42.9401 15.8773 42.2355 15.903C41.8526 15.9185 41.4747 16.0007 41.0918 16.047C40.7191 16.0933 40.3413 16.1344 39.9685 16.1858C39.6928 16.2218 39.4222 16.2732 39.1465 16.3247C38.7329 16.4018 38.304 16.4378 37.9109 16.5766C37.3748 16.7669 36.8693 17.0394 36.3536 17.2759C36.1545 17.3736 35.9605 17.4816 35.7613 17.5793C35.261 17.8363 34.7606 18.0986 34.2551 18.3454C33.8926 18.5253 33.5403 18.7413 33.1574 18.8698C32.2587 19.1835 31.4009 19.5743 30.6351 20.1553C30.4053 20.3301 30.1755 20.5204 29.9815 20.7363C29.7416 20.9934 29.5424 21.2813 29.3229 21.5539C29.0421 21.8932 28.751 22.2274 28.4651 22.5668C28.0975 23.0141 27.6941 23.4409 27.3776 23.9191C27.1069 24.3253 25.7641 25.9809 25.3965 26.4386C25.2433 26.6288 25.085 26.8088 24.937 27.0093C24.6357 27.4206 23.8596 28.4593 23.7677 28.5724C23.589 28.7935 23.4001 29.0094 23.2316 29.2408C22.9508 29.6162 21.6182 31.1587 21.2506 31.5649C20.791 32.0688 20.3673 32.5984 19.9128 33.1023C19.4176 33.6576 18.9478 34.2181 18.5547 34.8454C18.2637 35.3081 17.9675 35.7606 17.7122 36.2439C17.4008 36.8301 17.0689 37.3957 16.6145 37.879C16.2162 38.3058 15.8639 38.7634 15.5831 39.2724C15.2972 39.8021 15.1746 40.3728 15.1236 40.9641C15.1031 41.1955 15.1593 41.4217 15.3584 41.5605C15.5371 41.6891 15.7312 41.8073 15.9354 41.8793C16.8391 42.1776 17.7582 42.1467 18.6772 41.9565C19.4635 41.7971 20.2498 41.7251 21.0514 41.905C21.7765 42.0696 22.4504 41.941 23.0478 41.4783C23.201 41.36 24.7838 40.2494 25.3301 39.6838C25.6007 39.4113 25.8918 39.1593 26.1879 38.9125C26.4738 38.676 26.7853 38.4755 27.0712 38.2441C27.8013 37.6476 28.5264 37.0461 29.2361 36.429C29.9764 35.7863 31.6154 34.5986 31.646 34.5831C32.4272 34.1564 33.1727 33.6576 33.9896 33.2926C35.0874 32.8092 36.1341 32.3979 37.5484 32.8092C38.9627 33.2206 39.4018 35.8069 39.1669 36.4599C38.9576 37.0409 38.8146 37.6939 38.3908 38.1361C38.0947 38.4498 36.3128 41.4371 36.3332 42.4809C36.3332 42.4861 36.3332 42.4963 36.3332 42.5015C36.3025 43.0208 36.2974 43.5298 36.4455 44.0389C36.6089 44.5839 36.7263 45.1341 36.8693 45.6843C36.8795 45.7305 36.9969 45.9876 37.0225 45.9979C37.1042 45.8951 37.1756 45.6483 37.242 45.5403C37.4054 45.2781 37.4003 44.9953 37.3135 44.7125C37.2063 44.3731 37.0582 42.3215 37.4514 42.1364C37.8802 41.9256 38.0794 42.0593 38.0845 42.5375C38.0845 43.1236 38.0947 43.715 38.0998 44.3011C38.1049 44.8719 38.0998 45.4374 38.1151 46.003C38.1253 46.3424 38.156 46.6766 38.1917 47.0108C38.2019 47.1085 38.4929 47.0623 38.5134 46.944C38.5797 46.5018 38.6461 46.0493 38.6819 45.602C38.7125 45.2472 38.687 44.8821 38.7023 44.5274C38.7329 43.8486 38.8861 43.1956 39.075 42.5426C39.218 42.0233 39.3967 41.3394 39.7388 40.9435C39.989 40.6607 40.1268 40.27 40.1728 39.8946C40.2085 39.5912 41.0408 39.8021 41.1786 39.7866C41.4594 39.7609 41.6177 39.5912 41.633 39.3084C41.6381 39.2107 41.5156 38.3572 41.5054 38.023C41.4901 37.6528 41.679 37.3751 42.067 37.4625C42.2764 37.514 42.3734 37.3803 42.3274 37.1695C42.307 37.0718 41.3369 34.5163 41.1378 34.3106C40.9744 34.1512 39.4069 32.4802 38.2581 31.8477C37.2216 31.2718 34.0713 32.1665 33.2952 32.7989C32.8255 33.1846 31.6562 33.8993 30.9363 34.4649C30.681 34.6603 30.441 34.8711 30.1909 35.0716C30.0632 35.1796 28.9502 36.1257 28.7817 36.2439C28.4396 36.4805 28.0975 36.717 27.7452 36.9329C27.5767 37.0358 26.9538 37.4625 26.77 37.5345C26.6781 37.5705 26.5759 37.5859 26.5045 37.4677C26.5096 37.442 27.352 36.4702 27.6686 36.2696C27.8983 36.1257 28.1741 35.9766 28.4089 35.8377C28.8327 35.5961 29.3331 34.9945 29.7467 34.7323C29.8028 34.6963 29.716 34.4135 29.6445 34.398C29.3229 34.3363 29.0625 34.8659 28.7868 35.0613C28.2558 35.4418 27.7248 35.8583 27.1784 36.2594C27.0406 36.3622 26.2185 37.0409 25.9428 37.2774C25.3659 37.7608 24.8553 38.3058 24.3192 38.8303C23.8596 39.2827 22.4555 40.2185 22.2973 40.3214C21.7458 40.6813 21.1229 40.779 20.4847 40.8253C20.3264 40.8356 20.1681 40.8458 20.015 40.8304C19.729 40.8047 19.6371 40.6453 19.7494 40.3882C19.7597 40.3676 19.9537 39.7969 19.8567 39.5038C19.7954 39.3342 19.7801 39.1439 19.7546 38.9537C19.7239 38.7069 19.7699 38.4806 19.9333 38.2749C20.0047 38.1824 20.0456 38.0281 20.0252 37.9202C19.9894 37.7813 19.826 37.7916 19.6933 37.7813C19.4839 37.771 18.7589 37.9921 18.5955 37.987C18.2841 37.9716 18.1258 37.7865 18.1666 37.4728C18.1973 37.2363 18.2534 36.9946 18.3402 36.7684C18.6313 35.9971 18.9683 35.2464 19.5452 34.6294C19.9843 34.1512 20.403 33.6473 20.7961 33.1332C21.1587 32.655 21.5467 32.2025 21.9398 31.7449C22.4096 31.205 22.7313 30.7731 23.155 30.1972C23.2572 30.0584 23.7371 29.3745 23.8239 29.246C24.0792 28.886 24.0486 28.9015 24.3702 28.5775C24.457 28.4901 25.4271 27.1224 25.5344 26.9476C25.8867 26.3717 26.3207 25.8627 26.7393 25.3331C27.0406 24.9526 27.3469 24.5824 27.6992 24.243C28.0617 23.8985 28.3579 23.4717 28.7 23.1015C28.9399 22.8393 29.2054 22.5925 29.4658 22.3508C29.5935 22.2377 29.7569 22.1812 29.9203 22.2789C30.0734 22.3765 30.0888 22.5462 30.0581 22.7005C30.0275 22.8496 29.9815 22.9936 29.91 23.1272C29.6905 23.5386 29.5016 23.9654 29.4556 24.4384C29.4352 24.6544 29.3586 24.8395 29.2157 24.9989C29.0625 25.1737 28.8991 25.3485 28.751 25.5285C28.3987 25.9604 28.0464 26.3974 27.7094 26.8396C27.592 26.9939 27.5154 27.1738 27.4286 27.3487C27.398 27.4155 27.4082 27.4978 27.398 27.58C27.4184 27.5852 27.4388 27.6006 27.4592 27.6057C27.5205 27.5646 27.5869 27.5235 27.6379 27.4721C27.7758 27.3178 27.9188 27.1635 28.0362 26.9939C28.2455 26.6956 28.5162 26.5465 28.8787 26.5311C29.2003 26.5157 29.3688 26.3563 29.4352 26.0375C29.5271 25.5902 29.619 25.3691 30.2521 25.5799C30.6402 25.7136 31.0435 25.7701 31.452 25.729C31.6613 25.7136 31.8809 25.6673 32.0596 25.5696C32.4017 25.3793 32.7591 25.3074 33.142 25.2919C33.428 25.2765 33.7088 25.2302 33.9896 25.1891C34.1428 25.1634 34.2551 25.0708 34.2806 24.9166C34.3062 24.7572 34.2653 24.6029 34.1275 24.5155C34.0253 24.4538 33.8926 24.4127 33.7701 24.4024C33.5862 24.3921 33.3973 24.4127 33.2135 24.4178C33.0552 24.4333 32.9123 24.3921 32.7948 24.2893C32.6468 24.1556 32.4987 24.0219 32.3659 23.8728C32.1413 23.6157 32.0494 23.3175 32.0851 22.9781C32.1056 22.8085 32.1158 22.6336 32.1311 22.464C32.1515 22.2223 32.0902 22.0115 31.8809 21.8572C31.8043 21.8007 31.7328 21.7235 31.6716 21.6413C31.5848 21.5333 31.4877 21.523 31.3703 21.5796C31.3193 21.6053 31.2682 21.631 31.2171 21.6567C30.9874 21.7595 30.727 21.6875 30.5687 21.4819C30.4257 21.2916 30.4308 21.086 30.6351 20.8854C30.8495 20.6695 31.0793 20.4638 31.3295 20.289C31.6613 20.0576 32.0034 19.8314 32.3608 19.6463C32.8459 19.3892 33.3514 19.1681 33.8466 18.9316C34.0509 18.8339 34.2551 18.7207 34.4644 18.6333C35.3324 18.2683 36.2004 17.9083 37.0684 17.5484C37.3186 17.4404 37.5586 17.3067 37.8139 17.2245C38.7533 16.9211 39.6673 16.5098 40.6731 16.4584C40.7395 16.4584 40.811 16.4275 40.8825 16.4224C40.9795 16.4069 41.0816 16.4018 41.1786 16.4069C41.4747 16.4275 41.776 16.4532 42.0721 16.4789C42.1487 16.4892 42.2253 16.5098 42.2968 16.5406C42.5725 16.6537 42.6236 16.9417 42.404 17.1474C42.3172 17.2296 42.2151 17.2965 42.1232 17.3736C41.9955 17.4764 41.9138 17.6101 41.8883 17.7695C41.8577 17.9803 42.0006 18.1397 42.2151 18.1191C42.3121 18.1089 42.4091 18.0729 42.501 18.0472C42.9248 17.9186 43.3486 17.7849 43.7724 17.677C43.9255 17.6358 44.0991 17.641 44.2574 17.6667C44.4923 17.7027 44.7272 17.7798 44.962 17.8363C45.2173 17.9032 45.3399 18.0677 45.2939 18.33C45.2377 18.6488 45.059 18.8904 44.7731 19.019C44.5433 19.1218 44.2881 19.1938 44.043 19.2503C43.8285 19.2966 43.6243 19.3532 43.4609 19.5023C43.3588 19.6 43.2873 19.7182 43.3333 19.8674C43.3741 20.0113 43.5018 20.0525 43.6345 20.0679C43.8847 20.0987 44.1298 20.1193 44.38 20.145C44.8854 20.1964 45.2275 19.9136 45.5237 19.5537C45.5798 19.4869 45.6003 19.3892 45.6207 19.2966C45.7534 18.6745 45.8198 18.6025 46.4427 18.4894C46.458 18.4894 46.4734 18.4842 46.4836 18.4842C46.7848 18.4328 46.938 18.5202 47.0554 18.803C47.1014 18.9213 47.1473 19.0447 47.2086 19.1578C47.2903 19.3018 47.423 19.3995 47.5966 19.3583C47.7651 19.3223 47.8264 19.1784 47.8519 19.0241C47.9234 18.6128 47.9132 18.2271 47.6068 17.8929C47.4486 17.7232 47.4792 17.5073 47.663 17.3633C47.8213 17.2348 48.0051 17.1319 48.1889 17.0394C48.4391 16.9108 48.6842 16.9571 48.919 17.1011C49.3837 17.389 49.69 17.8158 49.9249 18.2991C49.9606 18.3762 50.0015 18.4688 49.9913 18.5459C49.93 18.947 49.9657 19.3429 49.9964 19.744C50.0015 19.8108 49.9862 19.8725 49.9759 19.9342C49.9096 20.397 49.6798 20.4844 49.3071 20.2067C49.1845 20.1142 49.0365 20.0165 48.8935 20.0113C48.577 19.9959 48.2706 19.9599 47.9745 19.8468C47.9132 19.8262 47.8315 19.8108 47.7651 19.8262C47.6477 19.8571 47.5252 19.9085 47.4179 19.9702C47.3362 20.0165 47.3311 20.109 47.3771 20.1964C47.5303 20.4792 47.9745 20.6952 48.2757 20.5821C48.7352 20.4124 49.108 20.5615 49.4705 20.834C49.7104 21.014 49.9402 21.1991 50.124 21.4459C50.2976 21.6824 50.4661 21.667 50.6703 21.4459C50.7418 21.3636 50.8082 21.2762 50.8797 21.2042C50.992 21.086 51.1299 21.0551 51.2881 21.0962C51.7068 21.1991 52.0744 21.3842 52.3757 21.6978C52.7178 22.0475 53.6675 22.5514 56.7259 26.3974C59.7842 30.2383 60.6012 34.7117 61.0352 34.7168C61.4692 34.722 59.626 28.4541 57.7572 26.0581Z" fill="#4C6BB0"/>
<path d="M30.9464 33.0872C30.9106 33.4214 30.6502 33.6271 30.2775 33.6322C30.2264 33.37 30.4102 33.2466 30.5685 33.1077C30.6809 33.0203 30.8034 32.9586 30.9464 33.0872Z" fill="#4C6BB0"/>
<path d="M37.002 10.7559C23.0763 10.7559 11.7472 22.3152 11.7472 36.5171C11.7472 50.7242 23.0763 62.2835 37.002 62.2835C50.9277 62.2835 62.2569 50.7242 62.2569 36.5171C62.262 22.3152 50.9329 10.7559 37.002 10.7559ZM37.002 62.9995C22.4014 62.9995 10.521 51.1157 10.521 36.5171C10.521 21.9186 22.4014 10.0399 37.002 10.0399C51.6026 10.0399 63.483 21.9134 63.483 36.5171C63.4882 51.1208 51.6078 62.9995 37.002 62.9995ZM37.002 1.09223C17.4659 1.09223 1.56697 16.9889 1.56697 36.5223C1.56697 56.0608 17.4659 71.9523 37.002 71.9523C56.5382 71.9523 72.4371 56.0608 72.4371 36.5223C72.4371 16.9889 56.5434 1.09223 37.002 1.09223ZM37.002 73.029C16.8734 73.029 0.495361 56.6532 0.495361 36.5223C0.495361 16.3965 16.8734 0.015625 37.002 0.015625C57.1358 0.015625 73.5087 16.3913 73.5087 36.5223C73.5138 56.6532 57.1358 73.029 37.002 73.029Z" fill="#4C6BB0"/>
<path d="M30.5227 66.7877C30.4971 66.7722 30.4512 66.7568 30.3899 66.7311C30.3235 66.7105 30.2776 66.6951 30.252 66.69C30.1601 66.6694 30.0733 66.6643 29.9814 66.6694C29.8946 66.6745 29.8129 66.7054 29.7312 66.7465C29.6547 66.7928 29.5832 66.8648 29.527 66.9625C29.4657 67.0602 29.4198 67.1887 29.3841 67.3584C29.3534 67.4972 29.3483 67.6103 29.3585 67.7183C29.3687 67.8263 29.4045 67.9086 29.4504 67.9754C29.4964 68.0474 29.5576 68.1039 29.6342 68.1451C29.7057 68.1862 29.7874 68.2222 29.8742 68.2376C30.0019 68.2685 30.1091 68.2788 30.1959 68.2736L30.5227 66.7877ZM30.8494 69.0757C30.6911 69.0757 30.5227 69.0603 30.3439 69.0398C30.1601 69.0192 29.9814 68.9883 29.8027 68.9523C29.6138 68.9112 29.43 68.8495 29.2513 68.7775C29.0726 68.7004 28.9245 68.5976 28.802 68.4587C28.6794 68.3199 28.5926 68.1502 28.5467 67.9394C28.4956 67.7337 28.5058 67.4715 28.5722 67.1681C28.6335 66.8905 28.7203 66.6642 28.8377 66.4894C28.9552 66.3146 29.093 66.1809 29.2462 66.0884C29.3994 65.9958 29.5679 65.9393 29.7517 65.9238C29.9304 65.9033 30.104 65.9136 30.2827 65.9547C30.3031 65.9598 30.3286 65.965 30.3644 65.9752C30.4052 65.9804 30.441 65.9907 30.4818 66.001C30.5226 66.0164 30.5635 66.0267 30.5992 66.0369C30.635 66.0524 30.6656 66.0627 30.6809 66.0729L31.0077 64.5664L31.7889 64.7412L30.8494 69.0757Z" fill="#4C6BB0"/>
<path d="M25.5647 65.2955C25.6515 65.0899 25.7179 64.8893 25.7689 64.6991C25.82 64.5037 25.8455 64.3392 25.8455 64.1849C25.8455 64.0307 25.82 63.9021 25.7638 63.789C25.7128 63.681 25.6209 63.5988 25.4932 63.5422C25.2686 63.4496 25.049 63.4959 24.8397 63.6759C24.6303 63.861 24.421 64.2106 24.2066 64.7197C24.1249 64.9202 24.0585 65.1156 24.0074 65.3007C23.9564 65.4909 23.9308 65.6606 23.9308 65.82C23.9308 65.9743 23.9564 66.1079 24.0074 66.2211C24.0636 66.3342 24.1555 66.4165 24.2831 66.473C24.7325 66.6684 25.1614 66.2725 25.5647 65.2955ZM26.3408 65.6246C26.0498 66.3239 25.7128 66.8072 25.3196 67.0746C24.9316 67.342 24.4925 67.3728 24.0023 67.1672C23.747 67.0592 23.5479 66.9152 23.4101 66.7404C23.2671 66.5656 23.1752 66.3599 23.1343 66.1234C23.0935 65.8817 23.1037 65.6246 23.1548 65.3315C23.2109 65.0487 23.3028 64.7351 23.4356 64.4112C23.7266 63.7067 24.0687 63.2285 24.467 62.9612C24.8601 62.6989 25.2992 62.6681 25.7792 62.8686C26.0396 62.9766 26.2387 63.1206 26.3765 63.2954C26.5144 63.4754 26.6063 63.681 26.6471 63.9175C26.688 64.1541 26.6778 64.4112 26.6267 64.7042C26.5706 64.987 26.4735 65.2955 26.3408 65.6246Z" fill="#4C6BB0"/>
<path d="M20.0252 59.9834C20.1682 59.968 20.3315 59.9886 20.5102 60.0503C20.6889 60.1171 20.8523 60.1942 21.0055 60.2971C21.1995 60.4256 21.3527 60.5747 21.4752 60.7495C21.5978 60.9192 21.6744 61.1249 21.6999 61.3563C21.7254 61.5928 21.6948 61.8602 21.6029 62.1533C21.511 62.4515 21.3527 62.7806 21.1178 63.1456C20.8728 63.5261 20.6328 63.8141 20.3928 64.0146C20.1528 64.2151 19.9231 64.3488 19.6933 64.4105C19.4687 64.4773 19.2491 64.4825 19.0449 64.4362C18.8355 64.3899 18.6517 64.3077 18.4781 64.1945C18.3045 64.0814 18.1616 63.9683 18.0492 63.8552C17.9369 63.7421 17.8501 63.6392 17.7939 63.5518L18.3096 63.0428C18.3556 63.1251 18.4169 63.2022 18.4934 63.2793C18.57 63.3616 18.6721 63.4387 18.7947 63.521C19.0398 63.6804 19.3002 63.6958 19.5708 63.5672C19.8414 63.4387 20.1222 63.1456 20.4183 62.6829C20.546 62.4875 20.643 62.2972 20.7196 62.1121C20.7911 61.9322 20.837 61.7625 20.8421 61.6031C20.8523 61.4437 20.8268 61.2946 20.7655 61.1609C20.7043 61.0272 20.6022 60.9192 20.4643 60.8267C20.3366 60.7444 20.2192 60.693 20.1069 60.6673C19.9997 60.6416 19.8924 60.6313 19.7903 60.6313L20.0252 59.9834Z" fill="#4C6BB0"/>
<path d="M16.5227 57.0117C16.6657 57.0169 16.824 57.0683 16.9873 57.1557C17.1558 57.2431 17.3039 57.3562 17.4367 57.4796C17.6051 57.6287 17.743 57.8035 17.8349 57.9938C17.9268 58.184 17.9728 58.4 17.9574 58.6365C17.9472 58.8679 17.8758 59.1301 17.7379 59.4078C17.6 59.6906 17.3907 59.9888 17.0997 60.3127C16.7984 60.647 16.5125 60.8938 16.247 61.0583C15.9764 61.2126 15.7262 61.3102 15.4964 61.336C15.2616 61.3617 15.0471 61.336 14.848 61.2588C14.654 61.1817 14.4804 61.0737 14.3272 60.9349C14.174 60.7961 14.0515 60.6624 13.9545 60.5287C13.8626 60.4002 13.7962 60.287 13.7502 60.1893L14.3425 59.7626C14.3732 59.85 14.4242 59.9374 14.4906 60.0248C14.5519 60.1174 14.6387 60.215 14.751 60.3127C14.9705 60.5133 15.2207 60.5647 15.5066 60.4824C15.7926 60.395 16.1142 60.1482 16.4768 59.742C16.6299 59.5672 16.7627 59.3924 16.8648 59.2278C16.9669 59.0581 17.0333 58.8936 17.069 58.7342C17.1048 58.58 17.1048 58.4309 17.0639 58.2972C17.0231 58.1583 16.9465 58.0298 16.8188 57.9167C16.7065 57.8138 16.5993 57.747 16.4972 57.7059C16.39 57.6647 16.2878 57.639 16.1908 57.6236L16.5227 57.0117Z" fill="#4C6BB0"/>
<path d="M11.9426 55.0366L11.4116 55.3759L11.432 55.4068L12.1111 55.1754L14.7202 54.7384L15.1082 55.2371L11.6005 57.9931L11.1104 57.3555L12.9433 55.921L13.4948 55.5765L13.4795 55.5456L12.7749 55.777L10.2015 56.1832L9.81348 55.6896L13.3212 52.9336L13.8164 53.566L11.9426 55.0366Z" fill="#4C6BB0"/>
<path d="M8.92997 50.0611L8.3428 50.2925L8.35812 50.3234L9.06783 50.2257L11.7178 50.2874L12.0037 50.853L8.04666 52.8994L7.67904 52.1847L9.7469 51.1101L10.3545 50.8735L10.3392 50.8427L9.60394 50.9352L6.99486 50.853L6.70894 50.2977L10.666 48.2461L11.0285 48.9659L8.92997 50.0611ZM6.51491 52.3441C6.73446 52.2001 6.79573 52.0356 6.69872 51.8453C6.60171 51.6551 6.43322 51.6088 6.19835 51.7014L5.98901 51.0792C6.24941 50.9815 6.47407 50.9815 6.66298 51.0792C6.8519 51.1769 7.01529 51.3569 7.14804 51.6191C7.21952 51.7528 7.26547 51.8813 7.30121 51.9996C7.33695 52.123 7.34716 52.2361 7.33695 52.3492C7.32674 52.4624 7.291 52.56 7.23483 52.6629C7.17356 52.7606 7.08166 52.8531 6.95912 52.9354L6.51491 52.3441Z" fill="#4C6BB0"/>
<path d="M8.8739 43.5977C8.99644 43.6748 9.10366 43.7982 9.19556 43.9627C9.29257 44.1273 9.36406 44.3021 9.42022 44.4718C9.4866 44.6929 9.51212 44.9088 9.49681 45.1196C9.47638 45.3304 9.4049 45.5361 9.27215 45.7366C9.1445 45.932 8.95048 46.112 8.69009 46.2817C8.42969 46.4565 8.09781 46.6005 7.67913 46.729C7.25024 46.8575 6.88262 46.9244 6.57117 46.9192C6.25971 46.9141 5.99932 46.8627 5.78487 46.765C5.57043 46.6622 5.40193 46.5285 5.27429 46.3639C5.14664 46.1943 5.05474 46.0092 4.99347 45.8138C4.9322 45.6132 4.89646 45.4384 4.88625 45.2739C4.87093 45.1196 4.87093 44.9859 4.88114 44.878L5.60106 44.8214C5.58574 44.914 5.58064 45.0116 5.59085 45.1248C5.60106 45.2379 5.62659 45.3613 5.66744 45.5053C5.75424 45.7881 5.94315 45.968 6.22908 46.0451C6.52011 46.1223 6.92347 46.0811 7.43916 45.9166C7.66382 45.8498 7.86294 45.7675 8.03654 45.6801C8.21014 45.5875 8.3531 45.4847 8.46543 45.3664C8.57776 45.2533 8.64924 45.1248 8.68498 44.9859C8.72583 44.8471 8.71562 44.6929 8.66966 44.5283C8.62371 44.3895 8.56755 44.2712 8.50117 44.1838C8.42969 44.0913 8.35821 44.0141 8.28162 43.9473L8.8739 43.5977Z" fill="#4C6BB0"/>
<path d="M6.56605 40.6041L6.59158 40.7789L8.48073 40.5424L8.57774 41.3445L4.1612 41.8895L4.0693 41.0925L6.01973 40.8457L5.92782 40.6966L3.93144 39.9973L3.82422 39.0924L5.80528 39.8842L6.07078 40.1516L6.27502 39.8174L8.22034 38.3828L8.33777 39.3598L6.56605 40.6041Z" fill="#4C6BB0"/>
<path d="M6.55601 35.2577L6.59685 34.5173L5.54505 34.7178L4.84045 34.7847V34.8104L5.53995 34.9595L6.55601 35.2577ZM7.24529 34.4093L7.19424 35.4685L8.19498 35.7822L8.15413 36.5792L3.7478 35.0469L3.77844 34.4145L8.31752 33.3398L8.27157 34.1831L7.24529 34.4093Z" fill="#4C6BB0"/>
<path d="M5.38139 28.697C5.36096 28.733 5.34565 28.769 5.33033 28.805C5.31501 28.841 5.3048 28.8872 5.29459 28.9387C5.27417 29.0261 5.26906 29.1032 5.27416 29.1855C5.27927 29.2677 5.3048 29.3397 5.34565 29.4066C5.38649 29.4734 5.45287 29.5351 5.53456 29.5814C5.61626 29.638 5.72858 29.6791 5.86644 29.7099C6.12684 29.7716 6.32596 29.7562 6.46382 29.6688C6.60679 29.5814 6.69358 29.4477 6.73443 29.2626L6.79059 29.0209L5.38139 28.697ZM9.20565 28.7587L9.02695 29.5454L7.30118 29.1443L7.34203 29.5094L8.79208 30.5738L8.58274 31.4787L7.27054 30.4298L7.09695 30.0596C6.98462 30.2704 6.80591 30.4195 6.56594 30.5172C6.32086 30.6149 6.01451 30.62 5.64178 30.5326C5.37628 30.4709 5.16694 30.3784 5.00356 30.2652C4.84527 30.1521 4.72784 30.0133 4.65125 29.8488C4.57467 29.6894 4.53382 29.5094 4.52871 29.3037C4.52361 29.1032 4.54914 28.8872 4.6053 28.661C4.61551 28.6045 4.63594 28.5376 4.65636 28.4605C4.68189 28.3782 4.70231 28.2959 4.73295 28.2137C4.75848 28.1314 4.78911 28.0543 4.82485 27.9772C4.85549 27.9 4.88612 27.8332 4.92186 27.7715L9.20565 28.7587Z" fill="#4C6BB0"/>
<path d="M9.99228 21.801L9.91059 21.9552L11.57 22.8962L11.1768 23.6006L7.30151 21.405L7.69466 20.7006L9.41022 21.6724L9.42043 21.4976L8.23077 19.7391L8.66988 18.9473L9.80337 20.7623L9.85953 21.1428L10.222 20.9937L12.632 20.9988L12.152 21.8627L9.99228 21.801Z" fill="#4C6BB0"/>
<path d="M13.4334 16.0215L12.9892 15.569L12.9687 15.5896L13.3261 16.2118L14.3014 18.6952L13.898 19.1786L10.4873 16.3043L10.9979 15.6873L12.7849 17.1887L13.2342 17.6617L13.2547 17.636L12.887 16.9933L11.9476 14.5407L12.3509 14.0625L15.7616 16.9368L15.2459 17.5538L13.4334 16.0215Z" fill="#4C6BB0"/>
<path d="M17.8601 12.4526L16.9206 13.2341L18.1154 14.6944L17.4976 15.2034L14.6741 11.7481L15.2919 11.2339L16.456 12.6582L17.3904 11.8818L16.2262 10.4575L16.844 9.94336L19.6727 13.4038L19.0549 13.918L17.8601 12.4526Z" fill="#4C6BB0"/>
<path d="M21.2707 9.69673C21.378 9.89726 21.4903 10.0721 21.6026 10.2315C21.7201 10.3909 21.8375 10.5143 21.9549 10.612C22.0775 10.7045 22.1949 10.7662 22.3123 10.7919C22.4298 10.8176 22.5523 10.7971 22.6697 10.7354C22.8842 10.6171 22.9863 10.4166 22.971 10.1338C22.9608 9.85612 22.8178 9.47049 22.5574 8.98716C22.4502 8.79692 22.343 8.62209 22.2255 8.4627C22.1132 8.30845 21.9958 8.1799 21.8732 8.07707C21.7558 7.97937 21.6333 7.91767 21.5107 7.89196C21.3933 7.86111 21.2707 7.88168 21.1482 7.94852C20.7244 8.19018 20.7653 8.76607 21.2707 9.69673ZM20.5355 10.1029C20.173 9.43964 20.0096 8.8689 20.0453 8.39071C20.0811 7.91767 20.3313 7.5526 20.7959 7.29551C21.041 7.16183 21.2758 7.09499 21.5005 7.08984C21.7252 7.08984 21.9447 7.1464 22.1489 7.26466C22.3583 7.37778 22.5574 7.54746 22.7514 7.7737C22.9403 7.9948 23.1242 8.26217 23.2926 8.57582C23.6552 9.23911 23.8134 9.80985 23.7726 10.288C23.7317 10.7611 23.4816 11.1261 23.0271 11.3781C22.7821 11.5118 22.5472 11.5838 22.3225 11.5838C22.0979 11.5838 21.8783 11.5272 21.6741 11.4089C21.4648 11.2907 21.2656 11.121 21.0767 10.8999C20.8827 10.6788 20.704 10.4114 20.5355 10.1029Z" fill="#4C6BB0"/>
<path d="M27.0657 5.50787L26.4275 5.71868C26.6521 6.50023 26.8257 7.15324 26.9483 7.68799C27.0708 8.21759 27.1065 8.64436 27.0606 8.96315C27.0453 9.07627 27.0146 9.17396 26.9738 9.26137C26.9329 9.34364 26.887 9.41563 26.8359 9.47219C26.7849 9.5236 26.7287 9.56988 26.6725 9.60587C26.6113 9.64187 26.5551 9.66757 26.5041 9.683C26.4224 9.71385 26.3458 9.72928 26.2743 9.73442C26.2028 9.7447 26.1415 9.73956 26.0701 9.72927L25.9271 9.00943C26.0088 9.01457 26.0803 8.994 26.1415 8.94258C26.2079 8.89116 26.2488 8.80375 26.259 8.68549C26.2743 8.58266 26.2743 8.43355 26.2539 8.25358C26.2334 8.06848 26.1926 7.8371 26.1262 7.5543C26.065 7.27664 25.9782 6.94757 25.8709 6.57222C25.7637 6.19687 25.631 5.75468 25.4778 5.26106L27.5967 4.55664L28.9957 8.8089L28.2349 9.06084L27.0657 5.50787Z" fill="#4C6BB0"/>
<path d="M31.8196 5.91289C31.8502 6.13913 31.8911 6.3448 31.9421 6.53504C31.9932 6.72529 32.0545 6.88469 32.131 7.01837C32.2076 7.14692 32.2995 7.24975 32.3965 7.31659C32.4987 7.38858 32.6161 7.40915 32.7489 7.39372C32.9939 7.35773 33.1573 7.20862 33.2492 6.94639C33.336 6.67901 33.3462 6.27281 33.2696 5.72264C33.239 5.50669 33.2033 5.30616 33.1522 5.11591C33.1012 4.92567 33.0399 4.76627 32.9633 4.63258C32.8867 4.4989 32.7999 4.39606 32.6927 4.32922C32.5906 4.25723 32.468 4.23152 32.3302 4.25209C31.8502 4.30865 31.6766 4.86396 31.8196 5.91289ZM30.9873 6.02601C30.8852 5.27531 30.9363 4.684 31.1405 4.25209C31.3447 3.82532 31.7073 3.57338 32.2332 3.50139C32.5089 3.4654 32.7488 3.48597 32.9633 3.56823C33.1726 3.6505 33.3564 3.78419 33.5096 3.96929C33.6628 4.1544 33.7904 4.38064 33.8875 4.65829C33.9845 4.93595 34.0611 5.2496 34.107 5.59924C34.2091 6.34994 34.153 6.94124 33.9436 7.37315C33.7343 7.79992 33.3718 8.05187 32.8561 8.11871C32.5804 8.15471 32.3353 8.13414 32.1259 8.05701C31.9166 7.97474 31.7328 7.84106 31.5796 7.65595C31.4264 7.47085 31.3039 7.24461 31.2069 6.96695C31.1048 6.6893 31.0333 6.37565 30.9873 6.02601Z" fill="#4C6BB0"/>
<path d="M39.0134 4.09756L37.6297 4.05128L37.5123 7.78936L36.7107 7.75851L36.8588 3.28516L39.0339 3.35714L39.0134 4.09756Z" fill="#4C6BB0"/>
<path d="M43.4964 6.14507L43.6853 5.53834L43.6546 5.5332L43.287 6.14507L41.5817 8.1915L40.9639 8.06296L41.8523 3.67188L42.6386 3.83127L42.1739 6.12965L41.9748 6.7518L42.0055 6.76209L42.3935 6.12965L44.0886 4.12949L44.6962 4.2529L43.8129 8.64398L43.0266 8.48458L43.4964 6.14507Z" fill="#4C6BB0"/>
<path d="M48.4954 5.4921L47.9491 6.85467C47.8521 7.10148 47.8164 7.29172 47.8419 7.42541C47.8725 7.5591 47.9644 7.65679 48.1278 7.72364C48.2401 7.76991 48.3576 7.79562 48.4699 7.80076C48.5822 7.8059 48.6844 7.78534 48.7712 7.7442L49.5115 5.90344L50.2518 6.20681L48.5822 10.3614L47.8419 10.058L48.5159 8.38178C48.4137 8.40749 48.2861 8.41263 48.1278 8.40749C47.9695 8.39721 47.7959 8.35607 47.607 8.27895C47.4794 8.22753 47.3619 8.15555 47.2649 8.07328C47.1628 7.99101 47.0913 7.88817 47.0403 7.76991C46.9892 7.65165 46.9688 7.51282 46.9739 7.34829C46.979 7.18889 47.025 7.00379 47.1118 6.79297L47.7602 5.18359L48.4954 5.4921Z" fill="#4C6BB0"/>
<path d="M53.065 7.66602L54.9593 8.84863L54.5712 9.47592L53.3612 8.72522L52.7842 9.65588L53.882 10.3397L53.4939 10.9773L52.3962 10.2883L51.7937 11.2704L53.0242 12.0417L52.6412 12.669L50.7266 11.4761L53.065 7.66602Z" fill="#4C6BB0"/>
<path d="M56.5217 15.5891C56.3788 15.5891 56.2205 15.5428 56.0571 15.4503C55.8886 15.3629 55.7354 15.2549 55.5976 15.1366C55.424 14.9875 55.2912 14.8178 55.1942 14.6276C55.0972 14.4373 55.0512 14.2265 55.0615 13.99C55.0717 13.7535 55.138 13.4964 55.2708 13.2136C55.4035 12.9308 55.6078 12.6274 55.8937 12.2983C56.1898 11.959 56.4707 11.707 56.7362 11.5476C57.0017 11.3831 57.2519 11.2854 57.4867 11.2597C57.7165 11.2289 57.936 11.2494 58.1301 11.3317C58.3292 11.4088 58.5028 11.5117 58.656 11.6453C58.8091 11.7842 58.9368 11.9179 59.0287 12.0464C59.1257 12.1749 59.1972 12.2881 59.238 12.3858L58.656 12.8177C58.6202 12.7303 58.5743 12.648 58.5079 12.5554C58.4415 12.468 58.3547 12.3755 58.2424 12.2778C58.0228 12.0824 57.7676 12.031 57.4816 12.1184C57.1957 12.2058 56.874 12.4577 56.5217 12.8691C56.3685 13.049 56.2409 13.2187 56.1439 13.3935C56.0469 13.5632 55.9805 13.7278 55.9448 13.8872C55.9141 14.0466 55.9141 14.1957 55.9601 14.3294C56.0009 14.4682 56.0826 14.5916 56.2103 14.7047C56.3226 14.8024 56.4298 14.8744 56.537 14.9104C56.6443 14.9515 56.7464 14.9772 56.8485 14.9875L56.5217 15.5891Z" fill="#4C6BB0"/>
<path d="M60.0497 16.895L59.9425 16.7613L58.4618 17.9697L57.9563 17.3424L61.4129 14.5195L61.9184 15.152L60.3867 16.3963L60.545 16.4734L62.6077 16.0055L63.1745 16.7099L61.0811 17.1007L60.7083 17.0184L60.7135 17.4092L59.8199 19.6613L59.2072 18.8952L60.0497 16.895Z" fill="#4C6BB0"/>
<path d="M62.8836 21.4315L63.241 22.0845L64.0222 21.3544L64.5838 20.9225L64.5736 20.9019L63.9048 21.1487L62.8836 21.4315ZM62.7355 22.5216L62.23 21.5961L61.214 21.8634L60.8311 21.1642L65.3752 20.1152L65.6816 20.6705L62.3883 23.9973L61.9799 23.2569L62.7355 22.5216Z" fill="#4C6BB0"/>
<path d="M67.3204 26.383C67.3204 26.3419 67.3153 26.3059 67.3102 26.2648C67.3051 26.2288 67.2898 26.1825 67.2693 26.1311C67.2438 26.0488 67.203 25.9768 67.157 25.91C67.1111 25.8432 67.0498 25.7969 66.9783 25.7609C66.9068 25.7249 66.82 25.7095 66.723 25.7095C66.626 25.7095 66.5086 25.7352 66.3758 25.7815C66.1256 25.8637 65.9622 25.982 65.8908 26.1311C65.8193 26.2802 65.8142 26.4447 65.8703 26.6196L65.9469 26.851L67.3204 26.383ZM64.0373 28.3678L63.7821 27.6068L65.4619 27.0309L65.2372 26.743L63.4451 26.6041L63.1489 25.73L64.8134 25.9254L65.1555 26.1465C65.1453 25.91 65.2117 25.6889 65.37 25.4781C65.5231 25.2724 65.7835 25.1027 66.1461 24.9742C66.4013 24.8868 66.6311 24.8508 66.8251 24.8611C67.0243 24.8714 67.1927 24.9331 67.3459 25.0308C67.494 25.1285 67.6216 25.2621 67.734 25.4318C67.8463 25.6015 67.9331 25.7969 68.0097 26.018C68.0301 26.0694 68.0454 26.1362 68.071 26.2185C68.0914 26.2956 68.1118 26.3779 68.1322 26.4653C68.1527 26.5476 68.168 26.635 68.1782 26.7121C68.1935 26.7995 68.2037 26.8715 68.2037 26.9384L64.0373 28.3678Z" fill="#4C6BB0"/>
<path d="M68.5408 36.1371C68.5408 36.1063 68.5356 36.06 68.5305 35.9983C68.5254 35.9366 68.5152 35.8903 68.4999 35.8595L66.3146 35.9263C66.3044 35.952 66.3044 35.988 66.3044 36.0291C66.3044 36.0703 66.3095 36.1166 66.3095 36.1577C66.3146 36.3376 66.4116 36.4868 66.5903 36.5999C66.7741 36.7079 67.0652 36.7593 67.4634 36.7439C67.8055 36.7336 68.071 36.677 68.265 36.5742C68.454 36.4713 68.5459 36.3222 68.5408 36.1371ZM66.2687 34.9288C66.2687 34.9596 66.2738 35.0008 66.2738 35.0522C66.2789 35.1036 66.284 35.1499 66.2993 35.191L68.4897 35.1242C68.4948 35.0882 68.4948 35.0522 68.4948 35.0059C68.4948 34.9648 68.4948 34.9237 68.4948 34.8825C68.4897 34.6974 68.3927 34.5534 68.214 34.4455C68.0302 34.3375 67.7391 34.2912 67.3358 34.3015C66.9835 34.3118 66.718 34.3735 66.5342 34.4763C66.3555 34.5946 66.2636 34.7437 66.2687 34.9288ZM65.6151 35.1705C65.5998 35.1036 65.5896 35.0368 65.5845 34.9648C65.5794 34.8928 65.5743 34.8208 65.5692 34.7334C65.5641 34.5637 65.5947 34.4043 65.656 34.2604C65.7223 34.1164 65.8245 33.9879 65.9623 33.8799C66.1002 33.7719 66.284 33.6845 66.5035 33.6176C66.7231 33.5508 66.9886 33.5097 67.3051 33.5045C67.8974 33.484 68.3569 33.5868 68.6837 33.813C69.0054 34.0341 69.1739 34.3375 69.1841 34.7283C69.1841 34.7694 69.1841 34.8311 69.1841 34.8979C69.1841 34.9699 69.179 35.0265 69.1637 35.0728L69.7049 35.0573L69.7304 35.8646L69.1688 35.88C69.1943 35.9417 69.2096 36.0189 69.2198 36.1114C69.23 36.1988 69.2351 36.2708 69.2351 36.3274C69.2403 36.5022 69.2045 36.6564 69.1381 36.8004C69.0718 36.9444 68.9645 37.0729 68.8216 37.1809C68.6786 37.2889 68.4948 37.3763 68.2701 37.438C68.0455 37.5048 67.7851 37.5408 67.4838 37.546C67.1724 37.5563 66.9018 37.5305 66.672 37.4688C66.4423 37.4123 66.2482 37.33 66.09 37.222C65.9368 37.1141 65.8142 36.9855 65.7377 36.8364C65.656 36.6873 65.6151 36.5279 65.61 36.3531C65.61 36.2862 65.61 36.2245 65.6151 36.1577C65.6202 36.0908 65.6304 36.0291 65.6458 35.9829L65.0228 35.9983L64.9973 35.191L65.6151 35.1705Z" fill="#4C6BB0"/>
<path d="M69.3676 40.5997L69.0204 42.8055L68.2954 42.6924L68.5149 41.2732L67.4376 41.1036L67.2333 42.389L66.5083 42.2708L66.7074 40.9853L65.5791 40.8105L65.3493 42.2502L64.6243 42.1319L64.9766 39.9004L69.3676 40.5997Z" fill="#4C6BB0"/>
<path d="M64.1139 46.6101L66.9221 47.5973L67.1569 46.9289C66.4575 46.6564 65.8805 46.4044 65.421 46.1576C64.9666 45.916 64.65 45.7154 64.4713 45.5715L64.1139 46.6101ZM62.2502 47.294L62.4341 46.7592L63.2101 46.9495L63.9658 44.7745L63.2408 44.4403L63.4246 43.9004L64.8695 44.4094L64.7419 44.7796C64.7776 44.8208 64.8644 44.8928 65.0074 44.9956C65.1453 45.1036 65.3444 45.2321 65.615 45.3812C65.8805 45.5303 66.2175 45.7 66.6259 45.88C67.0344 46.0599 67.5246 46.2553 68.0964 46.4456L67.351 48.6L63.8484 47.3711L63.6952 47.803L62.2502 47.294Z" fill="#4C6BB0"/>
<path d="M65.901 51.7873L64.8084 53.7412L64.165 53.3761L64.8645 52.1267L63.9148 51.5817L63.2766 52.718L62.6333 52.3529L63.2715 51.2166L62.2759 50.6561L61.5611 51.9262L60.9177 51.5611L62.0257 49.5918L65.901 51.7873Z" fill="#4C6BB0"/>
<path d="M60.8716 55.5457C60.8461 55.5611 60.8155 55.5971 60.7644 55.6434C60.7134 55.6948 60.6827 55.7308 60.6674 55.7514C60.6112 55.8234 60.5602 55.9005 60.5296 55.9828C60.4938 56.065 60.4785 56.1524 60.4887 56.2399C60.4938 56.3324 60.5295 56.425 60.5908 56.5226C60.647 56.6203 60.744 56.7232 60.8716 56.826C60.9789 56.9186 61.0861 56.9751 61.1831 57.0111C61.2801 57.042 61.372 57.0574 61.4537 57.042C61.5354 57.0317 61.612 57.006 61.6835 56.9546C61.7549 56.9134 61.8162 56.8517 61.8724 56.7849C61.9541 56.682 62.0153 56.5895 62.0511 56.5124L60.8716 55.5457ZM63.0518 56.281C62.9804 56.4198 62.8987 56.5689 62.7965 56.7232C62.6944 56.8826 62.5872 57.0265 62.4749 57.1705C62.3523 57.3196 62.2196 57.4636 62.0715 57.5819C61.9234 57.7053 61.7652 57.7927 61.5865 57.8441C61.4129 57.8955 61.2188 57.8955 61.0095 57.8441C60.8002 57.7978 60.5755 57.6744 60.3355 57.479C60.116 57.2991 59.9577 57.1191 59.8556 56.9391C59.7535 56.754 59.6973 56.5689 59.682 56.389C59.6718 56.209 59.6922 56.0393 59.7586 55.8645C59.8249 55.6948 59.9117 55.5457 60.0292 55.3966C60.0394 55.3812 60.0598 55.3606 60.0802 55.3298C60.1058 55.304 60.1313 55.2681 60.1568 55.2372C60.1824 55.2012 60.213 55.1806 60.2436 55.1498C60.2692 55.1189 60.2896 55.0984 60.3049 55.0881L59.1152 54.1214L59.6207 53.4941L63.0518 56.281Z" fill="#4C6BB0"/>
<path d="M57.1392 58.7499L56.5928 59.2486L57.4762 59.8554L58.0174 60.3078L58.0378 60.2976L57.6446 59.696L57.1392 58.7499ZM56.0567 58.8579L56.8328 58.1534L56.3427 57.2125L56.9349 56.6777L58.9722 60.8991L58.5075 61.3208L54.5454 58.8476L55.1683 58.2768L56.0567 58.8579Z" fill="#4C6BB0"/>
<path d="M49.6797 61.1367L50.1596 60.8385L50.6447 61.4761L52.83 60.1289L55.1531 63.9492L54.4741 64.3709L52.5287 61.1881L51.5586 61.7846L53.4988 64.9725L52.8147 65.3941L50.8745 62.2062L50.4762 62.453L49.6797 61.1367Z" fill="#4C6BB0"/>
<path d="M46.9226 65.7688L47.086 66.391L47.1167 66.3756L47.1065 65.6608L47.469 63.018L48.0612 62.7969L49.6236 66.9874L48.8782 67.2702L48.0561 65.0747L47.8979 64.4422L47.8621 64.4525L47.8723 65.1981L47.4894 67.7947L46.9073 68.0158L45.3398 63.8252L46.0904 63.5424L46.9226 65.7688Z" fill="#4C6BB0"/>
<path d="M41.9649 68.4722C42.0058 68.4773 42.0415 68.4773 42.0824 68.4773C42.1232 68.4722 42.1692 68.467 42.2202 68.4567C42.3019 68.4413 42.3836 68.4156 42.45 68.3745C42.5215 68.3385 42.5776 68.2922 42.6236 68.2254C42.6696 68.1585 42.7002 68.0763 42.7104 67.9786C42.7257 67.8809 42.7206 67.7575 42.6951 67.6238C42.6491 67.3615 42.5572 67.1816 42.4194 67.0839C42.2866 66.9862 42.1232 66.9553 41.9445 66.9862L41.7045 67.0325L41.9649 68.4722ZM40.5149 64.9089L41.3012 64.7649L41.6178 66.5234L41.9343 66.3435L42.3377 64.5798L43.2414 64.4102L42.7972 66.0401L42.5317 66.3486C42.7666 66.3692 42.9708 66.4772 43.1546 66.6623C43.3384 66.8474 43.461 67.1302 43.5324 67.5107C43.5835 67.7832 43.5835 68.0145 43.5426 68.2048C43.5018 68.4002 43.4201 68.5647 43.3027 68.6984C43.1852 68.8321 43.0372 68.9401 42.8483 69.0223C42.6644 69.1046 42.4602 69.1663 42.2304 69.2074C42.1794 69.2177 42.1079 69.228 42.0262 69.2383C41.9445 69.2486 41.8577 69.2589 41.776 69.264C41.6892 69.2691 41.6075 69.2743 41.5207 69.2743C41.439 69.2743 41.3625 69.2691 41.2961 69.2691L40.5149 64.9089Z" fill="#4C6BB0"/>
<path d="M36.9918 67.1509C36.9918 67.5211 36.6905 67.8244 36.3229 67.8244C35.9553 67.8244 35.6541 67.5211 35.6541 67.1509C35.6541 66.7806 35.9502 66.4824 36.3229 66.4824C36.6956 66.4824 36.9918 66.7806 36.9918 67.1509Z" fill="#4C6BB0"/>
</svg>
