<svg width="130" height="130" viewBox="0 0 130 130" fill="none" xmlns="http://www.w3.org/2000/svg">
<circle cx="64.1333" cy="64.1333" r="64.1333" fill="white"/>
<path d="M63.5682 106.715C63.048 107.13 62.7969 106.841 62.6982 106.534C62.6444 106.389 62.6264 106.236 62.6175 106.091C62.5636 105.468 62.5009 104.863 62.4829 104.24C62.474 103.869 62.5278 103.49 62.5726 103.12C62.6533 102.569 62.743 102.027 62.8327 101.476C62.9493 100.807 63.0749 100.139 63.1736 99.4613C63.353 98.2418 63.5055 97.0133 63.6759 95.8029C63.7207 95.4687 63.7387 95.1164 63.9988 94.8726C64.4114 94.9177 64.7164 95.2248 64.7522 95.6494C64.7792 95.9113 64.7522 96.1823 64.6984 96.4443C64.5998 96.8869 64.5998 97.3114 64.7702 97.745C64.824 97.8715 64.8509 98.007 64.9047 98.1334C65.2635 99.0367 65.0482 99.8406 64.5101 100.59C64.2589 100.934 64.0257 101.286 63.945 101.729C63.936 101.719 63.6759 106.624 63.5682 106.715Z" fill="#4067AC"/>
<path d="M63.4879 90.2478C63.5776 90.031 63.6404 89.8052 63.757 89.5974C64.1158 88.9651 64.1965 88.2696 64.2324 87.565C64.2503 87.2489 64.0978 87.005 63.8018 86.8875C63.6942 86.8424 63.5955 86.8062 63.4879 86.7701C62.8241 86.5714 62.6986 86.2101 63.0753 85.6139C63.5327 84.9003 63.9812 84.1957 64.4387 83.4912C64.5822 83.2744 65.0845 83.0486 65.0845 83.157C65.0935 83.6086 65.2908 83.9067 65.6944 84.1054C66.0891 84.3041 66.1609 84.4938 66.0981 84.9364C66.0801 85.0448 66.0622 85.1623 66.0263 85.2707C65.7572 86.2281 65.515 87.1856 65.2011 88.125C65.0307 88.649 64.7795 89.1458 64.5015 89.6335C64.358 89.8774 64.0978 90.0671 63.8736 90.2478C63.8018 90.311 63.6583 90.2929 63.5507 90.32C63.5327 90.2929 63.5148 90.2658 63.4879 90.2478Z" fill="#4067AC"/>
<path d="M67.5423 93.2193C67.4795 93.427 67.4257 93.6619 67.1835 93.707C66.9323 93.7522 66.744 93.5716 66.6543 93.3638C66.5107 93.0025 66.3852 92.6321 66.3224 92.2618C66.2596 91.8643 66.2865 91.4579 66.2686 91.0604C66.2686 90.9701 66.2686 90.8798 66.2865 90.7985C66.3224 90.5546 66.3941 90.3288 66.6632 90.2475C66.8516 90.1842 67.1476 90.3288 67.2911 90.5817C67.3898 90.7443 67.4885 90.943 67.5064 91.1327C67.5782 91.7921 67.5512 93.1922 67.5423 93.2193Z" fill="#4067AC"/>
<path d="M82.9342 38.2453C83.0329 38.3808 83.1315 38.4892 83.2033 38.6247C83.3468 38.8866 83.4813 39.1576 83.6069 39.4376C83.8132 39.9073 84.0913 40.3409 84.4501 40.7203C84.764 41.0545 84.9613 41.4339 84.8806 41.9217C84.8088 42.3823 84.6384 42.0391 84.181 41.9759C83.6607 41.8946 82.7189 41.0184 82.2435 41.2261C81.5349 41.5423 81.0416 41.6507 80.3061 41.9036C79.3822 42.2288 78.7184 42.8972 77.7497 42.7617C76.7361 42.6172 76.4132 43.8547 76.1262 44.8483C76.0903 44.9657 76.0634 45.0922 76.0185 45.2096C75.7674 45.9593 75.0139 46.1219 74.4578 45.5529C74.1259 45.2186 74.0093 44.7489 74.2784 44.3425C74.7 43.7102 74.8525 43.0146 74.9242 42.283C74.9601 41.9126 75.1754 41.6958 75.5162 41.5784C76.0455 41.3977 76.1621 41.19 75.9737 40.6661C75.8212 40.2415 75.597 39.8441 75.4355 39.4196C75.301 39.0853 75.1664 38.7421 75.1036 38.3898C75.0767 38.2272 75.1754 37.9833 75.292 37.8659C75.4535 37.6943 75.6687 37.8207 75.8392 37.9382C76.1979 38.2091 76.5747 38.4711 76.9065 38.7782C77.7138 39.5099 78.0995 39.5008 78.8709 38.724C79.2297 38.3537 79.6064 37.9924 80.019 37.6943C80.2792 37.5046 80.62 37.3962 80.9429 37.3239C81.3017 37.2607 81.5977 37.4233 81.7681 37.7756C81.8489 37.9472 81.9565 38.1008 82.0641 38.2543C82.3242 38.5976 82.4588 38.6066 82.7907 38.3266C82.8086 38.3085 82.8535 38.2904 82.9342 38.2453Z" fill="#4067AC"/>
<path d="M44.732 54.3325C44.7051 54.4861 44.6962 54.6396 44.6423 54.7842C44.3463 55.5249 43.9248 56.1843 43.3687 56.7262C42.6331 57.4489 42.2923 58.307 42.1667 59.3006C42.1398 59.5174 42.077 59.7251 42.0501 59.9329C41.9873 60.5562 41.6375 60.9355 41.0634 61.1433C40.8661 61.2156 40.6688 61.3059 40.4804 61.4053C40.0857 61.5949 39.7897 61.884 39.5745 62.2724C39.0632 63.2389 38.3456 64.0158 37.5025 64.6932C37.332 64.8287 37.1527 64.9913 36.8567 64.8558C36.74 64.4584 36.8477 64.097 37.0719 63.7628C37.4128 63.2389 37.7985 62.7331 38.1303 62.2001C38.8659 60.9807 39.9333 60.0865 40.9379 59.1199C41.7631 58.325 42.4896 57.4398 42.8664 56.3197C43.1265 55.552 43.6736 54.9648 44.2836 54.4499C44.3822 54.3686 44.5257 54.3325 44.6513 54.2693C44.6782 54.2874 44.7051 54.3145 44.732 54.3325Z" fill="#4067AC"/>
<path d="M64.2683 43.1683C63.9992 43.1231 63.775 43.105 63.5597 43.0418C63.1202 42.9244 62.8959 42.5902 62.9498 42.1385C63.0036 41.723 63.165 41.3617 63.5328 41.1359C63.8198 40.9552 64.071 40.9914 64.1697 41.2985C64.3311 41.7682 64.6361 42.0572 65.0397 42.283C65.1204 42.3192 65.1832 42.3914 65.2371 42.4547C65.4792 42.7528 65.3716 43.105 64.9949 43.1683C64.7527 43.2044 64.4926 43.1683 64.2683 43.1683Z" fill="#4067AC"/>
<path d="M70.4312 47.6663C70.5657 47.2147 70.8348 47.025 71.1129 46.8534C71.7318 46.4921 72.3955 46.2482 73.1221 46.203C73.2118 46.194 73.3104 46.1759 73.3822 46.212C73.5257 46.2843 73.7141 46.3927 73.7589 46.5192C73.8038 46.6456 73.7231 46.8714 73.6334 46.9889C73.5257 47.1153 73.3553 47.2057 73.1938 47.2418C72.4763 47.4224 71.7587 47.5941 71.0411 47.7386C70.8527 47.7747 70.6554 47.7025 70.4312 47.6663Z" fill="#4067AC"/>
<path d="M56.2937 47.7478C56.8408 47.8201 57.0023 48.1452 56.7153 48.5246C56.5897 48.6872 56.4193 48.8679 56.2309 48.9311C55.7734 49.0847 55.298 49.2292 54.8226 49.2834C54.3472 49.3466 54.1499 48.9943 54.4011 48.5788C54.5087 48.3891 54.6791 48.2175 54.8585 48.1001C55.307 47.793 55.8452 47.7749 56.2937 47.7478Z" fill="#4067AC"/>
<path d="M53.935 41.759C53.935 41.759 54.4732 41.4519 54.4732 41.7229C54.4642 41.9848 54.4821 42.0571 54.6795 42.4275C54.8858 42.7888 54.9037 43.0598 54.814 43.1952C54.7243 43.3307 54.536 43.3127 54.3566 43.1952C54.1772 43.0778 54.0157 43.0598 53.8901 42.8249C53.7735 42.59 53.6659 42.4365 53.6659 42.2468C53.6569 42.0481 53.7377 41.9577 53.935 41.759ZM29.5374 70.5739C29.1517 70.7184 28.8826 70.9623 28.7032 71.3326C28.5956 71.5404 28.4969 71.7752 28.192 71.7933C28.1471 71.7572 28.1112 71.7391 28.0933 71.712C27.7794 71.0616 28.1561 69.9325 28.7929 69.6073C29.0082 69.4989 29.2145 69.3906 29.4387 69.3002C29.8065 69.1738 30.0577 69.3725 30.0577 69.7519C30.0666 70.2035 29.9411 70.4203 29.5374 70.5739ZM101.465 45.7786C98.2722 41.6958 96.3975 39.7176 96.0836 39.0401C95.8952 38.6427 94.0026 37.071 93.5811 36.8993C93.1774 36.7277 92.5944 36.0773 92.2356 35.8335C91.5898 35.3728 90.9529 34.9031 90.3699 34.3792C89.8138 33.8733 89.2666 33.3404 88.9168 32.6539C88.4683 31.7596 87.8135 31.0551 87.1229 30.3505C86.4322 29.664 85.5532 29.4382 84.701 29.1491C84.5844 29.113 84.4499 29.113 84.3243 29.1311C83.8579 29.2124 83.3825 29.2666 82.934 29.4111C82.1895 29.655 81.4361 29.8176 80.6468 29.7905C79.5614 29.7543 78.512 29.5917 77.624 28.9324C76.5924 28.1736 75.4354 27.8936 74.1975 27.9387C73.5248 27.9658 72.8611 28.1104 72.1883 28.1917C71.5335 28.273 70.8698 28.3452 70.215 28.4355C69.7306 28.4988 69.2552 28.5891 68.7709 28.6794C68.0443 28.8149 67.2909 28.8782 66.6002 29.122C65.6584 29.4563 64.7704 29.935 63.8644 30.3505C63.5146 30.5221 63.1738 30.7118 62.824 30.8834C61.9449 31.3351 61.0659 31.7958 60.1779 32.2293C59.541 32.5455 58.9221 32.9249 58.2494 33.1507C56.6708 33.7017 55.1638 34.3882 53.8184 35.4089C53.4147 35.716 53.0111 36.0503 52.6703 36.4296C52.2487 36.8813 51.8989 37.3871 51.5132 37.8659C51.0198 38.462 50.5086 39.0492 50.0063 39.6453C49.3604 40.4312 48.6518 41.1809 48.0957 42.021C47.6203 42.7346 45.2613 45.6432 44.6155 46.4471C44.3464 46.7813 44.0683 47.0974 43.8082 47.4497C43.279 48.1724 41.9156 49.997 41.7541 50.1957C41.4402 50.5841 41.1083 50.9635 40.8123 51.37C40.319 52.0294 37.9779 54.7392 37.3321 55.4528C36.5248 56.3381 35.7803 57.2684 34.982 58.1537C34.112 59.1292 33.2867 60.1138 32.5961 61.2158C32.0848 62.0288 31.5646 62.8237 31.1161 63.6727C30.5689 64.7025 29.9859 65.6961 29.1876 66.5452C28.488 67.2949 27.8691 68.0989 27.3757 68.9931C26.8734 69.9235 26.6581 70.9261 26.5684 71.9649C26.5326 72.3714 26.6312 72.7688 26.9811 73.0127C27.295 73.2386 27.6358 73.4463 27.9946 73.5728C29.5823 74.0967 31.1968 74.0425 32.8114 73.7083C34.1927 73.4282 35.574 73.3018 36.9823 73.6179C38.256 73.907 39.44 73.6812 40.4894 72.8682C40.7585 72.6604 43.5391 70.7094 44.4989 69.7157C44.9743 69.237 45.4855 68.7944 46.0058 68.3608C46.5081 67.9453 47.0552 67.593 47.5575 67.1865C48.8402 66.1387 50.1139 65.0819 51.3607 63.9979C52.6613 62.8688 55.5406 60.7822 55.5944 60.7551C56.9668 60.0054 58.2763 59.1292 59.7115 58.4879C61.64 57.6388 63.4787 56.9162 65.9634 57.6388C68.448 58.3614 69.2194 62.905 68.8067 64.0521C68.439 65.0728 68.1878 66.22 67.4434 66.9968C66.9231 67.5478 63.7927 72.7959 63.8286 74.6296C63.8286 74.6386 63.8286 74.6567 63.8286 74.6657C63.7748 75.5781 63.7658 76.4723 64.0259 77.3666C64.3129 78.3241 64.5192 79.2906 64.7704 80.2571C64.7883 80.3384 64.9946 80.79 65.0395 80.8081C65.183 80.6274 65.3086 80.1939 65.4252 80.0042C65.7122 79.5435 65.7032 79.0467 65.5508 78.5499C65.3624 77.9537 65.1023 74.3496 65.7929 74.0244C66.5464 73.6541 66.8962 73.8889 66.9052 74.729C66.9052 75.7587 66.9231 76.7975 66.9321 77.8273C66.9411 78.8299 66.9321 79.8235 66.959 80.8171C66.9769 81.4133 67.0308 82.0004 67.0935 82.5876C67.1115 82.7592 67.6227 82.6779 67.6586 82.4701C67.7752 81.6933 67.8918 80.8984 67.9546 80.1126C68.0084 79.4893 67.9636 78.848 67.9905 78.2247C68.0443 77.0324 68.3134 75.8852 68.6453 74.738C68.8964 73.8257 69.2104 72.6243 69.8114 71.9288C70.2509 71.432 70.4931 70.7455 70.5738 70.0861C70.6366 69.5531 72.0986 69.9235 72.3408 69.8964C72.8341 69.8512 73.1122 69.5531 73.1391 69.0563C73.1481 68.8847 72.9328 67.3853 72.9149 66.7981C72.888 66.1478 73.2198 65.66 73.9015 65.8135C74.2693 65.9039 74.4397 65.669 74.359 65.2987C74.3231 65.127 72.6189 60.6377 72.2691 60.2764C71.982 59.9964 69.2283 57.0607 67.2101 55.9497C65.3893 54.938 59.855 56.5097 58.4916 57.6207C57.6664 58.2982 55.6123 59.5538 54.3476 60.5474C53.8991 60.8906 53.4775 61.261 53.038 61.6133C52.8138 61.8029 50.8584 63.465 50.5624 63.6727C49.9614 64.0883 49.3604 64.5038 48.7415 64.8832C48.4455 65.0638 47.3512 65.8135 47.0283 65.94C46.8669 66.0032 46.6875 66.0303 46.5619 65.8226C46.5709 65.7774 48.0509 64.0702 48.607 63.7179C49.0106 63.465 49.495 63.203 49.9076 62.9591C50.6521 62.5346 51.5311 61.4778 52.2577 61.0171C52.3563 60.9539 52.2038 60.4571 52.0783 60.43C51.5132 60.3216 51.0557 61.2519 50.5714 61.5952C49.6385 62.2636 48.7057 62.9953 47.7459 63.6998C47.5037 63.8805 46.0596 65.0728 45.5752 65.4884C44.5617 66.3374 43.6647 67.2949 42.7229 68.2163C41.9156 69.0112 39.4489 70.6552 39.1709 70.8358C38.2021 71.4681 37.1078 71.6397 35.9866 71.721C35.7086 71.7391 35.4305 71.7572 35.1614 71.7301C34.6591 71.6849 34.4977 71.4049 34.695 70.9532C34.7129 70.9171 35.0538 69.9145 34.8834 69.3996C34.7757 69.1015 34.7488 68.7673 34.704 68.4331C34.6501 67.9995 34.7309 67.602 35.0179 67.2407C35.1435 67.0781 35.2152 66.8072 35.1794 66.6175C35.1166 66.3736 34.8295 66.3916 34.5963 66.3736C34.2286 66.3555 32.9549 66.7439 32.6678 66.7349C32.1207 66.7078 31.8426 66.3826 31.9144 65.8316C31.9682 65.4161 32.0669 64.9916 32.2194 64.5941C32.7306 63.2392 33.3226 61.9204 34.3362 60.8364C35.1076 59.9964 35.8431 59.1112 36.5338 58.2079C37.1706 57.3678 37.8523 56.5729 38.543 55.769C39.3682 54.8205 39.9333 54.0618 40.6778 53.0501C40.8572 52.8062 41.7003 51.6048 41.8528 51.379C42.3013 50.7467 42.2475 50.7738 42.8126 50.2048C42.9651 50.0512 44.6693 47.6485 44.8577 47.3413C45.4766 46.3297 46.239 45.4354 46.9745 44.505C47.5037 43.8366 48.0419 43.1862 48.6608 42.59C49.2977 41.9848 49.8179 41.2351 50.4189 40.5847C50.8404 40.1241 51.3069 39.6905 51.7643 39.2659C51.9886 39.0672 52.2756 38.9679 52.5626 39.1395C52.8317 39.3111 52.8586 39.6092 52.8048 39.8802C52.751 40.1421 52.6703 40.3951 52.5447 40.6299C52.159 41.3525 51.8271 42.1023 51.7464 42.9333C51.7105 43.3127 51.576 43.6379 51.3248 43.9179C51.0557 44.225 50.7687 44.5321 50.5086 44.8483C49.8897 45.607 49.2707 46.3748 48.6787 47.1516C48.4724 47.4226 48.3379 47.7388 48.1854 48.0459C48.1316 48.1633 48.1495 48.3078 48.1316 48.4524C48.1675 48.4614 48.2034 48.4885 48.2392 48.4975C48.3469 48.4253 48.4635 48.353 48.5532 48.2627C48.7954 47.9917 49.0465 47.7207 49.2528 47.4226C49.6206 46.8987 50.096 46.6368 50.7328 46.6097C51.2979 46.5826 51.5939 46.3025 51.7105 45.7425C51.872 44.9567 52.0334 44.5682 53.1457 44.9386C53.8274 45.1734 54.536 45.2728 55.2535 45.2005C55.6213 45.1734 56.007 45.0921 56.3209 44.9205C56.9219 44.5863 57.5498 44.4598 58.2225 44.4328C58.7248 44.4057 59.2181 44.3244 59.7115 44.2521C59.9806 44.2069 60.1779 44.0443 60.2227 43.7733C60.2676 43.4933 60.1958 43.2223 59.9537 43.0688C59.7743 42.9604 59.541 42.8881 59.3258 42.8701C59.0029 42.852 58.671 42.8881 58.3481 42.8972C58.07 42.9243 57.8189 42.852 57.6126 42.6713C57.3524 42.4365 57.0923 42.2016 56.8591 41.9397C56.4644 41.488 56.303 40.9641 56.3658 40.368C56.4017 40.0699 56.4196 39.7628 56.4465 39.4647C56.4824 39.0401 56.3748 38.6698 56.007 38.3988C55.8724 38.2994 55.7469 38.1639 55.6392 38.0194C55.4867 37.8297 55.3163 37.8117 55.11 37.911C55.0203 37.9562 54.9306 38.0013 54.8409 38.0465C54.4373 38.2272 53.9798 38.1007 53.7018 37.7394C53.4506 37.4052 53.4596 37.0439 53.8184 36.6916C54.1951 36.3122 54.5987 35.9509 55.0383 35.6438C55.6213 35.2373 56.2223 34.8398 56.8501 34.5147C57.7023 34.063 58.5903 33.6746 59.4603 33.2591C59.8191 33.0875 60.1779 32.8887 60.5457 32.7352C62.0705 32.0939 63.5954 31.4616 65.1202 30.8293C65.5597 30.6396 65.9813 30.4047 66.4298 30.2602C68.0802 29.7272 69.6858 29.0046 71.4528 28.9143C71.5694 28.9143 71.695 28.8601 71.8206 28.8511C71.991 28.824 72.1704 28.8149 72.3408 28.824C72.8611 28.8601 73.3903 28.9053 73.9105 28.9504C74.0451 28.9685 74.1796 29.0046 74.3052 29.0588C74.7895 29.2575 74.8792 29.7634 74.4935 30.1247C74.3411 30.2692 74.1617 30.3866 74.0002 30.5221C73.776 30.7028 73.6324 30.9376 73.5876 31.2177C73.5338 31.588 73.7849 31.868 74.1617 31.8319C74.3321 31.8138 74.5025 31.7506 74.664 31.7054C75.4084 31.4796 76.1529 31.2448 76.8974 31.0551C77.1665 30.9828 77.4715 30.9918 77.7495 31.037C78.1621 31.1002 78.5747 31.2357 78.9874 31.3351C79.4358 31.4525 79.6511 31.7416 79.5704 32.2022C79.4717 32.7623 79.1578 33.1868 78.6555 33.4127C78.2518 33.5933 77.8034 33.7198 77.3728 33.8191C76.9961 33.9004 76.6373 33.9998 76.3503 34.2617C76.1709 34.4334 76.0453 34.6411 76.126 34.9031C76.1978 35.156 76.422 35.2283 76.6552 35.2554C77.0947 35.3096 77.5253 35.3457 77.9648 35.3908C78.8528 35.4812 79.4538 34.9844 79.974 34.3521C80.0727 34.2346 80.1086 34.063 80.1444 33.9004C80.3777 32.8074 80.4943 32.681 81.5886 32.4823C81.6155 32.4823 81.6424 32.4732 81.6603 32.4732C82.1895 32.3829 82.4586 32.5365 82.6649 33.0333C82.7457 33.241 82.8264 33.4578 82.934 33.6565C83.0775 33.9095 83.3107 34.0811 83.6157 34.0088C83.9117 33.9456 84.0194 33.6927 84.0642 33.4217C84.1898 32.6991 84.1718 32.0216 83.6337 31.4345C83.3556 31.1364 83.4094 30.757 83.7323 30.5041C84.0104 30.2782 84.3333 30.0976 84.6562 29.935C85.0957 29.7092 85.5263 29.7905 85.9389 30.0434C86.7551 30.5492 87.2933 31.299 87.7059 32.1481C87.7687 32.2835 87.8404 32.4461 87.8225 32.5816C87.7149 33.2862 87.7777 33.9817 87.8315 34.6863C87.8404 34.8037 87.8135 34.9121 87.7956 35.0205C87.679 35.8335 87.2754 35.987 86.6206 35.4992C86.4053 35.3367 86.1452 35.165 85.894 35.156C85.3379 35.1289 84.7997 35.0657 84.2795 34.8669C84.1718 34.8308 84.0283 34.8037 83.9117 34.8308C83.7054 34.885 83.4901 34.9753 83.3018 35.0837C83.1583 35.165 83.1493 35.3276 83.23 35.4812C83.4991 35.978 84.2795 36.3574 84.8087 36.1586C85.616 35.8606 86.2707 36.1225 86.9076 36.6013C87.3292 36.9174 87.7328 37.2426 88.0557 37.6762C88.3607 38.0917 88.6567 38.0646 89.0155 37.6762C89.141 37.5316 89.2577 37.3781 89.3832 37.2516C89.5806 37.0439 89.8227 36.9897 90.1008 37.0619C90.8363 37.2426 91.4821 37.5678 92.0114 38.1188C92.6123 38.733 94.2807 39.6182 99.6535 46.3748C105.026 53.1224 106.462 60.981 107.224 60.99C107.986 60.999 104.748 49.988 101.465 45.7786Z" fill="#4067AC"/>
<path d="M54.3651 58.1265C54.3023 58.7136 53.8449 59.0749 53.1901 59.0839C53.1004 58.6233 53.4233 58.4065 53.7014 58.1626C53.8987 58.009 54.114 57.9006 54.3651 58.1265Z" fill="#4067AC"/>
<path d="M65.0034 18.8952C40.5394 18.8952 20.6369 39.2021 20.6369 64.1514C20.6369 89.1097 40.5394 109.417 65.0034 109.417C89.4675 109.417 109.37 89.1097 109.37 64.1514C109.379 39.2021 89.4766 18.8952 65.0034 18.8952ZM65.0034 110.675C39.3537 110.675 18.4828 89.7975 18.4828 64.1514C18.4828 38.5053 39.3537 17.6373 65.0034 17.6373C90.6532 17.6373 111.524 38.4962 111.524 64.1514C111.533 89.8065 90.6622 110.675 65.0034 110.675ZM65.0034 1.91843C30.6832 1.91843 2.75266 29.845 2.75266 64.1604C2.75266 98.4849 30.6832 126.402 65.0034 126.402C99.3237 126.402 127.254 98.4849 127.254 64.1604C127.254 29.845 99.3328 1.91843 65.0034 1.91843ZM65.0034 128.294C29.6423 128.294 0.870117 99.5256 0.870117 64.1604C0.870117 28.8043 29.6423 0.0270996 65.0034 0.0270996C100.374 0.0270996 129.137 28.7952 129.137 64.1604C129.146 99.5256 100.374 128.294 65.0034 128.294Z" fill="#4067AC"/>
<path d="M53.6208 117.328C53.5759 117.301 53.4952 117.274 53.3876 117.229C53.271 117.192 53.1902 117.165 53.1454 117.156C52.9839 117.12 52.8314 117.111 52.67 117.12C52.5175 117.129 52.374 117.183 52.2305 117.256C52.0959 117.337 51.9704 117.463 51.8717 117.635C51.764 117.807 51.6833 118.033 51.6205 118.331C51.5667 118.575 51.5577 118.773 51.5757 118.963C51.5936 119.153 51.6564 119.297 51.7371 119.415C51.8179 119.541 51.9255 119.64 52.06 119.713C52.1856 119.785 52.3291 119.848 52.4816 119.875C52.7059 119.929 52.8942 119.947 53.0467 119.938L53.6208 117.328ZM54.1948 121.348C53.9168 121.348 53.6208 121.32 53.3068 121.284C52.9839 121.248 52.67 121.194 52.3561 121.131C52.0242 121.059 51.7013 120.95 51.3873 120.824C51.0734 120.688 50.8133 120.508 50.598 120.264C50.3827 120.02 50.2302 119.722 50.1495 119.351C50.0598 118.99 50.0777 118.529 50.1943 117.996C50.302 117.509 50.4545 117.111 50.6608 116.804C50.8671 116.497 51.1093 116.262 51.3783 116.099C51.6474 115.937 51.9434 115.838 52.2663 115.81C52.5803 115.774 52.8853 115.792 53.1992 115.865C53.2351 115.874 53.2799 115.883 53.3427 115.901C53.4145 115.91 53.4773 115.928 53.549 115.946C53.6208 115.973 53.6925 115.991 53.7553 116.009C53.8181 116.036 53.8719 116.054 53.8988 116.072L54.4729 113.426L55.8453 113.733L54.1948 121.348Z" fill="#4067AC"/>
<path d="M44.911 114.708C45.0635 114.347 45.1801 113.995 45.2698 113.661C45.3595 113.317 45.4044 113.028 45.4044 112.757C45.4044 112.486 45.3595 112.26 45.2608 112.062C45.1711 111.872 45.0097 111.727 44.7855 111.628C44.3908 111.466 44.0051 111.547 43.6373 111.863C43.2696 112.188 42.9018 112.802 42.5251 113.697C42.3816 114.049 42.265 114.392 42.1753 114.717C42.0856 115.052 42.0407 115.35 42.0407 115.63C42.0407 115.901 42.0856 116.135 42.1753 116.334C42.2739 116.533 42.4354 116.677 42.6596 116.777C43.449 117.12 44.2024 116.425 44.911 114.708ZM46.2744 115.286C45.7631 116.515 45.1711 117.364 44.4805 117.834C43.7988 118.303 43.0274 118.358 42.1663 117.996C41.7178 117.807 41.368 117.554 41.1258 117.247C40.8747 116.939 40.7132 116.578 40.6414 116.163C40.5697 115.738 40.5876 115.286 40.6773 114.772C40.776 114.275 40.9374 113.724 41.1707 113.155C41.6819 111.917 42.2829 111.077 42.9825 110.607C43.6732 110.147 44.4446 110.093 45.2878 110.445C45.7452 110.634 46.095 110.887 46.3372 111.195C46.5794 111.511 46.7408 111.872 46.8126 112.288C46.8844 112.703 46.8664 113.155 46.7767 113.67C46.6781 114.166 46.5076 114.708 46.2744 115.286Z" fill="#4067AC"/>
<path d="M35.1795 105.377C35.4307 105.35 35.7177 105.386 36.0316 105.495C36.3456 105.612 36.6326 105.748 36.9017 105.928C37.2426 106.154 37.5116 106.416 37.7269 106.723C37.9422 107.021 38.0767 107.383 38.1216 107.789C38.1664 108.205 38.1126 108.674 37.9512 109.189C37.7897 109.713 37.5116 110.291 37.099 110.932C36.6685 111.601 36.2469 112.107 35.8253 112.459C35.4038 112.811 35.0001 113.046 34.5965 113.155C34.2018 113.272 33.8161 113.281 33.4573 113.2C33.0896 113.118 32.7667 112.974 32.4617 112.775C32.1567 112.576 31.9056 112.378 31.7083 112.179C31.5109 111.98 31.3584 111.8 31.2598 111.646L32.1657 110.752C32.2464 110.896 32.3541 111.032 32.4886 111.167C32.6232 111.312 32.8026 111.447 33.0178 111.592C33.4484 111.872 33.9058 111.899 34.3812 111.673C34.8566 111.447 35.35 110.932 35.8702 110.12C36.0944 109.776 36.2649 109.442 36.3994 109.117C36.525 108.801 36.6057 108.503 36.6147 108.223C36.6326 107.943 36.5878 107.681 36.4801 107.446C36.3725 107.211 36.1931 107.021 35.9509 106.859C35.7267 106.714 35.5204 106.624 35.323 106.579C35.1347 106.533 34.9463 106.515 34.7669 106.515L35.1795 105.377Z" fill="#4067AC"/>
<path d="M29.0258 100.156C29.277 100.166 29.555 100.256 29.8421 100.409C30.1381 100.563 30.3982 100.762 30.6314 100.978C30.9274 101.24 31.1696 101.548 31.331 101.882C31.4925 102.216 31.5732 102.595 31.5463 103.011C31.5284 103.417 31.4028 103.878 31.1606 104.366C30.9184 104.863 30.5507 105.387 30.0394 105.956C29.5102 106.543 29.0079 106.976 28.5415 107.265C28.0661 107.536 27.6265 107.708 27.2229 107.753C26.8103 107.798 26.4336 107.753 26.0838 107.618C25.7429 107.482 25.4379 107.292 25.1689 107.049C24.8998 106.805 24.6845 106.57 24.5141 106.335C24.3526 106.109 24.236 105.91 24.1553 105.739L25.1958 104.989C25.2496 105.143 25.3393 105.296 25.4559 105.45C25.5635 105.612 25.716 105.784 25.9133 105.956C26.299 106.308 26.7385 106.398 27.2408 106.254C27.7432 106.1 28.3082 105.667 28.9451 104.953C29.2142 104.646 29.4474 104.339 29.6268 104.05C29.8062 103.752 29.9228 103.463 29.9856 103.182C30.0484 102.912 30.0484 102.65 29.9766 102.415C29.9048 102.171 29.7703 101.945 29.5461 101.746C29.3487 101.566 29.1604 101.448 28.981 101.376C28.7926 101.304 28.6132 101.259 28.4428 101.231L29.0258 100.156Z" fill="#4067AC"/>
<path d="M20.9806 96.6876L20.0477 97.2838L20.0836 97.338L21.2766 96.9315L25.8601 96.1637L26.5418 97.0399L20.3796 101.882L19.5185 100.761L22.7387 98.2413L23.7074 97.6361L23.6805 97.5819L22.4427 97.9883L17.9219 98.7019L17.2402 97.8348L23.4024 92.9932L24.2725 94.1042L20.9806 96.6876Z" fill="#4067AC"/>
<path d="M15.688 87.944L14.6565 88.3504L14.6834 88.4046L15.9302 88.233L20.5855 88.3414L21.0878 89.335L14.1363 92.9301L13.4905 91.6745L17.1232 89.7867L18.1906 89.3712L18.1637 89.317L16.872 89.4796L12.2885 89.335L11.7862 88.3595L18.7377 84.7554L19.3746 86.02L15.688 87.944ZM11.4454 91.9546C11.8311 91.7016 11.9387 91.4126 11.7683 91.0784C11.5978 90.7442 11.3018 90.6629 10.8892 90.8255L10.5215 89.7325C10.9789 89.5609 11.3736 89.5609 11.7055 89.7325C12.0374 89.9041 12.3244 90.2203 12.5576 90.6809C12.6832 90.9158 12.7639 91.1416 12.8267 91.3494C12.8895 91.5661 12.9074 91.7649 12.8895 91.9636C12.8715 92.1623 12.8088 92.3339 12.7101 92.5146C12.6025 92.6862 12.441 92.8488 12.2257 92.9933L11.4454 91.9546Z" fill="#4067AC"/>
<path d="M15.5898 76.5896C15.8051 76.7251 15.9934 76.9419 16.1549 77.2309C16.3253 77.52 16.4509 77.8271 16.5495 78.1252C16.6662 78.5136 16.711 78.893 16.6841 79.2633C16.6482 79.6337 16.5226 79.995 16.2894 80.3473C16.0652 80.6905 15.7243 81.0067 15.2669 81.3048C14.8094 81.6119 14.2264 81.8648 13.4909 82.0906C12.7374 82.3164 12.0916 82.4339 11.5445 82.4248C10.9973 82.4158 10.5399 82.3255 10.1631 82.1538C9.7864 81.9732 9.4904 81.7383 9.26616 81.4493C9.04192 81.1512 8.88046 80.826 8.77283 80.4828C8.66519 80.1305 8.6024 79.8234 8.58446 79.5343C8.55755 79.2633 8.55755 79.0285 8.57549 78.8388L9.84022 78.7394C9.81331 78.902 9.80434 79.0736 9.82228 79.2724C9.84022 79.4711 9.88506 79.6879 9.95682 79.9408C10.1093 80.4376 10.4412 80.7538 10.9435 80.8892C11.4548 81.0247 12.1634 80.9525 13.0693 80.6634C13.464 80.546 13.8138 80.4015 14.1188 80.2479C14.4237 80.0853 14.6749 79.9047 14.8722 79.6969C15.0695 79.4982 15.1951 79.2724 15.2579 79.0285C15.3297 78.7846 15.3117 78.5136 15.231 78.2245C15.1503 77.9807 15.0516 77.7729 14.935 77.6193C14.8094 77.4568 14.6839 77.3213 14.5493 77.2038L15.5898 76.5896Z" fill="#4067AC"/>
<path d="M11.535 71.3326L11.5798 71.6397L14.8986 71.2242L15.0691 72.6333L7.31026 73.5908L7.14881 72.1907L10.5752 71.7572L10.4138 71.4952L6.90663 70.2667L6.71826 68.677L10.1985 70.068L10.6649 70.5377L11.0237 69.9506L14.4412 67.4304L14.6475 69.1467L11.535 71.3326Z" fill="#4067AC"/>
<path d="M11.5173 61.9386L11.5891 60.6379L9.74132 60.9901L8.5035 61.1076V61.1527L9.73235 61.4147L11.5173 61.9386ZM12.7282 60.4482L12.6385 62.309L14.3966 62.86L14.3248 64.26L6.58398 61.5683L6.6378 60.4572L14.6119 58.5693L14.5311 60.0507L12.7282 60.4482Z" fill="#4067AC"/>
<path d="M9.45365 50.4125C9.41777 50.4758 9.39086 50.539 9.36395 50.6022C9.33704 50.6655 9.31911 50.7468 9.30117 50.8371C9.26529 50.9906 9.25632 51.1261 9.26529 51.2707C9.27426 51.4152 9.3191 51.5416 9.39086 51.6591C9.46262 51.7765 9.57923 51.8849 9.72274 51.9662C9.86626 52.0656 10.0636 52.1378 10.3058 52.192C10.7632 52.3004 11.113 52.2733 11.3552 52.1197C11.6064 51.9662 11.7589 51.7313 11.8306 51.4062L11.9293 50.9816L9.45365 50.4125ZM16.172 50.5209L15.858 51.903L12.8263 51.1984L12.898 51.8397L15.4454 53.7095L15.0777 55.2993L12.7724 53.4566L12.4675 52.8062C12.2701 53.1766 11.9562 53.4385 11.5346 53.6102C11.1041 53.7818 10.5659 53.7908 9.9111 53.6373C9.44468 53.5289 9.07692 53.3663 8.78989 53.1676C8.51183 52.9688 8.30553 52.725 8.17098 52.4359C8.03644 52.1559 7.96468 51.8397 7.95571 51.4784C7.94674 51.1261 7.99159 50.7468 8.09026 50.3493C8.1082 50.2499 8.14407 50.1325 8.17995 49.997C8.2248 49.8525 8.26068 49.708 8.3145 49.5634C8.35935 49.4189 8.41317 49.2834 8.47595 49.1479C8.52977 49.0124 8.58359 48.895 8.64638 48.7866L16.172 50.5209Z" fill="#4067AC"/>
<path d="M17.5542 38.2994L17.4107 38.5704L20.3258 40.2234L19.6351 41.4609L12.8271 37.6038L13.5178 36.3663L16.5316 38.0736L16.5496 37.7664L14.4596 34.6772L15.231 33.2861L17.2223 36.4747L17.321 37.1432L17.9578 36.8812L22.1915 36.8902L21.3484 38.4078L17.5542 38.2994Z" fill="#4067AC"/>
<path d="M23.5993 28.1464L22.819 27.3515L22.7831 27.3876L23.411 28.4806L25.1242 32.8434L24.4156 33.6925L18.4238 28.6432L19.3208 27.5592L22.4602 30.1968L23.2495 31.0278L23.2854 30.9827L22.6396 29.8536L20.9892 25.5449L21.6978 24.7048L27.6895 29.7542L26.7836 30.8381L23.5993 28.1464Z" fill="#4067AC"/>
<path d="M31.3759 21.8775L29.7255 23.2505L31.8244 25.8159L30.7391 26.7101L25.7788 20.64L26.8641 19.7367L28.9092 22.2388L30.5507 20.8749L28.5056 18.3728L29.5909 17.4695L34.5601 23.5486L33.4748 24.4519L31.3759 21.8775Z" fill="#4067AC"/>
<path d="M37.3677 17.0362C37.5561 17.3885 37.7534 17.6956 37.9508 17.9756C38.1571 18.2556 38.3634 18.4724 38.5697 18.6441C38.7849 18.8066 38.9912 18.915 39.1975 18.9602C39.4038 19.0054 39.6191 18.9692 39.8254 18.8608C40.2021 18.6531 40.3815 18.3008 40.3546 17.804C40.3367 17.3162 40.0855 16.6388 39.6281 15.7897C39.4397 15.4555 39.2514 15.1483 39.0451 14.8683C38.8477 14.5973 38.6414 14.3715 38.4261 14.1909C38.2198 14.0192 38.0046 13.9108 37.7893 13.8657C37.583 13.8115 37.3677 13.8476 37.1524 13.965C36.408 14.3896 36.4797 15.4013 37.3677 17.0362ZM36.0761 17.7498C35.4392 16.5846 35.1522 15.5819 35.215 14.7419C35.2778 13.9108 35.7173 13.2695 36.5335 12.8179C36.9641 12.583 37.3767 12.4656 37.7714 12.4565C38.166 12.4565 38.5517 12.5559 38.9105 12.7637C39.2783 12.9624 39.6281 13.2605 39.9689 13.6579C40.3008 14.0463 40.6237 14.516 40.9197 15.067C41.5566 16.2323 41.8346 17.2349 41.7629 18.075C41.6911 18.906 41.2516 19.5473 40.4533 19.9899C40.0228 20.2248 39.6101 20.3513 39.2155 20.3513C38.8208 20.3513 38.4351 20.2519 38.0763 20.0441C37.7086 19.8364 37.3588 19.5383 37.0269 19.1499C36.686 18.7615 36.3721 18.2918 36.0761 17.7498Z" fill="#4067AC"/>
<path d="M47.5479 9.67425L46.4267 10.0446C46.8213 11.4176 47.1263 12.5648 47.3416 13.5042C47.5568 14.4346 47.6196 15.1843 47.5389 15.7443C47.512 15.9431 47.4582 16.1147 47.3864 16.2682C47.3147 16.4128 47.2339 16.5392 47.1442 16.6386C47.0545 16.7289 46.9559 16.8102 46.8572 16.8734C46.7496 16.9367 46.6509 16.9818 46.5612 17.0089C46.4177 17.0631 46.2831 17.0902 46.1576 17.0993C46.032 17.1173 45.9244 17.1083 45.7988 17.0902L45.5476 15.8256C45.6911 15.8347 45.8167 15.7985 45.9244 15.7082C46.041 15.6179 46.1127 15.4643 46.1307 15.2566C46.1576 15.0759 46.1576 14.814 46.1217 14.4978C46.0858 14.1726 46.0141 13.7661 45.8974 13.2693C45.7898 12.7816 45.6373 12.2035 45.449 11.5441C45.2606 10.8847 45.0274 10.1078 44.7583 9.24068L48.4807 8.00317L50.9384 15.4734L49.6019 15.916L47.5479 9.67425Z" fill="#4067AC"/>
<path d="M55.8994 10.3879C55.9532 10.7853 56.025 11.1466 56.1147 11.4809C56.2044 11.8151 56.312 12.0951 56.4466 12.33C56.5811 12.5558 56.7426 12.7364 56.913 12.8539C57.0924 12.9803 57.2987 13.0165 57.5319 12.9894C57.9625 12.9261 58.2495 12.6642 58.4109 12.2035C58.5634 11.7338 58.5814 11.0202 58.4468 10.0537C58.393 9.67429 58.3302 9.32201 58.2405 8.98779C58.1508 8.65358 58.0432 8.37356 57.9086 8.13871C57.7741 7.90385 57.6216 7.72319 57.4332 7.60577C57.2538 7.47931 57.0386 7.43414 56.7964 7.47027C55.9532 7.56964 55.6483 8.54518 55.8994 10.3879ZM54.4374 10.5866C54.258 9.26781 54.3477 8.22903 54.7064 7.47027C55.0652 6.72055 55.7021 6.27793 56.626 6.15147C57.1103 6.08824 57.5319 6.12438 57.9086 6.2689C58.2764 6.41343 58.5993 6.64828 58.8684 6.97347C59.1375 7.29865 59.3617 7.69609 59.5322 8.18387C59.7026 8.67164 59.8371 9.22265 59.9179 9.83688C60.0972 11.1557 59.9986 12.1945 59.6308 12.9532C59.2631 13.7029 58.6262 14.1456 57.7203 14.263C57.2359 14.3262 56.8054 14.2901 56.4376 14.1546C56.0698 14.0101 55.7469 13.7752 55.4778 13.45C55.2087 13.1248 54.9935 12.7274 54.8231 12.2396C54.6437 11.7518 54.5181 11.2008 54.4374 10.5866Z" fill="#4067AC"/>
<path d="M68.5375 7.19917L66.1067 7.11787L65.9004 13.6848L64.4922 13.6306L64.7523 5.77197L68.5734 5.89843L68.5375 7.19917Z" fill="#4067AC"/>
<path d="M76.4123 10.794L76.7442 9.72815L76.6904 9.71911L76.0446 10.794L73.0487 14.3891L71.9634 14.1633L73.5241 6.44922L74.9054 6.72924L74.0892 10.7669L73.7394 11.8599L73.7932 11.878L74.4749 10.7669L77.4528 7.25314L78.5202 7.46993L76.9685 15.184L75.5871 14.904L76.4123 10.794Z" fill="#4067AC"/>
<path d="M85.1943 9.64695L84.2346 12.0407C84.0641 12.4742 84.0014 12.8085 84.0462 13.0433C84.1 13.2782 84.2615 13.4498 84.5485 13.5672C84.7458 13.6485 84.9521 13.6937 85.1495 13.7027C85.3468 13.7117 85.5262 13.6756 85.6787 13.6033L86.9793 10.3696L88.2799 10.9025L85.3468 18.2011L84.0462 17.6681L85.2302 14.7234C85.0508 14.7686 84.8266 14.7776 84.5485 14.7686C84.2704 14.7505 83.9655 14.6783 83.6336 14.5428C83.4094 14.4524 83.2031 14.326 83.0326 14.1815C82.8532 14.0369 82.7277 13.8563 82.638 13.6485C82.5483 13.4408 82.5124 13.1969 82.5214 12.9078C82.5303 12.6278 82.6111 12.3026 82.7635 11.9323L83.9027 9.10498L85.1943 9.64695Z" fill="#4067AC"/>
<path d="M93.2224 13.4678L96.5501 15.5453L95.8684 16.6473L93.7426 15.3285L92.729 16.9635L94.6575 18.1649L93.9758 19.2849L92.0474 18.0745L90.9889 19.7998L93.1506 21.1547L92.4779 22.2567L89.1143 20.1611L93.2224 13.4678Z" fill="#4067AC"/>
<path d="M99.2948 27.3876C99.0437 27.3876 98.7656 27.3063 98.4786 27.1438C98.1826 26.9902 97.9135 26.8005 97.6713 26.5928C97.3664 26.3308 97.1332 26.0327 96.9627 25.6985C96.7923 25.3643 96.7116 24.9939 96.7295 24.5784C96.7474 24.1629 96.8641 23.7113 97.0973 23.2145C97.3305 22.7177 97.6893 22.1847 98.1916 21.6066C98.7118 21.0104 99.2051 20.5678 99.6716 20.2878C100.138 19.9988 100.578 19.8271 100.99 19.782C101.394 19.7278 101.779 19.7639 102.12 19.9084C102.47 20.0439 102.775 20.2246 103.044 20.4594C103.313 20.7033 103.538 20.9382 103.699 21.164C103.869 21.3898 103.995 21.5885 104.067 21.7602L103.044 22.5189C102.981 22.3654 102.901 22.2208 102.784 22.0583C102.667 21.9047 102.515 21.7421 102.318 21.5705C101.932 21.2272 101.483 21.1369 100.981 21.2905C100.479 21.444 99.9138 21.8866 99.2948 22.6093C99.0258 22.9254 98.8015 23.2235 98.6311 23.5306C98.4607 23.8287 98.3441 24.1177 98.2813 24.3978C98.2275 24.6778 98.2275 24.9397 98.3082 25.1746C98.3799 25.4185 98.5234 25.6353 98.7477 25.834C98.945 26.0056 99.1334 26.1321 99.3218 26.1953C99.5101 26.2676 99.6895 26.3127 99.8689 26.3308L99.2948 27.3876Z" fill="#4067AC"/>
<path d="M105.493 29.6817L105.304 29.4469L102.703 31.5696L101.815 30.4676L107.887 25.5085L108.775 26.6196L106.085 28.8055L106.363 28.941L109.986 28.119L110.982 29.3565L107.304 30.043L106.65 29.8985L106.659 30.585L105.089 34.5414L104.013 33.1955L105.493 29.6817Z" fill="#4067AC"/>
<path d="M110.471 37.6488L111.099 38.796L112.471 37.5133L113.458 36.7546L113.44 36.7185L112.265 37.152L110.471 37.6488ZM110.211 39.5638L109.323 37.9379L107.538 38.4076L106.865 37.1791L114.848 35.3364L115.386 36.312L109.601 42.1562L108.883 40.8555L110.211 39.5638Z" fill="#4067AC"/>
<path d="M118.265 46.3476C118.265 46.2754 118.256 46.2121 118.247 46.1399C118.238 46.0766 118.211 45.9953 118.176 45.905C118.131 45.7605 118.059 45.634 117.978 45.5166C117.898 45.3992 117.79 45.3179 117.664 45.2546C117.539 45.1914 117.386 45.1643 117.216 45.1643C117.045 45.1643 116.839 45.2095 116.606 45.2908C116.166 45.4353 115.879 45.6431 115.754 45.905C115.628 46.167 115.619 46.456 115.718 46.7631L115.852 47.1696L118.265 46.3476ZM112.498 49.8343L112.049 48.4974L115 47.4858L114.606 46.9799L111.457 46.736L110.937 45.2005L113.861 45.5437L114.462 45.9321C114.444 45.5166 114.561 45.1282 114.839 44.7578C115.108 44.3965 115.565 44.0984 116.202 43.8726C116.651 43.7191 117.054 43.6558 117.395 43.6739C117.745 43.692 118.041 43.8004 118.31 43.972C118.57 44.1436 118.794 44.3785 118.992 44.6765C119.189 44.9746 119.342 45.3179 119.476 45.7063C119.512 45.7966 119.539 45.914 119.584 46.0586C119.62 46.1941 119.656 46.3386 119.691 46.4922C119.727 46.6367 119.754 46.7902 119.772 46.9257C119.799 47.0793 119.817 47.2057 119.817 47.3232L112.498 49.8343Z" fill="#4067AC"/>
<path d="M120.41 63.4831C120.41 63.4289 120.401 63.3476 120.392 63.2392C120.383 63.1308 120.365 63.0495 120.338 62.9953L116.499 63.1128C116.481 63.1579 116.481 63.2211 116.481 63.2934C116.481 63.3657 116.49 63.447 116.49 63.5192C116.499 63.8354 116.669 64.0973 116.983 64.2961C117.306 64.4857 117.817 64.5761 118.517 64.549C119.118 64.5309 119.584 64.4315 119.925 64.2509C120.257 64.0702 120.418 63.8083 120.41 63.4831ZM116.418 61.3604C116.418 61.4146 116.427 61.4868 116.427 61.5772C116.436 61.6675 116.445 61.7488 116.472 61.8211L120.32 61.7036C120.329 61.6404 120.329 61.5772 120.329 61.4959C120.329 61.4236 120.329 61.3513 120.329 61.2791C120.32 60.9539 120.149 60.701 119.835 60.5113C119.513 60.3216 119.001 60.2403 118.293 60.2584C117.674 60.2764 117.207 60.3848 116.884 60.5655C116.57 60.7732 116.409 61.0352 116.418 61.3604ZM115.27 61.7849C115.243 61.6675 115.225 61.5501 115.216 61.4236C115.207 61.2971 115.198 61.1707 115.189 61.0171C115.18 60.719 115.234 60.439 115.342 60.1861C115.458 59.9332 115.638 59.7074 115.88 59.5177C116.122 59.328 116.445 59.1744 116.831 59.057C117.216 58.9396 117.683 58.8673 118.239 58.8583C119.279 58.8221 120.087 59.0028 120.661 59.4002C121.226 59.7887 121.522 60.3216 121.54 61.0081C121.54 61.0804 121.54 61.1888 121.54 61.3062C121.54 61.4326 121.531 61.532 121.504 61.6133L122.455 61.5862L122.499 63.0044L121.513 63.0315C121.558 63.1398 121.585 63.2753 121.602 63.4379C121.62 63.5915 121.629 63.718 121.629 63.8173C121.638 64.1244 121.576 64.3954 121.459 64.6483C121.342 64.9013 121.154 65.1271 120.903 65.3168C120.652 65.5065 120.329 65.66 119.934 65.7684C119.539 65.8858 119.082 65.9491 118.553 65.9581C118.006 65.9762 117.53 65.931 117.127 65.8226C116.723 65.7233 116.382 65.5787 116.104 65.389C115.835 65.1993 115.62 64.9735 115.485 64.7116C115.342 64.4496 115.27 64.1696 115.261 63.8625C115.261 63.745 115.261 63.6367 115.27 63.5192C115.279 63.4018 115.297 63.2934 115.324 63.2121L114.229 63.2392L114.185 61.8211L115.27 61.7849Z" fill="#4067AC"/>
<path d="M121.862 71.3234L121.252 75.1985L119.979 74.9998L120.364 72.5067L118.472 72.2087L118.113 74.4669L116.839 74.2591L117.189 72.0009L115.207 71.6938L114.803 74.223L113.529 74.0152L114.148 70.095L121.862 71.3234Z" fill="#4067AC"/>
<path d="M112.633 81.8829L117.566 83.6172L117.979 82.4429C116.75 81.9642 115.736 81.5216 114.929 81.088C114.131 80.6634 113.575 80.3112 113.261 80.0582L112.633 81.8829ZM109.359 83.0843L109.682 82.1448L111.045 82.4791L112.373 78.6582L111.099 78.071L111.422 77.1226L113.96 78.0168L113.736 78.6672C113.799 78.7394 113.951 78.8659 114.203 79.0466C114.445 79.2363 114.795 79.4621 115.27 79.724C115.736 79.986 116.328 80.2841 117.046 80.6002C117.764 80.9164 118.625 81.2596 119.629 81.5938L118.32 85.3786L112.166 83.2198L111.897 83.9785L109.359 83.0843Z" fill="#4067AC"/>
<path d="M115.773 90.9789L113.853 94.4113L112.723 93.77L113.952 91.575L112.283 90.6175L111.162 92.6138L110.032 91.9725L111.153 89.9762L109.404 88.9916L108.148 91.2227L107.018 90.5814L108.964 87.1218L115.773 90.9789Z" fill="#4067AC"/>
<path d="M106.937 97.5819C106.892 97.609 106.838 97.6722 106.748 97.7535C106.659 97.8438 106.605 97.9071 106.578 97.9432C106.479 98.0697 106.39 98.2052 106.336 98.3497C106.273 98.4942 106.246 98.6478 106.264 98.8013C106.273 98.9639 106.336 99.1265 106.443 99.2981C106.542 99.4698 106.712 99.6504 106.937 99.8311C107.125 99.9937 107.313 100.093 107.484 100.156C107.654 100.21 107.816 100.238 107.959 100.21C108.103 100.192 108.237 100.147 108.363 100.057C108.488 99.9846 108.596 99.8762 108.695 99.7588C108.838 99.5782 108.946 99.4156 109.009 99.2801L106.937 97.5819ZM110.767 98.8736C110.641 99.1175 110.498 99.3794 110.318 99.6504C110.139 99.9304 109.95 100.183 109.753 100.436C109.538 100.698 109.305 100.951 109.045 101.159C108.784 101.376 108.506 101.529 108.192 101.62C107.887 101.71 107.547 101.71 107.179 101.62C106.811 101.538 106.416 101.321 105.995 100.978C105.609 100.662 105.331 100.346 105.152 100.03C104.972 99.7046 104.874 99.3794 104.847 99.0633C104.829 98.7471 104.865 98.449 104.981 98.1419C105.098 97.8438 105.25 97.5819 105.457 97.3199C105.475 97.2928 105.51 97.2567 105.546 97.2025C105.591 97.1574 105.636 97.0941 105.681 97.0399C105.726 96.9767 105.78 96.9406 105.833 96.8864C105.878 96.8322 105.914 96.796 105.941 96.778L103.851 95.0798L104.739 93.9778L110.767 98.8736Z" fill="#4067AC"/>
<path d="M100.38 103.21L99.4201 104.086L100.972 105.152L101.923 105.947L101.959 105.928L101.268 104.872L100.38 103.21ZM98.4783 103.399L99.8417 102.162L98.9806 100.509L100.021 99.5693L103.6 106.985L102.784 107.726L95.8232 103.381L96.9175 102.379L98.4783 103.399Z" fill="#4067AC"/>
<path d="M87.2754 107.401L88.1185 106.877L88.9707 107.997L92.8097 105.63L96.8909 112.342L95.6979 113.082L92.2805 107.491L90.5762 108.539L93.9847 114.139L92.7828 114.88L89.3743 109.279L88.6747 109.713L87.2754 107.401Z" fill="#4067AC"/>
<path d="M82.4315 115.54L82.7185 116.633L82.7723 116.605L82.7544 115.35L83.3912 110.707L84.4317 110.319L87.1765 117.68L85.8669 118.177L84.4228 114.32L84.1447 113.209L84.0819 113.227L84.0999 114.537L83.4271 119.099L82.4046 119.487L79.6509 112.125L80.9694 111.628L82.4315 115.54Z" fill="#4067AC"/>
<path d="M73.7222 120.291C73.794 120.3 73.8567 120.3 73.9285 120.3C74.0003 120.291 74.081 120.282 74.1707 120.264C74.3142 120.237 74.4577 120.191 74.5743 120.119C74.6999 120.056 74.7986 119.975 74.8793 119.857C74.96 119.74 75.0138 119.595 75.0318 119.424C75.0587 119.252 75.0497 119.035 75.0049 118.8C74.9241 118.34 74.7627 118.024 74.5205 117.852C74.2873 117.68 74.0003 117.626 73.6863 117.68L73.2647 117.762L73.7222 120.291ZM71.1748 114.031L72.5561 113.778L73.1123 116.867L73.6684 116.551L74.377 113.453L75.9646 113.155L75.1842 116.018L74.7178 116.56C75.1304 116.596 75.4892 116.786 75.8121 117.111C76.135 117.436 76.3503 117.933 76.4759 118.602C76.5656 119.08 76.5656 119.487 76.4938 119.821C76.4221 120.164 76.2785 120.453 76.0722 120.688C75.8659 120.923 75.6058 121.113 75.2739 121.257C74.951 121.402 74.5923 121.51 74.1886 121.582C74.0989 121.601 73.9733 121.619 73.8298 121.637C73.6863 121.655 73.5338 121.673 73.3903 121.682C73.2378 121.691 73.0943 121.7 72.9418 121.7C72.7983 121.7 72.6638 121.691 72.5472 121.691L71.1748 114.031Z" fill="#4067AC"/>
<path d="M64.9853 117.969C64.9853 118.62 64.4561 119.153 63.8103 119.153C63.1645 119.153 62.6353 118.62 62.6353 117.969C62.6353 117.319 63.1555 116.795 63.8103 116.795C64.4651 116.795 64.9853 117.319 64.9853 117.969Z" fill="#4067AC"/>
</svg>
