<svg width="20" height="22" viewBox="0 0 20 22" fill="none" xmlns="http://www.w3.org/2000/svg">
<path d="M1.00106 9.73473C1.00106 9.73473 0.854502 5.03517 4.01034 2.44601" stroke="#979797" stroke-width="1.32" stroke-miterlimit="10" stroke-linecap="round"/>
<path d="M18.6269 9.73473C18.6269 9.73473 18.7734 5.03517 15.6176 2.44601" stroke="#979797" stroke-width="1.32" stroke-miterlimit="10" stroke-linecap="round"/>
<path d="M9.814 1V4.00928" stroke="#979797" stroke-width="1.32" stroke-miterlimit="10" stroke-linecap="round"/>
<path d="M9.81399 18.2447H17.3665V16.701C15.8619 15.1964 15.1682 13.5452 15.1682 11.9135C15.1682 10.2819 15.5199 8.45481 14.1423 6.35418C13.1457 4.83 11.4847 3.99951 9.81399 3.99951C8.11394 3.99951 6.6093 4.73229 5.4857 6.35418C4.04946 8.4255 4.45981 10.2916 4.45981 11.9233C4.45981 13.555 3.76612 15.2062 2.26147 16.7108V18.2545C4.26439 18.2545 9.81399 18.2447 9.81399 18.2447Z" stroke="#979797" stroke-width="1.32" stroke-miterlimit="10" stroke-linecap="round"/>
<path d="M7.31277 18.4988C7.31277 19.8764 8.43637 21 9.814 21C11.1916 21 12.3152 19.8764 12.3152 18.4988" stroke="#979797" stroke-width="1.32" stroke-miterlimit="10" stroke-linecap="round"/>
</svg>
