<svg width="23" height="25" viewBox="0 0 23 25" fill="none" xmlns="http://www.w3.org/2000/svg">
<path fillRule="evenodd" clipRule="evenodd" d="M4.87004 1.96652C5.13453 2.2885 5.08792 2.76392 4.76594 3.0284C3.08671 4.40777 2.26179 6.37087 1.86295 8.04915C1.66501 8.88207 1.57665 9.62611 1.53795 10.1605C1.51864 10.4272 1.51181 10.6401 1.50973 10.784C1.50869 10.8559 1.50884 10.9104 1.50921 10.9456L1.5098 10.9837L1.50998 10.9913C1.52349 11.4076 1.19714 11.7566 0.780834 11.7703C0.36438 11.7841 0.0156265 11.4576 0.00186976 11.0412L0.755925 11.0163C0.00186978 11.0412 0.00187942 11.0415 0.00186976 11.0412L0.00177353 11.0381L0.00162711 11.033L0.00123095 11.0169C0.000936853 11.0035 0.000603597 10.9849 0.000358062 10.9614C-0.000132887 10.9142 -0.000273552 10.8472 0.000954361 10.7622C0.00340899 10.5923 0.0113395 10.3501 0.0329583 10.0515C0.0761168 9.4555 0.174252 8.62878 0.394907 7.70028C0.83326 5.85572 1.7739 3.5334 3.80816 1.86241C4.13014 1.59793 4.60556 1.64454 4.87004 1.96652Z" fill="#8F989D"/>
<path fillRule="evenodd" clipRule="evenodd" d="M17.3478 1.96652C17.6122 1.64454 18.0877 1.59793 18.4096 1.86241C20.4439 3.5334 21.3845 5.85572 21.8229 7.70028C22.0436 8.62878 22.1417 9.4555 22.1848 10.0515C22.2065 10.3501 22.2144 10.5923 22.2169 10.7622C22.2181 10.8472 22.2179 10.9142 22.2174 10.9614C22.2172 10.9849 22.2169 11.0035 22.2166 11.0169L22.2162 11.033L22.216 11.0381L22.216 11.0399L22.216 11.0406C22.2159 11.0409 22.2159 11.0412 21.4619 11.0163L22.2159 11.0412C22.2022 11.4576 21.8534 11.7841 21.437 11.7703C21.0208 11.7566 20.6946 11.4083 20.7078 10.9923C20.7078 10.9922 20.7078 10.992 20.7078 10.9919L20.7078 10.9918L20.7078 10.9914L20.7078 10.9913L20.708 10.9837L20.7086 10.9456C20.709 10.9104 20.7091 10.8559 20.7081 10.784C20.706 10.6401 20.6992 10.4272 20.6799 10.1605C20.6412 9.62611 20.5528 8.88207 20.3549 8.04915C19.956 6.37087 19.1311 4.40777 17.4519 3.0284C17.1299 2.76392 17.0833 2.2885 17.3478 1.96652Z" fill="#8F989D"/>
<path fillRule="evenodd" clipRule="evenodd" d="M11.1007 0C11.5173 0 11.8551 0.337786 11.8551 0.754466V4.28559C11.8551 4.70227 11.5173 5.04005 11.1007 5.04005C10.684 5.04005 10.3462 4.70227 10.3462 4.28559V0.754466C10.3462 0.337786 10.684 0 11.1007 0Z" fill="#8F989D"/>
<path fillRule="evenodd" clipRule="evenodd" d="M5.39178 6.6234C6.8551 4.51987 8.84082 3.53125 11.1006 3.53125C13.32 3.53125 15.5011 4.63127 16.8052 6.64178C18.3031 8.92057 18.2239 11.024 18.1612 12.6915C18.1494 13.0057 18.1381 13.3045 18.1381 13.586C18.1381 15.2611 18.8472 17.0163 20.5033 18.6725L20.7243 18.8934V21.7674H1.47687V18.8914L1.70036 18.67C3.35245 17.0333 4.06304 15.2631 4.06304 13.586C4.06304 13.2912 4.04826 12.9735 4.03256 12.6364C3.95529 10.9766 3.85599 8.84345 5.39066 6.62502L5.39178 6.6234ZM6.63101 7.48433C5.41055 9.24909 5.47437 10.8108 5.54108 12.4431C5.55645 12.8192 5.57197 13.199 5.57197 13.586C5.57197 15.6362 4.72981 17.6921 2.9858 19.5146V20.2585H19.2154V19.5127C17.4734 17.6789 16.6292 15.6388 16.6292 13.586C16.6292 13.235 16.6405 12.8895 16.6518 12.5467C16.7058 10.9004 16.7577 9.31556 15.5431 7.46884L15.5403 7.46461C14.5234 5.89561 12.8259 5.04018 11.1006 5.04018C9.34872 5.04018 7.82009 5.77546 6.63101 7.48433Z" fill="#8F989D"/>
<path fillRule="evenodd" clipRule="evenodd" d="M8.16627 20.5566C8.58295 20.5566 8.92074 20.8944 8.92074 21.3111C8.92074 22.5191 9.89262 23.491 11.1006 23.491C12.3086 23.491 13.2804 22.5191 13.2804 21.3111C13.2804 20.8944 13.6182 20.5566 14.0349 20.5566C14.4516 20.5566 14.7894 20.8944 14.7894 21.3111C14.7894 23.3524 13.1419 24.9999 11.1006 24.9999C9.05925 24.9999 7.4118 23.3524 7.4118 21.3111C7.4118 20.8944 7.74959 20.5566 8.16627 20.5566Z" fill="#8F989D"/>
</svg>
