<svg width="20" height="22" viewBox="0 0 20 22" fill="none" xmlns="http://www.w3.org/2000/svg">
<path d="M18.9925 10.1304C18.4369 10.1304 17.985 9.6785 17.985 9.12292C17.985 6.69746 17.0404 4.41675 15.3255 2.70108C15.1351 2.51067 15.0303 2.25776 15.0303 1.98841C15.0303 1.71905 15.1351 1.46614 15.3255 1.27574C15.5159 1.08533 15.7689 0.980469 16.0382 0.980469C16.3076 0.980469 16.5605 1.08533 16.7509 1.27574C18.8461 3.3718 20 6.15874 20 9.12292C20 9.6785 19.5481 10.1304 18.9925 10.1304Z" fill="#72839C"/>
<path d="M1.00753 10.1306C0.451947 10.1306 0 9.67865 0 9.12307C0 6.15807 1.15434 3.37154 3.24999 1.27671C3.44039 1.08631 3.6933 0.981445 3.96266 0.981445C4.23202 0.981445 4.48493 1.08631 4.67533 1.27671C5.06847 1.66985 5.06847 2.30932 4.67533 2.70205C2.95966 4.41649 2.01505 6.69679 2.01505 9.12307C2.01546 9.67865 1.56352 10.1306 1.00753 10.1306Z" fill="#72839C"/>
<path d="M9.99979 21.7547C8.37377 21.7547 6.94637 20.6637 6.50224 19.1228H2.76205C1.72245 19.1228 0.876953 18.2773 0.876953 17.2377C0.876953 16.6859 1.11711 16.164 1.53616 15.8054C2.79043 14.7457 3.50886 13.2019 3.50886 11.5689V9.12284C3.50886 7.51326 4.10474 5.96784 5.1867 4.77238C6.1897 3.6641 7.53115 2.93951 8.99226 2.71045V1.00753C8.99226 0.451947 9.44421 0 9.99979 0C10.5554 0 11.0073 0.451947 11.0073 1.00753V2.71004C12.4684 2.9391 13.8099 3.66369 14.8129 4.77197C15.8948 5.96784 16.4907 7.51285 16.4907 9.12243V11.5684C16.4907 13.2015 17.2059 14.7428 18.4531 15.7976C18.8792 16.1607 19.1226 16.685 19.1226 17.2377C19.1226 18.2769 18.2771 19.1228 17.2375 19.1228H13.4973C13.0532 20.6637 11.6258 21.7547 9.99979 21.7547ZM8.72702 19.1228C9.02969 19.5045 9.49562 19.7393 9.99979 19.7393C10.504 19.7393 10.9699 19.5045 11.2726 19.1228H8.72702ZM16.8933 17.1074C15.3524 15.6792 14.4753 13.6797 14.4753 11.5689V9.12284C14.4753 6.65501 12.4676 4.64737 9.99979 4.64737C7.53197 4.64737 5.52432 6.65501 5.52432 9.12284V11.5689C5.52432 13.6806 4.64716 15.68 3.10626 17.1074H16.8933Z" fill="#72839C"/>
</svg>
