<svg width="44" height="44" viewBox="0 0 44 44" fill="none" xmlns="http://www.w3.org/2000/svg">
<circle cx="22" cy="22" r="21" stroke="#E5E5E5" strokeWidth="2"/>
<g clip-path="url(#clip0)">
<path d="M10.9878 21.3958C10.461 21.3958 10.0131 20.9743 9.99996 20.4343C9.99996 20.1708 9.8419 13.7694 14.294 10.1208C14.7155 9.77832 15.3345 9.83101 15.6902 10.2525C16.0326 10.674 15.9799 11.2931 15.5584 11.6487C11.8572 14.665 11.9757 20.3157 11.9757 20.3684C11.9889 20.9085 11.5674 21.3695 11.0142 21.3826C11.0142 21.3958 11.001 21.3958 10.9878 21.3958Z" fill="#8F989D"/>
<path d="M34.0121 21.3957C33.9989 21.3957 33.9858 21.3957 33.9858 21.3957C33.4457 21.3825 33.0111 20.9215 33.0242 20.3814C33.0242 20.3288 33.1428 14.6781 29.4547 11.6486C29.0332 11.3061 28.9673 10.6739 29.323 10.2524C29.6654 9.83086 30.2845 9.765 30.7192 10.1206C35.1712 13.7692 35.0132 20.1707 35.0132 20.4473C34.9868 20.9742 34.5522 21.3957 34.0121 21.3957Z" fill="#8F989D"/>
<path d="M22.5 13.9009C21.96 13.9009 21.5121 13.4531 21.5121 12.9131V8.98788C21.5121 8.44784 21.96 8 22.5 8C23.0401 8 23.4879 8.44784 23.4879 8.98788V12.9131C23.4879 13.4663 23.0532 13.9009 22.5 13.9009Z" fill="#8F989D"/>
<path d="M33.3667 32.5128H11.6465V29.1013L11.9363 28.8115C13.6222 27.1255 14.5179 25.2024 14.5179 23.253C14.5179 22.8974 14.5048 22.5154 14.4916 22.1466C14.4126 20.263 14.3072 17.9316 16.0459 15.429C17.6265 13.1371 19.8657 11.9253 22.5132 11.9253C25.1212 11.9253 27.5448 13.2425 28.9937 15.4553C30.6665 18.0106 30.5875 20.342 30.5216 22.2256C30.5084 22.5812 30.4953 22.9237 30.4953 23.2662C30.4953 25.2156 31.391 27.1255 33.0769 28.8247L33.3667 29.1144V32.5128ZM13.6222 30.537H31.391V29.9179C29.5074 27.9158 28.5195 25.6239 28.5195 23.2662C28.5195 22.8974 28.5327 22.5286 28.5459 22.1598C28.6117 20.3947 28.6644 18.577 27.3341 16.5486C26.254 14.9021 24.4494 13.9142 22.5 13.9142C20.4979 13.9142 18.8778 14.8099 17.6528 16.5618C16.3093 18.5112 16.3883 20.3157 16.4542 22.0675C16.4673 22.4759 16.4937 22.871 16.4937 23.2662C16.4937 25.6239 15.5058 27.9158 13.6222 29.9179V30.537Z" fill="#8F989D"/>
<path d="M22.5 36.1086C20.1554 36.1086 18.2455 34.1987 18.2455 31.8541C18.2455 31.3141 18.6934 30.8662 19.2334 30.8662C19.7735 30.8662 20.2213 31.3141 20.2213 31.8541C20.2213 33.1054 21.2487 34.1328 22.5 34.1328C23.7513 34.1328 24.7787 33.1054 24.7787 31.8541C24.7787 31.3141 25.2266 30.8662 25.7666 30.8662C26.3067 30.8662 26.7545 31.3141 26.7545 31.8541C26.7545 34.1987 24.8446 36.1086 22.5 36.1086Z" fill="#8F989D"/>
</g>
<defs>
<clipPath id="clip0">
<rect width="25" height="28.1085" fill="white" transform="translate(10 8)"/>
</clipPath>
</defs>
</svg>
