<svg width="17" height="17" viewBox="0 0 17 17" fill="none" xmlns="http://www.w3.org/2000/svg">
<path d="M8.51216 16.2136C8.62566 16.2136 8.73104 16.2136 8.83643 16.1812C9.36338 16.0677 9.80114 15.711 10.0038 15.2246C10.0849 15.03 10.1335 14.8112 10.1335 14.5923H6.8908C6.8908 15.0223 7.06162 15.4347 7.36568 15.7388C7.66975 16.0428 8.08215 16.2136 8.51216 16.2136ZM13.7816 6.8908C13.7816 4.402 12.0467 2.31855 9.72818 1.76729V1.21602C9.72818 0.893514 9.60007 0.584213 9.37202 0.356165C9.14397 0.128116 8.83467 0 8.51216 0C8.18965 0 7.88035 0.128116 7.6523 0.356165C7.42425 0.584213 7.29614 0.893514 7.29614 1.21602V1.76729C4.96948 2.31855 3.24273 4.402 3.24273 6.8908V11.3495L1.62136 12.9709V13.7816H15.403V12.9709L13.7816 11.3495V6.8908ZM15.3786 6.48546H17C16.8784 3.88317 15.5975 1.59704 13.66 0.121602L12.5007 1.28088C14.1545 2.43205 15.257 4.33715 15.3786 6.48546ZM4.52361 1.28088L3.36433 0.121602C1.4268 1.59704 0.145923 3.88317 0 6.48546H1.62136C1.76729 4.33715 2.86981 2.43205 4.52361 1.28088Z" fill="#72839C"/>
</svg>
