<svg width="20" height="22" viewBox="0 0 20 22" fill="none" xmlns="http://www.w3.org/2000/svg">
<g clip-path="url(#clip0)">
<path d="M3.99632 2.42854C4.21151 2.2441 4.24225 1.92644 4.06805 1.71126C3.88361 1.49608 3.56595 1.46533 3.35077 1.63953C-0.122913 4.47791 4.92235e-05 9.47838 4.92235e-05 9.69356C0.0102961 9.97023 0.235727 10.1854 0.512392 10.1854C0.512392 10.1854 0.522639 10.1854 0.532886 10.1854C0.809551 10.1752 1.03498 9.93949 1.02473 9.66282C1.02473 9.61159 0.922266 4.94927 3.99632 2.42854Z" fill="#8F989D"/>
<path d="M16.1696 1.62917C15.9544 1.44472 15.6265 1.48571 15.4523 1.70089C15.2781 1.91608 15.3088 2.24398 15.524 2.41817C18.5981 4.9389 18.4956 9.60122 18.4853 9.65246C18.4751 9.93937 18.7005 10.175 18.9772 10.1853C18.9874 10.1853 18.9874 10.1853 18.9977 10.1853C19.2744 10.1853 19.4998 9.97011 19.51 9.69344C19.51 9.47826 19.633 4.47779 16.1696 1.62917Z" fill="#8F989D"/>
<path d="M15.8826 11.9683C15.8826 11.6917 15.8928 11.415 15.9031 11.1281C15.9543 9.59106 16.0158 7.83884 14.7247 5.8612C13.7102 4.31393 12.0707 3.35072 10.2673 3.19702V0.512343C10.2673 0.225431 10.0419 0 9.75494 0C9.46803 0 9.2426 0.225431 9.2426 0.512343V3.18677C7.43915 3.33023 5.90212 4.23195 4.79546 5.84071C3.46337 7.76712 3.5351 9.51933 3.59658 11.0666C3.60683 11.374 3.62732 11.6712 3.62732 11.9683C3.62732 13.6078 2.8793 15.2166 1.47548 16.6204L1.32178 16.7741V19.1104H6.65014C6.7731 20.7191 8.11544 22 9.75494 22C11.3944 22 12.7368 20.7191 12.8597 19.1104H18.1881V16.7741L18.0344 16.6204C16.6306 15.2166 15.8826 13.6078 15.8826 11.9683ZM9.75494 20.9753C8.67902 20.9753 7.79779 20.1556 7.67483 19.1104H11.8453C11.7121 20.1556 10.8309 20.9753 9.75494 20.9753ZM17.1634 18.0857H2.34646V17.1942C3.85275 15.6265 4.65201 13.823 4.65201 11.9683C4.65201 11.6609 4.64176 11.3433 4.62127 11.0256C4.55978 9.57056 4.4983 8.07452 5.6357 6.42478C6.67064 4.92874 8.05396 4.18072 9.75494 4.18072C11.4149 4.18072 12.952 5.02096 13.8639 6.41453C14.9808 8.12576 14.9296 9.63204 14.8784 11.0871C14.8681 11.3843 14.8579 11.6814 14.8579 11.9683C14.8579 13.823 15.6571 15.6265 17.1634 17.1942V18.0857Z" fill="#8F989D"/>
</g>
<defs>
<clipPath id="clip0">
<rect width="19.51" height="22" fill="white"/>
</clipPath>
</defs>
</svg>