<?xml version="1.0" encoding="utf-8"?>
<!-- Generator: Adobe Illustrator 24.3.0, SVG Export Plug-In . SVG Version: 6.00 Build 0)  -->
<svg version="1.1" id="_x35_00" xmlns="http://www.w3.org/2000/svg" xmlns:xlink="http://www.w3.org/1999/xlink" x="0px" y="0px"
	 viewBox="0 0 100 100" style="enable-background:new 0 0 100 100;" xml:space="preserve">
<style type="text/css">
	.st0{fill-rule:evenodd;clip-rule:evenodd;fill:#72839C;}
</style>
<g>
	<path class="st0" d="M46.24,58.67c1.9,0,3.42-1.57,3.42-3.45c0-1.9-1.55-3.42-3.42-3.42H33.36c-1.88,0-3.42,1.52-3.42,3.42
		c0,1.88,1.55,3.45,3.42,3.45H46.24z"/>
	<path class="st0" d="M27.53,81.16h40.94l0.08-11.61l6.69-3.75v18.78c0,1.88-1.47,3.42-3.35,3.42H20.58c-1.9,0-3.42-1.55-3.42-3.42
		V16.21c0-1.93,1.52-3.45,3.42-3.45h51.31c1.88,0,3.35,1.52,3.35,3.45v5.12l-6.77,11.84V19.63H24.01v61.53H27.53"/>
	<path class="st0" d="M59.02,26.25H33.36c-1.88,0-3.42,1.42-3.42,3.35c0,1.85,1.55,3.42,3.42,3.42h25.66c1.9,0,3.42-1.57,3.42-3.42
		C62.44,27.67,60.91,26.25,59.02,26.25L59.02,26.25z"/>
	<path class="st0" d="M93.95,26.83L93.95,26.83l-6.11-5.15c-1.19-1.12-3.17-0.94-4.18,0.35l-3.45,3.93l10.65,9.1l3.35-3.95
		c0.61-0.58,0.86-1.37,0.76-2.23C94.89,28.1,94.53,27.34,93.95,26.83L93.95,26.83z"/>
	<polygon class="st0" points="79.27,27.01 79.27,27.01 89.92,36.16 87.41,39.08 76.79,29.95 	"/>
	<polygon class="st0" points="54.22,56.16 54.22,56.16 64.85,65.36 86.47,40.22 75.85,31.12 	"/>
	<path class="st0" d="M49.66,70.18c-0.18,0.51,0,1.09,0.53,1.52c0.43,0.36,1.02,0.43,1.52,0.15l11.94-5.15l-10.65-9.05L49.66,70.18z
		"/>
	<path class="st0" d="M62.44,42.42c0-1.85-1.52-3.42-3.42-3.42H33.36c-1.88,0-3.42,1.57-3.42,3.42c0,1.93,1.55,3.47,3.42,3.47h25.66
		C60.91,45.89,62.44,44.35,62.44,42.42L62.44,42.42z"/>
</g>
</svg>
