<svg id="Capa_1" data-name="Capa 1" xmlns="http://www.w3.org/2000/svg" viewBox="0 0 477.9 477.9"><defs><style>.cls-1{fill:#6e7f8f;}</style></defs><rect class="cls-1" x="62.98" y="155.83" width="166.25" height="166.25" rx="12"/><rect class="cls-1" x="258.68" y="155.83" width="156.2" height="23.21" rx="11.6"/><rect class="cls-1" x="258.69" y="202.87" width="156.2" height="23.21" rx="11.6"/><rect class="cls-1" x="258.7" y="249.92" width="156.2" height="23.21" rx="11.6"/><rect class="cls-1" x="258.72" y="296.97" width="156.2" height="23.21" rx="11.6"/><path class="cls-1" d="M435.8,114.11a12,12,0,0,1,12,12V351.79a12,12,0,0,1-12,12H42.1a12,12,0,0,1-12-12V126.11a12,12,0,0,1,12-12H435.8m0-14H42.1a26,26,0,0,0-26,26V351.79a26,26,0,0,0,26,26H435.8a26,26,0,0,0,26-26V126.11a26,26,0,0,0-26-26Z"/></svg>