<svg width="20" height="18" viewBox="0 0 20 20" fill="none" xmlns="http://www.w3.org/2000/svg">
<path d="M19 8.15273L1 8.15273L1 6.18909L10 2L19 6.20545V8.15273ZM4.19091 6.51636L15.8255 6.51636L10 3.8L4.19091 6.51636Z" fill="#8F989D"/>
<path d="M10 16.1055C9.54182 16.1055 9.18182 15.7291 9.18182 15.2873L9.18182 9.88727C9.18182 9.42909 9.54182 9.06909 10 9.06909C10.4582 9.06909 10.8182 9.42909 10.8182 9.88727L10.8182 15.2873C10.8182 15.7291 10.4582 16.1055 10 16.1055Z" fill="#8F989D"/>
<path d="M4.76365 16.1055C4.30547 16.1055 3.94547 15.7455 3.94547 15.2873L3.94547 9.88727C3.94547 9.42909 4.30547 9.06909 4.76365 9.06909C5.22183 9.06909 5.58183 9.42909 5.58183 9.88727L5.58183 15.2873C5.58183 15.7291 5.22183 16.1055 4.76365 16.1055Z" fill="#8F989D"/>
<path d="M15.2364 16.1055C14.7782 16.1055 14.4182 15.7455 14.4182 15.2873L14.4182 9.88727C14.4182 9.42909 14.7782 9.06909 15.2364 9.06909C15.6945 9.06909 16.0545 9.42909 16.0545 9.88727V15.2873C16.0545 15.7291 15.6945 16.1055 15.2364 16.1055Z" fill="#8F989D"/>
<path d="M18.1818 18.5927L1.81818 18.5927C1.36 18.5927 1 18.2327 1 17.7745C1 17.3164 1.36 16.9564 1.81818 16.9564L18.1818 16.9564C18.64 16.9564 19 17.3164 19 17.7745C19 18.2327 18.64 18.5927 18.1818 18.5927Z" fill="#8F989D"/>
</svg>
