<svg id="Layer_1" data-name="Layer 1" xmlns="http://www.w3.org/2000/svg" viewBox="0 0 1085 297"><defs><style>.cls-1{opacity:0.3;}.cls-2{fill:#75879c;}</style></defs><g class="cls-1"><path class="cls-2" d="M585.88,178H499.12a25.26,25.26,0,0,0-25.26,25.26h0a25.26,25.26,0,0,0,25.26,25.26h86.76a25.26,25.26,0,0,0,25.26-25.26h0A25.26,25.26,0,0,0,585.88,178ZM499,221.18A18.17,18.17,0,1,1,517.19,203,18.17,18.17,0,0,1,499,221.18Z"/><rect class="cls-2" x="497.39" y="192.74" width="2.91" height="21" transform="translate(2.39 412.26) rotate(-45)"/><rect class="cls-2" x="488.34" y="201.79" width="21" height="2.91" transform="translate(2.39 412.24) rotate(-45)"/></g><g class="cls-1"><path class="cls-2" d="M199,108.08V78.56h3.74V91h5.08L212,83.51c.63-1.11,1.2-2,1.71-2.75a8.08,8.08,0,0,1,1.55-1.69,4.81,4.81,0,0,1,1.6-.83,6.73,6.73,0,0,1,1.8-.22,5.9,5.9,0,0,1,.83.06,4.33,4.33,0,0,1,.79.21l-.63,3.51a3.53,3.53,0,0,0-.56-.14,3.46,3.46,0,0,0-.52,0,2.84,2.84,0,0,0-.9.13,2.26,2.26,0,0,0-.83.54,6.92,6.92,0,0,0-.92,1.13,21.78,21.78,0,0,0-1.17,1.93l-3.92,7L221,108.08h-4.09l-9.09-14h-5v14Z"/><path class="cls-2" d="M224.4,108.62a5.3,5.3,0,0,1-1.06-.09,7,7,0,0,1-.92-.27l.72-3.42a2.54,2.54,0,0,0,.45.13,2.76,2.76,0,0,0,.54,0,2.17,2.17,0,0,0,1.89-1.11,8.74,8.74,0,0,0,1-3.53q.45-3.55.86-7.09t.81-7.08h13.45v21.87h-3.73V89.22h-6.8l-.72,6q-.36,3-.72,6.06Q229.26,108.62,224.4,108.62Z"/><path class="cls-2" d="M249.91,117.48a8.43,8.43,0,0,1-1.39-.11,5.91,5.91,0,0,1-1.17-.34l.72-2.92.81.2a3.74,3.74,0,0,0,.85.11,4,4,0,0,0,3.09-1.33,9.39,9.39,0,0,0,1.86-3.35l.5-1.62L246.4,86.21h3.83l4.45,12.1c.33,1,.69,2,1.06,3s.73,2.11,1.06,3.13H257c.33-1,.64-2,.94-3.11s.6-2.1.9-3.06l3.92-12.1h3.6l-8.24,23.67a25.23,25.23,0,0,1-1.3,3,10,10,0,0,1-1.71,2.41,7.7,7.7,0,0,1-2.25,1.6A6.9,6.9,0,0,1,249.91,117.48Z"/><path class="cls-2" d="M279.57,108.62A9,9,0,0,1,272,105q-2.7-3.58-2.7-10.24a33.52,33.52,0,0,1,1-8.91A13.09,13.09,0,0,1,273,80.56a10.07,10.07,0,0,1,4.34-2.79A36.39,36.39,0,0,1,283,76.44c.6-.09,1.11-.17,1.53-.25s.8-.15,1.15-.24a6.89,6.89,0,0,0,.94-.32l.92-.4.72,3.37a7,7,0,0,1-2,.88,24.18,24.18,0,0,1-2.5.52c-1.77.27-3.29.55-4.56.85a7.8,7.8,0,0,0-3.2,1.51,6.88,6.88,0,0,0-2,3,20.43,20.43,0,0,0-1,5.31A9.51,9.51,0,0,1,280.42,87a9,9,0,0,1,3.56.69,7.63,7.63,0,0,1,2.77,2,9.94,9.94,0,0,1,1.8,3.22,13.16,13.16,0,0,1,.65,4.27,13.84,13.84,0,0,1-.77,4.73,11.11,11.11,0,0,1-2.07,3.6,8.8,8.8,0,0,1-3.06,2.27A9.08,9.08,0,0,1,279.57,108.62Zm0-3.06a4.65,4.65,0,0,0,2.32-.61,5.84,5.84,0,0,0,1.84-1.71,8.4,8.4,0,0,0,1.22-2.63,12.77,12.77,0,0,0,.42-3.38,8.66,8.66,0,0,0-1.53-5.38,5.17,5.17,0,0,0-4.36-2,7.37,7.37,0,0,0-3.29.86,10,10,0,0,0-3.37,3.1v1.71q0,4.77,1.69,7.4A5.6,5.6,0,0,0,279.57,105.56Z"/><path class="cls-2" d="M304.05,108.08V86.21h3.69v8.86h10.53V86.21H322v21.87h-3.69V98.36H307.74v9.72Z"/><path class="cls-2" d="M338.2,108.62a10.83,10.83,0,0,1-4.12-.79,9.86,9.86,0,0,1-3.33-2.25,10.54,10.54,0,0,1-2.22-3.58,13.36,13.36,0,0,1-.81-4.81,13.14,13.14,0,0,1,.83-4.84,11.35,11.35,0,0,1,2.2-3.62,9.73,9.73,0,0,1,3.13-2.28,8.9,8.9,0,0,1,3.65-.78,9.16,9.16,0,0,1,3.71.72A7.33,7.33,0,0,1,344,88.46a9.57,9.57,0,0,1,1.68,3.24,14.27,14.27,0,0,1,.59,4.23c0,.39,0,.77,0,1.14a6,6,0,0,1-.12,1H331.36a8.58,8.58,0,0,0,2.18,5.56,6.74,6.74,0,0,0,5.11,2.05,8.44,8.44,0,0,0,2.9-.48,12.47,12.47,0,0,0,2.55-1.23l1.3,2.43a18.57,18.57,0,0,1-3.19,1.57A11.12,11.12,0,0,1,338.2,108.62Zm-6.88-13.23H343a7.89,7.89,0,0,0-1.42-5.07,4.86,4.86,0,0,0-4-1.73,5.62,5.62,0,0,0-2.23.45,5.74,5.74,0,0,0-1.91,1.33,7.13,7.13,0,0,0-1.42,2.14A9.5,9.5,0,0,0,331.32,95.39Z"/><path class="cls-2" d="M365.7,108.62a6.62,6.62,0,0,1-4.57-1.62,5.8,5.8,0,0,1-1.82-4.59,6.08,6.08,0,0,1,3.19-5.52q3.19-1.9,10.22-2.67a9.78,9.78,0,0,0-.21-2,4.93,4.93,0,0,0-.69-1.75,3.62,3.62,0,0,0-1.38-1.24,4.57,4.57,0,0,0-2.22-.47,8.88,8.88,0,0,0-3.56.72,17.34,17.34,0,0,0-3,1.62l-1.44-2.57A24.4,24.4,0,0,1,364,86.59a12.56,12.56,0,0,1,4.86-.92c2.67,0,4.6.81,5.8,2.45a10.82,10.82,0,0,1,1.8,6.55v13.41h-3.06l-.31-2.61h-.14a18.17,18.17,0,0,1-3.37,2.22A8.31,8.31,0,0,1,365.7,108.62Zm1.08-3a6.18,6.18,0,0,0,3-.75,14.67,14.67,0,0,0,3-2.18V96.65a37.76,37.76,0,0,0-4.62.85,12.11,12.11,0,0,0-3,1.17,4.59,4.59,0,0,0-1.67,1.55,3.78,3.78,0,0,0-.51,1.92,3.1,3.1,0,0,0,1.12,2.7A4.59,4.59,0,0,0,366.78,105.65Z"/><path class="cls-2" d="M383.34,108.08V86.21H387v9h4.23l2.16-4.86A13.72,13.72,0,0,1,394.68,88,6,6,0,0,1,396,86.59a4.5,4.5,0,0,1,1.48-.72,6.32,6.32,0,0,1,1.67-.2,3.26,3.26,0,0,1,1.26.22l-.63,3.47a1,1,0,0,0-.36-.09h-.36a3.22,3.22,0,0,0-.84.11,2.26,2.26,0,0,0-.76.43,4.29,4.29,0,0,0-.79.9,8.84,8.84,0,0,0-.81,1.53l-1.84,4.32,7.42,11.52h-4.05l-6.07-9.86H387v9.86Z"/><path class="cls-2" d="M409.8,108.08V89.22h-7.34v-3h18.36v3h-7.33v18.86Z"/><path class="cls-2" d="M425.68,108.08V86.21h3.6V95.3c0,1.17,0,2.45-.11,3.84s-.16,2.8-.25,4.21h.18c.42-.69.91-1.47,1.46-2.34s1-1.65,1.42-2.34l8.28-12.46h3.47v21.87h-3.6V99c0-1.17,0-2.46.11-3.85s.16-2.81.25-4.25h-.18c-.42.69-.91,1.48-1.47,2.36s-1,1.66-1.41,2.32l-8.33,12.51Z"/><path class="cls-2" d="M451.11,108.08V86.21h8.41a15.76,15.76,0,0,1,3.28.31,8.17,8.17,0,0,1,2.55,1A4.63,4.63,0,0,1,467,89.2a5.16,5.16,0,0,1,.59,2.54,4.62,4.62,0,0,1-1,3,5.28,5.28,0,0,1-2.68,1.66v.14a8.73,8.73,0,0,1,1.78.63,5.42,5.42,0,0,1,1.46,1,4.49,4.49,0,0,1,1,1.53,5.54,5.54,0,0,1,.36,2.07,5.7,5.7,0,0,1-.65,2.79,5.91,5.91,0,0,1-1.8,2,8,8,0,0,1-2.73,1.15,15.51,15.51,0,0,1-3.46.36Zm3.64-12.69h4.14a6.69,6.69,0,0,0,3.91-.88A2.86,2.86,0,0,0,464,92.1a2.81,2.81,0,0,0-1.12-2.38,6.19,6.19,0,0,0-3.69-.86h-4.41Zm0,10h4.72a6.7,6.7,0,0,0,4-1,3.3,3.3,0,0,0,1.33-2.83,3,3,0,0,0-1.4-2.61,7.49,7.49,0,0,0-4.18-.95h-4.5Z"/><path class="cls-2" d="M474,108.08V86.21h3.6V95.3q0,1.76-.12,3.84c-.07,1.4-.16,2.8-.24,4.21h.18c.41-.69.9-1.47,1.46-2.34s1-1.65,1.42-2.34l8.27-12.46H492v21.87h-3.6V99c0-1.17,0-2.46.11-3.85s.16-2.81.25-4.25h-.18c-.42.69-.91,1.48-1.46,2.36s-1,1.66-1.42,2.32l-8.32,12.51Z"/><path class="cls-2" d="M499.39,117.3V86.21h3.06l.31,2.52h.14a16.77,16.77,0,0,1,3.26-2.16,8.12,8.12,0,0,1,3.71-.9,8.53,8.53,0,0,1,3.74.78,7.35,7.35,0,0,1,2.7,2.25A10.54,10.54,0,0,1,518,92.21a17.31,17.31,0,0,1,.56,4.62,15,15,0,0,1-.76,5,11.57,11.57,0,0,1-2.07,3.71,8.72,8.72,0,0,1-3,2.32,8.59,8.59,0,0,1-3.6.79,7.33,7.33,0,0,1-3-.68,15.22,15.22,0,0,1-3-1.84l.09,3.82v7.38Zm9-11.79a5.2,5.2,0,0,0,2.5-.61,5.76,5.76,0,0,0,2-1.71,8.3,8.3,0,0,0,1.31-2.72,13.16,13.16,0,0,0,.47-3.64,15.89,15.89,0,0,0-.32-3.29,7.27,7.27,0,0,0-1-2.54,4.73,4.73,0,0,0-1.8-1.64,5.52,5.52,0,0,0-2.63-.59,5.87,5.87,0,0,0-2.81.77,16.25,16.25,0,0,0-3,2.2v11.48A9.68,9.68,0,0,0,506,105,7.11,7.11,0,0,0,508.43,105.51Z"/><path class="cls-2" d="M532.87,108.62a9.87,9.87,0,0,1-3.85-.77,9.47,9.47,0,0,1-3.22-2.23,10.65,10.65,0,0,1-2.22-3.6,13.08,13.08,0,0,1-.84-4.83,13.33,13.33,0,0,1,.84-4.89,11,11,0,0,1,2.22-3.62A9.39,9.39,0,0,1,529,86.43a10.13,10.13,0,0,1,7.7,0,9.35,9.35,0,0,1,3.21,2.25,11.07,11.07,0,0,1,2.23,3.62,13.34,13.34,0,0,1,.83,4.89,13.08,13.08,0,0,1-.83,4.83,10.67,10.67,0,0,1-2.23,3.6,9.43,9.43,0,0,1-3.21,2.23A9.87,9.87,0,0,1,532.87,108.62Zm0-3.06a5.52,5.52,0,0,0,2.56-.61,6,6,0,0,0,2-1.71,8.27,8.27,0,0,0,1.28-2.63,12.1,12.1,0,0,0,.45-3.42,12.42,12.42,0,0,0-.45-3.45,8.49,8.49,0,0,0-1.28-2.67,6,6,0,0,0-2-1.74,5.78,5.78,0,0,0-5.13,0,5.92,5.92,0,0,0-2,1.74A8.49,8.49,0,0,0,527,93.74a12.42,12.42,0,0,0-.45,3.45,12.1,12.1,0,0,0,.45,3.42,8.27,8.27,0,0,0,1.28,2.63,5.93,5.93,0,0,0,2,1.71A5.57,5.57,0,0,0,532.87,105.56Z"/><path class="cls-2" d="M548.75,108.08V86.21h8.42a15.83,15.83,0,0,1,3.28.31,8.17,8.17,0,0,1,2.55,1,4.63,4.63,0,0,1,1.64,1.71,5.15,5.15,0,0,1,.58,2.54,4.61,4.61,0,0,1-1,3,5.28,5.28,0,0,1-2.68,1.66v.14a8.73,8.73,0,0,1,1.78.63,5.42,5.42,0,0,1,1.46,1,4.49,4.49,0,0,1,1,1.53,5.54,5.54,0,0,1,.36,2.07,5.7,5.7,0,0,1-.65,2.79,5.91,5.91,0,0,1-1.8,2,8,8,0,0,1-2.73,1.15,15.51,15.51,0,0,1-3.46.36Zm3.65-12.69h4.14a6.69,6.69,0,0,0,3.91-.88,2.86,2.86,0,0,0,1.17-2.41,2.81,2.81,0,0,0-1.12-2.38,6.19,6.19,0,0,0-3.69-.86H552.4Zm0,10h4.72a6.72,6.72,0,0,0,4-1,3.3,3.3,0,0,0,1.33-2.83,3,3,0,0,0-1.4-2.61A7.49,7.49,0,0,0,556.9,98h-4.5Z"/><path class="cls-2" d="M576.65,108.62a6.59,6.59,0,0,1-4.56-1.62,5.81,5.81,0,0,1-1.83-4.59,6.09,6.09,0,0,1,3.2-5.52q3.19-1.9,10.21-2.67a9.78,9.78,0,0,0-.2-2,5,5,0,0,0-.7-1.75,3.58,3.58,0,0,0-1.37-1.24,4.61,4.61,0,0,0-2.23-.47,8.84,8.84,0,0,0-3.55.72,17.34,17.34,0,0,0-3,1.62l-1.44-2.57a24.25,24.25,0,0,1,3.73-1.91,12.56,12.56,0,0,1,4.86-.92c2.67,0,4.61.81,5.81,2.45a10.82,10.82,0,0,1,1.8,6.55v13.41h-3.06l-.32-2.61h-.13a18.25,18.25,0,0,1-3.38,2.22A8.31,8.31,0,0,1,576.65,108.62Zm1.08-3a6.18,6.18,0,0,0,3-.75,14.67,14.67,0,0,0,3-2.18V96.65a37.56,37.56,0,0,0-4.61.85,12.11,12.11,0,0,0-3,1.17,4.59,4.59,0,0,0-1.67,1.55,3.79,3.79,0,0,0-.52,1.92,3.1,3.1,0,0,0,1.13,2.7A4.56,4.56,0,0,0,577.73,105.65Z"/><path class="cls-2" d="M594.29,108.08V86.21H598v8.86h10.53V86.21h3.69v21.87h-3.69V98.36H598v9.72Z"/><path class="cls-2" d="M628.58,108.08V86.21h3.69v8.86H642.8V86.21h3.69v21.87H642.8V98.36H632.27v9.72Z"/><path class="cls-2" d="M658.91,108.62a6.59,6.59,0,0,1-4.56-1.62,5.81,5.81,0,0,1-1.83-4.59,6.09,6.09,0,0,1,3.2-5.52q3.19-1.9,10.21-2.67a9.78,9.78,0,0,0-.2-2,5,5,0,0,0-.7-1.75,3.58,3.58,0,0,0-1.37-1.24,4.61,4.61,0,0,0-2.23-.47,8.84,8.84,0,0,0-3.55.72,17.34,17.34,0,0,0-3,1.62l-1.44-2.57a24.25,24.25,0,0,1,3.73-1.91,12.56,12.56,0,0,1,4.86-.92c2.67,0,4.61.81,5.81,2.45a10.82,10.82,0,0,1,1.8,6.55v13.41h-3.06l-.32-2.61h-.13a18.25,18.25,0,0,1-3.38,2.22A8.31,8.31,0,0,1,658.91,108.62Zm1.08-3a6.18,6.18,0,0,0,3-.75,14.67,14.67,0,0,0,3-2.18V96.65a37.2,37.2,0,0,0-4.61.85,12.11,12.11,0,0,0-3,1.17,4.51,4.51,0,0,0-1.67,1.55,3.79,3.79,0,0,0-.52,1.92,3.1,3.1,0,0,0,1.13,2.7A4.56,4.56,0,0,0,660,105.65Z"/><path class="cls-2" d="M685.91,108.08V78.56h9.23a19.41,19.41,0,0,1,4.16.42,9,9,0,0,1,3.29,1.42A6.77,6.77,0,0,1,704.72,83a8.81,8.81,0,0,1,.77,3.87,8.13,8.13,0,0,1-1.8,5.53,9.2,9.2,0,0,1-4.86,2.84l7.51,12.87h-4.23L695,95.61h-5.35v12.47Zm3.74-15.53h5a8.54,8.54,0,0,0,5.31-1.42,5.05,5.05,0,0,0,1.84-4.29c0-2-.61-3.32-1.84-4.1a10,10,0,0,0-5.31-1.17h-5Z"/><path class="cls-2" d="M711.52,108.08V78.56h3.73v14.8h.14l12.28-14.8h4.23l-9.22,11.25,10.66,18.27h-4.18l-8.82-15.35-5.09,6v9.36Z"/><path class="cls-2" d="M737.57,108.08V78.56h17v3.15H741.31v10h11.25v3.15H741.31v13.23Z"/><path class="cls-2" d="M758.14,108.62a2.65,2.65,0,0,1-1.92-.79,2.71,2.71,0,0,1-.78-2,2.87,2.87,0,0,1,.78-2.1,2.64,2.64,0,0,1,1.92-.78,2.54,2.54,0,0,1,1.86.78,2.84,2.84,0,0,1,.79,2.1,2.68,2.68,0,0,1-.79,2A2.55,2.55,0,0,1,758.14,108.62Z"/><path class="cls-2" d="M778.66,108.62a11.94,11.94,0,0,1-5.11-1.08,11.28,11.28,0,0,1-4-3.09A14.27,14.27,0,0,1,767,99.59a20.63,20.63,0,0,1-.92-6.41,20.28,20.28,0,0,1,.92-6.37A14,14,0,0,1,769.57,82a11.13,11.13,0,0,1,4-3,12.38,12.38,0,0,1,5.11-1,12.18,12.18,0,0,1,5.1,1,11.61,11.61,0,0,1,4,3,14,14,0,0,1,2.61,4.77,20.34,20.34,0,0,1,.92,6.32,20.93,20.93,0,0,1-.92,6.41,14.3,14.3,0,0,1-2.61,4.86,11.57,11.57,0,0,1-4,3.09A11.89,11.89,0,0,1,778.66,108.62Zm0-3.29a7.41,7.41,0,0,0,3.57-.85A8,8,0,0,0,785,102a12.26,12.26,0,0,0,1.78-3.82,18.48,18.48,0,0,0,.63-5,18,18,0,0,0-.63-5A11.44,11.44,0,0,0,785,84.5a8.17,8.17,0,0,0-2.75-2.37,8.11,8.11,0,0,0-7.15,0,8.17,8.17,0,0,0-2.75,2.37,11.43,11.43,0,0,0-1.77,3.73,18,18,0,0,0-.63,5,18.48,18.48,0,0,0,.63,5,12.25,12.25,0,0,0,1.77,3.82,8,8,0,0,0,2.75,2.46A7.45,7.45,0,0,0,778.66,105.33Z"/><path class="cls-2" d="M797.29,108.08V86.21h3.06l.31,3.15h.14a18.2,18.2,0,0,1,3.3-2.64,7.64,7.64,0,0,1,4-1,5.87,5.87,0,0,1,5.06,2.16q1.6,2.16,1.6,6.39v13.86H811.1V94.71a7.84,7.84,0,0,0-1-4.48A3.63,3.63,0,0,0,807,88.86a5.4,5.4,0,0,0-3,.86,19.07,19.07,0,0,0-3,2.52v15.84Z"/><path class="cls-2" d="M825.82,108.62a3.45,3.45,0,0,1-3-1.26,6.32,6.32,0,0,1-.9-3.69V76h3.69v27.9a1.87,1.87,0,0,0,.32,1.26.91.91,0,0,0,.72.36H827a1.91,1.91,0,0,0,.48-.09l.49,2.79a3.26,3.26,0,0,1-.85.27A7.33,7.33,0,0,1,825.82,108.62Z"/><path class="cls-2" d="M835.27,81.71a2.64,2.64,0,0,1-1.83-.68,2.23,2.23,0,0,1-.74-1.71,2.19,2.19,0,0,1,.74-1.73,2.89,2.89,0,0,1,3.65,0,2.19,2.19,0,0,1,.74,1.73,2.23,2.23,0,0,1-.74,1.71A2.63,2.63,0,0,1,835.27,81.71Zm-1.89,26.37V86.21h3.68v21.87Z"/><path class="cls-2" d="M844.44,108.08V86.21h3.06l.32,3.15H848a18.26,18.26,0,0,1,3.31-2.64,7.64,7.64,0,0,1,4-1,5.87,5.87,0,0,1,5.06,2.16Q862,90,862,94.22v13.86h-3.69V94.71a7.84,7.84,0,0,0-1-4.48,3.63,3.63,0,0,0-3.15-1.37,5.4,5.4,0,0,0-3,.86,19.56,19.56,0,0,0-3,2.52v15.84Z"/><path class="cls-2" d="M877.92,108.62a10.75,10.75,0,0,1-4.11-.79,9.66,9.66,0,0,1-3.33-2.25,10.41,10.41,0,0,1-2.23-3.58,14.61,14.61,0,0,1,0-9.65,11.37,11.37,0,0,1,2.21-3.62,9.69,9.69,0,0,1,3.12-2.28,8.9,8.9,0,0,1,3.65-.78,9.13,9.13,0,0,1,3.71.72,7.26,7.26,0,0,1,2.75,2.07,9.77,9.77,0,0,1,1.69,3.24,14.62,14.62,0,0,1,.58,4.23c0,.39,0,.77,0,1.14a6,6,0,0,1-.12,1H871.08a8.54,8.54,0,0,0,2.19,5.56,6.7,6.7,0,0,0,5.1,2.05,8.54,8.54,0,0,0,2.91-.48,12.65,12.65,0,0,0,2.54-1.23l1.3,2.43a18.57,18.57,0,0,1-3.19,1.57A11.12,11.12,0,0,1,877.92,108.62ZM871,95.39h11.7a7.84,7.84,0,0,0-1.42-5.07,4.86,4.86,0,0,0-4-1.73,5.66,5.66,0,0,0-2.23.45,5.84,5.84,0,0,0-1.91,1.33,7.33,7.33,0,0,0-1.42,2.14A9.8,9.8,0,0,0,871,95.39Z"/></g></svg>