<svg id="Layer_1" data-name="Layer 1" xmlns="http://www.w3.org/2000/svg" viewBox="0 0 1085 297"><defs><style>.cls-1{opacity:0.3;}.cls-2{fill:#75879c;}</style></defs><g class="cls-1"><path class="cls-2" d="M585.88,178H499.12a25.26,25.26,0,0,0-25.26,25.26h0a25.26,25.26,0,0,0,25.26,25.26h86.76a25.26,25.26,0,0,0,25.26-25.26h0A25.26,25.26,0,0,0,585.88,178ZM499,221.18A18.17,18.17,0,1,1,517.19,203,18.17,18.17,0,0,1,499,221.18Z"/><rect class="cls-2" x="497.39" y="192.74" width="2.91" height="21" transform="translate(2.39 412.26) rotate(-45)"/><rect class="cls-2" x="488.34" y="201.79" width="21" height="2.91" transform="translate(2.39 412.24) rotate(-45)"/></g><g class="cls-1"><path class="cls-2" d="M147,108.08V78.56h20.92v29.52h-3.73V81.71H150.69v26.37Z"/><path class="cls-2" d="M175.62,108.08V86.21h3.6V95.3c0,1.17,0,2.45-.11,3.84s-.16,2.8-.25,4.21H179c.42-.69.91-1.47,1.46-2.34s1-1.65,1.42-2.34l8.28-12.46h3.47v21.87h-3.61V99c0-1.17,0-2.46.12-3.85s.15-2.81.25-4.25h-.18c-.43.69-.91,1.48-1.47,2.36s-1,1.66-1.41,2.32L179,108.08Z"/><path class="cls-2" d="M205.86,108.08V89.22h-7.34v-3h18.36v3h-7.33v18.86Z"/><path class="cls-2" d="M229.62,108.62a9.87,9.87,0,0,1-3.85-.77,9.47,9.47,0,0,1-3.22-2.23,10.65,10.65,0,0,1-2.22-3.6,13.08,13.08,0,0,1-.84-4.83,13.33,13.33,0,0,1,.84-4.89,11,11,0,0,1,2.22-3.62,9.39,9.39,0,0,1,3.22-2.25,10.13,10.13,0,0,1,7.7,0,9.35,9.35,0,0,1,3.21,2.25,11.07,11.07,0,0,1,2.23,3.62,13.34,13.34,0,0,1,.83,4.89,13.08,13.08,0,0,1-.83,4.83,10.67,10.67,0,0,1-2.23,3.6,9.43,9.43,0,0,1-3.21,2.23A9.87,9.87,0,0,1,229.62,108.62Zm0-3.06a5.52,5.52,0,0,0,2.56-.61,6.08,6.08,0,0,0,2-1.71,8.16,8.16,0,0,0,1.28-2.63,12.1,12.1,0,0,0,.45-3.42,12.42,12.42,0,0,0-.45-3.45,8.49,8.49,0,0,0-1.28-2.67,6,6,0,0,0-2-1.74,5.78,5.78,0,0,0-5.13,0,5.92,5.92,0,0,0-2,1.74,8.49,8.49,0,0,0-1.28,2.67,12.42,12.42,0,0,0-.45,3.45,12.1,12.1,0,0,0,.45,3.42,8.16,8.16,0,0,0,1.28,2.63,6,6,0,0,0,2,1.71A5.57,5.57,0,0,0,229.62,105.56Z"/><path class="cls-2" d="M245.5,108.08V86.21h4.28l4.27,10.26q.49,1.35,1,2.67l1,2.64h.18q.5-1.31,1-2.64t1-2.67l4.19-10.26h4.23v21.87h-3.38V98.27c0-.48,0-1,0-1.69s.07-1.31.11-2,.09-1.35.14-2,.09-1.29.15-1.86h-.18c-.33.87-.66,1.75-1,2.63s-.68,1.73-1,2.54L257.34,106h-2.48l-4.23-10.13c-.33-.81-.66-1.66-1-2.54s-.68-1.76-1-2.63h-.18c0,.57.07,1.19.11,1.86s.09,1.35.14,2,.08,1.33.11,2,0,1.21,0,1.69v9.81Z"/><path class="cls-2" d="M274,108.08V86.21h3.69v8.86h10.53V86.21h3.69v21.87h-3.69V98.36H277.68v9.72Z"/><path class="cls-2" d="M299.28,108.08V86.21h3.6V95.3c0,1.17,0,2.45-.11,3.84s-.16,2.8-.25,4.21h.18c.42-.69.91-1.47,1.46-2.34s1-1.65,1.42-2.34l8.28-12.46h3.46v21.87h-3.6V99c0-1.17,0-2.46.12-3.85s.15-2.81.24-4.25h-.18c-.42.69-.9,1.48-1.46,2.36s-1,1.66-1.42,2.32l-8.32,12.51Z"/><path class="cls-2" d="M324.7,108.08V86.21h3.69v9h4.23l2.16-4.86A13.72,13.72,0,0,1,336,88a5.77,5.77,0,0,1,1.35-1.42,4.76,4.76,0,0,1,1.49-.72,6.24,6.24,0,0,1,1.66-.2,3.26,3.26,0,0,1,1.26.22l-.63,3.47a1,1,0,0,0-.36-.09h-.36a2.78,2.78,0,0,0-.83.11,2.26,2.26,0,0,0-.76.43,4.29,4.29,0,0,0-.79.9,8.84,8.84,0,0,0-.81,1.53l-1.85,4.32,7.43,11.52h-4l-6.08-9.86h-4.32v9.86Z"/><path class="cls-2" d="M356.11,108.08V86.21h3.69v8.86h10.53V86.21H374v21.87h-3.69V98.36H359.8v9.72Z"/><path class="cls-2" d="M390.27,108.62a10.8,10.8,0,0,1-4.12-.79,10,10,0,0,1-3.33-2.25,10.56,10.56,0,0,1-2.23-3.58,13.36,13.36,0,0,1-.81-4.81,13.13,13.13,0,0,1,.84-4.84,11.24,11.24,0,0,1,2.2-3.62A9.73,9.73,0,0,1,386,86.45a8.86,8.86,0,0,1,3.64-.78,9.21,9.21,0,0,1,3.72.72,7.3,7.3,0,0,1,2.74,2.07,9.42,9.42,0,0,1,1.69,3.24,14.28,14.28,0,0,1,.58,4.23c0,.39,0,.77,0,1.14a5.1,5.1,0,0,1-.11,1H383.43a8.58,8.58,0,0,0,2.18,5.56,6.78,6.78,0,0,0,5.11,2.05,8.44,8.44,0,0,0,2.9-.48,12.65,12.65,0,0,0,2.54-1.23l1.31,2.43a18.67,18.67,0,0,1-3.2,1.57A11.07,11.07,0,0,1,390.27,108.62Zm-6.89-13.23h11.7a7.89,7.89,0,0,0-1.41-5.07,4.89,4.89,0,0,0-4-1.73,5.58,5.58,0,0,0-2.22.45,5.77,5.77,0,0,0-1.92,1.33,7.11,7.11,0,0,0-1.41,2.14A9.5,9.5,0,0,0,383.38,95.39Z"/><path class="cls-2" d="M417.76,108.62a6.64,6.64,0,0,1-4.57-1.62,5.83,5.83,0,0,1-1.82-4.59,6.09,6.09,0,0,1,3.2-5.52q3.19-1.9,10.21-2.67a10.51,10.51,0,0,0-.2-2,5.14,5.14,0,0,0-.7-1.75,3.66,3.66,0,0,0-1.37-1.24,4.64,4.64,0,0,0-2.23-.47,8.84,8.84,0,0,0-3.55.72,17.34,17.34,0,0,0-3,1.62l-1.44-2.57a24.25,24.25,0,0,1,3.73-1.91,12.38,12.38,0,0,1,4.86-.92c2.67,0,4.61.81,5.81,2.45a10.84,10.84,0,0,1,1.8,6.55v13.41h-3.06l-.32-2.61H425a18.25,18.25,0,0,1-3.38,2.22A8.31,8.31,0,0,1,417.76,108.62Zm1.08-3a6.18,6.18,0,0,0,3-.75,14.67,14.67,0,0,0,3-2.18V96.65a37.2,37.2,0,0,0-4.61.85,12.2,12.2,0,0,0-3,1.17,4.55,4.55,0,0,0-1.66,1.55,3.69,3.69,0,0,0-.52,1.92,3.1,3.1,0,0,0,1.13,2.7A4.56,4.56,0,0,0,418.84,105.65Z"/><path class="cls-2" d="M435.4,108.08V86.21h3.69v9h4.23l2.16-4.86A13.72,13.72,0,0,1,446.74,88a5.77,5.77,0,0,1,1.35-1.42,4.76,4.76,0,0,1,1.49-.72,6.24,6.24,0,0,1,1.66-.2,3.26,3.26,0,0,1,1.26.22l-.63,3.47a1,1,0,0,0-.36-.09h-.36a2.73,2.73,0,0,0-.83.11,2.3,2.3,0,0,0-.77.43,4.58,4.58,0,0,0-.78.9,8.84,8.84,0,0,0-.81,1.53l-1.85,4.32,7.43,11.52h-4.05l-6.08-9.86h-4.32v9.86Z"/><path class="cls-2" d="M461.86,108.08V89.22h-7.33v-3h18.36v3h-7.34v18.86Z"/><path class="cls-2" d="M477.75,108.08V86.21h3.6V95.3q0,1.76-.12,3.84c-.07,1.4-.15,2.8-.24,4.21h.18c.41-.69.9-1.47,1.46-2.34s1-1.65,1.42-2.34l8.28-12.46h3.46v21.87h-3.6V99c0-1.17,0-2.46.11-3.85s.16-2.81.25-4.25h-.18c-.42.69-.91,1.48-1.46,2.36s-1,1.66-1.42,2.32l-8.32,12.51Z"/><path class="cls-2" d="M503.17,108.08V86.21h8.42a15.83,15.83,0,0,1,3.28.31,7.78,7.78,0,0,1,2.54,1,4.58,4.58,0,0,1,1.65,1.71,5.15,5.15,0,0,1,.58,2.54,4.56,4.56,0,0,1-1,3A5.25,5.25,0,0,1,516,96.42v.14a8.44,8.44,0,0,1,1.77.63,5.32,5.32,0,0,1,1.47,1,4.49,4.49,0,0,1,1,1.53,5.75,5.75,0,0,1,.36,2.07,5.47,5.47,0,0,1-2.46,4.75,7.9,7.9,0,0,1-2.72,1.15,15.51,15.51,0,0,1-3.46.36Zm3.65-12.69H511a6.69,6.69,0,0,0,3.91-.88A2.86,2.86,0,0,0,516,92.1a2.81,2.81,0,0,0-1.12-2.38,6.19,6.19,0,0,0-3.69-.86h-4.41Zm0,10h4.72a6.74,6.74,0,0,0,4-1,3.33,3.33,0,0,0,1.33-2.83A3,3,0,0,0,515.5,99a7.51,7.51,0,0,0-4.18-.95h-4.5Z"/><path class="cls-2" d="M526,108.08V86.21h3.6V95.3c0,1.17,0,2.45-.11,3.84s-.16,2.8-.25,4.21h.18c.42-.69.91-1.47,1.46-2.34s1-1.65,1.42-2.34l8.28-12.46h3.46v21.87h-3.6V99c0-1.17,0-2.46.12-3.85s.16-2.81.24-4.25h-.17c-.43.69-.91,1.48-1.47,2.36s-1,1.66-1.42,2.32l-8.32,12.51Z"/><path class="cls-2" d="M551.45,117.3V86.21h3.06l.32,2.52H555a16.55,16.55,0,0,1,3.27-2.16,8.09,8.09,0,0,1,3.71-.9,8.49,8.49,0,0,1,3.73.78,7.35,7.35,0,0,1,2.7,2.25A10.76,10.76,0,0,1,570,92.21a17.72,17.72,0,0,1,.56,4.62,15,15,0,0,1-.77,5,11.46,11.46,0,0,1-2.07,3.71,8.81,8.81,0,0,1-3,2.32,8.59,8.59,0,0,1-3.6.79,7.41,7.41,0,0,1-3-.68,15.5,15.5,0,0,1-3-1.84l.09,3.82v7.38Zm9-11.79a5.22,5.22,0,0,0,2.5-.61,6,6,0,0,0,2-1.71,8.29,8.29,0,0,0,1.3-2.72,12.8,12.8,0,0,0,.47-3.64,15.92,15.92,0,0,0-.31-3.29,7.47,7.47,0,0,0-1-2.54,5,5,0,0,0-1.8-1.64,5.59,5.59,0,0,0-2.64-.59,5.9,5.9,0,0,0-2.81.77,16.58,16.58,0,0,0-3,2.2v11.48A9.68,9.68,0,0,0,558,105,7.16,7.16,0,0,0,560.5,105.51Z"/><path class="cls-2" d="M584.93,108.62a9.79,9.79,0,0,1-3.84-.77,9.38,9.38,0,0,1-3.22-2.23,10.83,10.83,0,0,1-2.23-3.6,13.29,13.29,0,0,1-.83-4.83,13.55,13.55,0,0,1,.83-4.89,11.24,11.24,0,0,1,2.23-3.62,9.3,9.3,0,0,1,3.22-2.25,10.11,10.11,0,0,1,7.69,0A9.3,9.3,0,0,1,592,88.68a11.24,11.24,0,0,1,2.23,3.62,13.55,13.55,0,0,1,.83,4.89,13.29,13.29,0,0,1-.83,4.83,10.83,10.83,0,0,1-2.23,3.6,9.38,9.38,0,0,1-3.22,2.23A9.84,9.84,0,0,1,584.93,108.62Zm0-3.06a5.57,5.57,0,0,0,2.57-.61,6,6,0,0,0,2-1.71,8,8,0,0,0,1.28-2.63,12.1,12.1,0,0,0,.45-3.42,12.42,12.42,0,0,0-.45-3.45,8.28,8.28,0,0,0-1.28-2.67,5.82,5.82,0,0,0-2-1.74,5.78,5.78,0,0,0-5.13,0,5.82,5.82,0,0,0-2,1.74,8.29,8.29,0,0,0-1.29,2.67,12.42,12.42,0,0,0-.45,3.45,12.1,12.1,0,0,0,.45,3.42,8,8,0,0,0,1.29,2.63,6,6,0,0,0,2,1.71A5.52,5.52,0,0,0,584.93,105.56Z"/><path class="cls-2" d="M600.82,108.08V86.21h8.41a15.92,15.92,0,0,1,3.29.31,7.78,7.78,0,0,1,2.54,1,4.56,4.56,0,0,1,1.64,1.71,5.16,5.16,0,0,1,.59,2.54,4.56,4.56,0,0,1-1,3,5.24,5.24,0,0,1-2.68,1.66v.14a8.52,8.52,0,0,1,1.78.63,5.27,5.27,0,0,1,1.46,1,4.49,4.49,0,0,1,1,1.53,6.24,6.24,0,0,1-.29,4.86,5.62,5.62,0,0,1-1.8,2,7.9,7.9,0,0,1-2.72,1.15,15.6,15.6,0,0,1-3.47.36Zm3.64-12.69h4.14a6.73,6.73,0,0,0,3.92-.88,2.86,2.86,0,0,0,1.17-2.41,2.82,2.82,0,0,0-1.13-2.38,6.19,6.19,0,0,0-3.69-.86h-4.41Zm0,10h4.73a6.74,6.74,0,0,0,4-1,3.32,3.32,0,0,0,1.32-2.83A3,3,0,0,0,613.15,99,7.53,7.53,0,0,0,609,98h-4.5Z"/><path class="cls-2" d="M628.72,108.62a6.64,6.64,0,0,1-4.57-1.62,5.83,5.83,0,0,1-1.82-4.59,6.08,6.08,0,0,1,3.19-5.52q3.19-1.9,10.22-2.67a10.51,10.51,0,0,0-.2-2,5.14,5.14,0,0,0-.7-1.75,3.66,3.66,0,0,0-1.37-1.24,4.64,4.64,0,0,0-2.23-.47,8.88,8.88,0,0,0-3.56.72,17.34,17.34,0,0,0-3,1.62l-1.44-2.57A24.4,24.4,0,0,1,627,86.59a12.38,12.38,0,0,1,4.86-.92c2.67,0,4.6.81,5.8,2.45a10.84,10.84,0,0,1,1.8,6.55v13.41h-3.06l-.31-2.61H636a18.17,18.17,0,0,1-3.37,2.22A8.31,8.31,0,0,1,628.72,108.62Zm1.08-3a6.18,6.18,0,0,0,3-.75,14.67,14.67,0,0,0,3-2.18V96.65a37.2,37.2,0,0,0-4.61.85,12.2,12.2,0,0,0-3,1.17,4.67,4.67,0,0,0-1.67,1.55,3.78,3.78,0,0,0-.51,1.92,3.1,3.1,0,0,0,1.12,2.7A4.59,4.59,0,0,0,629.8,105.65Z"/><path class="cls-2" d="M646.36,108.08V86.21h3.69v8.86h10.53V86.21h3.69v21.87h-3.69V98.36H650.05v9.72Z"/><path class="cls-2" d="M680.65,108.08V86.21h3.69v8.86h10.53V86.21h3.69v21.87h-3.69V98.36H684.34v9.72Z"/><path class="cls-2" d="M711,108.62a6.64,6.64,0,0,1-4.57-1.62,5.8,5.8,0,0,1-1.82-4.59,6.08,6.08,0,0,1,3.19-5.52Q711,95,718,94.22a10.51,10.51,0,0,0-.2-2,5.14,5.14,0,0,0-.7-1.75,3.66,3.66,0,0,0-1.37-1.24,4.64,4.64,0,0,0-2.23-.47,8.88,8.88,0,0,0-3.56.72,17.34,17.34,0,0,0-3,1.62l-1.44-2.57a24.4,24.4,0,0,1,3.74-1.91,12.38,12.38,0,0,1,4.86-.92c2.67,0,4.6.81,5.8,2.45a10.84,10.84,0,0,1,1.8,6.55v13.41h-3.06l-.31-2.61h-.14a18.17,18.17,0,0,1-3.37,2.22A8.31,8.31,0,0,1,711,108.62Zm1.08-3a6.18,6.18,0,0,0,3-.75,14.67,14.67,0,0,0,3-2.18V96.65a37.2,37.2,0,0,0-4.61.85,12.2,12.2,0,0,0-3,1.17,4.59,4.59,0,0,0-1.67,1.55,3.78,3.78,0,0,0-.51,1.92,3.1,3.1,0,0,0,1.12,2.7A4.59,4.59,0,0,0,712.06,105.65Z"/><path class="cls-2" d="M738,108.08V78.56h9.22a19.35,19.35,0,0,1,4.16.42,9,9,0,0,1,3.29,1.42A6.8,6.8,0,0,1,756.79,83a8.81,8.81,0,0,1,.76,3.87,8.13,8.13,0,0,1-1.8,5.53,9.2,9.2,0,0,1-4.86,2.84l7.52,12.87h-4.23l-7.11-12.47h-5.36v12.47Zm3.73-15.53h4.95A8.54,8.54,0,0,0,752,91.13a5.06,5.06,0,0,0,1.85-4.29c0-2-.62-3.32-1.85-4.1a10,10,0,0,0-5.31-1.17h-4.95Z"/><path class="cls-2" d="M763.58,108.08V78.56h3.74v14.8h.13l12.29-14.8H784l-9.23,11.25,10.67,18.27h-4.19L772.4,92.73l-5.08,6v9.36Z"/><path class="cls-2" d="M789.64,108.08V78.56h17v3.15H793.37v10h11.25v3.15H793.37v13.23Z"/><path class="cls-2" d="M810.2,108.62a2.61,2.61,0,0,1-1.91-.79,2.7,2.7,0,0,1-.79-2,2.84,2.84,0,0,1,.79-2.1,2.68,2.68,0,0,1,3.78,0,2.88,2.88,0,0,1,.79,2.1,2.74,2.74,0,0,1-.79,2A2.59,2.59,0,0,1,810.2,108.62Z"/><path class="cls-2" d="M830.72,108.62a12,12,0,0,1-5.11-1.08,11.37,11.37,0,0,1-4-3.09A14.45,14.45,0,0,1,819,99.59a20.93,20.93,0,0,1-.92-6.41,20.58,20.58,0,0,1,.92-6.37A14.19,14.19,0,0,1,821.63,82a11.21,11.21,0,0,1,4-3,12.41,12.41,0,0,1,5.11-1,12.26,12.26,0,0,1,5.11,1,11.58,11.58,0,0,1,4,3,13.63,13.63,0,0,1,2.61,4.77,20,20,0,0,1,.93,6.32,20.62,20.62,0,0,1-.93,6.41,14,14,0,0,1-2.61,4.86,11.53,11.53,0,0,1-4,3.09A12,12,0,0,1,830.72,108.62Zm0-3.29a7.48,7.48,0,0,0,3.58-.85A8,8,0,0,0,837,102a12,12,0,0,0,1.78-3.82,18.48,18.48,0,0,0,.63-5,18,18,0,0,0-.63-5A11.24,11.24,0,0,0,837,84.5a8.14,8.14,0,0,0-2.74-2.37,8.14,8.14,0,0,0-7.16,0,8.14,8.14,0,0,0-2.74,2.37,11.24,11.24,0,0,0-1.78,3.73,18,18,0,0,0-.63,5,18.48,18.48,0,0,0,.63,5A12,12,0,0,0,824.4,102a8,8,0,0,0,2.74,2.46A7.48,7.48,0,0,0,830.72,105.33Z"/><path class="cls-2" d="M849.35,108.08V86.21h3.06l.32,3.15h.13a17.92,17.92,0,0,1,3.31-2.64,7.61,7.61,0,0,1,4-1,5.88,5.88,0,0,1,5.06,2.16c1.06,1.44,1.6,3.57,1.6,6.39v13.86h-3.69V94.71a7.84,7.84,0,0,0-1-4.48A3.63,3.63,0,0,0,859,88.86a5.4,5.4,0,0,0-3,.86,19.56,19.56,0,0,0-3,2.52v15.84Z"/><path class="cls-2" d="M877.88,108.62a3.46,3.46,0,0,1-3-1.26,6.32,6.32,0,0,1-.89-3.69V76h3.68v27.9a1.93,1.93,0,0,0,.32,1.26.94.94,0,0,0,.72.36H879a1.93,1.93,0,0,0,.47-.09l.49,2.79a3.15,3.15,0,0,1-.85.27A7.25,7.25,0,0,1,877.88,108.62Z"/><path class="cls-2" d="M887.33,81.71a2.6,2.6,0,0,1-1.82-.68,2.2,2.2,0,0,1-.75-1.71,2.17,2.17,0,0,1,.75-1.73,2.87,2.87,0,0,1,3.64,0,2.16,2.16,0,0,1,.74,1.73,2.19,2.19,0,0,1-.74,1.71A2.6,2.6,0,0,1,887.33,81.71Zm-1.89,26.37V86.21h3.69v21.87Z"/><path class="cls-2" d="M896.51,108.08V86.21h3.06l.31,3.15H900a17.92,17.92,0,0,1,3.31-2.64,7.58,7.58,0,0,1,4-1,5.9,5.9,0,0,1,5.07,2.16Q914,90,914,94.22v13.86h-3.69V94.71a7.84,7.84,0,0,0-1-4.48,3.63,3.63,0,0,0-3.15-1.37,5.36,5.36,0,0,0-3,.86,19.56,19.56,0,0,0-3,2.52v15.84Z"/><path class="cls-2" d="M930,108.62a10.83,10.83,0,0,1-4.12-.79,10,10,0,0,1-3.33-2.25,10.56,10.56,0,0,1-2.23-3.58,13.36,13.36,0,0,1-.81-4.81,13.13,13.13,0,0,1,.84-4.84,11.24,11.24,0,0,1,2.2-3.62,9.73,9.73,0,0,1,3.13-2.28,8.86,8.86,0,0,1,3.64-.78,9.21,9.21,0,0,1,3.72.72,7.22,7.22,0,0,1,2.74,2.07,9.42,9.42,0,0,1,1.69,3.24,14.28,14.28,0,0,1,.58,4.23c0,.39,0,.77,0,1.14a5.1,5.1,0,0,1-.11,1H923.15a8.58,8.58,0,0,0,2.18,5.56,6.78,6.78,0,0,0,5.11,2.05,8.44,8.44,0,0,0,2.9-.48,12.4,12.4,0,0,0,2.54-1.23l1.31,2.43a18.67,18.67,0,0,1-3.2,1.57A11.07,11.07,0,0,1,930,108.62ZM923.1,95.39h11.7a7.89,7.89,0,0,0-1.41-5.07,4.89,4.89,0,0,0-4-1.73,5.58,5.58,0,0,0-2.22.45,5.77,5.77,0,0,0-1.92,1.33,7.11,7.11,0,0,0-1.41,2.14A9.5,9.5,0,0,0,923.1,95.39Z"/></g></svg>