<svg width="28" height="29" viewBox="0 0 28 29" fill="none" xmlns="http://www.w3.org/2000/svg">
<path fillRule="evenodd" clipRule="evenodd" d="M0 3.3995C0 1.48409 1.60759 0 3.51171 0H3.55854L14 1.10235L24.4415 0H24.4883C26.3924 0 28 1.48409 28 3.3995V23.4932C28 25.3918 26.4205 26.8666 24.5384 26.8924L14 28.0049L3.46164 26.8924C1.5795 26.8666 0 25.3918 0 23.4932V3.3995ZM13.1104 2.79758L3.46925 1.77973C2.49524 1.80097 1.77926 2.55156 1.77926 3.3995V23.4932C1.77926 24.3534 2.51611 25.1134 3.51171 25.1134H3.55854L13.1104 26.1219V2.79758ZM14.8896 26.1219L24.4415 25.1134H24.4883C25.4839 25.1134 26.2207 24.3534 26.2207 23.4932V3.3995C26.2207 2.55156 25.5048 1.80097 24.5307 1.77973L14.8896 2.79758V26.1219Z" fill="#8F989D"/>
</svg>
