<svg width="32" height="32" viewBox="0 0 32 32" fill="none" xmlns="http://www.w3.org/2000/svg">
<path fill-rule="evenodd" clip-rule="evenodd" d="M15.8135 7.36685L26.0855 19.1621L27 18.4242L16.4263 6.28275C16.2678 6.10097 16.0378 5.99934 15.8004 6C15.5607 6.00212 15.3346 6.10934 15.18 6.29381L5 18.4328L5.92857 19.154L15.8135 7.36685ZM7.95068 17.639L15.6634 8.44222C15.7525 8.33641 15.8974 8.33504 15.9882 8.43944L24 17.639L21.7573 26H9.47508L7.95068 17.639Z" fill="#BABFC7"/>
<path fill-rule="evenodd" clip-rule="evenodd" d="M16.4167 16.9637C16.4167 17.6853 16.9777 18.2727 17.6667 18.2727C18.3558 18.2727 18.9167 17.6853 18.9167 16.9637C18.9167 16.2062 18.3449 15 17.6667 15C16.9886 15 16.4167 16.2062 16.4167 16.9637ZM18.5 20.2364C18.5 19.479 19.072 18.2727 19.7499 18.2727C20.428 18.2727 21 19.479 21 20.2364C21 20.958 20.4391 21.5454 19.7499 21.5454C19.0609 21.5454 18.5 20.958 18.5 20.2364ZM13.5 20.2364C13.5 19.479 12.928 18.2727 12.2499 18.2727C11.572 18.2727 11 19.479 11 20.2364C11 20.958 11.5609 21.5455 12.2499 21.5455C12.9391 21.5455 13.5 20.958 13.5 20.2364ZM18.4337 21.6775C18.1209 21.4215 17.9381 21.1298 17.8742 20.8521C17.6373 19.8153 16.8438 19.0909 15.9855 19.0909C15.1274 19.0909 14.3625 19.8153 14.1256 20.8526C14.0618 21.1295 13.879 21.4215 13.566 21.678C13.1851 21.9905 13.0108 22.4736 13.1112 22.9398C13.2319 23.5003 13.7817 23.999 14.5339 23.999C14.8519 23.999 15.1539 23.9067 15.4068 23.7321C15.5747 23.6155 15.7747 23.5538 15.9848 23.5538C16.1947 23.5538 16.4229 23.6152 16.5931 23.7316C16.8468 23.9071 17.1471 24 17.4622 24C18.2139 24 18.7671 23.5038 18.8887 22.9398C18.9891 22.4736 18.8144 21.99 18.4337 21.6775ZM14.3333 18.2727C13.6442 18.2727 13.0833 17.6853 13.0833 16.9637C13.0833 16.2062 13.6552 15 14.3333 15C15.0113 15 15.5833 16.2062 15.5833 16.9637C15.5833 17.6853 15.0224 18.2727 14.3333 18.2727Z" fill="white"/>
</svg>
