<svg width="45" height="40" viewBox="0 0 45 40" fill="none" xmlns="http://www.w3.org/2000/svg">
<path d="M4.46169 4.44444H11.1542L15.6159 0H29.001L33.4627 4.44444H40.1552C41.3386 4.44444 42.4734 4.9127 43.3101 5.74619C44.1469 6.57969 44.6169 7.71015 44.6169 8.88889V35.5556C44.6169 36.7343 44.1469 37.8648 43.3101 38.6983C42.4734 39.5317 41.3386 40 40.1552 40H4.46169C3.27838 40 2.14353 39.5317 1.3068 38.6983C0.47007 37.8648 0 36.7343 0 35.5556V8.88889C0 7.71015 0.47007 6.57969 1.3068 5.74619C2.14353 4.9127 3.27838 4.44444 4.46169 4.44444ZM22.3085 11.1111C19.3502 11.1111 16.5131 12.2817 14.4212 14.3655C12.3294 16.4492 11.1542 19.2754 11.1542 22.2222C11.1542 25.1691 12.3294 27.9952 14.4212 30.079C16.5131 32.1627 19.3502 33.3333 22.3085 33.3333C25.2668 33.3333 28.1039 32.1627 30.1957 30.079C32.2875 27.9952 33.4627 25.1691 33.4627 22.2222C33.4627 19.2754 32.2875 16.4492 30.1957 14.3655C28.1039 12.2817 25.2668 11.1111 22.3085 11.1111ZM22.3085 15.5556C24.0834 15.5556 25.7857 16.2579 27.0408 17.5082C28.2959 18.7584 29.001 20.4541 29.001 22.2222C29.001 23.9903 28.2959 25.686 27.0408 26.9363C25.7857 28.1865 24.0834 28.8889 22.3085 28.8889C20.5335 28.8889 18.8312 28.1865 17.5761 26.9363C16.321 25.686 15.6159 23.9903 15.6159 22.2222C15.6159 20.4541 16.321 18.7584 17.5761 17.5082C18.8312 16.2579 20.5335 15.5556 22.3085 15.5556Z" fill="#72839C"/>
</svg>
