<?xml version="1.0" encoding="iso-8859-1"?>
<!-- Generator: Adobe Illustrator 19.0.0, SVG Export Plug-In . SVG Version: 6.00 Build 0)  -->
<svg version="1.1" id="Capa_1" xmlns="http://www.w3.org/2000/svg" xmlns:xlink="http://www.w3.org/1999/xlink" x="0px" y="0px"
	 viewBox="0 0 512 512" style="enable-background:new 0 0 512 512;" xml:space="preserve">
	 <style type="text/css">
		path{fill:#72839C;}
	</style>
<g>
	<g>
		<path d="M497,50H15C6.716,50,0,56.716,0,65v45h512V65C512,56.716,505.284,50,497,50z"/>
	</g>
</g>
<g>
	<g>
		<path d="M0,140v307c0,8.284,6.716,15,15,15h482c8.284,0,15-6.716,15-15V140H0z M116,198.5c11.046,0,20,8.954,20,20
			s-8.954,20-20,20s-20-8.954-20-20S104.954,198.5,116,198.5z M96,288.5h160c8.284,0,15,6.716,15,15s-6.716,15-15,15H96
			c-8.284,0-15-6.716-15-15S87.716,288.5,96,288.5z M416,403.5H96c-8.284,0-15-6.716-15-15s6.716-15,15-15h320
			c8.284,0,15,6.716,15,15S424.284,403.5,416,403.5z M306,303.5c0-11.046,8.954-20,20-20c11.046,0,20,8.954,20,20
			c0,11.046-8.954,20-20,20C314.954,323.5,306,314.546,306,303.5z M376,303.5c0-11.046,8.954-20,20-20c11.046,0,20,8.954,20,20
			c0,11.046-8.954,20-20,20C384.954,323.5,376,314.546,376,303.5z M416,233.5H186c-8.284,0-15-6.716-15-15s6.716-15,15-15h230
			c8.284,0,15,6.716,15,15S424.284,233.5,416,233.5z"/>
	</g>
</g>
<g>
</g>
<g>
</g>
<g>
</g>
<g>
</g>
<g>
</g>
<g>
</g>
<g>
</g>
<g>
</g>
<g>
</g>
<g>
</g>
<g>
</g>
<g>
</g>
<g>
</g>
<g>
</g>
<g>
</g>
</svg>
