<svg width="20" height="20" viewBox="0 0 20 20" fill="none" xmlns="http://www.w3.org/2000/svg">
<g clip-path="url(#clip0_1666_746)">
<path d="M16.9231 18.6154H3.07692C1.92769 18.6154 1 17.6185 1 16.4V4.21538C1 2.99692 1.92769 2 3.07692 2H16.9231C18.0723 2 19 2.99692 19 4.21538V16.4C19 17.6185 18.0723 18.6154 16.9231 18.6154ZM3.07692 3.38462C2.68923 3.38462 2.38462 3.75846 2.38462 4.21538V16.4C2.38462 16.8569 2.68923 17.2308 3.07692 17.2308H16.9231C17.3108 17.2308 17.6154 16.8569 17.6154 16.4V4.21538C17.6154 3.75846 17.3108 3.38462 16.9231 3.38462H3.07692Z" fill="#8F989D"/>
<path d="M18.3077 8.17514H1.69231C1.30462 8.17514 1 7.87053 1 7.48284C1 7.09514 1.30462 6.79053 1.69231 6.79053H18.3077C18.6954 6.79053 19 7.09514 19 7.48284C19 7.87053 18.6954 8.17514 18.3077 8.17514Z" fill="#8F989D"/>
<path d="M15.4691 11.1107H4.33684C3.94915 11.1107 3.64453 10.8061 3.64453 10.4184C3.64453 10.0307 3.94915 9.72607 4.33684 9.72607H15.4691C15.8568 9.72607 16.1615 10.0307 16.1615 10.4184C16.1615 10.8061 15.8568 11.1107 15.4691 11.1107Z" fill="#8F989D"/>
<path d="M15.4691 14.0877H4.33684C3.94915 14.0877 3.64453 13.7831 3.64453 13.3954C3.64453 13.0077 3.94915 12.7031 4.33684 12.7031H15.4691C15.8568 12.7031 16.1615 13.0077 16.1615 13.3954C16.1615 13.7831 15.8568 14.0877 15.4691 14.0877Z" fill="#8F989D"/>
<path d="M15.843 5.79351C16.2942 5.79351 16.66 5.42777 16.66 4.97659C16.66 4.52542 16.2942 4.15967 15.843 4.15967C15.3919 4.15967 15.0261 4.52542 15.0261 4.97659C15.0261 5.42777 15.3919 5.79351 15.843 5.79351Z" fill="#8F989D"/>
<path d="M13.3924 5.79351C13.8435 5.79351 14.2093 5.42777 14.2093 4.97659C14.2093 4.52542 13.8435 4.15967 13.3924 4.15967C12.9412 4.15967 12.5754 4.52542 12.5754 4.97659C12.5754 5.42777 12.9412 5.79351 13.3924 5.79351Z" fill="#8F989D"/>
<path d="M10.9417 5.79351C11.3929 5.79351 11.7586 5.42777 11.7586 4.97659C11.7586 4.52542 11.3929 4.15967 10.9417 4.15967C10.4905 4.15967 10.1248 4.52542 10.1248 4.97659C10.1248 5.42777 10.4905 5.79351 10.9417 5.79351Z" fill="#8F989D"/>
</g>
<defs>
<clipPath id="clip0_1666_746">
<rect width="18" height="16.6154" fill="white" transform="translate(1 2)"/>
</clipPath>
</defs>
</svg>
