<svg width="12" height="18" viewBox="0 0 12 18" fill="none" xmlns="http://www.w3.org/2000/svg">
<path d="M10.4983 13.9091H1.49975V2.45455H10.4983V13.9091ZM7.71301 16.3636H4.285V15.5455H7.71301V16.3636ZM9.42701 0H2.571C1.88913 0 1.23519 0.258603 0.753029 0.71892C0.270873 1.17924 0 1.80356 0 2.45455V15.5455C0 16.1964 0.270873 16.8208 0.753029 17.2811C1.23519 17.7414 1.88913 18 2.571 18H9.42701C10.1089 18 10.7628 17.7414 11.245 17.2811C11.7271 16.8208 11.998 16.1964 11.998 15.5455V2.45455C11.998 1.80356 11.7271 1.17924 11.245 0.71892C10.7628 0.258603 10.1089 0 9.42701 0Z" fill="#72839C"/>
</svg>
