<svg width="20" height="18" viewBox="0 0 20 20" fill="none" xmlns="http://www.w3.org/2000/svg">
<g clip-path="url(#clip0_1827_2652)">
<path d="M12.3746 19H6.86008C5.64917 19 4.68372 18.0182 4.68372 16.8236L2.00008 3.34C1.98372 1.98182 2.96553 1 4.16008 1L15.0746 1C16.2855 1 17.251 1.98182 17.251 3.17636L17.2346 3.34L14.5346 16.9709C14.551 18.0182 13.5692 19 12.3746 19ZM4.16008 2.63636C3.86553 2.63636 3.62008 2.88182 3.62008 3.17636L6.30372 16.66C6.32008 17.1182 6.56553 17.3636 6.86008 17.3636H12.3583C12.6528 17.3636 12.8983 17.1182 12.8983 16.8236L15.6146 3.12727C15.5819 2.84909 15.3528 2.63636 15.0746 2.63636L4.16008 2.63636Z" fill="#8F989D"/>
<path d="M10.6727 9.72183C10.2472 9.72183 9.83814 9.55819 9.5436 9.24728L8.03814 7.75819C7.41632 7.13638 7.41632 6.12183 8.03814 5.50001L9.5436 3.99456C10.1491 3.3891 11.1963 3.3891 11.8018 3.99456L13.3072 5.50001C13.9291 6.12183 13.9291 7.13638 13.3072 7.75819L11.8018 9.26365C11.4909 9.55819 11.0981 9.72183 10.6727 9.72183ZM9.21632 6.6291L10.6891 8.10183L12.1454 6.59638L10.64 5.14001L9.21632 6.6291Z" fill="#8F989D"/>
<path d="M10.6727 15.9564H8.5454C7.66177 15.9564 6.95813 15.2364 6.95813 14.3691L6.95813 12.2418C6.95813 11.3582 7.67813 10.6545 8.5454 10.6545H10.6727C11.5563 10.6545 12.2599 11.3745 12.2599 12.2418V14.3691C12.2763 15.2364 11.5563 15.9564 10.6727 15.9564ZM8.57813 14.32H10.6727L10.6399 12.2255L8.5454 12.2745L8.57813 14.32Z" fill="#8F989D"/>
</g>
<defs>
<clipPath id="clip0_1827_2652">
<rect width="15.2509" height="18" fill="white" transform="translate(2 1)"/>
</clipPath>
</defs>
</svg>
