<svg width="20" height="20" viewBox="0 0 20 20" fill="none" xmlns="http://www.w3.org/2000/svg">
<g clip-path="url(#clip0_1666_818)">
<path d="M15.7451 16.7308H6.19555C5.14368 16.7308 4.29272 15.8798 4.29272 14.828V2.90282C4.29272 1.85095 5.1555 1 6.19555 1H15.7451C16.797 1 17.6479 1.85095 17.6479 2.90282V14.8398C17.6479 15.8798 16.797 16.7308 15.7451 16.7308ZM6.19555 2.41825C5.92372 2.41825 5.71098 2.63099 5.71098 2.90282V14.8398C5.71098 15.1116 5.92372 15.3244 6.19555 15.3244H15.7451C16.017 15.3244 16.2297 15.1116 16.2297 14.8398V2.90282C16.2297 2.63099 16.017 2.41825 15.7451 2.41825H6.19555Z" fill="#8F989D"/>
<path d="M13.4524 18.9999H3.90282C2.85095 18.9999 2 18.1372 2 17.0971V5.16015C2 4.10828 2.85095 3.25732 3.90282 3.25732H4.56468C4.95469 3.25732 5.2738 3.57643 5.2738 3.96645C5.2738 4.35647 4.95469 4.67558 4.56468 4.67558H3.90282C3.63099 4.67558 3.41825 4.90013 3.41825 5.16015V17.0853C3.41825 17.3571 3.63099 17.5699 3.90282 17.5699H13.4524C13.7242 17.5699 13.937 17.3571 13.937 17.0853V16.2816C13.937 15.8916 14.2561 15.5725 14.6461 15.5725C15.0361 15.5725 15.3552 15.8916 15.3552 16.2816V17.0853C15.3434 18.1372 14.4924 18.9999 13.4524 18.9999Z" fill="#8F989D"/>
<path d="M13.9606 5.14823H7.8976C7.50758 5.14823 7.18848 4.82913 7.18848 4.43911C7.18848 4.04909 7.50758 3.72998 7.8976 3.72998H13.9725C14.3625 3.72998 14.6816 4.04909 14.6816 4.43911C14.6816 4.82913 14.3625 5.14823 13.9606 5.14823Z" fill="#8F989D"/>
<path d="M13.9606 7.96122H7.8976C7.50758 7.96122 7.18848 7.64211 7.18848 7.2521C7.18848 6.86208 7.50758 6.54297 7.8976 6.54297H13.9725C14.3625 6.54297 14.6816 6.86208 14.6816 7.2521C14.6816 7.64211 14.3625 7.96122 13.9606 7.96122Z" fill="#8F989D"/>
<path d="M10.9232 10.7742H7.8976C7.50758 10.7742 7.18848 10.4551 7.18848 10.0651C7.18848 9.67506 7.50758 9.35596 7.8976 9.35596H10.935C11.325 9.35596 11.6442 9.67506 11.6442 10.0651C11.6442 10.4551 11.325 10.7742 10.9232 10.7742Z" fill="#8F989D"/>
</g>
<defs>
<clipPath id="clip0_1666_818">
<rect width="15.6481" height="18" fill="white" transform="translate(2 1)"/>
</clipPath>
</defs>
</svg>
