<svg width="20" height="20" viewBox="0 0 20 20" fill="none" xmlns="http://www.w3.org/2000/svg">
<path d="M15.1039 19H4.15493C2.96655 19 2 18.0335 2 16.8451V3.15493C2 1.96655 2.96655 1 4.15493 1H11.9665C12.331 1 12.6796 1.14261 12.9331 1.39613L16.8785 5.34155C17.132 5.59507 17.2746 5.94366 17.2746 6.3081V16.8451C17.2746 18.0335 16.3081 19 15.1039 19ZM4.15493 2.58451C3.83803 2.58451 3.58451 2.83803 3.58451 3.15493V16.8451C3.58451 17.162 3.83803 17.4155 4.15493 17.4155H15.1039C15.4208 17.4155 15.6743 17.162 15.6743 16.8451V6.40317L11.8715 2.58451H4.15493Z" fill="#72839C"/>
<path d="M16.4824 9.47709H2.79225C2.34859 9.47709 2 9.11265 2 8.68483C2 8.25701 2.34859 7.89258 2.79225 7.89258H16.4824C16.9261 7.89258 17.2746 8.24117 17.2746 8.68483C17.2746 9.12849 16.9102 9.47709 16.4824 9.47709Z" fill="#72839C"/>
<path d="M16.4824 15.0704H2.79225C2.34859 15.0704 2 14.7218 2 14.2782C2 13.8345 2.34859 13.4859 2.79225 13.4859H16.4824C16.9261 13.4859 17.2746 13.8345 17.2746 14.2782C17.2746 14.7218 16.9102 15.0704 16.4824 15.0704Z" fill="#72839C"/>
</svg>
