<?xml version="1.0" encoding="utf-8"?>
<!-- Generator: Adobe Illustrator 24.1.0, SVG Export Plug-In . SVG Version: 6.00 Build 0)  -->
<svg version="1.1" id="Capa_1" xmlns="http://www.w3.org/2000/svg" xmlns:xlink="http://www.w3.org/1999/xlink" x="0px" y="0px"
	 viewBox="0 0 477.9 477.9" style="enable-background:new 0 0 477.9 477.9;" xml:space="preserve">
<style type="text/css">
	.st0{fill:#6E7F8F;}
	.st1{fill:#FFFFFF;}
	.st2{fill:#6E7F8F;stroke:#FFFFFF;stroke-width:24;stroke-miterlimit:10;}
</style>
<g>
	<g>
		<path class="st0" d="M71.3,381.4c-26.4,0-47.9-21.5-47.9-47.9V184.2c0-26.4,21.5-47.9,47.9-47.9h335.4c26.4,0,47.9,21.5,47.9,47.9
			v149.4c0,26.4-21.5,47.9-47.9,47.9H71.3z M106.1,210.4c-0.5,0-1,0.2-1.4,0.6c-0.4,0.4-0.6,0.9-0.6,1.4l0.2,94.6c0,1.1,0.9,2,2,2
			s2-0.9,2-2v-39.2l10.4-0.1c5.1,0,10.6,0,13.8,0c16.1,0,29.2-12.9,29.2-28.7c0-15.8-13.1-28.7-29.2-28.7H106.1z M331.9,209.5
			c-1.1,0-2,0.9-2,2v93.9c0,1.1,0.9,2,2,2s2-0.9,2-2v-45.9H367c1.1,0,2-0.9,2-2s-0.9-2-2-2h-33.1v-42.2H370c1.1,0,2-0.9,2-2
			s-0.9-2-2-2H331.9z M212.4,210.4c-0.5,0-1,0.2-1.4,0.6s-0.6,0.9-0.6,1.4c0,0,0.2,91.3,0.2,91.8c0,0.5,0.2,1,0.6,1.4
			c0.4,0.4,0.9,0.6,1.4,0.6c0.2,0,19.2-0.1,26.6-0.2c22.2-0.4,38.2-20.4,38.2-47.7c0-29.1-15.3-47.9-39-47.9H212.4z"/>
		<path class="st1" d="M406.6,146.8c20.6,0,37.4,16.8,37.4,37.4v149.4c0,20.6-16.8,37.4-37.4,37.4H71.3c-20.6,0-37.4-16.8-37.4-37.4
			V184.2c0-20.6,16.8-37.4,37.4-37.4H406.6 M331.9,317.8c6.9,0,12.5-5.6,12.5-12.5V270H367c6.9,0,12.5-5.6,12.5-12.5
			c0-6.9-5.6-12.5-12.5-12.5h-22.6v-21.2H370c6.9,0,12.5-5.6,12.5-12.5S376.9,199,370,199h-38.1c-6.9,0-12.5,5.6-12.5,12.5v93.9
			C319.5,312.2,325,317.8,331.9,317.8 M212.6,316.7C212.6,316.7,212.6,316.7,212.6,316.7c0.8,0,19.4-0.1,26.8-0.2v0
			c28.1-0.5,48.6-25,48.6-58.2c0-34.9-19.9-58.4-49.5-58.4h-26c-3.3,0-6.5,1.3-8.8,3.7c-2.3,2.3-3.6,5.5-3.6,8.8
			c0,0,0.2,91.5,0.2,91.8c0,3.3,1.3,6.5,3.7,8.8C206.1,315.4,209.3,316.7,212.6,316.7 M106.3,319.5c6.9,0,12.5-5.6,12.5-12.5v-28.7
			c5.1,0,10.5,0,13.7,0c21.9,0,39.7-17.6,39.7-39.2c0-21.6-17.8-39.2-39.7-39.2h-26.3c-3.3,0-6.5,1.3-8.8,3.7
			c-2.3,2.3-3.6,5.5-3.6,8.8l0.2,94.6C93.9,313.9,99.4,319.5,106.3,319.5 M406.6,125.8H71.3c-32.2,0-58.4,26.2-58.4,58.4v149.4
			c0,32.2,26.2,58.4,58.4,58.4h335.4c32.2,0,58.4-26.2,58.4-58.4V184.2C465,152,438.8,125.8,406.6,125.8L406.6,125.8z M221,220.9
			h17.4c8.3,0,15,2.9,19.9,8.7c5.6,6.6,8.7,16.8,8.7,28.7c0,21.6-11.5,36.9-27.9,37.2c-3.7,0.1-10.8,0.1-17.9,0.2
			C221.1,278.1,221,238.4,221,220.9L221,220.9z M114.7,220.9h17.8c10.3,0,18.7,8.1,18.7,18.2c0,10-8.4,18.2-18.7,18.2
			c-3.5,0-9.5,0-13.8,0l-3.9,0L114.7,220.9L114.7,220.9z"/>
	</g>
	<g>
		<path class="st0" d="M214.5,291.7c0-8.5-0.1-37.9-0.1-55.6l0-21.8h24.1c21.3,0,35.1,17.3,35.1,44c0,25.4-14.1,43.4-34.4,43.8
			c-2.7,0-7.5,0.1-14.1,0.1l-10.5,0.1L214.5,291.7z"/>
		<path class="st1" d="M238.4,224.8c22.9,0,24.6,25.6,24.6,33.5c0,16.3-7.4,33-24.1,33.3c-3.2,0.1-8.8,0.1-14,0.1
			c0-10.8-0.1-55.6-0.1-66.9H238.4 M238.4,203.8h-13.5h-21l0,21l0,9.3c0,17,0.1,48.7,0.1,57.6l0.1,21.1l21.1-0.1
			c6.6,0,11.4-0.1,14.2-0.1c14.9-0.3,27.5-7.5,35.7-20.4c5.8-9.2,9.1-21.3,9.1-33.9c0-5.9-0.7-17.4-5.6-28.2
			C271,213.4,256.4,203.8,238.4,203.8L238.4,203.8z"/>
	</g>
	<g>
		<path class="st0" d="M108.2,253.4c0-5.3,0-11,0-14.4c0-2.8,0-8.7,0-14.2l0-10.5h24.4c13.7,0,25.3,11.3,25.3,24.8
			c0,13.4-11.6,24.8-25.3,24.8c-3.2,0-8.6,0-13.7,0l-10.5,0.1L108.2,253.4z"/>
		<path class="st1" d="M132.5,224.8c8,0,14.8,6.5,14.8,14.3c0,7.7-6.8,14.3-14.8,14.3c-3.2,0-8.7,0-13.8,0c0-5.3,0-11,0-14.3
			c0-2.8,0-8.7,0-14.3H132.5 M132.5,203.8h-13.9H97.6l0.1,21.1c0,5.5,0,11.4,0,14.2c0,3.9,0,10.7,0.1,14.4l0.1,21l21-0.1
			c6.4,0,11,0,13.7,0c9.3,0,18.2-3.6,25-10.1c6.9-6.6,10.8-15.8,10.8-25.1c0-9.4-3.9-18.5-10.8-25.1
			C150.7,207.4,141.8,203.8,132.5,203.8L132.5,203.8z"/>
	</g>
	<g>
		<path class="st0" d="M69.9,132.4V63.8c0-26.4,21.5-47.9,47.9-47.9h165.8c19.9,0,39.1,8.3,52.8,22.7L388,93.2
			c6.9,7.3,12.1,15.7,15.5,25.1l5.1,14.1H69.9z"/>
		<path class="st1" d="M283.5,26.4c17,0,33.5,7.1,45.2,19.4l51.7,54.6c5.9,6.3,10.4,13.6,13.3,21.5H80.4V63.8
			c0-20.6,16.8-37.4,37.4-37.4H283.5 M283.5,5.4H117.8c-32.2,0-58.4,26.2-58.4,58.4v58.1v21h21h313.3h30l-10.3-28.2
			c-3.9-10.7-9.9-20.4-17.8-28.7l-51.7-54.6C328.3,14.9,306.3,5.4,283.5,5.4L283.5,5.4z"/>
	</g>
	<g>
		<path class="st0" d="M117.8,462c-26.4,0-47.9-21.5-47.9-47.9v-28.8H408v28.8c0,26.4-21.5,47.9-47.9,47.9H117.8z"/>
		<path class="st1" d="M397.5,395.8v18.3c0,20.6-16.8,37.4-37.4,37.4H117.8c-20.6,0-37.4-16.8-37.4-37.4v-18.3H397.5 M418.5,374.8
			h-21H80.4h-21v21v18.3c0,32.2,26.2,58.4,58.4,58.4h242.4c32.2,0,58.4-26.2,58.4-58.4v-18.3V374.8L418.5,374.8z"/>
	</g>
</g>
</svg>
