<svg width="20" height="20" viewBox="0 0 20 20" xmlns="http://www.w3.org/2000/svg">
<path d="M9.99404 18.7406C9.60402 18.7406 9.28491 18.4215 9.28491 18.0315V13.6349C9.28491 13.2449 9.60402 12.9258 9.99404 12.9258C10.3841 12.9258 10.7032 13.2449 10.7032 13.6349V18.0315C10.7032 18.4333 10.3841 18.7406 9.99404 18.7406Z" fill="#36f"/>
<path d="M13.2323 19.0003H6.76748C6.37746 19.0003 6.05835 18.6812 6.05835 18.2912C6.05835 17.9011 6.37746 17.582 6.76748 17.582H13.2323C13.6224 17.582 13.9415 17.9011 13.9415 18.2912C13.9415 18.6812 13.6224 19.0003 13.2323 19.0003Z" fill="#36f"/>
<path d="M9.99408 14.3434C8.304 14.3434 6.89756 13.5161 6.03479 12.0151C4.58108 9.50952 3.76559 2.09915 3.73013 1.78004L3.6474 1H9.99408C10.3841 1 10.7032 1.31911 10.7032 1.70913C10.7032 2.09915 10.3841 2.41825 9.99408 2.41825H5.24294C5.55022 4.88838 6.30663 9.63953 7.26395 11.306C7.87852 12.3815 8.80039 12.9251 9.99408 12.9251C10.3841 12.9251 10.7032 13.2443 10.7032 13.6343C10.7032 14.0243 10.3841 14.3434 9.99408 14.3434Z" fill="#36f"/>
<path d="M6.02298 11.3057C5.94025 11.3057 5.86934 11.2939 5.78661 11.2703C1 9.58017 1 3.26894 1 3.00893V2.2998H4.38017C4.77019 2.2998 5.0893 2.61891 5.0893 3.00893C5.0893 3.39895 4.78201 3.71806 4.39199 3.71806H2.45371C2.59554 5.2545 3.25739 8.87105 6.25936 9.92292C6.62574 10.0529 6.82666 10.4548 6.69665 10.833C6.59028 11.1284 6.31845 11.3057 6.02298 11.3057Z" fill="#36f"/>
<path d="M9.9941 14.3434C9.60408 14.3434 9.28497 14.0243 9.28497 13.6343C9.28497 13.2443 9.60408 12.9251 9.9941 12.9251C11.1878 12.9251 12.1097 12.3815 12.7242 11.306C13.6934 9.63953 14.438 4.87656 14.7452 2.41825H9.9941C9.60408 2.41825 9.28497 2.09915 9.28497 1.70913C9.28497 1.31911 9.60408 1 9.9941 1H16.3408L16.2581 1.78004C16.2226 2.09915 15.4071 9.4977 13.9534 12.0151C13.0906 13.5161 11.6842 14.3434 9.9941 14.3434Z" fill="#36f"/>
<path d="M13.9652 11.3057C13.6697 11.3057 13.3979 11.1284 13.2915 10.833C13.1615 10.4666 13.3506 10.0529 13.7288 9.92292C16.7308 8.85923 17.3927 5.2545 17.5345 3.71806H15.5962C15.2062 3.71806 14.8871 3.39895 14.8871 3.00893C14.8871 2.61891 15.2062 2.2998 15.5962 2.2998H18.9882V3.00893C18.9882 3.28076 18.9882 9.58017 14.2016 11.2703C14.1307 11.2939 14.0479 11.3057 13.9652 11.3057Z" fill="#36f"/>
</svg>
