<?xml version="1.0" encoding="utf-8"?>
<!-- Generator: Adobe Illustrator 24.3.0, SVG Export Plug-In . SVG Version: 6.00 Build 0)  -->
<svg version="1.1" id="Layer_1" xmlns="http://www.w3.org/2000/svg" xmlns:xlink="http://www.w3.org/1999/xlink" x="0px" y="0px"
	 viewBox="0 0 100 100" style="enable-background:new 0 0 100 100;" xml:space="preserve">
<style type="text/css">
	.st0{fill:#72839C;}
</style>
<path class="st0" d="M90.2,13.26H79.08c0.04-1.23,0.06-2.47,0.06-3.72c0-1.4-1.14-2.54-2.54-2.54H22.21c-1.4,0-2.54,1.14-2.54,2.54
	c0,1.25,0.02,2.48,0.06,3.72H8.62c-1.4,0-2.54,1.14-2.54,2.54c0,11.38,2.97,22.11,8.37,30.22c5.34,8.02,12.45,12.62,20.12,13.07
	c1.74,1.89,3.58,3.44,5.5,4.62v11.29h-4.26c-5.15,0-9.34,4.19-9.34,9.34v4.26h-0.18c-1.4,0-2.54,1.14-2.54,2.54
	c0,1.4,1.14,2.54,2.54,2.54h46.23c1.4,0,2.54-1.14,2.54-2.54c0-1.4-1.14-2.54-2.54-2.54h-0.18v-4.26c0-5.15-4.19-9.34-9.34-9.34
	h-4.26V63.71c1.92-1.18,3.76-2.72,5.5-4.62c7.68-0.45,14.79-5.05,20.12-13.07c5.4-8.11,8.37-18.85,8.37-30.22
	C92.74,14.39,91.61,13.26,90.2,13.26z M18.68,43.21c-4.45-6.69-7.07-15.45-7.47-24.87h8.81c0.92,11.59,3.64,22.3,7.89,30.8
	c0.68,1.35,1.39,2.63,2.12,3.84C25.81,51.38,21.9,48.05,18.68,43.21z M80.14,43.21c-3.22,4.84-7.13,8.17-11.35,9.77
	c0.74-1.21,1.44-2.48,2.12-3.84c4.25-8.5,6.97-19.21,7.89-30.8h8.81C87.21,27.76,84.6,36.51,80.14,43.21z"/>
</svg>
