<svg width="18" height="12" viewBox="0 0 18 12" fill="none" xmlns="http://www.w3.org/2000/svg">
<path d="M9 0C5.07449 0 1.672 2.28589 0 5.625C1.672 8.96411 5.07449 11.25 9 11.25C12.9254 11.25 16.3279 8.96411 18 5.625C16.328 2.28589 12.9254 0 9 0ZM13.4376 2.98308C14.4952 3.65762 15.3913 4.56114 16.0644 5.625C15.3913 6.68886 14.4951 7.59238 13.4376 8.26692C12.1088 9.1145 10.5743 9.5625 9 9.5625C7.4257 9.5625 5.8912 9.1145 4.5624 8.26692C3.5049 7.59234 2.60877 6.68883 1.93563 5.625C2.60873 4.5611 3.5049 3.65759 4.5624 2.98308C4.63127 2.93913 4.70085 2.89656 4.77084 2.85476C4.5958 3.33513 4.5 3.85358 4.5 4.39453C4.5 6.87976 6.51473 8.89453 9 8.89453C11.4852 8.89453 13.5 6.87976 13.5 4.39453C13.5 3.85358 13.4042 3.33513 13.2292 2.85472C13.2991 2.89652 13.3687 2.93913 13.4376 2.98308ZM9 3.83203C9 4.76402 8.24449 5.51953 7.3125 5.51953C6.38051 5.51953 5.625 4.76402 5.625 3.83203C5.625 2.90004 6.38051 2.14453 7.3125 2.14453C8.24449 2.14453 9 2.90004 9 3.83203Z" fill="#3366FF"/>
</svg>
