<svg width="22" height="22" viewBox="0 0 20 20" fill="none" xmlns="http://www.w3.org/2000/svg">
<path d="M7.22183 14.8728C7.04729 14.8728 6.87274 14.8146 6.72729 14.7128C6.46547 14.5237 6.33456 14.1891 6.39274 13.84L6.84365 11.2364L4.95274 9.38912C4.69092 9.14185 4.60365 8.8073 4.70547 8.4873C4.80729 8.1673 5.08365 7.94912 5.43274 7.90548L8.05092 7.5273L9.21456 5.15639C9.53456 4.51639 10.4655 4.51639 10.7855 5.15639L11.9491 7.5273L14.5527 7.90548C14.9018 7.94912 15.1782 8.18185 15.28 8.4873C15.3818 8.8073 15.2946 9.14185 15.0327 9.38912L13.1418 11.2364L13.5927 13.84C13.6509 14.1891 13.5346 14.5237 13.2582 14.7128C12.9964 14.9018 12.6473 14.9164 12.3273 14.7564L10 13.5346L7.6582 14.7564C7.51274 14.8291 7.36729 14.8728 7.22183 14.8728ZM10 12.0364C10.1891 12.0364 10.3637 12.08 10.5382 12.1673L11.9637 12.9237L11.6873 11.3237C11.6291 10.96 11.7455 10.5818 12.0218 10.3055L13.1855 9.17094L11.5855 8.93821C11.2073 8.88003 10.8873 8.6473 10.7273 8.31276L10.0146 6.85821L9.30183 8.31276C9.12729 8.6473 8.80729 8.89457 8.44365 8.93821L6.84365 9.17094L8.00729 10.3055C8.28365 10.5673 8.40002 10.9455 8.34183 11.3237L8.06547 12.9237L9.49092 12.1673C9.63638 12.08 9.81092 12.0364 10 12.0364Z" fill="#8F989D"/>
<path d="M10 18C5.59273 18 2 14.4073 2 10C2 5.59273 5.59273 2 10 2C14.4073 2 18 5.59273 18 10C18 14.4073 14.4073 18 10 18ZM10 3.45455C6.39273 3.45455 3.45455 6.39273 3.45455 10C3.45455 13.6073 6.39273 16.5455 10 16.5455C13.6073 16.5455 16.5455 13.6073 16.5455 10C16.5455 6.39273 13.6073 3.45455 10 3.45455Z" fill="#8F989D"/>
</svg>
