<svg width="272" height="257" viewBox="0 0 272 257" fill="none" xmlns="http://www.w3.org/2000/svg">
<path fill-rule="evenodd" clip-rule="evenodd" d="M151.855 44.9844C151.855 61.5156 165.312 74.9727 181.844 74.9727C198.375 74.9727 211.832 61.5156 211.832 44.9844C211.832 27.6328 198.113 0 181.844 0C165.574 0 151.855 27.6328 151.855 44.9844ZM60.8906 104.961C60.8906 87.6094 47.168 59.9766 30.8984 59.9766C14.6328 59.9766 0.910156 87.6094 0.910156 104.961C0.910156 121.492 14.3672 134.949 30.8984 134.949C47.4336 134.949 60.8906 121.492 60.8906 104.961ZM221.203 184.594C210.297 176.715 203.926 167.734 201.699 159.184C193.441 127.262 165.777 104.961 135.859 104.961C105.945 104.961 79.2812 127.262 71.0234 159.199C68.7968 167.723 62.4258 176.715 51.5156 184.609C38.2343 194.23 32.1601 209.105 35.6601 223.457C39.8672 240.715 59.0351 256.066 85.2539 256.066C96.3398 256.066 106.867 253.227 115.684 247.852C121.539 244.262 128.508 242.359 135.832 242.359C143.152 242.359 151.105 244.25 157.039 247.836C165.883 253.238 176.352 256.098 187.336 256.098C213.539 256.098 232.824 240.82 237.062 223.457C240.562 209.105 234.473 194.215 221.203 184.594ZM211.832 104.961C211.832 87.6094 225.555 59.9766 241.82 59.9766C258.09 59.9766 271.812 87.6094 271.812 104.961C271.812 121.492 258.355 134.949 241.82 134.949C225.289 134.949 211.832 121.492 211.832 104.961ZM90.8789 74.9727C74.3477 74.9727 60.8906 61.5156 60.8906 44.9844C60.8906 27.6328 74.6094 0 90.8789 0C107.145 0 120.867 27.6328 120.867 44.9844C120.867 61.5156 107.41 74.9727 90.8789 74.9727Z" fill="#3366ff"/>
</svg>
