<svg width="20" height="20" viewBox="0 0 20 20" fill="none" xmlns="http://www.w3.org/2000/svg">
<path d="M18.0845 8.95827H6.47513C5.96242 8.95827 5.55957 8.55542 5.55957 8.0427C5.55957 7.52998 5.96242 7.12714 6.47513 7.12714H18.0845C18.5972 7.12714 19.0001 7.52998 19.0001 8.0427C19.0001 8.55542 18.5972 8.95827 18.0845 8.95827Z" fill="#3366ff"/>
<path d="M18.0845 12.884H6.47513C5.96242 12.884 5.55957 12.4812 5.55957 11.9685C5.55957 11.4558 5.96242 11.0529 6.47513 11.0529H18.0845C18.5972 11.0529 19.0001 11.4558 19.0001 11.9685C19.0001 12.4812 18.5972 12.884 18.0845 12.884Z" fill="#3366ff"/>
<path d="M18.0845 5.03255H6.47513C5.96242 5.03255 5.55957 4.6297 5.55957 4.11698C5.55957 3.60426 5.96242 3.20142 6.47513 3.20142H18.0845C18.5972 3.20142 19.0001 3.60426 19.0001 4.11698C19.0001 4.6297 18.5972 5.03255 18.0845 5.03255Z" fill="#3366ff"/>
<path d="M18.0845 16.7915H6.47513C5.96242 16.7915 5.55957 16.3886 5.55957 15.8759C5.55957 15.3632 5.96242 14.9603 6.47513 14.9603H18.0845C18.5972 14.9603 19.0001 15.3632 19.0001 15.8759C19.0001 16.3886 18.5972 16.7915 18.0845 16.7915Z" fill="#3366ff"/>
<path d="M2.11699 5.23398C2.73388 5.23398 3.23398 4.73388 3.23398 4.11699C3.23398 3.50009 2.73388 3 2.11699 3C1.50009 3 1 3.50009 1 4.11699C1 4.73388 1.50009 5.23398 2.11699 5.23398Z" fill="#3366ff"/>
<path d="M2.11699 9.1597C2.73388 9.1597 3.23398 8.6596 3.23398 8.04271C3.23398 7.42581 2.73388 6.92572 2.11699 6.92572C1.50009 6.92572 1 7.42581 1 8.04271C1 8.6596 1.50009 9.1597 2.11699 9.1597Z" fill="#3366ff"/>
<path d="M2.11699 13.0855C2.73388 13.0855 3.23398 12.5854 3.23398 11.9685C3.23398 11.3516 2.73388 10.8515 2.11699 10.8515C1.50009 10.8515 1 11.3516 1 11.9685C1 12.5854 1.50009 13.0855 2.11699 13.0855Z" fill="#3366ff"/>
<path d="M2.11699 16.9929C2.73388 16.9929 3.23398 16.4928 3.23398 15.8759C3.23398 15.259 2.73388 14.7589 2.11699 14.7589C1.50009 14.7589 1 15.259 1 15.8759C1 16.4928 1.50009 16.9929 2.11699 16.9929Z" fill="#3366ff"/>
</svg>
