<svg width="20" height="20" viewBox="0 0 20 20" fill="none" xmlns="http://www.w3.org/2000/svg">
<g clip-path="url(#clip0_1672_2123)">
<path d="M16.9231 17.9646H3.07692C1.92769 17.9646 1 17.1615 1 16.1646V7.30308C1 6.30615 1.92769 5.50308 3.07692 5.50308H5.04308V3.8C5.04308 2.78923 5.65231 2 6.44154 2H13.5585C14.3477 2 14.9569 2.78923 14.9569 3.8V5.50308H16.9231C18.0723 5.50308 19 6.30615 19 7.30308V16.1646C19 17.1615 18.0723 17.9646 16.9231 17.9646ZM3.07692 6.88769C2.67538 6.88769 2.38462 7.10923 2.38462 7.30308V16.1646C2.38462 16.3585 2.67538 16.58 3.07692 16.58H16.9231C17.3246 16.58 17.6154 16.3585 17.6154 16.1646V7.30308C17.6154 7.10923 17.3246 6.88769 16.9231 6.88769H13.5723V3.8C13.5723 3.55077 13.4892 3.38462 13.4477 3.35692L6.44154 3.38462C6.51077 3.38462 6.42769 3.55077 6.42769 3.8V6.88769H3.07692Z" fill="#8F989D"/>
<path d="M10 15.5969C7.60466 15.5969 5.6385 13.6446 5.6385 11.2354C5.6385 8.82616 7.60466 6.8877 10 6.8877C12.3954 6.8877 14.3616 8.84 14.3616 11.2492C14.3616 13.6585 12.3954 15.5969 10 15.5969ZM10 8.27231C8.3662 8.27231 7.02312 9.60154 7.02312 11.2492C7.02312 12.8969 8.3662 14.2123 10 14.2123C11.6339 14.2123 12.977 12.8831 12.977 11.2354C12.977 9.5877 11.6339 8.27231 10 8.27231Z" fill="#8F989D"/>
</g>
<defs>
<clipPath id="clip0_1672_2123">
<rect width="18" height="15.9646" fill="white" transform="translate(1 2)"/>
</clipPath>
</defs>
</svg>
