<svg width="13" height="18" viewBox="0 0 13 18" fill="none" xmlns="http://www.w3.org/2000/svg">
<path d="M6.11042 7.49477C6.78369 7.49477 7.32948 6.94897 7.32948 6.2757C7.32948 5.60243 6.78369 5.05664 6.11042 5.05664C5.43715 5.05664 4.89136 5.60243 4.89136 6.2757C4.89136 6.94897 5.43715 7.49477 6.11042 7.49477Z" fill="#3366ff"/>
<path d="M10.8211 9.40635C10.7007 9.40635 10.5803 9.37626 10.4599 9.31605C10.0987 9.1204 9.96321 8.6689 10.1589 8.29264C10.5201 7.63044 10.7157 6.87793 10.7157 6.11037C10.7157 3.56689 8.65385 1.50502 6.11037 1.50502C3.56689 1.50502 1.50502 3.56689 1.50502 6.11037C1.50502 6.86288 1.68562 7.60033 2.03177 8.26254C2.22742 8.62375 2.09197 9.0903 1.71572 9.28595C1.35451 9.46656 0.90301 9.31605 0.707358 8.95485C0.240803 8.08194 0 7.10368 0 6.11037C0 2.73913 2.73913 0 6.11037 0C9.4816 0 12.2207 2.73913 12.2207 6.11037C12.2207 7.11873 11.9649 8.12709 11.4833 9.01505C11.3478 9.25585 11.092 9.40635 10.8211 9.40635Z" fill="#3366ff"/>
<path d="M6.11031 18.0002L0.767497 9.09049C0.556795 8.72929 0.677196 8.26273 1.0384 8.05203C1.3996 7.84133 1.85111 7.96173 2.07686 8.30788L6.12536 15.0654L10.1739 8.30788C10.3846 7.94668 10.8511 7.84133 11.2123 8.05203C11.5434 8.26273 11.6488 8.72929 11.4381 9.09049L6.11031 18.0002Z" fill="#3366ff"/>
</svg>
