<svg width="20" height="20" viewBox="0 0 20 20" fill="none" xmlns="http://www.w3.org/2000/svg">
<path d="M17.3145 8.02015H2.68537C2.22719 8.02015 1.86719 7.66015 1.86719 7.20197C1.86719 6.74379 2.22719 6.38379 2.68537 6.38379H17.3145C17.7726 6.38379 18.1326 6.74379 18.1326 7.20197C18.1326 7.66015 17.7726 8.02015 17.3145 8.02015Z" fill="#72839C"/>
<path d="M17.3145 13.6163H2.68537C2.22719 13.6163 1.86719 13.2563 1.86719 12.7982C1.86719 12.34 2.22719 11.98 2.68537 11.98H17.3145C17.7726 11.98 18.1326 12.34 18.1326 12.7982C18.1326 13.2563 17.7726 13.6163 17.3145 13.6163Z" fill="#72839C"/>
<path d="M10 19C9.36182 19 8.70727 18.9182 7.98727 18.7545C3.88 17.8218 1 14.2218 1 10C1 5.77818 3.88 2.17818 7.98727 1.24545C8.70727 1.08182 9.36182 1 10 1C14.9582 1 19 5.04182 19 10C19 14.9582 14.9582 19 10 19ZM8.36364 17.1673C8.95273 17.2982 9.47636 17.3636 10 17.3636C14.0582 17.3636 17.3636 14.0582 17.3636 10C17.3636 5.94182 14.0582 2.63636 10 2.63636C9.49273 2.63636 8.95273 2.70182 8.36364 2.83273C4.99273 3.60182 2.63636 6.54727 2.63636 10C2.63636 13.4527 4.99273 16.3982 8.36364 17.1673Z" fill="#72839C"/>
<path d="M8.64176 18.8691C8.33085 18.8691 8.03631 18.6891 7.88904 18.3782C7.70904 17.9691 7.88904 17.4782 8.29813 17.2982C11.2272 16.0054 13.1254 13.1418 13.1254 9.99999C13.1254 6.85817 11.2272 3.99453 8.31449 2.68544C7.9054 2.50544 7.70903 2.0309 7.9054 1.60544C8.0854 1.19635 8.57631 0.999988 8.9854 1.19635C12.4872 2.7509 14.7618 6.20362 14.7618 9.99999C14.7618 13.7964 12.4872 17.2491 8.9854 18.8036C8.87085 18.8527 8.75631 18.8691 8.64176 18.8691Z" fill="#72839C"/>
<path d="M11.1619 18.7871C11.0474 18.7871 10.9328 18.7543 10.8183 18.7052C7.38192 17.1016 5.23828 13.7471 5.23828 9.99979C5.23828 6.20343 7.51283 2.73434 11.0474 1.17979C11.4565 0.999791 11.9474 1.19615 12.1274 1.60525C12.3074 2.01434 12.1274 2.50525 11.7019 2.68525C8.77283 3.97797 6.87464 6.84161 6.87464 9.99979C6.87464 13.1089 8.65828 15.8907 11.5219 17.2325C11.931 17.4289 12.111 17.9198 11.9146 18.3289C11.7674 18.6234 11.4728 18.7871 11.1619 18.7871Z" fill="#72839C"/>
</svg>
