<svg width="20" height="20" viewBox="0 0 20 20" fill="none" xmlns="http://www.w3.org/2000/svg">
<path d="M16.8236 17.2673H3.17636C1.98182 17.2673 1 16.3018 1 15.0909V4.17636C1 2.98182 1.98182 2 3.17636 2H16.8073C18.0182 2 19 2.98182 19 4.17636V15.0909C19 16.3018 18.0182 17.2673 16.8236 17.2673ZM3.17636 3.63636C2.88182 3.63636 2.63636 3.88182 2.63636 4.17636V15.0909C2.63636 15.3855 2.88182 15.6309 3.17636 15.6309H16.8073C17.1182 15.6309 17.3636 15.3855 17.3636 15.0909V4.17636C17.3636 3.88182 17.1182 3.63636 16.8236 3.63636H3.17636Z" fill="#72839C"/>
<path d="M9.77094 11.4085C9.4273 11.4085 9.0673 11.343 8.74003 11.2121L1.52366 8.36484C1.09821 8.2012 0.901846 7.72666 1.06548 7.3012C1.22912 6.87575 1.70366 6.67938 2.12912 6.84302L9.34548 9.69029C9.62366 9.80484 9.91821 9.80484 10.1964 9.69029L17.6582 6.82666C18.0837 6.66302 18.5582 6.87575 18.7218 7.3012C18.8855 7.72666 18.6728 8.2012 18.2473 8.36484L10.7855 11.2285C10.4582 11.3594 10.1146 11.4085 9.77094 11.4085Z" fill="#72839C"/>
</svg>
