<svg width="12" height="18" viewBox="0 0 12 18" fill="none" xmlns="http://www.w3.org/2000/svg">
<path d="M10.2 13.8H1.79999V2.59995H10.2V13.8ZM7.59999 16.2H4.39999V15.4H7.59999V16.2ZM9.2 0.199951H2.79999C2.16347 0.199951 1.55303 0.452808 1.10294 0.902895C0.65285 1.35298 0.399994 1.96343 0.399994 2.59995V15.4C0.399994 16.0365 0.65285 16.6469 1.10294 17.097C1.55303 17.5471 2.16347 17.7999 2.79999 17.7999H9.2C9.83651 17.7999 10.447 17.5471 10.8971 17.097C11.3471 16.6469 11.6 16.0365 11.6 15.4V2.59995C11.6 1.96343 11.3471 1.35298 10.8971 0.902895C10.447 0.452808 9.83651 0.199951 9.2 0.199951Z" fill="#72839C"/>
</svg>
