<svg width="16" height="14" viewBox="0 0 16 14" fill="none" xmlns="http://www.w3.org/2000/svg">
<path d="M1.6 0.600098H14.4C14.8243 0.600098 15.2313 0.768669 15.5314 1.06873C15.8314 1.36878 16 1.77575 16 2.2001V11.8001C16 12.2244 15.8314 12.6314 15.5314 12.9315C15.2313 13.2315 14.8243 13.4001 14.4 13.4001H1.6C0.712 13.4001 0 12.6801 0 11.8001V2.2001C0 1.3121 0.712 0.600098 1.6 0.600098ZM8 6.2001L14.4 2.2001H1.6L8 6.2001ZM1.6 11.8001H14.4V4.0961L8 8.0881L1.6 4.0961V11.8001Z" fill="#72839C"/>
</svg>
