<svg width="20" height="20" viewBox="0 0 20 20" fill="none" xmlns="http://www.w3.org/2000/svg">
    <path d="M10.1104 8.49477C10.7837 8.49477 11.3295 7.94897 11.3295 7.2757C11.3295 6.60243 10.7837 6.05664 10.1104 6.05664C9.43715 6.05664 8.89136 6.60243 8.89136 7.2757C8.89136 7.94897 9.43715 8.49477 10.1104 8.49477Z" fill="#72839C"/>
    <path d="M14.8211 10.4064C14.7007 10.4064 14.5803 10.3763 14.4599 10.3161C14.0987 10.1204 13.9632 9.6689 14.1589 9.29264C14.5201 8.63044 14.7157 7.87793 14.7157 7.11037C14.7157 4.56689 12.6538 2.50502 10.1104 2.50502C7.56689 2.50502 5.50502 4.56689 5.50502 7.11037C5.50502 7.86288 5.68562 8.60033 6.03177 9.26254C6.22742 9.62375 6.09197 10.0903 5.71572 10.286C5.35451 10.4666 4.90301 10.3161 4.70736 9.95485C4.2408 9.08194 4 8.10368 4 7.11037C4 3.73913 6.73913 1 10.1104 1C13.4816 1 16.2207 3.73913 16.2207 7.11037C16.2207 8.11873 15.9649 9.12709 15.4833 10.015C15.3478 10.2559 15.092 10.4064 14.8211 10.4064Z" fill="#72839C"/>
    <path d="M10.1103 19.0002L4.7675 10.0905C4.55679 9.72929 4.6772 9.26273 5.0384 9.05203C5.3996 8.84133 5.85111 8.96173 6.07686 9.30788L10.1254 16.0654L14.1739 9.30788C14.3846 8.94668 14.8511 8.84133 15.2123 9.05203C15.5434 9.26273 15.6488 9.72929 15.4381 10.0905L10.1103 19.0002Z" fill="#72839C"/>
</svg>
