<?xml version="1.0" encoding="utf-8"?>
<!-- Generator: Adobe Illustrator 24.1.0, SVG Export Plug-In . SVG Version: 6.00 Build 0)  -->
<svg version="1.1" id="Capa_1" xmlns="http://www.w3.org/2000/svg" xmlns:xlink="http://www.w3.org/1999/xlink" x="0px" y="0px"
	 viewBox="0 0 477.9 477.9" style="enable-background:new 0 0 477.9 477.9;" xml:space="preserve">
<style type="text/css">
	.st0{fill:#72839C;}
</style>
<g>
	<g>
		<path class="st0" d="M469.8,122c-5-3.1-11.3-3.4-16.6-0.8l-111.8,55.9v-40.7c0-28.3-22.9-51.2-51.2-51.2h-239
			C22.9,85.3,0,108.3,0,136.5v204.8c0,28.3,22.9,51.2,51.2,51.2h238.9c28.3,0,51.2-22.9,51.2-51.2v-40.7l111.8,56
			c8.4,4.2,18.7,0.8,22.9-7.6c1.2-2.4,1.8-5,1.8-7.7V136.5C477.9,130.6,474.8,125.1,469.8,122z M170.7,307.2
			c-37.7,0-68.3-30.6-68.3-68.3s30.6-68.3,68.3-68.3s68.3,30.6,68.3,68.3S208.4,307.2,170.7,307.2z"/>
	</g>
</g>
</svg>
