<svg width="22" height="22" viewBox="0 0 22 22" fill="none" xmlns="http://www.w3.org/2000/svg">
<path d="M17.5599 21H5.39437C4.07394 21 3 19.9261 3 18.6056V3.39437C3 2.07394 4.07394 1 5.39437 1H14.6901L19.9542 6.26408V18.6056C19.9718 19.9261 18.8979 21 17.5599 21ZM5.39437 2.76056C5.04225 2.76056 4.76056 3.04225 4.76056 3.39437V18.6056C4.76056 18.9577 5.04225 19.2394 5.39437 19.2394H17.5599C17.912 19.2394 18.1937 18.9577 18.1937 18.6056V7.00352L13.9683 2.76056H5.39437Z" fill="#36f"/>
<path d="M19.0916 7.51408H15.8521C14.5317 7.51408 13.4578 6.44014 13.4578 5.11972V1.88028C13.4578 1.38732 13.8451 1 14.338 1C14.831 1 15.2183 1.38732 15.2183 1.88028V5.11972C15.2183 5.47183 15.5 5.75352 15.8521 5.75352H19.074C19.5669 5.75352 19.9542 6.14085 19.9542 6.6338C19.9542 7.12676 19.5669 7.51408 19.0916 7.51408Z" fill="#36f"/>
<path d="M15.7289 17.5311H7.13736C6.6444 17.5311 6.25708 17.1437 6.25708 16.6508C6.25708 16.1578 6.6444 15.7705 7.13736 15.7705H15.7289C16.2219 15.7705 16.6092 16.1578 16.6092 16.6508C16.6092 17.1437 16.2043 17.5311 15.7289 17.5311Z" fill="#36f"/>
<path d="M15.7289 14.0281H7.13736C6.6444 14.0281 6.25708 13.6408 6.25708 13.1479C6.25708 12.6549 6.6444 12.2676 7.13736 12.2676H15.7289C16.2219 12.2676 16.6092 12.6549 16.6092 13.1479C16.6092 13.6408 16.2043 14.0281 15.7289 14.0281Z" fill="#36f"/>
<path d="M15.7289 10.5418H7.13736C6.6444 10.5418 6.25708 10.1545 6.25708 9.66153C6.25708 9.16857 6.6444 8.78125 7.13736 8.78125H15.7289C16.2219 8.78125 16.6092 9.16857 16.6092 9.66153C16.6092 10.1545 16.2043 10.5418 15.7289 10.5418Z" fill="#36f"/>
</svg>
