<svg width="22" height="23" viewBox="0 0 22 23" fill="none" xmlns="http://www.w3.org/2000/svg">
<path d="M21.9955 11.0713C21.9955 11.4348 21.9777 11.7938 21.942 12.1573C21.9064 12.5163 21.8529 12.8753 21.7815 13.2299C21.7102 13.5844 21.6255 13.9389 21.5184 14.2845C21.4159 14.63 21.291 14.9711 21.1528 15.3077C21.0146 15.6443 20.863 15.9719 20.6936 16.2905C20.5241 16.6091 20.3368 16.9188 20.1407 17.224C19.94 17.5246 19.726 17.8163 19.4986 18.0946C19.2712 18.3728 19.0304 18.6421 18.7718 18.8979C18.5176 19.1537 18.2501 19.396 17.9737 19.6294C17.6972 19.8583 17.4074 20.0737 17.1086 20.2756C16.8099 20.4776 16.5022 20.6616 16.1812 20.8321C15.8646 21.0026 15.5391 21.1597 15.2047 21.2988C14.8703 21.4379 14.5314 21.5591 14.1881 21.6668C13.8448 21.77 13.4925 21.8598 13.1403 21.9316C12.788 22.0034 12.4313 22.0573 12.0746 22.0932C11.7179 22.1291 11.3567 22.147 10.9955 22.147C10.6344 22.147 10.2777 22.1291 9.9165 22.0932C9.55979 22.0573 9.20308 22.0034 8.85083 21.9316C8.49858 21.8598 8.14633 21.7745 7.803 21.6668C7.45967 21.5636 7.1208 21.4379 6.78638 21.2988C6.45197 21.1597 6.12647 21.0071 5.80989 20.8321C5.49331 20.6616 5.18565 20.4731 4.88245 20.2756C4.58371 20.0737 4.29388 19.8583 4.01743 19.6294C3.74098 19.4005 3.47345 19.1582 3.2193 18.8979C2.96514 18.6421 2.72436 18.3728 2.4925 18.0946C2.2651 17.8163 2.05107 17.5246 1.85043 17.224C1.64978 16.9233 1.46696 16.6136 1.29753 16.2905C1.12809 15.9719 0.972031 15.6443 0.838265 15.3077C0.700041 14.9711 0.579651 14.63 0.472639 14.2845C0.370085 13.9389 0.280908 13.5844 0.209566 13.2299C0.138225 12.8753 0.0847183 12.5163 0.0490474 12.1573C0.0178354 11.7938 0 11.4303 0 11.0713C0 10.7122 0.0178354 10.3487 0.0535063 9.98523C0.0891772 9.62621 0.142683 9.26719 0.214025 8.91266C0.285367 8.55813 0.370085 8.20808 0.477098 7.85804C0.579652 7.51248 0.7045 7.17141 0.842724 6.83483C0.980949 6.49825 1.13255 6.17065 1.30199 5.85202C1.47142 5.53339 1.6587 5.22373 1.85488 4.91857C2.05553 4.61789 2.26956 4.32618 2.49696 4.04794C2.72436 3.76522 2.96514 3.50044 3.2193 3.24015C3.47791 2.98435 3.74098 2.74201 4.02189 2.51314C4.29834 2.28426 4.58816 2.06885 4.88691 1.8669C5.18565 1.66495 5.49331 1.48096 5.81435 1.31042C6.13093 1.13989 6.45643 0.982816 6.79084 0.848183C7.12525 0.709063 7.46413 0.587894 7.80746 0.480188C8.15079 0.37697 8.50304 0.287216 8.85529 0.215412C9.20754 0.143608 9.56425 0.0897548 9.92096 0.0538529C10.2777 0.017951 10.6388 0 11 0C11.3612 0 11.7179 0.017951 12.079 0.0538529C12.4402 0.0897548 12.7925 0.143608 13.1447 0.215412C13.497 0.287216 13.8492 0.372483 14.1925 0.480188C14.5359 0.583407 14.8747 0.709063 15.2092 0.848183C15.5436 0.987303 15.8691 1.13989 16.1857 1.31042C16.5022 1.48096 16.8099 1.66944 17.1131 1.8669C17.4118 2.06885 17.7017 2.28426 17.9781 2.51314C18.2546 2.74201 18.5221 2.98435 18.7763 3.24464C19.0304 3.50044 19.2712 3.7697 19.503 4.04794C19.7304 4.32618 19.9445 4.61789 20.1451 4.91857C20.3458 5.21924 20.5286 5.5289 20.698 5.85202C20.8675 6.17065 21.0235 6.49825 21.1573 6.83483C21.2955 7.17141 21.4159 7.51248 21.5229 7.85804C21.6255 8.20359 21.7146 8.55813 21.786 8.91266C21.8573 9.26719 21.9108 9.62621 21.9465 9.98523C21.9777 10.3442 21.9955 10.7078 21.9955 11.0713Z" fill="white"/>
<path d="M10.9021 18.4179C10.8129 18.4897 10.7683 18.4403 10.7549 18.3865C10.746 18.3596 10.7415 18.3371 10.7415 18.3102C10.7326 18.2025 10.7237 18.0993 10.7193 17.9916C10.7193 17.9287 10.7282 17.8614 10.7326 17.7986C10.746 17.7043 10.7638 17.6101 10.7772 17.5159C10.7951 17.3992 10.8173 17.287 10.8352 17.1703C10.8664 16.9594 10.8931 16.7485 10.9199 16.5375C10.9288 16.4792 10.9288 16.4209 10.9734 16.376C11.0448 16.385 11.0983 16.4388 11.1027 16.5106C11.1072 16.5555 11.1027 16.6004 11.0938 16.6497C11.076 16.726 11.076 16.7978 11.1072 16.8741C11.1161 16.8966 11.1206 16.919 11.1295 16.9414C11.1919 17.0985 11.1562 17.2376 11.0626 17.3633C11.018 17.4216 10.9779 17.4844 10.9645 17.5607C10.9645 17.5563 10.9199 18.4044 10.9021 18.4179Z" fill="#4067AC"/>
<path d="M10.8887 15.5768C10.9021 15.5409 10.9155 15.5006 10.9333 15.4647C10.9958 15.357 11.0091 15.2358 11.0136 15.1146C11.018 15.0608 10.9913 15.0159 10.9378 14.9979C10.92 14.989 10.9021 14.9845 10.8843 14.9755C10.7684 14.9396 10.7505 14.8768 10.8129 14.778C10.8932 14.6569 10.969 14.5312 11.0448 14.41C11.0716 14.3741 11.1563 14.3337 11.1563 14.3517C11.1563 14.428 11.1919 14.4818 11.2588 14.5133C11.3257 14.5492 11.3391 14.5806 11.3302 14.6569C11.3257 14.6748 11.3257 14.6973 11.3168 14.7152C11.2722 14.8813 11.2276 15.0473 11.1741 15.2089C11.1429 15.2986 11.1028 15.3839 11.0537 15.4691C11.027 15.5095 10.9824 15.5454 10.9467 15.5768C10.9333 15.5858 10.911 15.5858 10.8932 15.5903C10.8977 15.5858 10.8932 15.5813 10.8887 15.5768Z" fill="#4067AC"/>
<path d="M11.5841 16.0884C11.5752 16.1243 11.5662 16.1647 11.5217 16.1737C11.4771 16.1827 11.4459 16.1512 11.4325 16.1153C11.4057 16.0525 11.3879 15.9897 11.3745 15.9269C11.3656 15.8595 11.3701 15.7877 11.3656 15.7204C11.3656 15.707 11.3656 15.689 11.3701 15.6755C11.3745 15.6351 11.3879 15.5948 11.4325 15.5813C11.4637 15.5723 11.5172 15.5948 11.5395 15.6396C11.5573 15.6666 11.5752 15.7025 11.5752 15.7339C11.5885 15.8416 11.5841 16.0839 11.5841 16.0884Z" fill="#4067AC"/>
<path d="M14.2238 6.60133C14.2417 6.62377 14.2595 6.64172 14.2684 6.66865C14.2952 6.71353 14.3175 6.76289 14.3398 6.80777C14.3754 6.88855 14.4245 6.96484 14.4824 7.02767C14.536 7.08601 14.5716 7.14884 14.5582 7.2341C14.5449 7.31488 14.5181 7.25654 14.4379 7.24308C14.3487 7.22962 14.1882 7.07703 14.1034 7.11293C13.9831 7.16679 13.8983 7.18474 13.769 7.22962C13.6085 7.28796 13.497 7.40015 13.3321 7.37771C13.1582 7.35079 13.1047 7.5662 13.0556 7.73673C13.0512 7.75917 13.0467 7.77712 13.0378 7.79956C12.9932 7.9297 12.8639 7.95663 12.7702 7.8579C12.7123 7.79956 12.6944 7.71878 12.739 7.64698C12.8104 7.53927 12.8371 7.4181 12.8505 7.29244C12.855 7.22962 12.8951 7.18923 12.9531 7.17128C13.0422 7.13986 13.0645 7.10396 13.0333 7.0142C13.0066 6.9424 12.9709 6.8706 12.9397 6.79879C12.9174 6.74045 12.8951 6.68211 12.8817 6.61928C12.8773 6.59236 12.8951 6.54748 12.9129 6.52953C12.9397 6.49811 12.9754 6.52055 13.0066 6.54299C13.069 6.58787 13.1314 6.63275 13.1894 6.6866C13.3276 6.81226 13.3945 6.81226 13.5283 6.67762C13.5907 6.6148 13.6531 6.55197 13.7244 6.49811C13.769 6.4667 13.827 6.44875 13.885 6.43529C13.9474 6.42631 13.9964 6.45324 14.0276 6.51158C14.041 6.54299 14.0589 6.56992 14.0767 6.59236C14.1213 6.6507 14.1436 6.65519 14.2015 6.60582C14.2015 6.61031 14.2105 6.61031 14.2238 6.60133Z" fill="#4067AC"/>
<path d="M7.66906 9.37955C7.6646 9.40648 7.6646 9.4334 7.65569 9.45584C7.60664 9.5815 7.53084 9.69818 7.4372 9.79242C7.31235 9.91808 7.25439 10.0662 7.23209 10.2367C7.22764 10.2726 7.21872 10.3085 7.21426 10.3444C7.20534 10.4521 7.14292 10.5194 7.04482 10.5553C7.00915 10.5688 6.97794 10.5823 6.94673 10.6002C6.87984 10.6316 6.82634 10.681 6.79067 10.7483C6.70149 10.9144 6.5811 11.049 6.43396 11.1657C6.40275 11.1881 6.37599 11.215 6.32249 11.1926C6.30465 11.1253 6.32249 11.0625 6.35816 11.0041C6.41612 10.9144 6.48301 10.8246 6.54097 10.7348C6.66582 10.5239 6.84863 10.3713 7.02253 10.2053C7.16521 10.0662 7.29006 9.91359 7.35248 9.72062C7.39707 9.58599 7.49071 9.48726 7.59772 9.3975C7.61556 9.38404 7.63785 9.37506 7.66015 9.36609C7.66015 9.37058 7.6646 9.37506 7.66906 9.37955Z" fill="#4067AC"/>
<path d="M11.0223 7.4497C10.9777 7.44073 10.9376 7.44073 10.9019 7.42726C10.8261 7.40482 10.786 7.35097 10.7994 7.27019C10.8083 7.19839 10.835 7.13556 10.8975 7.09517C10.9465 7.06376 10.9911 7.06824 11.0045 7.1221C11.0312 7.20287 11.0847 7.25224 11.1516 7.29263C11.165 7.29712 11.1784 7.31058 11.1873 7.32404C11.2274 7.37341 11.2096 7.43624 11.1472 7.44521C11.1026 7.45868 11.058 7.4497 11.0223 7.4497Z" fill="#4067AC"/>
<path d="M12.0789 8.22633C12.1012 8.15004 12.1503 8.11414 12.1949 8.08721C12.3019 8.02438 12.4134 7.98399 12.5382 7.97502C12.5516 7.97502 12.5694 7.97053 12.5828 7.97502C12.6096 7.98848 12.6408 8.00643 12.6452 8.02887C12.6541 8.05131 12.6408 8.0917 12.6229 8.10965C12.6051 8.13209 12.5739 8.14555 12.5471 8.15453C12.4223 8.18594 12.3019 8.21735 12.177 8.23979C12.1503 8.24428 12.1191 8.23531 12.0789 8.22633Z" fill="#4067AC"/>
<path d="M9.6533 8.23914C9.74694 8.2526 9.77369 8.30645 9.72464 8.37377C9.70235 8.40069 9.6756 8.43211 9.63992 8.44557C9.55967 8.4725 9.47941 8.49494 9.39915 8.5084C9.31889 8.51738 9.28322 8.45904 9.3278 8.38723C9.34564 8.35582 9.37685 8.3244 9.40806 8.30645C9.48386 8.24811 9.5775 8.24811 9.6533 8.23914Z" fill="#4067AC"/>
<path d="M17.3985 7.90301C16.8501 7.19843 16.5291 6.85737 16.4755 6.74068C16.4443 6.67337 16.1188 6.39962 16.0475 6.37269C15.9762 6.34128 15.8781 6.22908 15.8156 6.18869C15.7042 6.10791 15.5972 6.02713 15.4946 5.93738C15.401 5.85211 15.3073 5.75787 15.2449 5.64119C15.1691 5.4886 15.0576 5.36744 14.9372 5.24178C14.8169 5.1251 14.6697 5.08471 14.5226 5.03534C14.5047 5.03085 14.478 5.03085 14.4601 5.03085C14.3799 5.04432 14.2996 5.05329 14.2238 5.08022C14.0945 5.12061 13.9652 5.15202 13.8314 5.14754C13.6442 5.14305 13.4658 5.11163 13.3142 4.99944C13.1359 4.8693 12.9397 4.81993 12.7256 4.82891C12.6097 4.83339 12.4982 4.86032 12.3823 4.87378C12.2708 4.88725 12.1549 4.90071 12.0434 4.91417C11.9587 4.92315 11.8785 4.9411 11.7937 4.95456C11.6689 4.977 11.5396 4.99047 11.4237 5.03085C11.2631 5.0892 11.1115 5.16997 10.9555 5.24178C10.8975 5.27319 10.8351 5.30461 10.7771 5.33153C10.6255 5.40783 10.4739 5.4886 10.3223 5.5649C10.2153 5.61875 10.1083 5.68607 9.99237 5.72197C9.72038 5.81621 9.46177 5.93738 9.23436 6.1124C9.16302 6.16625 9.09614 6.22459 9.03817 6.28742C8.96683 6.36371 8.90441 6.45347 8.83753 6.53425C8.75281 6.63747 8.66363 6.74068 8.57891 6.83941C8.46744 6.97405 8.34705 7.10419 8.25342 7.2478C8.17316 7.36897 7.7674 7.8716 7.65593 8.01072C7.61134 8.06906 7.56229 8.12291 7.5177 8.18574C7.42853 8.31139 7.19221 8.62554 7.16545 8.66144C7.11195 8.72875 7.05398 8.79607 7.00494 8.86339C6.92022 8.97558 6.51892 9.44679 6.40745 9.56796C6.26922 9.72054 6.13992 9.8821 6.00615 10.0347C5.85901 10.2052 5.71633 10.3713 5.59594 10.5642C5.50676 10.7034 5.41758 10.8425 5.34178 10.9861C5.24815 11.1656 5.15005 11.3361 5.01183 11.4797C4.89144 11.6099 4.78443 11.749 4.69971 11.9016C4.61499 12.0631 4.57486 12.2337 4.56148 12.4132C4.55702 12.485 4.5704 12.5523 4.63282 12.5927C4.68633 12.6331 4.7443 12.669 4.80672 12.6914C5.07871 12.7812 5.35516 12.7722 5.63161 12.7139C5.86793 12.6645 6.10425 12.6421 6.34503 12.7004C6.56351 12.7498 6.76862 12.7094 6.94697 12.5703C6.99156 12.5344 7.46866 12.1978 7.63364 12.0272C7.71389 11.9465 7.80307 11.8702 7.89225 11.7939C7.97697 11.7221 8.0706 11.6592 8.15978 11.5919C8.37826 11.4124 8.59675 11.2284 8.81077 11.0399C9.03372 10.847 9.52865 10.4835 9.53757 10.479C9.77389 10.3488 9.99683 10.1962 10.2421 10.0885C10.572 9.94044 10.8886 9.81928 11.3122 9.94044C11.7402 10.0661 11.8695 10.8515 11.7982 11.0489C11.7358 11.2239 11.6912 11.4214 11.5663 11.556C11.4772 11.6503 10.9421 12.5568 10.9466 12.8754V12.8799C10.9376 13.037 10.9376 13.1896 10.9822 13.3466C11.0313 13.5127 11.067 13.6787 11.1115 13.8448C11.116 13.8582 11.1517 13.9345 11.1561 13.939C11.1829 13.9076 11.2007 13.8313 11.223 13.7999C11.2721 13.7191 11.2721 13.6339 11.2453 13.5486C11.2141 13.4454 11.1695 12.8216 11.2854 12.7677C11.4147 12.7049 11.4727 12.7453 11.4772 12.8889C11.4772 13.0684 11.4816 13.2479 11.4816 13.4229C11.4816 13.598 11.4816 13.7685 11.4861 13.939C11.4905 14.0422 11.4995 14.1455 11.5084 14.2442C11.5128 14.2756 11.5976 14.2577 11.6065 14.2218C11.6243 14.0871 11.6466 13.9525 11.6555 13.8134C11.6644 13.7057 11.6555 13.5935 11.66 13.4858C11.6689 13.2793 11.7135 13.0819 11.7715 12.8844C11.816 12.7273 11.8695 12.5209 11.9721 12.3997C12.0479 12.3145 12.088 12.1933 12.1014 12.0811C12.1103 11.9913 12.3645 12.0542 12.4046 12.0497C12.4893 12.0407 12.5384 11.9913 12.5428 11.9061C12.5428 11.8747 12.5072 11.6189 12.5027 11.5156C12.4982 11.4034 12.5562 11.3182 12.6721 11.3451C12.7346 11.3586 12.7658 11.3182 12.7524 11.2554C12.7479 11.2239 12.4537 10.452 12.3957 10.3892C12.3466 10.3399 11.874 9.83274 11.5262 9.64425C11.2141 9.46923 10.2644 9.74298 10.0325 9.93147C9.88982 10.0481 9.53757 10.2636 9.32354 10.4386C9.24774 10.4969 9.1764 10.5598 9.1006 10.6226C9.06047 10.654 8.72605 10.9412 8.67701 10.9771C8.57445 11.0489 8.4719 11.1207 8.36489 11.188C8.31584 11.2195 8.12857 11.3496 8.0706 11.372C8.04385 11.381 8.01264 11.3855 7.99034 11.3496C7.99034 11.3406 8.2445 11.0489 8.34259 10.9861C8.41393 10.9412 8.49419 10.8963 8.56554 10.8559C8.69484 10.7841 8.84199 10.6001 8.96683 10.5194C8.98467 10.5104 8.95792 10.4206 8.93562 10.4161C8.83753 10.3982 8.76173 10.5598 8.67701 10.6181C8.51649 10.7348 8.35597 10.8604 8.19099 10.9816C8.15086 11.013 7.90117 11.2195 7.82091 11.2913C7.64701 11.4393 7.49541 11.6009 7.33043 11.7625C7.19221 11.9016 6.76862 12.1843 6.71957 12.2157C6.55459 12.3234 6.36732 12.3548 6.17559 12.3683C6.12654 12.3728 6.08195 12.3728 6.03291 12.3683C5.94819 12.3593 5.91698 12.31 5.95265 12.2337C5.95711 12.2292 6.01507 12.0542 5.98386 11.9644C5.96602 11.9151 5.96156 11.8567 5.95265 11.7984C5.94373 11.7221 5.95711 11.6548 6.00615 11.5919C6.02845 11.565 6.04182 11.5156 6.03291 11.4842C6.02399 11.4438 5.97494 11.4438 5.93481 11.4438C5.87239 11.4394 5.6539 11.5067 5.60486 11.5067C5.51122 11.5022 5.46217 11.4438 5.47555 11.3496C5.48447 11.2778 5.5023 11.206 5.52905 11.1342C5.61823 10.9008 5.71633 10.6719 5.89022 10.4835C6.02399 10.3399 6.14884 10.1873 6.26923 10.0302C6.37624 9.88659 6.49663 9.74747 6.61256 9.60835C6.75524 9.44679 6.84888 9.31216 6.97818 9.13714C7.00939 9.09675 7.15208 8.88582 7.17883 8.84992C7.25463 8.74222 7.24571 8.74671 7.34381 8.64797C7.37056 8.62105 7.66039 8.20818 7.69606 8.15432C7.80307 7.9793 7.93238 7.82672 8.05723 7.66516C8.1464 7.54848 8.24004 7.43628 8.34705 7.33307C8.45406 7.22985 8.5477 7.0997 8.65025 6.98751C8.7216 6.90673 8.80186 6.83493 8.88211 6.75864C8.92224 6.72273 8.97129 6.70927 9.02034 6.7362C9.06493 6.76761 9.06939 6.81698 9.06047 6.86185C9.05155 6.90673 9.03817 6.95161 9.01588 6.992C8.949 7.11765 8.89103 7.2478 8.87766 7.39141C8.8732 7.45872 8.84644 7.51258 8.80631 7.56194C8.76173 7.61579 8.71268 7.66965 8.66809 7.7235C8.56108 7.85364 8.45406 7.98828 8.35597 8.12291C8.3203 8.16779 8.298 8.22613 8.27125 8.27549C8.26233 8.29793 8.26679 8.32037 8.26233 8.3473C8.26679 8.3473 8.27571 8.35178 8.28017 8.35627C8.298 8.34281 8.3203 8.32935 8.33368 8.31588C8.37381 8.271 8.41839 8.22164 8.45406 8.17227C8.51649 8.08252 8.59675 8.03764 8.70822 8.03315C8.80631 8.02867 8.85536 7.9793 8.87766 7.88506C8.90441 7.75043 8.93116 7.68311 9.12289 7.74594C9.23882 7.78633 9.35921 7.80428 9.48406 7.79082C9.54648 7.78633 9.61337 7.77287 9.66687 7.74145C9.76943 7.68311 9.87644 7.66067 9.99237 7.65618C10.0771 7.6517 10.1618 7.63823 10.2465 7.62477C10.2911 7.61579 10.3268 7.58887 10.3357 7.54399C10.3446 7.49462 10.3312 7.44975 10.2911 7.42282C10.2599 7.40487 10.2198 7.39141 10.1841 7.38692C10.1306 7.38243 10.0726 7.39141 10.0147 7.39141C9.96562 7.39589 9.92549 7.38243 9.88982 7.35102C9.84523 7.31063 9.80064 7.27024 9.76051 7.22536C9.69363 7.14907 9.66687 7.05483 9.67579 6.9561C9.68025 6.90673 9.68471 6.85288 9.68917 6.79902C9.69363 6.72722 9.67579 6.65991 9.61337 6.61503C9.59107 6.59708 9.56878 6.57464 9.55094 6.54771C9.52419 6.5163 9.49744 6.51181 9.46177 6.52976C9.44839 6.53874 9.43055 6.54322 9.41718 6.5522C9.34584 6.58361 9.27004 6.56117 9.22099 6.49835C9.1764 6.44001 9.18086 6.37718 9.23882 6.31884C9.30125 6.25152 9.37259 6.19318 9.44839 6.13933C9.54648 6.06752 9.6535 6.00021 9.76051 5.94635C9.90765 5.87006 10.0593 5.80275 10.2064 5.73094C10.2688 5.69953 10.3312 5.66811 10.3937 5.64119C10.6567 5.52899 10.9154 5.42129 11.1784 5.31358C11.2542 5.28217 11.3256 5.24178 11.4014 5.21485C11.6823 5.1251 11.9587 4.99944 12.2619 4.98149C12.2798 4.98149 12.3021 4.97251 12.3244 4.97251C12.3556 4.96803 12.3823 4.96803 12.4135 4.96803C12.5027 4.97251 12.5919 4.98149 12.6811 4.99047C12.7034 4.99495 12.7256 4.99944 12.7479 5.00842C12.8327 5.04432 12.846 5.12958 12.7792 5.19241C12.7524 5.21934 12.7212 5.23729 12.6944 5.25973C12.6543 5.29114 12.632 5.33153 12.6231 5.3809C12.6142 5.44373 12.6588 5.49309 12.7212 5.4886C12.7524 5.48412 12.7792 5.47514 12.8059 5.46617C12.9352 5.42578 13.0601 5.38539 13.1894 5.35397C13.234 5.34051 13.2875 5.345 13.3365 5.34948C13.4079 5.35846 13.4792 5.38539 13.5505 5.39885C13.6263 5.42129 13.6665 5.47065 13.6486 5.54694C13.6308 5.64568 13.5773 5.71748 13.4926 5.75787C13.4212 5.78928 13.3454 5.81172 13.2741 5.82967C13.2117 5.84314 13.1492 5.86109 13.1002 5.90596C13.069 5.93738 13.0467 5.97328 13.0601 6.01816C13.0734 6.06304 13.1091 6.0765 13.1492 6.08099C13.225 6.08996 13.2964 6.09445 13.3722 6.10343C13.5238 6.11689 13.6263 6.03162 13.7155 5.92392C13.7334 5.90148 13.7378 5.87455 13.7467 5.84762C13.7869 5.65914 13.8047 5.6367 13.9964 5.6008C14.0009 5.6008 14.0053 5.6008 14.0098 5.6008C14.099 5.58733 14.148 5.60977 14.1837 5.69953C14.1971 5.73543 14.2104 5.77133 14.2283 5.80723C14.255 5.85211 14.2907 5.87904 14.3442 5.87006C14.3933 5.86109 14.4156 5.81621 14.42 5.76684C14.4423 5.64119 14.4378 5.52451 14.3442 5.42578C14.2952 5.37641 14.3041 5.30909 14.362 5.26422C14.4111 5.22383 14.4646 5.19241 14.5226 5.16549C14.5984 5.1251 14.6697 5.13856 14.7411 5.18344C14.8793 5.26871 14.9729 5.39885 15.0443 5.54694C15.0532 5.56938 15.0665 5.59631 15.0621 5.62324C15.0443 5.74441 15.0532 5.86557 15.0621 5.98674C15.0621 6.00918 15.0576 6.02713 15.0576 6.04508C15.0398 6.1842 14.9685 6.21113 14.857 6.12586C14.8213 6.09894 14.7767 6.06752 14.7321 6.06752C14.6385 6.06304 14.5449 6.05406 14.4557 6.01816C14.4378 6.01367 14.4111 6.00918 14.3933 6.01367C14.3576 6.02265 14.3219 6.0406 14.2907 6.05855C14.264 6.07201 14.264 6.09894 14.2773 6.12586C14.3219 6.21113 14.4557 6.27845 14.5493 6.24255C14.6875 6.19318 14.799 6.23806 14.9105 6.31884C14.9818 6.37269 15.0532 6.43103 15.1067 6.50283C15.1602 6.57464 15.2092 6.57015 15.2717 6.50283C15.294 6.47591 15.3118 6.45347 15.3341 6.43103C15.3698 6.39513 15.4099 6.38615 15.4589 6.39962C15.5838 6.43103 15.6952 6.48488 15.7844 6.58361C15.887 6.69132 16.1723 6.8439 17.0953 8.01072C18.0183 9.17753 18.2635 10.5328 18.3929 10.5328C18.5177 10.5283 17.9648 8.63002 17.3985 7.90301ZM5.06533 12.1798C4.99845 12.2068 4.95386 12.2471 4.92265 12.31C4.90481 12.3459 4.88698 12.3863 4.83347 12.3908C4.82456 12.3863 4.8201 12.3818 4.81564 12.3773C4.76213 12.2651 4.82456 12.0721 4.93603 12.0138C4.9717 11.9958 5.00737 11.9779 5.0475 11.9599C5.10992 11.9375 5.15451 11.9734 5.15451 12.0362C5.15451 12.117 5.13668 12.1529 5.06533 12.1798ZM9.24774 7.20741C9.24774 7.20741 9.34138 7.15356 9.34138 7.20292C9.34138 7.2478 9.34138 7.26126 9.37705 7.32409C9.41272 7.38692 9.41718 7.4318 9.39934 7.45872C9.38597 7.48116 9.35029 7.48116 9.31908 7.45872C9.28787 7.43628 9.26112 7.43628 9.23882 7.39589C9.22099 7.3555 9.19869 7.32858 9.19869 7.29716C9.20315 7.25677 9.21653 7.24331 9.24774 7.20741Z" fill="#4067AC"/>
<path d="M9.3234 10.0347C9.31448 10.1379 9.23422 10.1963 9.12275 10.2008C9.10937 10.12 9.16288 10.0841 9.21193 10.0437C9.24314 10.0123 9.27881 9.99431 9.3234 10.0347Z" fill="#4067AC"/>
<path d="M11 22.138C4.93595 22.138 0 17.1746 0 11.0668C0 4.96793 4.93595 0 11 0C17.064 0 22 4.96344 22 11.0713C22 17.1746 17.0685 22.138 11 22.138ZM11 0.327605C5.11431 0.327605 0.325497 5.14744 0.325497 11.0713C0.325497 16.9951 5.11431 21.8149 11 21.8149C16.8857 21.8149 21.6745 16.9951 21.6745 11.0713C21.6745 5.14744 16.8857 0.327605 11 0.327605ZM11 19.0998C6.59911 19.0998 3.02311 15.4962 3.02311 11.0713C3.02311 6.64635 6.60357 3.0382 11 3.0382C15.4009 3.0382 18.9769 6.63737 18.9769 11.0668C18.9814 15.4962 15.4009 19.0998 11 19.0998ZM11 3.2581C6.80422 3.2581 3.39319 6.76303 3.39319 11.0713C3.39319 15.3795 6.80422 18.8844 11 18.8844C15.1958 18.8844 18.6068 15.3795 18.6068 11.0713C18.6113 6.76303 15.1958 3.2581 11 3.2581Z" fill="#4067AC"/>
<path d="M9.29219 20.9441C9.24314 20.9441 9.19409 20.9396 9.14058 20.9351C9.08708 20.9306 9.03357 20.9216 8.97561 20.9081C8.91764 20.8947 8.86414 20.8767 8.81063 20.8543C8.75712 20.8319 8.71253 20.8004 8.67686 20.7556C8.64119 20.7107 8.61444 20.6613 8.60106 20.5985C8.58769 20.5357 8.58769 20.4549 8.60998 20.3651C8.62782 20.2799 8.65457 20.2125 8.69024 20.1587C8.72591 20.1048 8.76604 20.0645 8.81509 20.0375C8.85968 20.0106 8.91318 19.9926 8.96669 19.9882C9.0202 19.9837 9.0737 19.9837 9.12721 19.9971C9.13167 19.9971 9.14059 20.0016 9.15396 20.0016C9.16734 20.0016 9.17626 20.0061 9.18963 20.0106C9.20301 20.0151 9.21639 20.0196 9.2253 20.0196C9.23422 20.0241 9.24314 20.0286 9.25206 20.0286L9.35015 19.5708L9.58647 19.6247L9.29219 20.9441ZM9.19409 20.2529C9.18517 20.2485 9.1718 20.244 9.15396 20.235C9.13613 20.2305 9.11829 20.226 9.11383 20.2215C9.08708 20.217 9.06033 20.2125 9.03357 20.217C9.00682 20.217 8.98452 20.226 8.95777 20.2395C8.93548 20.2529 8.91318 20.2754 8.89535 20.3068C8.87751 20.3382 8.86414 20.3741 8.85076 20.428C8.84184 20.4684 8.84184 20.5043 8.84184 20.5357C8.8463 20.5671 8.85522 20.594 8.86859 20.612C8.88197 20.6344 8.89981 20.6523 8.9221 20.6613C8.9444 20.6748 8.96669 20.6838 8.99344 20.6882C9.03357 20.6972 9.06478 20.7017 9.09154 20.6972L9.19409 20.2529Z" fill="#4067AC"/>
<path d="M7.93677 19.8986C7.84759 20.1096 7.7495 20.2576 7.62911 20.3384C7.51318 20.4192 7.37941 20.4282 7.23227 20.3654C7.15647 20.3339 7.09405 20.2891 7.05392 20.2352C7.00933 20.1814 6.98257 20.1185 6.9692 20.0467C6.95582 19.9749 6.96028 19.8941 6.97366 19.8044C6.99149 19.7191 7.01824 19.6249 7.05837 19.5261C7.14755 19.3107 7.25011 19.1671 7.37049 19.0863C7.49088 19.0056 7.62019 18.9966 7.76733 19.0594C7.84759 19.0908 7.90556 19.1357 7.94569 19.1896C7.98582 19.2434 8.01703 19.3062 8.02595 19.378C8.03932 19.4499 8.03486 19.5261 8.02149 19.6159C8.00365 19.7057 7.9769 19.7999 7.93677 19.8986ZM7.70045 19.7999C7.7272 19.7371 7.74504 19.6787 7.76287 19.6204C7.77625 19.562 7.78517 19.5127 7.78517 19.4633C7.78517 19.414 7.77625 19.378 7.75841 19.3421C7.74504 19.3107 7.71383 19.2838 7.67816 19.2659C7.61127 19.2389 7.54439 19.2524 7.48197 19.3062C7.41954 19.3646 7.35712 19.4678 7.29024 19.6249C7.26348 19.6877 7.24565 19.746 7.23227 19.7999C7.21889 19.8582 7.20998 19.9076 7.20998 19.957C7.20998 20.0018 7.21889 20.0422 7.23227 20.0781C7.2501 20.114 7.27686 20.1365 7.31699 20.1544C7.45075 20.2173 7.58006 20.0961 7.70045 19.7999Z" fill="#4067AC"/>
<path d="M6.03291 18.1887C6.0775 18.1842 6.12654 18.1887 6.18005 18.2111C6.23356 18.2336 6.2826 18.256 6.32719 18.2874C6.38516 18.3278 6.42975 18.3727 6.46988 18.4265C6.50555 18.4759 6.52784 18.5387 6.53676 18.6105C6.54568 18.6824 6.53676 18.7631 6.50555 18.8529C6.47879 18.9426 6.42975 19.0414 6.3584 19.1536C6.2826 19.2702 6.21126 19.3555 6.13992 19.4183C6.06858 19.4812 5.99724 19.5216 5.93035 19.5395C5.86347 19.5619 5.79659 19.5619 5.73416 19.5485C5.67174 19.535 5.61377 19.5081 5.56473 19.4767C5.51122 19.4408 5.47109 19.4094 5.43542 19.3735C5.39975 19.3376 5.37745 19.3061 5.35962 19.2837L5.51568 19.1311C5.52906 19.1581 5.54689 19.1805 5.56919 19.2029C5.59148 19.2299 5.62269 19.2523 5.65836 19.2747C5.73416 19.3241 5.80996 19.3286 5.89022 19.2882C5.97048 19.2478 6.0552 19.1581 6.14438 19.0189C6.18451 18.9606 6.21126 18.9022 6.23356 18.8439C6.25585 18.7901 6.26923 18.7362 6.26923 18.6913C6.27369 18.642 6.26477 18.5971 6.24693 18.5567C6.2291 18.5163 6.19788 18.4849 6.15776 18.4535C6.11763 18.4265 6.08195 18.4131 6.05074 18.4041C6.01953 18.3951 5.98832 18.3951 5.95711 18.3951L6.03291 18.1887Z" fill="#4067AC"/>
<path d="M4.9761 17.2871C5.02069 17.2871 5.06528 17.3051 5.11433 17.332C5.16337 17.3589 5.20796 17.3948 5.24809 17.4307C5.29714 17.4756 5.34173 17.5294 5.36848 17.5878C5.39523 17.6461 5.40861 17.709 5.40415 17.7808C5.39969 17.8526 5.3774 17.9289 5.33727 18.0141C5.29714 18.0994 5.23471 18.1891 5.14554 18.2879C5.05636 18.3911 4.96718 18.4629 4.88692 18.5123C4.80666 18.5571 4.73086 18.5886 4.65952 18.5975C4.58818 18.6065 4.52576 18.5975 4.46333 18.5751C4.40537 18.5527 4.35186 18.5167 4.30727 18.4764C4.26268 18.436 4.22255 18.3956 4.1958 18.3552C4.16905 18.3148 4.14675 18.2834 4.13338 18.252L4.31173 18.1218C4.32065 18.1488 4.33848 18.1757 4.35632 18.2026C4.37416 18.2295 4.40091 18.2609 4.43658 18.2879C4.50346 18.3507 4.57926 18.3642 4.66398 18.3372C4.7487 18.3103 4.84679 18.234 4.95827 18.1129C5.00285 18.059 5.04298 18.0051 5.0742 17.9558C5.10541 17.9064 5.12324 17.8526 5.13662 17.8077C5.14554 17.7628 5.14554 17.7179 5.13662 17.6731C5.12324 17.6327 5.10095 17.5923 5.06082 17.5564C5.02515 17.525 4.99394 17.507 4.96272 17.4935C4.93151 17.4801 4.9003 17.4756 4.86909 17.4666L4.9761 17.2871Z" fill="#4067AC"/>
<path d="M3.59818 16.69L3.43766 16.7932L3.44212 16.8022L3.64722 16.7304L4.43644 16.6002L4.55237 16.7483L3.49562 17.5875L3.34848 17.3901L3.90138 16.9593L4.06636 16.8516L4.0619 16.8426L3.84787 16.9144L3.07203 17.0355L2.9561 16.8875L4.01285 16.0527L4.16445 16.2412L3.59818 16.69Z" fill="#4067AC"/>
<path d="M1.96193 15.8734C2.02881 15.8285 2.04664 15.7792 2.01543 15.7208C1.98422 15.6625 1.93517 15.649 1.86383 15.676L1.80141 15.4875C1.88167 15.4561 1.94855 15.4561 2.00651 15.4875C2.06448 15.5189 2.11353 15.5727 2.15366 15.649C2.17595 15.6894 2.18933 15.7298 2.19825 15.7657C2.20716 15.8016 2.21162 15.8375 2.20716 15.8734C2.2027 15.9093 2.19379 15.9362 2.17595 15.9677C2.15812 15.9991 2.13136 16.026 2.09123 16.0484L1.96193 15.8734ZM2.68872 15.1778L2.51037 15.2496L2.51928 15.2586L2.73331 15.2272L3.53144 15.2451L3.61616 15.4157L2.42565 16.035L2.31418 15.8196L2.93842 15.492L3.12123 15.4246L3.11677 15.4157L2.89383 15.4426L2.10907 15.4157L2.02435 15.2451L3.21486 14.6213L3.32188 14.8412L2.68872 15.1778Z" fill="#4067AC"/>
<path d="M2.67528 13.2211C2.71095 13.2435 2.74662 13.2839 2.77337 13.3333C2.80458 13.3826 2.82242 13.4365 2.84025 13.4858C2.85809 13.5532 2.86701 13.6205 2.86255 13.6833C2.85809 13.7461 2.8358 13.809 2.79567 13.8718C2.75554 13.9301 2.69757 13.984 2.62177 14.0378C2.54151 14.0917 2.44342 14.1366 2.31857 14.1725C2.18926 14.2129 2.07779 14.2308 1.98415 14.2308C1.89052 14.2308 1.81026 14.2129 1.74783 14.1859C1.68541 14.1545 1.6319 14.1141 1.59623 14.0648C1.5561 14.0154 1.52935 13.9571 1.51152 13.8987C1.49368 13.8359 1.4803 13.7865 1.4803 13.7372C1.47584 13.6923 1.47584 13.6519 1.4803 13.616L1.69879 13.598C1.69433 13.625 1.69433 13.6564 1.69433 13.6878C1.69433 13.7192 1.70325 13.7596 1.71662 13.8045C1.74338 13.8897 1.80134 13.9436 1.88606 13.966C1.97524 13.9885 2.09563 13.975 2.25169 13.9256C2.31857 13.9032 2.38099 13.8808 2.43004 13.8538C2.48355 13.8269 2.52368 13.7955 2.55935 13.7596C2.59502 13.7237 2.61285 13.6878 2.62623 13.6429C2.63961 13.6025 2.63515 13.5532 2.62177 13.5038C2.60839 13.4634 2.59056 13.4275 2.57272 13.4006C2.55043 13.3737 2.52813 13.3512 2.50584 13.3288L2.67528 13.2211Z" fill="#4067AC"/>
<path d="M1.97986 12.3145L1.98432 12.3639L2.55505 12.2921L2.58626 12.5389L1.25307 12.7004L1.22631 12.4626L1.81488 12.3863L1.78813 12.3414L1.18618 12.1305L1.15051 11.8523L1.748 12.0946L1.82826 12.1754L1.89068 12.0722L2.47479 11.6368L2.51046 11.933L1.97986 12.3145Z" fill="#4067AC"/>
<path d="M2.18477 10.4338L2.17139 10.7569L2.47459 10.8512L2.46122 11.0935L1.13248 10.6268L1.14139 10.4338L2.51026 10.1062L2.49243 10.3665L2.18477 10.4338ZM1.9752 10.6896L1.98858 10.4652L1.672 10.528L1.45797 10.546V10.555L1.66754 10.5999L1.9752 10.6896Z" fill="#4067AC"/>
<path d="M2.77334 8.71962L2.71984 8.95747L2.19815 8.83631L2.21153 8.9485L2.6485 9.27162L2.58607 9.54537L2.18923 9.22674L2.14019 9.11455C2.10452 9.17737 2.05101 9.22225 1.97967 9.25367C1.90387 9.28508 1.81469 9.28508 1.70322 9.25815C1.62296 9.2402 1.56054 9.21328 1.51149 9.17737C1.46244 9.14147 1.42677 9.10108 1.40448 9.05172C1.38218 9.00235 1.3688 8.9485 1.3688 8.88567C1.3688 8.82284 1.37326 8.76001 1.3911 8.6927C1.39556 8.67475 1.40002 8.6568 1.40448 8.62987C1.41339 8.60294 1.41785 8.5805 1.42677 8.55358C1.43569 8.52665 1.44461 8.50421 1.45352 8.48177C1.46244 8.45933 1.47136 8.4369 1.48474 8.41895L2.77334 8.71962ZM1.62296 8.70167C1.6185 8.71065 1.61404 8.72411 1.60958 8.73309C1.60512 8.74206 1.60067 8.76001 1.60067 8.77348C1.59621 8.8004 1.59175 8.82284 1.59621 8.84977C1.59621 8.87669 1.60512 8.89465 1.6185 8.91709C1.63188 8.93952 1.64971 8.95747 1.67647 8.97094C1.70322 8.98889 1.73443 9.00235 1.77456 9.01133C1.85482 9.02928 1.91279 9.02479 1.95292 8.99786C1.9975 8.97094 2.02426 8.93055 2.03317 8.8767L2.05101 8.80489L1.62296 8.70167Z" fill="#4067AC"/>
<path d="M3.00948 6.61064L2.98719 6.65552L3.48658 6.94273L3.36619 7.15814L2.19797 6.48947L2.31836 6.27855L2.83558 6.57025L2.84004 6.52089L2.47888 5.98684L2.61264 5.74451L2.95151 6.2965L2.96935 6.41318L3.08082 6.3683H3.80762L3.66047 6.62859L3.00948 6.61064Z" fill="#4067AC"/>
<path d="M4.04861 4.86005L3.91485 4.72093L3.90593 4.72542L4.01294 4.91391L4.30723 5.66785L4.18684 5.81594L3.1613 4.94532L3.3129 4.75684L3.85242 5.2101L3.98619 5.35371L3.99511 5.34922L3.88364 5.15176L3.59827 4.40679L3.72312 4.26318L4.74865 5.13381L4.59259 5.32229L4.04861 4.86005Z" fill="#4067AC"/>
<path d="M5.38198 3.77405L5.09662 4.0119L5.45778 4.45619L5.27051 4.60877L4.41887 3.56313L4.60614 3.40606L4.95839 3.83688L5.2393 3.60352L4.88705 3.1727L5.07432 3.01562L5.92596 4.06576L5.73869 4.21834L5.38198 3.77405Z" fill="#4067AC"/>
<path d="M6.189 3.06516C6.08199 2.86321 6.02848 2.69268 6.04186 2.54458C6.05078 2.40097 6.12658 2.28878 6.26926 2.21249C6.34506 2.1721 6.41195 2.14966 6.48329 2.14966C6.55017 2.14966 6.61705 2.16761 6.67948 2.20351C6.7419 2.23941 6.80433 2.28878 6.86229 2.35609C6.92026 2.42341 6.97376 2.50419 7.02727 2.59843C7.13428 2.80038 7.18333 2.97092 7.16995 3.11901C7.15657 3.26262 7.08077 3.37481 6.94701 3.4511C6.87121 3.49149 6.80433 3.51393 6.73298 3.51393C6.6661 3.51393 6.59922 3.49598 6.53679 3.46008C6.47437 3.42418 6.41195 3.37481 6.35844 3.3075C6.29156 3.24018 6.23805 3.1594 6.189 3.06516ZM6.40749 2.9395C6.4387 3.00233 6.47437 3.05169 6.50558 3.10106C6.54125 3.15042 6.57692 3.18633 6.61259 3.21774C6.64827 3.24467 6.68394 3.26262 6.71961 3.27159C6.75528 3.28057 6.79095 3.27159 6.82662 3.25364C6.88904 3.21774 6.92026 3.15491 6.9158 3.06965C6.91134 2.98438 6.87121 2.8677 6.79095 2.72409C6.75974 2.66575 6.72852 2.6119 6.69285 2.56702C6.65718 2.52214 6.62151 2.48175 6.58584 2.45034C6.55017 2.41892 6.5145 2.40097 6.47883 2.392C6.44316 2.38302 6.40749 2.38751 6.37182 2.40995C6.24251 2.48175 6.25589 2.65677 6.40749 2.9395Z" fill="#4067AC"/>
<path d="M8.15531 1.6696L7.96358 1.73243C8.03046 1.97028 8.08397 2.16774 8.11964 2.3293C8.15531 2.49086 8.16869 2.62101 8.15531 2.71525C8.15085 2.75115 8.14193 2.77808 8.12856 2.805C8.11518 2.83193 8.1018 2.84988 8.08843 2.86783C8.07505 2.88129 8.05721 2.89925 8.03938 2.90822C8.02154 2.9172 8.00371 2.92617 7.99033 2.93066C7.96358 2.93964 7.94128 2.94412 7.91899 2.94412C7.8967 2.94861 7.87886 2.94412 7.85657 2.94412L7.81198 2.72422C7.83873 2.72422 7.85657 2.71974 7.8744 2.70179C7.89224 2.68832 7.90561 2.6614 7.91007 2.62549C7.91453 2.59408 7.91453 2.5492 7.91007 2.49535C7.90561 2.43701 7.89224 2.36969 7.86994 2.28443C7.85211 2.19916 7.82535 2.10043 7.79414 1.98823C7.76293 1.87604 7.7228 1.74141 7.67375 1.58882L8.31137 1.37341L8.73496 2.6614L8.50756 2.73769L8.15531 1.6696Z" fill="#4067AC"/>
<path d="M9.33687 1.82666C9.30566 1.59778 9.32349 1.41827 9.38146 1.28813C9.44388 1.15798 9.55089 1.08169 9.71141 1.05925C9.79613 1.05028 9.86747 1.05477 9.9299 1.08169C9.99232 1.10862 10.0503 1.14901 10.0949 1.20286C10.1395 1.2612 10.1796 1.32852 10.2108 1.41379C10.242 1.49905 10.2643 1.5933 10.2777 1.701C10.3089 1.92988 10.2911 2.10939 10.2286 2.23953C10.1662 2.36968 10.0547 2.44597 9.90314 2.46392C9.81842 2.47289 9.74708 2.46841 9.68466 2.44597C9.62223 2.41904 9.56427 2.37865 9.51968 2.3248C9.47509 2.26646 9.43496 2.19914 9.40821 2.11387C9.37254 2.02861 9.35024 1.93436 9.33687 1.82666ZM9.58656 1.79524C9.59548 1.86256 9.60886 1.92539 9.62223 1.98373C9.63561 2.04207 9.6579 2.09144 9.6802 2.13183C9.70249 2.17221 9.72925 2.20363 9.76046 2.22158C9.79167 2.24402 9.82734 2.24851 9.86747 2.24402C9.94327 2.23504 9.99232 2.18568 10.0191 2.10939C10.0458 2.02861 10.0503 1.90295 10.0235 1.7369C10.0146 1.66959 10.0057 1.61125 9.98786 1.55291C9.97002 1.49457 9.95219 1.4452 9.9299 1.40481C9.9076 1.36442 9.88085 1.33301 9.84964 1.31506C9.81842 1.29262 9.78275 1.28364 9.74262 1.29262C9.59548 1.30608 9.54197 1.47661 9.58656 1.79524Z" fill="#4067AC"/>
<path d="M11.7537 1.24329L11.339 1.22982L11.3033 2.36073L11.0581 2.35176L11.1027 0.99646L11.7581 1.0189L11.7537 1.24329Z" fill="#4067AC"/>
<path d="M13.1045 1.86249L13.1625 1.67849H13.1536L13.0421 1.86249L12.5293 2.4818L12.342 2.4459L12.6096 1.11304L12.8459 1.1624L12.7077 1.858L12.6452 2.04649L12.6542 2.05098L12.7701 1.858L13.2829 1.25216L13.4657 1.28806L13.1981 2.62092L12.9618 2.57155L13.1045 1.86249Z" fill="#4067AC"/>
<path d="M14.6118 1.66489L14.4468 2.07776C14.4156 2.15406 14.4067 2.2124 14.4156 2.25279C14.4245 2.29318 14.4513 2.32459 14.5003 2.34254C14.536 2.356 14.5717 2.36498 14.6029 2.36498C14.6386 2.36498 14.6653 2.36049 14.6921 2.34703L14.915 1.79055L15.1379 1.8803L14.6386 3.14136L14.4156 3.05161L14.6207 2.54449C14.5895 2.55347 14.5494 2.55347 14.5048 2.55347C14.4557 2.54898 14.4067 2.54 14.3487 2.51308C14.3041 2.49512 14.2685 2.47269 14.2417 2.44576C14.2105 2.41883 14.1882 2.38742 14.1748 2.35152C14.1615 2.31562 14.1525 2.27523 14.157 2.22586C14.157 2.1765 14.1704 2.12264 14.1971 2.05533L14.3933 1.56616L14.6118 1.66489Z" fill="#4067AC"/>
<path d="M15.985 2.32446L16.5557 2.68348L16.4398 2.87197L16.0742 2.64758L15.9003 2.92582L16.2347 3.13674L16.1143 3.32972L15.7843 3.11879L15.606 3.41947L15.9761 3.65283L15.8601 3.84132L15.2805 3.47781L15.985 2.32446Z" fill="#4067AC"/>
<path d="M17.0283 4.72578C16.9837 4.72578 16.9391 4.71232 16.8901 4.68539C16.841 4.65847 16.792 4.62705 16.7518 4.59115C16.6983 4.54627 16.6582 4.49242 16.6315 4.43857C16.6002 4.38023 16.5869 4.3174 16.5913 4.2456C16.5958 4.17379 16.6136 4.0975 16.6537 4.01223C16.6939 3.92697 16.7563 3.83272 16.841 3.73399C16.9302 3.63077 17.0149 3.55448 17.0952 3.50512C17.1754 3.45575 17.2512 3.42434 17.3226 3.41985C17.3939 3.41087 17.4563 3.41536 17.5143 3.44229C17.5723 3.46473 17.6258 3.49614 17.6748 3.53653C17.7194 3.57692 17.7595 3.61731 17.7863 3.6577C17.813 3.6936 17.8353 3.72502 17.8487 3.75643L17.6748 3.88658C17.6659 3.85965 17.6481 3.83721 17.6302 3.8058C17.6124 3.77887 17.5856 3.75194 17.55 3.72053C17.4831 3.66219 17.4073 3.64424 17.3226 3.67116C17.2379 3.69809 17.1398 3.77438 17.0327 3.90004C16.9882 3.95389 16.948 4.00774 16.9168 4.05711C16.8856 4.10648 16.8678 4.16033 16.8589 4.20521C16.8499 4.25457 16.8499 4.29945 16.8633 4.33984C16.8767 4.38023 16.899 4.42062 16.9391 4.45203C16.9748 4.48345 17.006 4.5014 17.0372 4.51486C17.0684 4.52832 17.0996 4.5373 17.1308 4.5373L17.0283 4.72578Z" fill="#4067AC"/>
<path d="M18.0897 5.12487L18.0585 5.08448L17.6126 5.44799L17.461 5.2595L18.5043 4.40234L18.6559 4.59532L18.1922 4.97229L18.2413 4.99473L18.861 4.85112L19.0349 5.06653L18.4018 5.1877L18.2903 5.16077V5.27745L18.0228 5.96408L17.8355 5.73072L18.0897 5.12487Z" fill="#4067AC"/>
<path d="M18.9012 6.83026L18.7496 6.54753L18.4419 6.62831L18.326 6.41738L19.6949 6.09875L19.7885 6.26929L18.7942 7.27903L18.6693 7.05464L18.9012 6.83026ZM18.9458 6.49816L19.0528 6.69562L19.2891 6.47573L19.4585 6.34558L19.4541 6.34109L19.2534 6.41738L18.9458 6.49816Z" fill="#4067AC"/>
<path d="M19.2933 8.60317L19.2175 8.3743L19.7258 8.19928L19.6589 8.11401L19.1194 8.07362L19.0302 7.80884L19.5296 7.86719L19.6322 7.9345C19.6277 7.8627 19.65 7.79538 19.6946 7.73255C19.7392 7.66972 19.8195 7.62036 19.9265 7.57997C20.0023 7.55304 20.0736 7.54407 20.1316 7.54407C20.1895 7.54856 20.2431 7.56651 20.2876 7.59343C20.3322 7.62485 20.3724 7.66524 20.4036 7.7146C20.4392 7.76397 20.4615 7.8268 20.4883 7.89411C20.4928 7.90757 20.4972 7.93001 20.5061 7.95694C20.5106 7.97938 20.5195 8.0063 20.524 8.03323C20.5284 8.06016 20.5329 8.0826 20.5373 8.10952C20.5418 8.13645 20.5463 8.15889 20.5463 8.17684L19.2933 8.60317ZM20.2832 8.00182C20.2832 7.98835 20.2832 7.97938 20.2787 7.96592C20.2787 7.95694 20.2743 7.93899 20.2653 7.92553C20.2564 7.8986 20.2431 7.88065 20.2297 7.85821C20.2163 7.83577 20.1985 7.82231 20.1762 7.81333C20.1539 7.80436 20.1271 7.79987 20.1004 7.79987C20.0692 7.79987 20.0335 7.80884 19.9978 7.82231C19.922 7.84923 19.873 7.88514 19.8507 7.93001C19.8284 7.97489 19.8284 8.02426 19.8462 8.07811L19.8685 8.14991L20.2832 8.00182Z" fill="#4067AC"/>
<path d="M19.766 10.6631C19.7615 10.6407 19.7571 10.6228 19.7571 10.6003C19.7571 10.5779 19.7526 10.5554 19.7526 10.5285C19.7526 10.4791 19.7615 10.4298 19.7794 10.3849C19.7972 10.34 19.8284 10.3041 19.873 10.2682C19.9131 10.2368 19.9711 10.2099 20.038 10.1874C20.1049 10.165 20.1851 10.156 20.2788 10.1515C20.4571 10.1471 20.5954 10.1785 20.6934 10.2458C20.7915 10.3131 20.8406 10.4029 20.8451 10.524C20.8451 10.5375 20.8451 10.5554 20.8451 10.5734C20.8451 10.5958 20.8451 10.6138 20.8406 10.6272L21.0056 10.6228L21.0145 10.8696L20.8451 10.8741C20.854 10.892 20.8584 10.9145 20.8584 10.9459C20.8629 10.9728 20.8629 10.9952 20.8629 11.0132C20.8629 11.067 20.854 11.1119 20.8317 11.1568C20.8094 11.2017 20.7782 11.2376 20.738 11.2735C20.6934 11.3049 20.6399 11.3318 20.5731 11.3498C20.5062 11.3722 20.4259 11.3812 20.3367 11.3812C20.2431 11.3857 20.1628 11.3767 20.0915 11.3587C20.0202 11.3408 19.9622 11.3184 19.9176 11.2825C19.873 11.251 19.8329 11.2107 19.8106 11.1658C19.7838 11.1209 19.7749 11.0715 19.7705 11.0177C19.7705 10.9952 19.7705 10.9773 19.7705 10.9593C19.7705 10.9369 19.7749 10.9189 19.7794 10.9055L19.5921 10.91L19.5832 10.6631H19.766ZM19.9667 10.5913C19.9667 10.6003 19.9667 10.6138 19.9667 10.6272C19.9667 10.6407 19.9711 10.6587 19.9756 10.6676L20.6355 10.6452C20.6355 10.6362 20.6355 10.6228 20.6355 10.6093C20.6355 10.5958 20.6355 10.5824 20.6355 10.5734C20.6355 10.5151 20.6043 10.4747 20.5508 10.4388C20.4973 10.4073 20.4081 10.3939 20.2877 10.3939C20.1807 10.3984 20.1004 10.4163 20.0469 10.4477C19.9889 10.4881 19.9622 10.5375 19.9667 10.5913ZM20.6489 10.9593C20.6489 10.9504 20.6489 10.9369 20.6444 10.9189C20.6444 10.901 20.6399 10.8875 20.6355 10.8786L19.9756 10.901C19.9711 10.91 19.9711 10.9189 19.9711 10.9324C19.9711 10.9459 19.9711 10.9593 19.9711 10.9728C19.9711 11.0267 20.0023 11.0715 20.0558 11.1074C20.1093 11.1388 20.1985 11.1568 20.3189 11.1523C20.4215 11.1478 20.5017 11.1299 20.5597 11.1029C20.6221 11.0581 20.6489 11.0132 20.6489 10.9593Z" fill="#4067AC"/>
<path d="M20.8985 12.3102L20.7959 12.9788L20.5775 12.9474L20.6399 12.5166L20.3189 12.4628L20.2564 12.8532L20.0379 12.8173L20.0959 12.4268L19.757 12.373L19.6857 12.8128L19.4672 12.7769L19.5742 12.0992L20.8985 12.3102Z" fill="#4067AC"/>
<path d="M18.7539 14.343L18.8074 14.1814L19.0392 14.2398L19.2666 13.5801L19.0481 13.4769L19.1017 13.3153L19.5386 13.4679L19.4985 13.5801C19.5074 13.5935 19.5342 13.616 19.5787 13.6474C19.6189 13.6788 19.6813 13.7192 19.7616 13.7641C19.8418 13.809 19.9444 13.8628 20.0648 13.9167C20.1852 13.9705 20.3368 14.0289 20.5062 14.0872L20.2833 14.7424L19.2265 14.3699L19.1819 14.5001L18.7539 14.343ZM19.3157 14.1321L20.1629 14.4328L20.2342 14.2308C20.0246 14.15 19.8507 14.0737 19.7125 13.9974C19.5743 13.9256 19.4807 13.8628 19.4271 13.8179L19.3157 14.1321Z" fill="#4067AC"/>
<path d="M19.8552 15.7024L19.5253 16.2948L19.3335 16.1871L19.5431 15.8056L19.2577 15.6396L19.0615 15.9851L18.8698 15.8729L19.0615 15.5319L18.7628 15.3613L18.5488 15.7473L18.3526 15.6351L18.687 15.0382L19.8552 15.7024Z" fill="#4067AC"/>
<path d="M18.9947 17.0667C18.9724 17.1071 18.9501 17.152 18.9189 17.2014C18.8877 17.2507 18.8565 17.2911 18.8208 17.336C18.7851 17.3809 18.745 17.4258 18.7004 17.4617C18.6558 17.4976 18.6068 17.5245 18.5533 17.5424C18.4998 17.5559 18.4418 17.5559 18.3794 17.5424C18.3169 17.529 18.2501 17.4931 18.1743 17.4303C18.1074 17.3764 18.0583 17.3225 18.0316 17.2687C18.0004 17.2104 17.9825 17.1565 17.9781 17.1027C17.9736 17.0488 17.9825 16.9949 18.0004 16.9456C18.0182 16.8962 18.0449 16.8468 18.0806 16.802C18.0851 16.7975 18.0895 16.793 18.094 16.7795C18.1029 16.7706 18.1074 16.7616 18.1163 16.7526C18.1252 16.7436 18.1341 16.7347 18.143 16.7257C18.152 16.7167 18.1564 16.7122 18.1609 16.7077L17.8042 16.416L17.9558 16.2275L18.9947 17.0667ZM18.3392 16.8424C18.3303 16.8468 18.3214 16.8558 18.308 16.8738C18.2946 16.8872 18.2813 16.9007 18.2768 16.9052C18.259 16.9276 18.2456 16.9501 18.2367 16.977C18.2278 17.0039 18.2233 17.0264 18.2233 17.0533C18.2233 17.0802 18.2367 17.1116 18.2545 17.1386C18.2723 17.17 18.2991 17.2014 18.3392 17.2328C18.3704 17.2597 18.4017 17.2777 18.4329 17.2866C18.4641 17.2956 18.4908 17.3001 18.5131 17.2956C18.5399 17.2911 18.5622 17.2866 18.5845 17.2687C18.6068 17.2552 18.6246 17.2373 18.6424 17.2193C18.6692 17.1879 18.687 17.161 18.6959 17.1386L18.3392 16.8424Z" fill="#4067AC"/>
<path d="M16.8904 17.8475L17.1222 17.6321L16.9751 17.3449L17.1534 17.1833L17.7687 18.4624L17.6305 18.5925L16.4355 17.843L16.6228 17.668L16.8904 17.8475ZM17.2158 17.8161L17.0509 17.9687L17.3184 18.1527L17.4834 18.2918L17.4878 18.2873L17.3674 18.1033L17.2158 17.8161Z" fill="#4067AC"/>
<path d="M14.9684 18.5388L15.1111 18.4491L15.2582 18.642L15.9182 18.2336L16.6182 19.3915L16.4131 19.5171L15.8245 18.5523L15.5347 18.7363L16.1188 19.7011L15.9137 19.8268L15.3251 18.8619L15.2092 18.9382L14.9684 18.5388Z" fill="#4067AC"/>
<path d="M14.1344 19.9437L14.1835 20.1321L14.1968 20.1277L14.1924 19.9122L14.2994 19.1089L14.4777 19.0416L14.9504 20.3117L14.7274 20.3969L14.4777 19.7327L14.4287 19.5398L14.4198 19.5443L14.4242 19.7686L14.3083 20.5585L14.13 20.6258L13.6573 19.3558L13.8847 19.266L14.1344 19.9437Z" fill="#4067AC"/>
<path d="M12.204 19.6833L12.4404 19.6384L12.534 20.1724L12.6276 20.1186L12.748 19.5845L13.02 19.5352L12.8862 20.0288L12.806 20.1231C12.8773 20.1275 12.9398 20.1634 12.9933 20.2173C13.0468 20.2756 13.0869 20.3609 13.1092 20.4731C13.1226 20.5539 13.1226 20.6257 13.1136 20.684C13.1003 20.7424 13.078 20.7917 13.0423 20.8321C13.0066 20.8725 12.962 20.9039 12.9041 20.9308C12.8506 20.9578 12.7882 20.9757 12.7168 20.9892C12.7034 20.9937 12.6811 20.9937 12.6544 20.9982C12.6276 21.0026 12.6053 21.0026 12.5786 21.0071C12.5518 21.0071 12.5295 21.0116 12.5028 21.0116C12.476 21.0116 12.4537 21.0116 12.4359 21.0116L12.204 19.6833ZM12.641 20.7648C12.6544 20.7648 12.6633 20.7648 12.6767 20.7648C12.6901 20.7648 12.7034 20.7603 12.7168 20.7603C12.7436 20.7558 12.7659 20.7468 12.7882 20.7334C12.8104 20.7244 12.8283 20.7065 12.8417 20.6885C12.855 20.6661 12.864 20.6436 12.8684 20.6122C12.8729 20.5808 12.8729 20.5449 12.864 20.5045C12.8506 20.4237 12.8238 20.3699 12.7792 20.343C12.7391 20.3115 12.6901 20.3026 12.6365 20.3115L12.5652 20.325L12.641 20.7648Z" fill="#4067AC"/>
<path d="M11.1428 20.3606C11.1428 20.4728 11.0536 20.5671 10.9421 20.5671C10.8306 20.5671 10.7415 20.4728 10.7415 20.3606C10.7415 20.2484 10.8306 20.1587 10.9421 20.1587C11.0536 20.1587 11.1428 20.2484 11.1428 20.3606Z" fill="#4067AC"/>
</svg>
