<svg width="18" height="22" viewBox="0 0 18 22" fill="none" xmlns="http://www.w3.org/2000/svg">
<path d="M17.1157 4.71763L12.5324 0.134277C12.4464 0.0483398 12.3301 0 12.2083 0H2.5833C1.57221 0 0.75 0.822207 0.75 1.83335V20.1667C0.75 21.1778 1.57221 22 2.58335 22H15.4167C16.4278 22 17.25 21.1778 17.25 20.1667V5.04165C17.25 4.91992 17.2017 4.80356 17.1157 4.71763ZM12.6667 1.56479L15.6852 4.58335H13.5833C13.078 4.58335 12.6667 4.17201 12.6667 3.6667V1.56479ZM16.3333 20.1667C16.3333 20.672 15.922 21.0833 15.4167 21.0833H2.58335C2.07804 21.0833 1.6667 20.672 1.6667 20.1667V1.83335C1.6667 1.32804 2.07804 0.916695 2.58335 0.916695H11.75V3.6667C11.75 4.67779 12.5722 5.5 13.5833 5.5H16.3333V20.1667Z" fill="#3366FF"/>
</svg>
