<svg width="20" height="20" viewBox="0 0 20 20" fill="none" xmlns="http://www.w3.org/2000/svg">
<g clip-path="url(#clip0_1672_2124)">
<path d="M16.9231 17.2308H3.07692C1.92769 17.2308 1 16.3031 1 15.1538V4.07692C1 2.92769 1.92769 2 3.07692 2H16.9231C18.0723 2 19 2.92769 19 4.07692V15.1538C19 16.3031 18.0723 17.2308 16.9231 17.2308ZM3.07692 3.38462C2.68923 3.38462 2.38462 3.68923 2.38462 4.07692V15.1538C2.38462 15.5415 2.68923 15.8462 3.07692 15.8462H16.9231C17.3108 15.8462 17.6154 15.5415 17.6154 15.1538V4.07692C17.6154 3.68923 17.3108 3.38462 16.9231 3.38462H3.07692Z" fill="#36f"/>
<path d="M7.54926 13.8388C7.24464 13.8388 6.95388 13.7557 6.6908 13.6034C6.22003 13.3265 5.92926 12.828 5.92926 12.3019V6.92955C5.92926 6.38955 6.22003 5.90494 6.6908 5.62801C7.20311 5.3234 7.85388 5.30955 8.36618 5.60032L13.2539 8.28647C13.7662 8.5634 14.0708 9.06186 14.0708 9.6157C14.0708 10.1696 13.7662 10.668 13.2677 10.9449L8.36618 13.6311C8.11695 13.7695 7.84003 13.8388 7.54926 13.8388ZM7.54926 6.7634C7.49388 6.7634 7.43849 6.77724 7.39695 6.80494L7.31388 12.3157C7.31388 12.3711 7.35541 12.3988 7.39695 12.4265C7.46618 12.468 7.5908 12.4957 7.70157 12.4265L12.5893 9.72647C12.6308 9.71263 12.6862 9.67109 12.6862 9.6157C12.6862 9.56032 12.6308 9.51878 12.5893 9.50493L7.70157 6.80494C7.64618 6.77724 7.60464 6.7634 7.54926 6.7634Z" fill="#36f"/>
</g>
<defs>
<clipPath id="clip0_1672_2124">
<rect width="18" height="15.2308" fill="white" transform="translate(1 2)"/>
</clipPath>
</defs>
</svg>
