<svg width="22" height="22" viewBox="0 0 22 22" fill="none" xmlns="http://www.w3.org/2000/svg">
<g clip-path="url(#clip0_1785_2659)">
<path d="M11 8.30773C9.33985 8.30773 7.98431 6.93696 7.98431 5.24635C7.98431 3.55573 9.33985 2.2002 11 2.2002C12.6602 2.2002 14.0157 3.57096 14.0157 5.26158C14.0157 6.95219 12.6602 8.30773 11 8.30773ZM11 3.72327C10.1775 3.72327 9.50739 4.40866 9.50739 5.26158C9.50739 6.1145 10.1775 6.78466 11 6.78466C11.8225 6.78466 12.4926 6.09927 12.4926 5.24635C12.4926 4.39343 11.8225 3.72327 11 3.72327Z" fill="white"/>
<path d="M12.1728 19.0911H9.82723C8.01477 19.0911 6.53738 17.6137 6.53738 15.8012V12.222C6.53738 10.4095 8.01477 8.93213 9.82723 8.93213H12.188C14.0005 8.93213 15.4778 10.4095 15.4778 12.222V15.8012C15.4778 17.6137 14.0005 19.0911 12.1728 19.0911ZM9.82723 10.4552C8.85246 10.4552 8.06046 11.2472 8.06046 12.222V15.8012C8.06046 16.776 8.85246 17.568 9.82723 17.568H12.188C13.1628 17.568 13.9548 16.776 13.9548 15.8012V12.222C13.9548 11.2472 13.1628 10.4552 12.188 10.4552H9.82723Z" fill="white"/>
<path d="M5.01432 9.26729C3.56739 9.26729 2.37939 8.07929 2.37939 6.60191C2.37939 5.13975 3.55216 3.93652 5.01432 3.93652C6.46124 3.93652 7.64924 5.12452 7.64924 6.60191C7.64924 8.07929 6.46124 9.26729 5.01432 9.26729ZM5.01432 5.47483C4.40509 5.47483 3.90247 5.99268 3.90247 6.61714C3.90247 7.2416 4.40509 7.75945 5.01432 7.75945C5.62355 7.75945 6.12616 7.2416 6.12616 6.61714C6.12616 5.97745 5.62355 5.47483 5.01432 5.47483Z" fill="white"/>
<path d="M5.59308 19.0909H3.78062C2.30324 19.0909 1.10001 17.9181 1.10001 16.4712V12.5417C1.10001 11.0947 2.30324 9.90674 3.78062 9.90674H5.22754C5.65401 9.90674 5.98908 10.2418 5.98908 10.6683C5.98908 11.0947 5.65401 11.4298 5.22754 11.4298H3.78062C3.14093 11.4298 2.62308 11.9324 2.62308 12.5417V16.4712C2.62308 17.0804 3.14093 17.583 3.78062 17.583H5.59308C6.01954 17.583 6.35462 17.9181 6.35462 18.3446C6.35462 18.771 6.01954 19.0909 5.59308 19.0909Z" fill="white"/>
<path d="M16.9857 9.2672C15.5388 9.2672 14.3508 8.0792 14.3508 6.61704C14.3508 5.15489 15.5235 3.95166 16.9857 3.95166C18.4326 3.95166 19.6206 5.13966 19.6206 6.61704C19.6206 8.0792 18.4326 9.2672 16.9857 9.2672ZM16.9857 5.47474C16.3765 5.47474 15.8738 5.99258 15.8738 6.61704C15.8738 7.24151 16.3765 7.75935 16.9857 7.75935C17.5949 7.75935 18.0975 7.24151 18.0975 6.61704C18.0975 5.97735 17.5949 5.47474 16.9857 5.47474Z" fill="white"/>
<path d="M18.2194 19.0909H16.4069C15.9805 19.0909 15.6454 18.7558 15.6454 18.3294C15.6454 17.9029 15.9805 17.5678 16.4069 17.5678H18.2194C18.8591 17.5678 19.3769 17.0652 19.3769 16.456V12.5417C19.3769 11.9324 18.8591 11.4298 18.2194 11.4298H16.7725C16.346 11.4298 16.0109 11.0947 16.0109 10.6683C16.0109 10.2418 16.346 9.90674 16.7725 9.90674H18.2194C19.6968 9.90674 20.9 11.0795 20.9 12.5417V16.4712C20.9 17.9181 19.6968 19.0909 18.2194 19.0909Z" fill="white"/>
</g>
<defs>
<clipPath id="clip0_1785_2659">
<rect width="19.8" height="16.8909" fill="white" transform="translate(1.10001 2.2002)"/>
</clipPath>
</defs>
</svg>
