<?xml version="1.0" encoding="utf-8"?>
<!-- Generator: Adobe Illustrator 24.3.0, SVG Export Plug-In . SVG Version: 6.00 Build 0)  -->
<svg version="1.1" id="Layer_1" xmlns="http://www.w3.org/2000/svg" xmlns:xlink="http://www.w3.org/1999/xlink" x="0px" y="0px"
	 viewBox="0 0 604.3 604.2" style="enable-background:new 0 0 604.3 604.2;" xml:space="preserve">
<style type="text/css">
	.st0{fill:#3366ff;}
</style>
<polygon class="st0" points="250.9,378.9 384.3,302.1 250.9,225.3 "/>
<path class="st0" d="M555.2,0H49C22,0,0,22,0,49v506.1c0,27,22.1,49.1,49.1,49.1h506.1c27,0,49.1-22.1,49.1-49.1V49
	C604.2,22,582,0,555.2,0z M264.3,47c0-10.7,8.7-19.4,19.4-19.4h36.9c10.7,0,19.4,8.7,19.4,19.4v16.6c0,10.7-8.7,19.4-19.4,19.4
	h-36.9c-10.7,0-19.4-8.7-19.4-19.4V47z M502.3,133.7c21.9,5.9,39.3,23.2,45.2,45.2c11,40.1,10.8,123.6,10.8,123.6s0,83.1-10.6,123.2
	c-5.9,21.9-23.2,39.3-45.2,45.2c-40.1,10.6-200.4,10.6-200.4,10.6s-159.9,0-200.4-11c-21.9-5.9-39.3-23.2-45.2-45.2
	c-10.6-39.7-10.6-123.2-10.6-123.2s0-83.1,10.4-123.2c5.9-21.9,23.6-39.7,45.2-45.6c40.1-10.6,200.4-10.6,200.4-10.6
	S462.3,122.7,502.3,133.7z M40.1,47c0-10.7,8.7-19.4,19.4-19.4h36.9c10.7,0,19.4,8.7,19.4,19.4v16.6c0,10.7-8.7,19.4-19.4,19.4H59.5
	c-10.7,0-19.4-8.7-19.4-19.4V47z M115.8,557.2c0,10.7-8.7,19.4-19.4,19.4H59.5c-10.7,0-19.4-8.7-19.4-19.4v-16.6
	c0-10.7,8.7-19.4,19.4-19.4h36.9c10.7,0,19.4,8.7,19.4,19.4V557.2z M339.9,557.2c0,10.7-8.7,19.4-19.4,19.4h-36.9
	c-10.7,0-19.4-8.7-19.4-19.4v-16.6c0-10.7,8.7-19.4,19.4-19.4h36.9c10.7,0,19.4,8.7,19.4,19.4V557.2z M564.1,557.2
	c0,10.7-8.7,19.4-19.4,19.4h-36.9c-10.7,0-19.4-8.7-19.4-19.4v-16.6c0-10.7,8.7-19.4,19.4-19.4h36.9c10.7,0,19.4,8.7,19.4,19.4
	V557.2z M564.1,63.5c0,10.7-8.7,19.4-19.4,19.4h-36.9c-10.7,0-19.4-8.7-19.4-19.4V47c0-10.7,8.7-19.4,19.4-19.4h36.9
	c10.7,0,19.4,8.7,19.4,19.4V63.5z"/>
</svg>
