<svg width="20" height="20" viewBox="0 0 20 20" fill="none" xmlns="http://www.w3.org/2000/svg">
<path d="M15.1039 19H4.15493C2.96655 19 2 18.0335 2 16.8451V3.15493C2 1.96655 2.96655 1 4.15493 1H15.1039C16.2923 1 17.2588 1.96655 17.2588 3.15493V16.8451C17.2746 18.0335 16.3081 19 15.1039 19ZM4.15493 2.58451C3.83803 2.58451 3.58451 2.83803 3.58451 3.15493V16.8451C3.58451 17.162 3.83803 17.4155 4.15493 17.4155H15.1039C15.4208 17.4155 15.6743 17.162 15.6743 16.8451V3.15493C15.6901 2.83803 15.4208 2.58451 15.1039 2.58451H4.15493Z" fill="#72839C"/>
<path d="M13.5511 5.7222H5.81866C5.375 5.7222 5.02641 5.37361 5.02641 4.92995C5.02641 4.48629 5.375 4.1377 5.81866 4.1377H13.5511C13.9947 4.1377 14.3433 4.48629 14.3433 4.92995C14.3433 5.37361 13.9789 5.7222 13.5511 5.7222Z" fill="#72839C"/>
<path d="M13.5511 8.85892H5.81866C5.375 8.85892 5.02641 8.51033 5.02641 8.06667C5.02641 7.62301 5.375 7.27441 5.81866 7.27441H13.5511C13.9947 7.27441 14.3433 7.62301 14.3433 8.06667C14.3433 8.51033 13.9789 8.85892 13.5511 8.85892Z" fill="#72839C"/>
<path d="M13.5511 11.9966H5.81866C5.375 11.9966 5.02641 11.648 5.02641 11.2044C5.02641 10.7607 5.375 10.4121 5.81866 10.4121H13.5511C13.9947 10.4121 14.3433 10.7607 14.3433 11.2044C14.3433 11.648 13.9789 11.9966 13.5511 11.9966Z" fill="#72839C"/>
</svg>
