<svg width="20" height="20" viewBox="0 0 20 20" fill="none" xmlns="http://www.w3.org/2000/svg">
<g clip-path="url(#clip0_1668_691)">
<path d="M16.9231 17.2308H3.07692C1.92769 17.2308 1 16.3031 1 15.1538V4.07692C1 2.92769 1.92769 2 3.07692 2H16.9231C18.0723 2 19 2.92769 19 4.07692V15.1538C19 16.3031 18.0723 17.2308 16.9231 17.2308ZM3.07692 3.38462C2.68923 3.38462 2.38462 3.68923 2.38462 4.07692V15.1538C2.38462 15.5415 2.68923 15.8462 3.07692 15.8462H16.9231C17.3108 15.8462 17.6154 15.5415 17.6154 15.1538V4.07692C17.6154 3.68923 17.3108 3.38462 16.9231 3.38462H3.07692Z" fill="#8F989D"/>
<path d="M17.5738 13.1185H10.3046C9.50149 13.1185 8.87842 12.5646 8.87842 11.8585V7.3723C8.87842 6.66615 9.50149 6.1123 10.3046 6.1123H17.5876C18.3769 6.1123 19.0138 6.68 19.0138 7.3723V11.8723C19 12.5646 18.3769 13.1185 17.5738 13.1185ZM17.6015 11.7338C17.6153 11.7338 17.6153 11.7338 17.6153 11.7338V7.51077L10.3046 7.49692C10.2907 7.49692 10.2769 7.49692 10.263 7.49692V11.72L17.5738 11.7338C17.5876 11.7338 17.5876 11.7338 17.6015 11.7338Z" fill="#8F989D"/>
<path d="M13.9462 10.4462C14.4051 10.4462 14.777 10.0743 14.777 9.61544C14.777 9.15662 14.4051 8.78467 13.9462 8.78467C13.4874 8.78467 13.1155 9.15662 13.1155 9.61544C13.1155 10.0743 13.4874 10.4462 13.9462 10.4462Z" fill="#8F989D"/>
</g>
<defs>
<clipPath id="clip0_1668_691">
<rect width="18" height="15.2308" fill="white" transform="translate(1 2)"/>
</clipPath>
</defs>
</svg>
