<?xml version="1.0" encoding="utf-8"?>
<!-- Generator: Adobe Illustrator 24.3.0, SVG Export Plug-In . SVG Version: 6.00 Build 0)  -->
<svg version="1.1" id="Layer_1" xmlns="http://www.w3.org/2000/svg" xmlns:xlink="http://www.w3.org/1999/xlink" x="0px" y="0px"
	 viewBox="0 0 350.8 358.2" style="enable-background:new 0 0 350.8 358.2;" xml:space="preserve">
<style type="text/css">
	.st0{fill:url(#SVGID_1_);}
	.st1{fill:url(#SVGID_2_);}
	.st2{fill:url(#SVGID_3_);}
	.st3{fill:#B4B4B4;}
	.st4{fill:url(#SVGID_4_);}
	.st5{fill:url(#SVGID_5_);}
	.st6{fill:url(#SVGID_6_);}
	.st7{fill:url(#SVGID_7_);}
	.st8{fill:url(#SVGID_8_);}
	.st9{fill:url(#SVGID_9_);}
	.st10{fill:url(#SVGID_10_);}
	.st11{fill:url(#SVGID_11_);}
	.st12{opacity:0.21;}
	.st13{fill-rule:evenodd;clip-rule:evenodd;fill:#563208;}
	.st14{fill-rule:evenodd;clip-rule:evenodd;fill:url(#SVGID_12_);}
	.st15{fill-rule:evenodd;clip-rule:evenodd;fill:url(#SVGID_13_);}
	.st16{fill-rule:evenodd;clip-rule:evenodd;fill:url(#SVGID_14_);}
</style>
<g>
	<g id="badge_5">
		
			<linearGradient id="SVGID_1_" gradientUnits="userSpaceOnUse" x1="-2284.0178" y1="-559.4642" x2="-2284.0178" y2="-454.5642" gradientTransform="matrix(-0.96 0.27 -0.27 -0.96 -2105.8198 364.7411)">
			<stop  offset="0" style="stop-color:#0057FF"/>
			<stop  offset="1.000000e-02" style="stop-color:#0056FD"/>
			<stop  offset="0.3" style="stop-color:#0042D9"/>
			<stop  offset="0.57" style="stop-color:#0033BF"/>
			<stop  offset="0.81" style="stop-color:#002AB0"/>
			<stop  offset="1" style="stop-color:#0027AA"/>
		</linearGradient>
		<polygon class="st0" points="151.1,160.5 223.9,139.8 296.7,310.6 240.2,305.2 204.6,348.4 		"/>
		
			<linearGradient id="SVGID_2_" gradientUnits="userSpaceOnUse" x1="-2131.2788" y1="182.9866" x2="-2166.1289" y2="48.1966" gradientTransform="matrix(-1 0 0 -1 -1894.2423 357.5821)">
			<stop  offset="0" style="stop-color:#CBCBCB"/>
			<stop  offset="0.28" style="stop-color:#DADADA"/>
			<stop  offset="0.61" style="stop-color:#E5E5E5"/>
			<stop  offset="1" style="stop-color:#E8E8E8"/>
		</linearGradient>
		<polygon class="st1" points="216.8,141.8 209.8,143.8 284,309.3 291.3,310 		"/>
		
			<linearGradient id="SVGID_3_" gradientUnits="userSpaceOnUse" x1="-2076.2722" y1="111.0847" x2="-2099.3923" y2="38.7047" gradientTransform="matrix(-1 0 0 -1 -1894.2423 357.5821)">
			<stop  offset="0" style="stop-color:#CBCBCB"/>
			<stop  offset="0.28" style="stop-color:#DADADA"/>
			<stop  offset="0.61" style="stop-color:#E5E5E5"/>
			<stop  offset="1" style="stop-color:#E8E8E8"/>
		</linearGradient>
		<polygon class="st2" points="185.5,265.7 208.6,343.6 213.7,337.4 188.7,253.5 		"/>
		<polygon class="st3" points="188.7,253.5 185.5,265.7 153.9,159.7 160.2,157.9 		"/>
		
			<linearGradient id="SVGID_4_" gradientUnits="userSpaceOnUse" x1="-2098.4309" y1="-508.7866" x2="-2098.4309" y2="-403.8865" gradientTransform="matrix(0.9618 0.2738 0.2738 -0.9618 2272.7117 366.2761)">
			<stop  offset="0" style="stop-color:#0057FF"/>
			<stop  offset="1.000000e-02" style="stop-color:#0056FD"/>
			<stop  offset="0.3" style="stop-color:#0042D9"/>
			<stop  offset="0.57" style="stop-color:#0033BF"/>
			<stop  offset="0.81" style="stop-color:#002AB0"/>
			<stop  offset="1" style="stop-color:#0027AA"/>
		</linearGradient>
		<polygon class="st4" points="200.9,160.5 128.2,139.8 55.3,310.6 111.9,305.2 147.4,348.4 		"/>
		
			<linearGradient id="SVGID_5_" gradientUnits="userSpaceOnUse" x1="-1948.5824" y1="182.9875" x2="-1983.4224" y2="48.1975" gradientTransform="matrix(1 0 0 -1 2063.1899 357.5821)">
			<stop  offset="0" style="stop-color:#CBCBCB"/>
			<stop  offset="0.28" style="stop-color:#DADADA"/>
			<stop  offset="0.61" style="stop-color:#E5E5E5"/>
			<stop  offset="1" style="stop-color:#E8E8E8"/>
		</linearGradient>
		<polygon class="st5" points="134.8,141.8 141.8,143.8 67.7,309.3 60.4,310 		"/>
		
			<linearGradient id="SVGID_6_" gradientUnits="userSpaceOnUse" x1="-1892.9213" y1="111.0876" x2="-1916.0413" y2="38.7076" gradientTransform="matrix(1 0 0 -1 2063.1899 357.5821)">
			<stop  offset="0" style="stop-color:#CBCBCB"/>
			<stop  offset="0.28" style="stop-color:#DADADA"/>
			<stop  offset="0.61" style="stop-color:#E5E5E5"/>
			<stop  offset="1" style="stop-color:#E8E8E8"/>
		</linearGradient>
		<polygon class="st6" points="166.8,265.7 143.7,343.6 138.6,337.4 163.6,253.5 		"/>
		
			<linearGradient id="SVGID_7_" gradientUnits="userSpaceOnUse" x1="163.5938" y1="145.8059" x2="198.3938" y2="145.8059" gradientTransform="matrix(1 0 0 -1 0 357.5821)">
			<stop  offset="0" style="stop-color:#CBCBCB"/>
			<stop  offset="0.28" style="stop-color:#DADADA"/>
			<stop  offset="0.61" style="stop-color:#E5E5E5"/>
			<stop  offset="1" style="stop-color:#E8E8E8"/>
		</linearGradient>
		<polygon class="st7" points="163.6,253.5 166.8,265.7 198.4,159.7 192.1,157.9 		"/>
	</g>
	<g id="badge_2">
		
			<linearGradient id="SVGID_8_" gradientUnits="userSpaceOnUse" x1="176.0338" y1="94.2059" x2="176.0338" y2="341.1959" gradientTransform="matrix(1 0 0 -1 0 357.5821)">
			<stop  offset="0" style="stop-color:#FFD215"/>
			<stop  offset="7.000000e-02" style="stop-color:#FFCF13"/>
			<stop  offset="0.58" style="stop-color:#FFC005"/>
			<stop  offset="1" style="stop-color:#FFBB00"/>
		</linearGradient>
		<polygon class="st8" points="311,119.2 297,134.8 314.6,146.1 297.9,158.7 313,173.2 294.1,182.3 306,199.5 285.7,204.7 
			294.1,224 273.2,225.1 277.7,245.6 256.9,242.7 257.3,263.6 237.5,256.7 233.8,277.3 215.8,266.6 208.1,286.1 192.4,272.2 
			181.1,289.8 168.5,273.1 154,288.2 144.9,269.3 127.7,281.2 122.5,260.9 103.3,269.3 102.1,248.4 81.6,252.8 84.6,232.1 
			63.6,232.5 70.5,212.7 49.9,209 60.6,190.9 41.1,183.2 55.1,167.6 37.4,156.3 54.2,143.7 39.1,129.2 58,120.1 46,102.9 66.3,97.7 
			58,78.5 78.9,77.3 74.4,56.8 95.2,59.7 94.8,38.8 114.5,45.7 118.3,25.1 136.3,35.8 144,16.3 159.6,30.2 170.9,12.6 183.5,29.3 
			198.1,14.3 207.1,33.1 224.4,21.2 229.6,41.5 248.8,33.1 250,54.1 270.4,49.6 267.5,70.3 288.5,69.9 281.5,89.7 302.1,93.4 
			291.5,111.5 		"/>
		
			<radialGradient id="SVGID_9_" cx="176.0288" cy="206.3759" r="136.2775" gradientTransform="matrix(1 0 0 -1 0 357.5821)" gradientUnits="userSpaceOnUse">
			<stop  offset="0.41" style="stop-color:#C77C08"/>
			<stop  offset="0.66" style="stop-color:#C87E0A"/>
			<stop  offset="0.75" style="stop-color:#CC8411"/>
			<stop  offset="0.83" style="stop-color:#D3901D"/>
			<stop  offset="0.89" style="stop-color:#DCA02F"/>
			<stop  offset="0.94" style="stop-color:#E9B445"/>
			<stop  offset="0.98" style="stop-color:#F8CE61"/>
			<stop  offset="1" style="stop-color:#FFD96D"/>
		</radialGradient>
		<polygon class="st9" points="308.7,119.7 295,135.1 312.3,146.2 295.9,158.6 310.7,172.9 292.1,181.8 303.8,198.7 283.9,203.8 
			292.1,222.7 271.5,223.9 275.9,244 255.5,241.1 255.9,261.7 236.5,254.9 232.8,275.2 215.1,264.7 207.5,283.9 192.2,270.1 
			181.1,287.5 168.7,271 154.4,285.9 145.4,267.3 128.5,279 123.4,259.1 104.5,267.3 103.4,246.7 83.2,251.1 86.1,230.7 65.5,231.1 
			72.3,211.7 52,208 62.5,190.3 43.4,182.7 57.1,167.3 39.8,156.2 56.2,143.8 41.4,129.5 60,120.6 48.2,103.7 68.2,98.6 60,79.7 
			80.5,78.5 76.1,58.4 96.5,61.3 96.1,40.7 115.6,47.5 119.3,27.2 137,37.7 144.5,18.5 159.9,32.3 171,14.9 183.4,31.4 197.7,16.6 
			206.6,35.1 223.5,23.4 228.7,43.3 247.6,35.1 248.7,55.7 268.8,51.3 266,71.7 286.6,71.3 279.8,90.8 300,94.4 289.5,112.1 		"/>
		
			<radialGradient id="SVGID_10_" cx="-97.1944" cy="910.5535" r="116" gradientTransform="matrix(0.9729 -0.2311 -0.2311 -0.9729 480.9727 1014.7068)" gradientUnits="userSpaceOnUse">
			<stop  offset="0.76" style="stop-color:#C77C08"/>
			<stop  offset="0.86" style="stop-color:#C87E0A"/>
			<stop  offset="0.9" style="stop-color:#CC8411"/>
			<stop  offset="0.93" style="stop-color:#D3901D"/>
			<stop  offset="0.95" style="stop-color:#DCA02F"/>
			<stop  offset="0.97" style="stop-color:#E9B445"/>
			<stop  offset="0.99" style="stop-color:#F8CE61"/>
			<stop  offset="1" style="stop-color:#FFD96D"/>
		</radialGradient>
		<path class="st10" d="M149.2,38.4C86.9,53.2,48.4,115.7,63.1,178s77.3,100.9,139.6,86.1c62.3-14.8,100.9-77.3,86.1-139.6
			c0,0,0-0.1,0-0.1C274,62.1,211.5,23.6,149.2,38.4z"/>
		
			<linearGradient id="SVGID_11_" gradientUnits="userSpaceOnUse" x1="176.0264" y1="307.1659" x2="176.0264" y2="100.1359" gradientTransform="matrix(1 0 0 -1 0 357.5821)">
			<stop  offset="0" style="stop-color:#FFFF8F"/>
			<stop  offset="3.000000e-02" style="stop-color:#FDF989"/>
			<stop  offset="0.26" style="stop-color:#EDCD59"/>
			<stop  offset="0.45" style="stop-color:#E4B23C"/>
			<stop  offset="0.55" style="stop-color:#E0A831"/>
		</linearGradient>
		<path class="st11" d="M279.6,126.6c13.6,57.2-21.8,114.6-79,128.2C143.4,268.4,86,233,72.4,175.8s21.8-114.6,79-128.2c0,0,0,0,0,0
			C208.6,34,266,69.4,279.6,126.6C279.6,126.6,279.6,126.6,279.6,126.6z"/>
	</g>
	<g id="badge_1">
		<g class="st12">
			<path class="st13" d="M97.9,122.8c-0.3,0.7-0.4,1.5-0.3,2.3c2.2,1,6.5-0.6,10.3-3.5c3.1-2.4,6.3-5.6,7.3-8.2
				C105.4,112.2,99,118.4,97.9,122.8z"/>
			<path class="st13" d="M254.4,186.3c3.1,1.3,8.8-1.2,13.8-5.3c4.1-3.4,8.2-8,9.4-11.5c-9.9-0.9-17,3.5-20.5,8.3
				c0-0.1,0-0.2,0.1-0.3c0.9-4.2,1.7-8.5,2.3-12.8c3.3,0.2,8-3.7,11.6-9c3-4.4,5.6-10,5.7-13.7c-8.5,1.7-13.8,6.6-16.4,11.6
				c0.2-4.5,0.1-9.1-0.3-13.6c0.2,0.3,0.4,0.6,0.7,0.8c3-0.5,6.1-5.2,7.9-10.8c1.4-4.6,2.3-10.1,1.4-13.4
				c-6.9,3.6-10.3,9.3-11.2,14.2c-0.8-4.2-1.9-8.3-3.3-12.4c2.7-1,4.9-6.1,5.6-11.8c0.6-4.6,0.4-10.1-1-13.1
				c-6.4,5-8.5,11.5-8.2,16.6c-1.7-3.3-3.6-6.4-5.8-9.4c2-1.6,2.5-6.5,1.6-11.5c-0.7-4.1-2.3-8.8-4.3-11c-4,5.8-4.2,11.6-2.8,15.8
				c-1.9-2-3.8-3.8-5.9-5.6c-0.1-2.4-2.8-5.8-6.5-8.4c-3.2-2.3-7.3-4.4-10.1-4.6c1.8,10,9.6,14.3,14.3,14c0.8,0,1.6-0.1,2.3-0.4
				c0-0.1,0-0.1,0-0.2c2.2,2,4.3,4.2,6.3,6.5c0.5,1.2,1.1,2.2,2,3.2c-4.2-2.3-9.2-2.7-13.7-1c1.4,2.3,5.1,4.7,8.5,6.4
				c4.2,2,8.5,2.7,10.4,1.4c0-0.1,0-0.2,0-0.3c1.4,2.2,2.7,4.5,3.8,6.9c0.2,1.6,0.8,3.1,1.6,4.5c0.4,0.6,0.6,0.9,0.8,1.2
				c1.9,4.9,3.2,9.9,4.1,15.1c-0.2,1.9,0.1,3.8,0.7,5.6c0.1,1.4,0.3,2.9,0.3,4.4c-1.1-4.7-6.3-10.9-15.6-11.6c0.4,2.9,3,6.9,5.7,10
				c3.3,3.8,7.4,6.4,9.9,5.8c0.1-0.1,0.1-0.3,0.1-0.4c0,2.9,0,5.9-0.2,9c-0.8,2-1.1,4.1-1,6.2c0.1,0.7,0.1,1.1,0.2,1.5
				c-0.1,0.6-0.2,1.1-0.2,1.7c0-0.1,0-0.2,0-0.3c0.2-5.1-4.9-13.5-16-14.9c0.3,3,2.8,7.4,5.5,10.8c3.3,4.2,7.5,7.1,10.1,6.6
				c0-0.1,0.1-0.1,0.1-0.2c-0.5,3.4-1.2,6.9-2,10.4c-0.7,2.9-1.6,5.7-2.8,8.4c0.5-5.2-2.3-13.1-11.2-17.4c-0.7,3,0.3,8.1,1.8,12.3
				c1.7,4.9,4.6,8.9,7.2,9.6c-2.8,5-6.3,9.6-10.4,13.6c2-4.8,1.4-13.5-6.5-20.1c-1.4,2.8-1.7,7.9-1.2,12.3c0.5,4.9,2.1,9.2,4.3,10.9
				c-4.7,4-9.8,7.6-15.3,10.6c3.9-3.6,6.8-11.9,2-21.1c-2.4,2-4.6,6.6-5.9,10.9c-1.6,5.1-1.7,10.2,0.2,12.3
				c-4.8,2.5-9.8,4.8-14.9,6.8c3.8-3.5,6.8-10.5,4.1-19.2c-2.7,1.6-5.7,5.7-7.7,9.7c-2.3,4.5-3.3,9.3-2.1,11.7
				c-7.1,2.5-14.2,4.6-20.8,6.3c-6.6-1.7-13.7-3.7-20.8-6.3c1.2-2.5,0.2-7.2-2.1-11.7c-2-3.9-5-8.1-7.7-9.7
				c-2.7,8.7,0.3,15.8,4.1,19.2c-5.1-2-10.1-4.3-14.9-6.8c1.9-2,1.8-7.1,0.2-12.3c-1.3-4.2-3.5-8.8-5.9-10.9
				c-4.7,9.2-1.8,17.5,2,21.1c-5.4-3-10.4-6.6-15.1-10.6c2.2-1.6,3.8-6,4.3-10.9c0.4-4.4,0.2-9.6-1.2-12.3
				c-7.8,6.6-8.5,15.3-6.4,20.1c-4.1-4-7.6-8.6-10.4-13.6c2.6-0.8,5.5-4.8,7.2-9.6c1.5-4.2,2.5-9.2,1.8-12.3
				c-8.9,4.4-11.8,12.2-11.2,17.4c-1.2-2.7-2.1-5.5-2.8-8.4c-0.8-3.5-1.5-7-2-10.4c0,0.1,0,0.1,0.1,0.2c2.7,0.4,6.8-2.5,10.1-6.6
				c2.7-3.4,5.2-7.8,5.5-10.8c-11.1,1.5-16.2,9.9-16,14.9c0,0.1,0,0.2,0,0.3l-0.2-1.7c0.1-0.4,0.1-0.8,0.2-1.5
				c0.2-2.1-0.2-4.2-1-6.2c-0.2-3-0.3-6-0.2-9c0,0.1,0.1,0.3,0.1,0.4c2.5,0.6,6.5-2,9.9-5.8c2.7-3.1,5.3-7.1,5.7-10
				c-9.3,0.8-14.5,6.9-15.6,11.6c0.1-1.5,0.2-2.9,0.3-4.4c0.7-1.8,0.9-3.7,0.8-5.6c0.8-5.2,2.2-10.2,4.1-15.1
				c0.2-0.3,0.4-0.6,0.8-1.2c0.9-1.4,1.4-2.9,1.7-4.5c1.1-2.4,2.4-4.7,3.8-6.9c0,0.1,0,0.2,0,0.3c1.9,1.4,6.3,0.7,10.4-1.4
				c3.4-1.6,7.1-4.1,8.5-6.4c-4.5-1.7-9.5-1.3-13.7,1c0.8-0.9,1.5-2,1.9-3.2c2-2.3,4.1-4.5,6.3-6.5c0,0.1,0,0.1,0,0.2
				c0.7,0.3,1.5,0.5,2.3,0.4c4.6,0.4,12.5-3.9,14.2-14c-2.8,0.2-6.9,2.3-10.1,4.6c-3.7,2.6-6.4,6-6.5,8.4c-2.1,1.7-4,3.6-5.9,5.6
				c1.4-4.3,1.1-10.1-2.8-15.8c-2,2.2-3.6,6.8-4.3,11c-0.9,5-0.4,9.8,1.6,11.5c-2.2,3-4.1,6.1-5.8,9.4c0.2-5.1-1.8-11.6-8.2-16.6
				c-1.4,3-1.6,8.5-1,13.1c0.7,5.7,2.9,10.7,5.6,11.8c-1.5,4-2.6,8.2-3.4,12.4c-1-5-4.3-10.6-11.2-14.2c-0.9,3.3,0,8.8,1.4,13.4
				c1.8,5.6,4.9,10.3,7.9,10.8c0.3-0.2,0.5-0.5,0.7-0.8c-0.4,4.5-0.5,9-0.3,13.6c-2.6-4.9-7.9-9.9-16.4-11.6
				c0.1,3.8,2.7,9.3,5.7,13.7c3.6,5.3,8.3,9.2,11.6,9c0.6,4.3,1.3,8.6,2.3,12.8c0,0.1,0,0.2,0.1,0.3c-3.5-4.8-10.6-9.1-20.5-8.3
				c1.1,3.6,5.3,8.1,9.3,11.5c5,4.1,10.7,6.6,13.8,5.3l0.1-0.3c1.7,3.8,3.8,7.5,6.3,10.9c-4.8-3-12.3-4.5-20.7-1.2
				c2.1,3.1,7.4,6.3,12.2,8.4c6,2.6,12.2,3.3,14.8,1.2c0-0.5-0.1-0.9-0.3-1.3c3.6,3.6,7.5,7,11.6,10c-5.8-1.2-13.6,0.1-20.6,6.7
				c3.1,2,9.3,3,14.6,3c6.4,0,12.2-1.6,14-4.4c3.7,2.2,7.5,4.3,11.6,6.2c-5.9-0.2-13.4,2.4-19.1,10.1c3.5,1.5,9.6,1.3,14.9,0.4
				c6.2-1.1,11.7-3.7,13-6.7c6.5,2.6,13.1,4.9,19.8,6.8c-5.5,1.3-10.5,2.3-14.8,3.1l1.1,2.3c6.3-1.1,12.6-2.4,18.7-4
				c6.2,1.6,12.5,3,18.7,4l1.1-2.3c-4.3-0.8-9.3-1.8-14.8-3.1c6.7-1.9,13.3-4.2,19.8-6.8c1.3,3,6.8,5.6,13,6.7
				c5.3,0.9,11.4,1,14.9-0.4c-5.7-7.7-13.3-10.3-19.1-10.1c4-1.9,7.9-4,11.6-6.2c1.8,2.8,7.6,4.4,14,4.4c5.3,0,11.4-0.9,14.6-3
				c-6.9-6.6-14.8-7.9-20.5-6.7c4.2-3,8.1-6.3,11.7-10c-0.2,0.4-0.3,0.9-0.3,1.3c2.6,2.1,8.8,1.4,14.8-1.2
				c4.9-2.1,10.1-5.3,12.3-8.4c-8.5-3.3-15.9-1.8-20.7,1.2c2.5-3.4,4.6-7,6.3-10.9L254.4,186.3z"/>
			<path class="st13" d="M246,121.7c3.9,2.9,8.1,4.5,10.3,3.5c0.1-0.8,0-1.6-0.2-2.3c-1-4.5-7.4-10.6-17.4-9.3
				C239.7,116.1,242.9,119.3,246,121.7z"/>
		</g>
		
			<linearGradient id="SVGID_12_" gradientUnits="userSpaceOnUse" x1="105.4925" y1="267.5059" x2="105.4925" y2="154.5159" gradientTransform="matrix(1 0 0 -1 0 357.5821)">
			<stop  offset="0" style="stop-color:#FFDF3D"/>
			<stop  offset="0.36" style="stop-color:#FEDD3A"/>
			<stop  offset="0.57" style="stop-color:#FBD532"/>
			<stop  offset="0.75" style="stop-color:#F5C924"/>
			<stop  offset="0.91" style="stop-color:#EDB710"/>
			<stop  offset="1" style="stop-color:#E7A900"/>
		</linearGradient>
		<path class="st14" d="M96.9,121.8c-0.3,0.7-0.4,1.5-0.3,2.3c2.2,1,6.5-0.6,10.3-3.5c3.1-2.4,6.3-5.6,7.3-8.2
			C104.4,111.2,98,117.4,96.9,121.8z"/>
		
			<linearGradient id="SVGID_13_" gradientUnits="userSpaceOnUse" x1="176.0289" y1="267.5059" x2="176.0289" y2="154.5159" gradientTransform="matrix(1 0 0 -1 0 357.5821)">
			<stop  offset="0" style="stop-color:#FFDF3D"/>
			<stop  offset="0.36" style="stop-color:#FEDD3A"/>
			<stop  offset="0.57" style="stop-color:#FBD532"/>
			<stop  offset="0.75" style="stop-color:#F5C924"/>
			<stop  offset="0.91" style="stop-color:#EDB710"/>
			<stop  offset="1" style="stop-color:#E7A900"/>
		</linearGradient>
		<path class="st15" d="M253.4,185.3c3.1,1.3,8.8-1.2,13.8-5.3c4.1-3.4,8.2-8,9.4-11.5c-9.9-0.9-17,3.5-20.5,8.3
			c0-0.1,0-0.2,0.1-0.3c0.9-4.2,1.7-8.5,2.3-12.8c3.3,0.2,8-3.7,11.6-9c3-4.4,5.6-10,5.7-13.7c-8.5,1.7-13.8,6.6-16.4,11.6
			c0.2-4.5,0.1-9.1-0.3-13.6c0.2,0.3,0.4,0.6,0.7,0.8c3-0.5,6.1-5.2,7.9-10.8c1.4-4.6,2.3-10.1,1.4-13.4
			c-6.9,3.6-10.3,9.3-11.2,14.2c-0.8-4.2-1.9-8.3-3.3-12.4c2.7-1,4.9-6.1,5.6-11.8c0.6-4.7,0.4-10.1-1-13.1
			c-6.4,5-8.5,11.5-8.2,16.6c-1.7-3.3-3.6-6.4-5.8-9.4c2-1.6,2.5-6.5,1.6-11.5c-0.7-4.1-2.3-8.8-4.3-11c-4,5.8-4.2,11.6-2.8,15.8
			c-1.9-2-3.8-3.8-5.9-5.6c-0.1-2.4-2.8-5.8-6.5-8.4c-3.2-2.3-7.3-4.4-10.1-4.6c1.8,10,9.6,14.3,14.3,14c0.8,0,1.6-0.1,2.3-0.4
			c0-0.1,0-0.1,0-0.2c2.2,2,4.3,4.2,6.3,6.5c0.5,1.2,1.1,2.2,2,3.2c-4.2-2.3-9.2-2.7-13.7-1c1.4,2.3,5.1,4.8,8.5,6.4
			c4.2,2,8.5,2.7,10.4,1.4c0-0.1,0-0.2,0-0.3c1.4,2.2,2.7,4.5,3.8,6.9c0.2,1.6,0.8,3.1,1.6,4.5c0.4,0.6,0.6,0.9,0.8,1.2
			c1.9,4.9,3.2,9.9,4.1,15.1c-0.2,1.9,0.1,3.8,0.7,5.6c0.1,1.4,0.3,2.9,0.3,4.4c-1.1-4.7-6.3-10.9-15.6-11.6c0.4,2.9,3,6.9,5.7,10
			c3.3,3.8,7.4,6.4,9.9,5.8c0.1-0.1,0.1-0.3,0.1-0.4c0,2.9,0,5.9-0.2,9c-0.8,2-1.1,4.1-1,6.2c0.1,0.7,0.1,1.1,0.2,1.5
			c-0.1,0.6-0.2,1.1-0.2,1.7c0-0.1,0-0.2,0-0.3c0.2-5.1-4.9-13.5-16-14.9c0.3,3,2.8,7.4,5.5,10.8c3.3,4.2,7.5,7.1,10.1,6.6
			c0-0.1,0.1-0.1,0.1-0.2c-0.5,3.4-1.2,6.9-2,10.4c-0.7,2.9-1.6,5.7-2.8,8.4c0.5-5.2-2.3-13.1-11.2-17.4c-0.7,3,0.3,8.1,1.8,12.3
			c1.7,4.9,4.6,8.9,7.2,9.6c-2.8,5-6.3,9.6-10.4,13.6c2-4.8,1.4-13.5-6.5-20.1c-1.4,2.8-1.7,7.9-1.2,12.3c0.5,4.9,2.1,9.2,4.3,10.9
			c-4.7,4-9.8,7.6-15.3,10.6c3.9-3.6,6.8-11.9,2-21.1c-2.4,2-4.6,6.6-5.9,10.9c-1.6,5.1-1.7,10.2,0.2,12.3
			c-4.8,2.5-9.8,4.8-14.9,6.8c3.8-3.5,6.8-10.5,4.1-19.2c-2.7,1.6-5.7,5.7-7.7,9.7c-2.3,4.5-3.3,9.3-2.1,11.7
			c-7.1,2.5-14.2,4.6-20.8,6.3c-6.6-1.7-13.7-3.7-20.8-6.3c1.2-2.5,0.2-7.2-2.1-11.7c-2-3.9-5-8.1-7.7-9.7
			c-2.7,8.7,0.3,15.8,4.1,19.2c-5.1-2-10.1-4.3-14.9-6.8c1.9-2,1.8-7.1,0.2-12.3c-1.3-4.2-3.5-8.8-5.9-10.9
			c-4.7,9.2-1.8,17.5,2,21.1c-5.4-3-10.4-6.6-15.1-10.6c2.2-1.6,3.8-6,4.3-10.9c0.4-4.4,0.2-9.6-1.2-12.3
			c-7.8,6.6-8.5,15.3-6.4,20.1c-4.1-4-7.6-8.6-10.4-13.6c2.6-0.8,5.5-4.8,7.2-9.6c1.5-4.2,2.5-9.2,1.8-12.3
			c-8.9,4.4-11.8,12.2-11.2,17.4c-1.2-2.7-2.1-5.5-2.8-8.4c-0.8-3.5-1.5-7-2-10.4c0,0.1,0,0.1,0.1,0.2c2.7,0.4,6.8-2.5,10.1-6.6
			c2.7-3.4,5.2-7.8,5.5-10.8c-11.1,1.5-16.2,9.9-16,14.9c0,0.1,0,0.2,0,0.3l-0.2-1.7c0.1-0.4,0.1-0.8,0.2-1.5c0.2-2.1-0.2-4.2-1-6.2
			c-0.2-3-0.3-6-0.2-9c0,0.1,0.1,0.3,0.1,0.4c2.5,0.6,6.5-2,9.9-5.8c2.7-3.1,5.3-7.1,5.7-10c-9.3,0.8-14.5,6.9-15.6,11.6
			c0.1-1.5,0.2-2.9,0.3-4.4c0.7-1.8,0.9-3.7,0.8-5.6c0.8-5.2,2.2-10.2,4.1-15.1c0.2-0.3,0.4-0.6,0.8-1.2c0.9-1.4,1.4-2.9,1.7-4.5
			c1.1-2.4,2.4-4.7,3.8-6.9c0,0.1,0,0.2,0,0.3c1.9,1.4,6.3,0.7,10.4-1.4c3.4-1.7,7.1-4.1,8.5-6.4c-4.5-1.7-9.5-1.3-13.7,1
			c0.8-0.9,1.5-2,1.9-3.2c2-2.3,4.1-4.5,6.3-6.5c0,0.1,0,0.1,0,0.2c0.7,0.3,1.5,0.5,2.3,0.4c4.6,0.4,12.5-3.9,14.2-14
			c-2.8,0.2-6.9,2.3-10.1,4.6c-3.7,2.6-6.4,6-6.5,8.4c-2.1,1.7-4,3.6-5.9,5.6c1.4-4.3,1.1-10.1-2.8-15.8c-2,2.2-3.6,6.8-4.3,11
			c-0.9,5-0.4,9.8,1.6,11.5c-2.2,3-4.1,6.1-5.8,9.4c0.2-5.1-1.8-11.6-8.2-16.6c-1.4,3-1.6,8.5-1,13.1c0.7,5.7,2.9,10.7,5.6,11.8
			c-1.5,4-2.6,8.2-3.4,12.4c-1-5-4.3-10.6-11.2-14.2c-0.9,3.3,0,8.8,1.4,13.4c1.8,5.6,4.9,10.3,7.9,10.8c0.3-0.2,0.5-0.5,0.7-0.8
			c-0.4,4.5-0.5,9-0.3,13.6c-2.6-4.9-7.9-9.9-16.4-11.6c0.1,3.8,2.7,9.3,5.7,13.7c3.6,5.3,8.3,9.2,11.6,9c0.6,4.3,1.3,8.6,2.3,12.8
			c0,0.1,0,0.2,0.1,0.3c-3.5-4.8-10.6-9.1-20.5-8.3c1.1,3.6,5.3,8.1,9.3,11.5c5,4.1,10.7,6.6,13.8,5.3l0.1-0.3
			c1.7,3.8,3.8,7.5,6.3,10.9c-4.8-3-12.3-4.5-20.7-1.2c2.1,3.1,7.4,6.3,12.2,8.4c6,2.6,12.2,3.3,14.8,1.2c0-0.5-0.1-0.9-0.3-1.3
			c3.6,3.6,7.5,7,11.6,10c-5.8-1.2-13.6,0.1-20.6,6.7c3.1,2,9.3,3,14.6,3c6.4,0,12.2-1.6,14-4.4c3.7,2.2,7.5,4.3,11.6,6.2
			c-5.9-0.2-13.4,2.4-19.1,10.1c3.5,1.5,9.6,1.3,14.9,0.4c6.2-1.1,11.7-3.7,13-6.7c6.5,2.6,13.1,4.9,19.8,6.8
			c-5.5,1.3-10.5,2.3-14.8,3.1l1.1,2.3c6.3-1.1,12.6-2.4,18.7-4c6.2,1.6,12.5,3,18.7,4l1.1-2.3c-4.3-0.8-9.3-1.8-14.8-3.1
			c6.7-1.9,13.3-4.2,19.8-6.8c1.3,3,6.8,5.6,13,6.7c5.3,0.9,11.4,1,14.9-0.4c-5.7-7.7-13.3-10.3-19.1-10.1c4-1.9,7.9-4,11.6-6.2
			c1.8,2.8,7.6,4.4,14,4.4c5.3,0,11.4-0.9,14.6-3c-6.9-6.6-14.8-7.9-20.6-6.7c4.2-3,8.1-6.3,11.7-10c-0.2,0.4-0.3,0.9-0.3,1.3
			c2.6,2.1,8.8,1.4,14.8-1.2c4.9-2.1,10.1-5.3,12.3-8.4c-8.5-3.3-15.9-1.8-20.7,1.2c2.5-3.4,4.6-7,6.3-10.9L253.4,185.3z"/>
		
			<linearGradient id="SVGID_14_" gradientUnits="userSpaceOnUse" x1="246.5907" y1="267.5059" x2="246.5907" y2="154.5159" gradientTransform="matrix(1 0 0 -1 0 357.5821)">
			<stop  offset="0" style="stop-color:#FFDF3D"/>
			<stop  offset="0.36" style="stop-color:#FEDD3A"/>
			<stop  offset="0.57" style="stop-color:#FBD532"/>
			<stop  offset="0.75" style="stop-color:#F5C924"/>
			<stop  offset="0.91" style="stop-color:#EDB710"/>
			<stop  offset="1" style="stop-color:#E7A900"/>
		</linearGradient>
		<path class="st16" d="M245,120.7c3.9,2.9,8.1,4.5,10.3,3.5c0.1-0.8,0-1.6-0.2-2.3c-1-4.5-7.4-10.6-17.4-9.3
			C238.7,115.1,241.9,118.3,245,120.7z"/>
	</g>
</g>
</svg>
