<svg width="18" height="16" viewBox="0 0 18 16" fill="none" xmlns="http://www.w3.org/2000/svg">
<g clip-path="url(#clip0_1669_710)">
<path d="M15.9268 15.2265H2.07323C0.933639 15.2265 0 14.3066 0 13.167V2.07323C0 0.933639 0.933639 0 2.07323 0H15.9405C17.0801 0 18.0137 0.933639 18.0137 2.07323V13.167C18 14.3066 17.0801 15.2265 15.9268 15.2265ZM2.07323 1.373C1.68879 1.373 1.373 1.68879 1.373 2.07323V13.167C1.373 13.5515 1.68879 13.8673 2.07323 13.8673H15.9405C16.3249 13.8673 16.6407 13.5515 16.6407 13.167V2.07323C16.627 1.68879 16.3249 1.373 15.9268 1.373H2.07323Z" fill="#36f"/>
<path d="M17.2861 4.79194H0.727759C0.343319 4.79194 0.0412598 4.48988 0.0412598 4.10544C0.0412598 3.721 0.343319 3.41895 0.727759 3.41895H17.2861C17.6706 3.41895 17.9726 3.721 17.9726 4.10544C17.9726 4.48988 17.6568 4.79194 17.2861 4.79194Z" fill="#36f"/>
<path d="M17.2861 8.10054H0.727759C0.343319 8.10054 0.0412598 7.79848 0.0412598 7.41404C0.0412598 7.0296 0.343319 6.72754 0.727759 6.72754H17.2861C17.6706 6.72754 17.9726 7.0296 17.9726 7.41404C17.9726 7.79848 17.6568 8.10054 17.2861 8.10054Z" fill="#36f"/>
<path d="M4.24266 11.5332H3.14426C2.75982 11.5332 2.45776 11.2311 2.45776 10.8467C2.45776 10.4622 2.75982 10.1602 3.14426 10.1602H4.24266C4.6271 10.1602 4.92916 10.4622 4.92916 10.8467C4.92916 11.2311 4.61337 11.5332 4.24266 11.5332Z" fill="#36f"/>
<path d="M7.7849 11.5332H6.6865C6.30206 11.5332 6 11.2311 6 10.8467C6 10.4622 6.30206 10.1602 6.6865 10.1602H7.7849C8.16934 10.1602 8.4714 10.4622 8.4714 10.8467C8.4714 11.2311 8.15561 11.5332 7.7849 11.5332Z" fill="#36f"/>
<path d="M11.3274 11.5332H10.229C9.84454 11.5332 9.54248 11.2311 9.54248 10.8467C9.54248 10.4622 9.84454 10.1602 10.229 10.1602H11.3274C11.7118 10.1602 12.0139 10.4622 12.0139 10.8467C12.0139 11.2311 11.6981 11.5332 11.3274 11.5332Z" fill="#36f"/>
<path d="M14.8696 11.5332H13.7712C13.3868 11.5332 13.0847 11.2311 13.0847 10.8467C13.0847 10.4622 13.3868 10.1602 13.7712 10.1602H14.8696C15.2541 10.1602 15.5561 10.4622 15.5561 10.8467C15.5561 11.2311 15.2403 11.5332 14.8696 11.5332Z" fill="#36f"/>
</g>
<defs>
<clipPath id="clip0_1669_710">
<rect width="18" height="15.2265" fill="white"/>
</clipPath>
</defs>
</svg>
