<svg width="40" height="40" viewBox="0 0 40 40" fill="none" xmlns="http://www.w3.org/2000/svg">
<path d="M12 24V29H28V24" stroke="#3366FF" stroke-width="1.4" stroke-linecap="round"/>
<path fill-rule="evenodd" clip-rule="evenodd" d="M15.1859 16.2267C15.3098 16.3511 15.4647 16.4133 15.6196 16.4133C15.7745 16.4133 15.9294 16.3511 16.0534 16.2267L18.8726 13.3956L18.8726 24.3778C18.8726 24.72 19.1515 25 19.4923 25C19.833 25 20.1119 24.72 20.1119 24.3778L20.1119 13.3956L22.9312 16.2267C23.179 16.4756 23.5663 16.4756 23.8141 16.2267C24.062 15.9778 24.062 15.5889 23.8141 15.34L19.4923 11L15.1859 15.34C14.938 15.5889 14.938 15.9778 15.1859 16.2267Z" fill="#3366FF"/>
</svg>
