<svg id="Layer_1" fill="#90999e" width="21" height="21" data-name="Layer 1" xmlns="http://www.w3.org/2000/svg" viewBox="0 0 200 200"><polygon points="160.16 95.44 178.94 114.22 116.67 176.49 95.65 178.72 97.89 157.71 160.16 95.44"/><line x1="165.26" y1="127.9" x2="146.48" y2="109.12"/><circle cx="93.65" cy="50.68" r="32.95"/><path d="M109.27,89.61c5.66,1.08,11.12,2.25,15.73,4.75,4.06,2.2,6.62,5.87,8.06,11.56.21.83.4,1.67.59,2.5l6.73-6.72c-2.16-6.77-5.92-11.57-11.47-14.57s-11.78-4.39-18.1-5.6a116.73,116.73,0,0,0-17-2h-.34a116.57,116.57,0,0,0-17,2c-6.32,1.21-12.46,2.55-18.1,5.6-6.14,3.32-10.1,8.81-12.12,16.77-1.58,6.23-2.68,12.59-3.74,18.73-.5,2.9-1,5.89-1.57,8.8-1.6,8.38-3.27,17.32-5.09,27.34-.62,3.41-.39,2.11-1,5.53l7.24,6.15Q43,165.33,44,160.24c1.81-10,3.47-18.91,5.07-27.26.57-3,1.09-6,1.6-8.95,1-6,2.1-12.19,3.6-18.11,1.45-5.69,4-9.36,8.07-11.56,4.61-2.5,10.07-3.67,15.73-4.75a107.55,107.55,0,0,1,15.62-1.86A107.55,107.55,0,0,1,109.27,89.61Z"/></svg>