<svg width="20" height="20" viewBox="0 0 20 20" fill="none" xmlns="http://www.w3.org/2000/svg">
<path d="M14.4508 19.0003H4.88308C3.84462 19.0003 3 18.1695 3 17.1588V5.61107C3 4.6003 3.84462 3.76953 4.88308 3.76953H14.4508C15.4892 3.76953 16.3338 4.6003 16.3338 5.61107V17.1449C16.3477 18.1695 15.5031 19.0003 14.4508 19.0003ZM4.88308 5.15415C4.60615 5.15415 4.38462 5.36184 4.38462 5.61107V17.1449C4.38462 17.408 4.60615 17.6157 4.88308 17.6157H14.4508C14.7277 17.6157 14.9492 17.408 14.9492 17.1588V5.61107C14.9631 5.36184 14.7277 5.15415 14.4508 5.15415H4.88308Z" fill="#72839C"/>
<path d="M12.1384 5.15385H7.19534C6.29534 5.15385 5.8938 4.69692 5.8938 4.22615V1.92769C5.8938 1.45692 6.29534 1 7.19534 1H12.1384C13.0384 1 13.4538 1.45692 13.4538 1.92769V4.24C13.4538 4.69692 13.0523 5.15385 12.1384 5.15385ZM7.27841 3.76923H12.0692V2.38462H7.27841V3.76923Z" fill="#72839C"/>
<path d="M13.0523 8.29672H6.29534C5.90764 8.29672 5.60303 7.99211 5.60303 7.60442C5.60303 7.21672 5.90764 6.91211 6.29534 6.91211H13.0523C13.44 6.91211 13.7446 7.21672 13.7446 7.60442C13.7446 7.99211 13.4261 8.29672 13.0523 8.29672Z" fill="#72839C"/>
<path d="M13.0523 11.0384H6.29534C5.90764 11.0384 5.60303 10.7338 5.60303 10.3461C5.60303 9.95842 5.90764 9.65381 6.29534 9.65381H13.0523C13.44 9.65381 13.7446 9.95842 13.7446 10.3461C13.7446 10.7338 13.4261 11.0384 13.0523 11.0384Z" fill="#72839C"/>
<path d="M13.0523 13.7938H6.29534C5.90764 13.7938 5.60303 13.4892 5.60303 13.1015C5.60303 12.7138 5.90764 12.4092 6.29534 12.4092H13.0523C13.44 12.4092 13.7446 12.7138 13.7446 13.1015C13.7446 13.4892 13.4261 13.7938 13.0523 13.7938Z" fill="#72839C"/>
</svg>
