<svg width="20" height="20" viewBox="0 0 20 20" fill="none" xmlns="http://www.w3.org/2000/svg">
<g clip-path="url(#clip0_1668_655)">
<path d="M10.0001 7.55231C8.49085 7.55231 7.25854 6.30615 7.25854 4.76923C7.25854 3.23231 8.49085 2 10.0001 2C11.5093 2 12.7416 3.24615 12.7416 4.78308C12.7416 6.32 11.5093 7.55231 10.0001 7.55231ZM10.0001 3.38462C9.25239 3.38462 8.64316 4.00769 8.64316 4.78308C8.64316 5.55846 9.25239 6.16769 10.0001 6.16769C10.7478 6.16769 11.357 5.54462 11.357 4.76923C11.357 3.99385 10.7478 3.38462 10.0001 3.38462Z" fill="#8F989D"/>
<path d="M11.0662 17.3555H8.93388C7.28619 17.3555 5.94312 16.0124 5.94312 14.3647V11.1109C5.94312 9.46319 7.28619 8.12012 8.93388 8.12012H11.08C12.7277 8.12012 14.0708 9.46319 14.0708 11.1109V14.3647C14.0708 16.0124 12.7277 17.3555 11.0662 17.3555ZM8.93388 9.50473C8.04773 9.50473 7.32773 10.2247 7.32773 11.1109V14.3647C7.32773 15.2509 8.04773 15.9709 8.93388 15.9709H11.08C11.9662 15.9709 12.6862 15.2509 12.6862 14.3647V11.1109C12.6862 10.2247 11.9662 9.50473 11.08 9.50473H8.93388Z" fill="#8F989D"/>
<path d="M4.55847 8.42477C3.24309 8.42477 2.16309 7.34477 2.16309 6.00169C2.16309 4.67246 3.22924 3.57861 4.55847 3.57861C5.87386 3.57861 6.95386 4.65861 6.95386 6.00169C6.95386 7.34477 5.87386 8.42477 4.55847 8.42477ZM4.55847 4.97707C4.00462 4.97707 3.5477 5.44784 3.5477 6.01554C3.5477 6.58323 4.00462 7.054 4.55847 7.054C5.11232 7.054 5.56924 6.58323 5.56924 6.01554C5.56924 5.434 5.11232 4.97707 4.55847 4.97707Z" fill="#8F989D"/>
<path d="M5.08462 17.3556H3.43692C2.09385 17.3556 1 16.2894 1 14.974V11.4017C1 10.0863 2.09385 9.00635 3.43692 9.00635H4.75231C5.14 9.00635 5.44462 9.31096 5.44462 9.69866C5.44462 10.0863 5.14 10.391 4.75231 10.391H3.43692C2.85538 10.391 2.38462 10.8479 2.38462 11.4017V14.974C2.38462 15.5279 2.85538 15.9848 3.43692 15.9848H5.08462C5.47231 15.9848 5.77692 16.2894 5.77692 16.6771C5.77692 17.0648 5.47231 17.3556 5.08462 17.3556Z" fill="#8F989D"/>
<path d="M15.4415 8.42459C14.1261 8.42459 13.0461 7.34459 13.0461 6.01536C13.0461 4.68613 14.1123 3.59229 15.4415 3.59229C16.7569 3.59229 17.8369 4.67229 17.8369 6.01536C17.8369 7.34459 16.7569 8.42459 15.4415 8.42459ZM15.4415 4.9769C14.8877 4.9769 14.4308 5.44767 14.4308 6.01536C14.4308 6.58305 14.8877 7.05382 15.4415 7.05382C15.9954 7.05382 16.4523 6.58305 16.4523 6.01536C16.4523 5.43382 15.9954 4.9769 15.4415 4.9769Z" fill="#8F989D"/>
<path d="M16.5631 17.3556H14.9155C14.5278 17.3556 14.2231 17.051 14.2231 16.6633C14.2231 16.2756 14.5278 15.971 14.9155 15.971H16.5631C17.1447 15.971 17.6155 15.514 17.6155 14.9602V11.4017C17.6155 10.8479 17.1447 10.391 16.5631 10.391H15.2478C14.8601 10.391 14.5555 10.0863 14.5555 9.69866C14.5555 9.31096 14.8601 9.00635 15.2478 9.00635H16.5631C17.9062 9.00635 19.0001 10.0725 19.0001 11.4017V14.974C19.0001 16.2894 17.9062 17.3556 16.5631 17.3556Z" fill="#8F989D"/>
</g>
<defs>
<clipPath id="clip0_1668_655">
<rect width="18" height="15.3554" fill="white" transform="translate(1 2)"/>
</clipPath>
</defs>
</svg>
