<svg width="22" height="22" viewBox="0 0 22 22" fill="none" xmlns="http://www.w3.org/2000/svg">
<g clip-path="url(#clip0_1672_2174)">
<path d="M18.6333 19.95H3.36667C2.06667 19.95 1 18.8833 1 17.5833V5.36667C1 4.06667 2.06667 3 3.36667 3H18.65C19.9333 3 21 4.06667 21 5.36667V17.5833C21 18.8833 19.9333 19.95 18.6333 19.95ZM3.36667 4.66667C2.98333 4.66667 2.66667 4.98333 2.66667 5.36667V17.5833C2.66667 17.9667 2.98333 18.2833 3.36667 18.2833H18.65C19.0333 18.2833 19.35 17.9667 19.35 17.5833V5.36667C19.3333 4.98333 19.0167 4.66667 18.6333 4.66667H3.36667Z" fill="#36f"/>
<path d="M8.30007 16.2169C7.96674 16.2169 7.61674 16.1336 7.31674 15.9502C6.76674 15.6336 6.45007 15.0669 6.45007 14.4502V8.50022C6.45007 7.88355 6.78341 7.33355 7.31674 7.00022C7.90007 6.65022 8.63341 6.65022 9.23341 6.96689L14.6334 9.93355C15.2167 10.2669 15.5501 10.8336 15.5501 11.4669C15.5501 12.1002 15.2167 12.6836 14.6334 13.0002L9.23341 15.9669C8.95007 16.1336 8.61674 16.2169 8.30007 16.2169ZM8.30007 8.40022C8.25007 8.40022 8.20007 8.41689 8.16674 8.43355L8.11674 14.4336C8.11674 14.4669 8.16674 14.4836 8.16674 14.5002C8.23341 14.5336 8.33341 14.5669 8.43341 14.5002L13.8334 11.5336L8.43341 8.43355C8.38341 8.41689 8.35007 8.40022 8.30007 8.40022Z" fill="#36f"/>
</g>
<defs>
<clipPath id="clip0_1672_2174">
<rect width="20" height="16.95" fill="white" transform="translate(1 3)"/>
</clipPath>
</defs>
</svg>
