<?xml version="1.0" encoding="utf-8"?>
<!-- Generator: Adobe Illustrator 24.3.0, SVG Export Plug-In . SVG Version: 6.00 Build 0)  -->
<svg version="1.1" id="Capa_1" xmlns="http://www.w3.org/2000/svg" xmlns:xlink="http://www.w3.org/1999/xlink" x="0px" y="0px"
	 viewBox="0 0 94 94" style="enable-background:new 0 0 94 94;" xml:space="preserve">
<style type="text/css">
	.st0{fill:#72839C;}
</style>
<g>
	<path class="st0" d="M79.8,16.5L64,0.7C63.6,0.3,62.9,0,62.3,0H16c-1.3,0-2.4,1.1-2.4,2.4v89.2c0,1.3,1.1,2.4,2.4,2.4h62.1
		c1.3,0,2.4-1.1,2.4-2.4V18.2C80.5,17.5,80.2,16.9,79.8,16.5z M68.6,80H25.4V14h31.7l0,10.5c0,0.3,0.1,0.5,0.3,0.7
		c0.2,0.2,0.5,0.3,0.7,0.3h10.5L68.6,80L68.6,80z"/>
</g>
</svg>
