<svg id="Layer_1" width="20" height="20" data-name="Layer 1" xmlns="http://www.w3.org/2000/svg" viewBox="0 0 200 200"><defs><style>.cls-1{fill:#4e8dea;}</style></defs><path class="cls-1" d="M178.91,104H48.59a4,4,0,0,1,0-8H178.91a4,4,0,0,1,0,8Z"/><path class="cls-1" d="M176.5,128.14v41.12a7.25,7.25,0,0,1-7.24,7.24H30.74a7.25,7.25,0,0,1-7.24-7.24V30.74a7.25,7.25,0,0,1,7.24-7.24H169.26a7.25,7.25,0,0,1,7.24,7.24V71.86l8,8V30.74A15.25,15.25,0,0,0,169.26,15.5H30.74A15.25,15.25,0,0,0,15.5,30.74V169.26A15.26,15.26,0,0,0,30.74,184.5H169.26a15.26,15.26,0,0,0,15.24-15.24V120.14Z"/><path class="cls-1" d="M114.4,170.1a4,4,0,0,1-2.83-6.83L174.84,100,111.57,36.73a4,4,0,0,1,5.66-5.66l63.39,63.39a7.85,7.85,0,0,1,0,11.08l-63.39,63.39A4,4,0,0,1,114.4,170.1Z"/></svg>