<svg width="20" height="20" viewBox="0 0 20 20" fill="none" xmlns="http://www.w3.org/2000/svg">
<path d="M17.2 5.56656C17.722 5.56656 18.145 5.74489 18.478 6.09263C18.82 6.4582 19 6.85944 19 7.34985V17.1579C19 17.6483 18.82 18.0495 18.478 18.4151C18.145 18.7628 17.722 18.9412 17.2 18.9412H2.8C2.278 18.9412 1.855 18.7628 1.522 18.4151C1.18 18.0495 1 17.6483 1 17.1579V7.34985C1 6.85944 1.18 6.4582 1.522 6.09263C1.855 5.74489 2.278 5.56656 2.8 5.56656H6.4V3.78328C6.4 3.26613 6.58 2.84706 6.922 2.51715C7.255 2.17833 7.678 2 8.2 2H11.8C12.322 2 12.745 2.17833 13.078 2.51715C13.42 2.84706 13.6 3.26613 13.6 3.78328V5.56656H17.2ZM2.8 7.34985V17.1579H17.2V7.34985H2.8ZM11.8 5.56656V3.78328H8.2V5.56656H11.8Z" fill="#3366ff"/>
</svg>
