<?xml version="1.0" encoding="iso-8859-1"?>
<!-- Generator: Adobe Illustrator 19.0.0, SVG Export Plug-In . SVG Version: 6.00 Build 0)  -->
<svg version="1.1" id="Capa_1" xmlns="http://www.w3.org/2000/svg" xmlns:xlink="http://www.w3.org/1999/xlink" x="0px" y="0px"
	 viewBox="0 0 372.96 372.96" style="enable-background:new 0 0 372.96 372.96;" xml:space="preserve">
	 <style type="text/css">
	path{fill-rule:evenodd;clip-rule:evenodd;fill:#72839C;}
</style>
<g>
	<g>
		<path d="M133.04,128.128c-8.922-8.95-21.043-13.974-33.68-13.96c-26.311-0.007-47.646,21.316-47.653,47.627
			s21.316,47.646,47.627,47.653s47.646-21.316,47.653-47.627C146.99,149.185,141.973,137.065,133.04,128.128z"/>
	</g>
</g>
<g>
	<g>
		<path d="M101.92,225.008h-5.08C43.411,225.14,0.132,268.42,0,321.848v6.84c0,3.756,3.044,6.8,6.8,6.8h185.12
			c3.756,0,6.8-3.044,6.8-6.8v-6.84C198.566,268.444,155.324,225.184,101.92,225.008z"/>
	</g>
</g>
<g>
	<g>
		<path d="M340.64,60.568c-22.035-15.432-48.382-23.509-75.28-23.08c-26.898-0.429-53.245,7.648-75.28,23.08
			c-20,14.72-32.32,35.2-32.32,58c0.032,10.316,2.557,20.471,7.36,29.6c4.292,8.129,9.963,15.451,16.76,21.64l-17.08,35.48
			c-1.635,3.357-0.239,7.403,3.118,9.037c2.102,1.024,4.584,0.889,6.562-0.357l39.28-24.24c7.471,3.05,15.212,5.394,23.12,7
			c9.372,1.919,18.914,2.884,28.48,2.88c26.898,0.429,53.245-7.648,75.28-23.08c20-14.72,32.32-35.2,32.32-58
			C372.96,95.728,360.6,75.288,340.64,60.568z M316.372,107.636c-0.004,0.017-0.008,0.035-0.012,0.052h0
			c-0.266,1.185-0.846,2.277-1.68,3.16l-17.44,20l2.32,26.84c0.327,3.741-2.44,7.039-6.182,7.367
			c-1.307,0.114-2.619-0.152-3.778-0.767l-24.24-10.2l-24.8,10.52c-3.43,1.474-7.406-0.111-8.88-3.541
			c-0.446-1.039-0.625-2.173-0.52-3.299l2.32-26.84l-17.64-20.44c-2.443-2.853-2.11-7.145,0.743-9.588
			c0.823-0.705,1.803-1.203,2.857-1.452l26.2-6.08l13.88-22.88c1.924-3.225,6.098-4.28,9.323-2.357
			c0.969,0.578,1.779,1.388,2.357,2.357l13.8,22.96l26.2,6.08C314.867,100.339,317.183,103.969,316.372,107.636z"/>
	</g>
</g>
<g>
</g>
<g>
</g>
<g>
</g>
<g>
</g>
<g>
</g>
<g>
</g>
<g>
</g>
<g>
</g>
<g>
</g>
<g>
</g>
<g>
</g>
<g>
</g>
<g>
</g>
<g>
</g>
<g>
</g>
</svg>
