<?xml version="1.0" encoding="utf-8"?>
<!-- Generator: Adobe Illustrator 24.3.0, SVG Export Plug-In . SVG Version: 6.00 Build 0)  -->
<svg version="1.1" id="Layer_1" xmlns="http://www.w3.org/2000/svg" xmlns:xlink="http://www.w3.org/1999/xlink" x="0px" y="0px"
	 viewBox="0 0 20 20" style="enable-background:new 0 0 20 20;" xml:space="preserve">
<style type="text/css">
	.st0{fill:#72839C;}
</style>
<path class="st0" d="M14.6,8.57c-0.19-1.58-2.5-2.87-5.48-3.06c0,0-1.58-1.17-1.69-3.2C7.41,2,7.17,1.7,6.86,1.77
	c-0.8,0.19-2.15,1.18-2.22,5.68c0,0-4.33,2.11-4.65,8.19c2.78,1.61,6.01,2.55,9.47,2.61l-0.04-0.87c-0.01-0.31,0.22-0.64,0.51-0.75
	l3.69-1.33c0,0,4.1,0.23,4.82-1.02c0.36-0.63,1.13-1.05,1.38-1.33c0.2-0.23,0.23-1.12,0-1.33C19.08,10.9,14.74,9.74,14.6,8.57z
	 M12.41,10.09c-0.36,0-0.65-0.28-0.65-0.63c0-0.35,0.29-0.63,0.65-0.63c0.36,0,0.65,0.28,0.65,0.63
	C13.06,9.81,12.77,10.09,12.41,10.09z"/>
</svg>
