<?xml version="1.0" encoding="utf-8"?>
<!-- Generator: Adobe Illustrator 24.3.0, SVG Export Plug-In . SVG Version: 6.00 Build 0)  -->
<svg version="1.1" id="Layer_1" xmlns="http://www.w3.org/2000/svg" xmlns:xlink="http://www.w3.org/1999/xlink" x="0px" y="0px"
	 viewBox="0 0 20 20" style="enable-background:new 0 0 20 20;" xml:space="preserve">
<style type="text/css">
	.st0{fill:#72839C;}
</style>
<path class="st0" d="M10,16.84c-2.38,0-4.47-1.22-5.7-3.04c0.03-1.9,3.8-2.95,5.7-2.95s5.67,1.05,5.7,2.95
	C14.47,15.62,12.38,16.84,10,16.84z M10,3.35c0.76,0,1.48,0.3,2.02,0.83c0.53,0.53,0.83,1.26,0.83,2.02s-0.3,1.48-0.83,2.02
	C11.48,8.75,10.76,9.05,10,9.05c-0.76,0-1.48-0.3-2.02-0.83C7.45,7.68,7.15,6.96,7.15,6.2s0.3-1.48,0.83-2.02
	C8.52,3.65,9.24,3.35,10,3.35z M10,0.5c-1.25,0-2.48,0.25-3.64,0.72C5.21,1.7,4.16,2.4,3.28,3.28C1.5,5.06,0.5,7.48,0.5,10
	c0,2.52,1,4.94,2.78,6.72c0.88,0.88,1.93,1.58,3.08,2.06C7.52,19.25,8.75,19.5,10,19.5c2.52,0,4.94-1,6.72-2.78
	c1.78-1.78,2.78-4.2,2.78-6.72C19.5,4.75,15.23,0.5,10,0.5z"/>
</svg>
