<svg width="122" height="122" viewBox="0 0 122 122" fill="none" xmlns="http://www.w3.org/2000/svg">
<path d="M61 122C94.6894 122 122 94.6894 122 61C122 27.3106 94.6894 0 61 0C27.3106 0 0 27.3106 0 61C0 94.6894 27.3106 122 61 122Z" fill="#E0E8FB"/>
<path d="M61 109.572C87.8257 109.572 109.572 87.8255 109.572 60.9998C109.572 34.174 87.8257 12.4275 61 12.4275C34.1743 12.4275 12.4277 34.174 12.4277 60.9998C12.4277 87.8255 34.1743 109.572 61 109.572Z" fill="white"/>
<path d="M22.8932 68.9946C21.8515 68.9946 20.9067 68.8008 20.0345 68.4374C19.1624 68.074 18.4357 67.5411 17.83 66.8385C17.2244 66.136 16.7399 65.2881 16.4007 64.2948C16.0615 63.3016 15.892 62.163 15.892 60.9033C15.892 59.6435 16.0615 58.5049 16.4007 57.5359C16.7399 56.5669 17.2244 55.719 17.83 55.0407C18.4357 54.3624 19.1866 53.8536 20.0345 53.4902C20.9067 53.1269 21.8515 52.9573 22.8932 52.9573C23.9349 52.9573 24.8797 53.1269 25.7518 53.4902C26.6239 53.8536 27.3507 54.3624 27.9563 55.0407C28.5619 55.719 29.0465 56.5427 29.3856 57.5359C29.7248 58.5292 29.8944 59.6435 29.8944 60.879C29.8944 62.1388 29.7248 63.2774 29.3856 64.2706C29.0465 65.2639 28.5619 66.1118 27.9563 66.8143C27.3507 67.5168 26.5997 68.0498 25.7518 68.4132C24.8797 68.825 23.9349 68.9946 22.8932 68.9946ZM22.8932 65.9906C23.9591 65.9906 24.7828 65.5303 25.4126 64.634C26.0425 63.7377 26.3332 62.5022 26.3332 60.9275C26.3332 59.3771 26.0183 58.1658 25.4126 57.2937C24.807 56.4215 23.9591 55.9855 22.8932 55.9855C21.8272 55.9855 21.0036 56.4215 20.3737 57.2937C19.7681 58.1658 19.4531 59.3771 19.4531 60.9275C19.4531 62.5022 19.7681 63.7377 20.3737 64.634C21.0036 65.5303 21.8272 65.9906 22.8932 65.9906Z" fill="#C0D4F9"/>
<path d="M30.6211 68.7279L35.442 53.272H39.633L44.4539 68.7279H40.7716L39.8268 65.0456H35.1271L34.1823 68.7279H30.6211ZM36.2172 60.903L35.8296 62.3323H39.1243L38.7609 60.903C38.5429 60.1278 38.3249 59.3041 38.1311 58.432C37.913 57.5599 37.7192 56.7362 37.5254 55.9126H37.4285C37.2347 56.7362 37.0409 57.5841 36.8471 58.432C36.6291 59.3041 36.4353 60.1278 36.2172 60.903Z" fill="#C0D4F9"/>
<path d="M46.1497 68.7279V53.272H49.6382V59.2072H54.9678V53.272H58.4805V68.7279H54.9678V62.2839H49.6382V68.7279H46.1497Z" fill="#C0D4F9"/>
<path d="M62.1144 68.7281V53.2722H65.6029V59.3286H67.2987L69.3094 55.7674C69.6001 55.2587 69.915 54.7984 70.2057 54.4593C70.4964 54.1201 70.8114 53.8052 71.1505 53.5871C71.4897 53.3691 71.8288 53.1995 72.1922 53.1026C72.5556 53.0057 72.9674 52.9573 73.4035 52.9573C73.6215 52.9573 73.8396 52.9815 74.0818 53.0057C74.2998 53.0299 74.5179 53.1026 74.6875 53.1753L74.1303 56.3246C74.0091 56.2762 73.888 56.252 73.7427 56.252C73.6215 56.252 73.5246 56.2277 73.4277 56.2277C73.0886 56.2277 72.7736 56.3246 72.5314 56.5184C72.2891 56.7122 71.9984 57.0756 71.6835 57.6328L70.0604 60.4672L75.0751 68.6797H71.3928L67.2987 62.1145H65.6029V68.6797H62.1144V68.7281Z" fill="#C0D4F9"/>
<path d="M82.8999 68.9946C81.8582 68.9946 80.9134 68.8008 80.0413 68.4374C79.1692 68.074 78.4424 67.5411 77.8368 66.8385C77.2312 66.136 76.7466 65.2881 76.4075 64.2948C76.0683 63.3016 75.8987 62.163 75.8987 60.9033C75.8987 59.6435 76.0683 58.5049 76.4075 57.5359C76.7466 56.5427 77.2312 55.719 77.8368 55.0407C78.4424 54.3624 79.1934 53.8536 80.0413 53.4902C80.9134 53.1269 81.8582 52.9573 82.8999 52.9573C83.9416 52.9573 84.8864 53.1269 85.7586 53.4902C86.6307 53.8536 87.3575 54.3624 87.9631 55.0407C88.5687 55.719 89.0532 56.5427 89.3924 57.5359C89.7316 58.5292 89.9011 59.6435 89.9011 60.879C89.9011 62.1388 89.7316 63.2774 89.3924 64.2706C89.0532 65.2639 88.5687 66.1118 87.9631 66.8143C87.3575 67.5168 86.6065 68.0498 85.7586 68.4132C84.8864 68.825 83.9416 68.9946 82.8999 68.9946ZM82.8999 65.9906C83.9659 65.9906 84.7895 65.5303 85.4194 64.634C86.0493 63.7377 86.34 62.5022 86.34 60.9275C86.34 59.3771 86.025 58.1658 85.4194 57.2937C84.8138 56.4215 83.9659 55.9855 82.8999 55.9855C81.834 55.9855 81.0103 56.4215 80.3805 57.2937C79.7748 58.1658 79.4599 59.3771 79.4599 60.9275C79.4599 62.5022 79.7748 63.7377 80.3805 64.634C80.9861 65.5303 81.834 65.9906 82.8999 65.9906Z" fill="#C0D4F9"/>
<path d="M99.1068 68.9946C98.0651 68.9946 97.1203 68.8008 96.2482 68.4374C95.3761 68.074 94.6493 67.5411 94.0437 66.8385C93.4381 66.136 92.9535 65.2881 92.6144 64.2948C92.2752 63.3016 92.1057 62.163 92.1057 60.9033C92.1057 59.6435 92.2752 58.5049 92.6144 57.5359C92.9535 56.5669 93.4381 55.719 94.0437 55.0407C94.6493 54.3624 95.4003 53.8536 96.2482 53.4902C97.1203 53.1269 98.0651 52.9573 99.1068 52.9573C100.149 52.9573 101.093 53.1269 101.965 53.4902C102.838 53.8536 103.564 54.3624 104.17 55.0407C104.776 55.719 105.26 56.5427 105.599 57.5359C105.938 58.5292 106.108 59.6435 106.108 60.879C106.108 62.1388 105.938 63.2774 105.599 64.2706C105.26 65.2639 104.776 66.1118 104.17 66.8143C103.564 67.5168 102.813 68.0498 101.965 68.4132C101.093 68.825 100.149 68.9946 99.1068 68.9946ZM99.1068 65.9906C100.173 65.9906 100.996 65.5303 101.626 64.634C102.256 63.7377 102.547 62.5022 102.547 60.9275C102.547 59.3771 102.232 58.1658 101.626 57.2937C101.021 56.4215 100.173 55.9855 99.1068 55.9855C98.0409 55.9855 97.2172 56.4215 96.5874 57.2937C95.9817 58.1658 95.6668 59.3771 95.6668 60.9275C95.6668 62.5022 95.9817 63.7377 96.5874 64.634C97.193 65.5303 98.0409 65.9906 99.1068 65.9906Z" fill="#C0D4F9"/>
</svg>
