<svg width="14" height="14" viewBox="0 0 14 14" fill="none" xmlns="http://www.w3.org/2000/svg">
<path d="M7.0001 0.600098C7.84879 0.600098 8.66272 0.937239 9.26284 1.53736C9.86296 2.13747 10.2001 2.9514 10.2001 3.8001C10.2001 4.64879 9.86296 5.46272 9.26284 6.06284C8.66272 6.66296 7.84879 7.0001 7.0001 7.0001C6.1514 7.0001 5.33747 6.66296 4.73736 6.06284C4.13724 5.46272 3.8001 4.64879 3.8001 3.8001C3.8001 2.9514 4.13724 2.13747 4.73736 1.53736C5.33747 0.937239 6.1514 0.600098 7.0001 0.600098ZM7.0001 8.6001C10.5361 8.6001 13.4001 10.0321 13.4001 11.8001V13.4001H0.600098V11.8001C0.600098 10.0321 3.4641 8.6001 7.0001 8.6001Z" fill="#72839C"/>
</svg>
