<svg width="18" height="18" viewBox="0 0 18 18" fill="none" xmlns="http://www.w3.org/2000/svg">
<path d="M17.1474 4.04194C16.8182 4.38189 16.4986 4.71185 16.489 5.0418C16.4599 5.36176 16.7891 5.69171 17.0989 6.00167C17.5637 6.5016 18.0188 6.95153 17.9994 7.44147C17.98 7.9314 17.4862 8.44133 16.9924 8.94126L12.9937 13.0807L11.6188 11.6609L15.7337 7.42147L14.8042 6.4616L13.4294 7.87141L9.79849 4.12193L13.5165 0.292459C13.8941 -0.0974865 14.5235 -0.0974865 14.8817 0.292459L17.1474 2.63213C17.525 3.00208 17.525 3.65199 17.1474 4.04194ZM0 14.2505L9.25628 4.68185L12.8871 8.43133L3.63086 18H0V14.2505Z" fill="rgba(192,192,192,0.5)"/>
</svg>
