<svg width="15" height="23" viewBox="0 0 15 23" fill="none" xmlns="http://www.w3.org/2000/svg">
    <path d="M13.3824 11.1001L12.8682 10.7906L12.8628 10.8001L13.3824 11.1001ZM1.95092 11.1L2.47062 10.8L2.46497 10.7906L1.95092 11.1ZM7.66667 21L7.14705 21.3L7.66667 22.2L8.18628 21.3L7.66667 21ZM13.7333 7.66667C13.7333 8.81044 13.4174 9.87859 12.8683 10.7906L13.8964 11.4095C14.5548 10.3159 14.9333 9.03457 14.9333 7.66667H13.7333ZM7.66667 1.6C11.0172 1.6 13.7333 4.31614 13.7333 7.66667H14.9333C14.9333 3.6534 11.6799 0.4 7.66667 0.4V1.6ZM1.6 7.66667C1.6 4.31614 4.31614 1.6 7.66667 1.6V0.4C3.6534 0.4 0.4 3.6534 0.4 7.66667H1.6ZM2.46497 10.7906C1.91594 9.87855 1.6 8.81042 1.6 7.66667H0.4C0.4 9.03454 0.778523 10.3158 1.43687 11.4095L2.46497 10.7906ZM8.18628 20.7L2.47053 10.8L1.4313 11.4L7.14705 21.3L8.18628 20.7ZM12.8628 10.8001L7.14705 20.7L8.18628 21.3L13.902 11.4001L12.8628 10.8001Z" fill="#90999E"/>
    <circle cx="7.66666" cy="7.66672" r="1.90476" fill="#8F989D"/>
</svg>
