<?xml version="1.0" encoding="utf-8"?>
<!-- Generator: Adobe Illustrator 24.3.0, SVG Export Plug-In . SVG Version: 6.00 Build 0)  -->
<svg version="1.1" id="Layer_1" xmlns="http://www.w3.org/2000/svg" xmlns:xlink="http://www.w3.org/1999/xlink" x="0px" y="0px"
	 viewBox="0 0 425.2 425.2" style="enable-background:new 0 0 425.2 425.2;" xml:space="preserve">
<style type="text/css">
	.st0{fill-rule:evenodd;clip-rule:evenodd;fill:#72839C;}
</style>
<path class="st0" d="M44.6,212.6c36.9,61.3,99.6,98.9,168,98.9c68.4,0,131.2-37.6,168-98.9c-36.9-61.3-99.6-98.9-168-98.9
	C144.2,113.7,81.4,151.3,44.6,212.6L44.6,212.6z M252.5,146.5c22.4,13.5,37.3,38.1,37.3,66.1s-15,52.6-37.3,66.1
	c38.4-9.7,71.9-33.1,93.9-66.1C324.4,179.6,290.8,156.2,252.5,146.5L252.5,146.5z M172.7,278.7c-22.4-13.5-37.3-38.1-37.3-66.1
	s15-52.6,37.3-66.1c-38.4,9.7-71.9,33.1-93.9,66.1C100.8,245.6,134.4,269,172.7,278.7L172.7,278.7z M212.6,187.1
	c14.1,0,25.5,11.4,25.5,25.5c0,14.1-11.4,25.5-25.5,25.5c-14.1,0-25.5-11.4-25.5-25.5C187.1,198.5,198.5,187.1,212.6,187.1
	L212.6,187.1z"/>
</svg>
