<?xml version="1.0" encoding="utf-8"?>
<!-- Generator: Adobe Illustrator 24.3.0, SVG Export Plug-In . SVG Version: 6.00 Build 0)  -->
<svg version="1.1" id="Layer_1" xmlns="http://www.w3.org/2000/svg" xmlns:xlink="http://www.w3.org/1999/xlink" x="0px" y="0px"
	 viewBox="0 0 425.2 425.2" style="enable-background:new 0 0 425.2 425.2;" xml:space="preserve">
<style type="text/css">
	.st0{fill-rule:evenodd;clip-rule:evenodd;fill:#72839C;}
</style>
<path class="st0" d="M200,242.4c-13.9-1-27.3-3.7-40-7.9l-14.9,36l-23.3-9.7l14.9-36c-12.2-6.2-23.6-13.8-33.9-22.7l-27.6,27.6
	l-17.8-17.8L85,184.3c-7.4-8.6-14-18-19.5-28l0.1,0l22.6-12.5c24.3,43.7,71,73.2,124.5,73.2c53.5,0,100.2-29.6,124.5-73.2l22.6,12.5
	l0.1,0c-5.6,10-12.1,19.4-19.5,28l27.6,27.6L350,229.8l-27.6-27.6c-10.3,8.9-21.6,16.5-33.9,22.7l14.9,36l-23.3,9.7l-14.9-36
	c-12.7,4.2-26.1,6.9-40,7.9v39H200V242.4L200,242.4z"/>
</svg>
