<svg width="20" height="20" viewBox="0 0 20 20" fill="none" xmlns="http://www.w3.org/2000/svg">
<g clip-path="url(#clip0_1666_744)">
<path d="M15.7632 16.7292H6.1955C5.15704 16.7292 4.31242 15.8846 4.31242 14.8462V2.88308C4.29858 1.84462 5.14319 1 6.1955 1H15.7632C16.8017 1 17.6463 1.84462 17.6463 2.88308V14.8462C17.6463 15.8846 16.8017 16.7292 15.7632 16.7292ZM6.1955 2.38462C5.91858 2.38462 5.69704 2.60615 5.69704 2.88308V14.8462C5.69704 15.1231 5.91858 15.3446 6.1955 15.3446H15.7632C16.0401 15.3446 16.2617 15.1231 16.2617 14.8462V2.88308C16.2617 2.60615 16.0401 2.38462 15.7632 2.38462H6.1955Z" fill="#36f"/>
<path d="M13.4646 10.7201H8.47994C7.74609 10.7201 7.16455 10.2077 7.16455 9.55698V4.83544C7.16455 4.18467 7.74609 3.67236 8.47994 3.67236H13.4646C14.1984 3.67236 14.7799 4.18467 14.7799 4.83544V9.55698C14.7799 10.2077 14.2122 10.7201 13.4646 10.7201ZM8.54917 9.33544H13.3953V5.05698H8.54917V9.33544Z" fill="#36f"/>
<path d="M13.4508 18.9997H3.88308C2.84462 18.9997 2 18.1551 2 17.1167V5.15358C2 4.11512 2.84462 3.27051 3.88308 3.27051H4.54769C4.93538 3.27051 5.24 3.57512 5.24 3.96282C5.24 4.35051 4.93538 4.65512 4.54769 4.65512H3.88308C3.60615 4.65512 3.38462 4.87666 3.38462 5.15358V17.1167C3.38462 17.3936 3.60615 17.6151 3.88308 17.6151H13.4508C13.7277 17.6151 13.9492 17.3936 13.9492 17.1167V16.3136C13.9492 15.9259 14.2538 15.6213 14.6415 15.6213C15.0292 15.6213 15.3338 15.9259 15.3338 16.3136V17.1167C15.3477 18.1551 14.5031 18.9997 13.4508 18.9997Z" fill="#36f"/>
<path d="M11.2353 13.3509H7.85686C7.46917 13.3509 7.16455 13.0463 7.16455 12.6586C7.16455 12.2709 7.46917 11.9663 7.85686 11.9663H11.2353C11.623 11.9663 11.9276 12.2709 11.9276 12.6586C11.9276 13.0463 11.6092 13.3509 11.2353 13.3509Z" fill="#36f"/>
</g>
<defs>
<clipPath id="clip0_1666_744">
<rect width="15.6462" height="18" fill="white" transform="translate(2 1)"/>
</clipPath>
</defs>
</svg>
