<svg width="20" height="20" viewBox="0 0 20 20" fill="none" xmlns="http://www.w3.org/2000/svg">
<path d="M18.1 8.60603H1.9C1.396 8.60603 1 8.19203 1 7.70603C1 7.22003 1.396 6.80603 1.9 6.80603H18.1C18.604 6.80603 19 7.20203 19 7.70603C19 8.21003 18.604 8.60603 18.1 8.60603Z" fill="#72839C"/>
<path d="M18.1 13.394H1.9C1.396 13.394 1 12.998 1 12.494C1 11.99 1.396 11.594 1.9 11.594H18.1C18.604 11.594 19 11.99 19 12.494C19 12.998 18.604 13.394 18.1 13.394Z" fill="#72839C"/>
<path d="M18.1 3.8H1.9C1.396 3.8 1 3.404 1 2.9C1 2.396 1.396 2 1.9 2H18.1C18.604 2 19 2.396 19 2.9C19 3.404 18.604 3.8 18.1 3.8Z" fill="#72839C"/>
<path d="M18.1 18.2H1.9C1.396 18.2 1 17.804 1 17.3C1 16.796 1.396 16.4 1.9 16.4H18.1C18.604 16.4 19 16.796 19 17.3C19 17.804 18.604 18.2 18.1 18.2Z" fill="#72839C"/>
</svg>
