<svg width="122" height="122" viewBox="0 0 122 122" fill="none" xmlns="http://www.w3.org/2000/svg">
<path d="M61 122C94.6894 122 122 94.6894 122 61C122 27.3106 94.6894 0 61 0C27.3106 0 0 27.3106 0 61C0 94.6894 27.3106 122 61 122Z" fill="#E0E8FB"/>
<path d="M61 109.572C87.8257 109.572 109.572 87.8255 109.572 60.9998C109.572 34.174 87.8257 12.4275 61 12.4275C34.1743 12.4275 12.4277 34.174 12.4277 60.9998C12.4277 87.8255 34.1743 109.572 61 109.572Z" fill="white"/>
<path d="M24.6374 70.5689V51.4065H31.2268C32.2927 51.4065 33.2617 51.5034 34.1823 51.7214C35.1029 51.9395 35.9023 52.2786 36.5806 52.7389C37.2589 53.1992 37.8161 53.8533 38.2037 54.6527C38.5914 55.4522 38.8094 56.4212 38.8094 57.584C38.8094 58.6984 38.6156 59.6674 38.2037 60.4911C37.7919 61.3148 37.2589 61.9931 36.5806 62.526C35.9023 63.059 35.1029 63.4466 34.2065 63.7131C33.3102 63.9553 32.3412 64.1007 31.3237 64.1007H28.9496V70.5931H24.6374V70.5689ZM28.9738 60.6364H31.0814C33.4313 60.6364 34.6184 59.619 34.6184 57.584C34.6184 56.5908 34.3034 55.8882 33.6736 55.4764C33.0437 55.0646 32.1473 54.8708 30.9603 54.8708H28.9738V60.6364Z" fill="#C0D4F9"/>
<path d="M49.2264 70.9325V68.3404C46.7311 68.195 44.7931 67.5167 43.3638 66.2812C41.9345 65.0457 41.2319 63.253 41.2319 60.9274C41.2319 58.6259 41.9345 56.8575 43.3638 55.6462C44.7931 54.4349 46.7554 53.7566 49.2264 53.6113V51.0918H52.9571V53.6113C55.4766 53.7566 57.4388 54.4349 58.8682 55.6462C60.2975 56.8333 61 58.6017 61 60.9274C61 63.2773 60.2975 65.07 58.8682 66.2812C57.4388 67.4925 55.4766 68.195 52.9571 68.3404V70.9325H49.2264ZM45.2776 60.9032C45.2776 62.2598 45.641 63.2773 46.3435 63.9556C47.0461 64.6339 48.0151 65.0457 49.2506 65.1426V56.809C48.0151 56.9059 47.0461 57.2935 46.3435 57.9476C45.641 58.6017 45.2776 59.5707 45.2776 60.9032ZM56.9543 60.9032C56.9543 59.5707 56.5909 58.5775 55.8884 57.9234C55.1616 57.2693 54.1926 56.8817 52.9571 56.7848V65.1184C54.1926 65.0215 55.1616 64.6339 55.8884 63.9313C56.5909 63.2773 56.9543 62.2598 56.9543 60.9032Z" fill="#C0D4F9"/>
<path d="M63.5437 70.9324C63.035 70.9324 62.6231 70.9082 62.284 70.884C61.9448 70.8598 61.6299 70.7629 61.3149 70.6417L62.0659 66.7656C62.2113 66.8141 62.3324 66.8383 62.4535 66.8625C62.5747 66.8868 62.72 66.8868 62.8896 66.8868C63.1319 66.8868 63.3499 66.8383 63.5679 66.7656C63.786 66.6687 63.9798 66.4749 64.1736 66.16C64.3674 65.8451 64.5612 65.3848 64.7792 64.7791C64.973 64.1735 65.191 63.3741 65.4091 62.3324C65.7967 60.5397 66.1601 58.747 66.4992 56.9543C66.8384 55.1616 67.1533 53.3204 67.4925 51.4551H78.6605V70.6175H74.3241V55.1131H70.8356C70.5933 56.4698 70.3753 57.778 70.1331 59.0135C69.8908 60.2732 69.6728 61.5329 69.4305 62.7926C69.1156 64.3915 68.7764 65.7239 68.413 66.7899C68.0497 67.8558 67.6378 68.6795 67.1533 69.3093C66.693 69.915 66.1601 70.351 65.5786 70.5933C64.973 70.8113 64.2947 70.9324 63.5437 70.9324Z" fill="#C0D4F9"/>
<path d="M91.1366 70.9325C89.9254 70.9325 88.7868 70.7145 87.6966 70.3027C86.6065 69.8908 85.6859 69.261 84.8622 68.4373C84.0628 67.6136 83.4087 66.5962 82.9484 65.3607C82.4881 64.1494 82.2458 62.7201 82.2458 61.1212C82.2458 59.5465 82.4881 58.1172 82.9726 56.8817C83.4571 55.6462 84.1112 54.5803 84.9349 53.7324C85.7586 52.8603 86.7276 52.2062 87.8177 51.7701C88.9079 51.3098 90.0707 51.0918 91.282 51.0918C92.5175 51.0918 93.6319 51.3341 94.6009 51.8428C95.5699 52.3515 96.3936 52.9329 97.0477 53.587L94.7463 56.3487C94.2617 55.8885 93.753 55.5251 93.1958 55.2586C92.6386 54.9921 92.0572 54.8225 91.3547 54.8225C90.7006 54.8225 90.0949 54.9679 89.5135 55.2586C88.9321 55.5493 88.4476 55.9611 88.0115 56.4699C87.5997 57.0028 87.2605 57.6569 87.0183 58.4079C86.776 59.1831 86.6549 60.031 86.6549 61.0001C86.6549 62.9866 87.0667 64.5128 87.9146 65.6029C88.7625 66.6931 89.8769 67.226 91.282 67.226C92.0572 67.226 92.7598 67.0564 93.3896 66.7173C94.0195 66.3781 94.5525 65.9421 95.0127 65.4333L97.3142 68.1466C95.7395 69.9877 93.6803 70.9325 91.1366 70.9325Z" fill="#C0D4F9"/>
</svg>
