<svg width="122" height="122" viewBox="0 0 122 122" fill="none" xmlns="http://www.w3.org/2000/svg">
<path d="M61 122C94.6894 122 122 94.6894 122 61C122 27.3106 94.6894 0 61 0C27.3106 0 0 27.3106 0 61C0 94.6894 27.3106 122 61 122Z" fill="#E0E8FB"/>
<path d="M61 109.572C87.8257 109.572 109.572 87.8255 109.572 60.9998C109.572 34.174 87.8257 12.4275 61 12.4275C34.1743 12.4275 12.4277 34.174 12.4277 60.9998C12.4277 87.8255 34.1743 109.572 61 109.572Z" fill="white"/>
<path d="M23.6442 70.6417V51.3582H30.2577C31.3237 51.3582 32.3169 51.4551 33.2375 51.6731C34.1581 51.8911 34.9817 52.2303 35.66 52.7148C36.3384 53.1993 36.8956 53.8292 37.3074 54.6286C37.7192 55.428 37.913 56.3971 37.913 57.5599C37.913 58.6743 37.7192 59.6675 37.3074 60.4912C36.8956 61.3149 36.3626 61.9932 35.66 62.5261C34.9575 63.0591 34.1823 63.4467 33.2617 63.7132C32.3411 63.9797 31.3963 64.1008 30.3546 64.1008H27.9563V70.6417H23.6442ZM27.9805 60.6366H30.1124C32.4865 60.6366 33.6493 59.6191 33.6493 57.5599C33.6493 56.5424 33.3344 55.8399 32.7045 55.428C32.0747 55.0162 31.1783 54.7982 29.9913 54.7982H27.9805V60.6366Z" fill="#C0D4F9"/>
<path d="M48.3785 70.981V68.3888C45.8833 68.2435 43.8968 67.5652 42.4675 66.3054C41.0381 65.0457 40.3114 63.253 40.3114 60.9031C40.3114 58.5775 41.0381 56.809 42.4675 55.5977C43.8968 54.3865 45.8833 53.7081 48.3785 53.5386V50.9949H52.1335V53.5386C54.6529 53.7081 56.6394 54.3865 58.0687 55.5735C59.498 56.7848 60.2248 58.5533 60.2248 60.9031C60.2248 63.2772 59.498 65.0699 58.0687 66.3054C56.6394 67.5409 54.6529 68.2435 52.1335 68.3888V70.981H48.3785ZM44.4055 60.9031C44.4055 62.2598 44.7689 63.2772 45.4714 63.9798C46.174 64.6823 47.1672 65.0699 48.4027 65.1668V56.7606C47.1672 56.8575 46.174 57.2451 45.4714 57.8992C44.7447 58.5775 44.4055 59.5707 44.4055 60.9031ZM56.1549 60.9031C56.1549 59.5707 55.7915 58.5533 55.0647 57.8992C54.338 57.2451 53.369 56.8575 52.1335 56.7606V65.1668C53.369 65.0699 54.3622 64.6823 55.0647 63.9798C55.8157 63.3015 56.1549 62.2598 56.1549 60.9031Z" fill="#C0D4F9"/>
<path d="M71.6835 70.981C70.3753 70.981 69.1883 70.7387 68.1223 70.2784C67.0564 69.8181 66.1358 69.1398 65.3606 68.2919C64.5854 67.4198 64.004 66.3781 63.5679 65.1184C63.1561 63.8829 62.938 62.4778 62.938 60.8789C62.938 59.3042 63.1561 57.8992 63.5679 56.6637C63.9797 55.4282 64.5854 54.3865 65.3606 53.5628C66.1358 52.7391 67.0564 52.085 68.1223 51.649C69.1883 51.2129 70.3753 50.9949 71.6835 50.9949C72.9917 50.9949 74.1787 51.2129 75.2446 51.649C76.3106 52.085 77.2311 52.7391 78.0064 53.587C78.7816 54.4349 79.363 55.4766 79.7991 56.7121C80.2109 57.9476 80.4289 59.3285 80.4289 60.9031C80.4289 62.4778 80.2109 63.8829 79.7991 65.1426C79.3872 66.3781 78.7816 67.444 78.0064 68.3162C77.2311 69.1883 76.3106 69.8424 75.2446 70.3027C74.1787 70.7629 72.9917 70.981 71.6835 70.981ZM71.6835 67.226C72.9917 67.226 74.0576 66.6688 74.8086 65.5302C75.5838 64.3916 75.9714 62.8654 75.9714 60.9031C75.9714 58.9651 75.5838 57.4631 74.8086 56.373C74.0334 55.2828 72.9917 54.7498 71.6835 54.7498C70.3511 54.7498 69.3094 55.2828 68.5584 56.373C67.8074 57.4631 67.3956 58.9651 67.3956 60.9031C67.3956 62.8412 67.7832 64.3916 68.5584 65.5302C69.3094 66.6688 70.3753 67.226 71.6835 67.226Z" fill="#C0D4F9"/>
<path d="M92.1057 70.9809C90.8944 70.9809 89.7316 70.7629 88.6414 70.351C87.5513 69.9392 86.6065 69.3093 85.7828 68.4857C84.9591 67.662 84.3293 66.6203 83.8448 65.3848C83.3602 64.1493 83.1422 62.72 83.1422 61.1211C83.1422 59.5222 83.3845 58.0929 83.8932 56.8574C84.3777 55.5977 85.056 54.556 85.8797 53.6839C86.7034 52.8117 87.6724 52.1576 88.7868 51.6974C89.9012 51.2371 91.064 51.019 92.2753 51.019C93.5108 51.019 94.6251 51.2613 95.6184 51.77C96.6116 52.2788 97.4111 52.8602 98.0652 53.5385L95.7637 56.3244C95.2792 55.8642 94.7463 55.5008 94.2133 55.2101C93.6803 54.9194 93.0505 54.774 92.3722 54.774C91.7181 54.774 91.1124 54.9194 90.531 55.2101C89.9496 55.5008 89.4409 55.9126 89.029 56.4456C88.6172 56.9785 88.278 57.6326 88.0116 58.4078C87.7451 59.1831 87.6482 60.0552 87.6482 61C87.6482 62.9865 88.06 64.5369 88.9079 65.6271C89.7558 66.7172 90.8944 67.2744 92.2995 67.2744C93.0989 67.2744 93.8015 67.1048 94.4071 66.7657C95.037 66.4265 95.5699 65.9904 96.0544 65.4817L98.3559 68.195C96.7328 70.0361 94.6494 70.9809 92.1057 70.9809Z" fill="#C0D4F9"/>
</svg>
