<svg width="122" height="122" viewBox="0 0 122 122" fill="none" xmlns="http://www.w3.org/2000/svg">
<path d="M61 122C94.6894 122 122 94.6894 122 61C122 27.3106 94.6894 0 61 0C27.3106 0 0 27.3106 0 61C0 94.6894 27.3106 122 61 122Z" fill="#E0E8FB"/>
<path d="M61 109.572C87.8257 109.572 109.572 87.8256 109.572 60.9999C109.572 34.1742 87.8257 12.4276 61 12.4276C34.1743 12.4276 12.4277 34.1742 12.4277 60.9999C12.4277 87.8256 34.1743 109.572 61 109.572Z" fill="white"/>
<path d="M25.9214 70.5692V51.4067H32.5107C33.5766 51.4067 34.5457 51.5036 35.4662 51.7217C36.3868 51.9397 37.1863 52.2789 37.8646 52.7391C38.5429 53.2237 39.1001 53.8535 39.4877 54.653C39.8995 55.4524 40.0933 56.4214 40.0933 57.5843C40.0933 58.6986 39.8995 59.6677 39.4877 60.4913C39.0758 61.315 38.5429 61.9933 37.8646 62.5263C37.1863 63.0592 36.3868 63.4468 35.4905 63.7133C34.5941 63.9556 33.6251 64.1009 32.6076 64.1009H30.2335V70.5934H25.9214V70.5692ZM30.2335 60.6367H32.3411C34.691 60.6367 35.8781 59.6192 35.8781 57.5843C35.8781 56.591 35.5631 55.8885 34.9333 55.4766C34.3034 55.0648 33.4071 54.871 32.22 54.871H30.2335V60.6367Z" fill="#C0D4F9"/>
<path d="M50.5103 70.9327V68.3405C48.0151 68.1952 46.077 67.5169 44.6477 66.2814C43.2184 65.0458 42.4916 63.2532 42.4916 60.9275C42.4916 58.6261 43.2184 56.8576 44.6477 55.6463C46.077 54.435 48.0393 53.7567 50.5103 53.6114V51.0919H54.241V53.6114C56.7363 53.7567 58.7228 54.435 60.1521 55.6463C61.5814 56.8334 62.3082 58.6018 62.3082 60.9275C62.3082 63.2774 61.5814 65.0701 60.1521 66.2814C58.7228 67.4926 56.7605 68.1952 54.241 68.3405V70.9327H50.5103ZM46.5373 60.9033C46.5373 62.2599 46.9007 63.2774 47.6032 63.9557C48.3058 64.634 49.2748 65.0458 50.5103 65.1427V56.8092C49.2748 56.9061 48.3058 57.2937 47.6032 57.9478C46.9007 58.6018 46.5373 59.5709 46.5373 60.9033ZM58.2383 60.9033C58.2383 59.5709 57.8749 58.5776 57.1723 57.9235C56.4456 57.2694 55.4765 56.8818 54.241 56.7849V65.1185C55.4765 65.0216 56.4456 64.634 57.1723 63.9315C57.8749 63.2774 58.2383 62.2599 58.2383 60.9033Z" fill="#C0D4F9"/>
<path d="M73.8638 70.9327C72.6525 70.9327 71.5139 70.7146 70.4237 70.3028C69.3578 69.891 68.413 69.2611 67.5894 68.4374C66.7657 67.6138 66.1358 66.5963 65.6755 65.3608C65.2152 64.1495 64.973 62.7202 64.973 61.1213C64.973 59.5466 65.2153 58.1173 65.6998 56.8818C66.1843 55.6463 66.8384 54.5804 67.662 53.7325C68.4857 52.8604 69.4547 52.2063 70.5449 51.7702C71.635 51.31 72.7979 51.0919 74.0091 51.0919C75.2446 51.0919 76.359 51.3342 77.328 51.8429C78.2971 52.3516 79.1207 52.9331 79.7748 53.5872L77.4734 56.3489C76.9889 55.8886 76.4801 55.5252 75.923 55.2587C75.39 54.968 74.7601 54.8227 74.0818 54.8227C73.4277 54.8227 72.8221 54.968 72.2407 55.2587C71.6593 55.5494 71.1747 55.9613 70.7387 56.47C70.3268 57.003 69.9877 57.657 69.7454 58.408C69.5032 59.1833 69.382 60.0312 69.382 61.0002C69.382 62.9867 69.7939 64.5129 70.6418 65.603C71.4897 66.6932 72.604 67.2261 74.0091 67.2261C74.7844 67.2261 75.4869 67.0566 76.1168 66.7174C76.7224 66.3783 77.2796 65.9422 77.7399 65.4335L80.0413 68.1467C78.4424 69.9879 76.3832 70.9327 73.8638 70.9327Z" fill="#C0D4F9"/>
<path d="M89.8769 70.9327C88.6656 70.9327 87.527 70.7146 86.4368 70.3028C85.3709 69.891 84.4261 69.2611 83.6024 68.4374C82.7788 67.6138 82.1489 66.5963 81.6886 65.3608C81.2283 64.1495 80.9861 62.7202 80.9861 61.1213C80.9861 59.5466 81.2283 58.1173 81.7128 56.8818C82.1974 55.6463 82.8515 54.5804 83.6751 53.7325C84.4988 52.8604 85.4678 52.2063 86.558 51.7702C87.6481 51.31 88.8109 51.0919 90.0222 51.0919C91.2577 51.0919 92.3721 51.3342 93.3411 51.8429C94.3102 52.3516 95.1338 52.9331 95.7879 53.5872L93.4865 56.3489C93.002 55.8886 92.4932 55.5252 91.9361 55.2587C91.4031 54.968 90.7732 54.8227 90.0949 54.8227C89.4408 54.8227 88.8352 54.968 88.2538 55.2587C87.6723 55.5494 87.1878 55.9613 86.7518 56.47C86.3399 57.003 86.0008 57.657 85.7585 58.408C85.5163 59.1833 85.3951 60.0312 85.3951 61.0002C85.3951 62.9867 85.807 64.5129 86.6549 65.603C87.5028 66.6932 88.6171 67.2261 90.0222 67.2261C90.7974 67.2261 91.5 67.0566 92.1299 66.7174C92.7355 66.3783 93.2927 65.9422 93.753 65.4335L96.0544 68.1467C94.4555 69.9879 92.3963 70.9327 89.8769 70.9327Z" fill="#C0D4F9"/>
</svg>
