<svg width="122" height="121" viewBox="0 0 122 121" fill="none" xmlns="http://www.w3.org/2000/svg">
<path d="M59.6862 100.834C59.2059 101.234 58.9658 100.967 58.8591 100.647C58.8057 100.513 58.779 100.353 58.779 100.22C58.7257 99.6331 58.6723 99.0463 58.6456 98.4594C58.6456 98.1126 58.699 97.7658 58.7257 97.3924C58.8057 96.8856 58.8858 96.352 58.9658 95.8452C59.0725 95.205 59.2059 94.5915 59.286 93.9513C59.4461 92.8042 59.6062 91.6305 59.7663 90.4834C59.8196 90.1633 59.8196 89.8432 60.0864 89.6031C60.4867 89.6565 60.7802 89.9233 60.8068 90.3501C60.8335 90.5901 60.8068 90.8569 60.7535 91.097C60.6734 91.5238 60.6734 91.9239 60.8068 92.3241C60.8602 92.4308 60.8869 92.5641 60.9402 92.6975C61.2871 93.5511 61.0737 94.298 60.5667 95.0183C60.3266 95.3384 60.1131 95.6852 60.0331 96.0853C60.0331 96.112 59.7929 100.727 59.6862 100.834Z" fill="#C0D4F9"/>
<path d="M59.6062 85.255C59.6862 85.0416 59.7396 84.8282 59.873 84.6415C60.2198 84.0546 60.2999 83.3878 60.3266 82.7209C60.3533 82.4274 60.1932 82.1874 59.9263 82.0807C59.8196 82.0273 59.7396 82.0006 59.6329 81.974C58.9925 81.7872 58.8858 81.4405 59.2326 80.8803C59.6595 80.2134 60.0864 79.5465 60.54 78.8796C60.6734 78.6662 61.1537 78.4528 61.1537 78.5595C61.1537 78.9863 61.3405 79.2531 61.7407 79.4665C62.1142 79.6532 62.1943 79.8399 62.1142 80.2401C62.0875 80.3468 62.0875 80.4535 62.0609 80.5602C61.794 81.4671 61.5806 82.3741 61.2871 83.2544C61.127 83.7612 60.8869 84.2147 60.6201 84.6682C60.4867 84.9083 60.2465 85.0683 60.0331 85.255C59.953 85.3084 59.8196 85.3084 59.7129 85.3084C59.6329 85.3084 59.6329 85.2817 59.6062 85.255Z" fill="#C0D4F9"/>
<path d="M63.475 88.0826C63.4216 88.2693 63.3683 88.5094 63.1281 88.5361C62.888 88.5894 62.7012 88.4027 62.6212 88.216C62.4878 87.8692 62.3544 87.5224 62.301 87.1756C62.2477 86.8022 62.2743 86.4287 62.2477 86.0286C62.2477 85.9485 62.2477 85.8685 62.2743 85.7885C62.301 85.5484 62.3811 85.335 62.6212 85.255C62.808 85.2016 63.0748 85.335 63.2082 85.5751C63.2882 85.7351 63.3949 85.9219 63.4216 86.1086C63.5017 86.7221 63.475 88.0559 63.475 88.0826Z" fill="#C0D4F9"/>
<path d="M78.1231 36.1188C78.2031 36.2521 78.3098 36.3588 78.3632 36.4655C78.4966 36.7056 78.63 36.9724 78.7367 37.2391C78.9235 37.6926 79.1903 38.0927 79.5372 38.4662C79.8307 38.7863 80.0174 39.1331 79.9374 39.6133C79.8574 40.0401 79.6973 39.72 79.2704 39.6666C78.7634 39.5866 77.8829 38.7596 77.4294 38.9464C76.7623 39.2398 76.2821 39.3465 75.5883 39.5866C74.7079 39.88 74.0675 40.5202 73.1603 40.3868C72.1998 40.2535 71.8796 41.4272 71.6128 42.3608C71.5861 42.4675 71.5594 42.6009 71.5061 42.7076C71.266 43.4012 70.5456 43.5612 70.0119 43.0277C69.6918 42.7076 69.585 42.2541 69.8518 41.8807C70.2521 41.2938 70.4122 40.6269 70.4655 39.9334C70.4922 39.5866 70.7057 39.3732 71.0258 39.2665C71.5328 39.0797 71.6395 38.893 71.4527 38.4129C71.3193 38.0127 71.1059 37.6393 70.9458 37.2391C70.8124 36.919 70.679 36.5989 70.6256 36.2521C70.5989 36.0921 70.679 35.8787 70.8124 35.7453C70.9725 35.5852 71.1859 35.6919 71.3193 35.8253C71.6662 36.0921 72.013 36.3322 72.3332 36.6256C73.107 37.3192 73.4805 37.3192 74.2009 36.5722C74.5478 36.2255 74.8946 35.8787 75.2948 35.6119C75.535 35.4252 75.8818 35.3185 76.1753 35.2651C76.5222 35.2118 76.789 35.3452 76.9491 35.6919C77.0291 35.852 77.1359 36.0121 77.2426 36.1454C77.4827 36.4655 77.6161 36.4655 77.9363 36.2255C77.9897 36.1721 78.043 36.1454 78.1231 36.1188Z" fill="#C0D4F9"/>
<path d="M41.7563 51.3239C41.7297 51.4572 41.7297 51.6173 41.6763 51.7507C41.4095 52.4442 40.9826 53.0844 40.449 53.5913C39.7552 54.2848 39.4351 55.0851 39.3017 56.0187C39.275 56.2321 39.2216 56.4189 39.1949 56.6056C39.1416 57.1925 38.7947 57.5392 38.2611 57.7527C38.0743 57.806 37.8875 57.9127 37.7008 57.9927C37.3272 58.1795 37.0337 58.4462 36.847 58.8197C36.3667 59.7266 35.673 60.4736 34.8725 61.1138C34.7125 61.2471 34.5257 61.4072 34.2589 61.2738C34.1522 60.9004 34.2589 60.5536 34.4723 60.2335C34.7925 59.7266 35.166 59.2732 35.4862 58.7663C36.1799 57.6193 37.1938 56.7657 38.1544 55.8587C38.9281 55.1118 39.6218 54.2848 39.9954 53.2178C40.2355 52.4976 40.7691 51.9374 41.3561 51.4572C41.4629 51.3772 41.5963 51.3505 41.703 51.2972C41.703 51.2705 41.7297 51.2972 41.7563 51.3239Z" fill="#C0D4F9"/>
<path d="M60.3533 40.7602C60.0865 40.7068 59.873 40.7068 59.6862 40.6534C59.2593 40.5467 59.0459 40.2266 59.0992 39.7998C59.1526 39.3997 59.3127 39.0529 59.6596 38.8395C59.9264 38.6528 60.1665 38.7061 60.2732 38.9996C60.4333 39.4531 60.7268 39.7198 61.1003 39.9332C61.1804 39.9599 61.2338 40.0399 61.2871 40.0933C61.5272 40.36 61.4205 40.7068 61.047 40.7602C60.8069 40.8135 60.5667 40.7602 60.3533 40.7602Z" fill="#C0D4F9"/>
<path d="M66.2232 45.0284C66.3566 44.6016 66.5967 44.4148 66.8635 44.2548C67.4505 43.908 68.0909 43.6946 68.7846 43.6413C68.8646 43.6413 68.9714 43.6146 69.0247 43.6413C69.1581 43.7213 69.3449 43.8013 69.3716 43.9347C69.3983 44.0681 69.3449 44.2548 69.2382 44.3882C69.1314 44.4949 68.9714 44.6016 68.8113 44.6282C68.1442 44.815 67.4505 44.9483 66.7568 45.0817C66.6234 45.1084 66.4366 45.0551 66.2232 45.0284Z" fill="#C0D4F9"/>
<path d="M52.7491 45.1084C53.2827 45.1617 53.4161 45.4819 53.1493 45.8553C53.0426 46.0154 52.8558 46.1754 52.6957 46.2288C52.2688 46.3621 51.8152 46.5222 51.3616 46.5756C50.9081 46.6289 50.7213 46.3088 50.9614 45.9087C51.0681 45.7219 51.2282 45.5619 51.3883 45.4552C51.8152 45.1351 52.3222 45.1351 52.7491 45.1084Z" fill="#C0D4F9"/>
<path d="M50.5078 39.4265C50.5078 39.4265 51.0148 39.133 51.0148 39.3998C51.0148 39.6399 51.0148 39.7199 51.2016 40.0667C51.3883 40.4135 51.415 40.6535 51.335 40.7869C51.2549 40.9203 51.0681 40.8936 50.9081 40.7869C50.748 40.6802 50.5879 40.6535 50.4545 40.4401C50.3477 40.2267 50.241 40.0667 50.241 39.8799C50.241 39.7199 50.3211 39.6132 50.5078 39.4265ZM27.295 66.6621C26.9215 66.7955 26.6814 67.0356 26.4946 67.3824C26.3879 67.5691 26.3078 67.8092 26.0143 67.8092C25.961 67.7825 25.9343 67.7558 25.9343 67.7291C25.6408 67.1156 25.9877 66.0486 26.6013 65.7552C26.8148 65.6485 27.0016 65.5418 27.215 65.4617C27.5619 65.355 27.802 65.5151 27.802 65.8885C27.802 66.3153 27.6686 66.5287 27.295 66.6621ZM95.7594 43.241C92.7178 39.3731 90.9301 37.5058 90.6366 36.8656C90.4498 36.4922 88.6622 34.9983 88.262 34.8383C87.8884 34.6782 87.3281 34.0647 86.9813 33.8246C86.3676 33.3978 85.7539 32.9443 85.1936 32.4375C84.66 31.9573 84.153 31.4505 83.8062 30.8103C83.3793 29.9567 82.7656 29.2898 82.0986 28.6229C81.4315 27.9827 80.6044 27.7693 79.7773 27.4758C79.6706 27.4492 79.5372 27.4492 79.4304 27.4492C78.9769 27.5292 78.5233 27.5825 78.0964 27.7159C77.376 27.956 76.6823 28.0894 75.9352 28.0894C74.8946 28.0627 73.9074 27.9026 73.0536 27.2891C72.0664 26.5689 70.9724 26.3021 69.7985 26.3555C69.1581 26.3821 68.5178 26.5155 67.8774 26.5956C67.2371 26.6756 66.6234 26.7289 66.0097 26.8356C65.5561 26.889 65.1025 26.969 64.649 27.0757C63.9552 27.2091 63.2348 27.2624 62.5945 27.5025C61.6873 27.8226 60.8602 28.2761 59.9797 28.6762C59.6329 28.8363 59.3127 29.023 58.9925 29.1831C58.1654 29.6099 57.3116 30.0367 56.4845 30.4635C55.8708 30.7569 55.2838 31.1304 54.6434 31.3438C53.1493 31.8773 51.7085 32.5175 50.4278 33.4778C50.0543 33.7713 49.654 34.0914 49.3339 34.4381C48.9336 34.8649 48.6135 35.3451 48.2399 35.7986C47.7597 36.3588 47.2794 36.919 46.7991 37.4791C46.1855 38.2261 45.5184 38.9196 44.9848 39.7199C44.5312 40.3868 42.29 43.1343 41.6763 43.9079C41.4362 44.228 41.1427 44.5215 40.9025 44.8416C40.3956 45.5351 39.1149 47.2424 38.9548 47.4291C38.6613 47.8026 38.3411 48.1493 38.0476 48.5228C37.5674 49.1363 35.3528 51.6972 34.7392 52.3907C33.9654 53.2177 33.2717 54.098 32.4979 54.9516C31.6708 55.8586 30.8704 56.7922 30.23 57.8325C29.7497 58.6061 29.2428 59.353 28.8159 60.1533C28.3089 61.1136 27.7486 62.0739 26.9749 62.8742C26.3078 63.5944 25.7208 64.3414 25.2406 65.195C24.7603 66.0753 24.5469 67.0089 24.4668 67.9959C24.4401 68.3694 24.5202 68.7695 24.867 68.9829C25.1605 69.1963 25.4807 69.383 25.8276 69.5164C27.3484 70.0232 28.8692 69.9699 30.4168 69.6498C31.7242 69.383 33.0582 69.2763 34.3923 69.5698C35.593 69.8365 36.7403 69.6231 37.7275 68.8495C37.9943 68.6628 40.6357 66.7955 41.5429 65.8619C41.9965 65.4084 42.4767 64.9816 42.9837 64.5814C43.464 64.1813 43.9976 63.8612 44.4512 63.4611C45.6785 62.4741 46.8792 61.4604 48.0798 60.4467C49.3072 59.3797 52.0554 57.4057 52.1087 57.3791C53.4161 56.6588 54.6701 55.8319 56.0309 55.245C57.8719 54.4448 59.6062 53.7512 61.9808 54.4448C64.3555 55.1383 65.0759 59.4331 64.6756 60.5001C64.3288 61.4604 64.0887 62.5541 63.3683 63.2743C62.8613 63.7812 59.8997 68.7695 59.9264 70.4767V70.5034C59.873 71.357 59.873 72.2106 60.1131 73.0642C60.3799 73.9712 60.5934 74.8782 60.8335 75.7851C60.8602 75.8652 61.047 76.292 61.1003 76.3187C61.2337 76.1586 61.3405 75.7318 61.4739 75.5717C61.7407 75.1449 61.7407 74.6648 61.5806 74.1846C61.3938 73.6244 61.1537 70.21 61.8207 69.9165C62.5411 69.5698 62.888 69.7832 62.888 70.5834C62.888 71.5704 62.9147 72.5307 62.9147 73.5177C62.9147 74.4514 62.9147 75.4117 62.9414 76.3453C62.968 76.9055 63.0214 77.4657 63.0748 78.0259C63.1014 78.1859 63.5817 78.1059 63.6084 77.9192C63.7151 77.1723 63.8218 76.4254 63.8752 75.6784C63.9286 75.0916 63.8752 74.478 63.9019 73.8912C63.9552 72.7708 64.2221 71.6771 64.5156 70.5834C64.7557 69.7298 65.0492 68.5828 65.6362 67.9425C66.0631 67.4624 66.2765 66.8222 66.3566 66.2086C66.4099 65.7018 67.824 66.0486 68.0375 66.0219C68.5178 65.9686 68.7846 65.7018 68.8113 65.2217C68.8113 65.0616 68.6245 63.6478 68.5978 63.0876C68.5711 62.4741 68.8913 62.0206 69.5317 62.154C69.8785 62.234 70.0386 62.0206 69.9586 61.6738C69.9319 61.5138 68.3043 57.2724 67.9575 56.9256C67.6906 56.6588 65.0492 53.8846 63.1281 52.8442C61.3938 51.8839 56.1109 53.3777 54.8302 54.4181C54.0565 55.0583 52.082 56.2587 50.8814 57.1923C50.4545 57.5124 50.0543 57.8592 49.6274 58.206C49.4139 58.3927 47.5462 59.9666 47.2794 60.1533C46.7191 60.5534 46.1321 60.9269 45.5451 61.3004C45.2516 61.4604 44.2377 62.1806 43.9175 62.314C43.7575 62.3674 43.5974 62.3941 43.464 62.2073C43.464 62.1806 44.8781 60.5534 45.4117 60.2067C45.7852 59.9666 46.2655 59.7265 46.639 59.4864C47.3594 59.0863 48.1866 58.0726 48.8803 57.6458C48.987 57.5925 48.8269 57.1123 48.7202 57.0856C48.1866 56.9789 47.733 57.8592 47.2794 58.1793C46.3989 58.8195 45.4917 59.5131 44.5846 60.18C44.3444 60.34 42.9837 61.4871 42.5034 61.8605C41.5429 62.6608 40.6891 63.5678 39.7819 64.4481C39.0082 65.195 36.6602 66.7422 36.3934 66.9289C35.4595 67.5157 34.419 67.6758 33.3517 67.7558C33.0849 67.7825 32.8181 67.7825 32.578 67.7558C32.0977 67.7025 31.9376 67.4624 32.1244 67.0356C32.1511 67.0089 32.4712 66.0486 32.3111 65.5684C32.2044 65.275 32.1777 64.9549 32.1511 64.6615C32.0977 64.2613 32.1777 63.8879 32.4446 63.5411C32.5513 63.381 32.6313 63.141 32.6046 62.9542C32.5513 62.7142 32.2578 62.7408 32.0443 62.7142C31.6975 62.6875 30.4968 63.0609 30.2033 63.0609C29.6697 63.0343 29.4296 62.7142 29.4829 62.2073C29.5363 61.8072 29.6163 61.4071 29.7764 61.0336C30.2567 59.7532 30.817 58.4994 31.8042 57.4858C32.5513 56.6855 33.245 55.8586 33.912 55.0049C34.5257 54.2047 35.1661 53.4578 35.8331 52.7108C36.6068 51.8039 37.1672 51.1103 37.8609 50.15C38.021 49.9099 38.8214 48.7896 38.9815 48.5761C39.4084 47.9893 39.355 48.016 39.8887 47.4825C40.0221 47.3491 41.6496 45.055 41.8364 44.7882C42.4234 43.8279 43.1438 43.001 43.8375 42.094C44.3444 41.4538 44.8514 40.8403 45.4384 40.2801C46.0521 39.6932 46.5323 38.9997 47.1193 38.3861C47.5195 37.9593 47.9731 37.5325 48.4 37.1324C48.6135 36.9456 48.8803 36.8389 49.1471 37.0257C49.4139 37.1857 49.4406 37.4791 49.3872 37.7192C49.3339 37.9593 49.2538 38.1994 49.1471 38.4128C48.7736 39.1064 48.4534 39.7999 48.4 40.6002C48.3733 40.947 48.2399 41.2671 47.9998 41.5338C47.733 41.8273 47.4662 42.1207 47.226 42.4141C46.639 43.1343 46.052 43.8546 45.4917 44.6015C45.305 44.8683 45.1716 45.1617 45.0382 45.4551C44.9848 45.5618 45.0115 45.6952 44.9848 45.8286C45.0115 45.8286 45.0382 45.8553 45.0915 45.8819C45.1982 45.8019 45.305 45.7486 45.385 45.6685C45.6251 45.4018 45.8653 45.1617 46.052 44.8683C46.3989 44.3614 46.8525 44.1213 47.4662 44.0947C47.9998 44.068 48.2933 43.8012 48.4 43.2677C48.5601 42.5208 48.7202 42.1474 49.7608 42.5208C50.4011 42.7342 51.0948 42.8409 51.7619 42.7609C52.1087 42.7342 52.4823 42.6542 52.7758 42.4941C53.3627 42.174 53.9497 42.0673 54.5901 42.0407C55.0703 42.014 55.5239 41.934 56.0042 41.8806C56.271 41.8539 56.4578 41.6939 56.4845 41.4271C56.5378 41.1604 56.4578 40.9203 56.2176 40.7602C56.0309 40.6535 55.8174 40.6002 55.6307 40.5735C55.3105 40.5468 55.017 40.6002 54.6968 40.6002C54.43 40.6269 54.1899 40.5468 54.0031 40.3868C53.763 40.1734 53.4961 39.9333 53.2827 39.6932C52.9092 39.2664 52.7491 38.7862 52.8291 38.1994C52.8558 37.906 52.8825 37.6392 52.9092 37.3458C52.9358 36.9456 52.8291 36.5989 52.4823 36.3321C52.3489 36.2254 52.2421 36.1187 52.1354 35.9853C52.002 35.7986 51.8152 35.7719 51.6285 35.8786C51.5484 35.932 51.4684 35.9586 51.3616 36.012C50.9881 36.172 50.5345 36.0653 50.2677 35.7186C50.0276 35.3985 50.0276 35.0517 50.3744 34.7316C50.7213 34.3848 51.1215 34.038 51.5217 33.7446C52.082 33.3444 52.6423 32.9977 53.256 32.6776C54.0831 32.2508 54.9103 31.8773 55.7374 31.4772C56.0842 31.3171 56.4311 31.1304 56.778 30.9703C58.2188 30.3568 59.6862 29.7699 61.127 29.1564C61.5539 28.9697 61.9541 28.7563 62.381 28.6229C63.9552 28.1161 65.4761 27.4492 67.157 27.3425C67.2637 27.3425 67.3971 27.2891 67.5039 27.2891C67.664 27.2624 67.824 27.2624 68.0108 27.2624C68.5178 27.2891 68.998 27.3425 69.505 27.3958C69.6384 27.4225 69.7718 27.4492 69.8785 27.5025C70.3321 27.6892 70.4388 28.1694 70.0653 28.5162C69.9319 28.6496 69.7451 28.7563 69.585 28.8896C69.3716 29.0497 69.2382 29.2898 69.1848 29.5565C69.1314 29.9033 69.3716 30.1701 69.7184 30.1434C69.8785 30.1167 70.0386 30.0634 70.1987 30.0367C70.9191 29.8233 71.6128 29.6099 72.3332 29.4232C72.6 29.3431 72.8668 29.3698 73.1336 29.3965C73.5339 29.4498 73.9074 29.5832 74.3076 29.6899C74.7345 29.7966 74.948 30.0634 74.8679 30.5168C74.7879 31.0504 74.4677 31.4505 73.9874 31.6639C73.6139 31.8506 73.187 31.9573 72.7601 32.0373C72.4132 32.1174 72.0664 32.1974 71.7996 32.4642C71.6395 32.6242 71.5061 32.8109 71.5861 33.0777C71.6662 33.3178 71.8796 33.3978 72.0931 33.4245C72.52 33.4778 72.9202 33.5045 73.3471 33.5579C74.2009 33.6379 74.7612 33.1844 75.2681 32.5709C75.3482 32.4642 75.4016 32.3041 75.4282 32.1441C75.6417 31.1037 75.7751 30.997 76.789 30.8103C76.8157 30.8103 76.8423 30.8103 76.869 30.8103C77.376 30.7303 77.6161 30.8636 77.8296 31.3438C77.9096 31.5305 77.9896 31.7439 78.0964 31.9306C78.2298 32.1707 78.4432 32.3308 78.7367 32.2774C79.0302 32.2241 79.1103 31.984 79.1636 31.7172C79.2704 31.0237 79.2704 30.4101 78.7634 29.85C78.4966 29.5565 78.55 29.2097 78.8701 28.9697C79.1369 28.7563 79.4304 28.5962 79.7506 28.4362C80.1775 28.2228 80.5777 28.3028 80.978 28.5429C81.7517 29.023 82.2587 29.7166 82.6589 30.5168C82.7122 30.6502 82.7923 30.8103 82.7656 30.9437C82.6589 31.6105 82.7122 32.2774 82.7656 32.9176C82.7656 33.0243 82.7389 33.131 82.7389 33.2377C82.6322 34.0113 82.2587 34.1447 81.6183 33.6912C81.4049 33.5312 81.1647 33.3711 80.9246 33.3711C80.391 33.3444 79.884 33.2911 79.3771 33.1044C79.2704 33.0777 79.1369 33.051 79.0302 33.0777C78.8435 33.131 78.63 33.2111 78.4432 33.3178C78.3098 33.3978 78.2831 33.5579 78.3632 33.6912C78.6033 34.1714 79.3504 34.5182 79.8573 34.3314C80.6311 34.0647 81.2448 34.3048 81.8584 34.7582C82.2587 35.0517 82.6589 35.3718 82.9524 35.7719C83.2459 36.172 83.5394 36.1454 83.8595 35.7719C83.9663 35.6385 84.0997 35.5052 84.2064 35.3718C84.3932 35.1851 84.6333 35.1317 84.9001 35.1851C85.5938 35.3451 86.2075 35.6652 86.7145 36.1987C87.2748 36.7856 88.8756 37.6125 93.9985 44.0146C99.1213 50.3901 100.482 57.8059 101.202 57.8325C102.003 57.6191 98.8811 47.2157 95.7594 43.241Z" fill="#C0D4F9"/>
<path d="M50.9347 54.8983C50.8814 55.4585 50.4278 55.8053 49.8141 55.8053C49.7341 55.3785 50.0276 55.1651 50.2944 54.9517C50.4812 54.7916 50.6946 54.6849 50.9347 54.8983Z" fill="#C0D4F9"/>
<path d="M60.5133 17.7925C37.434 17.7925 18.6503 36.9455 18.6503 60.5C18.6503 84.0545 37.434 103.207 60.5133 103.207C83.5927 103.207 102.376 84.0545 102.376 60.5C102.35 36.9455 83.5927 17.7925 60.5133 17.7925ZM60.5133 104.381C36.3133 104.381 16.6225 84.6947 16.6225 60.5C16.6225 36.3053 36.3133 16.6188 60.5133 16.6188C84.7133 16.6188 104.404 36.3053 104.404 60.5C104.404 84.6947 84.7133 104.381 60.5133 104.381ZM60.5133 1.78726C28.1222 1.78726 1.78765 28.116 1.78765 60.5C1.78765 92.884 28.1222 119.213 60.5133 119.213C92.9045 119.213 119.239 92.884 119.239 60.5C119.239 28.116 92.8778 1.78726 60.5133 1.78726ZM60.5133 121C27.135 121 0 93.8444 0 60.5C0 27.129 27.135 0 60.5133 0C93.8917 0 121.027 27.129 121.027 60.5C121 93.8444 93.8651 121 60.5133 121Z" fill="#C0D4F9"/>
<path d="M50.2143 110.837C50.161 110.81 50.1076 110.783 50.0009 110.757C49.8942 110.73 49.8141 110.703 49.7608 110.677C49.6007 110.65 49.4673 110.65 49.3072 110.65C49.1471 110.65 49.0137 110.703 48.8803 110.783C48.7469 110.863 48.6401 110.97 48.5334 111.157C48.4267 111.317 48.3466 111.53 48.2933 111.824C48.2399 112.064 48.2399 112.25 48.2666 112.411C48.2933 112.597 48.3466 112.731 48.4267 112.837C48.5067 112.944 48.6135 113.051 48.7202 113.104C48.8536 113.184 48.987 113.237 49.1204 113.264C49.3339 113.317 49.5206 113.344 49.654 113.317L50.2143 110.837ZM50.748 114.651C50.4812 114.651 50.2143 114.625 49.8942 114.598C49.6007 114.571 49.2805 114.518 48.987 114.465C48.6668 114.385 48.3733 114.304 48.0532 114.171C47.7597 114.038 47.5195 113.878 47.3061 113.638C47.0926 113.398 46.9592 113.131 46.8792 112.784C46.7991 112.437 46.7991 112.01 46.9059 111.504C47.0126 111.05 47.146 110.677 47.3594 110.383C47.5462 110.09 47.7863 109.876 48.0532 109.716C48.32 109.556 48.5868 109.476 48.907 109.45C49.2004 109.423 49.4939 109.423 49.7874 109.503C49.8141 109.503 49.8675 109.53 49.9208 109.53C49.9742 109.53 50.0543 109.556 50.1076 109.583C50.1877 109.61 50.241 109.636 50.2944 109.636C50.3477 109.663 50.4011 109.663 50.4278 109.69L50.9881 107.182L52.2955 107.476L50.748 114.651Z" fill="#C0D4F9"/>
<path d="M41.9164 108.382C42.0498 108.036 42.1832 107.716 42.2633 107.395C42.3433 107.075 42.3967 106.782 42.3967 106.542C42.3967 106.275 42.3433 106.062 42.2633 105.875C42.1832 105.688 42.0232 105.555 41.8097 105.475C41.4362 105.315 41.0626 105.395 40.7158 105.688C40.3689 106.008 40.0221 106.568 39.6485 107.422C39.5151 107.769 39.4084 108.089 39.3017 108.382C39.2216 108.703 39.1682 108.996 39.1682 109.236C39.1682 109.503 39.2216 109.716 39.3017 109.903C39.3817 110.09 39.5418 110.223 39.7552 110.33C40.529 110.65 41.2494 110.01 41.9164 108.382ZM43.2238 108.916C42.7436 110.09 42.1832 110.89 41.5162 111.317C40.8759 111.77 40.1288 111.797 39.3017 111.477C38.8748 111.29 38.5546 111.05 38.3144 110.757C38.0743 110.463 37.9142 110.116 37.8609 109.716C37.8075 109.316 37.8075 108.889 37.8875 108.409C37.9676 107.929 38.1277 107.422 38.3678 106.889C38.8481 105.715 39.4351 104.915 40.1021 104.488C40.7691 104.061 41.4895 104.008 42.29 104.328C42.7169 104.514 43.0637 104.755 43.3039 105.021C43.544 105.315 43.6774 105.662 43.7574 106.062C43.8108 106.462 43.8108 106.889 43.7308 107.369C43.5974 107.876 43.4373 108.382 43.2238 108.916Z" fill="#C0D4F9"/>
<path d="M32.658 99.553C32.8981 99.5263 33.165 99.553 33.4585 99.6597C33.7519 99.7664 34.0188 99.8997 34.2856 100.06C34.6058 100.273 34.8726 100.513 35.086 100.807C35.2995 101.1 35.4062 101.42 35.4596 101.82C35.5129 102.221 35.4596 102.647 35.2995 103.154C35.1394 103.634 34.8726 104.194 34.499 104.808C34.0988 105.448 33.6986 105.928 33.2717 106.249C32.8715 106.569 32.4712 106.809 32.0977 106.915C31.7242 107.022 31.3506 107.049 31.0038 106.969C30.6569 106.889 30.3367 106.755 30.0432 106.569C29.7497 106.382 29.5096 106.195 29.3228 106.008C29.1361 105.822 29.0027 105.662 28.8959 105.502L29.7497 104.648C29.8298 104.781 29.9365 104.915 30.0699 105.048C30.2033 105.181 30.3634 105.315 30.5769 105.448C30.9771 105.715 31.4307 105.742 31.8842 105.528C32.3378 105.315 32.8181 104.835 33.2984 104.061C33.5118 103.741 33.6719 103.421 33.8053 103.101C33.9387 102.807 33.9921 102.514 34.0188 102.247C34.0454 101.98 33.9921 101.74 33.8854 101.527C33.7786 101.314 33.6185 101.127 33.3784 100.967C33.165 100.833 32.9782 100.753 32.7914 100.7C32.6046 100.673 32.4179 100.647 32.2578 100.647L32.658 99.553Z" fill="#C0D4F9"/>
<path d="M26.7881 94.6179C27.0282 94.6179 27.295 94.6979 27.5619 94.858C27.8287 95.0181 28.0955 95.1781 28.3089 95.3915C28.6024 95.6316 28.8159 95.925 28.976 96.2451C29.1361 96.5652 29.2161 96.912 29.1894 97.3121C29.1627 97.7123 29.056 98.1391 28.8159 98.5926C28.6024 99.0727 28.2289 99.5529 27.7486 100.086C27.2417 100.647 26.7614 101.047 26.3345 101.313C25.8809 101.58 25.454 101.74 25.0805 101.767C24.6803 101.82 24.3334 101.767 23.9866 101.634C23.6664 101.5 23.3729 101.313 23.1061 101.1C22.8393 100.86 22.6525 100.647 22.4924 100.433C22.3323 100.22 22.2256 100.033 22.1455 99.873L23.1327 99.1794C23.1861 99.3395 23.2662 99.4729 23.3729 99.6062C23.4796 99.7663 23.613 99.9263 23.7998 100.086C24.1733 100.406 24.5735 100.513 25.0538 100.38C25.5341 100.246 26.0677 99.8196 26.6814 99.1527C26.9482 98.8593 27.1616 98.5659 27.3217 98.2991C27.4818 98.0057 27.6152 97.739 27.6686 97.4722C27.7219 97.2321 27.7219 96.9654 27.6686 96.752C27.6152 96.5119 27.4551 96.2985 27.2684 96.1117C27.0816 95.9517 26.8948 95.8183 26.7347 95.765C26.548 95.6849 26.3879 95.6583 26.2278 95.6316L26.7881 94.6179Z" fill="#C0D4F9"/>
<path d="M19.1572 91.3369L18.25 91.9238L18.2767 91.9504L19.424 91.577L23.7731 90.8567L24.4401 91.6837L18.5702 96.2452L17.7431 95.2049L20.8115 92.8041L21.7453 92.2439L21.7186 92.1905L20.518 92.564L16.2223 93.2575L15.5819 92.4306L21.4518 87.8424L22.2789 88.9094L19.1572 91.3369Z" fill="#C0D4F9"/>
<path d="M14.1145 83.0942L13.1272 83.4676L13.1539 83.521L14.3279 83.3609L18.757 83.4676L19.2373 84.4013L12.6203 87.789L12.0066 86.6153L15.4752 84.8281L16.4891 84.4279L16.4624 84.3746L15.2351 84.5346L10.886 84.4013L10.4057 83.4943L17.0227 80.0798L17.6364 81.2802L14.1145 83.0942ZM10.0589 86.8821C10.4324 86.642 10.5392 86.3752 10.3524 86.0551C10.1923 85.735 9.8988 85.655 9.52526 85.8151L9.17841 84.7747C9.60531 84.6147 9.97885 84.6147 10.299 84.7747C10.6192 84.9348 10.886 85.2282 11.0995 85.6817C11.2062 85.8951 11.2862 86.1085 11.3663 86.3219C11.4196 86.5353 11.4463 86.722 11.4196 86.9088C11.393 87.0955 11.3396 87.2555 11.2596 87.4156C11.1528 87.5756 11.0194 87.7357 10.806 87.8691L10.0589 86.8821Z" fill="#C0D4F9"/>
<path d="M14.0077 72.3439C14.2212 72.4772 14.3813 72.664 14.5413 72.9574C14.7014 73.2242 14.8348 73.5176 14.9149 73.811C15.0216 74.1845 15.075 74.5313 15.0483 74.878C15.0216 75.2248 14.8882 75.5716 14.6747 75.8917C14.4613 76.2118 14.1411 76.5052 13.6875 76.7987C13.2606 77.0921 12.7003 77.3322 12.0066 77.5456C11.2862 77.7857 10.6725 77.8924 10.1389 77.8657C9.60529 77.8657 9.17839 77.7857 8.83153 77.5989C8.48467 77.4389 8.19118 77.1988 7.97773 76.932C7.76427 76.6386 7.60419 76.3452 7.49746 76.0251C7.39073 75.705 7.33737 75.3849 7.31069 75.1181C7.28401 74.8514 7.28401 74.638 7.31069 74.4512L8.51135 74.3712C8.48467 74.5313 8.48467 74.6913 8.48467 74.878C8.51135 75.0648 8.53803 75.2782 8.61808 75.5182C8.75148 75.9984 9.07166 76.2918 9.55193 76.3985C10.0322 76.5319 10.6992 76.4519 11.5797 76.1851C11.9532 76.0784 12.3001 75.9451 12.5669 75.785C12.8604 75.6249 13.1005 75.4649 13.2873 75.2515C13.4741 75.0648 13.6075 74.8514 13.6609 74.6113C13.7142 74.3712 13.7142 74.1311 13.6342 73.8644C13.5541 73.6243 13.4741 73.4376 13.3407 73.2775C13.234 73.1175 13.1005 73.0108 12.9671 72.8774L14.0077 72.3439Z" fill="#C0D4F9"/>
<path d="M10.1389 67.3823L10.1923 67.6757L13.3407 67.2756L13.5008 68.6093L6.13673 69.5163L5.97665 68.1825L9.23177 67.7824L9.07169 67.5423L5.73651 66.3686L5.54974 64.8748L8.88491 66.1819L9.31182 66.6354L9.65867 66.0752L12.9138 63.701L13.1006 65.3283L10.1389 67.3823Z" fill="#C0D4F9"/>
<path d="M10.1389 58.4993L10.1923 57.2723L8.43131 57.619L7.25733 57.7257V57.7791L8.43131 58.0192L10.1389 58.4993ZM11.2862 57.1122L11.2062 58.8461L12.8871 59.3796L12.8071 60.7134L5.44299 58.1525L5.49636 57.1122L13.1005 55.325L13.0205 56.7388L11.2862 57.1122Z" fill="#C0D4F9"/>
<path d="M8.1645 47.6157C8.13782 47.6691 8.11114 47.7224 8.08446 47.8025C8.05777 47.8558 8.03109 47.9358 8.03109 48.0159C8.00441 48.1492 7.97773 48.2826 8.00441 48.416C8.00441 48.5494 8.05777 48.6827 8.13782 48.7895C8.21786 48.8962 8.32459 49.0029 8.458 49.0829C8.5914 49.1629 8.77817 49.2429 9.0183 49.2963C9.44521 49.403 9.79206 49.3763 10.0322 49.2163C10.2723 49.0829 10.4324 48.8428 10.4858 48.5494L10.5658 48.1492L8.1645 47.6157ZM14.568 47.7224L14.2745 49.0295L11.3929 48.3626L11.473 48.9762L13.901 50.7368L13.5541 52.2306L11.3663 50.4967L11.0728 49.8831C10.886 50.2299 10.5925 50.47 10.1923 50.6301C9.79206 50.7901 9.25844 50.7901 8.64476 50.6567C8.19118 50.55 7.84432 50.39 7.57751 50.2033C7.3107 50.0165 7.12393 49.7764 6.99052 49.5097C6.85711 49.2429 6.80375 48.9495 6.77707 48.6027C6.77707 48.2826 6.80375 47.9092 6.91048 47.5357C6.93716 47.4557 6.96384 47.3223 6.99052 47.1889C7.0172 47.0555 7.07056 46.9222 7.12393 46.7888C7.17729 46.6554 7.23065 46.522 7.28402 46.3886C7.33738 46.2553 7.39074 46.1486 7.4441 46.0419L14.568 47.7224Z" fill="#C0D4F9"/>
<path d="M15.8754 36.1721L15.742 36.4121L18.5169 37.986L17.8498 39.1597L11.3663 35.5052L12.0333 34.3315L14.9149 35.9587V35.6652L12.9405 32.7309L13.6609 31.4238L15.5552 34.4382L15.662 35.0784L16.2756 34.8383H20.2778L19.4774 36.2788L15.8754 36.1721Z" fill="#C0D4F9"/>
<path d="M21.6386 26.5687L20.8915 25.8218L20.8648 25.8485L21.4518 26.8888L23.0794 30.9969L22.4123 31.8238L16.7025 27.0489L17.5563 26.0086L20.5446 28.5161L21.2917 29.2896L21.3451 29.263L20.7314 28.1959L19.1572 24.1146L19.8242 23.3143L25.534 28.0892L24.6802 29.1296L21.6386 26.5687Z" fill="#C0D4F9"/>
<path d="M29.0293 20.6469L27.4551 21.9539L29.4562 24.3547L28.4423 25.2084L23.6931 19.4731L24.7336 18.6195L26.6814 20.9936L28.2556 19.6865L26.3078 17.3391L27.3484 16.4855L32.071 22.2207L31.0304 23.0743L29.0293 20.6469Z" fill="#C0D4F9"/>
<path d="M34.7392 16.0587C34.9259 16.3788 35.1127 16.6722 35.2995 16.939C35.4862 17.2057 35.6997 17.4191 35.8865 17.5792C36.0999 17.7392 36.2867 17.8459 36.4734 17.8726C36.6602 17.926 36.8737 17.8726 37.0604 17.7659C37.434 17.5792 37.5941 17.2324 37.5674 16.7789C37.5407 16.3254 37.3273 15.6852 36.8737 14.8849C36.6869 14.5648 36.5268 14.2714 36.3134 14.0047C36.1266 13.7379 35.9398 13.5245 35.7264 13.3644C35.5396 13.2044 35.3261 13.0977 35.1127 13.0443C34.9259 12.991 34.7125 13.0177 34.499 13.151C33.832 13.5778 33.8854 14.5382 34.7392 16.0587ZM33.5118 16.7522C32.8981 15.6585 32.6313 14.6982 32.6847 13.9246C32.7381 13.151 33.165 12.5375 33.9387 12.1107C34.3389 11.8973 34.7392 11.7639 35.1127 11.7639C35.4862 11.7639 35.8598 11.8706 36.2066 12.0573C36.5535 12.2441 36.9004 12.5375 37.2205 12.911C37.5407 13.2844 37.8342 13.7112 38.1277 14.2447C38.7414 15.3384 39.0082 16.2987 38.9281 17.099C38.8481 17.8993 38.4479 18.4861 37.6741 18.9129C37.2739 19.1263 36.8737 19.2597 36.5001 19.2597C36.1266 19.2597 35.7531 19.153 35.4062 18.9663C35.0593 18.7796 34.7125 18.4861 34.419 18.1127C34.0988 17.7125 33.7786 17.2591 33.5118 16.7522Z" fill="#C0D4F9"/>
<path d="M44.4245 9.12293L43.3572 9.46971C43.7308 10.7768 44.0243 11.8438 44.2377 12.7241C44.4512 13.6044 44.5045 14.3246 44.4245 14.8315C44.3978 15.0182 44.3444 15.1783 44.2911 15.3116C44.211 15.445 44.131 15.5784 44.0509 15.6584C43.9709 15.7384 43.8642 15.8185 43.7841 15.8718C43.6507 15.9785 43.5707 16.0052 43.4906 16.0319C43.3572 16.0852 43.2238 16.1119 43.1171 16.1119C43.0104 16.1386 42.9036 16.1119 42.7702 16.1119L42.5301 14.9382C42.6635 14.9382 42.7969 14.9115 42.9036 14.8315C43.0104 14.7515 43.0904 14.6181 43.0904 14.4047C43.1171 14.2179 43.1171 13.9779 43.0904 13.6844C43.0637 13.391 42.9837 12.9909 42.877 12.5374C42.7702 12.0839 42.6368 11.5237 42.4501 10.9102C42.2633 10.2966 42.0498 9.54973 41.783 8.72279L45.3316 7.54907L47.6796 14.6181L46.3989 15.0449L44.4245 9.12293Z" fill="#C0D4F9"/>
<path d="M52.3755 9.79002C52.4289 10.1635 52.4822 10.5103 52.589 10.8304C52.669 11.1505 52.7757 11.4172 52.9091 11.6306C53.0425 11.844 53.176 12.0041 53.3627 12.1375C53.5228 12.2442 53.7363 12.2975 53.9497 12.2708C54.3499 12.2175 54.6434 11.9774 54.7768 11.5239C54.9102 11.0704 54.9369 10.4036 54.8035 9.49659C54.7502 9.14981 54.6968 8.80303 54.6167 8.48293C54.5367 8.16282 54.43 7.89606 54.2966 7.68266C54.1632 7.46926 54.0298 7.28253 53.843 7.17583C53.6829 7.04245 53.4694 7.01577 53.2293 7.04245C52.4289 7.12248 52.1354 8.05612 52.3755 9.79002ZM50.9881 9.97675C50.828 8.723 50.908 7.73601 51.2549 7.04245C51.6017 6.32221 52.2154 5.92208 53.0692 5.7887C53.5228 5.73535 53.923 5.76203 54.2966 5.8954C54.6434 6.02878 54.9636 6.24218 55.2037 6.56229C55.4705 6.85572 55.6573 7.25585 55.8441 7.70934C56.0042 8.16282 56.1376 8.69633 56.2176 9.28319C56.3777 10.5369 56.2977 11.5239 55.9508 12.2175C55.5773 12.9377 54.9636 13.3379 54.1098 13.4446C53.6562 13.5246 53.2293 13.4712 52.8825 13.3379C52.5356 13.2045 52.2154 12.9911 51.9753 12.671C51.7085 12.3775 51.5217 11.9774 51.3616 11.5239C51.1748 11.0704 51.0681 10.5636 50.9881 9.97675Z" fill="#C0D4F9"/>
<path d="M64.4088 6.77561L62.1142 6.69558L61.9008 12.911L60.5667 12.8576L60.8068 5.41516L64.4355 5.54854L64.4088 6.77561Z" fill="#C0D4F9"/>
<path d="M71.9063 10.1634L72.2265 9.14978H72.1731L71.5594 10.1634L68.7045 13.5779L67.6906 13.3645L69.1581 6.05542L70.4655 6.32217L69.6917 10.1368L69.3716 11.1771L69.4249 11.2038L70.0653 10.1368L72.8935 6.82901L73.9074 7.04241L72.4399 14.3248L71.1325 14.0581L71.9063 10.1634Z" fill="#C0D4F9"/>
<path d="M80.2576 9.09631L79.3504 11.3637C79.1903 11.7639 79.1369 12.084 79.1636 12.2974C79.217 12.5108 79.3771 12.6975 79.6439 12.8042C79.8307 12.8842 80.0174 12.9376 80.2042 12.9376C80.391 12.9376 80.5511 12.9109 80.7111 12.8309L81.9385 9.78987L83.1658 10.2967L80.3643 17.179L79.1103 16.6721L80.2309 13.8979C80.0708 13.9513 79.8573 13.9512 79.5905 13.9512C79.3237 13.9512 79.0302 13.8712 78.71 13.7378C78.4966 13.6578 78.3098 13.5244 78.1497 13.3911C77.9897 13.2577 77.8562 13.071 77.7762 12.8842C77.6962 12.6975 77.6428 12.4574 77.6695 12.1907C77.6695 11.9239 77.7495 11.6305 77.9096 11.257L79.0035 8.58948L80.2576 9.09631Z" fill="#C0D4F9"/>
<path d="M87.9151 12.6975L91.0635 14.6715L90.4232 15.7118L88.3954 14.4581L87.4349 16.0053L89.2759 17.1523L88.6355 18.1927L86.7945 17.0456L85.7806 18.6728L87.8351 19.9532L87.1947 20.9936L83.993 19.0196L87.9151 12.6975Z" fill="#C0D4F9"/>
<path d="M93.705 25.8486C93.4648 25.8486 93.198 25.7685 92.9312 25.6085C92.6377 25.4484 92.3976 25.2884 92.1575 25.075C91.864 24.8349 91.6505 24.5415 91.4904 24.2214C91.3303 23.9013 91.2503 23.5545 91.277 23.1543C91.277 22.7542 91.4104 22.3274 91.6238 21.8739C91.8373 21.4204 92.1841 20.9136 92.6644 20.3534C93.1713 19.7932 93.6249 19.3664 94.0785 19.0997C94.5321 18.8329 94.9323 18.6729 95.3325 18.6195C95.7328 18.5662 96.0796 18.5928 96.3998 18.7262C96.72 18.8596 97.0135 19.0196 97.2803 19.2597C97.5471 19.4998 97.7339 19.7132 97.894 19.9266C98.054 20.14 98.1608 20.3267 98.2408 20.4868L97.2536 21.207C97.2002 21.0737 97.1202 20.9136 97.0135 20.7802C96.9067 20.6468 96.7467 20.4868 96.5599 20.3267C96.1863 20.0066 95.7594 19.9266 95.2792 20.06C94.7989 20.1934 94.2653 20.6202 93.6783 21.3137C93.4115 21.6072 93.198 21.9006 93.0379 22.1674C92.8779 22.4608 92.7711 22.7275 92.7178 22.9943C92.6644 23.261 92.6644 23.5011 92.7444 23.7412C92.7978 23.9813 92.9579 24.168 93.1713 24.3547C93.3581 24.5148 93.5449 24.6215 93.705 24.7015C93.8917 24.7815 94.0518 24.8082 94.2119 24.8349L93.705 25.8486Z" fill="#C0D4F9"/>
<path d="M99.6015 28.0093L99.4148 27.7959L96.9334 29.7966L96.0796 28.7562L101.869 24.088L102.723 25.1284L100.162 27.209L100.429 27.3157L103.871 26.5422L104.804 27.7159L101.309 28.3561L100.695 28.2227V28.8629L99.2013 32.6242L98.1874 31.3437L99.6015 28.0093Z" fill="#C0D4F9"/>
<path d="M104.324 35.5585L104.911 36.6522L106.219 35.4518L107.152 34.7315V34.6782L106.032 35.0783L104.324 35.5585ZM104.084 37.3724L103.23 35.8252L101.523 36.2787L100.882 35.105L108.486 33.3711L108.993 34.3047L103.497 39.8266L102.83 38.5995L104.084 37.3724Z" fill="#C0D4F9"/>
<path d="M111.742 43.7744C111.742 43.6943 111.742 43.641 111.715 43.5876C111.715 43.5343 111.688 43.4543 111.662 43.3742C111.608 43.2409 111.555 43.1075 111.475 43.0008C111.395 42.8941 111.288 42.814 111.181 42.7607C111.048 42.7073 110.914 42.6807 110.754 42.6807C110.594 42.6807 110.407 42.734 110.167 42.814C109.74 42.9474 109.474 43.1341 109.367 43.4009C109.234 43.641 109.234 43.9077 109.34 44.2278L109.474 44.6013L111.742 43.7744ZM106.272 47.0821L105.845 45.8284L108.647 44.8681L108.273 44.3879L105.285 44.1745L104.751 42.6807L107.526 43.0008L108.113 43.3742C108.086 42.9741 108.22 42.6273 108.46 42.2539C108.727 41.9071 109.153 41.6136 109.767 41.4269C110.194 41.2669 110.568 41.2135 110.914 41.2402C111.235 41.2669 111.528 41.3469 111.795 41.5069C112.035 41.667 112.249 41.8804 112.435 42.1738C112.622 42.4673 112.782 42.7874 112.889 43.1608C112.916 43.2409 112.942 43.3475 112.996 43.4809C113.022 43.6143 113.076 43.7477 113.102 43.8811C113.129 44.0144 113.156 44.1478 113.182 44.2812C113.209 44.4146 113.209 44.5479 113.236 44.6546L106.272 47.0821Z" fill="#C0D4F9"/>
<path d="M113.796 59.9664C113.796 59.9131 113.796 59.8331 113.769 59.7263C113.769 59.6196 113.743 59.5396 113.716 59.4863L110.061 59.593C110.034 59.6463 110.034 59.6997 110.034 59.753C110.034 59.8331 110.034 59.8864 110.034 59.9664C110.034 60.2599 110.194 60.4999 110.514 60.6867C110.808 60.8734 111.315 60.9534 111.982 60.9267C112.542 60.9001 112.996 60.82 113.316 60.66C113.636 60.5266 113.796 60.2865 113.796 59.9664ZM109.981 57.9658C109.981 58.0191 109.981 58.0725 109.981 58.1792C109.981 58.2592 110.007 58.3392 110.034 58.3926L113.689 58.2859C113.689 58.2325 113.689 58.1792 113.689 58.0991C113.689 58.0191 113.689 57.9658 113.689 57.8857C113.689 57.5923 113.529 57.3522 113.209 57.1655C112.916 56.9788 112.409 56.8987 111.742 56.9254C111.155 56.9521 110.701 57.0321 110.408 57.2189C110.141 57.4056 109.981 57.6457 109.981 57.9658ZM108.887 58.3659C108.86 58.2592 108.833 58.1525 108.833 58.0191C108.833 57.9124 108.807 57.779 108.807 57.6457C108.807 57.3522 108.86 57.0855 108.967 56.8721C109.073 56.632 109.234 56.4186 109.474 56.2319C109.714 56.0451 110.007 55.9118 110.381 55.8051C110.754 55.6984 111.208 55.6183 111.715 55.6183C112.702 55.5917 113.476 55.7517 114.01 56.1252C114.543 56.4986 114.837 57.0055 114.837 57.6457C114.837 57.7257 114.837 57.8057 114.837 57.9391C114.837 58.0458 114.837 58.1525 114.81 58.2325L115.717 58.2058L115.77 59.5396L114.837 59.5663C114.89 59.673 114.917 59.8064 114.917 59.9398C114.943 60.0731 114.943 60.2065 114.943 60.2865C114.943 60.58 114.89 60.82 114.783 61.0601C114.677 61.3002 114.49 61.5136 114.25 61.7003C114.01 61.8871 113.716 62.0204 113.342 62.1271C112.969 62.2338 112.542 62.2872 112.035 62.3139C111.528 62.3405 111.075 62.2872 110.674 62.1805C110.301 62.0738 109.954 61.9404 109.714 61.7804C109.447 61.5936 109.26 61.3802 109.127 61.1402C108.993 60.9001 108.913 60.6333 108.913 60.3399C108.913 60.2332 108.913 60.1265 108.913 60.0198C108.913 59.9131 108.94 59.8064 108.967 59.7263L107.926 59.753L107.899 58.4193L108.887 58.3659Z" fill="#C0D4F9"/>
<path d="M115.183 67.3822L114.596 71.0368L113.369 70.85L113.743 68.5026L111.955 68.2092L111.608 70.3432L110.381 70.1565L110.728 68.0224L108.833 67.729L108.46 70.1298L107.232 69.9164L107.819 66.2085L115.183 67.3822Z" fill="#C0D4F9"/>
<path d="M106.379 77.3588L111.075 78.986L111.475 77.8656C110.301 77.4122 109.34 76.9853 108.566 76.5852C107.819 76.1851 107.286 75.865 106.992 75.6249L106.379 77.3588ZM103.284 78.5058L103.604 77.6256L104.911 77.9457L106.165 74.3445L104.964 73.7843L105.285 72.8773L107.713 73.7309L107.499 74.3445C107.553 74.4245 107.713 74.5312 107.926 74.7179C108.166 74.9047 108.486 75.1181 108.94 75.3581C109.394 75.5982 109.954 75.8916 110.621 76.1851C111.315 76.4785 112.115 76.7986 113.076 77.1187L111.822 80.6932L105.952 78.6659L105.712 79.3861L103.284 78.5058Z" fill="#C0D4F9"/>
<path d="M109.367 85.9484L107.553 89.2028L106.485 88.5892L107.633 86.5086L106.058 85.6283L104.991 87.4955L103.924 86.882L104.991 85.0147L103.31 84.0811L102.11 86.1884L101.042 85.5749L102.91 82.2938L109.367 85.9484Z" fill="#C0D4F9"/>
<path d="M100.962 92.1905C100.936 92.2172 100.856 92.2705 100.776 92.3506C100.695 92.4306 100.642 92.5106 100.615 92.5373C100.509 92.644 100.429 92.7774 100.375 92.9108C100.322 93.0441 100.295 93.2042 100.295 93.3376C100.295 93.4976 100.375 93.631 100.455 93.8177C100.562 93.9778 100.722 94.1378 100.936 94.3246C101.122 94.4846 101.282 94.5646 101.443 94.618C101.603 94.6714 101.763 94.698 101.896 94.6714C102.03 94.6447 102.163 94.618 102.27 94.5113C102.376 94.4313 102.483 94.3246 102.59 94.2179C102.723 94.0578 102.83 93.8978 102.883 93.7644L100.962 92.1905ZM104.618 93.4176C104.484 93.6577 104.351 93.8978 104.191 94.1645C104.031 94.4313 103.844 94.6714 103.657 94.9114C103.444 95.1515 103.23 95.3916 102.99 95.605C102.75 95.8184 102.483 95.9518 102.19 96.0318C101.896 96.1118 101.576 96.1118 101.229 96.0318C100.882 95.9518 100.509 95.765 100.108 95.4183C99.7349 95.1248 99.4681 94.8314 99.308 94.5113C99.148 94.2179 99.0412 93.8978 99.0145 93.6043C98.9879 93.3109 99.0412 93.0175 99.148 92.724C99.2547 92.4573 99.4148 92.1905 99.6015 91.9504C99.6282 91.9238 99.6549 91.8971 99.6816 91.8437C99.7083 91.7904 99.7616 91.737 99.815 91.6837C99.8683 91.6303 99.895 91.577 99.9484 91.5503C100.002 91.497 100.028 91.4703 100.055 91.4436L98.054 89.8431L98.9078 88.8027L104.618 93.4176Z" fill="#C0D4F9"/>
<path d="M94.7188 97.4989L93.8117 98.3259L95.2792 99.3396L96.1863 100.086L96.213 100.06L95.546 99.0728L94.7188 97.4989ZM92.9045 97.6857L94.2119 96.5119L93.3848 94.9648L94.372 94.0845L97.7872 101.1L97.0134 101.794L90.3965 97.6857L91.4371 96.7253L92.9045 97.6857Z" fill="#C0D4F9"/>
<path d="M82.2587 101.474L83.0591 100.967L83.8596 102.034L87.5149 99.7931L91.4104 106.142L90.2631 106.835L87.008 101.554L85.3804 102.541L88.6355 107.849L87.4882 108.543L84.2598 103.261L83.5927 103.661L82.2587 101.474Z" fill="#C0D4F9"/>
<path d="M77.6428 109.156L77.9096 110.196L77.963 110.17L77.9363 108.996L78.55 104.595L79.5372 104.221L82.1519 111.183L80.8979 111.664L79.5372 108.009L79.2704 106.969H79.217V108.222L78.5766 112.517L77.6161 112.891L75.0013 105.928L76.2554 105.475L77.6428 109.156Z" fill="#C0D4F9"/>
<path d="M69.3449 113.664C69.4249 113.664 69.4783 113.664 69.5316 113.664C69.6117 113.664 69.6651 113.638 69.7718 113.638C69.9052 113.611 70.0386 113.557 70.1453 113.504C70.2521 113.451 70.3588 113.371 70.4388 113.264C70.5189 113.157 70.5722 113.024 70.5989 112.864C70.6256 112.704 70.6256 112.49 70.5722 112.277C70.4922 111.85 70.3321 111.53 70.1186 111.397C69.9052 111.237 69.6384 111.183 69.3182 111.237L68.918 111.317L69.3449 113.664ZM66.9169 107.742L68.2243 107.502L68.7579 110.41L69.2915 110.116L69.9586 107.182L71.4794 106.915L70.7323 109.61L70.2787 110.116C70.679 110.143 71.0258 110.33 71.3193 110.65C71.6128 110.943 71.8262 111.423 71.9597 112.064C72.0397 112.517 72.0397 112.891 71.9863 113.211C71.9063 113.531 71.7729 113.798 71.5861 114.038C71.3993 114.251 71.1325 114.438 70.839 114.571C70.5455 114.705 70.1987 114.811 69.7985 114.891C69.7184 114.918 69.585 114.918 69.4516 114.945C69.3182 114.971 69.1848 114.971 69.0247 114.998C68.8913 114.998 68.7312 115.025 68.5978 115.025C68.4644 115.025 68.331 115.025 68.2243 115.025L66.9169 107.742Z" fill="#C0D4F9"/>
<path d="M61.0203 111.45C61.0203 112.064 60.5133 112.571 59.8997 112.571C59.286 112.571 58.7791 112.064 58.7791 111.45C58.7791 110.837 59.286 110.33 59.8997 110.33C60.54 110.357 61.0203 110.837 61.0203 111.45Z" fill="#C0D4F9"/>
</svg>
