<svg width="18" height="18" viewBox="0 0 18 18" fill="none" xmlns="http://www.w3.org/2000/svg">
<path d="M16 3H2C1.44 3 1 2.56 1 2C1 1.44 1.44 1 2 1H16C16.56 1 17 1.44 17 2C17 2.56 16.56 3 16 3Z" fill="#3366FF"/>
<path d="M13.66 7.66016H2C1.44 7.66016 1 7.22016 1 6.66016C1 6.10016 1.44 5.66016 2 5.66016H13.66C14.22 5.66016 14.66 6.10016 14.66 6.66016C14.66 7.22016 14.22 7.66016 13.66 7.66016Z" fill="#3366FF"/>
<path d="M11.34 12.3398H2C1.44 12.3398 1 11.8798 1 11.3398C1 10.7998 1.44 10.3398 2 10.3398H11.34C11.9 10.3398 12.34 10.7798 12.34 11.3398C12.34 11.8998 11.88 12.3398 11.34 12.3398Z" fill="#3366FF"/>
<path d="M9 17H2C1.44 17 1 16.56 1 16C1 15.44 1.44 15 2 15H9C9.56 15 10 15.44 10 16C10 16.56 9.56 17 9 17Z" fill="#3366FF"/>
</svg>
