<svg width="20" height="20" viewBox="0 0 20 20" fill="none" xmlns="http://www.w3.org/2000/svg">
<path d="M10 19C5.04182 19 1 14.9582 1 10C1 5.04182 5.04182 1 10 1C14.9582 1 19 5.04182 19 10C19 14.9582 14.9582 19 10 19ZM10 2.63636C5.94182 2.63636 2.63636 5.94182 2.63636 10C2.63636 14.0582 5.94182 17.3636 10 17.3636C14.0582 17.3636 17.3636 14.0582 17.3636 10C17.3636 5.94182 14.0582 2.63636 10 2.63636Z" fill="#3366ff"/>
<path d="M6.90705 13.9109C6.69432 13.9109 6.48159 13.8291 6.33432 13.6655C6.00705 13.3382 6.00705 12.8309 6.33432 12.5037L9.18159 9.65638V5.63093C9.18159 5.17274 9.54159 4.81274 9.99978 4.81274C10.458 4.81274 10.818 5.17274 10.818 5.63093V10.3437L7.49614 13.6655C7.3325 13.8291 7.11978 13.9109 6.90705 13.9109Z" fill="#3366ff"/>
</svg>
