<svg width="21" height="21" viewBox="0 0 21 21" fill="none" xmlns="http://www.w3.org/2000/svg">
<path d="M8.125 0.649902C10.1075 0.649902 12.0088 1.43744 13.4106 2.83928C14.8125 4.24111 15.6 6.14241 15.6 8.1249C15.6 9.9764 14.9215 11.6784 13.806 12.9894L14.1165 13.2999H15.025L20.775 19.0499L19.05 20.7749L13.3 15.0249V14.1164L12.9895 13.8059C11.6785 14.9214 9.9765 15.5999 8.125 15.5999C6.14251 15.5999 4.24121 14.8124 2.83938 13.4105C1.43754 12.0087 0.650002 10.1074 0.650002 8.1249C0.650002 6.14241 1.43754 4.24111 2.83938 2.83928C4.24121 1.43744 6.14251 0.649902 8.125 0.649902ZM8.125 2.9499C5.25 2.9499 2.95 5.2499 2.95 8.1249C2.95 10.9999 5.25 13.2999 8.125 13.2999C11 13.2999 13.3 10.9999 13.3 8.1249C13.3 5.2499 11 2.9499 8.125 2.9499Z" fill="#72839C"/>
</svg>
