<svg id="Layer_1" class="header__nav-icon" width="30" height="30" data-name="Layer 1" xmlns="http://www.w3.org/2000/svg" viewBox="0 0 200 200"><circle cx="53.21" cy="74.3" r="5"><style type="text/css">
	path{fill-rule:evenodd;clip-rule:evenodd;fill:#72839C;}
</style></circle><circle cx="53.21" cy="110.04" r="5"></circle><circle cx="53.21" cy="145.78" r="5"></circle><path d="M125.78,163.06c-7.41.7-16,1.13-25.78,1.13-40.7,0-60.48-7.37-62-10.51V127.37A64.27,64.27,0,0,0,52.44,132c4.09.88,8.6,1.64,13.44,2.26a45.89,45.89,0,0,1-3.67-8.58c-15.41-2.43-23.3-6-24.26-7.9V91.48A64.84,64.84,0,0,0,52.44,96.1c3.05.66,6.34,1.25,9.81,1.77a45.78,45.78,0,0,1,3.16-7.61C47.88,87.84,39,84,38,81.88V55.58A64.32,64.32,0,0,0,52.44,60.2C65.19,63,82.08,64.5,100,64.5s34.81-1.53,47.56-4.3a64.32,64.32,0,0,0,14.49-4.62v26.3c-.77,1.55-6,4.12-15.88,6.33a45.67,45.67,0,0,1,3.55,7.4,60,60,0,0,0,12.33-4.13v26.3c-.62,1.25-4.15,3.18-10.74,5-.14.57-.27,1.15-.43,1.72l5.2,5.2a45.82,45.82,0,0,0,6-2.37v8.34l8,8V46.16c0-6.17-7.35-10.77-22.49-14-12.75-2.77-29.64-4.3-47.56-4.3s-34.81,1.53-47.56,4.3C37.3,35.39,30,40,30,46.16V153.84c0,6.17,7.35,10.77,22.49,14,12.75,2.77,29.64,4.3,47.56,4.3a274.43,274.43,0,0,0,33-1.89ZM100,35.81c40,0,59.78,7.11,62,10.35-2.18,3.23-22,10.34-62,10.34S40.22,49.39,38,46.16C40.22,42.92,60,35.81,100,35.81Z"></path><path d="M169.16,154.13l-27.48-27.48a38.25,38.25,0,1,0-20.5,20.5l27.48,27.48a14.5,14.5,0,0,0,20.5-20.5ZM85,133.26a30.29,30.29,0,1,1,42.84,0A30.33,30.33,0,0,1,85,133.26Zm48.5,5.66a38.47,38.47,0,0,0,4.19-5l3.11,3.1-9.19,9.19-3.1-3.11A39.29,39.29,0,0,0,133.45,138.92ZM163.5,169a6.52,6.52,0,0,1-9.18,0l-17.1-17.1,9.18-9.18,17.1,17.1a6.52,6.52,0,0,1,0,9.18Z"></path></svg>