<svg width="17" height="20" viewBox="0 0 17 20" fill="none" xmlns="http://www.w3.org/2000/svg">
<path d="M15.9203 1.08262C14.7241 0.735043 13.4539 0.461538 12.1495 0.279202C10.8053 0.0911681 9.41546 0 8.01994 0C6.62443 0 5.22891 0.0968661 3.88466 0.279202C2.58028 0.461538 1.31008 0.735043 0.11392 1.08262L0 1.11681V10.4046C0 11.7151 0.421503 13.037 1.25312 14.3305C1.91385 15.3561 2.8309 16.3704 3.98719 17.339C5.01246 18.1994 6.03205 18.8661 6.70987 19.2764C7.44465 19.7208 7.92881 19.9544 7.95159 19.9658L8.01994 20L8.08829 19.9658C8.11108 19.9544 8.59524 19.7208 9.33002 19.2764C10.0078 18.8661 11.0274 18.1994 12.0527 17.339C13.2033 16.3704 14.126 15.3561 14.7868 14.3305C15.6184 13.037 16.0399 11.7151 16.0399 10.4046V1.11681L15.9203 1.08262ZM15.1057 10.3932C15.1057 11.5328 14.7355 12.6838 14.0007 13.8291C13.397 14.7692 12.5539 15.698 11.4888 16.5926C10.5319 17.396 9.57495 18.0228 8.937 18.4046C8.53828 18.6439 8.2193 18.8205 8.01994 18.9288C7.82058 18.8262 7.50161 18.6496 7.10289 18.4046C6.47064 18.0228 5.50801 17.396 4.55109 16.5926C3.48594 15.698 2.64294 14.7692 2.03916 13.8291C1.30438 12.6895 0.934141 11.5328 0.934141 10.3932V1.90313C1.94803 1.62393 3.01887 1.40741 4.1125 1.25356C5.3827 1.07692 6.69848 0.985755 8.01994 0.985755C9.34141 0.985755 10.6572 1.07692 11.9274 1.25356C13.021 1.40741 14.0919 1.62393 15.1057 1.90313V10.3932Z" fill="#3366FF"/>
<path d="M8.01425 17.1453C7.87185 17.0655 7.70666 16.9687 7.513 16.8547C6.97188 16.5299 6.16305 16 5.34853 15.3162C4.45995 14.5698 3.75365 13.7949 3.2581 13.0256C2.67711 12.1197 2.38092 11.2137 2.38092 10.3305V3.33903C3.1157 3.15669 3.87896 3.00855 4.65931 2.90028C5.74725 2.74644 6.87505 2.67236 8.00855 2.67236C9.14205 2.67236 10.2699 2.74644 11.3578 2.90028C12.1381 3.00855 12.9014 3.15669 13.6362 3.33903V10.3305C13.6362 11.2137 13.34 12.1197 12.759 13.0256C12.2634 13.8006 11.5571 14.5698 10.6686 15.3162C9.85975 16 9.04522 16.5299 8.5041 16.8547C8.32753 16.9744 8.15665 17.0712 8.01425 17.1453Z" fill="#3366FF"/>
</svg>
