<svg width="20" height="20" viewBox="0 0 20 20" fill="none" xmlns="http://www.w3.org/2000/svg">
<path d="M9.73196 19C7.11856 19 2 15.5052 2 11.268V4.03093L9.73196 1L17.4639 4.03093V11.268C17.4639 15.5052 12.3454 19 9.73196 19ZM3.54639 5.09794V11.2835C3.54639 14.732 7.98454 17.4691 9.73196 17.4691C11.4794 17.4691 15.9175 14.732 15.9175 11.2835V5.09794L9.73196 2.65464L3.54639 5.09794Z" fill="#8F989D"/>
<path d="M16.6907 8.82474H2.7732C2.34021 8.82474 2 8.46907 2 8.05155C2 7.63402 2.34021 7.27835 2.7732 7.27835H16.6907C17.1237 7.27835 17.4639 7.61856 17.4639 8.05155C17.4639 8.48454 17.1237 8.82474 16.6907 8.82474Z" fill="#8F989D"/>
</svg>
