<svg width="28" height="28" viewBox="0 0 28 28" fill="none" xmlns="http://www.w3.org/2000/svg">
<path fillRule="evenodd" clipRule="evenodd" d="M2.52531 10.8855C1.07381 11.2743 0 12.6191 0 14.2128V18.2999C0 20.1894 1.51388 21.7555 3.38898 21.7555C3.64054 21.7555 3.8858 21.7275 4.12189 21.6744L6.24724 24.1768C6.98416 25.043 8.05071 25.5362 9.17289 25.5385L10.8486 25.5671C11.2304 26.9699 12.4967 28 14 28C15.8056 28 17.2693 26.5141 17.2693 24.6811C17.2693 22.8481 15.8056 21.3622 14 21.3622C12.509 21.3622 11.2511 22.3755 10.8581 23.7607L9.18836 23.7322H9.18089C8.56992 23.7322 7.99305 23.4654 7.59429 22.9967L5.72928 20.8009C6.37507 20.174 6.77797 19.2912 6.77797 18.315V14.2128C6.77797 12.6395 5.73147 11.3088 4.30817 10.9009C4.69727 5.8189 8.88278 1.80629 14 1.80629C19.1186 1.80629 23.3038 5.80683 23.692 10.9008C22.2686 11.3087 21.222 12.6394 21.222 14.2128V18.2954C21.2046 20.1992 22.7465 21.7555 24.611 21.7555C26.4792 21.7555 28 20.2116 28 18.315V14.2128C28 12.6192 26.9263 11.2744 25.4749 10.8855C25.0756 4.80011 20.0966 0 14 0C7.90327 0 2.92537 4.81386 2.52531 10.8855ZM4.19532 19.728C4.67479 19.4443 4.9987 18.9163 4.9987 18.315V14.2128C4.9987 13.3137 4.27449 12.5785 3.389 12.5785C2.5035 12.5785 1.77926 13.3137 1.77926 14.2128V18.2999C1.77926 19.2059 2.51031 19.9492 3.38898 19.9492C3.55924 19.9492 3.72354 19.922 3.87787 19.8718C3.97569 19.8013 4.08374 19.7536 4.19532 19.728ZM24.611 12.5785C23.7255 12.5785 23.0013 13.3137 23.0013 14.2128V18.3097C22.9918 19.1991 23.7235 19.9492 24.611 19.9492C25.4966 19.9492 26.2207 19.2141 26.2207 18.315V14.2128C26.2207 13.3137 25.4965 12.5785 24.611 12.5785ZM14 23.1685C13.1771 23.1685 12.51 23.8457 12.51 24.6811C12.51 25.5165 13.1771 26.1937 14 26.1937C14.8229 26.1937 15.49 25.5165 15.49 24.6811C15.49 23.8457 14.8229 23.1685 14 23.1685Z" fill="#8F989D"/>
</svg>
