<svg width="21" height="20" viewBox="0 0 21 20" fill="none" xmlns="http://www.w3.org/2000/svg">
<path d="M8.49965 7.73236C10.3365 8.33552 12.0912 11.1045 10.6518 12.3246C8.89719 13.7776 8.061 12.0641 7.03289 12.681C5.74434 13.4486 4.62028 12.8592 4.1405 11.8996C3.64701 10.9537 4.62028 9.52811 4.62028 9.52811C4.62028 9.52811 6.21041 6.99213 8.49965 7.73236Z" fill="#90999E"/>
<path d="M4.67512 8.33553C5.19602 8.1299 5.36052 7.38967 5.05894 6.66315C4.77108 5.95033 4.09938 5.53909 3.57848 5.75842C3.05757 5.96404 2.89308 6.70427 3.19465 7.4308C3.49623 8.1299 4.16792 8.54115 4.67512 8.33553Z" fill="#90999E"/>
<path d="M10.8026 8.26699C11.2824 8.51373 11.9952 8.18474 12.3516 7.49934C13.2426 5.88179 11.4743 4.96336 10.5833 6.5809C10.2132 7.2663 10.3091 8.02024 10.8026 8.26699Z" fill="#90999E"/>
<path d="M9.00686 6.38898C9.61001 6.52606 10.2817 5.96403 10.4736 5.12784C10.6792 4.29165 10.3502 3.48288 9.74709 3.35951C9.14394 3.22243 8.48596 3.78445 8.28034 4.62064C8.08842 5.45683 8.40371 6.2519 9.00686 6.38898Z" fill="#90999E"/>
<path d="M6.3475 6.43011C6.96436 6.38899 7.43043 5.64875 7.36189 4.78515C7.29335 3.92154 6.74503 3.26356 6.11446 3.30468C5.48389 3.34581 5.03153 4.08604 5.10007 4.94965C5.16861 5.79954 5.71693 6.47124 6.3475 6.43011Z" fill="#90999E"/>
<path d="M14.8878 19.6313C14.7645 19.6313 14.6274 19.6039 14.504 19.5354L7.81451 15.8342L1.22095 19.5354C0.933084 19.6862 0.631508 19.6725 0.371055 19.508C0.124311 19.3298 -0.0127695 19.0693 0.000938536 18.754V4.5114C0.000938536 2.26328 0.864544 0.00146158 2.81108 0.00146158H17.5061C17.5198 0.00146158 18.2052 -0.0533705 18.8769 0.508658C19.6171 1.16664 20.0009 2.31812 20.0147 3.96308V6.08782C19.9461 6.77322 19.5075 7.95211 18.2326 7.95211H17.0263C16.7521 7.95211 16.5191 7.71908 16.5191 7.44492C16.5191 7.17075 16.7521 6.93772 17.0263 6.93772H18.2326C18.8769 6.93772 18.9728 6.14265 18.9865 6.06041V3.97679C18.9728 2.33182 18.5616 1.6053 18.2189 1.29002C17.9036 1.00215 17.5883 1.00215 17.5609 1.01585C17.5472 1.01585 17.5335 1.01585 17.5198 1.01585H17.4924C16.6014 1.07069 16.1764 2.07137 16.0119 2.68823C15.724 3.67521 15.7377 4.77185 15.7377 5.82737V6.41681V18.8089C15.7515 19.083 15.6281 19.3572 15.3539 19.5217C15.2031 19.5902 15.0386 19.6313 14.8878 19.6313ZM14.6959 18.8089V18.8226V18.8089ZM1.02904 18.7814C1.02904 18.7952 1.02904 18.7952 1.02904 18.7814V18.7814ZM7.81451 14.8061C7.97901 14.8061 8.15721 14.8472 8.32171 14.9432L14.6959 18.4799L14.6822 5.82737C14.6685 4.70331 14.6685 3.52442 14.9975 2.40036C15.162 1.85204 15.3813 1.39968 15.6418 1.02956H2.81108C1.39916 1.02956 1.02904 3.3188 1.02904 4.5114V18.4662L7.32102 14.9432C7.47181 14.8472 7.65001 14.8061 7.81451 14.8061Z" fill="#90999E"/>
</svg>
