<?xml version="1.0" encoding="utf-8"?>
<!-- Generator: Adobe Illustrator 24.1.0, SVG Export Plug-In . SVG Version: 6.00 Build 0)  -->
<svg version="1.1" id="Capa_1" xmlns="http://www.w3.org/2000/svg" xmlns:xlink="http://www.w3.org/1999/xlink" x="0px" y="0px"
	 viewBox="0 0 477.9 477.9" style="enable-background:new 0 0 477.9 477.9;" xml:space="preserve">
<style type="text/css">
	.st0{fill:#6E7F8F;}
	.st1{fill:#FFFFFF;}
	.st2{fill:#6E7F8F;stroke:#FFFFFF;stroke-width:24;stroke-miterlimit:10;}
</style>
<g>
	<path class="st0" d="M143.2,153.7H46.3c-6.6,0-12-5.4-12-12V44.9c0-6.6,5.4-12,12-12h96.9c6.6,0,12,5.4,12,12v96.9
		C155.2,148.3,149.8,153.7,143.2,153.7z"/>
	<path class="st0" d="M287.4,153.7h-96.9c-6.6,0-12-5.4-12-12V44.9c0-6.6,5.4-12,12-12h96.9c6.6,0,12,5.4,12,12v96.9
		C299.4,148.3,294,153.7,287.4,153.7z"/>
	<path class="st0" d="M431.6,153.7h-96.9c-6.6,0-12-5.4-12-12V44.9c0-6.6,5.4-12,12-12h96.9c6.6,0,12,5.4,12,12v96.9
		C443.6,148.3,438.2,153.7,431.6,153.7z"/>
	<path class="st0" d="M143.2,299.4H46.3c-6.6,0-12-5.4-12-12v-96.9c0-6.6,5.4-12,12-12h96.9c6.6,0,12,5.4,12,12v96.9
		C155.2,294,149.8,299.4,143.2,299.4z"/>
	<path class="st0" d="M287.4,299.4h-96.9c-6.6,0-12-5.4-12-12v-96.9c0-6.6,5.4-12,12-12h96.9c6.6,0,12,5.4,12,12v96.9
		C299.4,294,294,299.4,287.4,299.4z"/>
	<path class="st0" d="M431.6,299.4h-96.9c-6.6,0-12-5.4-12-12v-96.9c0-6.6,5.4-12,12-12h96.9c6.6,0,12,5.4,12,12v96.9
		C443.6,294,438.2,299.4,431.6,299.4z"/>
	<path class="st0" d="M143.2,445H46.3c-6.6,0-12-5.4-12-12v-96.9c0-6.6,5.4-12,12-12h96.9c6.6,0,12,5.4,12,12V433
		C155.2,439.6,149.8,445,143.2,445z"/>
	<path class="st0" d="M287.4,445h-96.9c-6.6,0-12-5.4-12-12v-96.9c0-6.6,5.4-12,12-12h96.9c6.6,0,12,5.4,12,12V433
		C299.4,439.6,294,445,287.4,445z"/>
	<path class="st0" d="M431.6,445h-96.9c-6.6,0-12-5.4-12-12v-96.9c0-6.6,5.4-12,12-12h96.9c6.6,0,12,5.4,12,12V433
		C443.6,439.6,438.2,445,431.6,445z"/>
</g>
</svg>
