<svg width="16" height="16" viewBox="0 0 16 16" fill="none" xmlns="http://www.w3.org/2000/svg">
<path d="M7.2 4.80005V8.88805L10.968 11.12L11.6 10.096L8.4 8.20005V4.80005H7.2ZM8.4 0.800049C5.576 0.800049 3.128 2.33605 1.816 4.61605L0 2.80005V8.00005H5.2L3 5.80005C3.968 3.78405 6 2.40005 8.4 2.40005C9.9913 2.40005 11.5174 3.03219 12.6426 4.15741C13.7679 5.28263 14.4 6.80875 14.4 8.40005C14.4 9.99135 13.7679 11.5175 12.6426 12.6427C11.5174 13.7679 9.9913 14.4 8.4 14.4C5.784 14.4 3.576 12.728 2.752 10.4H1.072C1.952 13.624 4.888 16 8.4 16C12.592 16 16 12.6 16 8.40005C16 7.402 15.8034 6.41373 15.4215 5.49165C15.0395 4.56958 14.4797 3.73176 13.774 3.02604C13.0683 2.32031 12.2305 1.7605 11.3084 1.37856C10.3863 0.996629 9.39805 0.800049 8.4 0.800049Z" fill="#72839C"/>
</svg>
