<svg width="20" height="20" viewBox="0 0 20 20" fill="none" xmlns="http://www.w3.org/2000/svg">
<path d="M10 19C5.04182 19 1 14.9582 1 10C1 5.04182 5.04182 1 10 1C14.9582 1 19 5.04182 19 10C19 14.9582 14.9582 19 10 19ZM10 2.63636C5.94182 2.63636 2.63636 5.94182 2.63636 10C2.63636 14.0582 5.94182 17.3636 10 17.3636C14.0582 17.3636 17.3636 14.0582 17.3636 10C17.3636 5.94182 14.0582 2.63636 10 2.63636Z" fill="#8F989D"/>
<path d="M6.90729 13.9107C6.69457 13.9107 6.48184 13.8289 6.33457 13.6652C6.00729 13.338 6.00729 12.8307 6.33457 12.5034L9.18184 9.65614V5.63068C9.18184 5.1725 9.54184 4.8125 10 4.8125C10.4582 4.8125 10.8182 5.1725 10.8182 5.63068V10.3434L7.49638 13.6652C7.33275 13.8289 7.12002 13.9107 6.90729 13.9107Z" fill="#8F989D"/>
</svg>
