<svg width="20" height="20" viewBox="0 0 20 20" fill="none" xmlns="http://www.w3.org/2000/svg">
<g clip-path="url(#clip0_1826_1669)">
<path d="M12.3747 19H6.8602C5.64929 19 4.68384 18.0182 4.68384 16.8236L2.0002 3.34C1.98384 1.98182 2.96566 1 4.1602 1L15.0747 1C16.2857 1 17.2511 1.98182 17.2511 3.17636L17.2347 3.34L14.5347 16.9709C14.5511 18.0182 13.5693 19 12.3747 19ZM4.1602 2.63636C3.86566 2.63636 3.6202 2.88182 3.6202 3.17636L6.30384 16.66C6.3202 17.1182 6.56566 17.3636 6.8602 17.3636H12.3584C12.6529 17.3636 12.8984 17.1182 12.8984 16.8236L15.6147 3.12727C15.582 2.84909 15.3529 2.63636 15.0747 2.63636L4.1602 2.63636Z" fill="#36f"/>
<path d="M10.6727 9.72181C10.2472 9.72181 9.83814 9.55818 9.5436 9.24727L8.03814 7.75818C7.41632 7.13636 7.41632 6.12181 8.03814 5.5L9.5436 3.99454C10.1491 3.38909 11.1963 3.38909 11.8018 3.99454L13.3072 5.5C13.9291 6.12181 13.9291 7.13636 13.3072 7.75818L11.8018 9.26363C11.4909 9.55818 11.0981 9.72181 10.6727 9.72181ZM9.21632 6.62909L10.6891 8.10181L12.1454 6.59636L10.64 5.14L9.21632 6.62909Z" fill="#36f"/>
<path d="M10.6726 15.9564H8.54528C7.66164 15.9564 6.95801 15.2364 6.95801 14.3691L6.95801 12.2418C6.95801 11.3582 7.67801 10.6545 8.54528 10.6545H10.6726C11.5562 10.6545 12.2598 11.3745 12.2598 12.2418V14.3691C12.2762 15.2364 11.5562 15.9564 10.6726 15.9564ZM8.57801 14.32H10.6726L10.6398 12.2255L8.54528 12.2745L8.57801 14.32Z" fill="#36f"/>
</g>
<defs>
<clipPath id="clip0_1826_1669">
<rect width="15.2509" height="18" fill="white" transform="translate(2 1)"/>
</clipPath>
</defs>
</svg>
