<svg width="20" height="20" viewBox="0 0 20 20" fill="none" xmlns="http://www.w3.org/2000/svg">
<path d="M9.92058 19.0001C7.51625 19.0001 5.1769 18.1391 3.34116 16.5795L3 16.2871L3.06498 15.8485C3.55235 12.4369 6.49278 9.87012 9.92058 9.87012C13.3484 9.87012 16.2888 12.4369 16.7762 15.8485L16.8412 16.2871L16.5 16.5795C14.6643 18.1391 12.3249 19.0001 9.92058 19.0001ZM4.75451 15.621C7.71119 17.8954 12.1137 17.8954 15.0866 15.621C14.5343 13.2492 12.3899 11.4947 9.92058 11.4947C7.45126 11.4947 5.30686 13.2492 4.75451 15.621Z" fill="#36f"/>
<path d="M9.92071 8.97653C7.72757 8.97653 5.92432 7.18953 5.92432 4.99639C5.92432 2.80325 7.72757 1 9.92071 1C12.1138 1 13.9009 2.787 13.9009 4.98014C13.9009 7.17329 12.1138 8.97653 9.92071 8.97653ZM9.92071 2.62455C8.62107 2.62455 7.54887 3.68051 7.54887 4.98014C7.54887 6.27978 8.60482 7.33574 9.92071 7.33574C11.2366 7.33574 12.2763 6.27978 12.2763 4.98014C12.2763 3.68051 11.2203 2.62455 9.92071 2.62455Z" fill="#36f"/>
</svg>
