<svg width="20" height="20" viewBox="0 0 20 20" fill="none" xmlns="http://www.w3.org/2000/svg">
<path d="M15.6 19H5.12727C3.94909 19 3 18.0182 3 16.8236V3.17636C3 1.98182 3.94909 1 5.12727 1H15.6C16.7782 1 17.7273 1.98182 17.7273 3.17636V16.8073C17.7273 18.0182 16.7782 19 15.6 19ZM5.12727 2.63636C4.84909 2.63636 4.63636 2.88182 4.63636 3.17636V16.8073C4.63636 17.1182 4.84909 17.3636 5.12727 17.3636H15.6C15.8782 17.3636 16.0909 17.1182 16.0909 16.8236V3.17636C16.0909 2.88182 15.8782 2.63636 15.6 2.63636H5.12727Z" fill="#8F989D"/>
<path d="M10.3636 16.2506C10.8335 16.2506 11.2145 15.8697 11.2145 15.3997C11.2145 14.9298 10.8335 14.5488 10.3636 14.5488C9.89366 14.5488 9.5127 14.9298 9.5127 15.3997C9.5127 15.8697 9.89366 16.2506 10.3636 16.2506Z" fill="#8F989D"/>
<path d="M16.9091 13.5509H3.81818C3.36 13.5509 3 13.1746 3 12.7327C3 12.2909 3.36 11.9146 3.81818 11.9146H16.9091C17.3673 11.9146 17.7273 12.2746 17.7273 12.7327C17.7273 13.1909 17.3673 13.5509 16.9091 13.5509Z" fill="#8F989D"/>
</svg>
