<svg width="14" height="20" viewBox="0 0 14 20" fill="none" xmlns="http://www.w3.org/2000/svg">
<path d="M11.6647 15.4545H1.66639V2.72727H11.6647V15.4545ZM8.57001 18.1818H4.76112V17.2727H8.57001V18.1818ZM10.4745 0H2.85667C2.09903 0 1.37243 0.287337 0.836699 0.7988C0.30097 1.31026 0 2.00396 0 2.72727V17.2727C0 17.996 0.30097 18.6897 0.836699 19.2012C1.37243 19.7127 2.09903 20 2.85667 20H10.4745C11.2321 20 11.9587 19.7127 12.4944 19.2012C13.0302 18.6897 13.3311 17.996 13.3311 17.2727V2.72727C13.3311 2.00396 13.0302 1.31026 12.4944 0.7988C11.9587 0.287337 11.2321 0 10.4745 0Z" fill="#3366FF"/>
</svg>
