<svg width="51" height="45" viewBox="0 0 51 45" fill="none" xmlns="http://www.w3.org/2000/svg">
<path d="M5.11645 5H12.6456L17.665 0H32.7232L37.7426 5H45.2717C46.6029 5 47.8796 5.52678 48.8209 6.46447C49.7623 7.40215 50.2911 8.67392 50.2911 10V40C50.2911 41.3261 49.7623 42.5979 48.8209 43.5355C47.8796 44.4732 46.6029 45 45.2717 45H5.11645C3.78522 45 2.50852 44.4732 1.5672 43.5355C0.625874 42.5979 0.0970459 41.3261 0.0970459 40V10C0.0970459 8.67392 0.625874 7.40215 1.5672 6.46447C2.50852 5.52678 3.78522 5 5.11645 5ZM25.1941 12.5C21.866 12.5 18.6742 13.817 16.3209 16.1612C13.9676 18.5054 12.6456 21.6848 12.6456 25C12.6456 28.3152 13.9676 31.4946 16.3209 33.8388C18.6742 36.183 21.866 37.5 25.1941 37.5C28.5221 37.5 31.7139 36.183 34.0672 33.8388C36.4205 31.4946 37.7426 28.3152 37.7426 25C37.7426 21.6848 36.4205 18.5054 34.0672 16.1612C31.7139 13.817 28.5221 12.5 25.1941 12.5ZM25.1941 17.5C27.1909 17.5 29.106 18.2902 30.518 19.6967C31.9299 21.1032 32.7232 23.0109 32.7232 25C32.7232 26.9891 31.9299 28.8968 30.518 30.3033C29.106 31.7098 27.1909 32.5 25.1941 32.5C23.1972 32.5 21.2822 31.7098 19.8702 30.3033C18.4582 28.8968 17.665 26.9891 17.665 25C17.665 23.0109 18.4582 21.1032 19.8702 19.6967C21.2822 18.2902 23.1972 17.5 25.1941 17.5Z" fill="#CCCCCC"/>
</svg>
