<svg width="150" height="78" viewBox="0 0 150 78" fill="none" xmlns="http://www.w3.org/2000/svg">
<g clip-path="url(#clip0)">
<path d="M148.167 40.3677C149.155 40.3677 150 39.5955 150 38.5439C150 37.5054 149.155 36.7329 148.167 36.7329C147.166 36.7329 146.317 37.5054 146.317 38.5439C146.317 39.5955 147.166 40.3677 148.167 40.3677ZM133.061 35.0786C136.266 34.9432 138.992 37.4392 139.126 40.6435C139.259 43.8496 136.751 46.5747 133.547 46.7095C130.343 46.8431 127.627 44.3371 127.495 41.1307C127.36 37.9243 129.856 35.2131 133.061 35.0786ZM132.891 31.7817C132.92 32.4751 132.672 33.1515 132.203 33.6623C131.733 34.1731 131.079 34.4763 130.386 34.5053C128.944 34.5639 127.723 33.4443 127.665 32.0002C127.604 30.5566 128.727 29.338 130.171 29.2777C131.612 29.2174 132.833 30.3367 132.891 31.7817ZM139.485 31.9493C139.514 32.6428 139.266 33.3192 138.796 33.83C138.326 34.3408 137.672 34.6442 136.979 34.6735C135.535 34.7347 134.316 33.6119 134.256 32.1699C134.196 30.7269 135.316 29.5062 136.759 29.4445C138.205 29.3853 139.425 30.5066 139.485 31.9493ZM144.371 36.2306C144.432 37.6709 143.311 38.8919 141.867 38.9513C140.424 39.0122 139.204 37.8909 139.144 36.4485C139.129 36.1053 139.182 35.7625 139.3 35.4398C139.418 35.1171 139.598 34.8208 139.831 34.5678C140.063 34.3148 140.343 34.1101 140.655 33.9653C140.966 33.8205 141.303 33.7385 141.646 33.724C143.091 33.6649 144.307 34.7853 144.371 36.2306ZM145.436 42.6162C145.495 44.0624 144.374 45.2807 142.929 45.3399C141.486 45.4016 140.268 44.2815 140.207 42.8368C140.146 41.3917 141.27 40.1746 142.713 40.1125C144.156 40.0534 145.376 41.1738 145.436 42.6162Z" fill="#253C5E"/>
<path d="M146.682 38.5429C146.682 37.6832 147.333 37.0352 148.167 37.0352C148.986 37.0352 149.637 37.6829 149.637 38.5429C149.637 39.4191 148.986 40.0595 148.167 40.0595C147.334 40.0592 146.682 39.4188 146.682 38.5429Z" fill="#253C5E"/>
<path d="M147.783 38.6872H148.145L148.7 39.5957H149.056L148.458 38.6724C148.763 38.6369 149.002 38.4705 149.002 38.0959C149.002 37.6844 148.755 37.5059 148.269 37.5059H147.464V39.5957H147.784V38.6872H147.783Z" fill="white"/>
<path d="M147.783 38.4185V37.7676H148.214C148.431 37.7676 148.669 37.8205 148.669 38.0812C148.669 38.3984 148.428 38.4188 148.161 38.4188H147.783V38.4185Z" fill="#253C5E"/>
<path d="M71.479 37.4381C68.1937 37.4381 66.6644 39.7233 66.1208 40.8112V37.6226H61.9953V48.8938H66.1208V42.6252C67.23 39.5108 69.6932 39.1687 69.6932 39.1687C71.6023 38.9849 71.7268 40.5842 71.7268 40.5842V48.832H75.9756V40.7642C75.9756 37.0677 71.479 37.4381 71.479 37.4381ZM82.9226 49.0433C86.2076 49.0433 87.7378 46.7578 88.282 45.6705V48.858H92.4072V37.5886H88.282V43.8574C87.1717 46.9707 84.7079 47.3124 84.7079 47.3124C82.8002 47.4972 82.6781 45.8955 82.6781 45.8955V37.6501H78.426V45.719C78.426 49.4138 82.9226 49.0433 82.9226 49.0433ZM19.7531 49.0433C23.0366 49.0433 24.5686 46.7578 25.1119 45.6705V48.858H29.2383V37.5886H25.1119V43.8574C24.001 46.9707 21.5399 47.3124 21.5399 47.3124C19.6298 47.4972 19.5074 45.8955 19.5074 45.8955V37.6501H15.2568V45.719C15.2568 49.4138 19.7531 49.0433 19.7531 49.0433ZM4.52313 46.8622V41.2092H13.5691V39.3993H4.52313V34.2737H14.04V32.541H0V48.6714H14.2671V46.8622H4.52313ZM46.8886 48.8219L39.7264 42.2643L46.1333 37.5904H41.5359C41.5359 37.5904 37.4279 40.9325 36.034 42.0538V32.541H31.8127V48.8219H36.034V43.2268L41.8384 48.8219H46.8886Z" fill="#253C5E"/>
<path d="M53.5214 37.4406C53.5214 37.4406 46.6116 37.1148 46.6368 40.9151H51.2048C51.2048 40.9151 50.9843 38.3703 53.5462 38.3703C53.5462 38.3703 55.6061 38.2444 55.6061 40.4554V42.6123C54.3961 42.5756 46.0405 42.4695 46.1091 46.3618C46.1091 46.3618 46.2099 49.1253 50.8084 49.0502C50.8084 49.0502 53.9471 49.0635 55.6061 47.0787V48.8235H59.7786V40.6582C59.7786 40.6579 60.155 37.4406 53.5214 37.4406Z" fill="#253C5E"/>
<path d="M52.5671 47.5412C52.5671 47.5412 50.4052 47.6443 50.2305 46.1854C50.2305 46.1854 49.7773 44.3513 53.5217 43.698C53.5217 43.698 54.6324 43.6229 55.6065 43.6613V45.2376C55.3685 46.0589 54.6613 47.3254 52.5671 47.5412Z" fill="white"/>
<path d="M117.276 37.4406C117.276 37.4406 110.365 37.1148 110.39 40.9151H114.957C114.957 40.9151 114.738 38.3703 117.302 38.3703C117.302 38.3703 119.363 38.2444 119.363 40.4554V42.6123C118.15 42.5756 109.794 42.4695 109.864 46.3618C109.864 46.3618 109.963 49.1253 114.563 49.0502C114.563 49.0502 117.699 49.0635 119.362 47.0787V48.8235H123.533V40.6582C123.533 40.6579 123.908 37.4406 117.276 37.4406Z" fill="#253C5E"/>
<path d="M116.321 47.5412C116.321 47.5412 114.161 47.6443 113.984 46.1854C113.984 46.1854 113.532 44.3513 117.276 43.698C117.276 43.698 118.385 43.6229 119.363 43.6613V45.2376C119.122 46.0589 118.414 47.3254 116.321 47.5412Z" fill="white"/>
<path d="M103.557 37.493C100.476 37.493 99.2493 38.9591 98.8351 39.6641V32.7109H94.657V44.6366C94.657 49.4814 101.862 49.2399 101.862 49.2399C104.284 49.2399 109.37 48.9368 109.37 43.1854C109.37 37.433 103.557 37.493 103.557 37.493Z" fill="#253C5E"/>
<path d="M101.923 39.1889C100.223 39.2424 98.9561 40.338 98.9561 43.6671C98.9561 47.3613 100.283 48.1479 101.923 48.1479C103.562 48.1479 104.889 46.694 104.889 43.6671C104.889 40.5204 103.605 39.1377 101.923 39.1889Z" fill="white"/>
</g>
<defs>
<clipPath id="clip0">
<rect width="150" height="77.7439" fill="white"/>
</clipPath>
</defs>
</svg>
