<svg width="164" height="85" viewBox="0 0 164 85" fill="none" xmlns="http://www.w3.org/2000/svg">
<path d="M91.0233 38.1003C92.1329 38.1003 93.0325 37.2008 93.0325 36.0912C93.0325 34.9816 92.1329 34.082 91.0233 34.082C89.9137 34.082 89.0142 34.9816 89.0142 36.0912C89.0142 37.2008 89.9137 38.1003 91.0233 38.1003Z" fill="#253C5E"/>
<path d="M92.9322 33.8581C94.0418 33.8581 94.9414 32.9586 94.9414 31.849C94.9414 30.7394 94.0418 29.8398 92.9322 29.8398C91.8226 29.8398 90.9231 30.7394 90.9231 31.849C90.9231 32.9586 91.8226 33.8581 92.9322 33.8581Z" fill="#253C5E"/>
<path d="M48.9252 51.5998C48.9252 55.69 45.6091 59.0048 41.5181 59.0048C37.4278 59.0048 34.1138 55.69 34.1138 51.5998C34.1138 47.5088 37.4278 44.1934 41.5181 44.1934C45.6084 44.1934 48.9252 47.5088 48.9252 51.5998ZM41.5449 47.6247C39.3499 47.6247 37.5705 49.4048 37.5705 51.5998C37.5705 53.7947 39.3499 55.5748 41.5449 55.5748C43.7398 55.5748 45.5199 53.7947 45.5199 51.5998C45.5199 49.4048 43.7398 47.6247 41.5449 47.6247Z" fill="#253C5E"/>
<path d="M109.605 57.485C109.605 57.485 109.414 58.7831 111.217 58.9408C111.217 58.9408 112.639 58.9943 112.824 57.4836V50.5771C112.826 50.501 112.956 50.4119 113 50.4832L117.316 58.2256C117.316 58.2256 117.82 58.9545 118.855 58.9154C118.855 58.9154 120.525 59.0608 121.015 57.4836L121.046 56.9803V45.3746C120.44 43.7406 118.391 43.7316 117.875 45.3664V52.1666C117.875 52.1666 117.885 52.4059 117.74 52.3799C116.336 50.0087 115.101 47.5134 113.62 45.0818C113.17 44.344 111.908 43.9106 111.039 44.2727C110.131 44.6512 109.89 45.2347 109.748 45.498C109.748 45.498 109.572 45.7634 109.572 46.1076V57.4034" fill="#253C5E"/>
<path d="M97.2683 57.2759V45.3191C97.3869 43.9998 98.8262 44.0307 98.7899 44.0293C99.3124 44.0403 99.8068 44.065 100.376 44.7884C101.486 46.203 102.447 47.5031 103.532 48.9685C105.491 51.6229 107.2 53.9091 109.1 56.643C109.376 57.0407 109.233 57.4967 109.089 57.8862C108.851 58.5328 108.16 58.8634 107.529 58.9011C107.275 58.9182 106.925 58.8586 106.692 58.6343C106.044 58.009 105.349 56.896 104.642 55.9765C104.64 55.9765 100.604 55.9504 100.599 55.9868C100.582 56.128 100.558 57.0702 100.438 57.6887C100.248 58.6556 99.4241 58.8133 98.9942 58.8908C98.9311 58.9024 99.0827 58.8819 98.997 58.888C98.3928 58.9306 97.404 58.6405 97.2676 57.2814L97.2683 57.2759ZM102.133 52.7536C102.296 52.744 102.262 52.5795 102.207 52.5061C101.651 51.76 101.177 51.0853 100.598 50.3221C100.584 51.0716 100.559 51.9918 100.587 52.7667C100.588 52.792 101.277 52.7674 101.294 52.7639C101.449 52.7413 101.838 52.7715 102.133 52.7536Z" fill="#253C5E"/>
<path d="M129.033 57.3952C129.033 57.3952 128.84 58.6932 130.644 58.8516C130.644 58.8516 132.065 58.9044 132.252 57.3924V50.4859C132.254 50.4112 132.383 50.3213 132.427 50.3933L136.744 58.1344C136.744 58.1344 137.247 58.8647 138.281 58.8256C138.281 58.8256 139.952 58.9709 140.441 57.3924L140.473 56.8891V45.2841C139.867 43.6507 137.82 43.6411 137.301 45.2752V52.0761C137.301 52.0761 137.313 52.314 137.167 52.2887C135.762 49.9181 134.528 47.4228 133.047 44.9927C132.598 44.2541 131.334 43.8208 130.465 44.1828C129.558 44.5607 129.317 45.1449 129.175 45.4068C129.175 45.4068 129 45.6722 129 46.0171V57.3129" fill="#253C5E"/>
<path d="M123.202 45.8418V57.191C123.202 57.191 123.123 58.8621 124.872 58.8621C126.623 58.8621 126.649 57.2445 126.649 57.2445" fill="#253C5E"/>
<path d="M126.663 57.2586V45.9101C126.663 45.9101 126.741 44.2383 124.991 44.2383C123.242 44.2383 123.215 45.8559 123.215 45.8559" fill="#253C5E"/>
<path d="M25.386 46.236C26.0649 45.3453 27.4788 44.5135 28.7844 44.3407C30.0311 44.1768 30.819 44.5931 30.9774 44.6465C32.9364 45.3048 34.2626 47.5622 34.0014 49.7956C33.8457 51.1245 33.0585 52.3252 32.0786 53.1919C33.0222 55.284 34.7913 56.6527 34.5108 57.6895C34.3175 58.4088 34.1193 58.594 33.4857 58.8696C33.0825 59.0452 32.4983 58.9985 32.1602 58.7105C30.5172 57.3124 29.6512 55.2916 28.2681 53.8454C27.9246 53.4881 27.7703 53.6479 27.771 53.842C27.7771 55.5364 27.7902 56.7967 27.7038 57.6244C27.6503 58.1201 27.1812 58.6934 26.8631 58.8518C25.9792 59.2948 24.7799 58.7606 24.6242 57.7649C24.5961 57.5894 24.3691 56.82 24.3547 53.3215C24.3479 51.5887 24.2114 51.2081 24.3177 48.4612C24.3438 47.8543 24.7689 47.0459 25.386 46.236ZM29.1492 50.7089C30.0914 50.7089 30.8546 50.0047 30.8546 49.1339C30.8546 48.2644 30.0914 47.5601 29.1492 47.5601C28.2064 47.5601 27.4418 48.2644 27.4418 49.1339C27.4418 50.0047 28.2064 50.7089 29.1492 50.7089Z" fill="#253C5E"/>
<path d="M73.1386 41.5847C72.8554 41.7396 72.5311 41.9193 72.2067 41.7979C71.7987 41.645 71.8008 41.0471 72.0668 40.8996C78.5112 37.3428 85.5857 38.3872 89.6485 40.9648C89.7418 41.0231 90.1258 41.4167 89.8261 41.7506C89.6719 41.9262 89.3009 41.9378 88.982 41.7719C83.2207 38.7726 77.9791 38.9495 73.1386 41.5847Z" fill="#253C5E"/>
<path d="M73.2551 38.0094C75.1655 37.179 77.1465 36.7332 79.201 36.5721C80.9063 36.4384 82.5534 36.5399 84.2924 36.8183C86.0464 37.0994 87.5811 37.6576 89.1486 38.3748C89.6766 38.6148 90.1923 38.8562 90.6839 39.2457C91.0419 39.5303 91.0131 39.8416 90.9308 40.1241C90.7676 40.685 90.1141 40.6343 89.7226 40.408C84.1868 37.2016 77.5326 37.5355 71.9523 40.3908C71.6115 40.5657 71.0231 40.5918 70.8421 40.1262C70.5815 39.4569 71.1445 39.0112 71.6759 38.667C71.7548 38.6169 71.6019 38.7122 71.6773 38.6711C72.5063 38.226 72.8108 38.202 73.2551 38.0094Z" fill="#253C5E"/>
<path d="M68.5175 33.8587C69.6267 33.8587 70.526 32.9595 70.526 31.8503C70.526 30.741 69.6267 29.8418 68.5175 29.8418C67.4083 29.8418 66.509 30.741 66.509 31.8503C66.509 32.9595 67.4083 33.8587 68.5175 33.8587Z" fill="#253C5E"/>
<path d="M70.6061 38.1003C71.7157 38.1003 72.6152 37.2008 72.6152 36.0912C72.6152 34.9816 71.7157 34.082 70.6061 34.082C69.4964 34.082 68.5969 34.9816 68.5969 36.0912C68.5969 37.2008 69.4964 38.1003 70.6061 38.1003Z" fill="#253C5E"/>
<path d="M75.485 36.403C76.5946 36.403 77.4941 35.5035 77.4941 34.3939C77.4941 33.2843 76.5946 32.3848 75.485 32.3848C74.3754 32.3848 73.4758 33.2843 73.4758 34.3939C73.4758 35.5035 74.3754 36.403 75.485 36.403Z" fill="#253C5E"/>
<path d="M74.4249 31.737C75.5345 31.737 76.4341 30.8375 76.4341 29.7279C76.4341 28.6183 75.5345 27.7188 74.4249 27.7188C73.3153 27.7188 72.4158 28.6183 72.4158 29.7279C72.4158 30.8375 73.3153 31.737 74.4249 31.737Z" fill="#253C5E"/>
<path d="M80.6827 35.5548C81.7927 35.5548 82.6925 34.655 82.6925 33.545C82.6925 32.435 81.7927 31.5352 80.6827 31.5352C79.5727 31.5352 78.6729 32.435 78.6729 33.545C78.6729 34.655 79.5727 35.5548 80.6827 35.5548Z" fill="#253C5E"/>
<path d="M80.6827 30.9943C81.7927 30.9943 82.6925 30.0944 82.6925 28.9844C82.6925 27.8744 81.7927 26.9746 80.6827 26.9746C79.5727 26.9746 78.6729 27.8744 78.6729 28.9844C78.6729 30.0944 79.5727 30.9943 80.6827 30.9943Z" fill="#253C5E"/>
<path d="M85.986 36.1921C87.0956 36.1921 87.9951 35.2926 87.9951 34.183C87.9951 33.0734 87.0956 32.1738 85.986 32.1738C84.8763 32.1738 83.9768 33.0734 83.9768 34.183C83.9768 35.2926 84.8763 36.1921 85.986 36.1921Z" fill="#253C5E"/>
<path d="M86.94 31.737C88.0497 31.737 88.9492 30.8375 88.9492 29.7279C88.9492 28.6183 88.0497 27.7188 86.94 27.7188C85.8304 27.7188 84.9309 28.6183 84.9309 29.7279C84.9309 30.8375 85.8304 31.737 86.94 31.737Z" fill="#253C5E"/>
<path d="M49.6199 44.3463C50.3962 44.6466 50.7658 45.2631 51.2739 45.7959C52.1537 46.7195 52.91 47.6534 53.8645 48.5058C53.9249 48.56 54.0997 48.56 54.1457 48.5058C55.358 47.0658 56.329 45.6066 57.8156 44.4429C58.6261 43.808 59.9482 44.2701 60.1998 45.3453C60.3219 45.8692 60.147 46.3527 59.8618 46.7291C58.4472 48.5949 57.0744 50.1357 55.6522 51.8918C55.6124 53.8276 55.8812 55.7867 55.609 57.7417C55.5089 58.4665 54.7237 58.88 54.0634 58.8566C53.6039 58.8409 53.1157 58.6098 52.8051 58.1627C52.6481 57.935 52.5274 57.6649 52.5171 57.431C52.4458 55.592 52.3601 53.7584 52.3649 51.9179C50.3283 49.3197 47.6314 47.0322 47.5203 46.0763C47.3907 44.9819 48.2053 43.7991 49.6199 44.3463Z" fill="#253C5E"/>
<path d="M73.6625 55.3655V45.7024C73.6522 43.2373 70.2654 43.6377 70.3813 45.6455V57.6722C70.3813 57.6722 70.3813 58.6748 71.5882 58.5815H76.9429C76.9429 58.5815 78.4817 58.6144 78.5742 57.0894C78.5742 57.0894 78.5612 55.7632 77.3022 55.4848L73.8284 55.4711C73.8284 55.4711 73.6028 55.4183 73.6563 55.1804" fill="#253C5E"/>
<path d="M68.3563 57.241C68.2212 58.5994 67.2304 58.8888 66.6276 58.8477C66.5412 58.8415 66.6935 58.8627 66.629 58.8511C66.1984 58.7729 65.3755 58.6145 65.1863 57.649C65.0649 57.0298 65.0416 56.0877 65.0237 55.9464C65.0196 55.9114 60.9835 55.9361 60.9801 55.9361C60.2745 56.8563 59.5799 57.9686 58.9325 58.5933C58.6994 58.8182 58.3504 58.8785 58.0946 58.8627C57.4651 58.8216 56.7732 58.4918 56.5346 57.8458C56.3906 57.457 56.2487 57.0003 56.5243 56.6026C58.4244 53.8694 60.1332 51.5839 62.0937 48.9288C63.1764 47.4621 64.1392 46.1633 65.2493 44.748C65.8178 44.0239 66.3129 43.9992 66.834 43.9903C66.7984 43.9903 68.237 43.9601 68.357 45.2794V57.2369L68.3563 57.241ZM64.3277 52.7242C64.3449 52.727 65.0333 52.7503 65.0347 52.7256C65.0628 51.9501 65.0381 51.0285 65.0237 50.2817C64.445 51.0435 63.9712 51.719 63.4151 52.465C63.3595 52.5384 63.3266 52.7037 63.4884 52.7126C63.7853 52.7304 64.1735 52.6995 64.3277 52.7242Z" fill="#253C5E"/>
<path d="M83.5867 50.6643C83.9151 48.0524 85.6665 45.8451 87.9958 44.8528C90.8025 43.657 94.1631 44.329 96.1222 46.7722C96.5467 47.3002 96.4185 48.0003 96.0242 48.5303C95.6134 49.081 94.9593 49.3648 94.3716 49.1358C93.3766 48.7491 92.6916 47.859 91.5862 47.6293C89.3124 47.1555 87.1689 48.6716 86.8411 50.8851C86.5154 53.0883 87.7737 55.1989 90.0098 55.624C91.5794 55.9223 92.8137 55.0727 94.1035 54.1635C94.7138 53.7335 95.7382 53.9488 96.1181 54.7182C96.3458 55.1797 96.5206 55.6768 96.2395 56.174C95.1828 58.0384 93.0386 58.707 91.0589 58.8983C89.5407 59.0458 88.1529 58.5171 86.8534 57.7251C84.4699 56.2707 83.2294 53.4997 83.5867 50.6643Z" fill="#253C5E"/>
</svg>
