<svg id="Layer_1" data-name="Layer 1" xmlns="http://www.w3.org/2000/svg" viewBox="0 0 141.72 141.73"><defs><style>.cls-1{fill:#fff;}.cls-2{fill:#005ead;}</style></defs><circle class="cls-1" cx="70.86" cy="70.87" r="69.45"/><path class="cls-2" d="M78.41,126.61c-.58.46-.86.14-1-.21a2.11,2.11,0,0,1-.09-.49c-.06-.69-.13-1.36-.15-2a8.89,8.89,0,0,1,.1-1.25c.09-.6.19-1.2.29-1.81s.27-1.48.38-2.23c.2-1.34.37-2.7.56-4a1.63,1.63,0,0,1,.36-1,.94.94,0,0,1,.85.87,2.85,2.85,0,0,1-.07.87,2.44,2.44,0,0,0,.08,1.44c.06.14.09.29.15.43a2.67,2.67,0,0,1-.45,2.72,2.93,2.93,0,0,0-.62,1.26S78.53,126.51,78.41,126.61Z" transform="translate(-8.51 -8.5)"/><path class="cls-2" d="M78.32,108.38a5,5,0,0,1,.3-.72,4.9,4.9,0,0,0,.53-2.25.72.72,0,0,0-.48-.75,2.6,2.6,0,0,0-.36-.13c-.74-.22-.88-.62-.45-1.28s1-1.57,1.52-2.35c.15-.24.72-.49.72-.36a1.1,1.1,0,0,0,.68,1,.71.71,0,0,1,.44.92,2.41,2.41,0,0,1-.07.37c-.3,1.05-.57,2.12-.92,3.16a9.26,9.26,0,0,1-.77,1.66,2.71,2.71,0,0,1-.71.68c-.08.08-.24.06-.36.08l-.07-.08" transform="translate(-8.51 -8.5)"/><path class="cls-2" d="M82.84,111.67c-.07.23-.13.49-.4.54a.56.56,0,0,1-.59-.38,6,6,0,0,1-.37-1.23,11.73,11.73,0,0,1-.06-1.33,2.83,2.83,0,0,1,0-.29.65.65,0,0,1,.42-.61.68.68,0,0,1,.7.37,1.53,1.53,0,0,1,.24.61c.07.74,0,2.3,0,2.32" transform="translate(-8.51 -8.5)"/><path class="cls-2" d="M100,50.81a3.52,3.52,0,0,1,.29.42c.16.29.32.59.46.89a5,5,0,0,0,.93,1.43,1.5,1.5,0,0,1,.48,1.33c-.08.51-.26.13-.77.06s-1.64-1.06-2.16-.83c-.79.35-1.34.47-2.16.75-1,.36-1.77,1.1-2.85,1S92.73,57,92.41,58.12l-.12.4a1,1,0,0,1-1.74.38,1,1,0,0,1-.2-1.34,4.82,4.82,0,0,0,.72-2.29.87.87,0,0,1,.65-.78c.59-.2.72-.42.51-1s-.42-.91-.6-1.38A5.63,5.63,0,0,1,91.26,51a.75.75,0,0,1,.21-.58c.18-.19.42-.05.61.08.4.3.81.59,1.18.93.9.81,1.34.8,2.19-.06a10.56,10.56,0,0,1,1.28-1.13,2.76,2.76,0,0,1,1-.41.82.82,0,0,1,.92.5,2.46,2.46,0,0,0,.33.53c.29.38.44.39.81.08l.17-.09" transform="translate(-8.51 -8.5)"/><path class="cls-2" d="M57.4,68.62a2.6,2.6,0,0,1-.1.5,6.16,6.16,0,0,1-1.42,2.15,4.68,4.68,0,0,0-1.35,2.85c0,.24-.1.47-.12.7a1.52,1.52,0,0,1-1.1,1.34,4.76,4.76,0,0,0-.65.29,2.09,2.09,0,0,0-1,1,8.74,8.74,0,0,1-2.31,2.68.61.61,0,0,1-.71.18,1.39,1.39,0,0,1,.24-1.21c.38-.58.81-1.13,1.17-1.73a18.1,18.1,0,0,1,3.13-3.41,7.63,7.63,0,0,0,2.14-3.1,4.8,4.8,0,0,1,1.58-2.07c.12-.09.28-.13.41-.21l.1.08" transform="translate(-8.51 -8.5)"/><path class="cls-2" d="M79.19,56.26a7.1,7.1,0,0,1-.79-.14.85.85,0,0,1-.68-1A1.43,1.43,0,0,1,78.37,54c.32-.2.6-.15.71.19a1.87,1.87,0,0,0,1,1.08,1.3,1.3,0,0,1,.22.19.45.45,0,0,1-.27.79,5.6,5.6,0,0,1-.82,0" transform="translate(-8.51 -8.5)"/><path class="cls-2" d="M86.05,61.24a1.46,1.46,0,0,1,.76-.89,5.07,5.07,0,0,1,2.24-.73c.09,0,.21,0,.29,0s.37.19.41.33a.68.68,0,0,1-.14.52,1,1,0,0,1-.49.29q-1.2.3-2.4.54a2.13,2.13,0,0,1-.67-.08" transform="translate(-8.51 -8.5)"/><path class="cls-2" d="M70.3,61.33c.61.08.78.44.46.86a1.23,1.23,0,0,1-.54.45,7.67,7.67,0,0,1-1.57.39c-.52.07-.75-.32-.47-.77a1.75,1.75,0,0,1,.51-.54,3.09,3.09,0,0,1,1.61-.39" transform="translate(-8.51 -8.5)"/><path class="cls-2" d="M67.66,54.7s.6-.33.6,0a1.19,1.19,0,0,0,.23.78c.22.4.25.69.15.84s-.31.13-.51,0-.39-.15-.52-.41a1.44,1.44,0,0,1-.25-.64c0-.21.09-.31.3-.53M40.47,86.6a1.6,1.6,0,0,0-.93.84c-.12.23-.24.49-.58.52-.05,0-.09-.07-.1-.1a2,2,0,0,1,.78-2.32,5.93,5.93,0,0,1,.72-.34.48.48,0,0,1,.69.5.79.79,0,0,1-.58.9m80.18-27.45c-3.56-4.53-5.65-6.71-6-7.46a13,13,0,0,0-2.79-2.37,10.52,10.52,0,0,1-1.5-1.18,23.5,23.5,0,0,1-2.08-1.61,6.59,6.59,0,0,1-1.62-1.91,9.94,9.94,0,0,0-2-2.55,6.36,6.36,0,0,0-2.7-1.34,1,1,0,0,0-.42,0A11.51,11.51,0,0,0,100,41a7.36,7.36,0,0,1-2.54.42,5.78,5.78,0,0,1-3.37-1,5.79,5.79,0,0,0-3.82-1.1c-.76,0-1.49.19-2.24.28s-1.47.17-2.2.27c-.54.07-1.07.17-1.6.27a16,16,0,0,0-2.42.49c-1.05.38-2,.9-3.05,1.37-.39.18-.77.39-1.16.59-1,.5-2,1-3,1.49a17.65,17.65,0,0,1-2.15,1,17.68,17.68,0,0,0-4.94,2.5,10.48,10.48,0,0,0-1.28,1.12c-.47.5-.85,1.07-1.29,1.6s-1.12,1.31-1.68,2A33.08,33.08,0,0,0,61.16,55c-.52.79-3.16,4-3.88,4.9-.29.36-.61.72-.89,1.11-.59.8-2.11,2.82-2.29,3-.35.43-.71.85-1.05,1.3-.55.73-3.16,3.73-3.88,4.52-.9,1-1.73,2-2.62,3a25.44,25.44,0,0,0-2.66,3.39c-.57.9-1.15,1.78-1.66,2.72a14.47,14.47,0,0,1-2.14,3.17,13.65,13.65,0,0,0-2,2.71,8.25,8.25,0,0,0-.9,3.29,1.2,1.2,0,0,0,.46,1.16,4.62,4.62,0,0,0,1.13.62,10.2,10.2,0,0,0,5.37.15,11,11,0,0,1,4.65-.1,4.55,4.55,0,0,0,3.91-.84,49.48,49.48,0,0,0,4.47-3.49c.53-.53,1.1-1,1.68-1.5s1.17-.84,1.73-1.3c1.43-1.16,2.85-2.33,4.25-3.53s4.65-3.56,4.71-3.6c1.54-.82,3-1.79,4.59-2.5,2.15-.94,4.2-1.74,7-.94s3.63,5.83,3.17,7.1a8.81,8.81,0,0,1-1.52,3.26c-.58.6-4.07,6.42-4,8.45v0a8.6,8.6,0,0,0,.22,3c.32,1.06.55,2.13.83,3.2a3.58,3.58,0,0,0,.3.62,8.07,8.07,0,0,0,.43-.89,1.88,1.88,0,0,0,.14-1.62c-.21-.66-.5-4.64.26-5s1.24-.16,1.24.78l0,3.42c0,1.11,0,2.21,0,3.31,0,.66.08,1.31.15,2,0,.2.59.1.63-.13.13-.86.26-1.74.33-2.61,0-.69,0-1.4,0-2.09a15.86,15.86,0,0,1,.73-3.86,8.45,8.45,0,0,1,1.3-3.11,3.8,3.8,0,0,0,.85-2c.07-.59,1.7-.19,2-.21a.91.91,0,0,0,.89-.93c0-.19-.23-1.85-.26-2.5s.34-1.25,1.1-1.08c.41.09.6-.16.51-.57a48.55,48.55,0,0,0-2.33-5.56c-.32-.31-3.39-3.56-5.64-4.79-2-1.12-8.21.61-9.72,1.85-.92.74-3.21,2.14-4.62,3.23-.5.39-1,.8-1.46,1.19-.25.2-2.44,2-2.77,2.28-.67.46-1.33.91-2,1.33-.33.2-1.54,1-1.9,1.18-.19.07-.38.1-.52-.13A16.87,16.87,0,0,1,61.71,79c.45-.28,1-.57,1.45-.84C64,77.68,65,76.51,65.78,76c.11-.07-.06-.62-.2-.65-.63-.13-1.14.9-1.68,1.28-1,.75-2.08,1.55-3.15,2.34-.26.2-1.87,1.52-2.42,2-1.13.93-2.13,2-3.18,3a39.92,39.92,0,0,1-4,2.9,7.36,7.36,0,0,1-3.54,1,5.66,5.66,0,0,1-.92,0c-.56,0-.74-.36-.52-.85a3.67,3.67,0,0,0,.22-1.72,4.81,4.81,0,0,1-.2-1.07,1.71,1.71,0,0,1,.35-1.33,1,1,0,0,0,.17-.69c-.07-.26-.39-.25-.64-.27-.41,0-1.83.41-2.15.4a.79.79,0,0,1-.83-1A6,6,0,0,1,43.47,80a12,12,0,0,1,2.36-4.16c.86-.93,1.68-1.91,2.45-2.91s1.48-1.81,2.24-2.7c.92-1,1.56-1.89,2.38-3,.2-.27,1.14-1.6,1.32-1.84A6.56,6.56,0,0,1,55.28,64c.17-.17,2.07-2.83,2.28-3.17a37.84,37.84,0,0,1,2.36-3.14,19.81,19.81,0,0,1,1.88-2.11c.72-.68,1.3-1.5,2-2.23.47-.51,1-1,1.5-1.45a.72.72,0,0,1,.89-.14.74.74,0,0,1,.28.82,3,3,0,0,1-.29.83A6.81,6.81,0,0,0,65.25,56a1.86,1.86,0,0,1-.47,1.09c-.3.34-.62.68-.91,1-.69.84-1.38,1.69-2,2.55a5.32,5.32,0,0,0-.55,1,1.58,1.58,0,0,0-.06.45l.12,0a3.18,3.18,0,0,0,.35-.26,11.3,11.3,0,0,0,.78-.93,2,2,0,0,1,1.65-.91,1,1,0,0,0,1.09-1c.19-.87.36-1.3,1.6-.88a5.54,5.54,0,0,0,2.35.29,3,3,0,0,0,1.19-.31,4.4,4.4,0,0,1,2.12-.54c.56,0,1.11-.12,1.66-.2a.64.64,0,0,0,.57-.53.73.73,0,0,0-.3-.78,1.44,1.44,0,0,0-.69-.22c-.36,0-.73,0-1.09,0a1.05,1.05,0,0,1-.82-.25A10.71,10.71,0,0,1,71,54.9a2.17,2.17,0,0,1-.55-1.74c0-.33.07-.67.09-1A1.21,1.21,0,0,0,70,51a2,2,0,0,1-.41-.42.43.43,0,0,0-.59-.12l-.3.15a1,1,0,0,1-1.27-.33.79.79,0,0,1,.12-1.16,10.89,10.89,0,0,1,1.36-1.17,21,21,0,0,1,2-1.25c1-.5,1.94-.93,2.91-1.39.4-.2.8-.41,1.21-.58,1.7-.72,3.4-1.41,5.1-2.12A15.67,15.67,0,0,1,81.62,42a22.17,22.17,0,0,1,5.6-1.49c.13,0,.27-.06.41-.07a3.76,3.76,0,0,1,.58,0c.59,0,1.17.08,1.75.14a1.76,1.76,0,0,1,.45.12.66.66,0,0,1,.21,1.17c-.17.16-.37.29-.55.45a1.17,1.17,0,0,0-.46.77.57.57,0,0,0,.64.68,3.82,3.82,0,0,0,.56-.14c.83-.25,1.66-.51,2.49-.72a2.34,2.34,0,0,1,1,0,13.18,13.18,0,0,1,1.38.33.76.76,0,0,1,.65,1,1.75,1.75,0,0,1-1,1.35,8.8,8.8,0,0,1-1.43.45,2.29,2.29,0,0,0-1.14.49.66.66,0,0,0-.25.7.61.61,0,0,0,.59.4l1.46.15a2.54,2.54,0,0,0,2.24-1.15,1.11,1.11,0,0,0,.19-.5c.26-1.21.39-1.34,1.61-1.57h.08a.85.85,0,0,1,1.11.62c.1.23.18.47.3.69a.7.7,0,0,0,.77.39c.33-.07.44-.35.5-.65a2.41,2.41,0,0,0-.48-2.2.65.65,0,0,1,.11-1,5.6,5.6,0,0,1,1-.63,1.39,1.39,0,0,1,1.44.12,5.52,5.52,0,0,1,2,2.33,1,1,0,0,1,.13.48,10.09,10.09,0,0,0,0,2.33,1.55,1.55,0,0,1,0,.37c-.13.91-.57,1.07-1.31.53a1.68,1.68,0,0,0-.81-.38,5.89,5.89,0,0,1-1.81-.32.81.81,0,0,0-.41,0,2.9,2.9,0,0,0-.68.29.31.31,0,0,0-.08.44,1.64,1.64,0,0,0,1.76.75,2.32,2.32,0,0,1,2.34.48,6,6,0,0,1,1.28,1.19c.34.46.68.43,1.07,0,.14-.16.27-.33.42-.47a.79.79,0,0,1,.8-.22,4.35,4.35,0,0,1,2.13,1.17c.67.68,2.53,1.66,8.52,9.14S126.26,76,127.11,76,124.32,63.81,120.65,59.15Z" transform="translate(-8.51 -8.5)"/><path class="cls-2" d="M68.15,72.82a1.23,1.23,0,0,1-1.31,1.06c-.11-.51.26-.75.57-1a.51.51,0,0,1,.74,0" transform="translate(-8.51 -8.5)"/><path class="cls-2" d="M79.37,29.35c-27,0-49,22.44-49,50s22,50,49,50,49-22.44,49-50-22-50-49-50m0,101.43a51.41,51.41,0,1,1,51.4-51.41,51.47,51.47,0,0,1-51.4,51.41m0-120.19a68.78,68.78,0,1,0,68.78,68.78A68.86,68.86,0,0,0,79.37,10.59m0,139.65a70.87,70.87,0,1,1,70.86-70.87,70.95,70.95,0,0,1-70.86,70.87" transform="translate(-8.51 -8.5)"/><path class="cls-2" d="M67.32,138.36a1.3,1.3,0,0,0-.27-.11l-.27-.08a1.83,1.83,0,0,0-.52,0,1.18,1.18,0,0,0-.49.16,1.16,1.16,0,0,0-.4.42,2.14,2.14,0,0,0-.28.77,1.87,1.87,0,0,0,0,.69,1.18,1.18,0,0,0,.18.51,1,1,0,0,0,.36.32,1.28,1.28,0,0,0,.47.18,1.89,1.89,0,0,0,.63.07Zm.63,4.45a8.74,8.74,0,0,1-1-.06c-.36,0-.71-.1-1.06-.17a5.92,5.92,0,0,1-1.08-.35,2.4,2.4,0,0,1-.88-.61,2.19,2.19,0,0,1-.5-1,3.35,3.35,0,0,1,0-1.5,3.83,3.83,0,0,1,.53-1.32,2.55,2.55,0,0,1,.79-.78,2.21,2.21,0,0,1,1-.31,3.3,3.3,0,0,1,1,.05l.16,0,.23.05.24.07a.72.72,0,0,1,.15.07l.65-2.93,1.53.33Z" transform="translate(-8.51 -8.5)"/><path class="cls-2" d="M57.6,135.46a9.46,9.46,0,0,0,.41-1.15,3.92,3.92,0,0,0,.14-1,1.76,1.76,0,0,0-.15-.77,1,1,0,0,0-.53-.48,1.18,1.18,0,0,0-1.28.26,5.7,5.7,0,0,0-1.24,2,10.15,10.15,0,0,0-.39,1.13,3.86,3.86,0,0,0-.15,1,1.6,1.6,0,0,0,.15.78,1,1,0,0,0,.54.49c.88.36,1.71-.41,2.5-2.31m1.52.64a6.08,6.08,0,0,1-2,2.81,2.59,2.59,0,0,1-2.58.19,2.94,2.94,0,0,1-1.16-.83,2.62,2.62,0,0,1-.54-1.21,4.49,4.49,0,0,1,0-1.54,10.07,10.07,0,0,1,.55-1.8,6,6,0,0,1,2-2.81,2.6,2.6,0,0,1,2.57-.18,2.94,2.94,0,0,1,1.18.83,2.66,2.66,0,0,1,.53,1.21,4.46,4.46,0,0,1,0,1.53,9.18,9.18,0,0,1-.56,1.8" transform="translate(-8.51 -8.5)"/><path class="cls-2" d="M46.76,125.13a2.05,2.05,0,0,1,.94.14,4.18,4.18,0,0,1,1,.48,3.24,3.24,0,0,1,.93.87,2.48,2.48,0,0,1,.44,1.19,4,4,0,0,1-.19,1.55,7.94,7.94,0,0,1-1,1.93A7.23,7.23,0,0,1,47.48,133a3.83,3.83,0,0,1-1.37.77,2.4,2.4,0,0,1-1.27.05,3.39,3.39,0,0,1-1.11-.46,5.12,5.12,0,0,1-.84-.66,3.83,3.83,0,0,1-.5-.59l1-1a2.66,2.66,0,0,0,1,.92,1.42,1.42,0,0,0,1.51.09,4.59,4.59,0,0,0,1.66-1.71,8.14,8.14,0,0,0,.59-1.12,3.24,3.24,0,0,0,.24-1,1.74,1.74,0,0,0-.15-.86,1.44,1.44,0,0,0-.59-.64,2.52,2.52,0,0,0-.7-.32,3.34,3.34,0,0,0-.62-.06Z" transform="translate(-8.51 -8.5)"/><path class="cls-2" d="M39.89,119.35a2.16,2.16,0,0,1,.91.28,5,5,0,0,1,.88.63,3.16,3.16,0,0,1,.78,1,2.34,2.34,0,0,1,.24,1.25,3.79,3.79,0,0,1-.43,1.5A8.29,8.29,0,0,1,41,125.78a7.2,7.2,0,0,1-1.67,1.44,3.74,3.74,0,0,1-1.47.54,2.62,2.62,0,0,1-1.26-.15,3.23,3.23,0,0,1-1-.63,6.36,6.36,0,0,1-.73-.79,4.81,4.81,0,0,1-.4-.65l1.16-.83a1.67,1.67,0,0,0,.28.5,3.27,3.27,0,0,0,.51.57,1.5,1.5,0,0,0,1.49.33,4.66,4.66,0,0,0,1.9-1.44,7.15,7.15,0,0,0,.76-1,3.22,3.22,0,0,0,.4-1,1.63,1.63,0,0,0,0-.85,1.56,1.56,0,0,0-.48-.74,2.38,2.38,0,0,0-.63-.42,3.07,3.07,0,0,0-.61-.16Z" transform="translate(-8.51 -8.5)"/><polygon class="cls-2" points="22.42 107.01 21.37 107.67 21.41 107.72 22.75 107.28 27.86 106.42 28.62 107.4 21.75 112.76 20.78 111.52 24.37 108.72 25.46 108.05 25.42 108 24.05 108.44 19 109.24 18.25 108.28 25.12 102.91 26.08 104.15 22.42 107.01"/><path class="cls-2" d="M25,105.83l-1.15.45,0,.06,1.39-.18,5.18.11.57,1.1-7.75,4L22.57,110l4.05-2.1,1.2-.45,0-.06-1.44.18-5.1-.16-.56-1.08,7.75-4,.71,1.4Zm-4.72,4.44c.42-.27.55-.59.35-1s-.51-.46-1-.28l-.41-1.21a1.57,1.57,0,0,1,1.31,0,2.24,2.24,0,0,1,.95,1.05,3.45,3.45,0,0,1,.3.75,1.8,1.8,0,0,1,.07.68,1.51,1.51,0,0,1-.2.61,1.93,1.93,0,0,1-.54.52Z" transform="translate(-8.51 -8.5)"/><path class="cls-2" d="M24.91,93.26a2,2,0,0,1,.63.71A5.08,5.08,0,0,1,26,95a3.48,3.48,0,0,1,.15,1.27,2.59,2.59,0,0,1-.44,1.2,4,4,0,0,1-1.15,1.06,8.14,8.14,0,0,1-2,.87,7.46,7.46,0,0,1-2.18.37,3.87,3.87,0,0,1-1.54-.3,2.73,2.73,0,0,1-1-.78,3.51,3.51,0,0,1-.55-1.07,4.63,4.63,0,0,1-.21-1,4,4,0,0,1,0-.77l1.42-.11a2.24,2.24,0,0,0,0,.59,3.34,3.34,0,0,0,.16.73,1.48,1.48,0,0,0,1.1,1,4.47,4.47,0,0,0,2.37-.25,6.34,6.34,0,0,0,1.17-.46,3,3,0,0,0,.83-.61,1.63,1.63,0,0,0,.44-.74,1.7,1.7,0,0,0,0-.89,2.1,2.1,0,0,0-.34-.67,2.72,2.72,0,0,0-.43-.46Z" transform="translate(-8.51 -8.5)"/><polygon class="cls-2" points="11.89 78.93 11.93 79.27 15.63 78.82 15.82 80.38 7.18 81.44 6.99 79.88 10.82 79.41 10.63 79.12 6.73 77.75 6.51 76 10.39 77.53 10.92 78.05 11.32 77.4 15.12 74.62 15.36 76.52 11.89 78.93"/><path class="cls-2" d="M20.37,77l.08-1.44L18.39,76,17,76.12v0l1.37.29Zm1.36-1.65-.11,2.06,2,.61-.08,1.55-8.64-3,.07-1.22,8.89-2.09L23.74,75Z" transform="translate(-8.51 -8.5)"/><path class="cls-2" d="M18.07,64.28a1,1,0,0,0-.09.21,1.34,1.34,0,0,0-.08.26,2,2,0,0,0,0,.48.91.91,0,0,0,.14.43,1.16,1.16,0,0,0,.38.34,1.9,1.9,0,0,0,.64.25,1.6,1.6,0,0,0,1.18-.08,1.19,1.19,0,0,0,.53-.79l.11-.46Zm7.5.12-.35,1.53-3.39-.78.08.71,2.85,2.07-.41,1.75-2.57-2-.34-.72a2,2,0,0,1-1,.89,3.15,3.15,0,0,1-1.82,0,3.39,3.39,0,0,1-1.24-.53,2,2,0,0,1-.7-.81,2.39,2.39,0,0,1-.23-1.06,5.1,5.1,0,0,1,.14-1.25l.1-.39.15-.48a3.66,3.66,0,0,1,.18-.46,2.49,2.49,0,0,1,.19-.4Z" transform="translate(-8.51 -8.5)"/><polygon class="cls-2" points="18.6 42.37 18.43 42.66 21.69 44.49 20.92 45.87 13.33 41.59 14.1 40.22 17.46 42.12 17.48 41.77 15.14 38.35 16.01 36.82 18.23 40.35 18.34 41.08 19.05 40.8 23.76 40.81 22.82 42.48 18.6 42.37"/><polygon class="cls-2" points="25.33 31.13 24.46 30.24 24.42 30.29 25.13 31.5 27.04 36.32 26.25 37.27 19.56 31.68 20.57 30.47 24.07 33.4 24.95 34.31 24.99 34.27 24.27 33.02 22.43 28.25 23.21 27.31 29.9 32.9 28.89 34.11 25.33 31.13"/><polygon class="cls-2" points="34.01 24.19 32.17 25.7 34.51 28.54 33.3 29.54 27.76 22.81 28.97 21.82 31.25 24.59 33.09 23.07 30.81 20.3 32.02 19.31 37.56 26.04 36.35 27.03 34.01 24.19"/><path class="cls-2" d="M49.19,27.33a11,11,0,0,0,.66,1,3.75,3.75,0,0,0,.69.73,1.7,1.7,0,0,0,.69.36,1,1,0,0,0,.7-.12,1.14,1.14,0,0,0,.59-1.16,5.56,5.56,0,0,0-.81-2.24,8.77,8.77,0,0,0-.64-1,4.26,4.26,0,0,0-.69-.75,1.65,1.65,0,0,0-.71-.36,1,1,0,0,0-.71.11q-1.26.7.23,3.4m-1.44.79a6.19,6.19,0,0,1-1-3.32,2.59,2.59,0,0,1,1.47-2.13,3,3,0,0,1,1.38-.4,2.63,2.63,0,0,1,1.27.34,4.26,4.26,0,0,1,1.18,1,8.57,8.57,0,0,1,1.06,1.55,6,6,0,0,1,.94,3.34,2.59,2.59,0,0,1-1.46,2.12,2.92,2.92,0,0,1-1.38.4A2.63,2.63,0,0,1,50,30.67a4.41,4.41,0,0,1-1.17-1,9.64,9.64,0,0,1-1.06-1.56" transform="translate(-8.51 -8.5)"/><path class="cls-2" d="M60.54,19.18l-1.25.41c.44,1.52.78,2.79,1,3.83a7,7,0,0,1,.22,2.47,1.88,1.88,0,0,1-.17.58,2.25,2.25,0,0,1-.28.41,1.35,1.35,0,0,1-.32.26,2.45,2.45,0,0,1-.33.16,2.32,2.32,0,0,1-.45.1,1.79,1.79,0,0,1-.4,0L58.3,26a.6.6,0,0,0,.43-.13.72.72,0,0,0,.23-.51,3.4,3.4,0,0,0,0-.84,11.63,11.63,0,0,0-.25-1.36c-.12-.54-.29-1.18-.5-1.91s-.47-1.59-.77-2.55l4.15-1.38,2.74,8.28-1.49.49Z" transform="translate(-8.51 -8.5)"/><path class="cls-2" d="M69.85,20a9.08,9.08,0,0,0,.24,1.2,3.91,3.91,0,0,0,.38.94,1.74,1.74,0,0,0,.52.58,1,1,0,0,0,.69.15,1.17,1.17,0,0,0,1-.88,5.62,5.62,0,0,0,0-2.38,9.7,9.7,0,0,0-.23-1.17,4.71,4.71,0,0,0-.37-.95,1.61,1.61,0,0,0-.53-.59,1,1,0,0,0-.71-.15c-.94.13-1.28,1.21-1,3.25m-1.62.22a6.17,6.17,0,0,1,.3-3.45,2.58,2.58,0,0,1,2.14-1.45,2.87,2.87,0,0,1,1.42.12,2.62,2.62,0,0,1,1.07.78,4.28,4.28,0,0,1,.74,1.34,9.05,9.05,0,0,1,.43,1.84A6,6,0,0,1,74,22.81a2.62,2.62,0,0,1-2.13,1.46,2.88,2.88,0,0,1-1.43-.13,2.62,2.62,0,0,1-1.07-.77A4.33,4.33,0,0,1,68.65,22a9.13,9.13,0,0,1-.42-1.83" transform="translate(-8.51 -8.5)"/><polygon class="cls-2" points="75.43 7.93 72.73 7.84 72.49 15.11 70.93 15.06 71.21 6.35 75.48 6.49 75.43 7.93"/><polygon class="cls-2" points="84.22 11.92 84.59 10.73 84.53 10.72 83.8 11.92 80.47 15.89 79.26 15.64 81 7.11 82.54 7.42 81.62 11.88 81.24 13.1 81.3 13.11 82.06 11.88 85.38 8 86.57 8.24 84.83 16.77 83.3 16.46 84.22 11.92"/><path class="cls-2" d="M102.51,19.15l-1.07,2.65a2.16,2.16,0,0,0-.21,1.11.83.83,0,0,0,.56.58,2,2,0,0,0,.67.15,1.25,1.25,0,0,0,.59-.11L104.5,20l1.45.59-3.27,8.08L101.23,28l1.31-3.26a2.47,2.47,0,0,1-.76.05,3.25,3.25,0,0,1-1-.24,2.51,2.51,0,0,1-.67-.41,1.5,1.5,0,0,1-.44-.59,1.73,1.73,0,0,1-.12-.81,3.36,3.36,0,0,1,.26-1.08l1.27-3.13Z" transform="translate(-8.51 -8.5)"/><polygon class="cls-2" points="102.96 14.88 106.66 17.17 105.91 18.4 103.54 16.93 102.41 18.75 104.56 20.08 103.8 21.31 101.65 19.98 100.47 21.89 102.88 23.38 102.12 24.61 98.38 22.29 102.96 14.88"/><path class="cls-2" d="M118.24,38.79a1.88,1.88,0,0,1-.91-.27,4.37,4.37,0,0,1-.89-.61,3.12,3.12,0,0,1-.8-1,2.47,2.47,0,0,1-.26-1.25,4,4,0,0,1,.41-1.51A8.07,8.07,0,0,1,117,32.39a7.58,7.58,0,0,1,1.65-1.47,3.76,3.76,0,0,1,1.46-.56,2.55,2.55,0,0,1,1.27.13,3.37,3.37,0,0,1,1,.62,4.68,4.68,0,0,1,.73.77,3.88,3.88,0,0,1,.42.66l-1.15.83a2.25,2.25,0,0,0-.29-.51,3.66,3.66,0,0,0-.52-.54,1.45,1.45,0,0,0-1.49-.3,4.52,4.52,0,0,0-1.88,1.45,6.85,6.85,0,0,0-.74,1,2.94,2.94,0,0,0-.39,1,1.56,1.56,0,0,0,0,.86,1.48,1.48,0,0,0,.49.73,2.17,2.17,0,0,0,.64.4,2.4,2.4,0,0,0,.6.15Z" transform="translate(-8.51 -8.5)"/><polygon class="cls-2" points="116.64 32.82 116.43 32.56 113.52 34.92 112.54 33.7 119.31 28.21 120.29 29.43 117.3 31.86 117.61 32.01 121.64 31.09 122.75 32.47 118.65 33.23 117.93 33.06 117.94 33.82 116.19 38.21 114.98 36.72 116.64 32.82"/><path class="cls-2" d="M130.69,50.15l.7,1.27L132.92,50l1.1-.84,0,0-1.31.48Zm-.28,2.12-1-1.8-2,.52-.75-1.36,8.9-2,.59,1.09-6.45,6.46-.79-1.44Z" transform="translate(-8.51 -8.5)"/><path class="cls-2" d="M139.39,59.78a.78.78,0,0,0,0-.22,1,1,0,0,0-.08-.26,1.44,1.44,0,0,0-.21-.43.88.88,0,0,0-.35-.29,1.12,1.12,0,0,0-.5-.1,2.11,2.11,0,0,0-.68.14,1.53,1.53,0,0,0-1,.68,1.2,1.2,0,0,0,0,1l.15.45ZM133,63.64l-.51-1.48L135.74,61l-.45-.55-3.51-.27-.58-1.7,3.26.38.67.43a2,2,0,0,1,.42-1.3,3.06,3.06,0,0,1,1.53-1,3.22,3.22,0,0,1,1.33-.22,2,2,0,0,1,1,.32,2.7,2.7,0,0,1,.76.78,5.48,5.48,0,0,1,.54,1.14c0,.1.07.24.12.39s.08.31.12.48a2.7,2.7,0,0,1,.09.48,2.58,2.58,0,0,1,.05.44Z" transform="translate(-8.51 -8.5)"/><path class="cls-2" d="M141.77,78.75c0-.06,0-.16,0-.27a.9.9,0,0,0-.06-.28l-4.28.13a.56.56,0,0,0,0,.2c0,.08,0,.17,0,.25a1,1,0,0,0,.55.85,3.35,3.35,0,0,0,1.71.29,3.6,3.6,0,0,0,1.57-.33.88.88,0,0,0,.54-.84m-4.44-2.35a2.27,2.27,0,0,0,0,.24,1,1,0,0,0,0,.27l4.29-.13a1.5,1.5,0,0,0,0-.22v-.24a1,1,0,0,0-.56-.85,3.36,3.36,0,0,0-1.72-.28,3.49,3.49,0,0,0-1.57.34,1,1,0,0,0-.52.87m-1.28.47a2.4,2.4,0,0,1-.06-.4,3,3,0,0,1,0-.45,2.16,2.16,0,0,1,.17-.92,2,2,0,0,1,.6-.74,3.17,3.17,0,0,1,1.06-.51,5.88,5.88,0,0,1,1.57-.22,4.52,4.52,0,0,1,2.7.59A2.12,2.12,0,0,1,143,76a1.79,1.79,0,0,1,0,.33,1,1,0,0,1,0,.33l1.06,0,0,1.57-1.09,0a2.17,2.17,0,0,1,.1.45c0,.17,0,.31,0,.41A2.07,2.07,0,0,1,143,80a2,2,0,0,1-.62.74,3.13,3.13,0,0,1-1.07.5,6.2,6.2,0,0,1-1.54.22,6,6,0,0,1-1.59-.15,3.67,3.67,0,0,1-1.13-.48,2.08,2.08,0,0,1-.69-.76,2,2,0,0,1-.26-.93c0-.13,0-.26,0-.38a1.7,1.7,0,0,1,.06-.35l-1.22,0-.05-1.57Z" transform="translate(-8.51 -8.5)"/><polygon class="cls-2" points="134.89 78.92 134.21 83.22 132.78 83 133.22 80.24 131.11 79.91 130.71 82.4 129.28 82.18 129.68 79.68 127.46 79.33 127.02 82.14 125.59 81.91 126.28 77.56 134.89 78.92"/><path class="cls-2" d="M133.11,99.12,138.6,101l.46-1.3a29.85,29.85,0,0,1-3.4-1.5,12.66,12.66,0,0,1-1.85-1.13Zm-3.65,1.33.36-1,1.52.37,1.48-4.23-1.42-.65.36-1.05,2.83,1-.25.71a5.37,5.37,0,0,0,.52.42,10.17,10.17,0,0,0,1.19.76,21.79,21.79,0,0,0,2,1c.79.35,1.76.73,2.88,1.1L139.45,103l-6.86-2.39-.3.84Z" transform="translate(-8.51 -8.5)"/><polygon class="cls-2" points="128.09 100.69 125.95 104.49 124.7 103.78 126.07 101.35 124.2 100.29 122.96 102.5 121.7 101.78 122.95 99.58 120.99 98.48 119.6 100.96 118.34 100.25 120.51 96.41 128.09 100.69"/><path class="cls-2" d="M126.75,116.5a1,1,0,0,0-.21.19,1.39,1.39,0,0,0-.19.21,1.59,1.59,0,0,0-.27.45,1.08,1.08,0,0,0-.08.5,1.16,1.16,0,0,0,.2.55,2.27,2.27,0,0,0,.55.59,2.2,2.2,0,0,0,.61.36,1.26,1.26,0,0,0,.53.06,1,1,0,0,0,.45-.18,1.29,1.29,0,0,0,.37-.33,2.21,2.21,0,0,0,.35-.54Zm4.27,1.43a9,9,0,0,1-.5.86,9.19,9.19,0,0,1-.63.87,5.5,5.5,0,0,1-.79.81,2.38,2.38,0,0,1-.94.5,2.16,2.16,0,0,1-1.13,0,3.28,3.28,0,0,1-1.32-.7,3.76,3.76,0,0,1-.94-1.06,2.62,2.62,0,0,1-.34-1.07,2.39,2.39,0,0,1,.15-1,3.49,3.49,0,0,1,.53-.91,1,1,0,0,0,.1-.13,1.43,1.43,0,0,0,.15-.18c.06-.07.11-.11.17-.17l.12-.12-2.33-1.88,1-1.22Z" transform="translate(-8.51 -8.5)"/><path class="cls-2" d="M119.45,122.73l-1.08,1,1.73,1.18,1.07.88,0,0-.77-1.18Zm-2.13.21,1.53-1.37-1-1.83,1.16-1,4,8.21-.91.82-7.76-4.81,1.22-1.11Z" transform="translate(-8.51 -8.5)"/><polygon class="cls-2" points="96.33 118.87 97.27 118.29 98.22 119.53 102.5 116.91 107.05 124.33 105.72 125.16 101.91 118.97 100 120.13 103.81 126.33 102.47 127.15 98.67 120.95 97.89 121.43 96.33 118.87"/><polygon class="cls-2" points="90.93 127.88 91.25 129.08 91.31 129.06 91.29 127.67 92 122.53 93.15 122.1 96.22 130.25 94.75 130.8 93.15 126.53 92.83 125.3 92.77 125.32 92.78 126.77 92.04 131.82 90.9 132.25 87.83 124.09 89.3 123.55 90.93 127.88"/><path class="cls-2" d="M89.72,141.64H90l.27,0a1.6,1.6,0,0,0,.45-.16.89.89,0,0,0,.34-.3,1,1,0,0,0,.17-.47,2.4,2.4,0,0,0,0-.7,1.58,1.58,0,0,0-.54-1,1.21,1.21,0,0,0-.94-.19l-.46.09Zm-2.84-6.93,1.54-.28.62,3.41.62-.34.78-3.43,1.78-.33-.87,3.17-.53.6a1.93,1.93,0,0,1,1.22.61,3,3,0,0,1,.74,1.65,3.43,3.43,0,0,1,0,1.35,2.15,2.15,0,0,1-.47,1,2.84,2.84,0,0,1-.89.63,5.2,5.2,0,0,1-1.21.36l-.4.06-.49.05-.5,0-.43,0Z" transform="translate(-8.51 -8.5)"/><path class="cls-2" d="M80,139.07a1.31,1.31,0,1,1-2.61,0,1.31,1.31,0,0,1,2.61,0" transform="translate(-8.51 -8.5)"/></svg>