<?xml version="1.0" encoding="utf-8"?>
<!-- Generator: Adobe Illustrator 23.0.0, SVG Export Plug-In . SVG Version: 6.00 Build 0)  -->
<svg version="1.1" id="Layer_1" xmlns="http://www.w3.org/2000/svg" xmlns:xlink="http://www.w3.org/1999/xlink" x="0px" y="0px"
	 viewBox="0 0 450 450" style="enable-background:new 0 0 450 450;" xml:space="preserve">
<style type="text/css">
	.st0{fill:#4B679B;}
	.st1{fill:#FFFFFF;}
	.st2{fill:#9CBBEF;}
</style>
<path class="st0" d="M235.16,175.57c0.14,6.94,5.88,12.46,12.82,12.33c6.94-0.14,12.46-5.88,12.33-12.82
	c-0.14-6.95-5.87-12.46-12.82-12.33C240.54,162.89,235.02,168.63,235.16,175.57z"/>
<path class="st1" d="M246.59,171.83c0.05,2.74,2.31,4.91,5.05,4.86c2.74-0.05,4.91-2.31,4.86-5.05c-0.05-2.73-2.31-4.91-5.05-4.86
	C248.71,166.84,246.54,169.1,246.59,171.83z"/>
<path class="st0" d="M166.53,171.14c0.14,6.94,5.87,12.46,12.82,12.33c6.94-0.14,12.46-5.88,12.33-12.82
	c-0.14-6.94-5.87-12.46-12.82-12.33C171.91,158.45,166.4,164.19,166.53,171.14z"/>
<path class="st1" d="M177.41,167.22c0.05,2.63,2.22,4.72,4.85,4.66c2.63-0.05,4.72-2.22,4.66-4.85c-0.05-2.63-2.22-4.71-4.85-4.66
	S177.36,164.59,177.41,167.22z"/>
<path class="st2" d="M225.55,199.03c7.8,4.9,7.25,9.98,35.1,6.67c25.26-3,43.22,49.38-4.77,69.68
	c-17.08,7.22-45.76,14.01-70.29,6.19c-33.07-10.54-46.99-35.42-40.22-65.18c6.62-21.54,18.57-1.17,39.38-17.1
	C192.63,222.74,218.71,217.25,225.55,199.03z"/>
<path class="st0" d="M160.33,240.47c1.01-0.67,2.36-0.4,3.03,0.61c10.56,15.89,27.14,14.31,38.02,7.93v-32.89
	c-15.01-2.73-21.3-19.25-15.26-26.43c3.84-4.57,7.9-2.25,16.55-2.42c8.65-0.17,18.88-3.89,22.33,4.94
	c5.35,13.68-10.44,22.81-19.24,24.04v32.97c15.4,13.2,34.09,7.25,46.58-6.94c0.8-0.91,1.69-1.7,2.82-1.27
	c1.13,0.43,1.7,1.69,1.27,2.82c-3.36,8.9-30.5,27.68-52.77,9.09c-13.43,7.75-32.52,7.79-43.95-9.42
	C159.05,242.5,159.32,241.14,160.33,240.47z"/>
<path class="st1" d="M190.11,195.41c-0.09,2.52,3.07,4.68,7.06,4.82c3.99,0.15,7.3-1.78,7.39-4.3c0.09-2.52-3.07-4.68-7.05-4.82
	C193.51,190.97,190.2,192.89,190.11,195.41z"/>
<path class="st0" d="M224.11,234.53c2.76,0,2.76,4.29,0,4.29C221.35,238.82,221.35,234.53,224.11,234.53z"/>
<path class="st0" d="M228.94,222.74c2.76,0,2.76,4.29,0,4.29C226.17,227.03,226.17,222.74,228.94,222.74z"/>
<path class="st0" d="M188.21,221.14c2.77,0,2.77,4.29,0,4.29C185.44,225.42,185.44,221.14,188.21,221.14z"/>
<path class="st0" d="M240.19,230.78c2.76,0,2.76,4.29,0,4.29C237.43,235.07,237.43,230.78,240.19,230.78z"/>
<path class="st0" d="M187.67,233.46c2.77,0,2.77,4.29,0,4.29C184.91,237.75,184.91,233.46,187.67,233.46z"/>
<path class="st0" d="M173.74,227.03c2.77,0,2.77,4.29,0,4.29C170.97,231.32,170.97,227.03,173.74,227.03z"/>
<path class="st0" d="M159.73,298.34c8.51,4.93,21.09,8.35,32.86,10.03c1.24-2.48,3.72-4.32,7.42-4.34l16.87-0.33
	c4.03-0.1,7.22,1.84,8.25,5.11c22.43-1.61,42.66-11.16,46.51-13.34c0.46,1.48-0.87,9.27-1.87,10.79
	c-5.92,4.65-23.09,11.42-43.62,12.71c-1.26,4.23-3.64,6.94-8.84,7.38l-16.87,0.33c-4.15,0.08-8.22-4.11-8.74-8.44
	c-6.47-0.96-24.15-4.17-29.08-9.24C158.96,305.23,159.73,298.34,159.73,298.34z M197.14,316.05c0.16,3.93,3.06,7,6.48,6.87
	l10.93-0.43c3.42-0.13,6.07-3.43,5.91-7.36l-0.02-0.45c-0.16-3.93-3.05-7-6.48-6.87l-10.93,0.43c-3.42,0.14-6.07,3.43-5.91,7.36
	L197.14,316.05z"/>
<path class="st0" d="M302.54,90.96c-7.42,5.09-16.74,22.28-20.57,34.46c-0.51,1.63,0.43,3.54,1.94,4.36
	c15.38,8.31,23.91,24.07,26.89,30.51c0.72,1.55,1.41,1.47,1.38-0.24c-0.19-12.5-6.66-31.12-3.53-59.63
	c-1.64,14.94,9.32,69.88,29.36,100.22c9.32,14.11,33.07-22.86,32.93-35.02c0.84-30.21-43.22-78.77-62.27-77.22
	C306.21,88.54,304.22,89.8,302.54,90.96z"/>
<path class="st0" d="M160.01,90.3c7.97,4.88,17.99,17.76,22.1,29.42c0.55,1.56-0.38,3.53-2.08,4.17
	c-18.17,6.81-23.61,25.94-26.23,31.18c-0.74,1.49-1.51,1.4-1.48-0.23c0.19-11.95,4.54-28.22,1.14-55.49
	c1.78,14.29-9.89,66.81-31.34,95.79c-9.98,13.48-35.49-21.9-35.35-33.54c-0.95-28.89,46.23-75.26,66.65-73.75
	C156.07,87.98,158.2,89.19,160.01,90.3z"/>
<path class="st0" d="M148.02,264.99c13.4,18.51,38.34,33.18,80.82,26.47c21.41-3.5,37.15-9.12,50.04-19.46l3.44,3.48
	c-13.56,11.13-30.1,16.96-52.75,20.65c-43.52,7.08-70.67-6.05-85.54-27.99L148.02,264.99z"/>
<path class="st0" d="M148.78,177.45c4.47-7,6.56-15.23,9.82-22.92c2.38-5.64,5.11-11,8.84-15.35c22.75-26.51,43.91-8.87,54.75-9.68
	c7.2-0.42,18.32-4.59,30.46-4.79c4.78-0.08,10.05,0.37,15.41,1.96c19.93,5.88,42.21,26.11,45.92,61.32
	c0.8,7.74,0.67,15.75-0.11,23.88c-1.57,16.28-5.25,27.8-11.04,39.36c-2.71,5.4-6.93,9.87-7.65,10.96l-3.61-2.47
	c0.76-1.08,2.43-2.84,6.83-9.77c10.32-16.23,13.64-36.03,11.39-61.45c-3.02-32.07-20.4-50.8-42.84-58.21
	c-18.22-6.09-34.08,1.95-44.63,2.49c-11.93,0.7-23.09-12.41-40.9-0.46c-1.86,1.23-3.7,2.68-5.54,4.26
	c-0.89,0.79-1.81,1.62-2.76,2.54c-0.88,0.85-1.74,1.74-2.56,2.71c-3.29,3.87-5.84,8.84-8.12,14.31c-2.3,5.48-4.17,11.58-7.06,17.72
	c-4.51,9.61-25.12,33.65-19.17,66.58c0.75,4.12,1.9,7.61,3.44,11.01l-4.23,1.99c-1.92-4.6-2.71-7.34-3.83-12.73
	C125.88,213,140.04,191.12,148.78,177.45z"/>
<g>
	<g>
		<path class="st0" d="M250.33,248.58c0.18-0.74,0.92-1.19,1.66-1.01c0,0,0.88,0.21,2.53,0.62
			c82.07,22.87,104.35,91.52,61.61,101.48c-39,9.08-40.32-39.67-35.78-51.89c1.24-3.33,1.39-4.23,1.47-0.96
			c0.44,18.44,21.94,54.72,35.01,51.13c29.8-8.19-10.87-73.39-63.42-96.69c-1.51-0.67-2.29-1.09-2.29-1.09l-0.04-0.02
			C250.5,249.87,250.17,249.22,250.33,248.58z"/>
	</g>
</g>
<g>
	<path class="st0" d="M163.98,246.41c-16.8,2.98-39.1,14.44-49.82,31.94c-3.03,7.4,1.67,21.46,4.34,16.4
		c11.78-22.25,27.88-36,46.77-45.49c0.77-0.39,1.08-1.34,0.68-2.11c-0.37-0.72-1.22-1.04-1.96-0.75L163.98,246.41z"/>
</g>
</svg>
