<svg width="110" height="110" viewBox="0 0 110 110" fill="none" xmlns="http://www.w3.org/2000/svg">
<circle cx="55" cy="55" r="55" fill="#EBF0FF"/>
<path d="M75.536 90.6626C78.1289 89.5272 81.5436 91.2816 84.2536 90.1461C87.317 89.0107 86.491 85.3994 87.4341 82.9216C88.6113 80.1363 89.3181 78.2773 88.6113 75.1805C88.0216 73.0142 88.0216 71.1552 88.7284 68.9889C89.3181 66.925 90.7316 64.9636 90.8487 62.8997C90.9658 60.5264 89.7886 58.2555 89.4352 55.9846C89.0818 53.5088 90.7317 51.0309 89.9057 48.5551C88.7284 44.8394 84.3686 45.6653 81.8949 47.9362C79.4212 50.2071 77.8884 53.9208 76.9475 56.9152C76.5941 58.0506 76.8304 60.1145 75.8873 60.631C75.8873 60.631 75.3687 60.9488 73.3864 60.9404C72.5625 60.9363 70.5593 61.0429 69.9696 60.631C69.0266 60.1145 69.2628 58.0506 68.9095 56.9152C67.9664 53.9229 66.4357 50.2071 63.962 47.9362C61.4883 45.6653 57.1285 44.8414 55.9512 48.5551C55.1273 51.033 56.7751 53.5088 56.4217 55.9846C56.0683 58.2555 54.8911 60.5243 55.0082 62.8997C55.1253 64.9636 56.5388 66.925 57.1285 68.9889C57.8353 71.1552 57.8353 73.0142 57.2456 75.1805C56.5388 78.2752 57.2456 80.1342 58.4228 82.9216C59.3659 85.3994 58.5399 89.0107 61.6033 90.1461C64.3133 91.2816 67.7301 89.5272 70.3209 90.6626H75.536Z" fill="#253C5E"/>
<path d="M83.5529 62.814C83.7892 65.7039 87.2018 66.5152 88.8496 63.8324C89.7926 62.285 89.203 60.6331 88.6133 59.0857C87.5531 56.4029 87.0826 54.4415 87.7894 51.6562C88.1428 50.5207 88.9667 48.4569 86.7293 48.6639C85.552 48.7663 83.785 50.5207 83.1954 51.2442C81.4284 53.4106 80.132 56.1979 80.0149 58.7783C80.0149 59.7067 79.8978 61.1516 80.3683 62.0801C81.075 63.2155 83.0783 63.8345 83.4317 62.0801L83.5529 62.814Z" fill="#EBF0FF"/>
<path d="M62.3101 62.8143C62.0738 65.7041 58.6612 66.5154 57.0113 63.8326C56.0683 62.2852 56.6579 60.6333 57.2476 59.0859C58.3078 56.4031 58.7804 54.4417 58.0715 51.6564C57.7181 50.521 56.8942 48.4571 59.1317 48.6641C60.3089 48.7666 62.0779 50.521 62.6655 51.2445C64.4325 53.4108 65.7289 56.1982 65.846 58.7785C65.846 59.707 65.9631 61.1519 65.4926 62.0803C64.7859 63.2157 62.7826 63.8347 62.4292 62.0803L62.3101 62.8143Z" fill="#EBF0FF"/>
<path d="M77.784 89.2449C77.784 89.2449 76.5085 91.8818 73.3698 91.8818H72.4958C69.3571 91.8818 68.0815 89.2449 68.0815 89.2449L70.3294 86.4346H74.3631L77.784 89.2449Z" fill="#253C5E"/>
<path d="M74.9127 88.2537C77.0748 88.9312 80.2135 90.9637 82.3359 88.9605C83.5132 87.7832 83.6324 85.3074 83.5132 83.7768C83.0427 78.8293 77.8318 75.6279 73.4991 75.5297C72.7631 75.5129 72.3637 75.5297 72.3637 75.5297C68.0331 75.423 62.8202 78.8293 62.3497 83.7768C62.2326 85.3095 62.3497 87.7832 63.529 88.9605C65.6493 90.9637 68.7127 88.6071 70.9522 88.2537C70.9502 88.2537 72.7422 87.5741 74.9127 88.2537Z" fill="#72839C"/>
<path d="M73.2755 78.0913C74.2332 77.9303 75.3812 78.5597 75.8579 79.3647C76.433 80.3308 75.285 81.621 74.4235 80.5733C74.6451 81.2989 74.6347 82.1646 73.562 82.587C73.0643 82.7836 72.3011 82.587 72.3011 82.587C71.1531 82.3445 71.22 81.2968 71.4395 80.5733C70.578 81.621 69.43 80.3308 70.0051 79.3647C70.4839 78.5576 71.6319 77.9303 72.5875 78.0913H73.2755Z" fill="#253C5E"/>
<path d="M64.6729 74.3753C64.6729 75.0716 64.1104 75.6341 63.4141 75.6341C62.7178 75.6341 62.1553 75.0716 62.1553 74.3753C62.1553 73.681 62.7178 73.1165 63.4141 73.1165C64.1104 73.1165 64.6729 73.681 64.6729 74.3753Z" fill="#EBF0FF"/>
<path d="M83.7056 74.3753C83.7056 75.0716 83.1431 75.6341 82.4468 75.6341C81.7505 75.6341 81.188 75.0716 81.188 74.3753C81.188 73.681 81.7505 73.1165 82.4468 73.1165C83.1431 73.1165 83.7056 73.681 83.7056 74.3753Z" fill="#EBF0FF"/>
<path d="M40.4088 63.7337C40.0235 65.4652 38.8699 67.1004 37.4274 68.0636C37.1384 67.4857 37.2728 66.8137 36.9839 66.2358C36.4059 67.293 35.1023 67.8015 34.0607 68.0636C33.3909 68.2316 32.2821 68.0636 32.2821 68.0636C31.2249 67.871 29.9347 67.293 29.359 66.2358C29.07 66.8137 29.2044 67.4857 28.9155 68.0636C27.4729 67.1004 26.3193 65.4675 25.9341 63.7337C25.9341 63.7337 23.031 55.7594 31.319 53.6874C31.319 53.6874 38.283 52.6839 40.3774 58.9872L40.4088 63.7337Z" fill="#72839C"/>
<path d="M15.8227 46.4433C15.8227 45.5787 16.1945 43.4238 16.1945 42.557C15.4732 43.2782 14.463 45.2987 13.3094 46.4433C13.3094 45.0008 14.2816 42.5368 14.463 40.6821C13.7417 41.5467 13.1638 42.4136 12.4425 43.1349C12.4425 41.4034 13.5961 39.8152 13.8851 38.2293C13.0182 38.8072 11.4323 39.9608 11 40.9711C11.289 38.5183 14.174 36.4978 13.7417 33.9017C13.5984 32.4591 11.5779 28.5638 13.4528 27.2646C16.0489 25.3898 24.7445 33.998 26.7269 36.6882L28.8257 39.8443L15.8227 46.4433Z" fill="#72839C"/>
<path d="M50.025 46.4433C50.025 45.5787 49.6532 43.4238 49.6532 42.557C50.3745 43.2782 51.3847 45.2987 52.5383 46.4433C52.5383 45.0008 51.5661 42.5368 51.3847 40.6821C52.106 41.5467 52.6839 42.4136 53.4052 43.1349C53.4052 41.4034 52.2516 39.8152 51.9626 38.2293C52.8295 38.8072 54.4154 39.9608 54.8477 40.9711C54.5587 38.5183 51.6736 36.4978 52.106 33.9017C52.2493 32.4591 54.2698 28.5638 52.3949 27.2646C49.7988 25.3898 41.1032 33.998 39.1208 36.6882L37.022 38.1464L50.025 46.4433Z" fill="#72839C"/>
<path d="M46.8914 42.7137C46.8914 41.1569 47.0325 39.8846 47.4581 38.3278C47.8837 37.4789 48.1659 36.3477 48.7326 35.4987C49.0149 34.7909 50.0722 33.3775 50.0722 32.8108C50.6389 29.9817 47.8837 33.093 47.0347 34.0853C45.7602 35.6421 44.6156 37.6222 43.4844 39.179L46.8914 42.7137Z" fill="#EBF0FF"/>
<path d="M19.8367 42.7139C19.8367 41.1572 19.6956 39.8849 19.27 38.3281C18.8466 37.4791 18.5622 36.3479 17.9977 35.499C17.7154 34.7912 16.6582 33.3777 16.6582 32.811C16.0915 29.9819 18.8466 33.0932 19.6956 34.0856C20.9701 35.6423 22.1148 37.6225 23.2459 39.1793L19.8367 42.7139Z" fill="#EBF0FF"/>
<path d="M37.6379 58.3958C40.8993 62.0044 40.4177 66.3321 40.5611 69.5061C42.0036 68.4959 43.0139 67.4857 43.8785 66.0431C44.1675 68.2069 42.8683 70.2274 42.436 72.1023C46.3313 69.3605 47.9194 66.1865 48.3517 61.4243C48.3517 63.0124 48.8804 63.5411 48.9296 66.6188C50.6119 62.5801 50.2288 60.8464 49.7965 55.6519C50.9501 57.0944 51.817 59.1149 52.5382 60.8464C52.3949 56.5165 51.3847 53.7345 49.0752 49.0148C50.0855 49.4471 50.9523 50.4574 52.1059 50.8897C49.9421 46.1275 47.6327 43.3858 43.8807 39.9228C44.602 40.0661 45.6122 40.2117 46.4769 40.3551C44.602 38.0457 40.4177 36.0275 41.5713 35.8819C40.1848 35.3756 33.9218 34.4819 32.8466 34.7776C29.6547 34.4796 25.663 35.3756 24.2765 35.8819C25.4301 36.0252 21.2458 38.0457 19.3709 40.3551C20.2356 40.2117 21.2458 40.0661 21.9671 39.9228C18.2151 43.3858 15.9057 46.1275 13.7419 50.8897C14.8955 50.4574 15.7623 49.4471 16.7726 49.0148C14.4631 53.7345 13.4529 56.5187 13.3096 60.8464C14.0308 59.1149 14.8977 57.0944 16.0513 55.6519C15.619 60.8464 15.2337 62.5779 16.9182 66.6188C16.9674 63.5411 17.4961 63.0124 17.4961 61.4243C17.9284 66.1865 19.5165 69.3605 23.4119 72.1023C22.9795 70.2274 21.6804 68.2069 21.9693 66.0431C22.8339 67.4857 23.8442 68.4959 25.289 69.5061C25.4323 66.3321 24.9798 62.3875 28.2121 58.3958C28.2099 58.3958 32.6585 52.8877 37.6379 58.3958Z" fill="#72839C"/>
<path d="M27.4415 48.6117C24.2764 48.9903 22.6815 50.3432 21.958 53.2283C21.8146 51.9291 22.247 50.7755 22.247 49.4763C21.3801 50.0542 20.5154 50.9189 19.7942 51.6401C19.5052 47.7448 24.3055 43.1753 28.4517 47.1669C28.4517 47.1669 29.78 48.3317 27.4415 48.6117Z" fill="#253C5E"/>
<path d="M26.4871 51.6131C26.4871 52.0387 26.1421 52.3836 25.7166 52.3836C25.291 52.3836 24.9482 52.0387 24.9482 51.6131C24.9482 51.1875 25.2932 50.8425 25.7166 50.8425C26.1444 50.8425 26.4871 51.1875 26.4871 51.6131Z" fill="#253C5E"/>
<path d="M38.4038 48.6117C41.5689 48.9903 43.166 50.3432 43.8873 53.2283C44.0306 51.9291 43.5983 50.7755 43.5983 49.4763C44.4652 50.0542 45.3298 50.9189 46.0511 51.6401C46.34 47.7448 41.5398 43.1753 37.3936 47.1669C37.3958 47.1669 36.0675 48.3317 38.4038 48.6117Z" fill="#253C5E"/>
<path d="M39.3604 51.6133C39.3604 52.0389 39.7053 52.3839 40.1287 52.3839C40.5543 52.3839 40.897 52.0389 40.897 51.6133C40.897 51.1877 40.552 50.8428 40.1287 50.8428C39.7031 50.8428 39.3604 51.1877 39.3604 51.6133Z" fill="#253C5E"/>
<path d="M33.7581 55.0359C37.6064 55.0359 35.8749 59.0768 33.1802 59.8451H32.665C29.9726 59.0746 28.2411 55.0359 32.0871 55.0359H33.7581Z" fill="#253C5E"/>
</svg>
