<svg width="25" height="26" viewBox="0 0 25 26" fill="none" xmlns="http://www.w3.org/2000/svg">
<g clip-path="url(#clip0)">
<path d="M12.5 14.5145C9.59712 14.5145 7.23584 12.1532 7.23584 9.25027C7.23584 6.34737 9.59712 3.98608 12.5 3.98608C15.4029 3.98608 17.7681 6.34347 17.7681 9.24637C17.7681 12.1493 15.4029 14.5145 12.5 14.5145ZM12.5 5.93044C10.6687 5.93044 9.18409 7.41891 9.18409 9.24637C9.18409 11.0738 10.6726 12.5623 12.5 12.5623C14.3275 12.5623 15.816 11.0738 15.816 9.24637C15.816 7.41891 14.3314 5.93044 12.5 5.93044Z" fill="#C1D1EA"/>
<path d="M4.18477 21.4502C4.17308 21.2671 4.16528 21.0839 4.16528 20.8969C4.16528 16.3029 7.90203 12.5662 12.496 12.5662C17.09 12.5662 20.8268 16.3029 20.8268 20.8969C20.8268 21.0761 20.8229 21.2554 20.8112 21.4307L18.8668 21.3099C18.8746 21.1735 18.8785 21.0372 18.8785 20.8969C18.8785 17.3784 16.0146 14.5144 12.496 14.5144C8.97747 14.5144 6.11743 17.3784 6.11743 20.8969C6.11743 21.0411 6.12133 21.1813 6.13302 21.3216L4.18477 21.4502Z" fill="#C1D1EA"/>
<path d="M12.5 25.0039C5.60708 25.0039 0 19.3929 0 12.5C0 5.60708 5.60708 0 12.5 0C19.3929 0 25 5.60708 25 12.5C25 19.3929 19.3929 25.0039 12.5 25.0039ZM12.5 1.94825C6.68251 1.94825 1.94825 6.68251 1.94825 12.5C1.94825 18.3175 6.68251 23.0517 12.5 23.0517C18.3175 23.0517 23.0517 18.3175 23.0517 12.5C23.0517 6.68251 18.3175 1.94825 12.5 1.94825Z" fill="#C1D1EA"/>
</g>
<defs>
<clipPath id="clip0">
<rect width="25" height="25.0039" fill="white"/>
</clipPath>
</defs>
</svg>
