<svg width="479" height="478" viewBox="0 0 479 478" fill="none" xmlns="http://www.w3.org/2000/svg">
<g clip-path="url(#clip0)">
<path d="M411.7 73.55C389.374 50.2437 362.553 31.7082 332.859 19.0646C303.165 6.42093 271.214 -0.0680875 238.94 -0.00998928C107.14 -0.169989 0.169996 106.54 -3.70268e-06 238.34C-0.0427809 270.595 6.45267 302.523 19.094 332.197C31.7354 361.871 50.2603 388.675 73.55 410.99C73.69 411.12 73.74 411.33 73.87 411.45C75.26 412.78 76.76 413.91 78.16 415.19C82 418.6 85.84 422.13 89.88 425.43C92.05 427.13 94.3 428.84 96.52 430.43C100.34 433.28 104.17 436.13 108.16 438.76C110.87 440.46 113.67 442.17 116.45 443.88C120.14 446.1 123.81 448.33 127.62 450.36C130.84 452.07 134.14 453.54 137.41 455.09C141 456.8 144.53 458.5 148.2 460.04C151.87 461.58 155.55 462.77 159.27 464.1C162.99 465.43 166.2 466.66 169.77 467.75C173.77 468.96 177.93 469.9 182.02 470.91C185.44 471.75 188.75 472.7 192.26 473.38C196.98 474.32 201.75 474.92 206.53 475.57C209.53 475.98 212.37 476.57 215.36 476.85C223.17 477.62 231.06 478.04 239.01 478.04C246.96 478.04 254.85 477.62 262.66 476.85C265.66 476.56 268.54 475.98 271.49 475.57C276.27 474.92 281.04 474.32 285.76 473.38C289.17 472.7 292.58 471.68 295.99 470.91C300.09 469.91 304.22 468.96 308.25 467.75C311.82 466.66 315.25 465.33 318.74 464.1C322.23 462.87 326.19 461.54 329.82 460.04C333.45 458.54 337.02 456.78 340.61 455.09C343.88 453.54 347.18 452.09 350.4 450.36C354.21 448.36 357.88 446.1 361.56 443.88C364.35 442.17 367.15 440.62 369.86 438.76C373.86 436.13 377.68 433.28 381.5 430.43C383.72 428.72 385.97 427.18 388.14 425.43C392.14 422.18 396.02 418.74 399.86 415.19C401.26 413.91 402.76 412.78 404.15 411.45C404.28 411.33 404.33 411.12 404.47 410.99C499.64 319.79 502.88 168.72 411.7 73.55ZM373.34 393.1C370.24 395.83 367.03 398.42 363.79 400.93C361.88 402.4 359.96 403.85 358 405.25C354.913 407.483 351.773 409.61 348.58 411.63C346.26 413.12 343.89 414.55 341.5 415.95C338.493 417.663 335.443 419.37 332.35 421.07C329.62 422.47 326.84 423.78 324.04 425.07C321.24 426.36 318.15 427.75 315.13 428.96C312.11 430.17 308.9 431.32 305.74 432.37C302.86 433.37 299.97 434.37 297.05 435.26C293.64 436.26 290.05 437.12 286.54 437.97C283.78 438.62 281.05 439.35 278.25 439.9C274.2 440.69 270.07 441.23 265.93 441.8C263.57 442.1 261.23 442.53 258.86 442.8C252.31 443.43 245.67 443.8 238.96 443.8C232.25 443.8 225.61 443.42 219.06 442.8C216.69 442.56 214.35 442.13 211.99 441.8C207.85 441.23 203.72 440.69 199.67 439.9C196.87 439.36 194.14 438.62 191.38 437.97C187.84 437.12 184.38 436.27 180.86 435.26C177.95 434.39 175.06 433.36 172.18 432.37C169.02 431.28 165.86 430.17 162.79 428.96C159.72 427.75 156.79 426.42 153.88 425.07C150.97 423.72 148.3 422.46 145.57 421.07C142.48 419.47 139.43 417.78 136.42 415.95C134.03 414.55 131.66 413.12 129.34 411.63C126.153 409.63 123.013 407.503 119.92 405.25C117.92 403.85 116.04 402.4 114.13 400.93C110.89 398.42 107.68 395.81 104.58 393.1C103.82 392.53 103.14 391.82 102.41 391.17C102.782 362.84 111.932 335.323 128.599 312.412C145.267 289.501 168.63 272.325 195.47 263.25C209.05 269.713 223.9 273.067 238.94 273.067C253.98 273.067 268.83 269.713 282.41 263.25C309.251 272.324 332.616 289.501 349.285 312.411C365.954 335.322 375.106 362.839 375.48 391.17C374.76 391.82 374.08 392.47 373.34 393.1ZM179.43 136.84C184.602 127.667 191.826 119.816 200.537 113.899C209.248 107.982 219.209 104.161 229.643 102.733C240.076 101.306 250.698 102.311 260.678 105.67C270.658 109.03 279.725 114.653 287.171 122.099C294.617 129.545 300.24 138.612 303.6 148.592C306.959 158.572 307.964 169.194 306.537 179.627C305.109 190.061 301.288 200.022 295.371 208.733C289.454 217.444 281.603 224.668 272.43 229.84C272.377 229.836 272.323 229.843 272.273 229.862C272.222 229.881 272.177 229.911 272.14 229.95C267.613 232.449 262.832 234.461 257.88 235.95C256.99 236.2 256.17 236.54 255.23 236.77C253.52 237.21 251.73 237.52 249.97 237.82C246.666 238.397 243.323 238.731 239.97 238.82H238C234.647 238.731 231.304 238.397 228 237.82C226.29 237.52 224.49 237.21 222.75 236.77C221.84 236.54 221.04 236.2 220.1 235.95C215.144 234.461 210.361 232.449 205.83 229.95L205.53 229.84C197.706 225.451 190.823 219.563 185.276 212.513C179.729 205.462 175.626 197.387 173.202 188.75C170.778 180.113 170.081 171.082 171.149 162.175C172.218 153.268 175.032 144.659 179.43 136.84V136.84ZM405.75 357.33C400.345 332.113 389.323 308.44 373.504 288.072C357.684 267.705 337.475 251.167 314.38 239.69C327.824 225.045 336.714 206.803 339.966 187.19C343.218 167.578 340.69 147.443 332.691 129.243C324.693 111.042 311.569 95.564 294.923 84.6963C278.276 73.8287 258.825 68.0418 238.945 68.0418C219.065 68.0418 199.614 73.8287 182.967 84.6963C166.321 95.564 153.197 111.042 145.199 129.243C137.2 147.443 134.672 167.578 137.924 187.19C141.176 206.803 150.066 225.045 163.51 239.69C140.414 251.167 120.204 267.705 104.383 288.072C88.5615 308.44 77.5372 332.113 72.13 357.33C6.68999 265.14 28.37 137.33 120.55 71.92C212.73 6.51001 340.55 28.15 405.96 120.33C430.572 154.952 443.778 196.385 443.74 238.864C443.702 281.342 430.423 322.752 405.75 357.33V357.33Z" fill="#DFE9FB"/>
<path d="M151.153 338.546C151.153 337.735 150.836 337.101 150.201 336.642C149.566 336.173 148.727 335.938 147.682 335.938C146.744 335.938 145.963 336.173 145.338 336.642C144.723 337.101 144.415 337.701 144.415 338.443H140.021C140.021 337.291 140.343 336.256 140.987 335.338C141.642 334.41 142.564 333.688 143.756 333.17C144.957 332.652 146.266 332.394 147.682 332.394C150.143 332.394 152.071 332.921 153.468 333.976C154.864 335.03 155.562 336.524 155.562 338.458C155.562 339.405 155.274 340.284 154.698 341.095C154.132 341.905 153.321 342.555 152.267 343.043C153.438 343.453 154.337 344.078 154.962 344.918C155.587 345.748 155.899 346.783 155.899 348.023C155.899 349.938 155.147 351.461 153.644 352.594C152.149 353.717 150.162 354.278 147.682 354.278C146.129 354.278 144.732 354.015 143.492 353.487C142.252 352.95 141.31 352.223 140.665 351.305C140.03 350.377 139.713 349.303 139.713 348.082H144.137C144.137 348.844 144.469 349.483 145.133 350.001C145.797 350.509 146.646 350.763 147.682 350.763C148.854 350.763 149.776 350.499 150.45 349.972C151.134 349.444 151.476 348.775 151.476 347.965C151.476 346.852 151.173 346.056 150.567 345.577C149.962 345.089 149.078 344.845 147.916 344.845H145.294V341.402H148.004C150.104 341.373 151.153 340.421 151.153 338.546ZM168.058 354C167.862 353.619 167.721 353.146 167.633 352.579C166.607 353.722 165.274 354.293 163.634 354.293C162.081 354.293 160.792 353.844 159.767 352.945C158.751 352.047 158.243 350.914 158.243 349.547C158.243 347.867 158.863 346.578 160.104 345.68C161.354 344.781 163.155 344.327 165.509 344.317H167.457V343.409C167.457 342.677 167.267 342.091 166.886 341.651C166.515 341.212 165.924 340.992 165.113 340.992C164.4 340.992 163.839 341.163 163.429 341.505C163.028 341.847 162.828 342.315 162.828 342.911H158.595C158.595 341.993 158.878 341.144 159.444 340.362C160.011 339.581 160.812 338.971 161.847 338.531C162.882 338.082 164.044 337.857 165.333 337.857C167.286 337.857 168.834 338.351 169.977 339.337C171.129 340.313 171.705 341.69 171.705 343.468V350.338C171.715 351.842 171.925 352.979 172.335 353.751V354H168.058ZM164.557 351.056C165.182 351.056 165.758 350.919 166.285 350.646C166.812 350.362 167.203 349.986 167.457 349.518V346.793H165.875C163.756 346.793 162.628 347.525 162.491 348.99L162.477 349.239C162.477 349.767 162.662 350.201 163.033 350.543C163.404 350.885 163.912 351.056 164.557 351.056ZM185.753 341.578H179.19V354H174.957V338.15H185.753V341.578ZM201.793 346.222C201.793 348.663 201.236 350.621 200.123 352.096C199.02 353.561 197.525 354.293 195.641 354.293C194.039 354.293 192.745 353.736 191.759 352.623V360.094H187.525V338.15H191.451L191.598 339.703C192.623 338.473 193.961 337.857 195.611 337.857C197.564 337.857 199.083 338.58 200.167 340.025C201.251 341.471 201.793 343.463 201.793 346.002V346.222ZM197.56 345.914C197.56 344.439 197.296 343.302 196.769 342.501C196.251 341.7 195.494 341.3 194.498 341.3C193.17 341.3 192.257 341.808 191.759 342.823V349.312C192.276 350.357 193.199 350.88 194.527 350.88C196.549 350.88 197.56 349.225 197.56 345.914ZM210.172 348.009L213.102 338.15H217.643L211.271 356.461L210.919 357.296C209.972 359.366 208.409 360.401 206.231 360.401C205.616 360.401 204.991 360.309 204.356 360.123V356.915L205.001 356.93C205.802 356.93 206.397 356.808 206.788 356.563C207.188 356.319 207.501 355.914 207.726 355.348L208.224 354.044L202.672 338.15H207.228L210.172 348.009ZM227.633 342.823C227.633 342.267 227.447 341.837 227.076 341.534C226.715 341.222 226.197 341.065 225.523 341.065C224.83 341.065 224.264 341.212 223.824 341.505C223.395 341.788 223.18 342.193 223.18 342.721H218.946C218.946 341.285 219.542 340.118 220.733 339.22C221.925 338.321 223.448 337.872 225.304 337.872C227.345 337.872 228.946 338.272 230.108 339.073C231.28 339.874 231.866 341.012 231.866 342.486C231.866 343.189 231.651 343.839 231.222 344.435C230.802 345.021 230.206 345.489 229.435 345.841C231.241 346.476 232.145 347.701 232.145 349.518C232.145 350.973 231.52 352.135 230.27 353.004C229.029 353.863 227.374 354.293 225.304 354.293C223.38 354.293 221.798 353.844 220.558 352.945C219.317 352.047 218.697 350.836 218.697 349.312H222.931C222.931 349.85 223.17 350.284 223.648 350.616C224.127 350.948 224.752 351.114 225.523 351.114C226.275 351.114 226.861 350.938 227.281 350.587C227.701 350.235 227.911 349.776 227.911 349.21C227.911 348.517 227.711 348.023 227.311 347.73C226.91 347.428 226.31 347.276 225.509 347.276H223.209V344.522H225.655C226.974 344.483 227.633 343.917 227.633 342.823ZM244.273 338.15H248.507V354H244.273V344.215L238.971 354H234.723V338.15H238.971V347.921L244.273 338.15ZM264.898 341.549H259.815V354H255.567V341.549H250.572V338.15H264.898V341.549ZM273.395 354.293C271.07 354.293 269.176 353.58 267.711 352.154C266.256 350.729 265.528 348.829 265.528 346.456V346.046C265.528 344.454 265.836 343.033 266.451 341.783C267.066 340.523 267.936 339.557 269.059 338.883C270.191 338.199 271.48 337.857 272.926 337.857C275.094 337.857 276.798 338.541 278.038 339.908C279.288 341.275 279.913 343.214 279.913 345.724V347.452H269.82C269.957 348.487 270.367 349.317 271.051 349.942C271.744 350.567 272.618 350.88 273.673 350.88C275.304 350.88 276.578 350.289 277.496 349.107L279.576 351.437C278.941 352.335 278.082 353.038 276.998 353.546C275.914 354.044 274.713 354.293 273.395 354.293ZM272.911 341.285C272.071 341.285 271.388 341.568 270.86 342.135C270.343 342.701 270.011 343.512 269.864 344.566H275.753V344.229C275.733 343.292 275.479 342.569 274.991 342.062C274.503 341.544 273.81 341.285 272.911 341.285ZM299.352 338.15H303.585V354H299.352V344.215L294.049 354H289.801V338.15H294.049V347.921L299.352 338.15ZM320.606 338.15V354H316.373V341.578H312.638L312.374 346.471C312.208 349.078 311.695 350.978 310.836 352.169C309.977 353.36 308.697 353.971 306.998 354H305.562L305.519 350.558L306.046 350.514C306.808 350.455 307.364 350.006 307.716 349.166C308.067 348.326 308.287 346.896 308.375 344.874L308.668 338.15H320.606ZM333.424 338.15H337.657V354H333.424V344.215L328.121 354H323.873V338.15H328.121V347.921L333.424 338.15ZM129.562 389H125.313V376.578H120.011V389H115.777V373.15H129.562V389ZM140.094 389.293C137.77 389.293 135.875 388.58 134.41 387.154C132.955 385.729 132.228 383.829 132.228 381.456V381.046C132.228 379.454 132.535 378.033 133.15 376.783C133.766 375.523 134.635 374.557 135.758 373.883C136.891 373.199 138.18 372.857 139.625 372.857C141.793 372.857 143.497 373.541 144.737 374.908C145.987 376.275 146.612 378.214 146.612 380.724V382.452H136.52C136.656 383.487 137.066 384.317 137.75 384.942C138.443 385.567 139.317 385.88 140.372 385.88C142.003 385.88 143.277 385.289 144.195 384.107L146.275 386.437C145.641 387.335 144.781 388.038 143.697 388.546C142.613 389.044 141.412 389.293 140.094 389.293ZM139.61 376.285C138.771 376.285 138.087 376.568 137.56 377.135C137.042 377.701 136.71 378.512 136.563 379.566H142.452V379.229C142.433 378.292 142.179 377.569 141.69 377.062C141.202 376.544 140.509 376.285 139.61 376.285ZM163.297 381.222C163.297 383.663 162.74 385.621 161.627 387.096C160.523 388.561 159.029 389.293 157.145 389.293C155.543 389.293 154.249 388.736 153.263 387.623V395.094H149.029V373.15H152.955L153.102 374.703C154.127 373.473 155.465 372.857 157.115 372.857C159.068 372.857 160.587 373.58 161.671 375.025C162.755 376.471 163.297 378.463 163.297 381.002V381.222ZM159.063 380.914C159.063 379.439 158.8 378.302 158.272 377.501C157.755 376.7 156.998 376.3 156.002 376.3C154.674 376.3 153.761 376.808 153.263 377.823V384.312C153.78 385.357 154.703 385.88 156.031 385.88C158.053 385.88 159.063 384.225 159.063 380.914ZM173.229 389.293C170.904 389.293 169.01 388.58 167.545 387.154C166.09 385.729 165.362 383.829 165.362 381.456V381.046C165.362 379.454 165.67 378.033 166.285 376.783C166.9 375.523 167.77 374.557 168.893 373.883C170.025 373.199 171.314 372.857 172.76 372.857C174.928 372.857 176.632 373.541 177.872 374.908C179.122 376.275 179.747 378.214 179.747 380.724V382.452H169.654C169.791 383.487 170.201 384.317 170.885 384.942C171.578 385.567 172.452 385.88 173.507 385.88C175.138 385.88 176.412 385.289 177.33 384.107L179.41 386.437C178.775 387.335 177.916 388.038 176.832 388.546C175.748 389.044 174.547 389.293 173.229 389.293ZM172.745 376.285C171.905 376.285 171.222 376.568 170.694 377.135C170.177 377.701 169.845 378.512 169.698 379.566H175.587V379.229C175.567 378.292 175.313 377.569 174.825 377.062C174.337 376.544 173.644 376.285 172.745 376.285ZM195.143 376.549H190.06V389H185.812V376.549H180.816V373.15H195.143V376.549ZM206.231 389C206.036 388.619 205.895 388.146 205.807 387.579C204.781 388.722 203.448 389.293 201.808 389.293C200.255 389.293 198.966 388.844 197.94 387.945C196.925 387.047 196.417 385.914 196.417 384.547C196.417 382.867 197.037 381.578 198.277 380.68C199.527 379.781 201.329 379.327 203.683 379.317H205.631V378.409C205.631 377.677 205.44 377.091 205.06 376.651C204.688 376.212 204.098 375.992 203.287 375.992C202.574 375.992 202.013 376.163 201.603 376.505C201.202 376.847 201.002 377.315 201.002 377.911H196.769C196.769 376.993 197.052 376.144 197.618 375.362C198.185 374.581 198.985 373.971 200.021 373.531C201.056 373.082 202.218 372.857 203.507 372.857C205.46 372.857 207.008 373.351 208.15 374.337C209.303 375.313 209.879 376.69 209.879 378.468V385.338C209.889 386.842 210.099 387.979 210.509 388.751V389H206.231ZM202.73 386.056C203.355 386.056 203.932 385.919 204.459 385.646C204.986 385.362 205.377 384.986 205.631 384.518V381.793H204.049C201.93 381.793 200.802 382.525 200.665 383.99L200.65 384.239C200.65 384.767 200.836 385.201 201.207 385.543C201.578 385.885 202.086 386.056 202.73 386.056ZM217.32 373.15V385.587H221.671V373.15H225.919V385.587H230.255V373.15H234.503V385.616H237.652L237.359 393.702H233.419V389H213.087V373.15H217.32ZM249.693 373.15H253.927V389H249.693V379.215L244.391 389H240.143V373.15H244.391V382.921L249.693 373.15ZM270.318 376.549H265.235V389H260.987V376.549H255.992V373.15H270.318V376.549ZM278.814 389.293C276.49 389.293 274.596 388.58 273.131 387.154C271.676 385.729 270.948 383.829 270.948 381.456V381.046C270.948 379.454 271.256 378.033 271.871 376.783C272.486 375.523 273.355 374.557 274.479 373.883C275.611 373.199 276.9 372.857 278.346 372.857C280.514 372.857 282.218 373.541 283.458 374.908C284.708 376.275 285.333 378.214 285.333 380.724V382.452H275.24C275.377 383.487 275.787 384.317 276.471 384.942C277.164 385.567 278.038 385.88 279.093 385.88C280.724 385.88 281.998 385.289 282.916 384.107L284.996 386.437C284.361 387.335 283.502 388.038 282.418 388.546C281.334 389.044 280.133 389.293 278.814 389.293ZM278.331 376.285C277.491 376.285 276.808 376.568 276.28 377.135C275.763 377.701 275.431 378.512 275.284 379.566H281.173V379.229C281.153 378.292 280.899 377.569 280.411 377.062C279.923 376.544 279.229 376.285 278.331 376.285ZM294.591 381.192C294.591 378.644 295.108 376.617 296.144 375.113C297.188 373.609 298.624 372.857 300.45 372.857C301.163 372.857 301.812 372.999 302.398 373.282V366.5H306.632V373.297C307.237 373.004 307.906 372.857 308.639 372.857C310.475 372.857 311.91 373.609 312.945 375.113C313.99 376.607 314.513 378.736 314.513 381.5C314.513 383.893 313.99 385.792 312.945 387.198C311.9 388.595 310.475 389.293 308.668 389.293C307.916 389.293 307.237 389.156 306.632 388.883V395.094H302.398V388.897C301.812 389.161 301.153 389.293 300.421 389.293C298.712 389.293 297.34 388.653 296.305 387.374C295.27 386.095 294.703 384.342 294.605 382.115L294.591 381.192ZM310.265 381.192C310.265 379.61 310.025 378.399 309.547 377.56C309.068 376.71 308.395 376.285 307.525 376.285C307.252 376.285 306.954 376.319 306.632 376.388V385.807C306.905 385.865 307.213 385.895 307.555 385.895C309.215 385.895 310.113 384.635 310.25 382.115L310.265 381.192ZM298.824 381.5C298.824 384.42 299.718 385.88 301.505 385.88C301.876 385.88 302.174 385.855 302.398 385.807V376.388C302.076 376.319 301.788 376.285 301.534 376.285C300.665 376.285 299.996 376.7 299.527 377.53C299.059 378.351 298.824 379.674 298.824 381.5ZM316.476 380.929C316.476 379.356 316.778 377.955 317.384 376.725C317.989 375.494 318.858 374.542 319.991 373.868C321.134 373.194 322.457 372.857 323.961 372.857C326.1 372.857 327.843 373.512 329.19 374.82C330.548 376.129 331.305 377.906 331.461 380.152L331.49 381.236C331.49 383.668 330.812 385.621 329.454 387.096C328.097 388.561 326.275 389.293 323.99 389.293C321.705 389.293 319.879 388.561 318.512 387.096C317.154 385.631 316.476 383.639 316.476 381.119V380.929ZM320.709 381.236C320.709 382.74 320.992 383.893 321.559 384.693C322.125 385.484 322.936 385.88 323.99 385.88C325.016 385.88 325.816 385.489 326.393 384.708C326.969 383.917 327.257 382.657 327.257 380.929C327.257 379.454 326.969 378.312 326.393 377.501C325.816 376.69 325.006 376.285 323.961 376.285C322.926 376.285 322.125 376.69 321.559 377.501C320.992 378.302 320.709 379.547 320.709 381.236ZM346.812 376.549H341.729V389H337.481V376.549H332.486V373.15H346.812V376.549ZM347.853 380.929C347.853 379.356 348.155 377.955 348.761 376.725C349.366 375.494 350.235 374.542 351.368 373.868C352.511 373.194 353.834 372.857 355.338 372.857C357.477 372.857 359.22 373.512 360.567 374.82C361.925 376.129 362.682 377.906 362.838 380.152L362.867 381.236C362.867 383.668 362.188 385.621 360.831 387.096C359.474 388.561 357.652 389.293 355.367 389.293C353.082 389.293 351.256 388.561 349.889 387.096C348.531 385.631 347.853 383.639 347.853 381.119V380.929ZM352.086 381.236C352.086 382.74 352.369 383.893 352.936 384.693C353.502 385.484 354.312 385.88 355.367 385.88C356.393 385.88 357.193 385.489 357.77 384.708C358.346 383.917 358.634 382.657 358.634 380.929C358.634 379.454 358.346 378.312 357.77 377.501C357.193 376.69 356.383 376.285 355.338 376.285C354.303 376.285 353.502 376.69 352.936 377.501C352.369 378.302 352.086 379.547 352.086 381.236Z" fill="#DFE9FB"/>
</g>
<defs>
<clipPath id="clip0">
<rect width="478.02" height="478" fill="white"/>
</clipPath>
</defs>
</svg>
