<svg id="Capa_1" data-name="Capa 1" xmlns="http://www.w3.org/2000/svg" viewBox="0 0 478.02 478"><defs><style>.cls-1{fill:#dfe9fb;}</style></defs><path class="cls-1" d="M411.7,73.56A238.64,238.64,0,0,0,238.94,0C107.14-.16.17,106.55,0,238.35A238.67,238.67,0,0,0,73.55,411c.14.13.19.34.32.46,1.39,1.33,2.89,2.46,4.29,3.74,3.84,3.41,7.68,6.94,11.72,10.24,2.17,1.7,4.42,3.41,6.64,5,3.82,2.85,7.65,5.7,11.64,8.33,2.71,1.7,5.51,3.41,8.29,5.12,3.69,2.22,7.36,4.45,11.17,6.48,3.22,1.71,6.52,3.18,9.79,4.73,3.59,1.71,7.12,3.41,10.79,4.95s7.35,2.73,11.07,4.06,6.93,2.56,10.5,3.65c4,1.21,8.16,2.15,12.25,3.16,3.42.84,6.73,1.79,10.24,2.47,4.72.94,9.49,1.54,14.27,2.19,3,.41,5.84,1,8.83,1.28,7.81.77,15.7,1.19,23.65,1.19s15.84-.42,23.65-1.19c3-.29,5.88-.87,8.83-1.28,4.78-.65,9.55-1.25,14.27-2.19,3.41-.68,6.82-1.7,10.23-2.47,4.1-1,8.23-1.95,12.26-3.16,3.57-1.09,7-2.42,10.49-3.65s7.45-2.56,11.08-4.06,7.2-3.26,10.79-4.95c3.27-1.55,6.57-3,9.79-4.73,3.81-2,7.48-4.26,11.16-6.48,2.79-1.71,5.59-3.26,8.3-5.12,4-2.63,7.82-5.48,11.64-8.33,2.22-1.71,4.47-3.25,6.64-5,4-3.25,7.88-6.69,11.72-10.24,1.4-1.28,2.9-2.41,4.29-3.74.13-.12.18-.33.32-.46C499.64,319.8,502.88,168.73,411.7,73.56ZM373.34,393.11c-3.1,2.73-6.31,5.32-9.55,7.83-1.91,1.47-3.83,2.92-5.79,4.32q-4.63,3.35-9.42,6.38c-2.32,1.49-4.69,2.92-7.08,4.32q-4.51,2.57-9.15,5.12c-2.73,1.4-5.51,2.71-8.31,4s-5.89,2.68-8.91,3.89-6.23,2.36-9.39,3.41c-2.88,1-5.77,2-8.69,2.89-3.41,1-7,1.86-10.51,2.71-2.76.65-5.49,1.38-8.29,1.93-4.05.79-8.18,1.33-12.32,1.9-2.36.3-4.7.73-7.07,1-6.55.63-13.19,1-19.9,1s-13.35-.38-19.9-1c-2.37-.24-4.71-.67-7.07-1-4.14-.57-8.27-1.11-12.32-1.9-2.8-.54-5.53-1.28-8.29-1.93-3.54-.85-7-1.7-10.52-2.71-2.91-.87-5.8-1.9-8.68-2.89-3.16-1.09-6.32-2.2-9.39-3.41s-6-2.54-8.91-3.89-5.58-2.61-8.31-4c-3.09-1.6-6.14-3.29-9.15-5.12-2.39-1.4-4.76-2.83-7.08-4.32q-4.78-3-9.42-6.38c-2-1.4-3.88-2.85-5.79-4.32-3.24-2.51-6.45-5.12-9.55-7.83-.76-.57-1.44-1.28-2.17-1.93a136.93,136.93,0,0,1,93.06-127.92,101.15,101.15,0,0,0,86.94,0,136.94,136.94,0,0,1,93.07,127.92C374.76,391.83,374.08,392.48,373.34,393.11ZM179.43,136.85a68.27,68.27,0,1,1,93,93,.36.36,0,0,0-.29.11,73,73,0,0,1-14.26,6c-.89.25-1.71.59-2.65.82-1.71.44-3.5.75-5.26,1.05a68.73,68.73,0,0,1-10,1H238a68.73,68.73,0,0,1-10-1c-1.71-.3-3.51-.61-5.25-1.05-.91-.23-1.71-.57-2.65-.82a73.12,73.12,0,0,1-14.27-6l-.3-.11A68.26,68.26,0,0,1,179.43,136.85ZM405.75,357.34h0A171.5,171.5,0,0,0,314.38,239.7a102.4,102.4,0,1,0-150.87,0A171.52,171.52,0,0,0,72.13,357.34c-65.44-92.19-43.76-220,48.42-285.41s220-43.77,285.41,48.41a204.27,204.27,0,0,1-.21,237Z" transform="translate(0 -0.01)"/></svg>