<svg width="20" height="19" viewBox="0 0 20 19" fill="none" xmlns="http://www.w3.org/2000/svg">
<path d="M1.11926 17.0408C2.61084 18.5614 5.03797 18.5629 6.53027 17.0408L15.1874 8.21617C15.6223 7.77738 15.8629 7.18852 15.8644 6.56153C15.8681 5.30838 14.7928 4.21291 13.5636 4.21598C12.9486 4.21749 12.3717 4.46283 11.9383 4.90923L4.36541 12.6285C4.0665 12.934 4.0665 13.4269 4.36541 13.7316C4.66431 14.0363 5.14855 14.0363 5.44745 13.7316L13.0226 6.00923C13.1698 5.85839 13.3618 5.77687 13.5673 5.77614C13.9769 5.77614 14.334 6.14029 14.334 6.55773C14.3333 6.76723 14.2533 6.96303 14.1076 7.11002L5.44745 15.9377C4.55298 16.8519 3.09655 16.8519 2.20131 15.9377C1.30606 15.0266 1.30606 13.5411 2.20131 12.6285L11.9405 2.7C13.4321 1.17943 15.8599 1.17943 17.3515 2.7C18.8431 4.22056 18.8431 6.69561 17.3515 8.21617L9.77637 15.9377C9.47746 16.2424 9.47746 16.7361 9.77637 17.0408C10.0753 17.3455 10.5595 17.3455 10.8584 17.0408L18.4335 9.31925C20.5222 7.19003 20.5222 3.72546 18.4335 1.59692C16.3457 -0.532306 12.947 -0.532306 10.8584 1.59692L1.11926 11.5254C-0.373086 13.0467 -0.373086 15.5202 1.11926 17.0408Z" fill="#72839C"/>
</svg>
