<svg width="22" height="22" viewBox="0 0 22 22" fill="none" xmlns="http://www.w3.org/2000/svg">
<path d="M18.883 17.7986H6.31846C5.14806 17.7986 4.20142 16.7315 4.20142 15.4234V3.37522C4.20142 2.06713 5.16527 1 6.31846 1H18.883C20.0534 1 21 2.06713 21 3.37522V15.4406C21 16.7315 20.0534 17.7986 18.883 17.7986ZM6.31846 2.72117C6.12913 2.72117 5.92259 2.99656 5.92259 3.37522V15.4406C5.92259 15.8193 6.12913 16.0947 6.31846 16.0947H18.883C19.0723 16.0947 19.2789 15.8193 19.2789 15.4406V3.37522C19.2789 2.99656 19.0723 2.72117 18.883 2.72117H6.31846Z" fill="#72839C"/>
<path d="M15.6816 21.2241H3.11704C1.94664 21.2241 1 20.1569 1 18.8488V6.78344C1 6.30151 1.37866 5.92285 1.86059 5.92285C2.34251 5.92285 2.72117 6.31872 2.72117 6.78344V18.8488C2.72117 19.2103 2.92771 19.5029 3.11704 19.5029H15.6816C16.1635 19.5029 16.5422 19.8815 16.5422 20.3635C16.5422 20.8454 16.1463 21.2241 15.6816 21.2241Z" fill="#72839C"/>
<path d="M5.062 12.7211C4.83825 12.7211 4.6145 12.6351 4.45959 12.4629C4.11536 12.1187 4.11536 11.5851 4.45959 11.2409L7.57491 8.12558C8.1429 7.5576 9.03791 7.5576 9.60589 8.12558L11.2926 9.81233L14.6489 6.45605C14.9243 6.19787 15.2858 6.04297 15.6816 6.04297C16.0603 6.04297 16.4217 6.19787 16.6971 6.45605L20.6386 10.3975C20.9828 10.7418 20.9828 11.2753 20.6386 11.6196C20.2944 11.9638 19.7608 11.9638 19.4166 11.6196L15.6816 7.88462L12.1876 11.3786C11.6885 11.8777 10.8968 11.8777 10.3976 11.3786L8.5904 9.55416L5.68162 12.4629C5.50951 12.6351 5.28575 12.7211 5.062 12.7211Z" fill="#72839C"/>
</svg>
