<svg width="190" height="190" viewBox="0 0 190 190" fill="none" xmlns="http://www.w3.org/2000/svg">
<g filter="url(#filter0_d)">
<circle cx="95" cy="95" r="72" fill="white"/>
<circle cx="95" cy="95" r="69.186" stroke="#3366FF" stroke-width="5.62809"/>
</g>
<mask id="mask0" mask-type="alpha" maskUnits="userSpaceOnUse" x="23" y="23" width="144" height="144">
<circle cx="95" cy="95" r="69.186" fill="#3366FF" stroke="#3366FF" stroke-width="5.62809"/>
</mask>
<g mask="url(#mask0)">
<path opacity="0.5" d="M23 145.727C40.3233 147.345 78.1106 149.085 114.5 146.662C150.889 144.238 146.898 146.123 167 145.727V166.999H23V145.727Z" fill="#CCCCCC"/>
</g>
<circle cx="95" cy="95" r="69.186" stroke="#CCCCCC" stroke-width="5.62809"/>
<path d="M91.3376 89.3397H85.2706L83.7144 96.2341C84.6993 95.6432 85.6251 95.3871 86.551 95.3871C87.1813 95.3871 87.9298 95.4659 88.5996 96.0569C89.1511 96.5493 89.3678 97.1206 89.3678 97.8691C89.3678 98.7161 89.0526 99.3859 88.6784 99.7798C88.3632 100.115 87.7526 100.568 86.6691 100.568C86.0388 100.568 85.4085 100.43 84.7584 100.075C84.1675 99.7601 83.7538 99.3662 83.3992 98.8934L82.5522 101.1C83.025 101.553 83.6159 101.966 84.1478 102.222C85.1524 102.715 86.2752 102.774 86.9843 102.774C88.3829 102.774 89.5451 102.479 90.5891 101.435C91.4952 100.528 91.9286 99.4253 91.9286 98.007C91.9286 97.2191 91.8104 95.919 90.7664 94.8553C90.0179 94.087 88.7769 93.5355 87.3783 93.5355C87.0434 93.5355 86.7479 93.5749 86.4919 93.6143L86.9646 91.5459H91.3376V89.3397ZM97.136 89.1822C95.0874 89.1822 93.8267 90.5019 93.8267 92.2945C93.8267 94.087 95.0874 95.4068 97.136 95.4068C99.1847 95.4068 100.445 94.087 100.445 92.2945C100.445 90.5019 99.1847 89.1822 97.136 89.1822ZM97.136 93.9885C96.1708 93.9885 95.4814 93.2794 95.4814 92.2945C95.4814 91.3096 96.1708 90.6004 97.136 90.6004C98.1012 90.6004 98.7907 91.3096 98.7907 92.2945C98.7907 93.2794 98.1012 93.9885 97.136 93.9885ZM96.4269 102.419L97.4709 103.03L105.291 89.4973L104.247 88.9064L96.4269 102.419ZM104.582 96.4508C102.533 96.4508 101.273 97.7706 101.273 99.5632C101.273 101.356 102.533 102.675 104.582 102.675C106.631 102.675 107.891 101.356 107.891 99.5632C107.891 97.7706 106.631 96.4508 104.582 96.4508ZM104.582 101.257C103.617 101.257 102.927 100.548 102.927 99.5632C102.927 98.5782 103.617 97.8691 104.582 97.8691C105.547 97.8691 106.237 98.5782 106.237 99.5632C106.237 100.548 105.547 101.257 104.582 101.257Z" fill="#72839C"/>
<defs>
<filter id="filter0_d" x="0.487637" y="0.487637" width="189.025" height="189.025" filterUnits="userSpaceOnUse" color-interpolation-filters="sRGB">
<feFlood flood-opacity="0" result="BackgroundImageFix"/>
<feColorMatrix in="SourceAlpha" type="matrix" values="0 0 0 0 0 0 0 0 0 0 0 0 0 0 0 0 0 0 127 0"/>
<feOffset/>
<feGaussianBlur stdDeviation="11.2562"/>
<feColorMatrix type="matrix" values="0 0 0 0 0.816667 0 0 0 0 0.816667 0 0 0 0 0.816667 0 0 0 1 0"/>
<feBlend mode="normal" in2="BackgroundImageFix" result="effect1_dropShadow"/>
<feBlend mode="normal" in="SourceGraphic" in2="effect1_dropShadow" result="shape"/>
</filter>
</defs>
</svg>
