<svg width="18" height="16" viewBox="0 0 18 16" fill="none" xmlns="http://www.w3.org/2000/svg">
<path d="M6.75 0.5C5.95435 0.5 5.19129 0.81607 4.62868 1.37868C4.06607 1.94129 3.75 2.70435 3.75 3.5C3.75 4.29565 4.06607 5.05871 4.62868 5.62132C5.19129 6.18393 5.95435 6.5 6.75 6.5C7.54565 6.5 8.30871 6.18393 8.87132 5.62132C9.43393 5.05871 9.75 4.29565 9.75 3.5C9.75 2.70435 9.43393 1.94129 8.87132 1.37868C8.30871 0.81607 7.54565 0.5 6.75 0.5ZM6.75 8C4.7475 8 0.75 8.9975 0.75 11V12.5H9.06C9.0225 12.2525 9 12.005 9 11.75C9 10.625 9.375 9.5 10.0575 8.6C8.91 8.21 7.635 8 6.75 8ZM13.5 8C13.4025 8 13.32 8.0675 13.305 8.1575L13.1625 9.1475C12.9375 9.245 12.72 9.365 12.525 9.5L11.595 9.125C11.5125 9.125 11.415 9.125 11.3625 9.2225L10.6125 10.52C10.5675 10.6025 10.5825 10.7 10.6575 10.76L11.4525 11.375C11.4375 11.5025 11.43 11.6225 11.43 11.75C11.43 11.8775 11.4375 11.9975 11.4525 12.125L10.6575 12.74C10.59 12.8 10.5675 12.8975 10.6125 12.98L11.3625 14.2775C11.4075 14.375 11.505 14.375 11.595 14.375L12.525 14C12.72 14.135 12.93 14.2625 13.1625 14.3525L13.305 15.3425C13.32 15.4325 13.395 15.5 13.5 15.5H15C15.0825 15.5 15.165 15.4325 15.18 15.3425L15.3225 14.3525C15.5475 14.255 15.75 14.135 15.9525 14L16.875 14.375C16.9725 14.375 17.07 14.375 17.1225 14.2775L17.8725 12.98C17.9175 12.8975 17.895 12.8 17.8275 12.74L17.025 12.125C17.04 11.9975 17.055 11.8775 17.055 11.75C17.055 11.6225 17.0475 11.5025 17.025 11.375L17.82 10.76C17.8875 10.7 17.91 10.6025 17.865 10.52L17.115 9.2225C17.07 9.125 16.9725 9.125 16.875 9.125L15.9525 9.5C15.75 9.365 15.5475 9.2375 15.315 9.1475L15.1725 8.1575C15.165 8.0675 15.0825 8 15 8H13.5ZM14.25 10.625C14.5484 10.625 14.8345 10.7435 15.0455 10.9545C15.2565 11.1655 15.375 11.4516 15.375 11.75C15.375 12.0484 15.2565 12.3345 15.0455 12.5455C14.8345 12.7565 14.5484 12.875 14.25 12.875C13.62 12.875 13.125 12.3725 13.125 11.75C13.125 11.4516 13.2435 11.1655 13.4545 10.9545C13.6655 10.7435 13.9516 10.625 14.25 10.625Z" fill="#72839C"/>
</svg>
