<svg width="16" height="16" viewBox="0 0 16 16" fill="none" xmlns="http://www.w3.org/2000/svg">
<path d="M7.797 10.625C7.10081 10.625 6.43313 10.3484 5.94084 9.85616C5.44856 9.36387 5.172 8.69619 5.172 8C5.172 7.30381 5.44856 6.63613 5.94084 6.14384C6.43313 5.65156 7.10081 5.375 7.797 5.375C8.49319 5.375 9.16087 5.65156 9.65315 6.14384C10.1454 6.63613 10.422 7.30381 10.422 8C10.422 8.69619 10.1454 9.36387 9.65315 9.85616C9.16087 10.3484 8.49319 10.625 7.797 10.625ZM13.3695 8.7275C13.3995 8.4875 13.422 8.2475 13.422 8C13.422 7.7525 13.3995 7.505 13.3695 7.25L14.952 6.0275C15.0945 5.915 15.132 5.7125 15.042 5.5475L13.542 2.9525C13.452 2.7875 13.2495 2.72 13.0845 2.7875L11.217 3.5375C10.827 3.245 10.422 2.99 9.9495 2.8025L9.672 0.815C9.642 0.635 9.4845 0.5 9.297 0.5H6.297C6.1095 0.5 5.952 0.635 5.922 0.815L5.6445 2.8025C5.172 2.99 4.767 3.245 4.377 3.5375L2.5095 2.7875C2.3445 2.72 2.142 2.7875 2.052 2.9525L0.551999 5.5475C0.454499 5.7125 0.499499 5.915 0.641999 6.0275L2.2245 7.25C2.1945 7.505 2.172 7.7525 2.172 8C2.172 8.2475 2.1945 8.4875 2.2245 8.7275L0.641999 9.9725C0.499499 10.085 0.454499 10.2875 0.551999 10.4525L2.052 13.0475C2.142 13.2125 2.3445 13.2725 2.5095 13.2125L4.377 12.455C4.767 12.755 5.172 13.01 5.6445 13.1975L5.922 15.185C5.952 15.365 6.1095 15.5 6.297 15.5H9.297C9.4845 15.5 9.642 15.365 9.672 15.185L9.9495 13.1975C10.422 13.0025 10.827 12.755 11.217 12.455L13.0845 13.2125C13.2495 13.2725 13.452 13.2125 13.542 13.0475L15.042 10.4525C15.132 10.2875 15.0945 10.085 14.952 9.9725L13.3695 8.7275Z" fill="#72839C"/>
</svg>
