<svg width="16" height="17" viewBox="0 0 16 17" fill="none" xmlns="http://www.w3.org/2000/svg">
<path d="M8.46944 0C7.43523 0 6.56299 0.872251 6.56299 1.90646C6.56299 2.94066 7.43523 3.81291 8.46944 3.81291C9.50364 3.81291 10.3446 2.94066 10.3446 1.90646C10.3446 0.872251 9.50364 0 8.46944 0Z" fill="#72839C"/>
<path d="M10.5508 3.81299C10.0355 4.38427 9.29763 4.75059 8.46954 4.75059C7.64145 4.75059 6.87228 4.38427 6.35707 3.81299C5.90727 4.31176 5.62549 4.96518 5.62549 5.68819V6.15699C5.62549 6.41611 5.83517 6.62579 6.09429 6.62579H10.8135C11.0727 6.62579 11.2823 6.41611 11.2823 6.15699V5.68819C11.2823 4.96518 11.0006 4.31176 10.5508 3.81299Z" fill="#72839C"/>
<path d="M4.52929 14.3892L2.14025 9.59943C1.90957 9.13691 1.34813 8.9483 0.885052 9.17773L0.26064 9.48704C0.0281464 9.60234 -0.0664577 9.8849 0.0495862 10.117L2.86239 15.7426C2.97806 15.9746 3.25943 16.0669 3.49005 15.9532L4.10643 15.6478C4.57133 15.4176 4.76082 14.8535 4.52929 14.3892Z" fill="#72839C"/>
<path d="M15.6175 7.74133C15.233 7.46005 14.6986 7.51631 14.3798 7.86322L11.817 11.0136C11.6389 11.2011 11.3014 11.3136 11.1232 11.3136H8.93857C8.67601 11.3136 8.46977 11.1074 8.46977 10.8448C8.46977 10.5822 8.67601 10.376 8.93857 10.376C9.56645 10.376 10.2616 10.376 10.8138 10.376C11.3295 10.376 11.7514 9.95407 11.7514 9.43839C11.7514 8.92271 11.3295 8.50079 10.8138 8.50079C8.6121 8.50079 10.7122 8.50079 8.35726 8.50079C8.12361 8.50079 8.0071 8.35262 7.82283 8.19135C7.09747 7.53862 6.01173 7.22415 4.91254 7.47893C4.30223 7.62038 3.89065 7.86694 3.47323 8.19754L3.45932 8.18626L2.78125 8.78301L5.44604 14.1264H6.23512H10.8138C11.6951 14.1264 12.539 13.7045 13.0641 13.0013L15.8143 9.06335C16.1237 8.65078 16.0393 8.05077 15.6175 7.74133Z" fill="#72839C"/>
</svg>
