<svg width="18" height="11" viewBox="0 0 18 11" fill="none" xmlns="http://www.w3.org/2000/svg">
<path d="M8.8 0C8.16348 0 7.55303 0.252857 7.10294 0.702944C6.65286 1.15303 6.4 1.76348 6.4 2.4C6.4 3.03652 6.65286 3.64697 7.10294 4.09706C7.55303 4.54714 8.16348 4.8 8.8 4.8C9.43652 4.8 10.047 4.54714 10.4971 4.09706C10.9471 3.64697 11.2 3.03652 11.2 2.4C11.2 1.76348 10.9471 1.15303 10.4971 0.702944C10.047 0.252857 9.43652 0 8.8 0ZM4 1.736C3.46957 1.736 2.96086 1.94671 2.58579 2.32179C2.21071 2.69686 2 3.20557 2 3.736C2 3.99864 2.05173 4.25872 2.15224 4.50137C2.25275 4.74402 2.40007 4.9645 2.58579 5.15021C2.7715 5.33593 2.99198 5.48325 3.23463 5.58376C3.47728 5.68427 3.73736 5.736 4 5.736C4.704 5.736 5.32 5.368 5.672 4.824C5.136 4.144 4.8 3.32 4.8 2.4C4.8 2.24 4.8 2.08 4.832 1.92C4.576 1.8 4.296 1.736 4 1.736ZM13.6 1.736C13.304 1.736 13.024 1.8 12.768 1.92C12.8 2.08 12.8 2.24 12.8 2.4C12.8 3.32 12.464 4.144 11.928 4.824C12.28 5.368 12.896 5.736 13.6 5.736C13.8626 5.736 14.1227 5.68427 14.3654 5.58376C14.608 5.48325 14.8285 5.33593 15.0142 5.15021C15.1999 4.9645 15.3472 4.74402 15.4478 4.50137C15.5483 4.25872 15.6 3.99864 15.6 3.736C15.6 3.47336 15.5483 3.21328 15.4478 2.97063C15.3472 2.72798 15.1999 2.5075 15.0142 2.32179C14.8285 2.13607 14.608 1.98875 14.3654 1.88824C14.1227 1.78773 13.8626 1.736 13.6 1.736ZM8.8 6.4C7.2 6.4 4 7.2 4 8.8V10.4H13.6V8.8C13.6 7.2 10.4 6.4 8.8 6.4ZM2.936 7.176C1.6 7.408 0 8.032 0 9.064V10.4H2.4V8.8C2.4 8.176 2.632 7.624 2.936 7.176ZM14.664 7.176C14.968 7.624 15.2 8.176 15.2 8.8V10.4H17.6V9.064C17.6 8.032 16 7.408 14.664 7.176Z" fill="#72839C"/>
</svg>
