<svg width="16" height="16" viewBox="0 0 16 16" fill="none" xmlns="http://www.w3.org/2000/svg">
<path d="M15.5312 1.15479H13.478C13.4855 0.927368 13.4896 0.698608 13.4896 0.46875C13.4896 0.209839 13.2797 0 13.0209 0H2.97925C2.72034 0 2.5105 0.209839 2.5105 0.46875C2.5105 0.698608 2.51453 0.927368 2.52197 1.15479H0.46875C0.209839 1.15479 0 1.36462 0 1.62354C0 3.72388 0.54895 5.70544 1.54565 7.20337C2.53088 8.6842 3.84326 9.53357 5.26086 9.61621C5.58228 9.96594 5.92212 10.2511 6.276 10.4686V12.552H5.48962C4.53894 12.552 3.76562 13.3254 3.76562 14.276V15.0624H3.7323C3.47339 15.0624 3.26355 15.2723 3.26355 15.5311C3.26355 15.79 3.47339 15.9999 3.7323 15.9999H12.2677C12.5266 15.9999 12.7365 15.79 12.7365 15.5311C12.7365 15.2723 12.5266 15.0624 12.2677 15.0624H12.2344V14.276C12.2344 13.3254 11.4609 12.552 10.5104 12.552H9.724V10.4686C10.0779 10.2511 10.4176 9.96594 10.739 9.61621C12.1567 9.53357 13.469 8.6842 14.4543 7.20337C15.451 5.70544 16 3.72388 16 1.62354C16 1.36462 15.79 1.15479 15.5312 1.15479ZM2.32617 6.68408C1.50403 5.44849 1.021 3.83264 0.947388 2.09229H2.57434C2.74341 4.23169 3.24561 6.20911 4.03052 7.77893C4.15552 8.02893 4.28625 8.26501 4.42188 8.48755C3.64221 8.19312 2.92065 7.57764 2.32617 6.68408ZM13.6738 6.68408C13.0793 7.57764 12.3578 8.19312 11.5781 8.48755C11.7139 8.26501 11.8445 8.02893 11.9695 7.77893C12.7544 6.20911 13.2565 4.23169 13.4257 2.09229H15.0526C14.979 3.83264 14.496 5.44849 13.6738 6.68408Z" fill="#72839C"/>
</svg>
