<svg width="16" height="13" viewBox="0 0 16 13" fill="none" xmlns="http://www.w3.org/2000/svg">
<path d="M11.6762 5.36099C11.5225 4.11977 9.67693 3.09701 7.29207 2.9517C7.29207 2.9517 6.02578 2.02757 5.94078 0.432393C5.92684 0.190895 5.73669 -0.0491303 5.48973 0.00871934C4.85246 0.15756 3.77044 0.934215 3.71653 4.48128C3.71653 4.48128 0.250468 6.14128 0 10.927C2.22178 12.1942 4.81084 12.9375 7.57434 12.9808L7.54336 12.2952C7.53189 12.0537 7.71647 11.7889 7.95454 11.7043L10.9069 10.6532C10.9069 10.6532 14.1898 10.8364 14.7657 9.84961C15.0573 9.3522 15.671 9.02493 15.8703 8.80098C16.0334 8.61675 16.0528 7.92071 15.8703 7.75235C15.2671 7.19964 11.7911 6.28854 11.6762 5.36099ZM9.92492 6.5624C9.63861 6.5624 9.40622 6.34287 9.40622 6.07009C9.40622 5.79673 9.63861 5.5767 9.92492 5.5767C10.2123 5.5767 10.4447 5.79673 10.4447 6.07009C10.4448 6.34277 10.2124 6.5624 9.92492 6.5624Z" fill="#72839C"/>
</svg>
