<svg width="15" height="13" viewBox="0 0 15 13" fill="none" xmlns="http://www.w3.org/2000/svg">
<path d="M10.9465 5.02593C10.8024 3.86228 9.07212 2.90344 6.83631 2.76722C6.83631 2.76722 5.64917 1.90085 5.56948 0.405369C5.55641 0.178964 5.37814 -0.0460597 5.14662 0.00817438C4.54918 0.147712 3.53479 0.875827 3.48424 4.2012C3.48424 4.2012 0.234813 5.75745 0 10.2441C2.08292 11.4321 4.51016 12.1289 7.10095 12.1695L7.0719 11.5268C7.06115 11.3004 7.23419 11.0521 7.45738 10.9727L10.2252 9.98734C10.2252 9.98734 13.3029 10.1591 13.8428 9.23401C14.1162 8.76769 14.6915 8.46087 14.8784 8.25092C15.0313 8.0782 15.0495 7.42566 14.8784 7.26783C14.3129 6.74967 11.0541 5.89551 10.9465 5.02593ZM9.30461 6.15225C9.0362 6.15225 8.81833 5.94644 8.81833 5.69071C8.81833 5.43443 9.0362 5.22816 9.30461 5.22816C9.57399 5.22816 9.79186 5.43443 9.79186 5.69071C9.79196 5.94635 9.57409 6.15225 9.30461 6.15225Z" fill="#72839C"/>
</svg>
