<svg width="15" height="10" viewBox="0 0 15 10" fill="none" xmlns="http://www.w3.org/2000/svg">
<path d="M10.2273 5.45455C10.0295 5.45455 9.80455 5.45455 9.56591 5.48864C10.3568 6.06136 10.9091 6.81818 10.9091 7.84091V9.54545H15V7.84091C15 6.25227 11.8159 5.45455 10.2273 5.45455ZM4.77273 5.45455C3.18409 5.45455 0 6.25227 0 7.84091V9.54545H9.54545V7.84091C9.54545 6.25227 6.36136 5.45455 4.77273 5.45455ZM4.77273 4.09091C5.31522 4.09091 5.83549 3.87541 6.21908 3.49181C6.60268 3.10821 6.81818 2.58794 6.81818 2.04545C6.81818 1.50297 6.60268 0.982697 6.21908 0.5991C5.83549 0.215503 5.31522 0 4.77273 0C4.23024 0 3.70997 0.215503 3.32637 0.5991C2.94278 0.982697 2.72727 1.50297 2.72727 2.04545C2.72727 2.58794 2.94278 3.10821 3.32637 3.49181C3.70997 3.87541 4.23024 4.09091 4.77273 4.09091ZM10.2273 4.09091C10.7698 4.09091 11.29 3.87541 11.6736 3.49181C12.0572 3.10821 12.2727 2.58794 12.2727 2.04545C12.2727 1.50297 12.0572 0.982697 11.6736 0.5991C11.29 0.215503 10.7698 0 10.2273 0C9.68478 0 9.16451 0.215503 8.78092 0.5991C8.39732 0.982697 8.18182 1.50297 8.18182 2.04545C8.18182 2.58794 8.39732 3.10821 8.78092 3.49181C9.16451 3.87541 9.68478 4.09091 10.2273 4.09091Z" fill="#72839C"/>
</svg>
