<svg width="15" height="12" viewBox="0 0 15 12" fill="none" xmlns="http://www.w3.org/2000/svg">
<path d="M1.25024 0H13.7502C14.4065 0 15.0002 0.59375 15.0002 1.25V10C15.0002 10.6563 14.4065 11.25 13.7502 11.25H1.25024C0.593994 11.25 0.000244141 10.6563 0.000244141 10V1.25C0.000244141 0.59375 0.593994 0 1.25024 0ZM8.75024 1.875V2.5H13.7502V1.875H8.75024ZM8.75024 3.125V3.75H13.4377H13.7502V3.125H8.75024ZM8.75024 4.375V5H13.1252V4.375H8.75024ZM5.00024 6.81875C3.75024 6.81875 1.25024 7.5 1.25024 8.75V9.375H8.75024V8.75C8.75024 7.5 6.25024 6.81875 5.00024 6.81875ZM5.00024 1.875C4.50296 1.875 4.02605 2.07254 3.67442 2.42418C3.32279 2.77581 3.12524 3.25272 3.12524 3.75C3.12524 4.24728 3.32279 4.7242 3.67442 5.07583C4.02605 5.42746 4.50296 5.625 5.00024 5.625C5.49753 5.625 5.97444 5.42746 6.32607 5.07583C6.6777 4.7242 6.87524 4.24728 6.87524 3.75C6.87524 3.25272 6.6777 2.77581 6.32607 2.42418C5.97444 2.07254 5.49753 1.875 5.00024 1.875Z" fill="#72839C"/>
</svg>
