<svg width="16" height="11" viewBox="0 0 16 11" fill="none" xmlns="http://www.w3.org/2000/svg">
<path d="M7.33333 4V5.33333H6.66667V6.66667H5.33333V5.33333H3.88667C3.61333 6.11333 2.87333 6.66667 2 6.66667C1.46957 6.66667 0.960859 6.45595 0.585786 6.08088C0.210714 5.70581 0 5.1971 0 4.66667C0 4.13623 0.210714 3.62753 0.585786 3.25245C0.960859 2.87738 1.46957 2.66667 2 2.66667C2.87333 2.66667 3.61333 3.22 3.88667 4H7.33333ZM2 4C1.82319 4 1.65362 4.07024 1.5286 4.19526C1.40357 4.32029 1.33333 4.48985 1.33333 4.66667C1.33333 4.84348 1.40357 5.01305 1.5286 5.13807C1.65362 5.26309 1.82319 5.33333 2 5.33333C2.17681 5.33333 2.34638 5.26309 2.4714 5.13807C2.59643 5.01305 2.66667 4.84348 2.66667 4.66667C2.66667 4.48985 2.59643 4.32029 2.4714 4.19526C2.34638 4.07024 2.17681 4 2 4ZM10.6667 6.66667C12.4467 6.66667 16 7.56 16 9.33333V10.6667H5.33333V9.33333C5.33333 7.56 8.88667 6.66667 10.6667 6.66667ZM10.6667 5.33333C9.95942 5.33333 9.28115 5.05238 8.78105 4.55228C8.28095 4.05219 8 3.37391 8 2.66667C8 1.95942 8.28095 1.28115 8.78105 0.781048C9.28115 0.280951 9.95942 0 10.6667 0C11.3739 0 12.0522 0.280951 12.5523 0.781048C13.0524 1.28115 13.3333 1.95942 13.3333 2.66667C13.3333 3.37391 13.0524 4.05219 12.5523 4.55228C12.0522 5.05238 11.3739 5.33333 10.6667 5.33333Z" fill="#72839C"/>
</svg>
