<svg width="16" height="9" viewBox="0 0 16 9" fill="none" xmlns="http://www.w3.org/2000/svg">
<path d="M8.66667 5.33333C7.33333 5.33333 4.66667 6 4.66667 7.33333V8.66667H12.6667V7.33333C12.6667 6 10 5.33333 8.66667 5.33333ZM13.08 5.44C13.6333 5.92 14 6.54667 14 7.33333V8.66667H16V7.33333C16 6.30667 14.42 5.66667 13.08 5.44ZM8.66667 4C9.1971 4 9.70581 3.78929 10.0809 3.41421C10.456 3.03914 10.6667 2.53043 10.6667 2C10.6667 1.46957 10.456 0.960859 10.0809 0.585786C9.70581 0.210714 9.1971 0 8.66667 0C8.13623 0 7.62753 0.210714 7.25245 0.585786C6.87738 0.960859 6.66667 1.46957 6.66667 2C6.66667 2.53043 6.87738 3.03914 7.25245 3.41421C7.62753 3.78929 8.13623 4 8.66667 4ZM12 4C12.5304 4 13.0391 3.78929 13.4142 3.41421C13.7893 3.03914 14 2.53043 14 2C14 1.46957 13.7893 0.960859 13.4142 0.585786C13.0391 0.210714 12.5304 0 12 0C11.7867 0 11.58 0.0333332 11.3867 0.0933332C11.7667 0.633333 12 1.29333 12 2C12 2.70667 11.7667 3.36 11.3867 3.9C11.58 3.96667 11.7867 4 12 4ZM5.33333 3.33333H3.33333V1.33333H2V3.33333H0V4.66667H2V6.66667H3.33333V4.66667H5.33333V3.33333Z" fill="#72839C"/>
</svg>
