<svg width="14" height="16" viewBox="0 0 14 16" fill="none" xmlns="http://www.w3.org/2000/svg">
<path d="M10.75 6.5H3.25V5H10.75V6.5ZM10.75 9.5H3.25V8H10.75V9.5ZM8.5 12.5H3.25V11H8.5V12.5ZM7 2C7.19891 2 7.38968 2.07902 7.53033 2.21967C7.67098 2.36032 7.75 2.55109 7.75 2.75C7.75 2.94891 7.67098 3.13968 7.53033 3.28033C7.38968 3.42098 7.19891 3.5 7 3.5C6.80109 3.5 6.61032 3.42098 6.46967 3.28033C6.32902 3.13968 6.25 2.94891 6.25 2.75C6.25 2.55109 6.32902 2.36032 6.46967 2.21967C6.61032 2.07902 6.80109 2 7 2ZM12.25 2H9.115C8.8 1.13 7.975 0.5 7 0.5C6.025 0.5 5.2 1.13 4.885 2H1.75C1.35218 2 0.970644 2.15804 0.68934 2.43934C0.408035 2.72064 0.25 3.10218 0.25 3.5V14C0.25 14.3978 0.408035 14.7794 0.68934 15.0607C0.970644 15.342 1.35218 15.5 1.75 15.5H12.25C12.6478 15.5 13.0294 15.342 13.3107 15.0607C13.592 14.7794 13.75 14.3978 13.75 14V3.5C13.75 3.10218 13.592 2.72064 13.3107 2.43934C13.0294 2.15804 12.6478 2 12.25 2Z" fill="#72839C"/>
</svg>
