<svg width="161" height="163" viewBox="0 0 161 163" fill="none" xmlns="http://www.w3.org/2000/svg">
<path d="M160 80.9838C160 83.6099 159.871 86.2037 159.613 88.8298C159.355 91.4235 158.969 94.0172 158.453 96.5785C157.937 99.1398 157.325 101.701 156.551 104.198C155.81 106.694 154.907 109.158 153.908 111.59C152.909 114.021 151.813 116.388 150.588 118.69C149.363 120.992 148.01 123.229 146.592 125.434C145.141 127.606 143.594 129.713 141.95 131.723C140.306 133.734 138.566 135.679 136.696 137.527C134.859 139.375 132.925 141.126 130.927 142.812C128.928 144.465 126.833 146.021 124.674 147.48C122.514 148.939 120.29 150.268 117.97 151.501C115.681 152.733 113.328 153.867 110.911 154.872C108.493 155.877 106.044 156.753 103.562 157.531C101.08 158.277 98.5337 158.925 95.9874 159.444C93.4411 159.963 90.8625 160.352 88.284 160.611C85.7054 160.87 83.0947 161 80.4839 161C77.8731 161 75.2945 160.87 72.6838 160.611C70.1052 160.352 67.5267 159.963 64.9803 159.444C62.434 158.925 59.8877 158.309 57.4058 157.531C54.924 156.785 52.4744 155.877 50.057 154.872C47.6396 153.867 45.2866 152.765 42.9982 151.501C40.7097 150.268 38.4857 148.907 36.2939 147.48C34.1344 146.021 32.0393 144.465 30.0409 142.812C28.0426 141.158 26.1087 139.407 24.2714 137.527C22.4342 135.679 20.6937 133.734 19.0176 131.723C17.3738 129.713 15.8267 127.606 14.3762 125.434C12.9258 123.261 11.6043 121.024 10.3795 118.69C9.15467 116.388 8.02656 114.021 7.0596 111.59C6.06041 109.158 5.19015 106.694 4.41658 104.198C3.67525 101.701 3.03061 99.1398 2.5149 96.5785C1.99919 94.0172 1.61241 91.4235 1.35455 88.8298C1.12893 86.2037 1 83.5775 1 80.9838C1 78.3901 1.12893 75.7639 1.38678 73.1378C1.64464 70.5441 2.03142 67.9504 2.54713 65.3891C3.06284 62.8278 3.67525 60.2989 4.44881 57.77C5.19015 55.2736 6.09264 52.8095 7.09183 50.3779C8.09102 47.9463 9.1869 45.5795 10.4117 43.2776C11.6365 40.9757 12.9903 38.7386 14.4085 36.5339C15.8589 34.3617 17.406 32.2543 19.0499 30.2442C20.6937 28.2016 22.4342 26.2888 24.2714 24.4083C26.1409 22.5603 28.0426 20.8095 30.0732 19.156C32.0716 17.5025 34.1666 15.9463 36.3262 14.4873C38.4857 13.0284 40.7097 11.6991 43.0304 10.4671C45.3189 9.23506 47.6718 8.1003 50.0892 7.12766C52.5066 6.12259 54.9562 5.24721 57.4381 4.4691C59.9199 3.7234 62.4662 3.07497 65.0126 2.55623C67.5589 2.03749 70.1374 1.64843 72.716 1.38906C75.2945 1.12969 77.9053 1 80.5161 1C83.1269 1 85.7054 1.12969 88.3162 1.38906C90.927 1.64843 93.4733 2.03749 96.0197 2.55623C98.566 3.07497 101.112 3.69098 103.594 4.4691C106.076 5.21479 108.526 6.12259 110.943 7.12766C113.36 8.13273 115.713 9.23506 118.002 10.4671C120.29 11.6991 122.514 13.0608 124.706 14.4873C126.866 15.9463 128.961 17.5025 130.959 19.156C132.957 20.8095 134.891 22.5603 136.729 24.4407C138.566 26.2888 140.306 28.234 141.982 30.2442C143.626 32.2543 145.173 34.3617 146.624 36.5339C148.074 38.7062 149.396 40.9433 150.62 43.2776C151.845 45.5795 152.973 47.9463 153.94 50.3779C154.94 52.8095 155.81 55.2736 156.583 57.77C157.325 60.2665 157.969 62.8278 158.485 65.3891C159.001 67.9504 159.388 70.5441 159.645 73.1378C159.871 75.7315 160 78.3577 160 80.9838Z" fill="white"/>
<path d="M79.7718 135.102C79.1192 135.627 78.793 135.266 78.6951 134.872C78.6298 134.675 78.5972 134.511 78.5972 134.314C78.532 133.526 78.4667 132.77 78.4341 131.982C78.4341 131.523 78.4993 131.03 78.532 130.57C78.6298 129.881 78.7603 129.191 78.8582 128.502C78.9887 127.648 79.1519 126.827 79.2824 125.973C79.5107 124.43 79.7065 122.886 79.9023 121.343C79.9675 120.916 79.9675 120.489 80.2938 120.161C80.8158 120.227 81.2073 120.621 81.2399 121.146C81.2726 121.474 81.2399 121.803 81.1747 122.164C81.0442 122.722 81.0442 123.248 81.2726 123.806C81.3378 123.97 81.3704 124.134 81.4357 124.298C81.8924 125.448 81.6314 126.466 80.9463 127.385C80.62 127.812 80.3264 128.272 80.2285 128.83C80.2285 128.797 79.9023 135.003 79.7718 135.102Z" fill="#4067AC"/>
<path d="M79.6742 114.314C79.7721 114.051 79.87 113.756 80.0005 113.493C80.4573 112.705 80.5551 111.818 80.5878 110.932C80.6204 110.538 80.4246 110.209 80.0331 110.078C79.9026 110.012 79.7721 109.979 79.6416 109.914C78.7933 109.651 78.6628 109.191 79.1196 108.469C79.7069 107.582 80.2615 106.663 80.8161 105.776C81.0119 105.513 81.6318 105.218 81.6318 105.349C81.6318 105.907 81.8928 106.302 82.3822 106.531C82.8716 106.794 82.9695 107.024 82.9042 107.582C82.8716 107.714 82.8716 107.878 82.8063 108.009C82.4801 109.224 82.1538 110.439 81.7623 111.621C81.5339 112.278 81.2403 112.902 80.8814 113.526C80.6856 113.821 80.3594 114.084 80.0984 114.314C80.0005 114.38 79.8374 114.38 79.7069 114.412C79.7395 114.38 79.7069 114.347 79.6742 114.314Z" fill="#4067AC"/>
<path d="M84.7627 118.057C84.6975 118.32 84.6322 118.616 84.306 118.681C83.9797 118.747 83.7513 118.517 83.6535 118.254C83.4577 117.795 83.3272 117.335 83.2293 116.875C83.1641 116.383 83.1967 115.857 83.1641 115.365C83.1641 115.266 83.1641 115.135 83.1967 115.036C83.2293 114.741 83.3272 114.445 83.6535 114.347C83.8818 114.281 84.2733 114.445 84.4365 114.774C84.567 114.971 84.6975 115.233 84.6975 115.463C84.7954 116.251 84.7627 118.024 84.7627 118.057Z" fill="#4067AC"/>
<path d="M104.078 48.6385C104.209 48.8027 104.339 48.934 104.405 49.1311C104.6 49.4594 104.763 49.8206 104.927 50.149C105.188 50.7401 105.546 51.2983 105.971 51.7581C106.362 52.1849 106.623 52.6447 106.525 53.2686C106.427 53.8597 106.232 53.4328 105.644 53.3343C104.992 53.2357 103.817 52.1193 103.197 52.382C102.316 52.776 101.697 52.9074 100.75 53.2357C99.5759 53.6626 98.7602 54.4836 97.5531 54.3194C96.2807 54.1224 95.8891 55.6986 95.5303 56.9464C95.4976 57.1106 95.465 57.2419 95.3997 57.4061C95.0735 58.3584 94.1273 58.5554 93.4422 57.833C93.018 57.4061 92.8875 56.815 93.2138 56.2896C93.7358 55.5015 93.9316 54.6149 94.0294 53.6955C94.0621 53.2357 94.3557 52.9402 94.7798 52.8089C95.4324 52.579 95.5955 52.3163 95.3671 51.6595C95.1714 51.1341 94.9104 50.6087 94.682 50.0833C94.5188 49.6565 94.3557 49.2296 94.2578 48.7698C94.2252 48.5728 94.3557 48.2444 94.4862 48.1131C94.682 47.8832 94.943 48.0474 95.1714 48.2116C95.6281 48.54 96.0849 48.8684 96.509 49.2624C97.5204 50.1819 98.0098 50.1819 98.9886 49.1967C99.4454 48.737 99.9022 48.2773 100.424 47.8832C100.75 47.6534 101.175 47.522 101.599 47.4235C102.055 47.3578 102.414 47.5549 102.643 47.9817C102.741 48.2116 102.871 48.4086 103.002 48.5728C103.328 48.9997 103.491 49.0325 103.915 48.6713C103.915 48.7042 103.98 48.7042 104.078 48.6385Z" fill="#4067AC"/>
<path d="M56.1157 68.967C56.0831 69.1641 56.0831 69.3611 56.0178 69.5253C55.6589 70.4447 55.1043 71.2985 54.4192 71.9881C53.5056 72.9075 53.0815 73.9912 52.9183 75.239C52.8857 75.5017 52.8205 75.7644 52.7878 76.0271C52.7226 76.8152 52.2658 77.3078 51.5481 77.5705C51.287 77.669 51.0587 77.7675 50.8303 77.8988C50.3409 78.1287 49.9494 78.4899 49.6884 78.9825C49.0358 80.1974 48.1549 81.1826 47.0783 82.0363C46.8499 82.2005 46.6541 82.3976 46.2626 82.2334C46.1321 81.7408 46.2626 81.2811 46.5236 80.8542C46.9478 80.1974 47.4372 79.5407 47.8613 78.8839C48.7748 77.3406 50.1125 76.2241 51.3849 75.0091C52.429 73.9912 53.3425 72.8747 53.7993 71.4627C54.1255 70.4776 54.8107 69.7551 55.5937 69.0984C55.7242 68.9999 55.8873 68.9342 56.0505 68.8685C56.0505 68.9014 56.0831 68.9342 56.1157 68.967Z" fill="#4067AC"/>
<path d="M80.6524 54.8465C80.3261 54.7808 80.0325 54.7808 79.7715 54.6823C79.2168 54.5181 78.9232 54.1241 79.0211 53.533C79.0863 53.0076 79.2821 52.5479 79.7388 52.2524C80.0977 52.0225 80.424 52.0553 80.5219 52.4494C80.7176 53.0405 81.1091 53.4017 81.5985 53.6972C81.6964 53.73 81.7943 53.8286 81.8595 53.9271C82.1532 54.2883 82.0227 54.748 81.5659 54.8137C81.2396 54.9122 80.9134 54.8465 80.6524 54.8465Z" fill="#4067AC"/>
<path d="M88.3838 60.5287C88.5469 59.9704 88.9058 59.7077 89.2321 59.5107C90.0151 59.051 90.8307 58.7554 91.7443 58.6898C91.8422 58.6898 91.9727 58.6569 92.0705 58.6898C92.2663 58.7883 92.4947 58.9196 92.5273 59.0838C92.5926 59.248 92.4947 59.5435 92.3642 59.6749C92.2337 59.8391 92.0053 59.9376 91.8095 60.0033C90.896 60.2331 90.0151 60.463 89.1016 60.6272C88.9058 60.66 88.6774 60.5943 88.3838 60.5287Z" fill="#4067AC"/>
<path d="M70.6352 60.6226C71.3203 60.7211 71.5161 61.1151 71.1572 61.6077C70.9941 61.8047 70.7983 62.0346 70.5373 62.1331C69.95 62.3301 69.3627 62.4943 68.7755 62.5928C68.1882 62.6585 67.9272 62.2316 68.2535 61.7062C68.384 61.4763 68.6123 61.2465 68.8407 61.1151C69.3954 60.6882 70.0805 60.6882 70.6352 60.6226Z" fill="#4067AC"/>
<path d="M127.307 58.1634C123.294 53.0079 120.945 50.5123 120.554 49.6585C120.325 49.1659 117.944 47.1628 117.422 46.9658C116.9 46.736 116.182 45.915 115.725 45.6195C114.909 45.0284 114.126 44.4373 113.376 43.7806C112.691 43.1567 112.006 42.4671 111.549 41.6133C110.994 40.4968 110.179 39.6102 109.298 38.6908C108.417 37.837 107.34 37.5415 106.264 37.1803C106.133 37.1474 105.937 37.1474 105.807 37.1474C105.22 37.2459 104.632 37.3116 104.078 37.5086C103.131 37.8042 102.185 38.034 101.207 38.0012C99.8362 37.9684 98.5312 37.7385 97.4219 36.9176C96.1168 35.9653 94.6813 35.6041 93.1152 35.6697C92.267 35.7026 91.4513 35.8996 90.603 35.9981C89.7874 36.0966 88.9391 36.1951 88.1234 36.2936C87.5035 36.3593 86.9163 36.4907 86.2964 36.5892C85.3829 36.7534 84.4367 36.8519 83.5884 37.1474C82.4139 37.5743 81.3046 38.1654 80.1627 38.6908C79.7385 38.9206 79.2818 39.1505 78.8576 39.3475C77.7483 39.9058 76.639 40.4968 75.5298 41.0551C74.7467 41.4491 73.9637 41.9417 73.1154 42.2044C71.1252 42.894 69.2329 43.7806 67.569 45.0613C67.047 45.4553 66.5576 45.8822 66.1334 46.3419C65.6114 46.9002 65.1547 47.5569 64.6653 48.148C64.0454 48.9032 63.3928 49.6585 62.773 50.3809C61.9573 51.366 61.0764 52.3183 60.3912 53.3691C59.804 54.2557 56.835 57.9335 56.0193 58.9515C55.6931 59.3784 55.3342 59.7724 55.0079 60.2322C54.3554 61.1516 52.6262 63.4502 52.4305 63.7129C52.039 64.2055 51.6148 64.6981 51.2559 65.1906C50.636 66.0116 47.6997 69.4595 46.884 70.3461C45.8726 71.4626 44.9265 72.6447 43.9477 73.7612C42.871 75.009 41.827 76.224 40.9461 77.636C40.2936 78.654 39.641 79.6719 39.0864 80.7227C38.4012 82.0362 37.6835 83.2841 36.6721 84.3349C35.7912 85.2872 35.0081 86.3051 34.3882 87.4216C33.7683 88.6037 33.4747 89.8516 33.3768 91.1651C33.3442 91.6905 33.4421 92.183 33.8988 92.4786C34.2904 92.7741 34.7145 93.0368 35.1713 93.201C37.1615 93.8577 39.1843 93.7921 41.2071 93.3652C42.9363 93.004 44.6655 92.8398 46.4273 93.2667C48.0259 93.6279 49.5268 93.3323 50.8318 92.3144C51.1581 92.0517 54.6491 89.5889 55.8562 88.341C56.4435 87.75 57.096 87.1917 57.7485 86.6335C58.3684 86.1081 59.0536 85.6484 59.7061 85.1558C61.3048 83.8423 62.9035 82.496 64.4695 81.1168C66.1008 79.7048 69.7223 77.0449 69.7876 77.0121C71.5168 76.0598 73.1481 74.9433 74.9425 74.1552C77.3568 73.0716 79.6733 72.185 82.7728 73.0716C85.9049 73.9911 86.851 79.7376 86.329 81.1825C85.8722 82.4631 85.546 83.908 84.6325 84.8931C83.9799 85.5827 80.0648 92.2159 80.0974 94.5473V94.5802C80.0322 95.7295 80.0322 96.8459 80.3584 97.9953C80.7173 99.2102 80.9783 100.425 81.3046 101.64C81.3372 101.739 81.5982 102.297 81.6308 102.33C81.8266 102.1 81.9571 101.542 82.1202 101.312C82.4791 100.721 82.4791 100.097 82.2834 99.4729C82.055 98.7177 81.7287 94.1533 82.577 93.7592C83.5232 93.2995 83.9473 93.595 83.9799 94.6458C83.9799 95.9593 84.0126 97.2728 84.0126 98.5535C84.0126 99.8342 84.0126 101.082 84.0452 102.33C84.0778 103.085 84.1431 103.84 84.2083 104.563C84.2409 104.793 84.8608 104.661 84.9261 104.399C85.0566 103.413 85.2197 102.428 85.285 101.41C85.3502 100.622 85.285 99.8013 85.3176 99.0132C85.3828 97.5027 85.7091 96.0578 86.1332 94.613C86.4595 93.4637 86.851 91.9532 87.6014 91.0665C88.1561 90.4426 88.4497 89.556 88.5476 88.7351C88.6128 88.0783 90.4725 88.5381 90.7662 88.5052C91.3861 88.4395 91.7449 88.0783 91.7776 87.4544C91.7776 87.2246 91.5166 85.3528 91.4839 84.5976C91.4513 83.7766 91.8754 83.1527 92.7237 83.3497C93.1805 83.4483 93.4089 83.1527 93.311 82.693C93.2784 82.4631 91.125 76.8151 90.7009 76.3554C90.342 75.9941 86.8837 72.2835 84.3388 70.9043C82.055 69.6237 75.1056 71.6268 73.4091 73.0059C72.365 73.8597 69.7876 75.4359 68.2215 76.7166C67.6669 77.1435 67.1449 77.6032 66.5902 78.0629C66.2966 78.2928 63.8496 80.3944 63.4907 80.6571C62.7403 81.1825 61.9899 81.7079 61.2069 82.2004C60.848 82.4303 59.4777 83.3826 59.0536 83.5468C58.8578 83.6124 58.6294 83.6453 58.4663 83.3826C58.4663 83.3169 60.326 81.1825 61.0438 80.7227C61.5658 80.3944 62.1531 80.066 62.6751 79.7705C63.6212 79.2451 64.6979 77.8987 65.6114 77.3076C65.7419 77.242 65.5462 76.5852 65.383 76.5524C64.6653 76.421 64.1106 77.6032 63.4907 78.0301C62.3162 78.8838 61.1417 79.8033 59.9345 80.6899C59.6408 80.9198 57.8138 82.4303 57.2265 82.9557C55.9541 84.0393 54.8448 85.2215 53.6376 86.4036C52.6262 87.4216 49.5268 89.4903 49.1679 89.7202C47.9607 90.5083 46.5904 90.7382 45.1875 90.8367C44.8286 90.8695 44.5023 90.8695 44.1434 90.8367C43.5235 90.771 43.2952 90.4098 43.5562 89.8516C43.5888 89.8187 44.0129 88.5381 43.7846 87.8813C43.6541 87.5201 43.6214 87.0932 43.5562 86.6663C43.4909 86.1081 43.5888 85.6155 43.9477 85.1558C44.1108 84.9588 44.2087 84.5976 44.1434 84.3677C44.0782 84.0722 43.7193 84.0722 43.4257 84.0722C42.9689 84.0393 41.3702 84.5319 41.0113 84.5319C40.3262 84.4991 39.9673 84.0722 40.0652 83.3826C40.1304 82.8572 40.2609 82.3318 40.4567 81.8064C41.1092 80.0988 41.827 78.4241 43.0994 77.0449C44.0782 75.9941 44.9917 74.8777 45.8726 73.7284C46.6557 72.6776 47.5366 71.6596 48.3848 70.6416C49.4289 69.4595 50.114 68.4744 51.0602 67.1937C51.2886 66.8982 52.3326 65.3548 52.5284 65.0921C53.083 64.304 53.0177 64.3368 53.7355 63.6144C53.9313 63.4174 56.052 60.3964 56.313 60.0023C57.096 58.7216 58.0422 57.6052 58.9557 56.423C59.6082 55.5692 60.2934 54.7483 61.0764 53.993C61.8594 53.2378 62.5446 52.2855 63.295 51.4646C63.817 50.8735 64.4043 50.3481 64.9915 49.7898C65.2852 49.5271 65.6441 49.4286 66.0029 49.6257C66.3292 49.8555 66.3618 50.2167 66.2966 50.5451C66.2313 50.8735 66.1334 51.2019 65.9703 51.4974C65.4809 52.4168 65.0568 53.3691 64.9589 54.4199C64.9263 54.9125 64.7305 55.3065 64.4369 55.6678C64.1106 56.0618 63.7517 56.4559 63.4255 56.8499C62.6425 57.8022 61.8594 58.7873 61.1416 59.7724C60.8806 60.1008 60.7175 60.5277 60.5217 60.8889C60.4565 61.0531 60.4891 61.2173 60.4565 61.4143C60.4891 61.4143 60.5544 61.4472 60.587 61.48C60.7175 61.3815 60.8806 61.283 60.9785 61.1845C61.2722 60.8561 61.5984 60.4949 61.8594 60.1336C62.3162 59.4769 62.9035 59.1485 63.7191 59.1157C64.4369 59.0828 64.7958 58.7216 64.9589 58.0321C65.1547 57.0469 65.3504 56.5544 66.7533 57.0141C67.6016 57.3096 68.4825 57.441 69.3961 57.3425C69.8528 57.3096 70.3422 57.2111 70.7337 56.9813C71.4841 56.5544 72.2672 56.3902 73.1154 56.3573C73.7353 56.3245 74.3552 56.226 74.9751 56.1275C75.3014 56.0618 75.5624 55.8648 75.6276 55.5364C75.6929 55.1752 75.595 54.8468 75.3014 54.6498C75.073 54.5184 74.7794 54.4199 74.5184 54.3871C74.1268 54.3543 73.7027 54.4199 73.2786 54.4199C72.9197 54.4528 72.626 54.3543 72.365 54.1244C72.0388 53.8289 71.7125 53.5333 71.4189 53.2049C70.9295 52.6467 70.7337 51.9571 70.799 51.2347C70.8316 50.8735 70.8642 50.4794 70.8969 50.0854C70.9295 49.56 70.799 49.0674 70.3422 48.739C70.1791 48.6077 70.0159 48.4435 69.8854 48.2465C69.6897 48.0166 69.4939 47.9838 69.2329 48.1151C69.135 48.1808 69.0045 48.2137 68.9067 48.2793C68.3846 48.5092 67.83 48.345 67.4711 47.8853C67.1449 47.4584 67.1775 46.9987 67.6016 46.5718C68.0584 46.0792 68.5804 45.6523 69.135 45.2583C69.8528 44.7329 70.6358 44.2403 71.4189 43.8463C72.4955 43.288 73.6048 42.7955 74.6815 42.2701C75.1382 42.0402 75.595 41.8103 76.0518 41.6133C77.9767 40.7924 79.869 40.0043 81.794 39.2162C82.3486 38.9863 82.8706 38.6908 83.4253 38.4938C85.4807 37.837 87.5035 36.9176 89.7221 36.7862C89.8526 36.7862 90.0158 36.7205 90.1789 36.7205C90.4073 36.6877 90.603 36.6877 90.8314 36.6877C91.4839 36.7205 92.1365 36.7862 92.789 36.8519C92.9521 36.8847 93.1152 36.9176 93.2784 36.9832C93.8983 37.2459 93.9961 37.8698 93.5067 38.3296C93.311 38.5266 93.0826 38.6579 92.8869 38.8221C92.5932 39.052 92.4301 39.3475 92.3648 39.7087C92.2996 40.1685 92.6258 40.5297 93.0826 40.4968C93.311 40.464 93.5067 40.3983 93.7025 40.3327C94.6487 40.0371 95.5622 39.7416 96.5084 39.5117C96.8346 39.4132 97.2261 39.446 97.585 39.4789C98.107 39.5446 98.6291 39.7416 99.1511 39.8401C99.7057 40.0043 99.9994 40.3655 99.8688 40.9237C99.7383 41.6462 99.3468 42.1716 98.7269 42.4671C98.2049 42.697 97.6503 42.8611 97.1283 42.9925C96.6715 43.091 96.2147 43.2224 95.8558 43.5507C95.6274 43.7806 95.4643 44.0433 95.5622 44.3717C95.6601 44.7 95.9211 44.7986 96.2147 44.8314C96.7694 44.8971 97.2914 44.9299 97.846 44.9956C98.9553 45.0941 99.7057 44.4702 100.358 43.6821C100.489 43.5179 100.521 43.3209 100.587 43.1238C100.88 41.7447 101.011 41.5805 102.414 41.3178C102.446 41.3178 102.479 41.3178 102.512 41.3178C103.164 41.2193 103.523 41.3835 103.784 42.0402C103.882 42.3029 103.98 42.5656 104.11 42.8283C104.306 43.1567 104.567 43.3537 104.959 43.288C105.317 43.2224 105.481 42.894 105.513 42.5328C105.676 41.6133 105.644 40.7595 104.959 40.0371C104.6 39.6759 104.665 39.1833 105.089 38.855C105.448 38.5594 105.839 38.3296 106.264 38.1325C106.818 37.837 107.34 37.9355 107.862 38.2639C108.874 38.8878 109.559 39.8401 110.081 40.9237C110.146 41.0879 110.244 41.2849 110.211 41.482C110.081 42.3686 110.146 43.2552 110.211 44.1418C110.211 44.306 110.179 44.4373 110.179 44.5687C110.048 45.5867 109.526 45.7837 108.711 45.1598C108.45 44.9627 108.123 44.7329 107.797 44.7329C107.112 44.7 106.427 44.6344 105.774 44.3717C105.644 44.3388 105.448 44.306 105.317 44.3388C105.056 44.4045 104.795 44.5359 104.567 44.6672C104.371 44.7657 104.371 44.9627 104.469 45.1598C104.795 45.7837 105.774 46.2762 106.459 46.0135C107.471 45.6523 108.286 45.9807 109.102 46.5718C109.624 46.9658 110.146 47.3927 110.538 47.9181C110.929 48.4435 111.288 48.4107 111.745 47.9181C111.908 47.7211 112.038 47.5569 112.202 47.3927C112.463 47.13 112.756 47.0643 113.115 47.1629C114.029 47.3927 114.844 47.7868 115.497 48.5092C116.247 49.2973 118.335 50.4138 125.089 58.9515C131.842 67.4892 133.637 77.4062 134.583 77.4062C135.497 77.3733 131.451 63.4831 127.307 58.1634ZM37.0636 89.4575C36.5742 89.6545 36.2479 89.9501 36.0195 90.4098C35.889 90.6725 35.7585 90.968 35.367 91.0009C35.3018 90.968 35.2691 90.9352 35.2365 90.9024C34.845 90.0814 35.3018 88.6694 36.1174 88.2425C36.3784 88.1112 36.6394 87.9798 36.9331 87.8485C37.3898 87.6843 37.7161 87.947 37.7161 88.4067C37.7161 88.9978 37.5856 89.2605 37.0636 89.4575ZM67.6669 53.0736C67.6669 53.0736 68.352 52.6795 68.352 53.0408C68.352 53.3691 68.352 53.4676 68.613 53.9274C68.874 54.3871 68.9067 54.7155 68.7762 54.9125C68.6783 55.0767 68.4173 55.0767 68.1889 54.9125C67.9605 54.7483 67.7647 54.7483 67.6016 54.4528C67.4711 54.1572 67.308 53.9602 67.308 53.7303C67.3406 53.4348 67.4385 53.3363 67.6669 53.0736Z" fill="#4067AC"/>
<path d="M68.2207 73.7611C68.1555 74.5163 67.5682 74.9432 66.7526 74.9761C66.6547 74.385 67.0462 74.1223 67.4051 73.8267C67.6335 73.5969 67.8945 73.4655 68.2207 73.7611Z" fill="#4067AC"/>
<path d="M80.4886 162.323C36.1171 162.323 0 126.005 0 81.3128C0 36.6866 36.1171 0.335571 80.4886 0.335571C124.86 0.335571 160.977 36.6538 160.977 81.3456C160.977 126.005 124.893 162.323 80.4886 162.323ZM80.4886 2.73271C37.4222 2.73271 2.38171 38.0001 2.38171 81.3456C2.38171 124.691 37.4222 159.958 80.4886 159.958C123.555 159.958 158.596 124.691 158.596 81.3456C158.596 38.0001 123.555 2.73271 80.4886 2.73271ZM80.4886 140.092C48.2867 140.092 22.1205 113.723 22.1205 81.3456C22.1205 48.9679 48.3193 22.5665 80.4886 22.5665C112.691 22.5665 138.857 48.9022 138.857 81.3128C138.889 113.723 112.691 140.092 80.4886 140.092ZM80.4886 24.1756C49.7875 24.1756 24.8285 49.8216 24.8285 81.3456C24.8285 112.87 49.7875 138.516 80.4886 138.516C111.19 138.516 136.149 112.87 136.149 81.3456C136.181 49.8216 111.19 24.1756 80.4886 24.1756Z" fill="#4067AC"/>
<path d="M67.9925 153.586C67.6336 153.586 67.2747 153.554 66.8832 153.521C66.4917 153.488 66.1002 153.422 65.676 153.324C65.2519 153.225 64.8604 153.094 64.4689 152.93C64.0774 152.766 63.7511 152.536 63.4901 152.207C63.2291 151.879 63.0333 151.518 62.9355 151.058C62.8376 150.598 62.8376 150.007 63.0007 149.35C63.1312 148.727 63.327 148.234 63.588 147.84C63.849 147.446 64.1426 147.15 64.5015 146.953C64.8278 146.756 65.2193 146.625 65.6108 146.592C66.0023 146.559 66.3938 146.559 66.7853 146.658C66.818 146.658 66.8832 146.691 66.9811 146.691C67.079 146.691 67.1442 146.723 67.2421 146.756C67.34 146.789 67.4379 146.822 67.5031 146.822C67.5684 146.855 67.6336 146.888 67.6989 146.888L68.4166 143.538L70.1458 143.932L67.9925 153.586ZM67.2747 148.53C67.2095 148.497 67.1116 148.464 66.9811 148.398C66.8506 148.365 66.7201 148.332 66.6875 148.3C66.4917 148.267 66.2959 148.234 66.1002 148.267C65.9044 148.267 65.7413 148.332 65.5455 148.431C65.3824 148.53 65.2193 148.694 65.0888 148.924C64.9583 149.153 64.8604 149.416 64.7625 149.81C64.6973 150.106 64.6973 150.368 64.6973 150.598C64.7299 150.828 64.7951 151.025 64.893 151.157C64.9909 151.321 65.1214 151.452 65.2845 151.518C65.4477 151.616 65.6108 151.682 65.8065 151.715C66.1002 151.78 66.3286 151.813 66.5243 151.78L67.2747 148.53Z" fill="#4067AC"/>
<path d="M58.0745 145.937C57.422 147.48 56.7042 148.564 55.8233 149.155C54.975 149.746 53.9962 149.811 52.9196 149.352C52.3649 149.122 51.9082 148.793 51.6145 148.399C51.2883 148.005 51.0925 147.546 50.9946 147.02C50.8968 146.495 50.9294 145.904 51.0273 145.247C51.1578 144.623 51.3535 143.933 51.6472 143.211C52.2997 141.635 53.0501 140.584 53.931 139.993C54.8119 139.402 55.7581 139.336 56.8347 139.796C57.422 140.026 57.8461 140.354 58.1398 140.748C58.4334 141.142 58.6618 141.602 58.727 142.127C58.8249 142.653 58.7923 143.211 58.6944 143.868C58.5639 144.525 58.3681 145.214 58.0745 145.937ZM56.3453 145.214C56.5411 144.754 56.6716 144.328 56.8021 143.901C56.9 143.474 56.9652 143.113 56.9652 142.751C56.9652 142.39 56.9 142.127 56.7695 141.865C56.6716 141.635 56.4432 141.438 56.1822 141.306C55.6928 141.109 55.2034 141.208 54.7467 141.602C54.2899 142.029 53.8331 142.784 53.3437 143.933C53.148 144.393 53.0175 144.82 52.9196 145.214C52.8217 145.641 52.7565 146.002 52.7565 146.363C52.7565 146.692 52.8217 146.987 52.9196 147.25C53.0501 147.513 53.2458 147.677 53.5395 147.808C54.5183 148.268 55.4644 147.381 56.3453 145.214Z" fill="#4067AC"/>
<path d="M44.1438 133.425C44.4701 133.392 44.829 133.425 45.2205 133.589C45.612 133.753 45.9709 133.917 46.2972 134.147C46.7213 134.443 47.0476 134.771 47.3412 135.165C47.6022 135.527 47.7653 135.986 47.8306 136.512C47.8958 137.037 47.8306 137.628 47.6022 138.285C47.4064 138.942 47.0476 139.664 46.5255 140.485C45.9709 141.339 45.4489 141.963 44.9269 142.422C44.4048 142.882 43.8828 143.178 43.3934 143.309C42.904 143.473 42.4146 143.473 41.9579 143.375C41.5011 143.276 41.077 143.079 40.7181 142.849C40.3266 142.587 40.0329 142.357 39.7719 142.094C39.5109 141.831 39.3478 141.601 39.2173 141.437L40.3592 140.321C40.4571 140.518 40.5876 140.682 40.7507 140.846C40.9138 141.043 41.1422 141.207 41.4032 141.372C41.9579 141.733 42.5125 141.766 43.0998 141.47C43.6871 141.175 44.307 140.518 44.9595 139.5C45.2531 139.073 45.4489 138.646 45.612 138.219C45.7751 137.825 45.873 137.431 45.873 137.103C45.9056 136.741 45.8404 136.413 45.7099 136.118C45.5794 135.822 45.351 135.592 45.0574 135.362C44.7637 135.165 44.5027 135.067 44.2743 135.001C44.046 134.935 43.8176 134.935 43.5892 134.935L44.1438 133.425Z" fill="#4067AC"/>
<path d="M36.4105 126.827C36.7367 126.827 37.063 126.959 37.4219 127.156C37.7808 127.353 38.107 127.615 38.4007 127.878C38.7596 128.207 39.0858 128.601 39.2816 129.027C39.4773 129.454 39.5752 129.914 39.5426 130.44C39.51 130.965 39.3468 131.523 39.0532 132.147C38.7596 132.771 38.3028 133.428 37.6503 134.15C36.9977 134.905 36.3452 135.431 35.758 135.792C35.1707 136.12 34.616 136.35 34.094 136.416C33.572 136.482 33.1152 136.416 32.6585 136.252C32.2343 136.088 31.8428 135.825 31.5166 135.529C31.1903 135.234 30.8967 134.938 30.7009 134.643C30.5051 134.347 30.342 134.117 30.2441 133.887L31.5492 132.935C31.6144 133.132 31.7449 133.329 31.8754 133.526C32.006 133.723 32.2017 133.953 32.4627 134.15C32.9521 134.61 33.5068 134.708 34.1266 134.511C34.7465 134.314 35.4643 133.756 36.28 132.869C36.6062 132.475 36.8999 132.081 37.1283 131.72C37.3566 131.359 37.4871 130.965 37.585 130.637C37.6503 130.308 37.6503 129.98 37.585 129.651C37.4871 129.356 37.324 129.06 37.0304 128.798C36.7694 128.568 36.541 128.436 36.3126 128.338C36.0842 128.239 35.8558 128.207 35.6274 128.141L36.4105 126.827Z" fill="#4067AC"/>
<path d="M26.3285 122.459L25.154 123.215L25.1866 123.28L26.6874 122.755L32.4622 121.803L33.3105 122.886L25.5781 129.027L24.5015 127.582L28.5471 124.43L29.7543 123.641L29.7216 123.576L28.1556 124.101L22.4786 124.988L21.6304 123.904L29.3628 117.796L30.4721 119.176L26.3285 122.459Z" fill="#4067AC"/>
<path d="M14.3557 116.483C14.8451 116.155 14.9756 115.794 14.7472 115.367C14.5188 114.94 14.1599 114.842 13.6379 115.039L13.1812 113.659C13.7684 113.43 14.2578 113.43 14.682 113.659C15.1061 113.889 15.465 114.283 15.7586 114.842C15.9217 115.137 16.0196 115.433 16.0849 115.695C16.1501 115.958 16.1828 116.221 16.1501 116.483C16.1175 116.746 16.0523 116.943 15.9217 117.173C15.7912 117.403 15.5955 117.6 15.3019 117.764L14.3557 116.483ZM19.6738 111.394L18.3687 111.919L18.434 111.985L20 111.755L25.8401 111.886L26.46 113.134L17.7488 117.666L16.9332 116.089L21.5008 113.692L22.8385 113.2L22.8059 113.134L21.1746 113.331L15.4324 113.134L14.8125 111.886L23.5236 107.322L24.3067 108.931L19.6738 111.394Z" fill="#4067AC"/>
<path d="M19.5749 97.0763C19.8359 97.2405 20.0969 97.536 20.2927 97.8972C20.5211 98.2584 20.6516 98.6525 20.7821 99.0137C20.9126 99.5063 20.9778 99.9988 20.9452 100.459C20.9126 100.918 20.7494 101.378 20.4558 101.838C20.1622 102.265 19.738 102.659 19.1834 103.053C18.5961 103.447 17.8784 103.775 16.9648 104.038C16.0187 104.333 15.203 104.465 14.5179 104.465C13.8327 104.465 13.2454 104.333 12.7887 104.136C12.3319 103.906 11.9404 103.611 11.6794 103.25C11.3858 102.889 11.19 102.462 11.0595 102.035C10.929 101.575 10.8311 101.214 10.8311 100.853C10.7985 100.524 10.7985 100.229 10.8311 99.966L12.4298 99.8346C12.3972 100.032 12.3972 100.262 12.3972 100.491C12.3972 100.721 12.4624 101.017 12.5603 101.345C12.7561 101.969 13.1802 102.363 13.8001 102.527C14.4526 102.692 15.3335 102.593 16.4754 102.232C16.9648 102.068 17.4216 101.903 17.7805 101.706C18.172 101.509 18.4656 101.279 18.7266 101.017C18.9876 100.754 19.1181 100.491 19.216 100.163C19.3139 99.8675 19.2813 99.5063 19.1834 99.1451C19.0855 98.8495 18.955 98.5868 18.8245 98.3898C18.6614 98.1928 18.4982 98.0286 18.3351 97.8644L19.5749 97.0763Z" fill="#4067AC"/>
<path d="M14.4864 90.4425L14.5191 90.8037L18.6952 90.2783L18.9236 92.0843L9.16837 93.2665L8.97261 91.5261L13.2793 90.9679L13.0835 90.6395L8.67898 89.0961L8.41797 87.0602L12.7899 88.8334L13.3771 89.4245L13.8339 88.6692L18.1079 85.484L18.3689 87.6513L14.4864 90.4425Z" fill="#4067AC"/>
<path d="M15.9869 76.6811L15.889 79.0454L18.1076 79.735L18.0097 81.5082L8.28711 78.0931L8.35236 76.6811L18.3686 74.2839L18.2381 76.1885L15.9869 76.6811ZM14.4534 78.5528L14.5513 76.9109L12.2349 77.3707L10.6688 77.502V77.5677L12.2022 77.8961L14.4534 78.5528Z" fill="#4067AC"/>
<path d="M20.2933 64.1383L19.9018 65.8787L16.0846 64.9921L16.1824 65.8131L19.3798 68.1774L18.923 70.1804L16.0193 67.849L15.6604 67.028C15.3994 67.4878 15.0079 67.8161 14.4859 68.046C13.9312 68.2759 13.2787 68.2759 12.4631 68.0788C11.8758 67.9475 11.419 67.7505 11.0601 67.4878C10.7013 67.2251 10.4403 66.9295 10.2771 66.5683C10.114 66.2071 10.0161 65.8131 10.0161 65.3533C10.0161 64.8936 10.0487 64.4339 10.1792 63.9413C10.2119 63.81 10.2445 63.6786 10.2771 63.4816C10.3424 63.2846 10.375 63.1204 10.4403 62.9234C10.5055 62.7263 10.5708 62.5621 10.636 62.398C10.7013 62.2338 10.7665 62.0696 10.8644 61.9382L20.2933 64.1383ZM11.8758 64.007C11.8432 64.0727 11.8105 64.1712 11.7779 64.2369C11.7453 64.3025 11.7127 64.4339 11.7127 64.5324C11.68 64.7294 11.6474 64.8936 11.68 65.0906C11.68 65.2877 11.7453 65.419 11.8432 65.5832C11.9411 65.7474 12.0716 65.8787 12.2673 65.9772C12.4631 66.1086 12.6915 66.2071 12.9851 66.2728C13.5724 66.4041 13.9965 66.3713 14.2901 66.1743C14.6164 65.9772 14.8122 65.6817 14.8774 65.2877L15.0079 64.7623L11.8758 64.007Z" fill="#4067AC"/>
<path d="M22.021 48.706L21.8578 49.0344L25.512 51.136L24.6311 52.7122L16.083 47.8194L16.9639 46.2761L20.7485 48.4105L20.7812 48.0493L18.1385 44.1416L19.1172 42.3684L21.5968 46.4074L21.7273 47.2612L22.543 46.9328H27.861L26.7844 48.8374L22.021 48.706Z" fill="#4067AC"/>
<path d="M29.6239 35.897L28.6452 34.8791L28.5799 34.9119L29.3629 36.2911L31.5163 41.8078L30.6354 42.8914L23.1313 36.521L24.2406 35.1418L28.1884 38.4584L29.1672 39.5092L29.2324 39.4763L28.4168 38.0315L26.3287 32.5805L27.2422 31.5297L34.7462 37.9001L33.6043 39.2793L29.6239 35.897Z" fill="#4067AC"/>
<path d="M39.3807 27.9513L37.2927 29.6917L39.9354 32.9426L38.5651 34.059L32.3335 26.4079L33.7038 25.2586L36.2813 28.411L38.3367 26.7034L35.7592 23.551L37.1295 22.4017L43.3611 30.0857L41.9908 31.2022L39.3807 27.9513Z" fill="#4067AC"/>
<path d="M45.2853 22.7635C44.5023 21.2859 44.1108 20.038 44.2086 18.9544C44.2739 17.9036 44.8285 17.0827 45.8726 16.5244C46.4272 16.2289 46.9166 16.0647 47.4386 16.0647C47.928 16.0647 48.4174 16.196 48.8742 16.4587C49.3309 16.7214 49.7877 17.0827 50.2118 17.5752C50.636 18.0678 51.0275 18.6589 51.419 19.3484C52.202 20.8261 52.5609 22.074 52.463 23.1576C52.3652 24.2084 51.8105 25.0293 50.8317 25.5876C50.2771 25.8831 49.7877 26.0473 49.2657 26.0473C48.7763 26.0473 48.2869 25.9159 47.8301 25.6532C47.3734 25.3905 46.9166 25.0293 46.5251 24.5368C46.0357 24.0442 45.6442 23.4531 45.2853 22.7635ZM46.884 21.8441C47.1124 22.3038 47.3734 22.665 47.6017 23.0262C47.8628 23.3875 48.1238 23.6502 48.3848 23.88C48.6458 24.077 48.9068 24.2084 49.1678 24.2741C49.4288 24.3397 49.6898 24.2741 49.9508 24.1427C50.4076 23.88 50.636 23.4203 50.6033 22.7964C50.5707 22.1725 50.2771 21.3187 49.6898 20.2679C49.4614 19.841 49.233 19.447 48.972 19.1186C48.711 18.7902 48.45 18.4947 48.189 18.2648C47.928 18.0349 47.667 17.9036 47.406 17.8379C47.145 17.7722 46.884 17.8051 46.623 17.9693C45.6768 18.4947 45.7747 19.7753 46.884 21.8441Z" fill="#4067AC"/>
<path d="M59.673 12.5519L58.2701 13.0116C58.7595 14.752 59.151 16.1969 59.412 17.379C59.673 18.5612 59.7709 19.5135 59.673 20.203C59.6404 20.4657 59.5752 20.6628 59.4773 20.8598C59.3794 21.0568 59.2815 21.1882 59.1836 21.3195C59.0858 21.418 58.9553 21.5494 58.8248 21.6151C58.6943 21.6807 58.5638 21.7464 58.4659 21.7792C58.2701 21.8449 58.107 21.8778 57.9439 21.8778C57.7807 21.9106 57.6502 21.8778 57.4871 21.8778L57.1608 20.2687C57.3566 20.2687 57.4871 20.2359 57.6176 20.1045C57.7481 20.006 57.846 19.809 57.8786 19.5463C57.9112 19.3164 57.9112 18.9881 57.8786 18.594C57.846 18.1671 57.7481 17.6746 57.585 17.0507C57.4545 16.4267 57.2587 15.7043 57.0303 14.8834C56.8019 14.0624 56.5083 13.0773 56.1494 11.9608L60.815 10.3846L63.9144 19.809L62.2505 20.3672L59.673 12.5519Z" fill="#4067AC"/>
<path d="M68.3192 13.7017C68.0908 12.027 68.2213 10.7135 68.6455 9.76124C69.1022 8.80895 69.8853 8.25071 71.0598 8.08652C71.6797 8.02085 72.2017 8.05369 72.6585 8.25071C73.1152 8.44774 73.5394 8.74327 73.8656 9.13732C74.1919 9.56421 74.4855 10.0568 74.7139 10.6807C74.9423 11.3046 75.1054 11.9942 75.2033 12.7823C75.4317 14.457 75.3012 15.7705 74.8444 16.7228C74.3877 17.6751 73.572 18.2333 72.4627 18.3647C71.8428 18.4303 71.3208 18.3975 70.864 18.2333C70.4073 18.0363 69.9831 17.7407 69.6569 17.3467C69.3306 16.9198 69.037 16.4272 68.8412 15.8033C68.5802 15.1794 68.4171 14.4898 68.3192 13.7017ZM70.1463 13.4719C70.2115 13.9644 70.3094 14.4242 70.4073 14.851C70.5052 15.2779 70.6683 15.6391 70.8314 15.9347C70.9945 16.2302 71.1903 16.4601 71.4187 16.5914C71.6471 16.7556 71.9081 16.7885 72.2017 16.7556C72.7564 16.6899 73.1152 16.3287 73.311 15.7705C73.5068 15.1794 73.5394 14.26 73.3436 13.045C73.2784 12.5524 73.2131 12.1255 73.0826 11.6986C72.9521 11.2718 72.8216 10.9105 72.6585 10.615C72.4953 10.3195 72.2996 10.0896 72.0712 9.95826C71.8428 9.79407 71.5818 9.7284 71.2882 9.79407C70.2115 9.89259 69.82 11.1404 70.1463 13.4719Z" fill="#4067AC"/>
<path d="M86.0028 9.43314L82.9685 9.33462L82.7075 17.6097L80.9131 17.544L81.2393 7.62708L86.0354 7.79126L86.0028 9.43314Z" fill="#4067AC"/>
<path d="M95.8877 13.9642L96.3118 12.6179H96.2465L95.4309 13.9642L91.6789 18.4958L90.3086 18.2331L92.2662 8.48035L93.9953 8.84156L92.9839 13.9314L92.5272 15.3105L92.5924 15.3434L93.4407 13.9314L97.1927 9.49831L98.5304 9.76101L96.5728 19.5137L94.8436 19.1525L95.8877 13.9642Z" fill="#4067AC"/>
<path d="M106.916 12.5182L105.709 15.5392C105.481 16.0975 105.416 16.5244 105.481 16.8199C105.546 17.1154 105.742 17.3453 106.101 17.4767C106.362 17.5752 106.623 17.6408 106.851 17.6408C107.112 17.6408 107.308 17.608 107.504 17.5095L109.135 13.4377L110.766 14.0944L107.112 23.3217L105.481 22.665L106.982 18.9543C106.753 19.02 106.46 19.02 106.133 19.02C105.775 18.9872 105.416 18.9215 104.991 18.7245C104.665 18.5931 104.404 18.4289 104.208 18.2319C103.98 18.0349 103.817 17.805 103.719 17.5423C103.621 17.2796 103.556 16.9841 103.589 16.6229C103.589 16.2617 103.686 15.8676 103.882 15.3751L105.318 11.7958L106.916 12.5182Z" fill="#4067AC"/>
<path d="M116.965 17.3434L121.141 19.9704L120.293 21.3496L117.618 19.7077L116.345 21.7436L118.792 23.287L117.911 24.699L115.497 23.1556L114.192 25.3557L116.9 27.0633L116.051 28.4425L111.81 25.7826L116.965 17.3434Z" fill="#4067AC"/>
<path d="M124.599 34.9146C124.273 34.9146 123.946 34.8161 123.588 34.619C123.229 34.422 122.87 34.1921 122.576 33.9294C122.185 33.6011 121.891 33.207 121.695 32.813C121.467 32.3861 121.369 31.9264 121.402 31.401C121.434 30.8756 121.565 30.3173 121.858 29.6934C122.152 29.0695 122.609 28.3799 123.229 27.6575C123.881 26.9022 124.501 26.344 125.088 25.9828C125.676 25.6216 126.23 25.3917 126.752 25.3589C127.274 25.2932 127.731 25.326 128.155 25.5231C128.579 25.6872 128.971 25.9171 129.33 26.2126C129.656 26.5082 129.95 26.8037 130.145 27.0992C130.341 27.3619 130.504 27.5918 130.602 27.8217L129.33 28.774C129.265 28.5769 129.134 28.4127 129.004 28.1829C128.873 27.9859 128.677 27.7888 128.416 27.559C127.927 27.1321 127.372 27.0007 126.752 27.1978C126.132 27.3948 125.415 27.953 124.632 28.8725C124.305 29.2665 124.012 29.6606 123.783 30.0218C123.555 30.383 123.424 30.777 123.359 31.1054C123.294 31.4666 123.294 31.795 123.392 32.0905C123.49 32.3861 123.653 32.6816 123.946 32.9115C124.207 33.1413 124.436 33.2727 124.664 33.3712C124.893 33.4697 125.121 33.5354 125.349 33.5354L124.599 34.9146Z" fill="#4067AC"/>
<path d="M132.364 37.8344L132.136 37.5389L128.873 40.1987L127.764 38.8196L135.399 32.5476L136.508 33.9596L133.115 36.718L133.474 36.8822L138.009 35.8314L139.281 37.4076L134.648 38.2942L133.833 38.0971V38.9509L131.875 43.975L130.505 42.2675L132.364 37.8344Z" fill="#4067AC"/>
<path d="M138.303 50.3137L137.194 48.2449L134.943 48.836L134.094 47.2926L144.11 44.9612L144.796 46.209L137.52 53.5974L136.606 51.9556L138.303 50.3137ZM138.629 47.8837L139.412 49.3286L141.141 47.7195L142.381 46.7672L142.349 46.7344L140.88 47.2926L138.629 47.8837Z" fill="#4067AC"/>
<path d="M141.173 63.2864L140.618 61.6117L144.337 60.331L143.848 59.7071L139.9 59.4116L139.248 57.4742L142.902 57.901L143.652 58.3936C143.619 57.8682 143.783 57.3756 144.109 56.9159C144.435 56.4562 145.022 56.095 145.805 55.7994C146.36 55.6024 146.882 55.5367 147.306 55.5367C147.73 55.5696 148.122 55.7009 148.448 55.898C148.774 56.1278 149.068 56.4234 149.296 56.7846C149.557 57.1458 149.721 57.6055 149.916 58.0981C149.949 58.1966 149.982 58.3608 150.047 58.5578C150.079 58.722 150.145 58.919 150.177 59.116C150.21 59.3131 150.243 59.4772 150.275 59.6743C150.308 59.8713 150.34 60.0355 150.34 60.1668L141.173 63.2864ZM148.416 58.8862C148.416 58.7877 148.416 58.722 148.383 58.6235C148.383 58.5578 148.35 58.4264 148.285 58.3279C148.22 58.1309 148.122 57.9996 148.024 57.8354C147.926 57.6712 147.796 57.5727 147.632 57.507C147.469 57.4413 147.274 57.4085 147.078 57.4085C146.849 57.4085 146.588 57.4742 146.327 57.5727C145.773 57.7697 145.414 58.0324 145.251 58.3608C145.088 58.6891 145.088 59.0504 145.218 59.4444L145.381 59.9698L148.416 58.8862Z" fill="#4067AC"/>
<path d="M144.631 78.3593C144.599 78.1952 144.566 78.0638 144.566 77.8996C144.566 77.7354 144.533 77.5712 144.533 77.3742C144.533 77.013 144.599 76.6518 144.729 76.3234C144.86 75.995 145.088 75.7323 145.414 75.4696C145.708 75.2398 146.132 75.0428 146.621 74.8786C147.111 74.7144 147.698 74.6487 148.383 74.6159C149.688 74.583 150.7 74.8129 151.417 75.3055C152.135 75.798 152.494 76.4548 152.527 77.3414C152.527 77.4399 152.527 77.5712 152.527 77.7026C152.527 77.8668 152.527 77.9981 152.494 78.0966L153.701 78.0638L153.766 79.8699L152.527 79.9027C152.592 80.0341 152.625 80.1982 152.625 80.4281C152.657 80.6251 152.657 80.7893 152.657 80.9207C152.657 81.3147 152.592 81.6431 152.429 81.9715C152.266 82.2998 152.037 82.5625 151.744 82.8252C151.417 83.0551 151.026 83.2521 150.536 83.3835C150.047 83.5477 149.46 83.6133 148.807 83.6133C148.122 83.6462 147.535 83.5805 147.013 83.4492C146.491 83.3178 146.067 83.1536 145.74 82.8909C145.414 82.6611 145.121 82.3655 144.957 82.0371C144.762 81.7088 144.696 81.3476 144.664 80.9535C144.664 80.7893 144.664 80.658 144.664 80.5266C144.664 80.3624 144.696 80.2311 144.729 80.1326L143.359 80.1654L143.293 78.3593H144.631ZM146.099 77.8339C146.099 77.8996 146.099 77.9981 146.099 78.0966C146.099 78.1952 146.132 78.3265 146.165 78.3922L150.993 78.228C150.993 78.1623 150.993 78.0638 150.993 77.9653C150.993 77.8668 150.993 77.7683 150.993 77.7026C150.993 77.2757 150.765 76.9802 150.373 76.7175C149.982 76.4876 149.329 76.3891 148.448 76.3891C147.665 76.4219 147.078 76.5533 146.687 76.7831C146.262 77.0787 146.067 77.4399 146.099 77.8339ZM151.091 80.5266C151.091 80.4609 151.091 80.3624 151.058 80.2311C151.058 80.0997 151.026 80.0012 150.993 79.9355L146.165 80.0997C146.132 80.1654 146.132 80.2311 146.132 80.3296C146.132 80.4281 146.132 80.5266 146.132 80.6251C146.132 81.0192 146.36 81.3476 146.752 81.6103C147.143 81.8401 147.796 81.9715 148.677 81.9386C149.427 81.9058 150.014 81.7744 150.439 81.5774C150.895 81.249 151.091 80.9207 151.091 80.5266Z" fill="#4067AC"/>
<path d="M152.918 90.4106L152.167 95.3033L150.569 95.0735L151.025 91.9211L148.676 91.527L148.22 94.3839L146.621 94.1212L147.045 91.2643L144.566 90.8703L144.044 94.0883L142.445 93.8256L143.228 88.8672L152.918 90.4106Z" fill="#4067AC"/>
<path d="M137.225 105.285L137.616 104.103L139.313 104.53L140.977 99.7029L139.378 98.9477L139.769 97.7655L142.967 98.882L142.673 99.7029C142.738 99.8014 142.934 99.9656 143.26 100.195C143.554 100.425 144.011 100.721 144.598 101.049C145.185 101.378 145.936 101.772 146.817 102.166C147.698 102.56 148.807 102.987 150.047 103.414L148.415 108.208L140.683 105.482L140.357 106.435L137.225 105.285ZM141.335 103.742L147.534 105.942L148.056 104.464C146.523 103.873 145.251 103.315 144.239 102.757C143.228 102.231 142.543 101.772 142.151 101.443L141.335 103.742Z" fill="#4067AC"/>
<path d="M145.284 115.233L142.87 119.567L141.467 118.779L143 115.988L140.912 114.773L139.477 117.301L138.074 116.48L139.477 113.985L137.291 112.737L135.725 115.561L134.289 114.74L136.736 110.373L145.284 115.233Z" fill="#4067AC"/>
<path d="M138.987 125.215C138.823 125.511 138.66 125.839 138.432 126.2C138.204 126.561 137.975 126.857 137.714 127.185C137.453 127.514 137.159 127.842 136.833 128.105C136.507 128.367 136.148 128.565 135.757 128.696C135.365 128.794 134.941 128.794 134.484 128.696C134.027 128.597 133.538 128.335 132.983 127.875C132.494 127.481 132.135 127.087 131.939 126.693C131.711 126.266 131.58 125.872 131.548 125.478C131.515 125.084 131.58 124.69 131.711 124.328C131.841 123.967 132.037 123.606 132.298 123.278C132.331 123.245 132.363 123.212 132.396 123.113C132.461 123.048 132.494 122.982 132.559 122.916C132.624 122.851 132.69 122.785 132.755 122.719C132.82 122.654 132.853 122.621 132.885 122.588L130.275 120.454L131.385 119.074L138.987 125.215ZM134.191 123.573C134.125 123.606 134.06 123.672 133.962 123.803C133.864 123.902 133.766 124 133.734 124.033C133.603 124.197 133.505 124.361 133.44 124.558C133.375 124.755 133.342 124.92 133.342 125.117C133.342 125.314 133.44 125.543 133.571 125.74C133.701 125.97 133.897 126.2 134.191 126.43C134.419 126.627 134.647 126.758 134.876 126.824C135.104 126.89 135.3 126.923 135.463 126.89C135.659 126.857 135.822 126.824 135.985 126.693C136.148 126.594 136.279 126.463 136.409 126.332C136.605 126.102 136.735 125.905 136.801 125.74L134.191 123.573Z" fill="#4067AC"/>
<path d="M123.589 130.929L125.285 129.353L124.208 127.251L125.514 126.069L130.016 135.428L129.005 136.38L120.261 130.896L121.631 129.616L123.589 130.929ZM125.97 130.699L124.763 131.816L126.721 133.162L127.928 134.18L127.961 134.147L127.08 132.801L125.97 130.699Z" fill="#4067AC"/>
<path d="M109.526 135.987L110.57 135.33L111.647 136.742L116.475 133.754L121.598 142.226L120.097 143.146L115.79 136.086L113.669 137.432L117.943 144.492L116.443 145.411L112.136 138.351L111.288 138.91L109.526 135.987Z" fill="#4067AC"/>
<path d="M103.424 146.266L103.782 147.646L103.88 147.613L103.848 146.037L104.631 140.159L105.936 139.666L109.394 148.959L107.763 149.583L105.936 144.723L105.577 143.311L105.512 143.344L105.544 144.986L104.696 150.765L103.391 151.258L99.9326 141.965L101.597 141.308L103.424 146.266Z" fill="#4067AC"/>
<path d="M89.2988 144.361L91.028 144.033L91.7132 147.941L92.3983 147.547L93.2792 143.639L95.2694 143.278L94.2906 146.89L93.7034 147.58C94.2254 147.612 94.6821 147.875 95.0736 148.269C95.4652 148.696 95.7588 149.32 95.9219 150.141C96.0198 150.732 96.0198 151.257 95.9546 151.684C95.8567 152.111 95.6935 152.472 95.4325 152.768C95.1715 153.063 94.8453 153.293 94.4211 153.49C94.0296 153.687 93.5729 153.819 93.0508 153.917C92.953 153.95 92.7898 153.95 92.5941 153.983C92.3983 154.016 92.2352 154.016 92.0394 154.049C91.8437 154.049 91.6805 154.081 91.4848 154.081C91.289 154.081 91.1259 154.081 90.9954 154.081L89.2988 144.361ZM92.4962 152.275C92.5941 152.275 92.6593 152.275 92.7572 152.275C92.8551 152.275 92.953 152.242 93.0508 152.242C93.2466 152.21 93.4097 152.144 93.5728 152.045C93.736 151.98 93.8665 151.848 93.9644 151.717C94.0622 151.553 94.1275 151.389 94.1601 151.159C94.1927 150.929 94.1927 150.666 94.1275 150.371C94.0296 149.78 93.8339 149.386 93.5076 149.189C93.214 148.959 92.8551 148.893 92.4636 148.959L91.9415 149.057L92.4962 152.275Z" fill="#4067AC"/>
<path d="M81.5325 149.317C81.5325 150.138 80.88 150.828 80.0644 150.828C79.2487 150.828 78.5962 150.138 78.5962 149.317C78.5962 148.496 79.2487 147.839 80.0644 147.839C80.88 147.839 81.5325 148.496 81.5325 149.317Z" fill="#4067AC"/>
</svg>
