<svg width="16" height="16" viewBox="0 0 16 16" fill="none" xmlns="http://www.w3.org/2000/svg">
<g clip-path="url(#clip0_1624_566)">
<path d="M7.89983 11.9311L4.33176 11.6682L4.06885 8.10015L11.4679 0.701086C12.3818 -0.212842 13.9718 -0.212842 14.8983 0.701086L15.2989 1.10171C16.2379 2.04068 16.2379 3.58059 15.2989 4.53207L7.89983 11.9311ZM5.5086 10.5039L7.42409 10.6416L14.41 3.6557C14.8607 3.205 14.8607 2.45383 14.41 2.00312L14.0094 1.60249C13.5712 1.16431 12.795 1.16431 12.3568 1.60249L5.35836 8.58841L5.5086 10.5039Z" fill="#8F989D"/>
<path d="M12.795 16H3.20501C1.43975 16 0 14.5728 0 12.795V3.20501C0 1.43975 1.43975 0 3.20501 0H7.31142C7.66197 0 7.9374 0.27543 7.9374 0.625978C7.9374 0.976526 7.66197 1.25196 7.31142 1.25196H3.20501C2.12833 1.25196 1.25196 2.12833 1.25196 3.20501V12.795C1.25196 13.8717 2.12833 14.748 3.20501 14.748H12.795C13.8717 14.748 14.748 13.8717 14.748 12.795V8.68858C14.748 8.33803 15.0235 8.0626 15.374 8.0626C15.7246 8.0626 16 8.33803 16 8.68858V12.795C16 14.5728 14.5728 16 12.795 16Z" fill="#8F989D"/>
</g>
<defs>
<clipPath id="clip0_1624_566">
<rect width="16" height="16" fill="white"/>
</clipPath>
</defs>
</svg>
