<svg width="16" height="16" viewBox="0 0 16 16" fill="none" xmlns="http://www.w3.org/2000/svg">
<g clip-path="url(#clip0_1624_625)">
<path d="M12.7384 16H3.26152C2.38767 16 1.67383 15.2861 1.67383 14.4246V5.95691H14.3261V14.4246C14.3261 15.2861 13.6123 16 12.7384 16ZM2.9046 7.18768V14.4246C2.9046 14.6215 3.0646 14.7692 3.26152 14.7692H12.7384C12.9354 14.7692 13.0954 14.6092 13.0954 14.4246V7.18768H2.9046Z" fill="#8F989D"/>
<path d="M15.3847 8.14769C15.2247 8.14769 15.077 8.08615 14.9539 7.96307L8.25851 1.31692C8.11082 1.18154 7.88928 1.18154 7.7539 1.31692L1.05851 7.96307C0.812361 8.19692 0.430822 8.19692 0.184668 7.96307C-0.0614856 7.72923 -0.0491779 7.33538 0.184668 7.08923L6.88005 0.443075C7.49544 -0.172309 8.50467 -0.172309 9.12005 0.443075L15.8154 7.08923C16.0616 7.32307 16.0616 7.71692 15.8154 7.96307C15.7047 8.09846 15.5447 8.14769 15.3847 8.14769Z" fill="#8F989D"/>
</g>
<defs>
<clipPath id="clip0_1624_625">
<rect width="16" height="16" fill="white"/>
</clipPath>
</defs>
</svg>
