<svg width="16" height="16" viewBox="0 0 16 16" fill="none" xmlns="http://www.w3.org/2000/svg">
<path d="M10.4195 16H1.88531C0.842105 16 0 15.1605 0 14.1206V1.8794C0 0.839467 0.842105 0 1.88531 0H10.4195C10.7714 0 11.0479 0.275646 11.0479 0.626468C11.0479 0.97729 10.7714 1.25294 10.4195 1.25294H1.88531C1.53339 1.25294 1.25687 1.52858 1.25687 1.8794V14.1206C1.25687 14.4714 1.53339 14.7471 1.88531 14.7471H10.4195C10.7714 14.7471 11.0479 15.0227 11.0479 15.3735C11.0479 15.7244 10.7714 16 10.4195 16Z" fill="#8F989D"/>
<path d="M15.3716 8.63273H6.209C5.85708 8.63273 5.58057 8.35708 5.58057 8.00626C5.58057 7.65544 5.85708 7.37979 6.209 7.37979H15.3716C15.7235 7.37979 16 7.65544 16 8.00626C16 8.35708 15.711 8.63273 15.3716 8.63273Z" fill="#8F989D"/>
<path d="M10.9221 13.419C10.7587 13.419 10.5954 13.3563 10.4822 13.231C10.2309 12.9804 10.2309 12.592 10.4822 12.3414L14.6676 8.16915C14.7305 8.10651 14.743 8.03133 14.743 7.99374C14.743 7.95615 14.7305 7.88098 14.6676 7.81833L10.4822 3.65858C10.2309 3.40799 10.2309 3.01958 10.4822 2.769C10.7336 2.51841 11.1232 2.51841 11.3746 2.769L15.56 6.94127C15.8491 7.22945 15.9999 7.60533 15.9999 8.00627C15.9999 8.40721 15.8491 8.78309 15.56 9.07127L11.3746 13.2435C11.2489 13.3563 11.0855 13.419 10.9221 13.419Z" fill="#8F989D"/>
</svg>
