<svg width="16" height="19" viewBox="0 0 16 19" fill="none" xmlns="http://www.w3.org/2000/svg">
<path d="M14.3336 0.0250587C14.3085 0.0250587 14.2835 0.0125294 14.2459 0.0125294C14.1958 0.0125294 14.1582 0 14.1206 0H1.8794C0.839467 0 0 0.839467 0 1.8794V14.1457C0 15.1856 0.839467 16.0251 1.8794 16.0251H4.36022V16.6766C4.36022 17.6664 5.29992 18.4432 6.49021 18.4432H6.59045L14.4839 15.9875C15.3485 15.8246 16 15.0603 16 14.1457V1.8794C16 0.914644 15.2733 0.125294 14.3336 0.0250587ZM1.8794 14.7721C1.52858 14.7721 1.25294 14.4965 1.25294 14.1457V1.8794C1.25294 1.52858 1.52858 1.25294 1.8794 1.25294H10.1363L6.28974 2.45576C4.68598 2.99452 4.36022 3.90916 4.36022 4.58575V14.7721H1.8794ZM6.40251 17.1903C5.93892 17.1652 5.60063 16.9021 5.60063 16.6766V4.58575C5.60063 4.19734 5.96398 3.8841 6.66562 3.64605L14.2459 1.278C14.5215 1.34064 14.7345 1.5787 14.7345 1.8794V14.1457C14.7345 14.4965 14.6343 14.5717 14.1081 14.7721C14.0579 14.7847 14.0204 14.8097 13.9702 14.8348L6.40251 17.1903Z" fill="#8F989D"/>
</svg>
