<svg width="600" height="359" viewBox="0 0 600 359" fill="none" xmlns="http://www.w3.org/2000/svg">
<path fill-rule="evenodd" clip-rule="evenodd" d="M0 5C0 2.23858 2.23858 0 5 0H707C709.761 0 712 2.23858 712 5V354C712 356.761 709.761 359 707 359H5.00002C2.2386 359 0 356.761 0 354V5Z" fill="#EEF2F4"/>
<path fill-rule="evenodd" clip-rule="evenodd" d="M378.396 159.919H333.604C329.364 159.919 325.915 162.164 325.915 164.923V194.078C325.915 196.838 329.364 199.083 333.604 199.083H378.396C382.635 199.083 386.084 196.838 386.084 194.078V164.923C386.084 162.164 382.635 159.919 378.396 159.919ZM382.54 194.078C382.54 195.566 380.681 196.776 378.396 196.776H333.604C331.318 196.776 329.459 195.566 329.459 194.078V189.871L341.123 183.411C341.549 183.175 342.17 183.173 342.6 183.405L349.906 187.354C350.611 187.735 351.645 187.704 352.292 187.282L369.653 175.965C369.967 175.76 370.333 175.74 370.524 175.747C370.714 175.753 371.075 175.797 371.355 176.022L382.54 184.986V194.078H382.54ZM374.106 174.567L382.54 181.327V164.924C382.54 163.436 380.681 162.226 378.396 162.226H333.604C331.318 162.226 329.459 163.436 329.459 164.924V186.842L338.827 181.654C340.567 180.69 343.106 180.681 344.864 181.631L350.927 184.908L367.145 174.335C368.083 173.724 369.381 173.399 370.705 173.443C372.03 173.487 373.27 173.897 374.106 174.567Z" fill="#9DAFBD"/>
<path fill-rule="evenodd" clip-rule="evenodd" d="M336.379 170.332C336.379 167.263 340.216 164.766 344.932 164.766C349.648 164.766 353.484 167.263 353.484 170.332C353.484 173.402 349.648 175.899 344.932 175.899C340.216 175.899 336.379 173.402 336.379 170.332ZM339.927 170.332C339.927 172.129 342.172 173.59 344.932 173.59C347.692 173.59 349.937 172.129 349.937 170.332C349.937 168.536 347.692 167.074 344.932 167.074C342.172 167.074 339.927 168.536 339.927 170.332Z" fill="#9DAFBD"/>
</svg>
