<svg xmlns="http://www.w3.org/2000/svg" viewBox="0 0 60.66 60.66"><defs><style>.cls-1{fill:#dce5f7;}.cls-2{fill:#fff;}.cls-3{fill:#c0d4f9;}.cls-4{fill:#e0e8fb;}</style></defs><g id="Layer_2" data-name="Layer 2"><ellipse class="cls-1" cx="30.33" cy="30.33" rx="23.52" ry="24.52"/><rect class="cls-2" x="10.57" y="6.8" width="39.51" height="47.05" rx="1.69" transform="translate(60.65 0) rotate(90)"/><path class="cls-3" d="M51.92,50.68H8.74a2.57,2.57,0,0,1-2.51-2.61V12.59A2.57,2.57,0,0,1,8.74,10H51.92a2.56,2.56,0,0,1,2.5,2.61V48.07A2.56,2.56,0,0,1,51.92,50.68ZM8.74,11.17a1.39,1.39,0,0,0-1.36,1.42V48.07a1.39,1.39,0,0,0,1.36,1.42H51.92a1.39,1.39,0,0,0,1.36-1.42V12.59a1.39,1.39,0,0,0-1.36-1.42Z"/><path class="cls-4" d="M42.56,14.34H18.09a2.46,2.46,0,0,0-2.4,2.5V34.28a2.46,2.46,0,0,0,2.4,2.5H42.56a2.45,2.45,0,0,0,2.4-2.5V16.84A2.45,2.45,0,0,0,42.56,14.34Zm-25,2.5a.54.54,0,0,1,.53-.55H42.56a.54.54,0,0,1,.54.55V34.28a.54.54,0,0,1-.54.55H18.09a.54.54,0,0,1-.53-.55Z"/><path class="cls-4" d="M25.1,19a3.3,3.3,0,1,0,3.16,3.3A3.24,3.24,0,0,0,25.1,19Zm0,4.64a1.35,1.35,0,1,1,1.29-1.34A1.32,1.32,0,0,1,25.1,23.61Z"/><path class="cls-4" d="M16.84,32.85a.94.94,0,0,1-.7-.31,1,1,0,0,1,0-1.43l4.94-5a.94.94,0,0,1,1.35,0l3.6,3.57,8.82-9a1,1,0,0,1,1.36,0l8.15,8.19a1,1,0,0,1,0,1.43,1,1,0,0,1-1.37,0l-7.47-7.51-8.82,9a.94.94,0,0,1-1.35,0l-3.6-3.57-4.27,4.32A1,1,0,0,1,16.84,32.85Z"/><path class="cls-3" d="M16.34,45.05V40.1h.6v2.08h2.21V40.1h.61v4.95h-.61V42.72H16.94v2.33Z"/><path class="cls-3" d="M22.43,45.14a1.59,1.59,0,0,1-.66-.13,1.47,1.47,0,0,1-.54-.38,1.78,1.78,0,0,1-.36-.6,2.46,2.46,0,0,1-.13-.81,2.29,2.29,0,0,1,.14-.81,1.76,1.76,0,0,1,.35-.6,1.48,1.48,0,0,1,.5-.38,1.38,1.38,0,0,1,.59-.14,1.46,1.46,0,0,1,.6.12,1.24,1.24,0,0,1,.44.35,1.52,1.52,0,0,1,.27.54,2.65,2.65,0,0,1,.09.71v.2a.78.78,0,0,1,0,.16H21.33a1.44,1.44,0,0,0,.35.93,1.05,1.05,0,0,0,.82.34,1.19,1.19,0,0,0,.47-.08,2.22,2.22,0,0,0,.41-.2l.21.4a3.63,3.63,0,0,1-.52.27A1.83,1.83,0,0,1,22.43,45.14Zm-1.11-2.22H23.2a1.32,1.32,0,0,0-.23-.85.77.77,0,0,0-.64-.29.85.85,0,0,0-.35.08.84.84,0,0,0-.31.22,1.31,1.31,0,0,0-.23.36A1.69,1.69,0,0,0,21.32,42.92Z"/><path class="cls-3" d="M25.29,45.05V41.89H24.12v-.51h2.95v.51H25.89v3.16Z"/><path class="cls-3" d="M31.07,46.6V44.87a1.42,1.42,0,0,1-.32.19,1,1,0,0,1-.39.08,1.13,1.13,0,0,1-1-.5A2.31,2.31,0,0,1,29,43.22a2.86,2.86,0,0,1,.11-.8,2,2,0,0,1,.29-.61,1.53,1.53,0,0,1,.43-.38,1,1,0,0,1,.5-.14.92.92,0,0,1,.38.08,1.35,1.35,0,0,1,.33.19V39.68h.58V41l0,.56a1.9,1.9,0,0,1,.37-.2,1.08,1.08,0,0,1,.94.06,1,1,0,0,1,.4.37,1.75,1.75,0,0,1,.25.59,3.66,3.66,0,0,1,0,1.61,2.1,2.1,0,0,1-.3.62,1.23,1.23,0,0,1-.43.39,1,1,0,0,1-.51.13.83.83,0,0,1-.34-.07,1.57,1.57,0,0,1-.36-.19l0,.54V46.6Zm-.57-2a.73.73,0,0,0,.3-.06.7.7,0,0,0,.28-.2v-2.3a.91.91,0,0,0-.6-.25.57.57,0,0,0-.33.11.88.88,0,0,0-.26.28,1.75,1.75,0,0,0-.17.44,2.58,2.58,0,0,0-.06.58,2,2,0,0,0,.22,1A.68.68,0,0,0,30.5,44.62Zm1.73,0a.71.71,0,0,0,.6-.38,2.17,2.17,0,0,0,.23-1.08,3.12,3.12,0,0,0-.05-.55,1.59,1.59,0,0,0-.14-.42.85.85,0,0,0-.25-.28.73.73,0,0,0-.37-.1.8.8,0,0,0-.3.06,1,1,0,0,0-.32.2v2.3a.81.81,0,0,0,.32.2A1,1,0,0,0,32.23,44.62Z"/><path class="cls-3" d="M36,45.14a1.44,1.44,0,0,1-.62-.13,1.46,1.46,0,0,1-.52-.37,1.88,1.88,0,0,1-.36-.6,2.31,2.31,0,0,1-.13-.82,2.26,2.26,0,0,1,.13-.81,1.93,1.93,0,0,1,.36-.61,1.49,1.49,0,0,1,.52-.38,1.52,1.52,0,0,1,1.23,0,1.49,1.49,0,0,1,.52.38,1.93,1.93,0,0,1,.36.61,2.26,2.26,0,0,1,.13.81,2.31,2.31,0,0,1-.13.82,1.88,1.88,0,0,1-.36.6,1.46,1.46,0,0,1-.52.37A1.42,1.42,0,0,1,36,45.14Zm0-.51a1,1,0,0,0,.41-.1,1.1,1.1,0,0,0,.32-.29,1.38,1.38,0,0,0,.21-.44,2.4,2.4,0,0,0,0-1.15,1.34,1.34,0,0,0-.21-.45,1,1,0,0,0-.32-.29.86.86,0,0,0-.41-.1.87.87,0,0,0-.42.1,1,1,0,0,0-.32.29,1.34,1.34,0,0,0-.21.45,2.4,2.4,0,0,0,0,1.15,1.38,1.38,0,0,0,.21.44,1.1,1.1,0,0,0,.32.29A1,1,0,0,0,36,44.63Z"/><path class="cls-3" d="M39.18,45.05V41.89H38v-.51h3v.51H39.78v3.16Z"/><path class="cls-3" d="M43,45.14a1.51,1.51,0,0,1-1.13-.5,1.88,1.88,0,0,1-.36-.6,2.31,2.31,0,0,1-.14-.82,2.25,2.25,0,0,1,.14-.81,1.93,1.93,0,0,1,.36-.61,1.55,1.55,0,0,1,.51-.38,1.68,1.68,0,0,1,.62-.13,1.6,1.6,0,0,1,.62.13,1.49,1.49,0,0,1,.52.38,1.93,1.93,0,0,1,.36.61,2.26,2.26,0,0,1,.13.81,2.31,2.31,0,0,1-.13.82,1.88,1.88,0,0,1-.36.6,1.46,1.46,0,0,1-.52.37A1.44,1.44,0,0,1,43,45.14Zm0-.51a.92.92,0,0,0,.41-.1,1,1,0,0,0,.33-.29,1.37,1.37,0,0,0,.2-.44,2.11,2.11,0,0,0,0-1.15,1.33,1.33,0,0,0-.2-.45.91.91,0,0,0-.33-.29.89.89,0,0,0-.82,0,.88.88,0,0,0-.32.29,1.34,1.34,0,0,0-.21.45,2,2,0,0,0-.07.57,2,2,0,0,0,.07.58,1.38,1.38,0,0,0,.21.44,1,1,0,0,0,.32.29A.92.92,0,0,0,43,44.63Z"/></g></svg>