<svg xmlns="http://www.w3.org/2000/svg" viewBox="0 0 60.66 60.66"><defs><style>.cls-1{fill:#dce5f7;}.cls-2{fill:#fff;}.cls-3{fill:#c0d4f9;}.cls-4{fill:#e0e8fb;}</style></defs><g id="Layer_2" data-name="Layer 2"><ellipse class="cls-1" cx="30.33" cy="30.33" rx="23.52" ry="24.52"/><rect class="cls-2" x="10.57" y="6.8" width="39.51" height="47.05" rx="1.69" transform="translate(60.65 0) rotate(90)"/><path class="cls-3" d="M51.92,50.68H8.74a2.57,2.57,0,0,1-2.51-2.61V12.59A2.57,2.57,0,0,1,8.74,10H51.92a2.56,2.56,0,0,1,2.5,2.61V48.07A2.56,2.56,0,0,1,51.92,50.68ZM8.74,11.17a1.39,1.39,0,0,0-1.36,1.42V48.07a1.39,1.39,0,0,0,1.36,1.42H51.92a1.39,1.39,0,0,0,1.36-1.42V12.59a1.39,1.39,0,0,0-1.36-1.42Z"/><path class="cls-3" d="M14.75,44.45V39.7h.6v2h2.21v-2h.61v4.75h-.61V42.21H15.35v2.24Z"/><path class="cls-3" d="M20.84,44.54a1.86,1.86,0,0,1-.67-.13,1.61,1.61,0,0,1-.53-.36,1.78,1.78,0,0,1-.36-.58,2,2,0,0,1-.13-.77,2.36,2.36,0,0,1,.13-.78,1.78,1.78,0,0,1,.36-.58,1.63,1.63,0,0,1,.5-.37,1.52,1.52,0,0,1,.59-.12,1.46,1.46,0,0,1,.6.11,1.31,1.31,0,0,1,.44.33,1.65,1.65,0,0,1,.27.53,2.33,2.33,0,0,1,.09.68v.18a.61.61,0,0,1,0,.15H19.74a1.36,1.36,0,0,0,.35.9,1.08,1.08,0,0,0,.82.33,1.45,1.45,0,0,0,.47-.08,1.93,1.93,0,0,0,.41-.2l.21.39a2.81,2.81,0,0,1-.52.26A1.83,1.83,0,0,1,20.84,44.54Zm-1.11-2.13h1.88a1.23,1.23,0,0,0-.23-.82.78.78,0,0,0-.64-.27.92.92,0,0,0-.36.07,1,1,0,0,0-.3.21,1.36,1.36,0,0,0-.23.34A1.62,1.62,0,0,0,19.73,42.41Z"/><path class="cls-3" d="M23.7,44.45v-3H22.52v-.49h3v.49H24.3v3Z"/><path class="cls-3" d="M27.71,44.45V40.93h1.35a2.89,2.89,0,0,1,.53,0,1.52,1.52,0,0,1,.41.16.75.75,0,0,1,.26.27.88.88,0,0,1,.09.41.77.77,0,0,1-.15.49.89.89,0,0,1-.43.26v0a.94.94,0,0,1,.28.1,1,1,0,0,1,.24.16.72.72,0,0,1,.16.25,1,1,0,0,1-.05.78,1,1,0,0,1-.29.32,1.35,1.35,0,0,1-.44.18,2.38,2.38,0,0,1-.55.06Zm.58-2H29a1.13,1.13,0,0,0,.63-.14.48.48,0,0,0,.18-.39.45.45,0,0,0-.18-.38.92.92,0,0,0-.59-.14h-.71Zm0,1.61h.76a1.06,1.06,0,0,0,.65-.16.52.52,0,0,0,.21-.45.47.47,0,0,0-.22-.42,1.23,1.23,0,0,0-.67-.16h-.73Z"/><path class="cls-3" d="M31.38,44.45V40.93H32v1.46c0,.19,0,.4,0,.62s0,.45,0,.68h0l.24-.38c.09-.14.16-.26.22-.37l1.34-2h.55v3.52H33.7V43c0-.19,0-.4,0-.62s0-.45,0-.69h0a4.29,4.29,0,0,1-.23.38c-.09.15-.17.27-.23.38l-1.34,2Z"/><path class="cls-3" d="M35.59,44.45v1.24h-.51L35,44.34V44h.18a.45.45,0,0,0,.14-.11,1,1,0,0,0,.13-.24c0-.11.07-.25.11-.43a6.29,6.29,0,0,0,.11-.69l.19-1.56h2.18v3h.52v.38l-.06,1.35H38V44.45Zm.61-1.85a5.81,5.81,0,0,1-.15.85,1.75,1.75,0,0,1-.23.51h1.64V41.42H36.34Z"/><path class="cls-3" d="M40.75,44.54a1.86,1.86,0,0,1-.67-.13,1.61,1.61,0,0,1-.53-.36,1.78,1.78,0,0,1-.36-.58,2,2,0,0,1-.13-.77,2.13,2.13,0,0,1,.13-.78,1.78,1.78,0,0,1,.36-.58,1.52,1.52,0,0,1,.5-.37,1.48,1.48,0,0,1,.59-.12,1.38,1.38,0,0,1,.59.11,1.14,1.14,0,0,1,.44.33,1.67,1.67,0,0,1,.28.53,2.33,2.33,0,0,1,.09.68v.18c0,.06,0,.11,0,.15H39.64a1.42,1.42,0,0,0,.36.9,1.08,1.08,0,0,0,.82.33,1.34,1.34,0,0,0,.46-.08,1.56,1.56,0,0,0,.41-.2l.21.39a2.44,2.44,0,0,1-.51.26A1.83,1.83,0,0,1,40.75,44.54Zm-1.11-2.13h1.88a1.29,1.29,0,0,0-.23-.82.78.78,0,0,0-.64-.27.92.92,0,0,0-.36.07,1.21,1.21,0,0,0-.31.21,1.33,1.33,0,0,0-.22.34A1.62,1.62,0,0,0,39.64,42.41Z"/><path class="cls-3" d="M44.28,44.54a1.6,1.6,0,0,1-.62-.13,1.43,1.43,0,0,1-.52-.36,1.73,1.73,0,0,1-.36-.57,2.44,2.44,0,0,1,0-1.57,1.78,1.78,0,0,1,.36-.58,1.43,1.43,0,0,1,.52-.36,1.64,1.64,0,0,1,1.23,0,1.43,1.43,0,0,1,.52.36,1.78,1.78,0,0,1,.36.58,2.44,2.44,0,0,1,0,1.57,1.73,1.73,0,0,1-.36.57,1.43,1.43,0,0,1-.52.36A1.59,1.59,0,0,1,44.28,44.54Zm0-.5a1,1,0,0,0,.41-.09,1.06,1.06,0,0,0,.32-.28,1.38,1.38,0,0,0,.21-.42,2.36,2.36,0,0,0,.07-.55,2.45,2.45,0,0,0-.07-.56,1.44,1.44,0,0,0-.21-.43,1.06,1.06,0,0,0-.32-.28,1,1,0,0,0-.41-.09,1,1,0,0,0-.42.09,1.06,1.06,0,0,0-.32.28,1.22,1.22,0,0,0-.2.43,2,2,0,0,0-.08.56,1.92,1.92,0,0,0,.08.55,1.17,1.17,0,0,0,.2.42,1.06,1.06,0,0,0,.32.28A1,1,0,0,0,44.28,44Z"/><path class="cls-4" d="M42.56,14.34H18.09a2.46,2.46,0,0,0-2.4,2.5V34.28a2.46,2.46,0,0,0,2.4,2.5H42.56a2.45,2.45,0,0,0,2.4-2.5V16.84A2.45,2.45,0,0,0,42.56,14.34Zm-25,2.5a.54.54,0,0,1,.53-.55H42.56a.54.54,0,0,1,.54.55V34.28a.54.54,0,0,1-.54.55H18.09a.54.54,0,0,1-.53-.55Z"/><path class="cls-4" d="M28,30.82a1.11,1.11,0,0,1-.49-.12,1,1,0,0,1-.53-.91V21.84a1,1,0,0,1,.53-.9,1,1,0,0,1,1.06,0l6.09,4a1,1,0,0,1,.46.86,1,1,0,0,1-.46.86l-6.09,4A1.06,1.06,0,0,1,28,30.82Zm1-7.08v4.15l3.18-2.07Z"/></g></svg>