<svg width="470" height="457" viewBox="0 0 470 457" fill="none" xmlns="http://www.w3.org/2000/svg">
<path fill-rule="evenodd" clip-rule="evenodd" d="M0 228.5C0 102.303 102.303 0 228.5 0H241.5C367.697 0 470 102.303 470 228.5C470 354.697 367.697 457 241.5 457H228.5C102.303 457 0 354.697 0 228.5Z" fill="#BABFC7"/>
<path fill-rule="evenodd" clip-rule="evenodd" d="M258.483 199H212.546C208.198 199 204.661 202.439 204.661 206.667V251.333C204.661 255.561 208.198 259 212.546 259H258.483C262.83 259 266.368 255.561 266.368 251.333V206.667C266.368 202.439 262.83 199 258.483 199ZM262.733 251.333C262.733 253.612 260.826 255.466 258.483 255.466H212.546C210.202 255.466 208.295 253.612 208.295 251.333V244.887L220.258 234.99C220.694 234.629 221.331 234.626 221.772 234.981L229.265 241.032C229.987 241.615 231.048 241.567 231.712 240.921L249.516 223.582C249.838 223.269 250.213 223.238 250.409 223.248C250.605 223.258 250.975 223.326 251.262 223.67L262.733 237.403V251.333H262.733ZM254.084 221.441L262.733 231.797V206.667C262.733 204.388 260.826 202.534 258.483 202.534H212.546C210.202 202.534 208.295 204.388 208.295 206.667V240.247L217.902 232.299C219.687 230.822 222.291 230.807 224.094 232.263L230.312 237.283L246.944 221.085C247.906 220.149 249.237 219.652 250.596 219.719C251.954 219.786 253.226 220.414 254.084 221.441Z" fill="#F6F7F7"/>
<path fill-rule="evenodd" clip-rule="evenodd" d="M215.393 214.952C215.393 210.25 219.327 206.424 224.164 206.424C229 206.424 232.935 210.25 232.935 214.952C232.935 219.655 229 223.481 224.164 223.481C219.327 223.481 215.393 219.655 215.393 214.952ZM219.03 214.952C219.03 217.704 221.333 219.944 224.164 219.944C226.994 219.944 229.297 217.704 229.297 214.952C229.297 212.2 226.994 209.961 224.164 209.961C221.333 209.961 219.03 212.2 219.03 214.952Z" fill="#F6F7F7"/>
</svg>
