<svg width="120" height="105" viewBox="0 0 120 105" fill="none" xmlns="http://www.w3.org/2000/svg">
<path d="M108.085 104.575H31.1452C24.6007 104.575 19.2308 99.3725 19.2308 92.9957V34.2627C19.2308 27.886 24.6007 22.6839 31.1452 22.6839H108.085C114.63 22.6839 120 27.886 120 34.2627V93.0796C120 99.3725 114.63 104.575 108.085 104.575ZM31.1452 31.0743C29.2154 31.0743 27.7051 32.5007 27.7051 34.2627V93.0796C27.7051 94.8416 29.2993 96.268 31.2291 96.268H108.169C110.099 96.268 111.693 94.8416 111.693 93.0796V34.2627C111.693 32.5007 110.099 31.0743 108.169 31.0743H31.1452Z" fill="#B9B9B9"/>
<path d="M20.0693 92.1564C14.2799 92.1564 9.1617 87.9612 8.40656 82.2557L0.100031 24.0261C-0.739013 17.7333 3.79182 11.86 10.2525 10.937L86.4376 0.113346C89.5421 -0.306176 92.6465 0.448964 95.1637 2.21095C97.7647 4.05685 99.3589 6.74179 99.8623 9.84625L102.212 26.2076C102.547 28.473 100.953 30.6545 98.6876 30.9901C96.3383 31.3258 94.2407 29.7316 93.9051 27.4662L91.4719 11.1048C91.3879 10.2658 90.8845 9.59454 90.2133 9.09111C89.4582 8.58768 88.5352 8.33597 87.5284 8.50378L11.4271 19.2435C9.58122 19.4952 8.15485 21.1733 8.40656 22.8514L16.6292 81.081C16.9648 82.7591 18.6429 83.9338 20.5727 83.6821C22.8381 83.3464 25.0196 84.9406 25.2713 87.2899C25.607 89.5554 24.0128 91.7369 21.6634 91.9886C21.16 92.0725 20.5727 92.1564 20.0693 92.1564Z" fill="#B9B9B9"/>
<path d="M23.51 84.3537C22.4192 84.3537 21.3285 83.9342 20.5733 83.0951C18.8952 81.4171 18.8952 78.816 20.5733 77.1379L39.7874 57.9238C42.808 54.9033 47.7583 54.9033 50.695 57.9238L61.9382 69.167L83.5016 47.6036C84.9279 46.1772 86.9417 45.3382 88.9554 45.3382C91.053 45.3382 92.9828 46.1772 94.4091 47.6036L118.741 71.9359C120.419 73.614 120.419 76.215 118.741 77.8931C117.063 79.5712 114.462 79.5712 112.784 77.8931L88.9554 54.0642L66.6368 76.3828C64.1197 78.8999 59.6727 78.8999 57.1556 76.3828L45.2412 64.3845L26.4466 83.0951C25.6076 83.9342 24.5168 84.3537 23.51 84.3537Z" fill="#B9B9B9"/>
<path d="M44.3183 49.6172C47.7011 49.6172 50.4434 46.8749 50.4434 43.4921C50.4434 40.1094 47.7011 37.3671 44.3183 37.3671C40.9356 37.3671 38.1933 40.1094 38.1933 43.4921C38.1933 46.8749 40.9356 49.6172 44.3183 49.6172Z" fill="#B9B9B9"/>
</svg>
