<svg width="20" height="20" viewBox="0 0 20 20" fill="none" xmlns="http://www.w3.org/2000/svg">
<path d="M10.0001 19.9C4.5461 19.9 0.100098 15.454 0.100098 9.99998C0.100098 4.54598 4.5461 0.0999756 10.0001 0.0999756C15.4541 0.0999756 19.9001 4.54598 19.9001 9.99998C19.9001 15.454 15.4541 19.9 10.0001 19.9ZM10.0001 1.89998C5.5361 1.89998 1.9001 5.53598 1.9001 9.99998C1.9001 14.464 5.5361 18.1 10.0001 18.1C14.4641 18.1 18.1001 14.464 18.1001 9.99998C18.1001 5.53598 14.4641 1.89998 10.0001 1.89998Z" fill="#72839C"/>
<path d="M10.0001 6.16572C10.4972 6.16572 10.9001 5.76278 10.9001 5.26572C10.9001 4.76867 10.4972 4.36572 10.0001 4.36572C9.50304 4.36572 9.1001 4.76867 9.1001 5.26572C9.1001 5.76278 9.50304 6.16572 10.0001 6.16572Z" fill="#72839C"/>
<path d="M10.0001 16.5518C9.4961 16.5518 9.1001 16.1378 9.1001 15.6518V8.28977C9.1001 7.78577 9.4961 7.38977 10.0001 7.38977C10.5041 7.38977 10.9001 7.80377 10.9001 8.28977V15.6338C10.9001 16.1378 10.5041 16.5518 10.0001 16.5518Z" fill="#72839C"/>
</svg>
