<svg width="220" height="173" viewBox="0 0 220 173" fill="none" xmlns="http://www.w3.org/2000/svg">
<path opacity="0.7" d="M137.481 157.563C137.481 166.044 125.093 173 109.751 173C94.4094 173 82.0215 166.139 82.0215 157.563V137.647C82.0215 129.166 94.4094 122.21 109.751 122.21C125.093 122.21 137.481 129.071 137.481 137.647V157.563Z" fill="#0030BF"/>
<path opacity="0.7" d="M109.963 152.321C145.382 152.321 174.094 136.536 174.094 117.063C174.094 97.5911 145.382 81.8056 109.963 81.8056C74.5445 81.8056 45.832 97.5911 45.832 117.063C45.832 136.536 74.5445 152.321 109.963 152.321Z" fill="#0030BF"/>
<path d="M187.454 72.3723C187.454 110.679 178.877 141.744 109.505 141.744C46.4221 141.744 31.5566 110.679 31.5566 72.3723C31.5566 34.0651 66.4333 3 109.505 3C152.577 3 187.454 34.0651 187.454 72.3723Z" fill="url(#paint0_linear)" stroke="#0030BF" stroke-width="6" stroke-miterlimit="10" stroke-linecap="round"/>
<path d="M155.769 39.9708C155.769 39.9708 152.815 30.0604 163.678 19.1972C174.637 8.23868 185.5 11.0974 192.361 17.9584C199.222 24.8194 214.183 39.7802 214.183 39.7802C214.183 39.7802 218.947 42.7342 215.231 46.5459C211.514 50.2622 202.843 61.9831 197.411 56.5515C192.075 51.1199 177.686 56.5515 177.686 56.5515" fill="#3366FF"/>
<path d="M155.769 39.9708C155.769 39.9708 152.815 30.0604 163.678 19.1972C174.637 8.23868 185.5 11.0974 192.361 17.9584C199.222 24.8194 214.183 39.7802 214.183 39.7802C214.183 39.7802 218.947 42.7342 215.231 46.5459C211.514 50.2622 202.843 61.9831 197.411 56.5515C192.075 51.1199 177.686 56.5515 177.686 56.5515" stroke="#0030BF" stroke-width="6" stroke-miterlimit="10" stroke-linecap="round"/>
<path d="M63.8797 39.9708C63.8797 39.9708 66.8337 30.0604 55.9705 19.1972C45.012 8.2387 34.1487 11.0975 27.2878 17.9584C20.4268 24.8194 5.46601 39.7802 5.46601 39.7802C5.46601 39.7802 0.701432 42.7342 4.4178 46.5459C8.13417 50.2623 16.8057 61.9831 22.2373 56.5515C27.5736 51.1199 41.9626 56.5515 41.9626 56.5515" fill="#3366FF"/>
<path d="M63.8797 39.9708C63.8797 39.9708 66.8337 30.0604 55.9705 19.1972C45.012 8.2387 34.1487 11.0975 27.2878 17.9584C20.4268 24.8194 5.46601 39.7802 5.46601 39.7802C5.46601 39.7802 0.701432 42.7342 4.4178 46.5459C8.13417 50.2623 16.8057 61.9831 22.2373 56.5515C27.5736 51.1199 41.9626 56.5515 41.9626 56.5515" stroke="#0030BF" stroke-width="6" stroke-miterlimit="10" stroke-linecap="round"/>
<path opacity="0.6" d="M123.859 66.7525C123.859 77.6157 132.721 86.4779 143.585 86.4779C154.448 86.4779 161.595 80.2839 161.595 69.3254C161.595 58.4622 145.681 46.9319 134.818 46.9319C123.955 46.9319 123.859 55.794 123.859 66.7525Z" fill="#F1F2F2"/>
<path opacity="0.6" d="M95.5206 66.7525C95.5206 77.6157 86.6585 86.4779 75.7952 86.4779C64.932 86.4779 57.7852 80.2839 57.7852 69.3254C57.7852 58.4622 73.6988 46.9319 84.5621 46.9319C95.4253 46.9319 95.5206 55.794 95.5206 66.7525Z" fill="#F1F2F2"/>
<path d="M125.008 79.4191C119.386 79.4191 114.145 80.9438 109.857 83.5166C105.569 80.9438 100.423 79.4191 94.7057 79.4191C80.5073 79.4191 69.0723 88.9482 69.0723 100.669V137.547C69.0723 149.268 80.6026 158.797 94.7057 158.797C100.328 158.797 105.569 157.272 109.857 154.699C114.145 157.272 119.291 158.797 125.008 158.797C139.207 158.797 150.642 149.268 150.642 137.547V100.669C150.642 88.9482 139.112 79.4191 125.008 79.4191Z" fill="#F1F2F2" stroke="#0030BF" stroke-width="6" stroke-miterlimit="10" stroke-linecap="round"/>
<path d="M90.9883 119.068C90.9883 119.068 109.856 103.631 128.247 119.068H90.9883Z" fill="#F1F2F2"/>
<path d="M90.9883 119.068C90.9883 119.068 109.856 103.631 128.247 119.068" stroke="#191616" stroke-width="6" stroke-miterlimit="10" stroke-linecap="round"/>
<path d="M92.6484 116.023C92.6484 116.023 96.4601 104.397 98.2707 103.444C99.9859 102.491 104.465 109.543 104.655 112.306C104.846 115.07 92.6484 116.023 92.6484 116.023Z" fill="#F1F2F2" stroke="#0030BF" stroke-width="4" stroke-miterlimit="10" stroke-linecap="round"/>
<path d="M127.235 116.023C127.235 116.023 123.424 104.397 121.613 103.444C119.898 102.491 115.419 109.543 115.229 112.306C115.038 115.07 127.235 116.023 127.235 116.023Z" fill="#F1F2F2" stroke="#0030BF" stroke-width="4" stroke-miterlimit="10" stroke-linecap="round"/>
<path d="M137.483 147.083C137.483 155.564 125.095 162.52 109.753 162.52C94.4113 162.52 82.0234 155.659 82.0234 147.083V127.167C82.0234 118.686 94.4113 111.73 109.753 111.73C125.095 111.73 137.483 118.591 137.483 127.167V147.083Z" fill="#F1F2F2" stroke="#0030BF" stroke-width="6" stroke-miterlimit="10" stroke-linecap="round"/>
<path d="M121.304 91.8087C121.304 93.524 119.97 102.1 109.965 102.1C99.959 102.1 98.625 93.524 98.625 91.8087C98.625 90.0935 103.675 88.6641 109.965 88.6641C116.254 88.6641 121.304 90.0935 121.304 91.8087Z" fill="#0030BF"/>
<path d="M85.9771 61.3357C88.3049 63.8429 88.157 67.7795 85.5672 70.1549L76.9856 77.9705C74.4784 80.2983 70.5418 80.1503 68.1664 77.5606C65.8386 75.0534 65.9865 71.1168 68.5762 68.7413L77.1579 60.9258C79.7476 58.5504 83.6493 58.8285 85.9771 61.3357Z" fill="#0030BF"/>
<path d="M132.269 61.5306C130.032 64.1192 130.32 68.048 132.993 70.3296L141.847 77.8344C144.436 80.0713 148.365 79.7832 150.646 77.1104C152.883 74.5219 152.595 70.593 149.923 68.3114L141.068 60.8067C138.479 58.5697 134.506 58.942 132.269 61.5306Z" fill="#0030BF"/>
<defs>
<linearGradient id="paint0_linear" x1="124.5" y1="3" x2="113.68" y2="137.297" gradientUnits="userSpaceOnUse">
<stop stop-color="#7295FF"/>
<stop offset="1" stop-color="#3366FF"/>
</linearGradient>
</defs>
</svg>
