<svg width="20" height="20" viewBox="0 0 20 20" fill="none" xmlns="http://www.w3.org/2000/svg">
<path d="M10.0001 19.9001C4.5461 19.9001 0.100098 15.4541 0.100098 10.0001C0.100098 4.5461 4.5461 0.100098 10.0001 0.100098C15.4541 0.100098 19.9001 4.5461 19.9001 10.0001C19.9001 15.4541 15.4541 19.9001 10.0001 19.9001ZM10.0001 1.9001C5.5361 1.9001 1.9001 5.5361 1.9001 10.0001C1.9001 14.4641 5.5361 18.1001 10.0001 18.1001C14.4641 18.1001 18.1001 14.4641 18.1001 10.0001C18.1001 5.5361 14.4641 1.9001 10.0001 1.9001Z" fill="white"/>
<path d="M10.0001 6.16572C10.4972 6.16572 10.9001 5.76278 10.9001 5.26572C10.9001 4.76867 10.4972 4.36572 10.0001 4.36572C9.50304 4.36572 9.1001 4.76867 9.1001 5.26572C9.1001 5.76278 9.50304 6.16572 10.0001 6.16572Z" fill="white"/>
<path d="M10.0001 16.5516C9.4961 16.5516 9.1001 16.1376 9.1001 15.6516V8.28965C9.1001 7.78565 9.4961 7.38965 10.0001 7.38965C10.5041 7.38965 10.9001 7.80365 10.9001 8.28965V15.6336C10.9001 16.1376 10.5041 16.5516 10.0001 16.5516Z" fill="white"/>
</svg>
