<svg width="173" height="183" viewBox="0 0 173 183" fill="none" xmlns="http://www.w3.org/2000/svg">
<path opacity="0.5" d="M86.0412 183C123.774 183 154.362 164.138 154.362 140.871C154.362 117.603 123.774 98.7414 86.0412 98.7414C48.3088 98.7414 17.7207 117.603 17.7207 140.871C17.7207 164.138 48.3088 183 86.0412 183Z" fill="#C03627"/>
<path d="M169.081 87.4731C169.081 133.257 159.944 170.513 86.0404 170.513C18.8365 170.513 3 133.358 3 87.4731C3 41.5877 40.155 4.43269 86.0404 4.43269C131.926 4.5342 169.081 41.6892 169.081 87.4731Z" fill="url(#paint0_linear)" stroke="#C03627" stroke-width="6" stroke-miterlimit="10" stroke-linecap="round"/>
<path d="M19.0387 50.3181C19.0387 50.3181 11.5264 19.4571 12.5416 10.8282C13.5568 2.19934 21.272 1.79326 27.8706 4.43268C34.3676 7.07211 55.4831 24.939 55.4831 24.939" fill="#F27A5F"/>
<path d="M19.0387 50.3181C19.0387 50.3181 11.5264 19.4571 12.5416 10.8282C13.5568 2.19934 21.272 1.79326 27.8706 4.43268C34.3676 7.07211 55.483 24.939 55.483 24.939" stroke="#C03627" stroke-width="6" stroke-miterlimit="10" stroke-linecap="round"/>
<path d="M153.042 50.3181C153.042 50.3181 160.554 19.4571 159.539 10.8282C158.524 2.19934 150.809 1.79326 144.21 4.43268C137.713 7.07211 116.598 24.939 116.598 24.939" fill="#F27A5F"/>
<path d="M153.042 50.3181C153.042 50.3181 160.554 19.4571 159.539 10.8282C158.524 2.19934 150.809 1.79326 144.21 4.43268C137.713 7.07211 116.598 24.939 116.598 24.939" stroke="#C03627" stroke-width="6" stroke-miterlimit="10" stroke-linecap="round"/>
<path opacity="0.5" d="M48.132 61.3816C54.0887 63.9921 60.2129 63.1528 61.8107 59.5069C63.4086 55.861 59.875 50.7891 53.9183 48.1786C47.9616 45.568 41.8375 46.4073 40.2397 50.0532C38.6418 53.6991 42.1753 58.771 48.132 61.3816Z" fill="#C03627"/>
<path opacity="0.5" d="M122.777 61.7359C129.025 59.9298 133.194 55.3656 132.089 51.5413C130.983 47.7171 125.022 46.081 118.774 47.8871C112.526 49.6932 108.357 54.2574 109.463 58.0817C110.568 61.9059 116.529 63.542 122.777 61.7359Z" fill="#C03627"/>
<path d="M97.4111 8.39185C110.811 11.9449 101.675 82.3973 106.04 94.2747C110.405 106.152 142.687 139.348 145.631 151.428C145.631 151.428 129.592 167.773 86.2443 167.468C86.1427 167.468 86.1427 167.468 86.0412 167.468C85.9397 167.468 85.8382 167.468 85.7367 167.468C42.3892 167.773 26.3496 149.601 26.3496 149.601C29.2936 137.521 61.5758 106.152 65.941 94.2747C70.3062 82.3973 60.8652 11.8434 74.2653 8.29033C74.2653 8.29033 84.5185 7.17364 92.1322 7.68123C92.2337 7.68123 95.3807 7.98579 97.4111 8.39185Z" fill="white"/>
<path d="M102.588 109.807C102.588 112.345 100.558 124.831 86.0413 124.831C71.5245 124.831 69.4941 112.345 69.4941 109.807C69.4941 107.269 76.9048 105.238 86.0413 105.238C95.1778 105.238 102.588 107.269 102.588 109.807Z" fill="#AC2124"/>
<path d="M48.0355 87.6298C55.8237 89.5332 62.612 89.1335 63.1976 86.7372C63.7833 84.3408 57.9445 80.8552 50.1563 78.9519C42.3682 77.0486 35.5799 77.4482 34.9943 79.8446C34.4086 82.2409 40.2474 85.7265 48.0355 87.6298Z" fill="#AC2124"/>
<path d="M49.5146 92.983C57.3861 91.4613 63.3877 88.2643 62.9194 85.8423C62.4512 83.4203 55.6905 82.6904 47.819 84.2121C39.9475 85.7338 33.946 88.9308 34.4142 91.3529C34.8824 93.7749 41.6431 94.5047 49.5146 92.983Z" fill="#AC2124"/>
<path d="M121.987 78.8819C114.198 80.7852 108.36 84.2708 108.945 86.6672C109.531 89.0635 116.319 89.4632 124.107 87.5598C131.895 85.6565 137.734 82.1709 137.149 79.7746C136.563 77.3782 129.775 76.9786 121.987 78.8819Z" fill="#AC2124"/>
<path d="M124.293 84.1836C116.421 82.6619 109.66 83.3917 109.192 85.8137C108.724 88.2357 114.725 91.4327 122.597 92.9544C130.468 94.4761 137.229 93.7463 137.697 91.3243C138.166 88.9023 132.164 85.7053 124.293 84.1836Z" fill="#AC2124"/>
<path d="M58.3262 125.44C58.3262 125.44 58.8337 133.866 65.8384 131.734C72.843 129.602 86.5477 128.181 86.5477 128.181" stroke="#C03627" stroke-width="6" stroke-miterlimit="10" stroke-linecap="round"/>
<path d="M113.856 125.44C113.856 125.44 113.349 133.866 106.344 131.734C99.3395 129.602 85.6348 128.181 85.6348 128.181" stroke="#C03627" stroke-width="6" stroke-miterlimit="10" stroke-linecap="round"/>
<path d="M101.268 141.683C101.268 148.484 94.4668 154.068 86.041 154.068C77.6151 154.068 70.8135 148.484 70.8135 141.683C70.8135 134.78 66.7529 129.298 86.041 129.298C105.329 129.298 101.268 134.881 101.268 141.683Z" fill="url(#paint1_linear)" stroke="#C03627" stroke-width="6" stroke-miterlimit="10"/>
<path d="M31.9334 43.821C33.6592 46.0544 40.3593 39.4558 40.6638 36.7149C41.1714 31.8421 29.9031 21.1829 27.2637 23.3147C24.8273 25.345 28.5834 39.4558 31.9334 43.821Z" fill="white"/>
<path d="M140.251 43.821C138.525 46.0544 131.825 39.4558 131.521 36.7149C131.013 31.8421 142.281 21.1829 144.921 23.3147C147.256 25.345 143.499 39.4558 140.251 43.821Z" fill="white"/>
<path opacity="0.2" d="M86.0416 93.8686C92.4892 93.8686 97.716 92.0506 97.716 89.808C97.716 87.5653 92.4892 85.7473 86.0416 85.7473C79.594 85.7473 74.3672 87.5653 74.3672 89.808C74.3672 92.0506 79.594 93.8686 86.0416 93.8686Z" fill="#C03627"/>
<defs>
<linearGradient id="paint0_linear" x1="86.065" y1="170.491" x2="86.065" y2="4.51177" gradientUnits="userSpaceOnUse">
<stop stop-color="#F1592D"/>
<stop offset="0.8177" stop-color="#F27A5F"/>
</linearGradient>
<linearGradient id="paint1_linear" x1="86.0655" y1="154.122" x2="86.0655" y2="129.313" gradientUnits="userSpaceOnUse">
<stop stop-color="#EE6C5B"/>
<stop offset="0.8177" stop-color="#E0554B"/>
</linearGradient>
</defs>
</svg>
