<svg width="20" height="20" viewBox="0 0 20 20" fill="none" xmlns="http://www.w3.org/2000/svg">
<path d="M19 8.045H1V6.2L10 2L19 6.2V8.045ZM3.79 6.545H16.195L10 3.65L3.79 6.545Z" fill="#36f"/>
<path d="M10 16.0549C9.58 16.0549 9.25 15.7249 9.25 15.3049V9.85986C9.25 9.43986 9.58 9.10986 10 9.10986C10.42 9.10986 10.75 9.43986 10.75 9.85986V15.3049C10.75 15.7249 10.42 16.0549 10 16.0549Z" fill="#36f"/>
<path d="M4.71997 16.0549C4.29997 16.0549 3.96997 15.7249 3.96997 15.3049V9.85986C3.96997 9.43986 4.29997 9.10986 4.71997 9.10986C5.13997 9.10986 5.46997 9.43986 5.46997 9.85986V15.3049C5.46997 15.7249 5.13997 16.0549 4.71997 16.0549Z" fill="#36f"/>
<path d="M15.28 16.0549C14.86 16.0549 14.53 15.7249 14.53 15.3049V9.85986C14.53 9.43986 14.86 9.10986 15.28 9.10986C15.7 9.10986 16.03 9.43986 16.03 9.85986V15.3049C16.03 15.7249 15.7 16.0549 15.28 16.0549Z" fill="#36f"/>
<path d="M18.25 18.5752H1.75C1.33 18.5752 1 18.2452 1 17.8252C1 17.4052 1.33 17.0752 1.75 17.0752H18.25C18.67 17.0752 19 17.4052 19 17.8252C19 18.2452 18.67 18.5752 18.25 18.5752Z" fill="#36f"/>
</svg>
