<svg width="30" height="30" viewBox="0 0 30 30" fill="none" xmlns="http://www.w3.org/2000/svg">
<path d="M18 15V18C18 18.1989 17.921 18.3897 17.7803 18.5303C17.6397 18.671 17.4489 18.75 17.25 18.75C17.1225 18.75 17.0025 18.75 16.545 18.375C16.08 18 15.2925 17.25 14.4825 16.875C13.7325 16.53 12.96 16.5 12.195 16.5L13.1025 18.99L13.125 19.125C13.125 19.2245 13.0855 19.3198 13.0152 19.3902C12.9448 19.4605 12.8495 19.5 12.75 19.5H11.25C11.085 19.5 10.9425 19.395 10.8975 19.245L9.8925 16.5H9.75C9.55109 16.5 9.36032 16.421 9.21967 16.2803C9.07902 16.1397 9 15.9489 9 15.75C8.60218 15.75 8.22064 15.592 7.93934 15.3107C7.65804 15.0294 7.5 14.6478 7.5 14.25C7.5 13.8522 7.65804 13.4706 7.93934 13.1893C8.22064 12.908 8.60218 12.75 9 12.75C9 12.5511 9.07902 12.3603 9.21967 12.2197C9.36032 12.079 9.55109 12 9.75 12H12C12.8325 12 13.665 12 14.4825 11.625C15.2925 11.25 16.08 10.5 16.545 10.125C17.0025 9.75 17.1225 9.75 17.25 9.75C17.4489 9.75 17.6397 9.82902 17.7803 9.96967C17.921 10.1103 18 10.3011 18 10.5V13.5C18.1989 13.5 18.3897 13.579 18.5303 13.7197C18.671 13.8603 18.75 14.0511 18.75 14.25C18.75 14.4489 18.671 14.6397 18.5303 14.7803C18.3897 14.921 18.1989 15 18 15ZM21.75 14.25C21.75 15.285 21.33 16.2225 20.655 16.905L19.59 15.84C19.995 15.435 20.25 14.8725 20.25 14.25C20.25 13.6275 19.995 13.065 19.59 12.66L20.655 11.595C21.33 12.2775 21.75 13.215 21.75 14.25Z" fill="#72839C"/>
</svg>
