<svg width="20" height="20" viewBox="0 0 20 20" fill="none" xmlns="http://www.w3.org/2000/svg">
<path d="M16.505 12.43H3.995C2.9 12.43 2 11.65 2 10.69V2.74C2 1.78 2.9 1 3.995 1H16.49C17.6 1 18.5 1.78 18.5 2.74V10.69C18.5 11.65 17.6 12.43 16.505 12.43ZM3.995 2.5C3.695 2.5 3.5 2.665 3.5 2.74V10.69C3.5 10.765 3.695 10.93 3.995 10.93H16.49C16.805 10.93 17 10.765 17 10.69V2.74C17 2.665 16.805 2.5 16.505 2.5H3.995Z" fill="#36f"/>
<path d="M17.75 15.7152H2.75C2.33 15.7002 2 15.3702 2 14.9502C2 14.5302 2.33 14.2002 2.75 14.2002H17.75C18.17 14.2002 18.5 14.5302 18.5 14.9502C18.5 15.3702 18.17 15.7152 17.75 15.7152Z" fill="#36f"/>
<path d="M17.75 19H2.75C2.33 19 2 18.67 2 18.25C2 17.83 2.33 17.5 2.75 17.5H17.75C18.17 17.5 18.5 17.83 18.5 18.25C18.5 18.67 18.17 19 17.75 19Z" fill="#36f"/>
</svg>
