<svg width="30" height="30" viewBox="0 0 30 30" fill="none" xmlns="http://www.w3.org/2000/svg">
<path d="M18.1154 19.6482L19.0058 18.2032L20.6128 17.6551L20.7908 15.967L22 14.7769L21.4253 13.179L22 11.5811L20.7908 10.3909L20.6128 8.70286L19.0058 8.15475L18.1154 6.70976L16.4307 6.91325L15.0002 6L13.5693 6.91325L11.885 6.70976L10.9942 8.15513L9.38718 8.70324L9.20917 10.3913L8 11.5814L8.57473 13.1793L8 14.7769L9.20917 15.967L9.38718 17.6551L10.9942 18.2032L11.8846 19.6482L13.5693 19.4447L15.0002 20.3579L16.4311 19.4447L18.1154 19.6482ZM10.0772 13.179C10.0772 10.4643 12.2855 8.25593 15.0002 8.25593C17.7148 8.25593 19.9232 10.4643 19.9232 13.179C19.9232 15.8936 17.7145 18.102 15.0002 18.102C12.2859 18.102 10.0772 15.8936 10.0772 13.179Z" fill="#72839C"/>
<path d="M15.0001 10.1355C13.3223 10.1355 11.9572 11.5006 11.9572 13.1784C11.9572 14.8562 13.3223 16.2213 15.0001 16.2213C16.6779 16.2213 18.043 14.8562 18.043 13.1784C18.043 11.5006 16.6779 10.1355 15.0001 10.1355Z" fill="#72839C"/>
<path d="M13.2999 20.6279L11.2962 20.8698L10.2376 19.1517L9.87782 19.0288L8.85883 22.2083L11.6537 22.0546L13.8404 23.802L14.5936 21.4532L13.2999 20.6279Z" fill="#72839C"/>
<path d="M19.7627 19.1517L18.7041 20.8698L16.7004 20.6279L15.4072 21.4532L16.1896 23.802L18.3759 22.0546L21.1708 22.2083L20.1229 19.0288L19.7627 19.1517Z" fill="#72839C"/>
</svg>
