<svg width="30" height="30" viewBox="0 0 30 30" fill="none" xmlns="http://www.w3.org/2000/svg">
<path d="M18.2167 13.7653C18.0822 12.662 16.4673 11.7529 14.3806 11.6237C14.3806 11.6237 13.2726 10.8023 13.1982 9.38435C13.186 9.16968 13.0196 8.95633 12.8035 9.00775C12.2459 9.14005 11.2991 9.83041 11.252 12.9834C11.252 12.9834 8.21916 14.4589 8 18.7129C9.94405 19.8393 12.2095 20.5 14.6276 20.5385L14.6004 19.9291C14.5904 19.7144 14.7519 19.479 14.9602 19.4038L17.5435 18.4695C17.5435 18.4695 20.416 18.6323 20.92 17.7552C21.1751 17.3131 21.7121 17.0222 21.8865 16.8231C22.0292 16.6593 22.0462 16.0406 21.8865 15.891C21.3587 15.3997 18.3172 14.5898 18.2167 13.7653ZM16.6843 14.8332C16.4338 14.8332 16.2304 14.6381 16.2304 14.3956C16.2304 14.1526 16.4338 13.9571 16.6843 13.9571C16.9357 13.9571 17.1391 14.1526 17.1391 14.3956C17.1392 14.638 16.9358 14.8332 16.6843 14.8332Z" fill="#72839C"/>
</svg>
