<svg width="20" height="20" viewBox="0 0 20 20" fill="none" xmlns="http://www.w3.org/2000/svg">
<path d="M7.39692 17.5908C5.5 17.5908 2.86923 17.1892 1.16615 15.2646L1 15.0708V14.8077C1 14.5585 1 8.66 4.96 6.26462C5.40308 4.79692 6.45539 2 7.96462 2C9.26615 2 9.76462 3.62 9.94462 4.57538C10.9277 4.67231 12.8385 5.01846 13.8769 6.15385C14.2646 6.56923 14.5 7.08154 14.5692 7.63539C15.5246 8.06462 17.8923 9.10308 18.1831 9.22769C18.6677 9.46308 18.8615 9.78154 18.9308 10.0169C19.0554 10.4046 18.9862 10.8338 18.7231 11.3462C18.1831 12.3846 17.1862 13.6723 15.5385 13.9492C14.4862 14.1154 12.9908 14.24 12.4369 14.2815C12.0631 14.5585 11.1908 15.1262 10.0969 15.3477L10.3323 17.2723L9.70923 17.3969C9.59846 17.4108 8.67077 17.5908 7.39692 17.5908ZM2.38462 14.5446C4.22615 16.4 7.43846 16.2754 8.78154 16.1231L8.54615 14.0738L9.30769 14.0462C10.6092 14.0185 11.7169 13.0908 11.7169 13.0769L11.8969 12.9385L12.1185 12.9246C12.1323 12.9246 14.0985 12.7862 15.3169 12.5923C16.4108 12.4123 17.1031 11.4708 17.5046 10.7092C17.6154 10.5015 17.6154 10.4185 17.6154 10.4185C17.2831 10.3631 13.6138 8.72923 13.6138 8.72923L13.1708 8.53538L13.1985 8.05077C13.2262 7.66308 13.1154 7.35846 12.8523 7.08154C12.0354 6.19538 10.0277 5.94615 9.32154 5.91846L8.71231 5.90462L8.65692 5.29538C8.54615 4.28462 8.15846 3.38462 7.96462 3.38462C7.56308 3.48154 6.70462 5.21231 6.20615 6.92923L6.12308 7.20615L5.87385 7.34462C2.82769 9.00615 2.44 13.4231 2.38462 14.5446Z" fill="#8F989D"/>
<path d="M11.4262 9.51861C11.8238 9.51861 12.1462 9.19626 12.1462 8.79861C12.1462 8.40097 11.8238 8.07861 11.4262 8.07861C11.0285 8.07861 10.7062 8.40097 10.7062 8.79861C10.7062 9.19626 11.0285 9.51861 11.4262 9.51861Z" fill="#8F989D"/>
</svg>
