<svg width="30" height="30" viewBox="0 0 30 30" fill="none" xmlns="http://www.w3.org/2000/svg">
<path fillRule="evenodd" clipRule="evenodd" d="M20.6 21.8182H9.4V15.3155H7L15 8L23 15.3155H20.6V21.8182ZM13.6733 16.9414C13.8785 16.1858 14.4042 15.6707 14.9896 15.6707C15.5751 15.6707 16.1192 16.1857 16.3266 16.9412C16.3403 16.991 16.3525 17.0421 16.3632 17.0939C16.4096 17.3183 16.5425 17.554 16.7701 17.7608C17.0469 18.0133 17.174 18.4042 17.1009 18.7809C17.0125 19.2366 16.6102 19.6376 16.0635 19.6376C15.8343 19.6376 15.6159 19.5626 15.4314 19.4208C15.3076 19.3266 15.1417 19.277 14.989 19.277C14.8362 19.277 14.6908 19.3269 14.5687 19.4212C14.3847 19.5622 14.1651 19.6368 13.9338 19.6368C13.3868 19.6368 12.9869 19.2338 12.8992 18.7809C12.8261 18.4042 12.9529 18.0138 13.2299 17.7612C13.4576 17.554 13.5905 17.318 13.6369 17.0943C13.6476 17.0423 13.6598 16.9913 13.6733 16.9414ZM16.2122 15.009C15.7111 15.009 15.3031 14.5343 15.3031 13.9512C15.3031 13.3391 15.719 12.3644 16.2122 12.3644C16.7054 12.3644 17.1213 13.3391 17.1213 13.9512C17.1213 14.5343 16.7134 15.009 16.2122 15.009ZM12.2727 15.0089C12.7659 15.0089 13.1819 15.9837 13.1819 16.5957C13.1819 17.1789 12.7739 17.6536 12.2727 17.6536C11.7716 17.6536 11.3637 17.1789 11.3637 16.5957C11.3637 15.9837 11.7797 15.0089 12.2727 15.0089ZM17.7273 15.0089C17.2342 15.0089 16.8183 15.9837 16.8183 16.5957C16.8183 17.1789 17.2262 17.6536 17.7273 17.6536C18.2285 17.6536 18.6365 17.1789 18.6365 16.5957C18.6365 15.9837 18.2205 15.0089 17.7273 15.0089ZM12.8788 13.9512C12.8788 14.5343 13.2868 15.009 13.7879 15.009C14.2891 15.009 14.697 14.5343 14.697 13.9512C14.697 13.3391 14.281 12.3644 13.7879 12.3644C13.2947 12.3644 12.8788 13.3391 12.8788 13.9512Z" fill="#72839C"/>
</svg>
