<svg width="20" height="20" viewBox="0 0 20 20" fill="none" xmlns="http://www.w3.org/2000/svg">
<path d="M15.107 18.9997H4.80216C3.66877 18.9997 2.77399 18.254 2.77399 17.3145V8.5755C2.77399 8.15794 3.10207 7.82985 3.51964 7.82985C3.9372 7.82985 4.26529 8.15794 4.26529 8.5755V17.2996C4.2802 17.3444 4.47407 17.4935 4.80216 17.4935H15.107C15.4351 17.4935 15.629 17.3444 15.6439 17.2847V8.56059C15.6439 8.14303 15.972 7.81494 16.3896 7.81494C16.8071 7.81494 17.1352 8.14303 17.1352 8.56059V17.2847C17.1352 18.254 16.2404 18.9997 15.107 18.9997Z" fill="#36f"/>
<path d="M18.1493 7.06959C18.03 7.06959 17.9107 7.03977 17.7914 6.98012L9.94715 2.70008L2.10291 6.98012C1.74499 7.17399 1.28269 7.03977 1.08882 6.68186C0.894952 6.32394 1.02917 5.86164 1.38708 5.66777L9.94715 1L18.5072 5.66777C18.8651 5.86164 18.9993 6.32394 18.8055 6.68186C18.6713 6.92046 18.4177 7.06959 18.1493 7.06959Z" fill="#36f"/>
<path d="M9.9471 10.7084C9.9471 10.7084 7.26276 10.604 7.26276 14.019C7.26276 16.3455 8.9181 14.6454 9.9471 14.6454" fill="#36f"/>
<path d="M9.94708 10.7084C9.94708 10.7084 12.6314 10.604 12.6314 14.019C12.6314 16.3455 10.9761 14.6454 9.94708 14.6454" fill="#36f"/>
<path d="M8.66907 10.1975C9.16997 10.1584 9.52714 9.50091 9.46683 8.72903C9.40652 7.95715 8.95157 7.36314 8.45067 7.40228C7.94976 7.44142 7.59259 8.09888 7.6529 8.87076C7.71321 9.64264 8.16817 10.2367 8.66907 10.1975Z" fill="#36f"/>
<path d="M6.66336 11.5055C7.10892 11.3575 7.28499 10.68 7.05661 9.99208C6.82823 9.30418 6.28188 8.86645 5.83632 9.01438C5.39075 9.16231 5.21468 9.83988 5.44306 10.5278C5.67144 11.2157 6.21779 11.6534 6.66336 11.5055Z" fill="#36f"/>
<path d="M12.2338 8.87253C12.2941 8.10065 11.9369 7.44319 11.436 7.40405C10.9351 7.36491 10.4802 7.95892 10.4199 8.7308C10.3596 9.50268 10.7167 10.1601 11.2176 10.1993C11.7185 10.2384 12.1735 9.64441 12.2338 8.87253Z" fill="#36f"/>
<path d="M14.459 10.5309C14.6874 9.84298 14.5113 9.16541 14.0658 9.01748C13.6202 8.86955 13.0738 9.30728 12.8455 9.99518C12.6171 10.6831 12.7932 11.3606 13.2387 11.5086C13.6843 11.6565 14.2306 11.2188 14.459 10.5309Z" fill="#36f"/>
</svg>
