<svg width="30" height="30" viewBox="0 0 30 30" fill="none" xmlns="http://www.w3.org/2000/svg">
<path d="M15 13.5C15.3978 13.5 15.7794 13.658 16.0607 13.9393C16.342 14.2206 16.5 14.6022 16.5 15C16.5 15.375 16.365 15.705 16.1475 15.9675L18.525 22.5H16.9275L15 17.1975L13.0725 22.5H11.475L13.8525 15.9675C13.635 15.705 13.5 15.375 13.5 15C13.5 14.6022 13.658 14.2206 13.9393 13.9393C14.2206 13.658 14.6022 13.5 15 13.5ZM15 12C14.2044 12 13.4413 12.3161 12.8787 12.8787C12.3161 13.4413 12 14.2044 12 15C12 15.375 12.075 15.75 12.21 16.095L11.55 17.895C10.8975 17.1075 10.5 16.1025 10.5 15C10.5 13.8065 10.9741 12.6619 11.818 11.818C12.6619 10.9741 13.8065 10.5 15 10.5C16.1935 10.5 17.3381 10.9741 18.182 11.818C19.0259 12.6619 19.5 13.8065 19.5 15C19.5 16.1025 19.1025 17.1075 18.45 17.895L17.79 16.095C17.925 15.75 18 15.375 18 15C18 14.2044 17.6839 13.4413 17.1213 12.8787C16.5587 12.3161 15.7956 12 15 12ZM15 9C13.4087 9 11.8826 9.63214 10.7574 10.7574C9.63214 11.8826 9 13.4087 9 15C9 16.77 9.75 18.375 10.98 19.455L10.44 20.955C8.655 19.5825 7.5 17.4225 7.5 15C7.5 13.0109 8.29018 11.1032 9.6967 9.6967C11.1032 8.29018 13.0109 7.5 15 7.5C15.9849 7.5 16.9602 7.69399 17.8701 8.0709C18.7801 8.44781 19.6069 9.00026 20.3033 9.6967C20.9997 10.3931 21.5522 11.2199 21.9291 12.1299C22.306 13.0398 22.5 14.0151 22.5 15C22.5 17.4225 21.345 19.5825 19.56 20.955L19.02 19.455C20.25 18.375 21 16.77 21 15C21 13.4087 20.3679 11.8826 19.2426 10.7574C18.1174 9.63214 16.5913 9 15 9Z" fill="#72839C"/>
</svg>
