<svg width="20" height="20" viewBox="0 0 20 20" fill="none" xmlns="http://www.w3.org/2000/svg">
<path d="M10 7C9.208 7 8.44001 7.32 7.88001 7.88C7.32001 8.44 7 9.208 7 10C7 10.792 7.32001 11.56 7.88001 12.12C8.44001 12.68 9.208 13 10 13C10.792 13 11.56 12.68 12.12 12.12C12.68 11.56 13 10.792 13 10C13 9.208 12.68 8.44 12.12 7.88C11.56 7.32 10.792 7 10 7ZM10 5C11.328 5 12.6 5.528 13.536 6.464C14.472 7.4 15 8.672 15 10C15 11.328 14.472 12.6 13.536 13.536C12.6 14.472 11.328 15 10 15C8.672 15 7.4 14.472 6.464 13.536C5.528 12.6 5 11.328 5 10C5 8.672 5.528 7.4 6.464 6.464C7.4 5.528 8.672 5 10 5ZM15.248 3.496C15.576 3.496 15.896 3.624 16.128 3.864C16.36 4.096 16.496 4.416 16.496 4.744C16.496 5.072 16.368 5.392 16.128 5.624C15.896 5.856 15.576 5.992 15.248 5.992C14.92 5.992 14.6 5.864 14.368 5.624C14.136 5.392 14 5.072 14 4.744C14 4.416 14.128 4.096 14.368 3.864C14.6 3.632 14.92 3.496 15.248 3.496ZM5.6 2C4.648 2 3.72801 2.376 3.05601 3.056C2.38401 3.728 2 4.648 2 5.6V14.4C2 16.392 3.608 18 5.6 18H14.4C15.352 18 16.272 17.624 16.944 16.944C17.616 16.272 18 15.352 18 14.4V5.6C18 3.608 16.392 2 14.4 2H5.6ZM5.8 0H14.2C17.4 0 20 2.6 20 5.8V14.2C20 15.736 19.392 17.216 18.304 18.304C17.216 19.392 15.744 20 14.2 20H5.8C2.6 20 0 17.4 0 14.2V5.8C0 4.264 0.607996 2.784 1.696 1.696C2.784 0.608 4.264 0 5.8 0Z" fill="#8F989D"/>
</svg>
