<svg width="20" height="20" viewBox="0 0 20 20" fill="none" xmlns="http://www.w3.org/2000/svg">
<path d="M6.87456 15.4817C6.6782 15.4817 6.48184 15.4162 6.3182 15.3017C6.02365 15.0889 5.87638 14.7126 5.94184 14.3198L6.44911 11.3907L4.32184 9.31256C4.02729 9.03438 3.92911 8.65801 4.04365 8.29801C4.1582 7.93801 4.46911 7.69256 4.86184 7.64347L7.80729 7.21801L9.11638 4.55074C9.47638 3.83074 10.5237 3.83074 10.8837 4.55074L12.1927 7.21801L15.1218 7.64347C15.5146 7.69256 15.8255 7.95438 15.94 8.29801C16.0546 8.65801 15.9564 9.03438 15.6618 9.31256L13.5346 11.3907L14.0418 14.3198C14.1073 14.7126 13.9764 15.0889 13.6655 15.3017C13.3709 15.5144 12.9782 15.5307 12.6182 15.3507L10 13.9762L7.36547 15.3507C7.20184 15.4326 7.0382 15.4817 6.87456 15.4817ZM10 12.2907C10.2127 12.2907 10.4091 12.3398 10.6055 12.438L12.2091 13.2889L11.8982 11.4889C11.8327 11.0798 11.9637 10.6544 12.2746 10.3435L13.5837 9.06711L11.7837 8.80529C11.3582 8.73983 10.9982 8.47801 10.8182 8.10165L10.0164 6.46529L9.21456 8.10165C9.0182 8.47801 8.6582 8.7562 8.24911 8.80529L6.44911 9.06711L7.7582 10.3435C8.06911 10.638 8.20002 11.0635 8.13456 11.4889L7.82365 13.2889L9.42729 12.438C9.59093 12.3398 9.78729 12.2907 10 12.2907Z" fill="#72839C"/>
<path d="M10 19C5.04182 19 1 14.9582 1 10C1 5.04182 5.04182 1 10 1C14.9582 1 19 5.04182 19 10C19 14.9582 14.9582 19 10 19ZM10 2.63636C5.94182 2.63636 2.63636 5.94182 2.63636 10C2.63636 14.0582 5.94182 17.3636 10 17.3636C14.0582 17.3636 17.3636 14.0582 17.3636 10C17.3636 5.94182 14.0582 2.63636 10 2.63636Z" fill="#72839C"/>
</svg>
