<svg width="20" height="12" viewBox="0 0 20 12" fill="none" xmlns="http://www.w3.org/2000/svg">
<path d="M17.203 7.6C18.755 9.04 19.075 9.728 19.123 9.824C19.763 10.88 18.427 10.96 18.427 10.96L15.843 11C15.843 11 15.283 11.112 14.563 10.608C13.595 9.944 12.667 8.216 11.971 8.448C11.259 8.68 11.283 10.224 11.283 10.224C11.283 10.224 11.283 10.448 11.123 10.616C10.939 10.808 10.595 10.736 10.595 10.736H9.44304C9.44304 10.736 6.89104 11 4.65904 8.664C2.21104 6.128 0.0510407 1.128 0.0510407 1.128C0.0510407 1.128 -0.0689607 0.824 0.0590393 0.656C0.211039 0.496 0.627039 0.496 0.627039 0.496H3.38704C3.38704 0.496 3.65904 0.496 3.82704 0.656C3.97904 0.768 4.06704 1 4.06704 1C4.06704 1 4.50704 2.112 5.10704 3.128C6.25904 5.12 6.78704 5.552 7.15504 5.336C7.75504 5.024 7.58704 2.528 7.58704 2.528C7.58704 2.528 7.59504 1.616 7.29904 1.216C7.06704 0.904 6.62704 0.808 6.44304 0.784C6.28304 0.768 6.53904 0.408 6.87504 0.232C7.37104 -2.38419e-08 8.24304 0 9.28304 0C10.091 0 10.323 0.0639999 10.635 0.128C11.595 0.36 11.267 1.248 11.267 3.368C11.267 4.056 11.171 5 11.635 5.328C11.843 5.472 12.363 5.352 13.667 3.16C14.267 2.12 14.731 0.888 14.731 0.888C14.731 0.888 14.835 0.68 14.979 0.576C15.139 0.496 15.355 0.496 15.355 0.496H18.259C18.259 0.496 19.139 0.392 19.275 0.784C19.427 1.192 18.947 2.168 17.755 3.736C15.811 6.336 15.595 6.096 17.203 7.6Z" fill="#8F989D"/>
</svg>
