<svg width="23" height="16" viewBox="0 0 23 16" fill="none" xmlns="http://www.w3.org/2000/svg">
<path d="M20.3523 0.490524C18.5686 0 11.4158 0 11.4158 0C11.4158 0 4.26756 0 2.47938 0.472687C1.51616 0.735786 0.726867 1.52954 0.463768 2.50613C0 4.29431 0 8 0 8C0 8 0 11.7235 0.472687 13.4939C0.735786 14.4749 1.51171 15.2464 2.48829 15.5095C4.29431 16 11.4247 16 11.4247 16C11.4247 16 18.573 16 20.3612 15.5273C21.3423 15.2642 22.1137 14.4883 22.3768 13.5117C22.8495 11.7235 22.8495 8.01784 22.8495 8.01784C22.8495 8.01784 22.8584 4.29431 22.3679 2.50613C22.1048 1.52508 21.3289 0.753623 20.3523 0.490524ZM9.14158 11.4247V4.57525L15.0903 8L9.14158 11.4247Z" fill="#8F989D"/>
</svg>
