<svg width="18" height="13" viewBox="0 0 18 13" fill="none" xmlns="http://www.w3.org/2000/svg">
<path fill-rule="evenodd" clip-rule="evenodd" d="M0 1.68793V10.6875C0 11.6179 0.757118 12.375 1.6875 12.375H16.3125C17.2429 12.375 18 11.6179 18 10.6875V1.6875C18 0.757118 17.2429 0 16.3125 0H1.6875C0.75769 0 0.000938416 0.75618 0 1.68578C0 1.68636 0 1.68736 0 1.68793ZM1.18826 1.42866C1.28217 1.24846 1.47082 1.125 1.6875 1.125H16.3125C16.5292 1.125 16.7178 1.24841 16.8117 1.42857L9.31155 6.42831C9.12254 6.55486 8.8773 6.55486 8.68774 6.42831L1.18826 1.42866ZM1.125 2.73871L8.06337 7.3643C8.34798 7.55386 8.67368 7.64891 8.99993 7.64891C9.32618 7.64891 9.65186 7.55386 9.93592 7.3643L16.875 2.73857V10.6875C16.875 10.9974 16.6224 11.25 16.3125 11.25H1.6875C1.37757 11.25 1.125 10.9974 1.125 10.6875V2.73871Z" fill="#253C5E"/>
</svg>
