<svg width="12" height="18" viewBox="0 0 12 18" fill="none" xmlns="http://www.w3.org/2000/svg">
<path d="M5.97562 15.5869C6.08194 15.6881 6.22256 15.75 6.375 15.75C6.52689 15.75 6.66751 15.6881 6.77438 15.5869L6.84187 15.5025C6.86437 15.4688 6.88069 15.435 6.8925 15.4013C6.90937 15.3675 6.92063 15.3338 6.92569 15.3C6.93187 15.2607 6.9375 15.2269 6.9375 15.1875C6.9375 15.1144 6.92063 15.0413 6.8925 14.9738C6.86437 14.9063 6.825 14.8444 6.77438 14.7881C6.56625 14.58 6.18375 14.58 5.97562 14.7881C5.925 14.8444 5.88563 14.9063 5.8575 14.9738C5.82937 15.0413 5.8125 15.1144 5.8125 15.1875C5.8125 15.3394 5.87382 15.48 5.97562 15.5869Z" fill="#253C5E"/>
<path fill-rule="evenodd" clip-rule="evenodd" d="M2.4375 18H10.3125C11.2429 18 12 17.2429 12 16.3125V1.6875C12 0.757118 11.2429 0 10.3125 0H2.4375C1.50712 0 0.75 0.757118 0.75 1.6875V16.3125C0.75 17.2429 1.50712 18 2.4375 18ZM1.875 1.6875C1.875 1.37757 2.127 1.125 2.4375 1.125H10.3125C10.623 1.125 10.875 1.37757 10.875 1.6875V16.3125C10.875 16.6224 10.623 16.875 10.3125 16.875H2.4375C2.127 16.875 1.875 16.6224 1.875 16.3125V1.6875Z" fill="#253C5E"/>
</svg>
