<svg width="22" height="22" viewBox="0 0 22 22" fill="none" xmlns="http://www.w3.org/2000/svg">
<path d="M11 21C16.5228 21 21 16.5228 21 11C21 5.47715 16.5228 1 11 1C5.47715 1 1 5.47715 1 11C1 16.5228 5.47715 21 11 21Z" stroke="#979797" strokeWidth="1.32" strokeMiterlimit="10" strokeLinecap="round" strokeLinejoin="round"/>
<path d="M4.18259 18.3131C5.29563 15.8087 7.93041 14.0435 11 14.0435C14.0695 14.0435 16.7043 15.8087 17.8174 18.3131" stroke="#979797" strokeWidth="1.32" strokeMiterlimit="10" strokeLinecap="round" strokeLinejoin="round"/>
<path d="M11 11.7217C13.0795 11.7217 14.7652 10.036 14.7652 7.95653C14.7652 5.87706 13.0795 4.19131 11 4.19131C8.92051 4.19131 7.23477 5.87706 7.23477 7.95653C7.23477 10.036 8.92051 11.7217 11 11.7217Z" stroke="#979797" strokeWidth="1.32" strokeMiterlimit="10" strokeLinecap="round" strokeLinejoin="round"/>
</svg>
