<svg width="377" height="231" viewBox="0 0 377 231" fill="none" xmlns="http://www.w3.org/2000/svg">
<path d="M33.9289 53.9717C31.9686 59.9637 31.5559 64.6126 33.8257 70.5012C36.7145 78.0428 41.9763 85.0678 45.8969 92.0929C50.746 100.771 53.5317 110.482 53.8412 120.4C64.9838 122.879 76.5391 123.705 87.8881 122.776C96.9673 122.053 105.427 119.883 114.094 117.507C117.292 116.577 120.181 116.371 123.276 115.028C127.094 113.271 122.348 114.511 126.268 113.065C125.133 107.796 123.07 102.424 121.419 97.155C120.903 95.5021 133.8 84.5513 134.522 82.5884C136.07 78.456 137.411 74.1171 138.443 69.8814C140.506 61.41 141.641 52.8353 141.744 44.1574C141.951 31.347 141.847 10.2719 125.546 7.6892C111.824 5.41639 98.2054 3.2469 84.4834 1.0774C76.8487 -0.162307 68.2853 -1.1954 61.8886 3.14359C55.2856 7.6892 52.2936 15.644 48.8889 22.5657C44.6588 31.2437 40.3256 39.9217 36.0955 48.5997C35.2701 50.4592 34.5479 52.2155 33.9289 53.9717Z" fill="#CC693E"/>
<path d="M17.7302 115.234C20.7222 115.647 22.7857 112.755 24.8492 110.585C51.3645 83.3117 46.9281 62.9598 53.7375 37.4424C56.9358 25.4585 60.2373 13.4746 63.4357 1.49076C58.2771 0.66429 53.2216 3.35033 48.5788 6.03637C38.1584 11.925 27.8412 17.9169 17.4207 23.8056C12.3653 26.6982 7.0003 29.7975 3.90512 34.7563C-0.94399 42.6078 0.809943 52.6288 2.66705 61.7201C5.8654 77.0098 9.06375 92.1963 12.2621 107.486C12.9843 110.792 14.3256 114.821 17.7302 115.234Z" fill="#CC693E"/>
<path d="M148.965 116.474C138.544 105.317 132.56 90.6468 129.568 75.6669C126.576 60.6871 126.37 45.294 126.164 30.0042C126.164 26.595 126.06 23.0825 127.195 19.8799C128.33 16.6773 130.806 13.6814 134.108 12.9582C137.822 12.235 141.433 14.3012 144.631 16.2641C155.258 22.8759 165.782 29.4877 176.409 36.0995C179.091 37.7524 181.877 39.612 183.012 42.5047C184.353 45.9139 183.115 49.7363 181.774 53.2488C174.139 73.8074 166.504 94.3659 158.869 114.924C158.25 116.681 157.425 118.54 155.774 119.263C153.298 120.297 150.719 118.437 148.965 116.474Z" fill="#CC693E"/>
<path d="M248.424 228.254C247.805 228.977 242.233 228.461 241.098 228.461C239.551 228.461 238.106 228.564 236.559 228.564C235.114 228.564 233.67 228.667 232.329 228.667C226.448 228.874 220.567 229.081 214.686 229.287C203.234 229.701 191.679 230.114 180.227 230.527C165.267 231.044 150.926 231.044 135.966 228.048C138.545 225.568 141.021 223.192 143.6 220.816C143.188 220.816 142.672 220.919 142.259 220.919C134.418 221.539 126.68 222.985 118.839 224.019C125.236 215.65 130.91 207.179 136.688 198.501C138.751 195.402 140.918 192.199 141.846 188.583C141.95 188.17 142.053 187.757 142.156 187.344C144.529 175.05 129.053 167.405 121.109 161.31C121.625 145.607 122.14 129.904 122.656 114.201C122.759 111.411 122.863 108.519 123.997 105.936C123.997 105.936 133.386 110.895 136.585 114.511C141.846 120.503 149.894 124.118 157.838 123.292C159.386 123.085 161.036 122.775 162.584 122.466C174.965 119.883 187.449 117.403 199.829 114.821C206.845 113.374 214.274 111.928 221.186 113.684C227.067 115.131 232.122 118.643 236.662 122.672C244.916 130.007 253.479 140.751 259.669 152.219C264.415 161 267.923 170.194 268.852 178.562C271.018 197.985 261.423 213.584 248.424 228.254Z" fill="#CC693E"/>
<path d="M98.6189 124.842C105.531 138.272 112.444 151.599 119.357 165.029C109.039 179.286 101.405 195.402 97.0713 212.448C105.325 219.267 115.126 224.329 125.444 227.015C139.166 206.663 152.888 186.208 166.61 165.856C148.658 148.603 133.182 128.664 120.904 106.969C113.166 110.999 105.325 115.028 97.5872 119.057C98.6189 117.714 99.7538 116.267 100.786 114.924L98.6189 124.842Z" fill="#CC693E"/>
<path d="M56.3161 112.238C51.2607 129.077 46.2052 146.847 41.2529 163.686C55.4908 151.392 66.5302 134.45 72.9269 116.784C67.3556 115.234 61.8875 113.684 56.3161 112.238Z" fill="#CC693E"/>
<path d="M52.5011 205.216C49.1996 192.303 45.8981 179.286 42.5966 166.372C31.2476 173.397 23.716 186.311 23.2001 199.741C22.9938 206.766 24.5414 213.688 26.5017 220.403C35.1681 215.341 43.8346 210.279 52.5011 205.216Z" fill="#CC693E"/>
<path d="M109.141 86.9274C113.371 81.3487 113.165 73.6005 112.133 66.6788C110.792 58.2075 108.006 49.2196 101.197 44.0541C96.9666 40.8515 91.7048 39.4052 86.443 38.8886C74.0623 37.7522 60.7531 42.5045 53.8405 52.8354C50.2295 58.3108 48.5787 65.1292 49.4041 71.6377C50.2295 78.0429 53.4278 84.1381 58.1738 88.3738C67.6656 97.0518 82.213 97.8782 94.6968 94.8823C100.062 93.6426 105.736 91.4731 109.141 86.9274Z" fill="#F9DDC5"/>
<path d="M79.6357 41.8844C78.5008 40.0248 78.9135 37.6487 79.4294 35.5825C82.215 24.2185 85.0007 12.8545 87.6832 1.49048C90.572 2.31695 94.0799 2.31695 96.9687 3.14343C96.3497 16.4703 95.1116 30.6237 94.4926 43.9506C92.0164 42.9175 89.3339 43.744 86.6515 44.0539C84.1753 44.3638 80.977 44.0539 79.6357 41.8844Z" fill="#F9DDC5"/>
<path d="M103.159 131.867C100.167 116.371 97.1746 100.978 94.1826 85.4812C86.4446 88.2706 77.9845 89.3036 69.8339 88.4772C67.8736 102.94 65.2943 120.193 63.334 134.656C75.8179 139.202 90.6747 136.413 103.159 131.867Z" fill="#F9DDC5"/>
<path d="M47.6501 209.039C57.142 214.721 67.7688 218.44 78.7051 220.093C85.4113 216.477 93.046 214.618 100.578 214.824C105.427 194.576 109.966 181.352 121.109 163.79C112.855 153.046 104.808 137.033 100.165 125.359C90.5699 128.561 79.9431 128.768 70.2449 125.978C62.4038 135.999 57.0388 142.611 49.1977 152.632C46.9279 155.525 42.182 161.827 41.2534 165.443C40.2217 169.368 40.9439 173.501 41.6661 177.53C43.7296 187.964 45.6899 198.502 47.6501 209.039Z" fill="#F9DDC5"/>
<path d="M68.2854 224.845C69.3171 228.048 73.444 228.771 76.8487 228.771C93.4595 229.184 109.967 229.494 126.578 229.907C127.713 223.192 125.856 215.857 121.419 210.589C117.086 205.32 110.277 202.014 103.467 201.911C102.436 205.113 101.404 208.419 100.475 211.622C90.3643 206.766 77.2614 209.865 70.2457 218.543C68.8013 220.403 67.5632 222.676 68.2854 224.845Z" fill="#F9DDC5"/>
<path d="M69.8308 217.923C71.791 220.919 72.7196 225.361 70.1403 227.841C68.18 229.804 64.9816 229.7 62.196 229.494C50.0216 228.461 37.9504 226.601 25.9824 224.225C26.4983 218.956 27.4268 213.481 30.2125 208.935C32.9982 204.39 37.8473 200.877 43.2122 200.98C47.3391 201.084 51.0534 203.253 54.6644 205.319C60.3389 208.729 66.2197 212.344 69.8308 217.923Z" fill="#F9DDC5"/>
<path d="M64.571 213.378C56.6267 206.663 47.6507 201.084 38.0557 197.055C38.6747 193.232 39.1906 189.41 39.8096 185.691C48.0634 194.885 56.3172 204.183 64.571 213.378Z" fill="#CC693E"/>
<path d="M269.162 177.53C270.916 187.654 269.368 197.985 263.488 206.456C264.21 197.572 255.543 171.435 252.448 168.542C249.972 166.166 231.607 154.079 224.695 152.219C212.623 149.12 202.409 154.595 192.918 162.653C183.426 170.711 177.751 179.906 171.251 190.547C166.815 187.861 158.664 186.311 154.228 183.522C153.093 182.799 152.061 182.179 151.133 181.249C147.831 177.53 149.688 171.745 150.823 166.889C153.093 157.178 151.442 146.95 148.141 137.549C145.252 129.491 141.022 122.053 136.688 114.615C141.95 120.606 149.998 124.222 157.942 123.396C159.49 123.189 161.14 122.879 162.688 122.569C175.069 119.987 187.553 117.507 199.933 114.924C206.949 113.478 214.274 111.929 221.29 113.685C227.171 115.131 237.282 120.193 241.409 124.636C256.781 141.372 265.757 157.591 269.162 177.53Z" fill="#4F3025"/>
<path d="M236.558 228.668C235.114 228.668 233.669 228.771 232.328 228.771C226.447 228.978 220.566 229.184 214.685 229.391C203.233 229.804 191.678 230.217 180.226 230.631C165.266 231.147 150.925 231.147 135.965 228.151C138.544 225.672 141.02 223.296 143.6 220.92C143.187 220.92 142.671 221.023 142.258 221.023C144.838 219.163 147.727 217.717 150.719 216.684C157.837 214.308 165.885 214.618 172.797 217.407C166.401 205.113 168.877 188.79 178.781 179.079C180.432 184.761 182.083 190.443 183.734 196.125C184.559 198.811 185.384 201.601 187.035 203.874C189.305 206.973 192.916 208.626 196.424 210.279C209.733 216.374 223.146 222.573 236.558 228.668Z" fill="#F9DDC5"/>
<path d="M376.668 220.093C357.787 225.775 338.391 228.564 318.685 229.7C292.995 231.147 266.996 229.7 241.306 228.254C255.44 219.886 262.043 208.522 266.789 196.332C274.321 207.902 289.9 210.485 303.622 211.931C310.534 212.654 317.447 213.481 324.36 214.204C341.796 216.27 359.232 218.233 376.668 220.093Z" fill="#4F3025"/>
<path d="M376.669 220.093C357.788 225.775 338.392 228.565 318.686 229.701C318.892 228.978 318.995 228.358 319.201 227.738C320.543 223.192 321.884 218.44 324.257 214.308C341.796 216.271 359.232 218.234 376.669 220.093Z" fill="#F9DDC5"/>
<path d="M118.323 71.6378C116.054 72.4643 113.99 74.0139 112.03 75.4603C108.728 77.9397 104.911 81.3489 100.578 81.3489C95.2127 81.3489 92.9429 75.1503 89.6414 71.9477C87.1653 69.4683 84.6891 67.1955 81.594 65.5426C81.4908 65.4393 81.3876 65.4393 81.2844 65.4393C83.0384 61.1003 84.586 56.8646 85.5145 52.4223C88.5065 52.4223 91.4985 51.5958 93.9747 50.0462C95.8318 48.9098 97.3794 47.3601 98.6174 45.6039C99.0301 44.8807 99.4428 44.1575 99.546 43.3311C99.6492 42.1947 99.0301 41.0583 98.1016 40.3351C97.173 39.6119 96.1413 39.1987 95.0064 38.7855C89.1255 36.8226 82.7289 36.0994 76.5385 36.7193C74.475 36.9259 72.1021 37.4424 71.1735 39.302C70.3481 40.955 70.9672 42.9178 71.7926 44.4675C73.856 48.0833 77.3639 50.7693 81.2844 51.9057C80.4591 56.2447 80.1495 60.687 79.84 65.1293C76.3321 64.8194 72.1021 68.022 69.5228 69.6749C67.3561 71.1213 65.0863 72.4643 62.6102 73.2908C61.4753 73.6007 60.0309 74.0139 58.896 73.9106C57.8643 73.8073 57.1421 73.0841 56.523 72.2577C55.1818 70.5014 53.7374 68.7452 52.4993 66.8856C51.4676 65.2326 50.2295 64.1995 48.5787 63.0631C47.547 62.2367 45.4836 63.1665 46.2058 64.7161C48.3724 69.0551 52.7056 75.4603 57.8643 76.4933C65.7054 78.043 74.3719 65.2326 82.213 70.708C87.9907 74.7371 92.1175 81.4522 98.9269 83.6217C105.736 85.7912 114.196 78.4562 119.768 75.8735C122.244 74.5305 121.006 70.6047 118.323 71.6378Z" fill="#4F3025"/>
<path d="M119.769 33.31C114.816 30.9339 110.483 39.4052 109.967 43.1244C109.864 44.0541 110.896 44.5707 111.618 43.9508C112.34 43.2277 117.396 36.6159 118.427 37.4424C119.459 38.1655 119.872 40.0251 120.078 41.1615C120.491 42.8144 120.284 44.4674 120.388 46.1203C120.388 47.36 122.142 47.5667 122.657 46.5336C124.721 42.7111 124.102 35.3762 119.769 33.31Z" fill="#4F3025"/>
<path d="M62.0952 23.4955C67.6666 23.2889 68.1824 32.7933 67.2539 36.4092C67.0475 37.3389 65.8095 37.4423 65.4999 36.5125C65.0873 35.4794 63.0238 27.5246 61.7857 27.8345C60.5477 28.1444 59.5159 29.6941 58.7937 30.6238C57.762 31.9669 57.2461 33.5165 56.6271 35.0661C56.1112 36.2025 54.4605 35.686 54.3573 34.5496C53.8414 30.3139 57.2461 23.7021 62.0952 23.4955Z" fill="#4F3025"/>
<path d="M56.522 11.6149C57.1411 10.3752 55.284 9.03221 54.4586 10.2719C50.2285 16.1605 47.2365 22.5657 43.935 28.9709C40.2208 36.3059 36.0939 43.5375 33.1019 51.1824C28.1496 63.5795 33.8241 76.0799 41.1493 86.1009C42.0779 87.4439 44.0381 86.1009 43.2128 84.6546C40.0144 79.4891 36.5066 74.6336 34.3399 68.8483C31.4511 61.1001 34.2368 53.6618 37.6415 46.7401C43.4191 34.8595 50.7444 23.5988 56.522 11.6149Z" fill="#BA4F2A"/>
<path d="M63.334 3.04072C61.8896 2.93741 60.6515 3.76388 59.723 4.79698C58.7944 5.83007 60.5483 7.06978 61.2706 5.83007C61.8896 4.90029 62.715 4.28043 63.4372 3.45396C63.6435 3.35065 63.5404 3.04072 63.334 3.04072Z" fill="#BA4F2A"/>
<path d="M136.275 21.1196C135.347 20.8097 134.212 21.7395 134.934 22.6693C138.648 27.3182 136.482 34.4465 135.759 39.8186C135.037 45.0874 134.212 50.4595 133.386 55.7282C131.942 65.4393 130.394 75.8736 132.148 85.5846C132.458 87.031 134.521 86.9276 134.521 85.378C134.521 71.5346 136.585 58.7242 139.164 45.1907C140.402 38.7855 144.942 24.3222 136.275 21.1196Z" fill="#BA4F2A"/>
<path d="M133.595 12.2343C130.603 13.0607 128.23 15.8501 127.095 18.5361C126.992 18.846 127.405 19.2593 127.611 18.9494C129.365 16.5732 131.635 15.5401 134.421 14.6104C135.968 14.0938 135.143 11.821 133.595 12.2343Z" fill="#BA4F2A"/>
<path d="M129.157 148.913C126.062 151.806 123.07 155.112 120.697 158.625C119.459 160.484 121.935 162.86 123.482 161.001C126.165 157.488 128.435 153.562 130.292 149.637C130.601 148.913 129.673 148.294 129.157 148.913Z" fill="#BA4F2A"/>
<path d="M43.2144 190.34C42.5954 189.617 41.6668 189.204 40.9446 188.584C40.1192 188.067 39.2939 187.551 38.3653 187.241C38.0558 187.138 37.8494 187.448 37.9526 187.758C38.2621 188.584 38.8812 189.307 39.397 189.927C40.1192 190.753 40.7383 191.683 41.5637 192.2C42.9049 193.233 44.3493 191.58 43.2144 190.34Z" fill="#BA4F2A"/>
<path d="M150.72 184.658C147.315 190.65 144.323 196.848 140.712 202.737C136.791 209.039 131.839 214.824 128.331 221.333C128.228 221.643 128.537 221.849 128.744 221.746C140.299 214.308 149.791 198.605 153.918 185.794C154.64 183.831 151.648 183.108 150.72 184.658Z" fill="#BA4F2A"/>
<path d="M122.347 101.597C122.347 101.081 123.069 100.771 123.585 100.874C124.101 100.977 124.514 101.494 124.823 101.907C127.506 105.213 130.085 108.416 132.768 111.722C109.554 130.111 77.0544 136.103 48.7852 127.218C50.4359 122.156 50.9518 116.68 50.2296 111.412C51.1581 111.205 52.0867 110.998 53.0152 110.792C53.0152 112.858 54.4596 114.718 56.3168 115.647C58.1739 116.577 60.2373 116.784 62.3008 116.887C83.2448 118.333 104.601 114.098 123.379 104.696C122.966 103.663 122.657 102.63 122.347 101.597Z" fill="#C62B24"/>
<path d="M99.0294 211.725C88.1962 211.002 68.903 212.861 68.7998 227.738C68.7998 228.461 69.8315 228.564 70.1411 228.048C76.1251 216.064 87.2677 215.341 99.2357 214.618C101.093 214.411 100.783 211.828 99.0294 211.725Z" fill="#E5BDA1"/>
<path d="M85.1027 219.577C82.5234 222.056 80.7694 226.085 81.698 229.701C81.8011 230.217 82.6265 230.114 82.7297 229.598C83.1424 226.292 83.7614 223.296 86.4439 221.023C87.4756 220.093 86.1344 218.647 85.1027 219.577Z" fill="#E5BDA1"/>
<path d="M93.1482 221.849C91.8069 223.399 91.0847 225.259 90.672 227.325C90.5689 227.945 91.4974 228.358 91.7038 227.738C92.3228 225.982 93.1482 224.432 94.2831 222.986C95.0053 222.159 93.7672 221.126 93.1482 221.849Z" fill="#E5BDA1"/>
<path d="M69.9349 219.886C69.2127 217.407 66.9429 214.411 64.4668 213.378C64.1572 213.171 63.8477 213.584 63.9509 213.894C64.5699 214.928 65.3953 215.961 66.1175 216.994C66.8397 218.13 67.2524 219.37 67.8714 220.61C68.4905 221.849 70.3476 221.229 69.9349 219.886Z" fill="#E5BDA1"/>
<path d="M62.4059 220.3C61.9932 219.06 60.0329 219.783 60.5487 220.919C61.6836 224.019 62.1995 226.911 62.7154 230.114C62.8185 230.63 63.5407 230.734 63.6439 230.217C64.263 227.015 63.5407 223.399 62.4059 220.3Z" fill="#E5BDA1"/>
<path d="M56.1096 225.259C55.6969 224.329 54.2525 224.846 54.6652 225.776C54.9747 226.499 55.2842 227.222 55.2842 228.049C55.2842 228.668 56.1096 228.668 56.3159 228.152C56.5223 227.119 56.5223 226.086 56.1096 225.259Z" fill="#E5BDA1"/>
<path d="M188.17 222.573C183.321 220.093 178.162 218.441 173.004 216.891C172.488 216.788 172.281 217.511 172.694 217.717C177.44 220.197 182.083 222.883 186.932 225.156C188.583 225.982 189.821 223.503 188.17 222.573Z" fill="#E5BDA1"/>
<path d="M86.2367 97.7749C82.6257 96.9484 79.0147 96.9485 75.3004 97.5683C74.5782 97.6716 74.6814 98.6014 75.4036 98.6014C78.9115 98.808 82.3162 99.3246 85.824 99.8411C87.1653 99.9444 87.4748 98.0848 86.2367 97.7749Z" fill="#E5BDA1"/>
</svg>
