<svg width="405" height="148" viewBox="0 0 405 148" fill="none" xmlns="http://www.w3.org/2000/svg">
<path d="M308.699 9.6C315.199 6.7 323.099 8.8 328.799 13.2C334.399 17.6 338.199 23.9 341.599 30.2C352.099 50 359.599 71.3 363.799 93.3C359.799 97.1 357.299 102.4 356.699 107.9C351.799 108.8 346.799 109.7 341.799 109.2C336.799 108.7 331.799 106.7 328.799 102.7C326.499 99.6 325.599 95.7 324.799 91.9C319.499 67.3 314.299 42.6 308.999 18L308.699 9.6Z" fill="#443B36"/>
<path d="M372.2 121.1C360.6 122 356.6 120 353.3 120.9C343.4 123.4 322.3 128.2 306.3 130.5C300.7 131.3 295.7 131.8 292.1 131.8C278.8 131.7 265.6 126.2 256.1 116.9C256 116.9 255.8 116.9 255.7 116.9C243.5 117.9 230.2 119.1 218 120.1C218 120.1 218 120.2 218 120.3C215.7 126.9 214 137.7 208.6 140C201.4 143.2 192.9 144.4 186 140.5L192.7 140.3C171 139.2 152.9 121.7 144.5 101.6C136.1 81.6002 135.4 59.2002 134.8 37.5002C139 36.2002 143.3 35.0002 147.5 33.7002C175.3 25.4002 203.2 17.1002 231 8.8002C242.9 5.3002 254.9 1.7002 267.2 0.500204C279.5 -0.699796 292.4 0.500204 303.5 6.1002C319.3 14.1002 335.6 30.0002 339.9 47.2002C340.1 48.2002 340.4 49.2002 340.6 50.2002C343.8 66.1002 340.8 79.9002 338.4 96.4002C338.8 96.4002 339.2 96.4002 339.6 96.3002C345.8 96.0002 352.5 95.8002 353.8 96.5002C361.8 101.1 372.7 112 372.2 121.1Z" fill="#C17553"/>
<path d="M36.0996 105.7C33.2996 108.1 -1.20035 114.9 0.399651 119.2C22.9997 125.1 47.9996 125.5 70.5996 124.4C77.0996 93.2001 86.0996 62.6001 97.5996 32.8001C94.5996 28.7001 88.8997 27.2001 83.9996 28.2001C79.0996 29.3001 74.7996 32.6001 71.6996 36.5001C68.4996 40.5001 66.2996 45.1001 64.1996 49.6001C56.6996 65.5001 49.0996 81.3001 41.5996 97.2001C40.0996 100.4 38.5996 103.5 36.0996 105.7Z" fill="#724330"/>
<path d="M340.6 50.1001C340.6 50.2001 340.6 50.2001 340.6 50.1001C335.4 59.0001 328.7 66.9001 322.1 74.8001C319.4 77.9001 316.8 81.1001 314.1 84.2001C311.6 87.1001 309.1 90.1001 306.3 92.6001C297.7 100.3 285.9 104.2 274.5 103.2C263 102.2 252.1 96.2001 245.1 87.1001C237.3 90.8001 229.4 94.4001 221.6 98.1001C220.7 103 219.7 107.9 218.8 112.8C205.3 111.9 191.9 107.9 180.2 101C183.3 86.8001 188 77.6001 186.7 75.7001C182.8 69.8001 175.5 53.2001 170.2 47.9001L163.4 49.5001C158.1 44.2001 152.9 38.9001 147.6 33.6001C175.4 25.3001 203.3 17.0001 231.1 8.70011C243 5.20011 255 1.60011 267.3 0.400106C279.6 -0.799894 292.5 0.400106 303.6 6.00011C319.4 14.0001 335.7 29.9001 340 47.1001C340.2 48.1001 340.4 49.1001 340.6 50.1001Z" fill="#443B36"/>
<path d="M138.1 24.0002C119 19.3002 97.8996 26.8002 84.2996 41.0002C80.5996 44.8002 76.6996 50.2002 73.7996 55.7002C71.8996 59.3002 74.2996 62.4002 74.1996 66.5002C73.7996 77.2002 67.3996 85.2002 62.0996 95.6002C83.1996 99.7002 106.5 126.1 127.1 131.9C139.8 135.4 153.2 131.7 165.9 127.9C162.1 104.7 160.7 81.1002 161.8 57.6002C162 52.9002 162.3 48.0002 161 43.4002C158.2 33.2002 148.2 26.6002 138.1 24.0002Z" fill="#C17553"/>
<path d="M88.6997 82.1002C87.5997 83.0002 86.0997 83.4002 84.5997 83.7002C75.5997 85.7002 65.6997 88.0002 59.2997 95.3002C54.9997 100.1 52.7997 117.8 52.4997 120.2C52.2997 122.6 51.3997 125.1 49.5997 126.6C47.9997 127.9 45.0997 128.5 43.9997 130.5C41.4997 135.2 49.2997 133.8 51.2997 133.9C57.3997 134.3 63.4997 135 69.5997 135C76.5997 135 77.3997 133.9 79.3997 128.3C79.5997 139.6 104.3 137.4 110.4 137.3C112.1 137.3 134.2 137.7 134.3 136.6C134.6 134.1 131.4 133.7 130.6 132C129.6 130 130.6 125.2 130.3 122.9C129.5 116.6 127.8 107.9 123.8 102.9C118 95.6002 111.8 90.1002 103 86.4002C101.5 85.8002 110.4 50.4002 112.4 44.2002C114 39.0002 127.5 27.6002 134.1 23.4002C129 22.8002 127.1 22.1002 123.2 23.8002C119.3 25.5002 106.4 37.5002 104 41.3002C101 45.9002 91.3997 79.9002 88.6997 82.1002Z" fill="#F7EEE7"/>
<path d="M174.3 52.5C175.1 72.7 176.1 92.9 177.5 113.1C177.8 116.9 178.2 121.1 180.8 123.9C182.1 125.3 215.9 139.6 211.1 143.4C199.7 147.2 194.4 147.9 182.4 147.1C170.5 146.2 158.7 143.8 147 141.4C147.2 109 149.1 76.5 152.5 44.3C153 39.4 154 33.8 159.1 32C162.4 30.8 166 31.9 168.5 34.3C173.7 39 174.1 46 174.3 52.5Z" fill="#724330"/>
<path d="M127.2 143.9C129 146.1 132.2 146.5 135.1 146.7C142.5 147.2 149.8 147.3 157.2 147.1C159.6 147 162.2 146.8 163.9 145.1C165.1 143.9 165.6 142 165.4 140.3C165.2 138.6 164.4 136.9 163.5 135.5C159.9 129.8 153.6 126 146.9 125.5C140.2 125 133.4 127.8 129 132.8C127.7 134.3 126.5 136.1 126 138.1C125.6 140.1 125.9 142.4 127.2 143.9Z" fill="#F7EEE7"/>
<path d="M29.1992 134.7C32.7992 135.2 36.3992 135.8 39.9992 135.6C43.5992 135.4 47.2992 134.3 50.0992 131.9C52.8992 129.5 54.4992 125.7 53.7992 122.2C52.9992 118.4 49.4992 115.6 45.7992 114.5C42.0992 113.4 38.0992 113.8 34.1992 114.5C31.2992 115 28.3992 115.8 25.7992 117.2C23.1992 118.7 20.9992 120.9 19.9992 123.7C18.9992 126.5 19.5992 129.9 21.6992 131.9C23.6992 133.8 26.4992 134.3 29.1992 134.7Z" fill="#F7EEE7"/>
<path d="M372.2 121.1C360.6 122 356.6 120 353.3 120.9C343.4 123.4 322.3 128.2 306.3 130.5C320.2 122.3 331.8 110.3 339.7 96.2C345.9 95.9 352.6 95.7001 353.9 96.4001C361.8 101.1 372.7 112 372.2 121.1Z" fill="#F7EEE7"/>
<path d="M255.599 116.9C243.399 117.9 230.099 119.1 217.899 120.1C217.899 120.1 217.899 120.2 217.899 120.3C218.399 115 219.799 109.2 220.399 103.9C229.399 103.9 237.599 101.8 245.099 96.9001C248.499 103.4 251.899 109.9 255.299 116.3C255.399 116.5 255.499 116.7 255.599 116.9Z" fill="#F7EEE7"/>
<path d="M97.8992 104.4C96.3992 102.3 93.5992 101.6 90.9992 101.2C85.3992 100.2 79.6992 99.9 73.9992 100.1C71.8992 100.2 69.6992 100.4 68.0992 101.8C66.3992 103.3 65.9992 105.9 66.2992 108.2C67.1992 113.5 71.6992 117.7 76.7992 119.2C77.1992 119.3 77.5992 119.4 77.9992 119.4C77.2992 123.5 77.5992 127.7 78.9992 131.6C79.1992 132.2 79.9992 132.1 80.0992 131.5C81.0992 127.7 81.7992 123.7 81.9992 119.7C85.5992 119.6 89.0992 118.5 92.2992 116.8C94.4992 115.6 96.6992 114 97.8992 111.7C99.1992 109.5 99.3992 106.5 97.8992 104.4Z" fill="#443B36"/>
<path d="M142.399 95.2C146.299 91.1 146.499 83.2 143.699 77.9C140.999 72.5 136.099 69.4 131.099 67.7C127.399 66.4 123.399 65.9 119.799 67.4C116.199 68.9 112.999 73 112.999 77.7C112.899 81 114.299 84.1 116.199 86.5C118.099 88.8 120.399 90.5 122.699 92.2C125.799 94.4 128.899 96.6 132.399 97.6C135.799 98.6 139.699 98.1 142.399 95.2Z" fill="#F7EEE7"/>
<path d="M73.4999 75.5002C72.9999 78.9002 75.2999 80.8002 78.5999 80.9002C82.1999 81.1002 85.7999 79.7002 88.2999 77.1002C90.7999 74.6002 92.1999 70.9002 92.0999 67.4002C91.9999 64.5002 90.3999 63.7002 87.7999 63.6002C84.3999 63.4002 80.9999 64.6002 78.3999 66.8002C75.6999 69.0002 73.8999 72.2002 73.4999 75.5002Z" fill="#F7EEE7"/>
<path d="M129.999 76.3001C129.999 76.1001 129.599 76.0001 129.499 76.1001C127.499 77.8001 127.099 80.6001 124.599 81.9001C121.699 83.3001 123.999 74.8001 124.099 73.8001C124.199 72.1001 121.899 71.6001 120.899 72.7001C118.699 75.2001 117.699 84.9001 122.499 85.6001C126.999 86.2001 130.899 80.6001 129.999 76.3001Z" fill="#443B36"/>
<path d="M86.3994 70.4002C86.2994 69.4002 84.7994 68.6002 84.0994 69.6002C83.5994 70.3002 83.3994 71.1002 82.9994 71.9002C82.5994 72.8002 81.9994 73.6002 81.2994 74.3002C80.9994 74.6002 80.7994 74.8002 80.4994 75.1002C79.7994 75.6002 79.9994 74.7002 79.8994 74.2002C79.7994 73.0002 79.8994 71.8002 79.8994 70.7002C79.8994 70.3002 79.3994 70.3002 79.1994 70.6002C77.9994 72.6002 76.7994 77.8002 80.4994 77.7002C81.9994 77.7002 83.3994 76.1002 84.2994 75.1002C85.3994 73.9002 86.5994 71.9002 86.3994 70.4002Z" fill="#443B36"/>
<path d="M362.9 90.9001C376.7 89.9001 390.7 91.3001 404.1 95.0001C397.7 102.1 388.5 106.2 379.1 107.9C369.7 109.7 360.1 109.4 350.5 109.1C354.6 103 358.7 96.9001 362.9 90.9001Z" fill="#F7EEE7"/>
<path d="M366.5 103.3C364.1 101.1 361.3 99.5002 358.2 98.5002C357.7 98.3002 357.4 99.0002 357.8 99.3002C359.9 101.1 362 103 364 105C366 107 367.4 110.1 369.7 111.7C370.6 112.3 371.9 111.3 371.8 110.3C371.3 107.5 368.5 105 366.5 103.3Z" fill="#E5D5CA"/>
<path d="M139.6 128.5C135.9 132.9 134.3 140.1 136.2 145.6C136.3 145.9 136.9 145.9 136.9 145.5C137.1 143 137.3 140.7 137.8 138.2C138.5 135.1 140.1 132.6 141.7 129.9C142.5 128.6 140.5 127.4 139.6 128.5Z" fill="#E5D5CA"/>
<path d="M153.399 130.2C152.899 128.6 150.699 129.3 150.699 130.8C150.599 133.3 150.899 135.7 150.499 138.2C150.099 140.7 148.999 143 148.099 145.3C147.899 145.8 148.499 146.2 148.899 145.8C152.599 142.4 154.899 135.2 153.399 130.2Z" fill="#E5D5CA"/>
<path d="M52.9997 120C52.9997 119.6 52.3997 119.6 52.2997 120C51.7997 122.4 51.3997 124.8 50.3997 127C49.3997 129.3 46.9997 130.5 45.9997 132.9C45.3997 134.5 47.4997 135.5 48.3997 134.1C49.6997 131.9 51.6997 130.4 52.3997 127.7C53.0997 125.2 53.1997 122.6 52.9997 120Z" fill="#E5D5CA"/>
<path d="M30.0994 117.1C25.9994 121.2 23.9994 128.1 26.9994 133.4C27.1994 133.8 27.9994 133.6 27.8994 133.1C26.9994 127.6 27.5994 122.6 31.6994 118.5C32.6994 117.5 31.0994 116.1 30.0994 117.1Z" fill="#E5D5CA"/>
<path d="M39.0996 117.8C37.8996 122.8 37.5996 128.2 36.8996 133.3C36.7996 134 37.7996 134.2 37.8996 133.5C39.0996 128.5 40.6996 123.4 41.3996 118.3C41.6996 116.7 39.4996 116.2 39.0996 117.8Z" fill="#E5D5CA"/>
<path d="M245.6 87.5C245.2 86.1 243.1 86.6 243.2 88C243.4 90.9 244.2 94 245.2 96.8C245.3 97.2 246.1 97.2 246.2 96.7C246.4 93.7 246.4 90.4 245.6 87.5Z" fill="#AA4F43"/>
<path d="M179.199 101.8C178.899 102.5 178.899 103.1 178.799 103.8C178.699 104.6 178.399 105.3 178.399 106.1C178.399 106.4 178.799 106.7 178.999 106.4C179.399 105.8 179.799 105.2 180.099 104.5C180.499 103.8 181.099 103.2 181.299 102.4C181.699 101.3 179.699 100.6 179.199 101.8Z" fill="#AA4F43"/>
<path d="M247.7 61.7C245.7 68.6 242.7 75.9 242.1 83.1C242 84.6 244.1 85.6 244.8 84C247.8 77.3 248.3 69 248.7 61.8C248.7 61.2 247.8 61.2 247.7 61.7Z" fill="#2D2622"/>
<path d="M223.599 74.5001C221.399 80.9001 219.199 87.7001 218.299 94.4001C217.999 96.2001 220.599 96.7001 221.099 95.0001C222.899 88.5001 223.499 81.3001 223.899 74.6001C223.899 74.4001 223.699 74.3001 223.599 74.5001Z" fill="#2D2622"/>
<path d="M189.799 63.9C188.499 67.3 187.299 71 186.599 74.6C186.299 75.9 188.199 76.2 188.599 75C189.599 71.5 190.199 67.8 190.699 64.2C190.699 63.7 189.999 63.4 189.799 63.9Z" fill="#2D2622"/>
<path d="M342.799 46.1001C338.599 32.0001 326.799 17.2001 313.299 11.1001C312.899 10.9001 312.599 11.4001 312.899 11.7001C318.099 16.7001 323.199 21.5001 327.599 27.3001C332.299 33.5001 335.299 40.6001 338.399 47.7001C339.599 50.4001 343.599 49.0001 342.799 46.1001Z" fill="#2D2622"/>
</svg>
